<?xml version="1.0" encoding="utf-8"?>
<!-- Generator: Adobe Illustrator 14.0.0, SVG Export Plug-In . SVG Version: 6.00 Build 43363)  -->
<!DOCTYPE svg PUBLIC "-//W3C//DTD SVG 1.1//EN" "http://www.w3.org/Graphics/SVG/1.1/DTD/svg11.dtd">
<svg version="1.1" id="图层_1" xmlns="http://www.w3.org/2000/svg" xmlns:xlink="http://www.w3.org/1999/xlink" x="0px" y="0px"
	 width="960px" height="600px" viewBox="-307 -192 960 600" enable-background="new -307 -192 960 600" xml:space="preserve">
<g id="_x23_ffffffff">
	<path fill="#FFFFFF" d="M-307-192h960v600h-960V-192 M165.036-131.583c-5.826,5.971-1.081,11.806,4.468,15.583
		c6.632,26.723-1.166,53.834-3.689,80.556c-4.689-14.972-5.549-30.861-9.74-45.944c-2.219-9.222-9.6-15.666-15.426-22.639
		c-1.941-5.028-6.938-6.86-11.959-6.694c1.139,0.307,3.441,0.917,4.607,1.224c-2.609,5.277,2.165,10.193,7.435,6.749
		c16.122,16,16.37,39.667,20.117,60.611c0.721,5.223,2.19,10.5,1.054,15.776c-9.045-19.86-18.701-40.499-35.431-55.137
		c-6.05-5.612-14.346-7.53-22.42-6.918c-6.326,1.251-19.227,0.722-16.979,10.444c3.248,0.111,6.519,0.055,9.794-0.166
		c1.97-3.084,3.885-6.195,6.132-9.056c7.741-0.083,15.98,1.556,21.53,7.39c13.458,12.889,22.834,29.694,28.718,47.249
		c-6.298-6.972-12.32-14.194-17.59-21.971c-7.935-11.084-22.668-11.556-34.988-11.528c6.436,1.333,13.041,1.833,19.449,3.334
		c9.573,3.305,14.4,12.916,20.115,20.472l-5.16-1.667c-18.091-11.945-44.894-19.527-63.566-6.027
		c-2.247-0.111-6.74-0.363-8.961-0.473c-1.526,3.778-2.886,7.639-3.802,11.64c6.438,0.499,12.32-2.083,12.209-9.389
		c23.64-17.084,59.292-2.223,71.417,22.193c-14.288-8.555-31.934-11.36-48.028-6.75l-0.916-0.083
		c-5.77,4.277-13.622,6.916-17.007,13.638c-2.469,3.612,2.359,5.723,4.466,7.722c5.438-7.722,9.767-15.998,18.285-20.917
		c17.313-1.638,38.15,1.141,48.582,16.724c-7.379-1.224-14.566-4.417-22.168-3.612c-11.958,0.279-20.255,10.027-29.827,15.835
		c11.875-5.861,23.972-17.667,38.15-11.252c7.713,1.834,8.741,9.612,7.797,16.251c17.784,4.5,36.623,3.279,54.685,1.195
		c4.024-4,2.969-10.695,4.553-15.86c2.41-0.195,7.213-0.585,9.596-0.78c14.182,2.279,25.281,14.892,40.123,14.057
		c-16.701-3-28.439-18.5-46.197-18.473l0.055-3.693c15.873-9.25,34.297-12.306,52.412-12.667c4.357,2.861,9.658,3.111,14.373,5.029
		c1.998,2.944,4.66,3.943,8.02,3l1.054,0.11l2.442,1.166c0.36-2.028,1.082-6.11,1.441-8.166c-7.769-2.25-15.928-0.778-23.889-1.556
		c-15.095-2.277-30.297-0.223-45.363,1.028c13.873-9.75,31.02-13.278,47.473-15.945c0.275,1.333,0.804,3.944,1.054,5.25l-0.5-5.25
		c1.804-0.027,5.386-0.055,7.188-0.083c-2.583-0.778-5.216-0.972-7.881-0.639c-0.193-1.361-0.528-4.056-0.693-5.417
		c-0.056,1.251-0.195,3.778-0.251,5.057c-12.789,2.388-25.858,4.416-37.842,9.776c-9.408,4.5-18.121,10.223-27.166,15.306
		c-2.525-7.444,6.883-10.417,11.238-14.5c15.012-9.917,26.081-24.444,35.457-39.499c2.86-3.807,11.127-10.583,4.189-14.584
		c-6.688-2.25-8.324,6.695-5.299,10.916c-9.848,25.806-35.982,39.278-56.24,56.03c2.055-10.112,11.24-15.501,17.012-23.168
		c2.438-2.527,3.076-7.973,7.711-7.027c0.391-3.167,0.889-6.333,2.498-9.167c-8.574,10.278-14.789,23.25-28.137,28.334
		c-1.689-8,0.25-15.889,1.973-23.694c-1.111,1.721-3.332,5.193-4.44,6.944c0.223-18.112,6.853-36.639,18.476-50.584
		c1.973-3.055,5.496-3.944,8.688-5.083c0.831-1.277,2.498-3.862,3.328-5.139c-0.803-0.944-1.554-1.917-2.274-2.945l-0.333,3.417
		c-1.111,0.25-3.356,0.75-4.465,1c-7.273,9.14-16.148,17.39-20.365,28.557c-6.633,14.444-8.438,30.389-9.519,46.056
		c-0.501,3.86-1.692,7.472-3.635,10.805c-2.747-30.083,5.773-60.388-1.637-90.138c0.527-1.333,1.637-4.028,2.192-5.362
		C170.225-127.083,167.645-129.333,165.036-131.583 M186.54-63.306c4.272-4.333,7.296-9.639,11.04-14.36
		c6.272-6.334,14.209-10.695,22.45-13.862C205.156-88.306,192.34-77.39,186.54-63.306 M303.765-19.307
		c1.499,4.695,6.825,10.001,3.884,14.892c-1.691,0.525-5.075,1.583-6.77,2.109c2.192,4.416,4.58,8.832,7.826,12.583
		c3.549,6.056,10.292,10.112,11.623,17.388c-8.822-1.888-16.118-7.416-22.61-13.36c4.104,6.109,8.905,11.749,13.62,17.388
		c-2.33,0.167-7.018,0.473-9.348,0.61l-0.306,2.39c9.101,1.472,15.425,8.499,22.974,13.083c0.25,3.389,0.498,6.75,0.748,10.139
		c-11.18-0.25-23.251,0.529-33.182-5.583c-5.8-3.639-12.625-3.806-19.26-3.721c6.189,1.999,14.096,2.555,16.679,9.692
		c-4.22,1.973-8.187,4.363-11.601,7.557c6.33-2.028,12.627-4.084,19.174-5.278c8.463,6.667,17.367,12.917,24.693,20.89
		c2.305,2.888,5.994,5.999,4.274,10.25c-7.769-1.057-15.454-2.5-22.976-4.611c-2.969-8.361-8.239-15.835-15.425-21.113
		c4.522,6.306,7.351,13.528,9.546,20.919c-8.27,2.777-16.456,5.859-24.445,9.388c8.242-2.028,16.313-5.194,24.889-5.473
		c8.962,6.779,16.951,15.111,25.19,22.892c-0.413,2.47-0.831,4.941-1.222,7.416c-14.951-9.558-30.962-18.723-49.08-20.03
		c16.951,5.638,32.076,15.418,47.471,24.25c-0.748,6.553-2.578,12.86-4.688,19.083c-13.373-10.056-19.81-27.082-34.541-35.917
		c9.072,10.611,18.338,21.25,24.137,34.141c-4.272-0.336-9.961,0.553-12.401-3.943c-8.297-10.668-15.815-25.445-30.8-27.084
		c9.991,5.111,18.118,13.33,22.476,23.746c-6.603-0.58-13.208-1.053-19.81-0.748c8.739,3.5,20.695,1.914,26.246,10.943
		c3.857,7.807,9.711,14.225,15.676,20.447c-3.885,6.582-7.711,13.165-11.736,19.638c-10.349-13.251-11.68-30.917-20.282-45.001
		c2.94,7.443,2.718,15.641,4.772,23.334c1.973,9.777,7.326,18.332,12.236,26.889c-3.496,4.389-6.963,8.832-10.486,13.221
		c-6.021-15.164-11.488-30.527-15.373-46.387c-2.189,14.028,7.326,25.582,9.352,38.916c-6.383-1.722-6.49-9.5-10.127-14.029
		c-0.418,10.559,7.824,18.42,10.236,28.03c-3.689,5.332-8.85,9.415-13.623,13.724c-2.412-15.029-1.441-30.252,0.086-45.307
		c-11.045,15.553-1.859,34.473-4.633,51.779c-13.766-5.172-9.741-25.863-20.646-34.503c2.554,13.919,9.711,26.304,13.653,39.805
		c-3.526,2.557-7.411,4.028-11.628,4.419c0.391-12.863,2.693-27.75-6.603-38.281c2.055,9.058,6.993,19.751,0.889,28.223
		c-5.021-8.912-8.685-19.107-16.899-25.693c7.717,13.531,14.291,27.973,18.035,43.14c-6.129,3.751-12.096,7.861-18.756,10.669
		c-3.662-18.615-6.6-37.445-3.826-56.391c-2.581,7.278-6.272,14.609-5.549,22.525c1.551,12.668,4.688,25.531,3.411,38.281
		l-2.165-0.168c-14.646-17.499-18.586-40.945-18.506-63.141c-1.885,6.53-2.773,13.251-3.387,20.004
		c-2.801-2.447-4.855-5.42-6.156-8.975c1.523,5.444,4.883,10.778,3.273,16.613c-2.61,16-5.078,33.191,1.023,48.666
		c-4.104,1.941-8.294,3.748-12.51,5.387c-5.134-2.387-10.433-4.443-15.426-7.025c-2.359-3.973,1.275-8.475,1.581-12.615
		c3.608-12.998,1.942-26.639,4.662-39.774c1.276-5.749,1.72-11.722,0.167-17.474c-7.685,18.832-5.022,39.639-10.433,58.947
		c0.029,3.58-4.162,8.441-7.712,5.081c-4.412-12.39-0.306-25.806,2.107-38.195c1.888-10.443,4.024-22.833-4.66-30.89
		c5.88,22.058-5.411,43.643-4.578,65.835c-5.049-3.473-10.211-6.723-15.482-9.86c8.324-13.306,5.632-29.028,9.351-43.475
		c-0.554,0-1.637-0.027-2.191-0.027c-1.609,9.332-2.942,18.805-6.023,27.807c-0.775,3.556-3.217,6.306-6.63,7.584
		c-3.831-13.168,0.75-27.279-4.439-40.14c-1.637,13.251-0.306,26.944-1.555,39.972c-2.47-1.776-4.829-3.668-7.159-5.584
		c3.246-10.139,1.803-20.832,2.858-31.25c-5.854,6.695-8.74,16.058-17.064,20.639c0.612-9.164-3.302-20.416,3.525-27.914
		c-3.967-3.278-5.243-8.555-8.935-12c-0.139,3.998,2.303,8.609-1.054,12c-0.999-2.25-3.052-6.781-4.079-9.058
		c-2.249,5.142-2.942,11.807-8.741,14.278c-2.136-3-4.301-5.972-6.465-8.914c5.162-6.753,13.596-10.809,16.87-18.945
		c-4.383,2.472-8.295,5.637-12.262,8.694c0.332-9.888,6.936-17.642,11.319-26.001c-9.601,8.084-14.233,19.999-17.591,31.721
		c-5.437-3.33-7.407-9.775-11.013-14.722c0.831-12.138,12.123-18.638,18.506-27.777c3.301-5.054,10.348-5.417,13.844-10.251
		c-3.246,0.916-6.492,1.892-9.682,2.945c0.138-5.777,1.914-11.609,0.665-17.361c-1.526,5.947-1.885,12.945-7.129,17.001
		c-6.688,2.805-13.818,4.443-20.617,6.915c6.188-15.609,23.39-25.638,24-43.666c-4.689,19.804-23.944,30.363-31.796,48.583
		c-3.33-17.444,15.982-26.776,18.422-42.526c-6.714,11.416-17.923,19.527-22.584,32.333c-1.997-7.501-0.971-15.222,4.383-21.082
		c8.657-15.112,31.686-19.584,32.52-39.307c-4.469,7.139-8.936,18.194-18.535,18.583c4.966-13.306,16.342-23.611,18.312-38.084
		c-5.549,12.25-14.067,22.751-20.921,34.223c-6.436,9.306-11.875,19.443-20.033,27.418c-1.496-3.693-1.914-7.475-1.275-11.362
		c-1.749-0.473-5.299-1.416-7.048-1.889c7.048,41.278,26.636,80.722,56.102,110.528c0.249,1.611,0.75,4.861,0.998,6.473
		c-15.787-5.64-32.433-8.475-48.221-14.057c-0.86-8.361,11.514-9.082,16.148-14.474c-6.049-3.886-14.371-4.472-19.395-9.442
		c1.859-8.89,6.604-16.834,8.963-25.586C25.31,170.39,17.18,176.5,8.274,180.641c-1.831,1.139-3.967,2.164-5.605,3.388
		c-4.218,3.833-9.184,7.581-10.432,13.501c0.194,1.193,0.527,3.553,0.693,4.746c-1.194,6.085-0.916,12.335-1,18.502
		c1.608-0.527,4.855-1.611,6.492-2.166c-1.97,4.416-2.746,12.918,1.248,15.832c0.778-5.191,1.583-11.193,0.084-16.275
		c-5.965-2.029-4.579-8.419-4.799-13.336c25.831,17.557,57.598,21.027,86.426,31.363c0.833,2.334,1.693,4.666,2.553,6.998
		c-4.272,5.697-10.321,9.918-17.784,9.668l0.36,1.053c-1.832-3.665-2.663-7.581-0.445-11.304l0.833-1.139
		c-5.299-1.193-10.515-2.612-15.732-4.056c-1.22,1.193-3.689,3.556-4.91,4.751c-0.112-1.946-0.362-5.862-0.473-7.833l-2.58,1.363
		c-1.805,3.635-2.803,7.551-2.969,11.691c-3.19-3.582-3.829-7.223-1.941-10.971l1.387-1.529c-1.582-2.361-4.051-2.859-7.325-1.471
		c0.804,5.026,1.026,10.275,2.886,15.082c4.356,2.111,9.099,3.168,13.732,4.443c-1.081-2.72-2.163-5.414-3.271-8.139
		c0.97,0.027,2.886,0.055,3.854,0.082c0.029,1.892,0.056,5.67,0.085,7.559c1.857,0.831,5.605,2.527,7.462,3.36l1.888,1.944
		c-4.635,0.305-9.269,0.61-13.902,0.971c-15.843-4.859-31.769-9.888-46.335-17.887c-6.078-2.109-3.025-9.5-3.606-14.222
		l-2.832-0.445c-0.304,4.749-1.553,9.945,1.195,14.276c15.066,11.169,34.265,13.861,50.829,21.835
		c-3.217,1.358-6.436,2.667-9.682,3.916c-1.694,3.5-3.691,7.083-3.108,11.139c0.417,12.75,0.223,25.503,0.556,38.224
		c14.844,11.639,33.849,15.387,51.579,20.471c66.589,15.197,137.37,13.693,202.681-6.723c9.546-3.388,19.59-6.693,27.025-13.889
		c-0.305-15.223-0.055-30.444,0.027-45.664c-4.271-3.445-8.767-6.723-13.845-8.807c9.546,0.277,18.063-4.861,27.08-7.224
		c9.626-2.585,18.563-7.083,26.638-12.915c0.055-15.473,0.943-31.058-0.25-46.473c-3.857-7.221-11.238-11.334-18.008-15.362
		c-7.714-4.358-15.01-10.556-24.36-10.636c12.097-24.865,20.058-51.975,21.142-79.698c1.637-27.805-4.215-55.193-12.569-81.527
		C317.082-2.999,311.924-12.778,303.765-19.307 M21.175,49.418c-4.827,21.609-2.857,43.86-1.443,65.723
		c3.469-2.779,6.909-5.697,9.24-9.529c9.157-14.667,22.641-26.501,29.105-42.834c2.413-7.084,8.129-12.056,12.264-18.056
		c-8.268,6.556-12.43,16.445-18.812,24.556c-8.686,11.805-17.396,23.639-27.246,34.5c-0.027-5.917-3.802-13.556,1.416-18.25
		c8.795-8.75,18.7-16.5,25.802-26.807c0.473-2.942,0.943-5.915,1.472-8.832c-5.106,14.083-18.645,21.806-29.272,31.277
		c-0.25-5.667-1.054-12.111,3.08-16.693c7.824-9.806,16.703-19.058,27.302-25.891c1.47,2.806,2.968,5.612,4.494,8.419
		c-0.748-4.472-2.524-8.862-2.301-13.418c4.41-5.111,9.599-9.473,13.844-14.75c-6.548,3.445-11.543,8.973-16.563,14.278
		c-5.994,0.668-11.959,1.363-17.979,1.751c-0.556,0.972-1.694,2.944-2.249,3.916c-2.219-7.416-0.527-14.388,6.132-18.778
		c-3.774-14.11,8.24-25,14.178-36.472C36.214,1.39,26.449,25.334,21.175,49.418 M39.572,19.472
		c8.322-6.917,15.591-15.61,20.003-25.554C52.89,2.418,45.176,10.222,39.572,19.472 M86.239,14.75
		c0.943,30.055-0.804,60.195,0.916,90.194c-1.443,15.779-0.389,31.639-0.693,47.474c0.36,10.721-1.387,21.857,2.415,32.193
		c2.663,5.359,9.072,7.443,14.704,7.336c20.088,0.107,40.175-0.533,60.235,0.525c1.333,0.748,4.024,2.279,5.355,3.027
		c0.223,2.002,0.499,4.028,0.833,6.027c1.886-2.859,3.717-5.723,5.604-8.582c21.31-1.861,42.701-0.778,64.01-0.918
		c7.269,0.277,14.371-4.693,14.93-12.223c2.33-55.111-0.418-110.277,0.773-165.417C198.969,14.918,142.591,13.361,86.239,14.75
		 M-6.708,222.557C-5.238,224.141-5.238,224.141-6.708,222.557 M4.612,232.194c-1.054,7.083,6.132,7.138,11.181,6.308
		c1.164,4.416,2.692,4.639,4.578,0.666c0.306-1.502,0.888-4.475,1.166-5.945c0.75,1.999,1.47,3.998,2.22,6
		c0.054,2.582,0.138,5.166,0.248,7.748c6.271-1.36,5.744-8.276,2.692-12.582c0.445-1.944,0.916-3.863,1.414-5.805
		c-6.825-1.752-13.511-3.891-20.253-5.89C2.809,218.248,0.839,229.805,4.612,232.194z"/>
	<path fill="#FFFFFF" d="M102.916,35.25c3.632,4.193,7.712,7.999,11.707,11.888c-14.261,11.946,1.888,30.75-6.826,44.666
		c0.556-12.333-7.406-21.583-13.457-31.36C92.148,51.167,97.311,42.194,102.916,35.25z"/>
	<path fill="#FFFFFF" d="M31.636,44.667c4.524-2.862,9.599-4.749,14.762-6.195c-5.884,8.583-15.372,13.724-22.28,21.39
		C25.947,54.555,25.754,47.305,31.636,44.667z"/>
	<path fill="#FFFFFF" d="M308.455,62.112c5.714,1.276,11.678,2.082,17.174,4.25c2.498,3.638,0.889,8.417,0.693,12.5
		C319.412,74.418,313.088,68.945,308.455,62.112z"/>
	<path fill="#FFFFFF" d="M311.203,96.528c4.936,0.167,9.711,1.472,14.453,2.915c-0.223,2.25-0.668,6.779-0.888,9.057
		C319.024,106.083,314.614,101.612,311.203,96.528z"/>
	<path fill="#FFFFFF" d="M171.058,103.778c11.015-1.222,22.226-1.139,33.21,0.223c-0.415,28.722-0.275,57.445-0.08,86.166
		c-10.96,0.641-22.836-1.914-32.88,3.75C171.419,163.859,172.028,133.806,171.058,103.778z"/>
	<path fill="#FFFFFF" d="M221.305,103.251c10.85-0.335,21.699-0.14,32.547-0.029c0.192,20.25,1.331,40.612-0.749,60.805
		c-0.806,8.029,2.192,17.944-4.663,24.057c-8.517,3.748-18.09,1.584-27.08,2.222C221.194,161.305,221.332,132.279,221.305,103.251z"
		/>
	<path fill="#FFFFFF" d="M298.354,148.14c4.633,0.638,9.213,1.474,13.793,2.359c-1.057,3.583-2.109,7.141-3.246,10.696
		C304.598,157.527,300.604,153.416,298.354,148.14z"/>
	<path fill="#FFFFFF" d="M40.626,161.971c6.048-5.472,13.54-9,21.64-9.86c-5.854,6.335-11.875,12.64-16.008,20.306
		C43.789,169.279,42.15,165.639,40.626,161.971z"/>
	<path fill="#FFFFFF" d="M266.753,227.168c17.479-16.309,31.714-35.889,43.033-56.918c2.718,8.057,6.132,15.832,9.684,23.557
		c-6.91,2.887-13.735,5.941-20.396,9.359c4.498,5.447,14.566,7.336,15.317,14.859c-15.98,4.477-32.129,8.364-48.194,12.588
		L266.753,227.168z"/>
	<path fill="#FFFFFF" d="M10.854,183.055c6.437-3.582,12.819-7.248,19.478-10.418c-2.802,7.889-5.799,15.723-8.88,23.504
		c5.91,2.276,11.848,4.498,17.786,6.665c-5.299,4.304-10.765,8.39-16.314,12.335c-4.439-1.559-8.905-3.055-13.263-4.889
		c0.167-4.446,0.139-8.92,0-13.363c1.526-1.611,3.025-3.195,4.551-4.779c-1.139-0.25-3.441-0.748-4.579-0.971
		C10.078,188.444,10.494,185.75,10.854,183.055z"/>
	<path fill="#FFFFFF" d="M316.722,174.498c7.438,3.308,14.456,7.474,21.227,11.975c-0.165,0.916-0.501,2.723-0.693,3.61
		c0.085,1.251,0.22,3.724,0.277,4.972c-0.112,2.084-0.167,4.168-0.167,6.277c3.746,5.197-4.188,8.279-7.741,10.309
		c-8.575,5.609-15.29-5.142-22.751-8.029c5.631-2.194,11.21-4.559,16.786-6.945C322.133,189.027,319.024,181.889,316.722,174.498z"
		/>
	<path fill="#FFFFFF" d="M308.563,223.805c14.514-4.861,29.801-8.941,42.01-18.637c-0.055,10.916-0.223,21.832-0.471,32.775
		c-15.537,10.89-34.461,14.582-52.246,20.029c-13.623,0.305-31.075-5.002-36.791-18.695
		C275.548,230.445,292.777,229.057,308.563,223.805 M338.168,219.805l1.279,4l-5.078-0.638c0.168,4.581,2.855,8.444,3.691,12.833
		c-2.775,2.387-5.994,3.555-9.631,3.555c0.559-5.221,0.943-10.473,1.307-15.722c-5.691,4.583-2.693,12.612-3.691,18.862
		c4.938-2.084,9.961-4.028,14.984-5.92c-1.057-3.775-2.303-7.523-3.414-11.276c0.971-0.665,2.855-1.999,3.802-2.692
		C340.611,222.057,338.975,220.555,338.168,219.805 M315.753,229.582c-0.14,5.475-0.335,10.975-0.556,16.501
		c1.191-2.72,2.413-5.417,3.662-8.111c0.138,1.892,0.388,5.64,0.498,7.528c4.522-3.806,1.584-10.498,2.553-15.555
		C320.386,229.862,317.305,229.667,315.753,229.582 M298.967,234.307c-2,4.916-1.917,11.139-0.115,16.109
		C302.516,247.944,302.351,237.248,298.967,234.307 M303.014,232.75c-0.44,5.779-0.636,11.584-0.663,17.389
		c2.415-0.138,7.243-0.445,9.653-0.61c1.609-5.694,0.974-11.612,0.5-17.392C310.119,232.279,305.404,232.582,303.014,232.75
		 M290.752,237.999c-1.581,3.918-3.523,15.444,3.023,14.614C293.333,248.223,293.525,240.999,290.752,237.999z"/>
	<path fill="#FFFFFF" d="M73.727,213.582c2.773-2.555,5.549-5.109,8.406-7.584c1.942,6.115,1.609,12.558,1.609,18.863
		C80.107,221.363,76.75,217.61,73.727,213.582z"/>
	<path fill="#FFFFFF" d="M6.137,232.387c-0.721-3.192,0.168-5.747,2.665-7.721l1.416,2.417c-0.5,1.389-1.528,4.195-2.055,5.612
		L6.137,232.387z"/>
	<path fill="#FFFFFF" d="M184.266,222.859c4.049,15.305,9.1,30.529,18.2,43.67c-4.798,2.5-9.626,4.999-14.454,7.443
		C182.766,257.475,184.431,239.891,184.266,222.859z"/>
	<path fill="#FFFFFF" d="M98.974,227.916c5.356,0.75,2.025,11.279-2.912,9.445C91.483,235.137,95.2,228.694,98.974,227.916z"/>
	<path fill="#FFFFFF" d="M79.664,230.556l0.945-0.388l0.721,0.916C80.913,230.943,80.08,230.668,79.664,230.556z"/>
	<path fill="#FFFFFF" d="M82.771,232.417c23.335,22.556,51.025,40.5,81.295,52.249c-10.71,4.529-25.998,2.14-32.852,13.086
		c13.43-1.254,25.943-6.586,39.01-9.558c12.459,1.611,23.944,7.501,36.403,9.222c1.276-0.888,3.829-2.664,5.134-3.582
		c-10.377-3.528-21.06-6.027-31.549-9.141c27.108-13.445,54.217-27.972,76.664-48.611c3.826,15.363,1.302,31.336,1.83,46.973
		c5.298,4.084,11.127,7.446,17.312,10.059c-20.171,7.721-42.005,8.914-63.009,13.025c-41.59,2.444-83.821,2.194-124.635-7.139
		c-6.575-1.389-13.317-2.667-19.172-6.197c5.828-3.08,11.543-6.412,16.731-10.498C84.269,265.751,89.347,248.167,82.771,232.417z"/>
	<path fill="#FFFFFF" d="M261.84,249.721c7.243,5.557,15.428,9.723,23.975,12.973c1.111,3.223,1.885,6.556,2.192,9.971
		c-2.61,5.808,0.663,12.338-2.886,18.225c-8.27-2.084-17.119-4.639-22.753-11.499C263.672,269.472,261.342,259.639,261.84,249.721z"
		/>
	<path fill="#FFFFFF" d="M61.88,260.777c7.073-3.25,13.927-6.916,20.698-10.721c0.471,10.138,1.469,20.443-0.167,30.557
		c-4.83,7.498-14.901,8.219-22.53,11.359c2.136-3.248,4.272-6.498,5.771-10.084C65.486,274.693,58.687,267.777,61.88,260.777z"/>
	<path fill="#FFFFFF" d="M34.244,280.641c4.439,3,8.851,6.107,13.707,8.441c3.413,1.669,6.881,3.223,10.432,4.584
		c50.637,16.861,104.99,19.277,157.792,14.834c27.496-1.333,55.435-6.527,80.49-18.194c4.66-2.582,9.098-5.499,13.565-8.392
		c0.192,10.363,1.196,20.834-0.388,31.143c-0.584,4.306-5.326,6.137-8.795,7.748c-21.529,8.723-44.17,14.502-67.118,17.92
		c-60.125,9.25-122.719,5.109-180.429-14.529c2.22-9.112,5.382-19.613-2.748-26.779c-1.498,0.611-4.494,1.807-5.993,2.418
		c-2.997,9.194,2.053,17.498,7.991,24.193c-6.159-3.109-13.817-4.971-17.896-10.998C33.688,302.275,34.465,291.414,34.244,280.641
		 M286.758,303.166l3.857,1.086c0.027,4.941,0.109,9.86,0.473,14.805c3.717-6.027-0.559-14.584,6.02-19.086
		C293.666,301.109,290.197,302.11,286.758,303.166 M59.161,302.306c0.887,6.5-3.275,18.417,6.047,19.778
		c8.491,0.223,4.191-11.029,5.216-16.306C66.65,304.64,62.905,303.472,59.161,302.306 M273.355,306.334
		c-0.168,5.026-0.333,10.08-0.498,15.109c3.414-0.471,6.853-0.943,10.294-1.361c0.138-5.499,0.22-10.971,0.36-16.443
		C280.461,305.748,277.1,307.002,273.355,306.334 M75.251,309.501c0.14,5.362-0.666,11.026,2.415,15.778
		c0.304-6.501,0.056-13.001-0.167-19.501C76.944,306.693,75.807,308.583,75.251,309.501 M260.511,309.666
		c-0.308,4.889-0.61,9.778-1.276,14.64c2.025-0.253,6.074-0.778,8.074-1.056c0.943-4.779,1.276-9.695-0.168-14.387
		C265.477,309.056,262.147,309.471,260.511,309.666 M93.62,311.473c-0.167,5.084-0.277,10.193-0.389,15.332
		c2.609,0.836,5.245,1.611,7.881,2.332c-1.304-0.971-3.885-2.887-5.188-3.83c-0.027-4.529,0-9.027,0.083-13.531
		C95.423,311.695,94.23,311.553,93.62,311.473 M245.664,312.248c0.586,3.445,1.252,6.863,2,10.281
		c-0.498,2.555-0.999,5.084-1.472,7.639c2.663-1.611,6.577-2.279,7.519-5.777c-0.941-2.835-2.053-5.584-3.326-8.279
		c0.721-1.361,2.135-4.141,2.855-5.529C251.328,311,247.554,311.833,245.664,312.248 M104.303,313.667
		c0.082,5.332,0.138,10.639,0.165,15.973c3.136,0.693,6.298,1.416,9.461,2.109c-1.083-1.276-3.246-3.86-4.354-5.137
		c0.915-4.501-0.279-10.418,4.771-12.723C110.989,313.832,107.63,313.75,104.303,313.667 M216.562,322.166
		c-1.304-1.306-3.912-3.918-5.216-5.219c-0.085,4.969,1.664,9.803,1.191,14.802c2.638-0.86,5.216-0.498,7.711,0.668
		c-0.605-4.639-1.164-9.277-1.744-13.889c3.163-0.165,6.352-0.308,9.516-0.445c0.748,4.776-2.027,10.804,1.582,14.89
		c0.943-6.25-0.749-13.443,3.994-18.445C228.02,317.388,217.282,314.112,216.562,322.166 M123.502,316.752
		c8.268,2.332,1.499,12.525,6.77,17.164c0.139-4.276,0.139-8.527-0.027-12.803c0.97-0.863,2.94-2.643,3.912-3.53
		C130.606,317.332,127.053,317.055,123.502,316.752 M173.721,317.362c-7.85,2.915-7.712,20.997,1.973,17.917
		c5.964-1.559-2.333-2.779-2.972-3.945c0-4.694-0.665-10.361,5.384-11.057C176.637,319.307,175.162,318.336,173.721,317.362
		 M199.58,317.803c-2.053,3.753-2.969,7.696,0.277,11.334l-3.411-1.025c0.941,2.166,1.885,4.363,2.831,6.555
		c1.744-0.332,5.24-1.025,7.018-1.361c-2.08-0.723-4.162-1.416-6.242-2.111c1.441-1.275,4.3-3.83,5.717-5.111
		c-0.916-0.33-2.721-0.971-3.637-1.304l-1.859-3.638c1.389-0.668,4.162-1.975,5.549-2.643
		C204.268,318.336,201.137,317.973,199.58,317.803 M146.42,334.807c2.692-5.582,3.301-12.085-0.279-17.444
		c-1.636,4.972,3.914,15.748-5.022,15.388c-0.054-5.279,0.14-10.528,0.641-15.777C136.126,322.222,136.486,335.667,146.42,334.807
		 M153.468,318.943c0.277,6.809-2.33,18.335,8.185,17.475c1.166-3.25,2.303-6.473,3.44-9.695c-0.138-1.917-0.389-5.723-0.498-7.639
		c-1.971,0.027-5.883,0.055-7.854,0.082L153.468,318.943 M187.539,325.193c-0.693-1.666-2.08-4.971-2.773-6.638
		c-6.299,2.585-1.917,11.026-3.221,16.138l3.136,0.528c0.724-1.972,2.165-5.917,2.886-7.858c-0.583,4.33,1.026,7.053,4.801,8.164
		c0.082-6.055,0.082-12.082-0.168-18.109C191.035,319.361,188.705,323.25,187.539,325.193z"/>
	<path fill="#FFFFFF" d="M262.869,321.195c-1.973-4.056-1.417-6.863,1.664-8.389C266.503,316.89,265.947,319.667,262.869,321.195z"
		/>
</g>
<g id="_x23_ced5ccff">
	<path fill="#CED5CC" d="M165.036-131.583c2.609,2.25,5.188,4.5,7.77,6.777c-0.556,1.333-1.666,4.028-2.192,5.362
		c-0.277,0.862-0.833,2.583-1.11,3.444C163.955-119.777,159.21-125.612,165.036-131.583z"/>
	<path fill="#CED5CC" d="M241.975-83.64c-3.025-4.221-1.389-13.166,5.299-10.916c6.938,4-1.329,10.777-4.189,14.584
		C242.809-80.889,242.253-82.723,241.975-83.64z"/>
	<path fill="#CED5CC" d="M87.072-77.973c-2.247-9.723,10.654-9.193,16.979-10.444l-1.054,1.222
		c-2.247,2.861-4.162,5.972-6.132,9.056C93.591-77.917,90.319-77.861,87.072-77.973z"/>
	<path fill="#CED5CC" d="M62.544-50.417c2.221,0.11,6.715,0.362,8.961,0.473l-0.554,1.778c0.111,7.306-5.771,9.888-12.209,9.389
		C59.659-42.778,61.019-46.639,62.544-50.417z"/>
	<path fill="#CED5CC" d="M260.371-35.056c7.961,0.778,16.12-0.694,23.889,1.556c-0.359,2.055-1.081,6.138-1.441,8.166l-2.442-1.166
		c-0.251-0.029-0.776-0.083-1.054-0.11c-3.359,0.943-6.021-0.056-8.02-3c-4.715-1.917-10.016-2.167-14.373-5.029L260.371-35.056z"/>
	<path fill="#CED5CC" d="M93.424-32.805l0.916,0.083c1.195,0.084,3.635,0.278,4.828,0.36c-8.518,4.919-12.846,13.195-18.285,20.917
		c-2.107-1.999-6.936-4.11-4.466-7.722C79.803-25.89,87.654-28.528,93.424-32.805z"/>
	<path fill="#CED5CC" d="M303.765-19.307c8.159,6.529,13.317,16.308,15.482,26.417c-4.077-0.472-8.212-0.443-12.292-0.472
		l1.75,3.639c-3.246-3.751-5.634-8.167-7.826-12.583c1.694-0.527,5.078-1.584,6.77-2.109
		C310.59-9.305,305.264-14.612,303.765-19.307z"/>
	<path fill="#CED5CC" d="M315.53,33.167c3.747-1.667,9.266,3.5,6.993,7.306C319.024,41.5,314.862,36.445,315.53,33.167z"/>
	<path fill="#CED5CC" d="M206.157,66.777c0.636,0.333,1.97,0.945,2.636,1.278c0.998,3.917,0.721,7.722-0.861,11.444
		C204.826,77.223,204.686,70.417,206.157,66.777z"/>
	<path fill="#CED5CC" d="M222.889,67.167l1.552-0.277C230.6,74.556,217.282,75.666,222.889,67.167z"/>
	<path fill="#CED5CC" d="M310.675,168.336c9.351,0.08,16.646,6.277,24.36,10.636c6.77,4.028,14.15,8.142,18.008,15.362
		c1.193,15.415,0.305,31,0.25,46.473c-8.074,5.832-17.012,10.33-26.638,12.915c-9.018,2.362-17.534,7.501-27.08,7.224
		c-2.165-0.141-6.438-0.391-8.603-0.528c3.747,3.61,7.658,7.028,11.738,10.278c-1.334,0.445-4.024,1.331-5.354,1.776
		c1.747,1.278,3.549,2.557,5.326,3.86c-1.472,0.918-4.383,2.75-5.854,3.668c1.638,0.195,4.911,0.556,6.548,0.721
		c-3.609,2.142-10.182,4.168-6.713,9.585c-25.056,11.667-52.994,16.861-80.49,18.194l-3.164-2.361
		c21.004-4.111,42.838-5.305,63.009-13.025c-6.185-2.612-12.014-5.975-17.312-10.059c-0.528-15.637,1.996-31.609-1.83-46.973
		c3.246-3.027,6.572-5.941,9.876-8.914l-0.556,3.445c16.065-4.224,32.214-8.111,48.194-12.588
		c-0.751-7.523-10.819-9.412-15.317-14.859c6.66-3.418,13.485-6.473,20.396-9.359c-3.552-7.725-6.966-15.5-9.684-23.557
		L310.675,168.336 M316.722,174.498c2.303,7.391,5.411,14.529,6.938,22.168c-5.576,2.387-11.155,4.751-16.786,6.945
		c7.461,2.888,14.176,13.639,22.751,8.029c3.554-2.029,11.487-5.111,7.741-10.309c0-2.109,0.055-4.193,0.167-6.277
		c-0.058-1.248-0.192-3.721-0.277-4.972c0.192-0.888,0.528-2.694,0.693-3.61C331.178,181.972,324.16,177.806,316.722,174.498
		 M308.563,223.805c-15.785,5.252-33.015,6.641-47.498,15.473c5.716,13.693,23.168,19,36.791,18.695
		c17.785-5.447,36.709-9.14,52.246-20.029c0.248-10.943,0.416-21.859,0.471-32.775C338.363,214.863,323.076,218.943,308.563,223.805
		 M261.84,249.721c-0.498,9.918,1.832,19.751,0.528,29.669c5.634,6.86,14.483,9.415,22.753,11.499
		c3.549-5.887,0.275-12.417,2.886-18.225c-0.308-3.415-1.081-6.748-2.192-9.971C277.268,259.443,269.083,255.277,261.84,249.721z"/>
	<path fill="#CED5CC" d="M2.669,184.028c1.638-1.224,3.774-2.249,5.605-3.388c0.637,0.61,1.914,1.804,2.58,2.414
		c-0.36,2.695-0.776,5.39-1.22,8.084c1.137,0.223,3.44,0.721,4.579,0.971c-1.526,1.584-3.025,3.168-4.551,4.779
		c0.139,4.443,0.167,8.917,0,13.363c-3.746-2.475-7.797-4.892-10.238-8.779C0.339,195.638,1.949,189.918,2.669,184.028z"/>
	<path fill="#CED5CC" d="M45.092,258.721c4.633-0.36,9.267-0.666,13.902-0.971c0.721,0.75,2.164,2.252,2.886,3.027
		c-3.193,7,3.606,13.916,3.773,21.111c-1.499,3.586-3.635,6.836-5.771,10.084l-1.499,1.693c-3.55-1.361-7.019-2.915-10.432-4.584
		l3.579,0.141c-3.275-4.529-7.075-8.75-9.877-13.611c0.887-6.638,6.77-10.391,11.514-14.251
		C50.475,260.475,47.784,259.584,45.092,258.721z"/>
	<path fill="#CED5CC" d="M48.949,303.276c3.968-0.138,4.051,9.695,0.083,9.64C47.146,309.693,47.118,306.499,48.949,303.276z"/>
	<path fill="#CED5CC" d="M157.268,323.14c0.056,0.11,0.14,0.333,0.167,0.442l-0.083,0.251L157.268,323.14z"/>
</g>
<g id="_x23_c60c33ff">
	<path fill="#C60C33" d="M170.614-119.444c7.41,29.75-1.11,60.056,1.637,90.138c-0.5,1.001-1.524,2.944-2.053,3.918
		c-1.608-3.306-3.08-6.639-4.383-10.057c2.524-26.721,10.321-53.833,3.689-80.556C169.781-116.861,170.337-118.583,170.614-119.444z
		"/>
	<path fill="#C60C33" d="M186.54-63.306c5.8-14.084,18.616-25,33.49-28.223c-8.241,3.167-16.178,7.528-22.45,13.862
		C193.836-72.945,190.813-67.639,186.54-63.306z"/>
	<path fill="#C60C33" d="M104.051-88.417c8.074-0.612,16.37,1.306,22.42,6.918c16.73,14.638,26.386,35.277,35.431,55.137
		c-0.167,1.278-0.501,3.862-0.639,5.169c-3.052-3.53-5.632-7.391-8.018-11.363c-5.883-17.555-15.26-34.36-28.718-47.249
		c-5.549-5.833-13.789-7.472-21.53-7.39L104.051-88.417z"/>
	<path fill="#C60C33" d="M185.734-27.61c20.258-16.752,46.393-30.224,56.24-56.03c0.278,0.917,0.834,2.751,1.109,3.668
		c-9.376,15.055-20.445,29.583-35.457,39.499c-4.355,4.083-13.764,7.056-11.238,14.5c-4.077,1.307-8.239,2.167-12.401,3.027
		C184.431-24.112,185.291-26.444,185.734-27.61z"/>
	<path fill="#C60C33" d="M71.506-49.944c18.672-13.5,45.475-5.917,63.566,6.027c1.832,0.972,3.661,1.944,5.493,2.916
		c5.301,6.695,12.264,12.862,13.484,21.833c-3.967-2.167-7.823-4.5-11.681-6.806C130.244-50.389,94.592-65.25,70.952-48.166
		L71.506-49.944z"/>
	<path fill="#C60C33" d="M95.756-3.416c9.572-5.808,17.869-15.556,29.827-15.835c7.602-0.806,14.789,2.388,22.168,3.612
		c-0.637,2.444-1.248,4.861-1.857,7.277c17.036-1.526,34.738-3.36,51.412,1.555c0.418-1.776,1.249-5.332,1.664-7.11
		c-2.303-1.639-4.635-3.306-6.965-4.917c3.805,1.501,7.493,3.279,11.295,4.861c3.717-0.639,7.461-1.278,11.208-1.889
		c-0.999,0.5-2.966,1.501-3.97,1.999c-2.383,0.195-7.186,0.585-9.596,0.78c-1.584,5.166-0.528,11.861-4.553,15.86
		c-18.063,2.084-36.901,3.305-54.685-1.195c0.943-6.639-0.084-14.417-7.797-16.251C119.728-21.083,107.63-9.276,95.756-3.416z"/>
	<path fill="#C60C33" d="M87.932,16.028c20.975-1,41.952,0.194,62.898-0.389c6.91-0.11,14.012-0.61,20.533,2.194
		c-2.136,27.667,0.305,55.472-1.22,83.196c-27.33,1.333-54.743,0.304-82.101,0.693C87.515,73.167,87.848,44.584,87.932,16.028
		 M101.582,30.333c0.333,1.222,0.999,3.695,1.334,4.917c-5.605,6.943-10.768,15.917-8.576,25.194
		c6.05,9.777,14.012,19.027,13.457,31.36c8.713-13.916-7.435-32.72,6.826-44.666c13.235,12.583,25.859,25.806,38.873,38.611
		c2.082,2.305,4.938,3.583,7.768,4.751c-1.914-3.891-4.522-7.363-7.658-10.334c-14.4-14.305-28.8-28.583-43.116-42.973
		C107.88,34.474,104.773,32.305,101.582,30.333z"/>
	<path fill="#C60C33" d="M151.109,110.75c10.073,7,8.85,21.529,2.413,30.637C143.09,134.166,146.141,120.332,151.109,110.75z"/>
	<path fill="#C60C33" d="M106.799,114c1.304,0.195,3.939,0.641,5.272,0.863c2.191,9.082,3.052,20.273-5.549,26.443
		c-3.498-4.779-5.551-10.418-5.328-16.391C102.332,120.945,103.387,116.637,106.799,114z"/>
</g>
<g id="_x23_766866ff">
	<path fill="#766866" d="M210.567-119.139c0.721,1.028,1.472,2,2.274,2.945c-0.83,1.277-2.497,3.862-3.328,5.139
		c-3.191,1.138-6.715,2.028-8.688,5.083c-11.623,13.945-18.253,32.473-18.476,50.584c1.108-1.751,3.329-5.223,4.44-6.944
		c-1.723,7.805-3.662,15.694-1.973,23.694c-0.416,1.416-1.276,4.277-1.689,5.722c-0.641-4.723-1.029-9.473-1.584-14.194
		c-2.275,1.832-3.439,4.277-3.494,7.305l-2.165-0.305c1.081-15.667,2.886-31.612,9.519-46.056
		c4.217-11.167,13.092-19.417,20.365-28.557c1.108-0.249,3.354-0.75,4.465-1L210.567-119.139z"/>
	<path fill="#766866" d="M-7.762,197.529c4.133,0.775,4.383,2.359,0.693,4.746C-7.235,201.082-7.568,198.723-7.762,197.529z"/>
	<path fill="#766866" d="M4.612,232.194c-3.773-2.39-1.803-13.946,3.246-9.5l0.943,1.972c-2.497,1.974-3.385,4.528-2.665,7.721
		L4.612,232.194z"/>
	<path fill="#766866" d="M10.217,227.083c4.605,2.334,2.607,11.749-2.055,5.612C8.689,231.278,9.717,228.472,10.217,227.083z"/>
	<path fill="#766866" d="M298.967,234.307c3.384,2.941,3.549,13.638-0.115,16.109C297.05,245.445,296.967,239.223,298.967,234.307z"
		/>
	<path fill="#766866" d="M15.793,238.502c1.137,0.165,3.441,0.498,4.578,0.666C18.485,243.141,16.957,242.918,15.793,238.502z"/>
	<path fill="#766866" d="M290.752,237.999c2.773,3,2.581,10.224,3.023,14.614C287.229,253.443,289.171,241.917,290.752,237.999z"/>
	<path fill="#766866" d="M273.355,306.334c3.744,0.668,7.105-0.586,10.156-2.695c-0.141,5.473-0.223,10.944-0.36,16.443
		c-3.441,0.418-6.88,0.891-10.294,1.361C273.022,316.414,273.188,311.36,273.355,306.334z"/>
	<path fill="#766866" d="M245.664,312.248c1.89-0.415,5.664-1.248,7.576-1.666c-0.721,1.389-2.135,4.168-2.855,5.529
		c1.273,2.695,2.385,5.444,3.326,8.279c-0.941,3.498-4.855,4.166-7.519,5.777c0.473-2.555,0.974-5.084,1.472-7.639
		C246.916,319.111,246.25,315.693,245.664,312.248z"/>
	<path fill="#766866" d="M104.303,313.667c3.328,0.083,6.686,0.165,10.042,0.223c-5.049,2.305-3.856,8.222-4.771,12.723
		c1.108,1.276,3.271,3.86,4.354,5.137c-3.163-0.693-6.325-1.416-9.461-2.109C104.44,324.306,104.385,318.999,104.303,313.667z"/>
	<path fill="#766866" d="M173.721,317.362c1.441,0.974,2.916,1.944,4.385,2.915c-6.049,0.695-5.384,6.362-5.384,11.057
		c0.639,1.166,8.936,2.387,2.972,3.945C166.008,338.359,165.871,320.277,173.721,317.362z"/>
	<path fill="#766866" d="M153.468,318.943l3.273,0.223l0.527,3.974l0.083,0.693c-0.304,2.334-0.943,6.973-1.248,9.305
		c2.968-2.167,5.993-4.276,8.989-6.415c-1.137,3.223-2.274,6.445-3.44,9.695C151.138,337.278,153.745,325.752,153.468,318.943z"/>
	<path fill="#766866" d="M187.539,325.193c1.166-1.943,3.496-5.832,4.66-7.775c0.25,6.027,0.25,12.055,0.168,18.109
		c-3.774-1.111-5.384-3.834-4.801-8.164c-0.721,1.941-2.162,5.887-2.886,7.858l-3.136-0.528c1.304-5.111-3.078-13.553,3.221-16.138
		C185.459,320.223,186.846,323.527,187.539,325.193z"/>
</g>
<g id="_x23_000000ff">
	<path d="M128.689-110.723c5.022-0.166,10.019,1.667,11.959,6.694c5.826,6.973,13.207,13.417,15.426,22.639
		c4.191,15.083,5.051,30.972,9.74,45.944c1.304,3.417,2.775,6.75,4.383,10.057c0.528-0.974,1.553-2.917,2.053-3.918
		c1.943-3.333,3.134-6.944,3.635-10.805l2.165,0.305c0.416,2.167,1.273,6.473,1.691,8.638c0.834-0.444,2.523-1.333,3.387-1.749
		c0.413-1.445,1.273-4.306,1.689-5.722c13.348-5.084,19.563-18.056,28.137-28.334c-1.609,2.835-2.107,6-2.498,9.167
		c-4.635-0.946-5.273,4.5-7.711,7.027c-5.771,7.667-14.957,13.057-17.012,23.168c-0.443,1.166-1.304,3.498-1.747,4.665
		c4.162-0.86,8.324-1.721,12.401-3.027c9.045-5.083,17.758-10.806,27.166-15.306c11.983-5.36,25.053-7.388,37.842-9.776
		c0.056-1.278,0.195-3.806,0.251-5.057c0.165,1.361,0.5,4.056,0.693,5.417c2.665-0.333,5.298-0.139,7.881,0.639
		c-1.802,0.027-5.384,0.055-7.188,0.083l0.5,5.25c-0.25-1.306-0.778-3.917-1.054-5.25c-16.453,2.667-33.6,6.195-47.473,15.945
		c-6.16,4.917-11.568,10.833-18.727,14.388c2.716,0.389,5.461,0.862,8.182,1.361c17.758-0.027,29.496,15.473,46.197,18.473
		c-14.842,0.834-25.941-11.778-40.123-14.057c1.004-0.498,2.971-1.499,3.97-1.999c-3.747,0.61-7.491,1.25-11.208,1.889
		c-3.802-1.583-7.49-3.36-11.295-4.861c2.33,1.611,4.662,3.279,6.965,4.917c-0.415,1.778-1.246,5.333-1.664,7.11
		c-16.674-4.916-34.376-3.082-51.412-1.555c0.61-2.416,1.22-4.833,1.857-7.277C137.319-31.222,116.481-34,99.168-32.362
		c-1.193-0.083-3.633-0.276-4.828-0.36c16.094-4.61,33.74-1.805,48.028,6.75c3.858,2.306,7.714,4.639,11.681,6.806
		c-1.22-8.972-8.183-15.138-13.484-21.833c-1.832-0.972-3.661-1.944-5.493-2.916l5.16,1.667
		c-5.715-7.556-10.542-17.167-20.115-20.472c-6.409-1.501-13.013-2.001-19.449-3.334c12.32-0.027,27.053,0.444,34.988,11.528
		c5.27,7.777,11.292,15,17.59,21.971c2.386,3.972,4.966,7.833,8.018,11.363c0.138-1.307,0.473-3.891,0.639-5.169
		c1.137-5.276-0.333-10.554-1.054-15.776c-3.748-20.944-3.996-44.611-20.117-60.611c-5.27,3.444-10.044-1.472-7.435-6.749
		C132.13-109.806,129.828-110.416,128.689-110.723z"/>
	<path d="M86.239,14.75c56.352-1.389,112.73,0.168,169.082-0.362c-1.191,55.14,1.557,110.306-0.773,165.417
		c-0.559,7.529-7.661,12.5-14.93,12.223c-21.309,0.14-42.7-0.943-64.01,0.918c-1.887,2.859-3.717,5.723-5.604,8.582
		c-0.334-1.999-0.61-4.025-0.833-6.027c1.027-30.832,0.306-61.694,0.527-92.555c-27.051,0.25-54.104,0.277-81.129,0.083
		c-0.86,22.056-0.167,44.138-0.471,66.193c0.11,7.778,0.666,18.667,10.1,20.611c20.892,1.528,41.952-0.806,62.843,1.11l2.775,1.529
		c-20.061-1.059-40.147-0.418-60.235-0.525c-5.632,0.107-12.041-1.977-14.704-7.336c-3.802-10.336-2.055-21.473-2.415-32.193
		c0.304-15.835-0.75-31.695,0.693-47.474C85.435,74.945,87.182,44.805,86.239,14.75 M87.932,16.028
		c-0.083,28.556-0.417,57.139,0.11,85.695c27.358-0.389,54.771,0.639,82.101-0.693c1.525-27.725-0.916-55.529,1.22-83.196
		c-6.521-2.805-13.623-2.305-20.533-2.194C129.884,16.222,108.907,15.028,87.932,16.028 M174.524,18.083
		c-2.162,2.722-2.384,5.5-0.581,8.417l-1.887,0.335c-0.776,24.805,0.388,49.609-0.471,74.414c3.161,0.084,9.461,0.278,12.624,0.363
		l-2.303-4.028l1.164,1.47l0.583-0.833c11.623,6.695,26.22,2.056,39.066,2.444L224.44,99c5.356,4.555,12.957,1.694,19.229,2.138
		c-0.223-0.915-0.639-2.721-0.861-3.638l1.359,0.25c2.718,2.388,5.908,3.473,9.518,3.223c-0.863-27.696-0.418-55.417-0.335-83.113
		c-3.524-0.86-7.241-1.972-10.848-0.889c0.608,1.278,1.805,3.833,2.413,5.111c-0.916-0.498-2.773-1.526-3.717-2.055
		c-0.36-0.833-1.054-2.527-1.414-3.36c-18.008-0.473-36.626,1.722-54.689-0.75c0.195,1.583,0.584,4.805,0.779,6.388
		c-0.749-1.278-2.275-3.804-3.026-5.084l-1.387,2.223C179.603,16.805,177.3,16.361,174.524,18.083 M171.058,103.778
		c0.971,30.028,0.362,60.082,0.25,90.138c10.044-5.664,21.92-3.109,32.88-3.75c-0.195-28.721-0.335-57.443,0.08-86.166
		C193.283,102.639,182.072,102.556,171.058,103.778 M221.305,103.251c0.027,29.028-0.11,58.054,0.055,87.055
		c8.99-0.638,18.563,1.526,27.08-2.222c6.855-6.112,3.857-16.027,4.663-24.057c2.08-20.193,0.941-40.555,0.749-60.805
		C243.004,103.111,232.154,102.916,221.305,103.251z"/>
	<path d="M-1.576,218.611l1.333-0.443c1.499,5.082,0.693,11.084-0.084,16.275C-4.322,231.529-3.546,223.027-1.576,218.611z"/>
	<path d="M338.168,219.805c0.807,0.75,2.443,2.252,3.249,3.002c-0.946,0.693-2.831,2.027-3.802,2.692
		c1.111,3.753,2.357,7.501,3.414,11.276c-5.023,1.892-10.047,3.836-14.984,5.92c0.998-6.25-2-14.279,3.691-18.862
		c-0.363,5.249-0.748,10.501-1.307,15.722c3.637,0,6.855-1.168,9.631-3.555c-0.836-4.389-3.523-8.252-3.691-12.833l5.078,0.638
		L338.168,219.805z"/>
	<path d="M315.753,229.582c1.552,0.085,4.633,0.28,6.157,0.363c-0.969,5.057,1.97,11.749-2.553,15.555
		c-0.11-1.889-0.36-5.637-0.498-7.528c-1.249,2.694-2.471,5.392-3.662,8.111C315.418,240.557,315.613,235.057,315.753,229.582
		 M317.916,233C319.553,234.666,319.553,234.666,317.916,233z"/>
	<path d="M60.019,252.721c1.832-3.473,3.69-6.943,6.048-10.11c-2.218,3.723-1.387,7.639,0.445,11.304
		c0.277,0.809,0.804,2.393,1.054,3.195C65.041,255.641,62.517,254.167,60.019,252.721z"/>
	<path d="M286.758,303.166c3.439-1.056,6.908-2.057,10.35-3.195c-6.578,4.502-2.303,13.059-6.02,19.086
		c-0.363-4.944-0.445-9.863-0.473-14.805L286.758,303.166z"/>
	<path d="M75.251,309.501c0.556-0.918,1.693-2.808,2.249-3.723c0.223,6.5,0.471,13,0.167,19.501
		C74.585,320.527,75.391,314.863,75.251,309.501z"/>
	<path d="M260.511,309.666c1.637-0.195,4.966-0.61,6.63-0.803c1.444,4.691,1.111,9.607,0.168,14.387
		c-2,0.277-6.049,0.803-8.074,1.056C259.9,319.444,260.203,314.555,260.511,309.666 M262.869,321.195
		c3.078-1.528,3.634-4.306,1.664-8.389C261.452,314.332,260.896,317.14,262.869,321.195z"/>
	<path d="M93.62,311.473c0.61,0.08,1.803,0.223,2.386,0.303c-0.083,4.504-0.11,9.002-0.083,13.531
		c1.303,0.943,3.885,2.859,5.188,3.83c-2.636-0.721-5.272-1.496-7.881-2.332C93.343,321.666,93.453,316.557,93.62,311.473z"/>
	<path d="M216.562,322.166c0.721-8.054,11.458-4.778,17.034-7.639c-4.743,5.002-3.051,12.195-3.994,18.445
		c-3.609-4.086-0.834-10.113-1.582-14.89c-3.164,0.138-6.353,0.28-9.516,0.445c0.58,4.611,1.139,9.25,1.744,13.889
		c-2.495-1.166-5.073-1.528-7.711-0.668c0.473-4.999-1.276-9.833-1.191-14.802C212.649,318.248,215.258,320.86,216.562,322.166z"/>
	<path d="M123.502,316.752c3.551,0.303,7.104,0.58,10.654,0.831c-0.972,0.888-2.942,2.667-3.912,3.53
		c0.167,4.275,0.167,8.526,0.027,12.803C125.001,329.277,131.77,319.084,123.502,316.752z"/>
	<path d="M199.58,317.803c1.557,0.17,4.688,0.533,6.242,0.695c-1.387,0.668-4.16,1.975-5.549,2.643l1.859,3.638
		c0.916,0.333,2.721,0.974,3.637,1.304c-1.417,1.281-4.275,3.836-5.717,5.111c2.08,0.695,4.162,1.389,6.242,2.111
		c-1.777,0.336-5.273,1.029-7.018,1.361c-0.946-2.191-1.89-4.389-2.831-6.555l3.411,1.025
		C196.611,325.499,197.527,321.556,199.58,317.803z"/>
	<path d="M146.42,334.807c-9.934,0.86-10.294-12.585-4.66-17.834c-0.501,5.249-0.695,10.498-0.641,15.777
		c8.936,0.36,3.386-10.416,5.022-15.388C149.721,322.722,149.112,329.225,146.42,334.807z"/>
</g>
<g id="_x23_ea0116ff">
	<path fill="#EA0116" d="M178.051-39.806c0.055-3.027,1.219-5.473,3.494-7.305c0.555,4.721,0.943,9.471,1.584,14.194
		c-0.863,0.417-2.553,1.305-3.387,1.749C179.324-33.333,178.467-37.639,178.051-39.806z"/>
	<path fill="#EA0116" d="M129.078,178.251c-6.103-8.584-7.712-22.638,1.832-29.391C137.042,157.5,139.428,171.861,129.078,178.251z"
		/>
</g>
<g id="_x23_be9d22ff">
	<path fill="#BE9D22" d="M215.008-34.027c15.066-1.251,30.269-3.305,45.363-1.028l-3.441,0.417
		c-18.115,0.362-36.539,3.417-52.412,12.667l-0.055,3.693c-2.721-0.5-5.466-0.972-8.182-1.361
		C203.439-23.194,208.848-29.111,215.008-34.027z"/>
	<path fill="#BE9D22" d="M181.462,19.444l1.387-2.223c0.751,1.28,2.277,3.806,3.026,5.084c1.441,2.5,3.799,4.445,4.883,7.139
		c-2.553,2.5-5.439,4.611-8.242,6.834c-3.411-3.223-6.908-6.391-10.459-9.444l1.887-0.335
		C177.883,26.361,179.575,22.305,181.462,19.444z"/>
	<path fill="#BE9D22" d="M241.199,20.027c0.943,0.529,2.801,1.557,3.717,2.055c1.832,1.89,3.664,3.778,5.521,5.667
		c-2.248,2.833-4.468,5.696-6.686,8.557c-2.693-2.307-5.604-4.334-8.324-6.612C237.37,26.5,239.313,23.277,241.199,20.027z"/>
	<path fill="#BE9D22" d="M190.342,39.695c3.967-2.973,8.27-6.918,13.511-3.945l0.167,1.222l0.969,0.111l0.445-1.139
		c11.07-0.612,25.441-4.222,33.045,6.39c-2.438,0.472-7.351,1.417-9.818,1.916c0.386,1.141,1.164,3.417,1.552,4.557
		c-1.694,0.471-5.021,1.417-6.688,1.888c0.138,4.501,0.306,9.027,0.666,13.528l0.25,2.667l-1.552,0.277l-2.498,0.5
		c-2.748,9.333,1.662,25.083-10.102,28.918c0.416-4.974,0.834-9.945,1.057-14.946c1.552-0.971,4.688-2.944,6.242-3.945
		c-0.971-9.138-1.222-18.332-1.359-27.499c2.248-2.89,4.551-5.75,6.825-8.613c-5.771,0.501-11.601,0.751-17.397,0.418
		c6.854,7.472,5.549,17.972,5.494,27.305l-2.357-1.25c-0.666-0.333-2-0.945-2.636-1.278c-5.273-1.555-10.239-3.943-13.79-8.277
		c4.106,0.778,8.211,1.416,12.346,2.055C203.076,51.833,199.58,42.695,190.342,39.695z"/>
	<path fill="#BE9D22" d="M234.539,91.14c2.831-3.335,5.273-7.141,8.853-9.779c2.553,3.14,4.798,6.527,7.128,9.833
		c-2.135,2.194-4.242,4.362-6.352,6.556l-1.359-0.25C240.061,95.333,237.313,93.222,234.539,91.14z"/>
	<path fill="#BE9D22" d="M175.471,89.388c2.635-2.749,5.298-5.444,7.934-8.193c1.887,3.111,3.802,6.221,5.688,9.306
		c-1.358,1.943-4.079,5.805-5.438,7.721l-0.583,0.833l-1.164-1.47C179.798,94.805,177.633,92.083,175.471,89.388z"/>
</g>
<g id="_x23_9cb799ff">
	<path fill="#9CB799" d="M279.322-26.61c0.277,0.027,0.803,0.082,1.054,0.11L279.322-26.61z"/>
	<path fill="#9CB799" d="M8.274,180.641c8.905-4.141,17.036-10.251,26.803-12.393c-2.359,8.752-7.104,16.696-8.963,25.586
		c5.023,4.971,13.346,5.557,19.395,9.442c-4.635,5.392-17.009,6.112-16.148,14.474c15.788,5.582,32.435,8.417,48.221,14.057
		c-0.248-1.611-0.749-4.861-0.998-6.473c1.359,1.584,2.719,3.195,4.024,4.834l-0.945,0.388c0.417,0.112,1.249,0.388,1.666,0.528
		l1.441,1.333c6.577,15.75,1.499,33.334,3.164,49.888c-5.188,4.086-10.904,7.418-16.731,10.498
		c5.854,3.53,12.597,4.809,19.172,6.197c40.814,9.333,83.044,9.583,124.635,7.139l3.164,2.361
		c-52.801,4.443-107.155,2.027-157.792-14.834l1.499-1.693c7.629-3.141,17.7-3.861,22.53-11.359
		c1.635-10.113,0.637-20.419,0.167-30.557c-6.771,3.805-13.625,7.471-20.698,10.721c-0.722-0.775-2.165-2.277-2.886-3.027
		l-1.888-1.944c-1.857-0.833-5.605-2.529-7.462-3.36c-0.029-1.889-0.056-5.667-0.085-7.559c-0.969-0.027-2.884-0.055-3.854-0.082
		c1.108,2.725,2.19,5.419,3.271,8.139c-4.633-1.275-9.376-2.332-13.732-4.443c-1.859-4.807-2.082-10.056-2.886-15.082
		c3.273-1.389,5.743-0.891,7.325,1.471l-1.387,1.529c-1.888,3.748-1.249,7.389,1.941,10.971c0.167-4.141,1.165-8.057,2.969-11.691
		l2.58-1.363c0.111,1.971,0.36,5.887,0.473,7.833c1.22-1.195,3.689-3.558,4.91-4.751c5.217,1.443,10.433,2.862,15.732,4.056
		l-0.833,1.139c-2.358,3.167-4.216,6.638-6.048,10.11c2.498,1.446,5.022,2.92,7.547,4.389c-0.25-0.803-0.777-2.387-1.054-3.195
		l-0.36-1.053c7.463,0.25,13.511-3.971,17.784-9.668c-0.86-2.332-1.72-4.664-2.553-6.998
		c-28.828-10.336-60.596-13.807-86.426-31.363c0.221,4.917-1.166,11.307,4.799,13.336l-1.333,0.443
		c-1.637,0.555-4.884,1.639-6.492,2.166c0.083-6.167-0.195-12.417,1-18.502c3.689-2.387,3.44-3.971-0.693-4.746
		c1.248-5.92,6.213-9.668,10.432-13.501c-0.721,5.89-2.33,11.609-3.246,17.444c2.44,3.888,6.492,6.305,10.238,8.779
		c4.357,1.834,8.824,3.33,13.263,4.889c5.549-3.945,11.015-8.031,16.314-12.335c-5.938-2.167-11.876-4.389-17.786-6.665
		c3.081-7.781,6.078-15.615,8.88-23.504c-6.659,3.17-13.042,6.836-19.478,10.418C10.188,182.444,8.912,181.251,8.274,180.641z"/>
	<path fill="#9CB799" d="M-6.708,222.557C-5.238,224.141-5.238,224.141-6.708,222.557z"/>
	<path fill="#9CB799" d="M7.858,222.694c6.742,1.999,13.428,4.138,20.253,5.89c-0.498,1.941-0.969,3.86-1.414,5.805
		c3.052,4.306,3.579,11.222-2.692,12.582c-0.11-2.582-0.194-5.166-0.248-7.748c-0.75-2.002-1.47-4.001-2.22-6
		c-0.278,1.471-0.86,4.443-1.166,5.945c-1.137-0.168-3.441-0.501-4.578-0.666c-5.049,0.83-12.235,0.775-11.181-6.308l1.525,0.192
		l2.025,0.309c4.662,6.137,6.66-3.278,2.055-5.612l-1.416-2.417L7.858,222.694z"/>
	<path fill="#9CB799" d="M-7.681,226.167l2.832,0.445c0.581,4.722-2.471,12.112,3.606,14.222
		c14.566,7.999,30.492,13.027,46.335,17.887c2.692,0.863,5.382,1.754,8.074,2.64c-4.745,3.86-10.627,7.613-11.514,14.251
		c2.803,4.861,6.603,9.082,9.877,13.611l-3.579-0.141c-4.855-2.334-9.267-5.441-13.707-8.441c0.221,10.773-0.556,21.635,0.61,32.389
		c4.079,6.027,11.737,7.889,17.896,10.998c-5.938-6.695-10.987-14.999-7.991-24.193c1.499-0.611,4.495-1.807,5.993-2.418
		c8.13,7.166,4.967,17.667,2.748,26.779c57.71,19.639,120.304,23.779,180.429,14.529c22.948-3.418,45.589-9.197,67.118-17.92
		c3.469-1.611,8.211-3.442,8.795-7.748c1.584-10.309,0.58-20.779,0.388-31.143c-4.468,2.893-8.905,5.81-13.565,8.392
		c-3.469-5.417,3.104-7.443,6.713-9.585c-1.637-0.165-4.91-0.525-6.548-0.721c1.472-0.918,4.383-2.75,5.854-3.668
		c-1.777-1.304-3.579-2.582-5.326-3.86c1.329-0.445,4.02-1.331,5.354-1.776c-4.08-3.25-7.991-6.668-11.738-10.278
		c2.165,0.138,6.438,0.388,8.603,0.528c5.078,2.084,9.573,5.361,13.845,8.807c-0.082,15.22-0.332,30.441-0.027,45.664
		c-7.436,7.195-17.479,10.501-27.025,13.889c-65.311,20.416-136.091,21.92-202.681,6.723c-17.729-5.084-36.735-8.832-51.579-20.471
		c-0.333-12.721-0.139-25.474-0.556-38.224c-0.583-4.056,1.414-7.639,3.108-11.139c3.246-1.249,6.465-2.558,9.682-3.916
		c-16.563-7.974-35.763-10.666-50.829-21.835C-9.234,236.112-7.985,230.916-7.681,226.167 M48.949,303.276
		c-1.831,3.223-1.803,6.417,0.083,9.64C53,312.972,52.917,303.139,48.949,303.276z"/>
	<path fill="#9CB799" d="M303.014,232.75c2.391-0.168,7.105-0.471,9.49-0.613c0.474,5.779,1.109,11.697-0.5,17.392
		c-2.41,0.165-7.238,0.473-9.653,0.61C302.378,244.334,302.573,238.529,303.014,232.75z"/>
	<path fill="#9CB799" d="M317.916,233C319.553,234.666,319.553,234.666,317.916,233z"/>
	<path fill="#9CB799" d="M59.161,302.306c3.744,1.166,7.49,2.334,11.263,3.473c-1.025,5.276,3.275,16.528-5.216,16.306
		C55.886,320.723,60.048,308.806,59.161,302.306z"/>
	<path fill="#9CB799" d="M156.741,319.166c1.97-0.027,5.882-0.055,7.854-0.082c0.109,1.916,0.36,5.722,0.498,7.639
		c-2.996,2.139-6.021,4.248-8.989,6.415c0.304-2.332,0.943-6.971,1.248-9.305l0.083-0.251c-0.027-0.109-0.111-0.332-0.167-0.442
		L156.741,319.166z"/>
</g>
<g id="_x23_41b343ff">
	<path fill="#41B343" d="M21.175,49.418C26.449,25.334,36.214,1.39,53.638-16.473C47.7-5.001,35.686,5.889,39.46,19.999
		c-6.659,4.39-8.351,11.362-6.132,18.778c0.554-0.972,1.693-2.944,2.249-3.916c6.02-0.388,11.985-1.083,17.979-1.751
		c5.021-5.305,10.015-10.833,16.563-14.278c-4.245,5.278-9.434,9.639-13.844,14.75c-0.223,4.556,1.553,8.946,2.301,13.418
		c-1.526-2.807-3.023-5.613-4.494-8.419c-10.6,6.833-19.478,16.085-27.302,25.891c-4.133,4.583-3.33,11.026-3.08,16.693
		c10.627-9.471,24.166-17.195,29.272-31.277c-0.528,2.917-0.999,5.89-1.472,8.832c-7.102,10.307-17.007,18.057-25.802,26.807
		c-5.217,4.695-1.443,12.333-1.416,18.25c9.85-10.861,18.561-22.695,27.246-34.5c6.382-8.111,10.544-18,18.812-24.556
		c-4.135,6-9.851,10.972-12.264,18.056c-6.465,16.333-19.949,28.167-29.105,42.834c-2.332,3.832-5.771,6.75-9.24,9.529
		C18.318,93.278,16.349,71.027,21.175,49.418 M31.636,44.667c-5.882,2.638-5.688,9.888-7.519,15.194
		c6.908-7.666,16.396-12.806,22.28-21.39C41.234,39.918,36.16,41.805,31.636,44.667z"/>
	<path fill="#41B343" d="M39.572,19.472c5.604-9.25,13.317-17.054,20.003-25.554C55.164,3.861,47.895,12.555,39.572,19.472z"/>
	<path fill="#41B343" d="M306.955,6.639c4.08,0.029,8.215,0,12.292,0.472c8.354,26.334,14.206,53.723,12.569,81.527
		c-1.084,27.723-9.045,54.833-21.142,79.698l-0.889,1.914c-11.319,21.029-25.554,40.609-43.033,56.918
		c-3.304,2.973-6.63,5.887-9.876,8.914c-22.447,20.64-49.556,35.166-76.664,48.611c10.489,3.113,21.172,5.612,31.549,9.141
		c-1.305,0.918-3.857,2.694-5.134,3.582c-12.459-1.721-23.944-7.61-36.403-9.222c-13.067,2.972-25.581,8.304-39.01,9.558
		c6.854-10.946,22.141-8.557,32.852-13.086c-30.27-11.749-57.96-29.693-81.295-52.249l-1.441-1.333l-0.721-0.916
		c-1.305-1.639-2.665-3.25-4.024-4.834c-29.466-29.807-49.054-69.25-56.102-110.528c1.749,0.473,5.299,1.416,7.048,1.889
		c-0.639,3.888-0.221,7.669,1.275,11.362c8.159-7.975,13.597-18.112,20.033-27.418c6.854-11.472,15.372-21.973,20.921-34.223
		c-1.97,14.473-13.346,24.779-18.312,38.084c9.599-0.389,14.065-11.444,18.535-18.583c-0.834,19.722-23.863,24.194-32.52,39.307
		c-5.354,5.86-6.38,13.581-4.383,21.082c4.662-12.806,15.87-20.917,22.584-32.333c-2.44,15.75-21.752,25.082-18.422,42.526
		c7.852-18.22,27.107-28.778,31.796-48.583c-0.61,18.028-17.813,28.056-24,43.666c6.798-2.472,13.929-4.11,20.617-6.915
		c5.245-4.056,5.604-11.054,7.129-17.001c1.249,5.752-0.527,11.584-0.665,17.361c3.19-1.054,6.436-2.029,9.682-2.945
		c-3.496,4.834-10.543,5.197-13.844,10.251c-6.383,9.14-17.675,15.64-18.506,27.777c3.606,4.946,5.576,11.392,11.013,14.722
		c3.358-11.722,7.991-23.637,17.591-31.721c-4.383,8.359-10.987,16.113-11.319,26.001c3.967-3.058,7.879-6.223,12.262-8.694
		c-3.273,8.137-11.708,12.192-16.87,18.945c2.164,2.942,4.329,5.914,6.465,8.914c5.799-2.472,6.492-9.137,8.741-14.278
		c1.026,2.276,3.08,6.808,4.079,9.058c3.356-3.391,0.915-8.002,1.054-12c3.691,3.445,4.968,8.722,8.935,12
		c-6.827,7.498-2.913,18.75-3.525,27.914c8.324-4.581,11.21-13.943,17.064-20.639c-1.055,10.418,0.388,21.111-2.858,31.25
		c2.33,1.916,4.689,3.808,7.159,5.584c1.249-13.027-0.082-26.721,1.555-39.972c5.188,12.86,0.608,26.972,4.439,40.14
		c3.413-1.278,5.855-4.028,6.63-7.584c3.081-9.002,4.414-18.475,6.023-27.807c0.554,0,1.637,0.027,2.191,0.027
		c-3.719,14.446-1.027,30.169-9.351,43.475c5.271,3.138,10.433,6.388,15.482,9.86c-0.833-22.192,10.458-43.777,4.578-65.835
		c8.685,8.057,6.548,20.446,4.66,30.89c-2.413,12.39-6.52,25.806-2.107,38.195c3.55,3.36,7.741-1.501,7.712-5.081
		c5.411-19.309,2.748-40.115,10.433-58.947c1.553,5.752,1.11,11.725-0.167,17.474c-2.719,13.136-1.054,26.776-4.662,39.774
		c-0.306,4.141-3.939,8.643-1.581,12.615c4.993,2.582,10.292,4.639,15.426,7.025c4.216-1.639,8.406-3.445,12.51-5.387
		c-6.102-15.475-3.634-32.666-1.023-48.666c1.609-5.835-1.75-11.169-3.273-16.613c1.301,3.555,3.355,6.527,6.156,8.975
		c0.613-6.753,1.502-13.474,3.387-20.004c-0.08,22.195,3.859,45.642,18.506,63.141l2.165,0.168
		c1.276-12.75-1.86-25.613-3.411-38.281c-0.724-7.916,2.968-15.247,5.549-22.525c-2.773,18.945,0.164,37.775,3.826,56.391
		c6.66-2.808,12.627-6.918,18.756-10.669c-3.744-15.167-10.318-29.608-18.035-43.14c8.215,6.586,11.879,16.781,16.899,25.693
		c6.104-8.472,1.166-19.165-0.889-28.223c9.296,10.531,6.993,25.418,6.603,38.281c4.217-0.391,8.102-1.862,11.628-4.419
		c-3.942-13.501-11.1-25.886-13.653-39.805c10.905,8.64,6.881,29.331,20.646,34.503c2.773-17.307-6.412-36.227,4.633-51.779
		c-1.527,15.055-2.498,30.277-0.086,45.307c4.773-4.309,9.934-8.392,13.623-13.724c-2.412-9.61-10.654-17.472-10.236-28.03
		c3.637,4.529,3.744,12.308,10.127,14.029c-2.025-13.334-11.541-24.888-9.352-38.916c3.885,15.859,9.352,31.223,15.373,46.387
		c3.523-4.389,6.99-8.832,10.486-13.221c-4.91-8.557-10.264-17.111-12.236-26.889c-2.055-7.693-1.832-15.891-4.772-23.334
		c8.603,14.084,9.934,31.75,20.282,45.001c4.025-6.473,7.852-13.056,11.736-19.638c-5.965-6.223-11.818-12.641-15.676-20.447
		c-5.551-9.029-17.507-7.443-26.246-10.943c6.602-0.305,13.207,0.168,19.81,0.748c-4.357-10.416-12.484-18.635-22.476-23.746
		c14.984,1.639,22.503,16.416,30.8,27.084c2.44,4.496,8.129,3.607,12.401,3.943c-5.799-12.891-15.064-23.529-24.137-34.141
		c14.731,8.835,21.168,25.861,34.541,35.917c2.109-6.223,3.939-12.53,4.688-19.083c-15.395-8.832-30.52-18.612-47.471-24.25
		c18.118,1.307,34.129,10.472,49.08,20.03c0.391-2.475,0.809-4.946,1.222-7.416c-8.239-7.781-16.229-16.113-25.19-22.892
		c-8.575,0.279-16.646,3.445-24.889,5.473c7.989-3.528,16.176-6.61,24.445-9.388c-2.195-7.391-5.023-14.613-9.546-20.919
		c7.186,5.278,12.456,12.751,15.425,21.113c7.521,2.111,15.207,3.554,22.976,4.611c1.72-4.251-1.97-7.362-4.274-10.25
		c-7.326-7.974-16.23-14.224-24.693-20.89c-6.547,1.193-12.844,3.25-19.174,5.278c3.414-3.194,7.381-5.583,11.601-7.557
		c-2.583-7.138-10.489-7.693-16.679-9.692c6.635-0.085,13.46,0.082,19.26,3.721c9.931,6.112,22.002,5.334,33.182,5.583
		c-0.25-3.389-0.498-6.75-0.748-10.139c-7.549-4.584-13.873-11.611-22.974-13.083l0.306-2.39c2.33-0.138,7.018-0.443,9.348-0.61
		c-4.715-5.64-9.516-11.279-13.62-17.388c6.492,5.944,13.788,11.472,22.61,13.36c-1.331-7.276-8.074-11.332-11.623-17.388
		L306.955,6.639 M315.53,33.167c-0.668,3.279,3.494,8.334,6.993,7.306C324.796,36.667,319.277,31.499,315.53,33.167 M308.455,62.112
		c4.633,6.833,10.957,12.306,17.867,16.75c0.195-4.083,1.805-8.862-0.693-12.5C320.133,64.194,314.169,63.388,308.455,62.112
		 M311.203,96.528c3.411,5.084,7.821,9.555,13.565,11.972c0.22-2.278,0.665-6.806,0.888-9.057
		C320.914,98,316.139,96.695,311.203,96.528 M298.354,148.14c2.25,5.276,6.244,9.388,10.547,13.056
		c1.137-3.556,2.189-7.113,3.246-10.696C307.566,149.613,302.986,148.777,298.354,148.14 M40.626,161.971
		c1.524,3.668,3.163,7.309,5.632,10.445c4.133-7.666,10.154-13.971,16.008-20.306C54.166,152.971,46.674,156.499,40.626,161.971
		 M73.727,213.582c3.023,4.028,6.38,7.781,10.015,11.279c0-6.306,0.333-12.748-1.609-18.863
		C79.276,208.473,76.5,211.027,73.727,213.582 M184.266,222.859c0.165,17.031-1.5,34.615,3.746,51.113
		c4.828-2.444,9.656-4.943,14.454-7.443C193.365,253.389,188.314,238.164,184.266,222.859 M98.974,227.916
		c-3.773,0.778-7.49,7.221-2.912,9.445C100.999,239.195,104.33,228.666,98.974,227.916z"/>
	<path fill="#41B343" d="M104.524,111.527c3.219-0.888,5.493,1.166,7.547,3.336c-1.333-0.223-3.968-0.668-5.272-0.863
		c-3.413,2.637-4.468,6.945-5.605,10.916C102.194,120.418,103.025,115.889,104.524,111.527z"/>
</g>
<g id="_x23_264b99ff">
	<path fill="#264B99" d="M174.524,18.083c2.775-1.722,5.078-1.278,6.938,1.361c-1.887,2.861-3.579,6.917-7.519,7.056
		C172.14,23.583,172.363,20.805,174.524,18.083z"/>
	<path fill="#264B99" d="M185.096,15.917c18.063,2.471,36.682,0.277,54.689,0.75c0.36,0.833,1.054,2.527,1.414,3.36
		c-1.887,3.25-3.829,6.473-5.771,9.667c2.721,2.278,5.631,4.306,8.324,6.612c2.218-2.861,4.438-5.723,6.686-8.557
		c-1.857-1.889-3.689-3.777-5.521-5.667c-0.608-1.278-1.805-3.833-2.413-5.111c3.606-1.083,7.323,0.028,10.848,0.889
		c-0.083,27.696-0.528,55.417,0.335,83.113c-3.609,0.25-6.8-0.834-9.518-3.223c2.109-2.194,4.217-4.362,6.352-6.556
		c-2.33-3.306-4.575-6.693-7.128-9.833c-3.579,2.638-6.021,6.444-8.853,9.779c2.773,2.082,5.521,4.193,8.27,6.36
		c0.223,0.917,0.639,2.723,0.861,3.638c-6.272-0.444-13.873,2.417-19.229-2.138l-1.72,1.666
		c-12.847-0.388-27.443,4.251-39.066-2.444c1.359-1.916,4.08-5.778,5.438-7.721c-1.887-3.085-3.802-6.195-5.688-9.306
		c-2.636,2.749-5.299,5.444-7.934,8.193c2.162,2.696,4.327,5.417,6.437,8.196l2.303,4.028c-3.163-0.085-9.463-0.279-12.624-0.363
		c0.858-24.805-0.306-49.609,0.471-74.414c3.551,3.053,7.048,6.221,10.459,9.444c2.803-2.223,5.689-4.334,8.242-6.834
		c-1.084-2.694-3.441-4.639-4.883-7.139C185.68,20.723,185.291,17.5,185.096,15.917 M190.342,39.695
		c-2.665,3.915-8.742,6.554-8.049,12.027c1.777,4.112,5.799,6.221,10.074,6.777c3.551,4.334,8.517,6.722,13.79,8.277
		c-1.472,3.639-1.331,10.445,1.774,12.723c1.582-3.722,1.859-7.528,0.861-11.444l2.357,1.25c-0.082,4.112,0,8.222,0.195,12.333
		c-0.223,5-0.641,9.972-1.057,14.946c11.764-3.834,7.354-19.584,10.102-28.918l2.498-0.5c-5.606,8.499,7.711,7.389,1.552-0.277
		l-0.25-2.667c6.604-3.806,15.122-5.279,19.81-11.723c1.664-4.526-3.299-7.11-5.521-10.166c-7.604-10.612-21.975-7.001-33.045-6.39
		l-1.581-0.194C198.611,32.777,194.309,36.723,190.342,39.695z"/>
</g>
<g id="_x23_fcd900ff">
	<path fill="#FCD900" d="M101.582,30.333c3.191,1.972,6.298,4.141,8.907,6.86c14.316,14.39,28.716,28.668,43.116,42.973
		c3.135,2.971,5.744,6.444,7.658,10.334c-2.83-1.167-5.687-2.446-7.768-4.751c-13.013-12.806-25.637-26.028-38.873-38.611
		c-3.994-3.889-8.075-7.695-11.707-11.888C102.581,34.028,101.915,31.555,101.582,30.333z"/>
	<path fill="#FCD900" d="M203.853,35.75l1.581,0.194l-0.445,1.139l-0.969-0.111L203.853,35.75z"/>
	<path fill="#FCD900" d="M190.342,39.695c9.238,3,12.734,12.138,14.371,20.859c-4.135-0.639-8.239-1.276-12.346-2.055
		c-4.275-0.556-8.297-2.666-10.074-6.777C181.6,46.25,187.677,43.61,190.342,39.695z"/>
	<path fill="#FCD900" d="M205.656,42c5.797,0.333,11.626,0.083,17.397-0.418c-2.274,2.862-4.577,5.723-6.825,8.613
		c0.138,9.167,0.389,18.361,1.359,27.499c-1.555,1.001-4.69,2.975-6.242,3.945c-0.195-4.112-0.277-8.222-0.195-12.333
		C211.205,59.972,212.51,49.472,205.656,42z"/>
	<path fill="#FCD900" d="M228.66,44.249c2.468-0.498,7.381-1.443,9.818-1.916c2.223,3.056,7.186,5.64,5.521,10.166
		c-4.688,6.444-13.205,7.917-19.81,11.723c-0.36-4.501-0.528-9.027-0.666-13.528c1.667-0.471,4.993-1.417,6.688-1.888
		C229.824,47.666,229.046,45.39,228.66,44.249z"/>
	<path fill="#FCD900" d="M88.569,103.028c27.025,0.194,54.078,0.167,81.129-0.083c-0.221,30.861,0.5,61.723-0.527,92.555
		c-1.331-0.748-4.022-2.279-5.355-3.027l-2.775-1.529c-20.891-1.916-41.951,0.418-62.843-1.11c-9.434-1.944-9.99-12.833-10.1-20.611
		C88.402,147.166,87.709,125.084,88.569,103.028 M104.524,111.527c-1.499,4.361-2.33,8.891-3.33,13.389
		c-0.223,5.973,1.831,11.611,5.328,16.391c8.601-6.17,7.74-17.361,5.549-26.443C110.017,112.693,107.743,110.64,104.524,111.527
		 M151.109,110.75c-4.968,9.582-8.019,23.416,2.413,30.637C159.958,132.279,161.182,117.75,151.109,110.75 M129.078,178.251
		c10.35-6.39,7.964-20.751,1.832-29.391C121.366,155.613,122.975,169.667,129.078,178.251z"/>
</g>
</svg>
