<?xml version="1.0" encoding="UTF-8" standalone="no"?>
<!-- Created with Inkscape (http://www.inkscape.org/) -->

<svg
   id="svg2"
   sodipodi:version="0.32"
   inkscape:version="1.2 (dc2aedaf03, 2022-05-15)"
   width="205.07588mm"
   height="121.70585mm"
   version="1.0"
   sodipodi:docname="Flag_of_the_province_of_Perugia.svg"
   inkscape:output_extension="org.inkscape.output.svg.inkscape"
   sodipodi:modified="true"
   viewBox="0 0 417.6341 247.85222"
   xml:space="preserve"
   xmlns:inkscape="http://www.inkscape.org/namespaces/inkscape"
   xmlns:sodipodi="http://sodipodi.sourceforge.net/DTD/sodipodi-0.dtd"
   xmlns:xlink="http://www.w3.org/1999/xlink"
   xmlns="http://www.w3.org/2000/svg"
   xmlns:svg="http://www.w3.org/2000/svg"
   xmlns:rdf="http://www.w3.org/1999/02/22-rdf-syntax-ns#"
   xmlns:cc="http://creativecommons.org/ns#"
   xmlns:dc="http://purl.org/dc/elements/1.1/"><metadata
     id="metadata7"><rdf:RDF><cc:Work
         rdf:about=""><dc:format>image/svg+xml</dc:format><dc:type
           rdf:resource="http://purl.org/dc/dcmitype/StillImage" /><cc:license
           rdf:resource="http://creativecommons.org/licenses/by-sa/4.0/" /><dc:creator><cc:Agent><dc:title>Ruthven</dc:title></cc:Agent></dc:creator></cc:Work><cc:License
         rdf:about="http://creativecommons.org/licenses/by-sa/4.0/"><cc:permits
           rdf:resource="http://creativecommons.org/ns#Reproduction" /><cc:permits
           rdf:resource="http://creativecommons.org/ns#Distribution" /><cc:requires
           rdf:resource="http://creativecommons.org/ns#Notice" /><cc:requires
           rdf:resource="http://creativecommons.org/ns#Attribution" /><cc:permits
           rdf:resource="http://creativecommons.org/ns#DerivativeWorks" /><cc:requires
           rdf:resource="http://creativecommons.org/ns#ShareAlike" /></cc:License></rdf:RDF></metadata><defs
     id="defs5"><linearGradient
       id="linearGradient9653"><stop
         id="stop9649"
         offset="0"
         style="stop-color:white;stop-opacity:0.429" /><stop
         id="stop9651"
         offset="1"
         style="stop-color:white;stop-opacity:0;" /></linearGradient><linearGradient
       id="linearGradient2214"><stop
         style="stop-color:white;stop-opacity:1;"
         offset="0"
         id="stop2216" /><stop
         style="stop-color:white;stop-opacity:0;"
         offset="1"
         id="stop2218" /></linearGradient><linearGradient
       id="linearGradient2811"><stop
         id="stop2813"
         offset="0"
         style="stop-color:#085308;stop-opacity:1;" /><stop
         id="stop2815"
         offset="1"
         style="stop-color:#085308;stop-opacity:0;" /></linearGradient><radialGradient
       id="radialGradient6175"
       gradientUnits="userSpaceOnUse"
       cy="114.67"
       cx="2397.7"
       gradientTransform="matrix(1.1292152,0,0,0.04944376,-309.81791,0.3872919)"
       r="111.37"><stop
         id="stop5235"
         stop-color="#F00"
         offset="0" /><stop
         id="stop5237"
         stop-color="#7a0000"
         offset="1" /></radialGradient><linearGradient
       y2="816.49536"
       x2="902.19611"
       y1="751.29913"
       x1="902.19604"
       gradientTransform="scale(0.912797,1.095534)"
       gradientUnits="userSpaceOnUse"
       id="linearGradient20283"
       xlink:href="#linearGradient7713"
       inkscape:collect="always" /><linearGradient
       id="linearGradient7713"><stop
         style="stop-color:#0096ff;stop-opacity:1.0000000;"
         offset="0.00000000"
         id="stop7715" /><stop
         style="stop-color:#0080ff;stop-opacity:1.0000000;"
         offset="1.0000000"
         id="stop7717" /></linearGradient></defs><sodipodi:namedview
     inkscape:window-height="1005"
     inkscape:window-width="1920"
     inkscape:pageshadow="2"
     inkscape:pageopacity="0.0"
     guidetolerance="10.0"
     gridtolerance="10.0"
     objecttolerance="10.0"
     borderopacity="1.0"
     bordercolor="#666666"
     pagecolor="#ffffff"
     id="base"
     inkscape:zoom="0.125"
     inkscape:cx="852"
     inkscape:cy="268"
     inkscape:window-x="-9"
     inkscape:window-y="-9"
     inkscape:current-layer="layer1"
     showgrid="false"
     inkscape:window-maximized="1"
     fit-margin-top="0"
     fit-margin-left="0"
     fit-margin-right="0"
     fit-margin-bottom="0"
     inkscape:snap-others="false"
     inkscape:object-nodes="false"
     inkscape:showpageshadow="2"
     inkscape:pagecheckerboard="0"
     inkscape:deskcolor="#d1d1d1"
     inkscape:document-units="mm" /><g
     inkscape:groupmode="layer"
     id="layer1"
     inkscape:label="Sfondo"
     transform="matrix(1,0,0,0.82233675,-25.378815,0)"><rect
       style="fill:#d0103a;fill-opacity:1;stroke-width:0.508788"
       id="rect2934"
       width="417.63409"
       height="301.3999"
       x="25.378815"
       y="0" /><g
       id="g4662"
       transform="matrix(0.28192587,0,0,0.32348686,339.6953,65.029616)"
       style="display:inline"><g
         id="g10800"
         style="fill:url(#linearGradient20283);fill-opacity:1;stroke:#000000;stroke-width:2.25;stroke-miterlimit:4;stroke-opacity:1"
         transform="matrix(-1.8644322,0,0,1.8644322,1520.7178,-1087.1839)" /><g
         transform="matrix(1.0930314,-0.15789048,0.16401184,1.0522351,-525.01081,59.243588)"
         id="g9044"><path
           sodipodi:nodetypes="ccccccccccccccccccccc"
           id="path20625"
           d="m 289.6145,254.66925 c 9.21509,-2.98138 -59.26145,22.26068 -70.07981,31.21529 -25.59851,0.60022 -39.57338,11.68903 -42.45552,21.52646 -2.17913,7.43779 1.94608,16.0579 -2.28537,33.68816 -1.84109,4.18155 -3.26829,5.37147 -9.97541,15.28624 12.55538,1.62919 14.63389,-4.69537 8.50611,11.61538 15.41293,-6.94088 19.33022,-17.18788 16.93232,9.68905 -3.91283,10.427 -13.01594,17.18316 -27.746,27.77153 -1.8076,0.89677 -14.12053,7.7846 -22.45487,5.726 -37.54621,-20.41482 -49.660157,42.04659 -23.04519,28.12763 -13.18349,24.07702 26.2514,33.47316 28.55372,10.37587 17.326,-5.0308 5.72187,-10.57853 14.8586,-12.21646 0.29853,12.92699 12.32362,15.74022 21.71382,9.93407 9.50369,-5.87628 7.71069,-16.74905 -0.77205,-20.5408 5.22345,-6.57942 32.80944,-14.78784 38.90886,-23.86975 l 17.33442,-3.93971 c 2.08026,-1.14053 11.86499,-11.79555 5.91682,-23.76441 l -8.11985,-9.5016 c -1.55525,-3.7654 -4.08975,-37.94006 5.75556,-39.4772 11.26305,-0.24231 56.31466,-29.13161 59.07741,-34.55451 z"
           style="fill:#000000;fill-opacity:1;fill-rule:evenodd;stroke:#000000;stroke-width:1.98028;stroke-linecap:butt;stroke-linejoin:miter;stroke-miterlimit:4;stroke-opacity:1"
           inkscape:connector-curvature="0" /><path
           style="fill:#ffffff;fill-opacity:1;fill-rule:evenodd;stroke:#000000;stroke-width:1.98028;stroke-linecap:butt;stroke-linejoin:miter;stroke-miterlimit:4;stroke-opacity:1"
           d="m 290.12103,256.99049 c 9.21511,-2.9814 -59.7608,21.6365 -70.57921,30.59111 -25.59845,0.60018 -38.26793,12.27862 -41.15009,22.11604 -2.1791,7.43777 1.78872,14.70052 -2.44275,32.33077 -1.8411,4.18154 -3.91254,3.36548 -10.61966,13.28025 12.55534,1.62921 13.81554,-4.65482 7.68774,11.65593 15.41297,-6.94084 20.72626,-15.91033 18.32838,10.96656 -4.30148,11.46261 -14.29556,19.99618 -31.83724,32.25493 -12.93291,13.80174 14.4317,23.88873 18.54086,17.09471 3.95618,-6.54109 34.25718,-17.23545 40.52967,-26.57506 l 16.55661,-3.17853 c 2.08029,-1.14053 11.24083,-10.04615 5.29274,-22.01503 l -8.42612,-8.44945 c -1.55525,-3.76538 -4.70439,-39.6019 5.14094,-41.13905 11.26298,-0.24231 57.45672,-30.24177 60.21943,-35.66467 z"
           id="path6638-7"
           sodipodi:nodetypes="ccsccccczccccccc"
           inkscape:connector-curvature="0" /><g
           transform="translate(7.374675,-3.049141)"
           id="g1672"><path
             style="fill:#ffffff;fill-opacity:1;fill-rule:evenodd;stroke:#000000;stroke-width:2.42065px;stroke-linecap:butt;stroke-linejoin:miter;stroke-opacity:1"
             d="m 157.52935,409.65324 c 0,0 -17.61421,8.93644 -26.45063,6.75381 -25.04048,-13.51092 -34.857156,0.49605 -18.22777,9.84949 -23.244768,-13.7247 -29.645796,29.64831 -3.03079,15.72937 -13.183543,24.07699 22.89448,33.37766 25.19681,10.28038 17.32605,-5.0308 10.45235,-12.97789 19.58907,-14.61579 0.29853,12.92695 9.40551,19.38369 18.79571,13.57755 9.50372,-5.87631 6.34615,-17.68198 -2.1366,-21.47373 l 2.34255,-9.1993 -9.99402,-0.88587 -0.14067,-7.29572 z"
             id="path1719-2"
             sodipodi:nodetypes="cccccczccccc"
             inkscape:connector-curvature="0" /><path
             style="fill:#ffffff;fill-opacity:1;fill-rule:nonzero;stroke:#000000;stroke-width:2.24592;stroke-miterlimit:4;stroke-dashoffset:0;stroke-opacity:1"
             d="m 120.65503,449.43957 c -2.75058,-2.28678 -6.78118,-1.93887 -8.9656,0.78556 -0.60675,0.75672 -9.91841,15.19619 -6.81017,21.74829 0.0246,-0.0248 7.01003,-13.82313 16.76017,-13.47593 2.18442,-2.72435 1.7662,-6.77097 -0.9844,-9.05792 z"
             id="path1721-1"
             sodipodi:nodetypes="ccccc"
             inkscape:connector-curvature="0" /><path
             style="fill:#ffffff;fill-opacity:1;fill-rule:nonzero;stroke:#000000;stroke-width:1.85863;stroke-miterlimit:4;stroke-dashoffset:0;stroke-opacity:1"
             d="m 112.3138,417.07336 c -0.68137,-2.93883 -3.47217,-4.74931 -6.21329,-4.01943 -0.76137,0.20274 -13.815554,5.22104 -14.968175,11.21949 0.02809,-0.004 11.258205,-5.77028 17.433065,-0.58849 2.7411,-0.72986 4.42981,-3.67266 3.7484,-6.61157 z"
             id="path1727-6"
             sodipodi:nodetypes="ccccc"
             inkscape:connector-curvature="0" /><path
             style="fill:#ffffff;fill-opacity:1;fill-rule:nonzero;stroke:#000000;stroke-width:1.79939;stroke-miterlimit:4;stroke-dashoffset:0;stroke-opacity:1"
             d="m 101.98927,428.61869 c -0.54368,-3.02897 -2.905516,-4.1746 -5.258466,-2.5383 -0.653589,0.45455 -11.879598,9.94575 -12.944202,16.90075 0.02408,-0.0132 9.700589,-9.77365 14.91084,-5.94393 2.352948,-1.6363 3.835468,-5.38962 3.291828,-8.41852 z"
             id="path1729-9"
             sodipodi:nodetypes="ccccc"
             inkscape:connector-curvature="0" /><path
             style="fill:#ffffff;fill-opacity:1;fill-rule:nonzero;stroke:#000000;stroke-width:2.42065;stroke-miterlimit:4;stroke-dashoffset:0;stroke-opacity:1"
             d="m 178.05545,443.53832 c 2.81097,2.6453 3.05981,7.08415 0.54155,9.87545 -0.6995,0.77531 -14.39127,13.10377 -21.7194,10.71787 0.0222,-0.0306 13.39693,-9.73009 11.55101,-20.28697 2.51822,-2.79128 6.81586,-2.95164 9.62684,-0.30635 z"
             id="path1731-4"
             sodipodi:nodetypes="ccccc"
             inkscape:connector-curvature="0" /><path
             style="fill:#c80000;fill-opacity:1;fill-rule:evenodd;stroke:#000000;stroke-width:1.98028;stroke-linecap:butt;stroke-linejoin:miter;stroke-miterlimit:4;stroke-opacity:1"
             d="m 109.89336,441.88734 c 0.84512,-0.77621 9.74756,-5.75225 15.60311,-3.05286 1.82489,1.21961 15.63969,-8.4207 15.63969,-8.4207"
             id="path1733-4"
             sodipodi:nodetypes="ccc"
             inkscape:connector-curvature="0" /><path
             style="fill:#ffffff;fill-opacity:1;fill-rule:evenodd;stroke:#000000;stroke-width:1.98028;stroke-linecap:butt;stroke-linejoin:miter;stroke-miterlimit:4;stroke-opacity:1"
             d="m 112.11369,426.28392 c 8.34583,3.46028 25.94506,-0.96877 26.22336,-5.18694"
             id="path1735-2"
             sodipodi:nodetypes="cc"
             inkscape:connector-curvature="0" /></g></g><path
         sodipodi:nodetypes="ccsccsscccccccccccccccccccccccsc"
         id="path6826"
         d="m -460.2126,235.81852 c 0,0 -59.13235,116.90615 -50.42334,142.33499 9.56496,32.20585 218.61556,-66.12087 254.5817,-56.46731 20.36903,5.46723 41.95438,20.28867 48.97031,15.39558 -5.23348,-17.04737 29.04979,-14.41031 34.65734,-13.3835 -3.46782,-6.61375 -2.45991,-13.34843 0.63129,-13.87536 17.95754,-3.06119 30.91505,18.23888 39.51016,30.76881 3.89975,5.68506 11.14549,23.11093 16.53783,30.68789 5.39228,7.57703 13.2127,4.22791 18.815183,10.09503 2.623102,2.74689 12.391042,17.93635 15.005308,23.15775 0.04585,0.24986 -0.669759,-14.36871 1.935188,-11.94197 4.442559,5.44405 4.633275,9.80096 5.805246,16.05571 2.244298,-5.59987 3.878353,-10.89113 5.813019,-12.31424 1.286601,12.28064 -0.429707,37.50552 -1.960743,50.32107 -3.387231,6.35939 -9.521046,13.6585 -10.939688,15.30497 1.734761,-2.48655 -6.167478,6.94403 -7.742428,5.13174 -8.404974,-6.96938 -19.864205,1.88067 -12.120955,17.69622 2.917556,0.89737 4.953283,2.35893 6.70864,3.76786 0.342978,-0.91805 0.684597,-1.84648 1.18912,-2.77313 -0.552016,0.74635 7.776202,2.5711 7.266608,3.33976 -2.976312,4.48931 -4.991853,2.21348 -8.455728,-0.56663 -7.10051,19.00384 18.899206,35.20464 20.492552,9.90769 3.36615,20.48403 29.780592,13.08411 25.529066,-11.50934 -1.181254,-6.83361 2.450317,-5.4976 8.775482,-18.12586 17.169664,9.69053 19.983798,1.19829 21.061735,-9.18182 -3.233682,-11.27384 -15.955847,-20.73994 -18.087547,-21.96127 0.942692,-20.3178 5.405399,-44.29295 10.305922,-61.63266 5.471679,-19.36047 -3.883218,-24.64054 -6.129046,-26.23697 -6.237654,-4.43396 -28.018486,-3.38431 -31.27707,-18.61748 -3.141119,-10.22729 -10.80394,-55.55546 -17.927716,-62.52522 -15.496617,-14.71941 -35.044898,-32.47237 -47.306988,-44.44462 -25.2664,-24.66929 -331.22041,11.59231 -331.22045,11.59231 z"
         style="fill:#000000;fill-opacity:1;fill-rule:evenodd;stroke:#000000;stroke-width:1.47375px;stroke-linecap:butt;stroke-linejoin:miter;stroke-opacity:1"
         inkscape:connector-curvature="0" /><g
         transform="matrix(0.82579459,-0.77862806,0.76795675,0.8453328,-1090.2818,12.10753)"
         id="g5595"><path
           sodipodi:nodetypes="ccssssccccsssc"
           id="path4071"
           d="m 503.43379,717.50636 c -4.69738,1.80668 2.8368,14.87643 -12.34535,25.7404 56.07381,24.22932 63.72292,51.38731 62.1189,60.42563 -1.79896,10.13676 -5.94783,21.31535 -20.00189,27.61919 -7.00879,3.14374 -26.7843,10.87082 -56.31439,8.7187 -7.67852,-0.56654 -94.54297,-17.4459 -105.77747,-18.20116 -57.50109,-3.86565 -102.13874,14.02975 -109.8125,29.6718 -3.94346,20.1886 -24.4375,49.875 -24.4375,49.875 0,0 25.17516,-9.564 37.28125,-10.3437 13.09052,-5.3449 11.76995,-58.4914 97.34375,-52.9063 43.54126,4.13036 82.86031,23.20689 113.6875,26.08401 37.14374,3.46666 58.44118,-10.24479 62.97849,-15.28904 11.18804,-12.43804 20.64988,-27.89577 20.34956,-45.99613 -0.58328,-34.45259 -46.71978,-76.09706 -65.07035,-85.3984 z"
           style="fill:#000000;fill-opacity:1;fill-rule:evenodd;stroke:#000000;stroke-width:2.0915;stroke-linecap:butt;stroke-linejoin:miter;stroke-miterlimit:4;stroke-opacity:1"
           inkscape:connector-curvature="0" /><g
           transform="matrix(0.999913,0,0,1.000074,10.28986,372.5161)"
           id="g4065"><path
             sodipodi:nodetypes="cssssccssscc"
             id="path4067"
             d="m 480.42685,368.61079 c 0,0 70.82993,29.44752 62.74014,67.38757 -12.17827,57.11452 -133.58194,23.6953 -161.49778,18.00874 -62.74014,-12.7804 -127.73642,9.62628 -131.28956,27.88451 -1.05252,5.40851 -3.10632,11.29002 -5.5191,16.95707 -6.21552,14.59877 -14.81335,27.77433 -14.81335,27.77433 l 11.35911,-5.30261 c 0,0 12.15587,0.19764 17.67504,-2.06428 14.08483,-5.77238 23.2493,-75.7057 137.69197,-50.14491 21.16812,4.7279 147.07825,65.20898 160.91685,-39.50305 3.58922,-27.15847 -56.93087,-85.97724 -66.2257,-84.23446 -9.29484,1.74278 -11.03762,23.23709 -11.03762,23.23709 z"
             style="fill:#ffffff;fill-opacity:1;fill-rule:evenodd;stroke:#000000;stroke-width:2;stroke-linecap:butt;stroke-linejoin:miter;stroke-miterlimit:4;stroke-opacity:1"
             inkscape:connector-curvature="0" /><path
             sodipodi:nodetypes="cc"
             id="path4069"
             d="m 232.39125,524.78459 c 0,0 28.3946,-15.48531 27.65292,-28.58822"
             style="fill:none;fill-opacity:0.75;fill-rule:evenodd;stroke:#000000;stroke-width:2;stroke-linecap:butt;stroke-linejoin:miter;stroke-miterlimit:4;stroke-opacity:1"
             inkscape:connector-curvature="0" /></g></g><path
         sodipodi:nodetypes="ccsccccccccccccccccc"
         id="path2821-9"
         d="m -463.72423,247.53918 c 0,0 -55.56855,100.86714 -46.82032,126.30142 38.68714,25.10354 208.40715,-73.1156 260.12381,-54.76524 21.6216,7.67188 41.98741,16.87399 41.75839,16.76691 -8.69916,-23.76751 33.70555,-16.13168 34.00541,-16.06496 -6.48562,-16.16697 14.07752,-14.6112 30.24105,-1.53648 21.15607,14.54349 25.04668,51.47021 35.39508,54.49968 7.66985,2.2454 10.71854,-7.62804 27.14648,25.07847 0.04455,0.23973 0.382735,-15.59327 2.884533,-13.26482 4.267929,5.22118 6.734723,19.67638 6.95828,19.76167 0.307304,0.11721 1.205038,-17.67185 5.492817,-13.58613 8.183243,10.61618 1.58768,61.63751 1.41812,61.47987 -0.184341,-0.17075 26.942208,-7.28074 27.961917,-7.37321 -0.169802,-18.57511 5.812627,-54.06914 11.005988,-72.48298 5.22665,-18.53214 -8.595782,-23.7593 -11.256815,-24.02295 -2.798551,-0.27724 -21.708698,0.18044 -24.56723,-7.4901 -2.858533,-7.67059 -9.470871,-47.9373 -14.535473,-59.26429 -5.052654,-11.30029 -23.267711,-31.71555 -31.130257,-30.84981 -7.86263,0.86581 -15.7463,-23.21451 -15.7463,-23.21451 -31.34186,-31.23513 -340.33548,20.02748 -340.33548,20.02746 z"
         style="fill:#ffffff;fill-opacity:1;fill-rule:evenodd;stroke:#000000;stroke-width:2.16677;stroke-linecap:butt;stroke-linejoin:miter;stroke-miterlimit:4;stroke-opacity:1"
         inkscape:connector-curvature="0" /><path
         style="fill:#ffffff;fill-opacity:1;fill-rule:evenodd;stroke:#000000;stroke-width:2.27685;stroke-linecap:butt;stroke-linejoin:miter;stroke-miterlimit:4;stroke-opacity:1"
         d="m -64.073136,443.63111 c -3.172732,6.23781 -15.208587,13.06013 -13.707505,20.50509 -39.992169,35.73715 1.760055,56.89161 3.754199,27.74161 3.593602,19.61302 30.912004,20.20094 26.374926,-3.34697 -1.260638,-6.543 5.886047,-12.2033 12.573221,-24.28053 18.208664,9.3047 15.912884,-0.14851 17.041948,-10.08237 1.118982,-9.84508 -20.237568,-21.07188 -20.237568,-21.07188 l -3.863311,4.39781 -7.7809,-6.31702 -6.802214,12.91575 z"
         id="path12801-2"
         sodipodi:nodetypes="cccsczccccc"
         inkscape:connector-curvature="0" /><g
         style="fill:#ffffff;fill-opacity:1"
         transform="matrix(1.1076805,-0.54331553,0.49789244,1.208736,-980.80474,-188.89657)"
         id="g6882"><path
           style="fill:#ffffff;fill-opacity:1;fill-rule:evenodd;stroke:#000000;stroke-width:1.79474;stroke-linecap:butt;stroke-linejoin:miter;stroke-miterlimit:4;stroke-opacity:1"
           d="m 475.65391,752.38872 c -0.98712,-0.16761 -9.06358,1.92763 -9.78148,0.16763 -0.7179,-4.94477 -13.10178,-7.54287 -15.16577,-0.67048 -2.06397,6.87238 5.20482,11.14666 10.7686,8.29714 5.56378,-2.84952 12.56337,-4.35809 14.17865,-7.79429 z"
           id="path15797-1"
           sodipodi:nodetypes="ccccc"
           inkscape:connector-curvature="0" /><path
           style="fill:#ffffff;fill-opacity:1;fill-rule:evenodd;stroke:#000000;stroke-width:1.79474;stroke-linecap:butt;stroke-linejoin:miter;stroke-miterlimit:4;stroke-opacity:1"
           d="m 475.65391,752.38872 c -0.98712,-0.16761 -9.06358,1.92763 -9.78148,0.16763 -0.7179,-4.94477 -13.10178,-7.54287 -15.16577,-0.67048 -2.06397,6.87238 5.20482,11.14666 10.7686,8.29714 5.56378,-2.84952 12.56337,-4.35809 14.17865,-7.79429 z"
           id="path1725-5"
           sodipodi:nodetypes="ccccc"
           inkscape:connector-curvature="0" /><path
           style="fill:#ffffff;fill-opacity:1;fill-rule:nonzero;stroke:#000000;stroke-width:1.95261;stroke-miterlimit:4;stroke-dashoffset:0;stroke-opacity:1"
           d="m 457.78216,752.33694 c -0.89479,-3.10413 -3.8935,-4.91233 -6.67546,-4.01358 -0.77274,0.24961 -13.92079,6.17475 -14.71973,12.62239 0.0286,-0.006 11.24516,-6.64818 17.95669,-1.3933 2.78193,-0.89872 4.33334,-4.11122 3.4385,-7.21551 z"
           id="path1637-3"
           sodipodi:nodetypes="ccccc"
           inkscape:connector-curvature="0" /><path
           style="fill:#ffffff;fill-opacity:1;fill-rule:nonzero;stroke:#000000;stroke-width:1.79003;stroke-miterlimit:4;stroke-dashoffset:0;stroke-opacity:1"
           d="m 457.39322,772.98016 c -2.81816,0.83361 -4.45468,3.61106 -3.63245,6.18291 0.22833,0.71439 5.63798,12.86646 11.49702,13.59357 -0.005,-0.0265 -6.06266,-10.39042 -1.30254,-16.609 -0.82216,-2.57185 -3.74379,-4.00106 -6.56203,-3.16748 z"
           id="path1641-9"
           sodipodi:nodetypes="ccccc"
           inkscape:connector-curvature="0" /><path
           style="fill:#ffffff;fill-opacity:1;fill-rule:nonzero;stroke:#000000;stroke-width:1.71704;stroke-miterlimit:4;stroke-dashoffset:0;stroke-opacity:1"
           d="m 475.71553,781.54727 c -2.44091,1.36652 -3.34658,4.30982 -2.00617,6.54993 0.37227,0.62217 8.12692,10.88988 13.75073,10.35475 -0.0108,-0.0238 -7.9702,-8.48073 -4.92083,-15.29826 -1.34036,-2.24005 -4.38272,-2.97302 -6.82373,-1.60642 z"
           id="path1639-0"
           sodipodi:nodetypes="ccccc"
           inkscape:connector-curvature="0" /><path
           style="fill:#ffffff;fill-opacity:1;fill-rule:nonzero;stroke:#000000;stroke-width:1.85643;stroke-miterlimit:4;stroke-dashoffset:0;stroke-opacity:1"
           d="m 521.30094,763.96316 c 3.19445,0.159 5.66876,2.45831 5.49702,5.12088 -0.0477,0.73957 -2.46576,13.66836 -8.44271,15.70517 -0.002,-0.0267 3.58188,-11.38246 -3.11286,-16.28041 0.17173,-2.66257 2.86407,-4.70471 6.05855,-4.54564 z"
           id="path1635-2"
           sodipodi:nodetypes="ccccc"
           inkscape:connector-curvature="0" /><path
           style="fill:#ffffff;fill-opacity:1;fill-rule:evenodd;stroke:#000000;stroke-width:1.79474;stroke-linecap:butt;stroke-linejoin:miter;stroke-miterlimit:4;stroke-opacity:1"
           d="m 470.32294,775.29284 c 0.75259,-0.70287 2.77981,-8.07673 10.93984,-6.87976 1.80622,0.98402 8.68654,-6.50471 13.81121,-6.04889"
           id="path8254-3"
           sodipodi:nodetypes="ccc"
           inkscape:connector-curvature="0" /><path
           style="fill:#ffffff;fill-opacity:1;fill-rule:evenodd;stroke:#000000;stroke-width:1.79474;stroke-linecap:butt;stroke-linejoin:miter;stroke-miterlimit:4;stroke-opacity:1"
           d="m 475.18983,769.11432 c 4.71157,-0.51982 12.33294,-5.92985 12.33294,-9.58478"
           id="path8256-6"
           sodipodi:nodetypes="cc"
           inkscape:connector-curvature="0" /></g><g
         style="fill:#ffffff;fill-opacity:1"
         transform="matrix(1.1827845,-0.30057742,0.27544825,1.2906931,-1372.3494,217.70268)"
         id="g6965"><path
           style="fill:#000000;fill-opacity:1;fill-rule:evenodd;stroke:#000000;stroke-width:1.83126;stroke-linecap:butt;stroke-linejoin:miter;stroke-miterlimit:4;stroke-opacity:1"
           d="m 632.95953,146.43609 c 1.27043,-9.85214 -71.98355,-60.312557 -70.46355,-73.344597 1.52002,-13.03206 21.49837,-23.64393 19.47375,-31.32381 -2.14658,-8.14251 -17.84936,-15.401 -22.66447,-7.55644 -1.72886,5.5295 -0.99786,10.20958 1.57401,13.29632 -6.20276,1.62402 -9.2674,16.46715 -8.70395,20.33759 0.56345,3.87043 -1.96017,-20.01172 0.78836,-23.80646 2.74852,-3.79474 -0.4177,-15.00511 -4.98761,-15.89737 -4.56991,-0.89224 -14.44857,-0.88113 -15.03559,7.5832 -0.60758,8.7607 6.3562,12.51204 7.64214,11.48312 l 0.3863,13.89981 -7.74036,-8.70254 c 0,-2.05784 -7.821,-11.30509 -14.95651,-5.709 -7.13553,5.59609 -6.22096,19.0641 7.8027,17.51016 2.05404,-0.74087 14.81988,11.72485 13.248,15.13899 -1.57188,3.41415 -0.26769,10.6251 0.89424,14.45486 1.16193,3.82978 2.82635,7.545367 -1.06378,7.809617 -3.89014,0.26425 -4.44706,13.92562 0.83531,16.97461 4.48944,2.59133 15.70846,4.4073 15.11907,-4.27208 -0.58939,-8.67939 -5.64991,-18.274917 -1.37924,-17.362347 4.27068,0.91259 28.66174,88.947907 57.66886,88.279867 z"
           id="path9933-7"
           sodipodi:nodetypes="cczccccczccccccccscccc"
           inkscape:connector-curvature="0" /><g
           style="fill:#ffffff;fill-opacity:1"
           id="g6952"><path
             style="fill:#ffffff;fill-opacity:1;fill-rule:evenodd;stroke:#000000;stroke-width:1.83126;stroke-linecap:butt;stroke-linejoin:miter;stroke-miterlimit:4;stroke-opacity:1"
             d="m 633.7984,154.29256 c 1.27043,-9.85214 -74.5527,-69.322447 -73.0327,-82.354497 1.52002,-13.03205 21.75556,-24.93007 19.73094,-32.60995 -2.14659,-8.14251 -17.84936,-10.51365 -19.57822,-4.98415 -1.72886,5.5295 1.57401,14.32524 1.57401,14.32524 -6.20276,1.62402 -12.35365,12.86594 -11.7902,16.73638 0.56345,3.87042 -1.96017,-20.01172 0.78836,-23.80646 2.74852,-3.79474 -0.4177,-15.00511 -4.98761,-15.89737 -4.56992,-0.89225 -12.39107,-0.36668 -12.97809,8.09766 -0.60757,8.7607 7.12776,11.99758 7.12776,11.99758 l 1.92943,19.55884 -8.51192,-10.24591 c 0,0 -10.13569,-16.44967 -17.27121,-10.85358 -7.13552,5.59609 -6.22096,19.0641 7.80272,17.51016 2.05404,-0.74087 17.13456,13.26822 15.56268,16.68236 -1.57189,3.41416 -0.26769,9.33895 0.89424,13.16873 1.16193,3.82977 2.82634,10.632107 -1.06379,10.896347 -3.89013,0.26425 -3.02184,8.62403 -1.47937,13.63064 1.54247,5.0066 16.22283,5.43622 15.63344,-3.24317 -0.58939,-8.67939 -5.64991,-22.390567 -1.37924,-21.477997 4.27068,0.91259 33.9565,92.660747 62.96362,91.992707 z"
             id="path2622-2"
             sodipodi:nodetypes="cczccccczccccccccccccc"
             inkscape:connector-curvature="0" /><path
             style="fill:#ffffff;fill-opacity:1;fill-rule:evenodd;stroke:#000000;stroke-width:1.83126;stroke-linecap:butt;stroke-linejoin:miter;stroke-miterlimit:4;stroke-opacity:1"
             d="m 564.41117,19.373853 c 0,0 6.47258,6.77639 5.01703,7.47662 -1.45556,0.70021 -2.94615,5.31151 -1.5866,7.62451 0.6854,5.66617 10.44402,7.70932 11.87365,2.20014 0.035,-3.91109 -1.08467,-14.40753 -4.98762,-15.89736 -4.01207,-1.53149 -10.31646,-1.40391 -10.31646,-1.40391 z"
             id="path2624-6"
             sodipodi:nodetypes="cccczc"
             inkscape:connector-curvature="0" /><path
             style="fill:#ffffff;fill-opacity:1;fill-rule:evenodd;stroke:#000000;stroke-width:1.83126;stroke-linecap:butt;stroke-linejoin:miter;stroke-miterlimit:4;stroke-opacity:1"
             d="m 525.62613,23.696013 c 0,0 9.3258,0.91051 8.6797,2.39106 -0.64611,1.48057 1.23298,5.94761 3.77227,6.81298 4.21618,3.84623 12.94383,-0.97451 10.43273,-6.08214 -2.52519,-2.98651 -10.22193,-10.20943 -14.15141,-8.79112 -4.03935,1.45801 -8.73329,5.66922 -8.73329,5.66922 z"
             id="path2626-5"
             sodipodi:nodetypes="cccczc"
             inkscape:connector-curvature="0" /><path
             style="fill:#ffffff;fill-opacity:1;fill-rule:evenodd;stroke:#000000;stroke-width:1.83126;stroke-linecap:butt;stroke-linejoin:miter;stroke-miterlimit:4;stroke-opacity:1"
             d="m 505.71391,45.956833 c 0,0 9.3258,0.91051 8.6797,2.39106 -0.6461,1.48056 1.23297,5.94761 3.77227,6.81298 4.21618,3.84623 12.94382,-0.97451 10.43273,-6.08214 -2.52519,-2.98651 -10.22194,-10.20944 -14.15142,-8.79112 -4.03933,1.45801 -8.73328,5.66922 -8.73328,5.66922 z"
             id="path2628-0"
             sodipodi:nodetypes="cccczc"
             inkscape:connector-curvature="0" /><path
             style="fill:#ffffff;fill-opacity:1;fill-rule:evenodd;stroke:#000000;stroke-width:1.83126;stroke-linecap:butt;stroke-linejoin:miter;stroke-miterlimit:4;stroke-opacity:1"
             d="m 528.36824,122.80179 c 0,0 9.11707,-2.16331 8.27674,-3.5429 -0.84032,-1.37959 0.41761,-6.05972 2.81659,-7.26055 3.65749,-4.38107 12.9567,-0.78487 11.15917,4.61544 -2.09826,3.30056 -8.74785,11.49803 -12.83299,10.62412 -4.19936,-0.89835 -9.41951,-4.43611 -9.41951,-4.43611 z"
             id="path2630-9"
             sodipodi:nodetypes="cccczc"
             inkscape:connector-curvature="0" /><path
             style="fill:#ffffff;fill-opacity:1;fill-rule:evenodd;stroke:#000000;stroke-width:0.915631px;stroke-linecap:butt;stroke-linejoin:miter;stroke-opacity:1"
             d="m 552.40401,103.50137 c 0,0 -2.91276,-6.189987 -7.19889,-2.78283"
             id="path2634-3"
             sodipodi:nodetypes="cc"
             inkscape:connector-curvature="0" /><path
             style="fill:#ffffff;fill-opacity:1;fill-rule:evenodd;stroke:#000000;stroke-width:0.915631px;stroke-linecap:butt;stroke-linejoin:miter;stroke-opacity:1"
             d="m 551.37186,98.624673 c 0,0 -2.13454,-3.90585 -5.03858,-3.08539"
             id="path2636-5"
             sodipodi:nodetypes="cc"
             inkscape:connector-curvature="0" /><path
             style="fill:#ffffff;fill-opacity:1;fill-rule:evenodd;stroke:#000000;stroke-width:0.915631px;stroke-linecap:butt;stroke-linejoin:miter;stroke-opacity:1"
             d="m 578.50434,45.783463 c 0,0 -8.85344,7.06382 -13.40009,3.54309"
             id="path2644-2"
             sodipodi:nodetypes="cc"
             inkscape:connector-curvature="0" /><path
             style="fill:#ffffff;fill-opacity:1;fill-rule:evenodd;stroke:#000000;stroke-width:0.777238px;stroke-linecap:butt;stroke-linejoin:miter;stroke-opacity:1"
             d="m 572.27921,52.660663 c 0,0 -6.25731,6.88747 -9.60575,3.28535"
             id="path2646-9"
             sodipodi:nodetypes="cc"
             inkscape:connector-curvature="0" /><path
             style="fill:#ffffff;fill-opacity:1;fill-rule:evenodd;stroke:#000000;stroke-width:0.915631px;stroke-linecap:butt;stroke-linejoin:miter;stroke-opacity:1"
             d="m 550.37576,43.811493 c -0.39147,1.11718 -4.27562,3.56224 -6.9643,2.96589"
             id="path2648-0"
             sodipodi:nodetypes="cc"
             inkscape:connector-curvature="0" /><path
             style="fill:#ffffff;fill-opacity:1;fill-rule:evenodd;stroke:#000000;stroke-width:0.915631px;stroke-linecap:butt;stroke-linejoin:miter;stroke-opacity:1"
             d="m 550.35269,46.912683 c -0.39148,1.11719 -1.73146,4.32425 -4.69868,4.21419"
             id="path2650-0"
             sodipodi:nodetypes="cc"
             inkscape:connector-curvature="0" /></g></g><g
         style="fill:#ffffff;fill-opacity:1"
         transform="matrix(1.2132537,-0.05841533,0.05353158,1.3239422,-1342.759,128.5292)"
         id="g6936"><path
           style="fill:#000004;fill-opacity:1;fill-rule:evenodd;stroke:#000000;stroke-width:1.83126;stroke-linecap:butt;stroke-linejoin:miter;stroke-miterlimit:4;stroke-opacity:1"
           d="m 629.61102,182.16303 c -8.65572,4.13545 -51.02949,99.99578 -63.92648,97.59595 -12.89701,-2.39983 -23.39457,-23.39833 -31.19275,-21.89843 -8.26795,1.59025 -11.88671,18.61437 -6.48796,20.71421 5.39875,2.09986 14.01782,-0.22104 14.01782,-0.22104 1.19972,6.29954 8.39821,11.30454 12.29732,11.00457 3.89909,-0.29998 -15.92809,0.59995 -19.52725,-2.39984 -3.59917,-2.99978 -14.99651,-0.59995 -16.19625,3.89973 -1.19971,4.49967 -0.82656,13.85532 7.57717,15.01463 8.69799,1.19992 13.39816,-5.73119 13.39816,-5.73119 l 15.66367,-0.78941 -8.14562,5.90494 c -4.92491,0.37889 -17.09601,8.99935 -11.9972,16.49881 6.61417,9.01506 20.48987,8.44671 19.89001,-5.65227 -0.59986,-2.09985 12.31303,-14.11489 15.61226,-12.31502 3.29924,1.79987 10.05552,-0.23677 13.95462,-1.13671 3.8991,-0.89992 9.47153,-3.04709 9.47153,0.85263 0,3.89973 9.15573,2.65249 14.25455,1.45258 5.09882,-1.19991 6.52213,-15.81977 -2.17585,-15.81977 -8.69797,0 -17.60402,4.68896 -16.4043,0.48926 1.19972,-4.1997 104.26794,-63.80273 109.65632,-92.24015 z"
           id="path10695-2"
           sodipodi:nodetypes="cczccccczccccccccccccc"
           inkscape:connector-curvature="0" /><g
           style="fill:#ffffff;fill-opacity:1"
           id="g6922"><g
             style="fill:#ffffff;fill-opacity:1"
             id="g1475"
             transform="matrix(0.915557,0,0,0.915705,1172.502,-93.88898)"><path
               style="fill:#ffffff;fill-opacity:1;fill-rule:evenodd;stroke:#000000;stroke-width:2;stroke-linecap:butt;stroke-linejoin:miter;stroke-miterlimit:4;stroke-opacity:1"
               d="m -577.42861,294.74904 c -11.52295,2.03347 -70.53288,117.11185 -84.61938,114.49111 -14.0865,-2.62075 -25.55226,-25.55227 -34.06968,-23.9143 -9.0305,1.73664 -12.77613,18.6728 -6.87945,20.96595 5.89667,2.29315 15.72447,-0.65518 15.72447,-0.65518 1.31037,6.87945 13.10371,14.41409 17.36242,14.0865 4.25871,-0.3276 -21.94873,0.65518 -25.87984,-2.62075 -3.93112,-3.27593 -16.37965,-0.65519 -17.69003,4.25871 -1.31037,4.9139 -1.31659,13.47565 7.86224,14.74169 9.5002,1.31037 13.59942,-6.87945 13.59942,-6.87945 l 21.45303,-0.65519 -11.79335,8.51742 c 0,0 -18.6728,9.82779 -13.10372,18.01761 5.56908,8.18983 20.31077,8.18983 19.65558,-7.20704 -0.65518,-2.29315 15.72447,-17.69002 19.32799,-15.72447 3.60353,1.96556 10.15539,0.98278 14.4141,0 4.25871,-0.98277 11.79334,-2.29315 11.79334,1.96556 0,4.25871 9.17261,3.93112 14.74169,2.62075 5.56908,-1.31037 7.12367,-17.27606 -2.37653,-17.27606 -9.5002,0 -24.81369,4.49993 -23.50332,-0.0864 1.31038,-4.58631 113.46161,-75.24629 119.34697,-106.30153 z"
               id="path1477-3"
               sodipodi:nodetypes="cczccccczccccccccccccc"
               inkscape:connector-curvature="0" /><path
               style="fill:#ffffff;fill-opacity:1;fill-rule:evenodd;stroke:#000000;stroke-width:2;stroke-linecap:butt;stroke-linejoin:miter;stroke-miterlimit:4;stroke-opacity:1"
               d="m -184.76248,514.4544 c 0,0 7.86223,-6.55186 8.51742,-4.9139 0.65519,1.63797 5.56908,3.60353 8.18982,2.29316 6.22427,-0.3276 9.17262,-10.81057 3.27594,-12.77614 -4.25871,-0.32759 -15.77793,0.11584 -17.69003,4.25871 -1.96555,4.25871 -2.29315,11.13817 -2.29315,11.13817 z"
               id="path1479-9"
               transform="translate(-534.2867,-113.0765)"
               sodipodi:nodetypes="cccczc"
               inkscape:connector-curvature="0" /><path
               style="fill:#ffffff;fill-opacity:1;fill-rule:evenodd;stroke:#000000;stroke-width:2;stroke-linecap:butt;stroke-linejoin:miter;stroke-miterlimit:4;stroke-opacity:1"
               d="m -717.21056,443.96256 c 0,0 1.68225,-10.09513 3.24756,-9.2815 1.56532,0.81364 6.57144,-0.90348 7.70224,-3.60656 4.50267,-4.30984 -0.10379,-14.17726 -5.85463,-11.81883 -3.44082,2.53075 -11.88017,10.38355 -10.62567,14.77054 1.2896,4.50965 5.5305,9.93635 5.5305,9.93635 z"
               id="path1481-6"
               sodipodi:nodetypes="cccczc"
               inkscape:connector-curvature="0" /><path
               style="fill:#ffffff;fill-opacity:1;fill-rule:evenodd;stroke:#000000;stroke-width:2;stroke-linecap:butt;stroke-linejoin:miter;stroke-miterlimit:4;stroke-opacity:1"
               d="m -694.43014,467.30858 c 0,0 1.68225,-10.09513 3.24756,-9.2815 1.56532,0.81364 6.57144,-0.90348 7.70224,-3.60656 4.50267,-4.30984 -0.10379,-14.17726 -5.85463,-11.81883 -3.44082,2.53075 -11.88017,10.38355 -10.62567,14.77054 1.2896,4.50965 5.5305,9.93635 5.5305,9.93635 z"
               id="path1483-6"
               sodipodi:nodetypes="cccczc"
               inkscape:connector-curvature="0" /><path
               style="fill:#ffffff;fill-opacity:1;fill-rule:evenodd;stroke:#000000;stroke-width:2;stroke-linecap:butt;stroke-linejoin:miter;stroke-miterlimit:4;stroke-opacity:1"
               d="m -609.02747,448.30818 c 0,0 -1.68225,-10.09513 -3.24756,-9.2815 -1.56532,0.81364 -6.57144,-0.90348 -7.70224,-3.60656 -4.50267,-4.30984 0.10379,-14.17726 5.85463,-11.81883 3.44082,2.53075 11.88017,10.38355 10.62567,14.77054 -1.2896,4.50965 -5.5305,9.93635 -5.5305,9.93635 z"
               id="path1485-8"
               sodipodi:nodetypes="cccczc"
               inkscape:connector-curvature="0" /></g><path
             style="fill:#ffffff;fill-opacity:1;fill-rule:evenodd;stroke:#000000;stroke-width:0.915631px;stroke-linecap:butt;stroke-linejoin:miter;stroke-opacity:1"
             d="m 597.27763,291.33675 c 0,0 -6.37214,2.48709 -3.26379,6.99493"
             id="path1487-7"
             sodipodi:nodetypes="cc"
             inkscape:connector-curvature="0" /><path
             style="fill:#ffffff;fill-opacity:1;fill-rule:evenodd;stroke:#000000;stroke-width:0.915631px;stroke-linecap:butt;stroke-linejoin:miter;stroke-opacity:1"
             d="m 592.34298,292.03624 c 0,0 -4.04088,1.86532 -3.41922,4.81873"
             id="path1489-6"
             sodipodi:nodetypes="cc"
             inkscape:connector-curvature="0" /><path
             style="fill:#ffffff;fill-opacity:1;fill-rule:evenodd;stroke:#000000;stroke-width:0.915631px;stroke-linecap:butt;stroke-linejoin:miter;stroke-opacity:1"
             d="m 541.47026,261.38118 c 0,0 6.44653,9.31316 2.62638,13.61153"
             id="path1499-4"
             sodipodi:nodetypes="cc"
             inkscape:connector-curvature="0" /><path
             style="fill:#ffffff;fill-opacity:1;fill-rule:evenodd;stroke:#000000;stroke-width:0.777238px;stroke-linecap:butt;stroke-linejoin:miter;stroke-opacity:1"
             d="m 547.90872,268.059 c 0,0 6.44653,6.71064 2.62637,9.80784"
             id="path1501-6"
             sodipodi:nodetypes="cc"
             inkscape:connector-curvature="0" /><path
             style="fill:#ffffff;fill-opacity:1;fill-rule:evenodd;stroke:#000000;stroke-width:0.915631px;stroke-linecap:butt;stroke-linejoin:miter;stroke-opacity:1"
             d="m 537.59711,289.31599 c 1.08792,0.46633 3.26377,4.50786 2.48668,7.15038"
             id="path1503-7"
             sodipodi:nodetypes="cc"
             inkscape:connector-curvature="0" /><path
             style="fill:#ffffff;fill-opacity:1;fill-rule:evenodd;stroke:#000000;stroke-width:0.915631px;stroke-linecap:butt;stroke-linejoin:miter;stroke-opacity:1"
             d="m 540.68911,289.54915 c 1.08792,0.46634 4.19629,2.02077 3.88544,4.97419"
             id="path1505-2"
             sodipodi:nodetypes="cc"
             inkscape:connector-curvature="0" /></g></g><path
         sodipodi:nodetypes="cccccccccccccccccccccccccccccccccccccccccccccccccc"
         id="path8258-4"
         d="m -528.10513,-2.7423246 c -7.52837,0.575808 -9.13641,6.8777354 -9.13641,6.8777354 -10.39796,-0.623336 -15.67513,3.7461908 -16.82009,8.7611572 -3.93149,-0.958631 -7.97782,-1.412855 -11.8199,-0.863186 -4.92887,0.705173 -9.41853,2.669642 -12.46938,5.900375 -12.01181,12.720074 1.22407,44.623605 1.22407,44.623629 2.23563,-5.251392 19.37942,-37.026864 32.23321,-1.216619 2.18151,-1.678965 16.62714,-3.102328 22.82558,10.721712 -18.17956,-12.533092 -50.90648,5.019819 -65.50751,-4.338466 -11.7207,-7.512245 0.26242,-21.688466 -3.82885,-21.491787 -16.28065,9.896185 -12.78571,31.204852 -2.33952,37.637086 7.92786,4.88156 19.40431,5.74337 31.37199,5.06816 -3.26858,2.504704 -6.15674,4.709194 -6.4988,8.236294 3.19559,-0.95462 25.13228,-5.80636 38.77682,20.920754 0.47836,0.0382 -5.11099,26.76809 -27.67644,30.15689 -17.7316,8.60747 -33.45351,32.4958 -33.45351,32.4958 31.92363,3.46204 5.55977,4.42651 -6.3792,13.19524 -11.93896,8.76879 -19.81485,33.42596 -19.81485,33.42596 0,0 24.5159,-3.36227 26.28147,-8.50075 -0.49548,1.44216 -23.44489,30.67258 -24.33486,43.11645 -0.88996,12.44383 -4.45833,21.8558 -15.95338,33.28452 8.84191,-1.64209 18.1244,-2.9609 26.71681,-17.04832 2.75398,4.2232 -6.8314,20.3395 -4.62211,29.13777 6.24822,11.49878 -0.35762,47.86607 -2.38753,54.85061 7.02283,-9.3315 17.71376,-19.15428 17.41568,-17.67409 -0.28751,1.42782 -4.35313,17.03941 -13.3492,37.1889 10.22462,-3.0644 37.44139,-31.80765 41.49063,-35.01769 3.66423,-2.90512 -12.50611,43.2485 8.40392,58.7824 2.01154,-19.33909 -4.39981,-50.77888 14.69017,-53.26117 -4.14072,12.81516 -4.77521,32.42413 10.03221,39.56657 -4.29117,-18.49521 -0.52266,-41.27217 2.9159,-34.25943 3.43851,7.01261 7.75376,4.34223 17.15751,26.51371 6.64323,-17.97763 -4.13495,-26.01622 -3.00452,-26.4481 7.91182,10.80637 14.44452,11.26082 25.20835,6.41988 -4.06625,-5.04418 -10.55354,-25.83492 8.50961,-6.66605 4.48049,-79.47836 6.3689,-141.70892 -5.56603,-162.50759 17.12188,30.21498 7.3081,-38.18481 7.88193,-38.87359 17.87262,46.01827 10.97487,-37.28565 10.66341,-37.93384 20.57397,50.07488 -3.51179,-50.21242 5.13093,-41.325662 13.31464,9.579784 0.87911,-19.744823 -0.62121,-23.21612 10.49239,-7.082486 25.46665,-20.373347 43.87968,-37.904692 -9.26847,-0.140167 -18.8041,1.228088 -27.93153,2.988668 7.77577,-6.521887 14.69215,-13.8650712 17.6953,-20.7812506 -19.16438,-0.04043 -39.04702,8.6366164 -50.49159,15.4230896 -11.43047,-4.1251994 -39.87092,-16.4718276 -46.49876,-15.9649576 z m 8.29036,86.3167266 c 0.0776,-0.008 0.11891,-0.0155 0.19578,-0.0224 0.21212,2.70097 0.44746,5.44076 0.20085,8.778864 -0.71254,9.568154 -13.68263,1.63709 -23.44777,-5.570744 8.66923,-1.27316 17.05876,-2.64203 23.05107,-3.18575 z"
         style="fill:#000000;fill-opacity:1;fill-rule:evenodd;stroke:#000000;stroke-width:3.12353;stroke-linecap:butt;stroke-linejoin:miter;stroke-miterlimit:4;stroke-opacity:1"
         inkscape:connector-curvature="0" /><path
         inkscape:connector-curvature="0"
         sodipodi:nodetypes="cccc"
         id="path25698-5"
         d="m -484.97515,34.414094 c -0.89194,9.53336 42.54489,-15.421988 51.46346,-35.6807436 -26.30014,-0.01454 -54.75376,16.8162516 -58.19546,21.3591576 z"
         style="fill:#ffffff;fill-opacity:1;fill-rule:evenodd;stroke:#000000;stroke-width:2.74447;stroke-linecap:butt;stroke-linejoin:miter;stroke-miterlimit:4;stroke-opacity:1" /><path
         style="fill:#fcdd09;fill-opacity:1;stroke:#000000;stroke-width:3.52914;stroke-linecap:butt;stroke-linejoin:miter;stroke-miterlimit:4;stroke-dasharray:none;stroke-opacity:1"
         d="m -530.43042,-4.1958466 -0.22709,-57.9840794 c 5.46345,-0.247404 10.84388,15.571461 9.29315,21.230183 4.66497,-3.177686 7.72801,-3.911746 10.81894,-2.505129 3.62112,1.077207 4.50617,11.019564 4.50617,11.019564 0,0 -3.14611,-2.036478 -5.15528,-1.976256 -2.00914,0.06016 -5.11641,2.404857 -5.77005,5.867732 -0.50894,2.696404 -0.45625,7.661077 5.28863,9.062396 5.74486,1.401326 12.11022,-7.173086 12.11022,-7.173086 0,0 1.11642,10.713053 6.49377,12.094846 5.37734,1.381791 9.1791,-1.96467 10.47663,-6.007406 1.29758,-4.042729 1.25965,-8.929841 -2.11533,-9.988806 -3.37497,-1.058978 -7.93692,1.860226 -7.93692,1.860226 0,0 -0.57177,-8.245748 5.55882,-12.482336 6.13059,-4.236594 9.68014,3.656392 9.68014,3.656392 0,0 1.47274,-7.291822 5.28511,-11.350244 1.75709,-1.870483 3.87124,-3.294456 5.5461,-4.250809 1.67488,-0.95635 2.91256,-1.451498 2.91256,-1.451498 0,0 0.71829,1.122572 1.52501,2.874432 0.80672,1.751862 1.69898,4.139584 2.04112,6.682999 0.74236,5.518508 -2.29873,12.307574 -2.29873,12.307574 0,0 7.47686,-4.358318 10.00181,2.652926 2.52497,7.011248 -2.7342,13.38781 -2.7342,13.38781 0,0 -2.01454,-5.027377 -5.3762,-6.127933 -3.36166,-1.100571 -6.23369,2.853726 -7.52845,6.897359 -1.29463,4.043668 -0.147,8.9767204 5.03151,10.9787574 5.17853,2.002036 12.31527,-6.0653554 12.31527,-6.0653554 0,0 0.19406,10.67711376 5.68291,12.8769308 5.4889,2.199815 8.41816,-1.80894904 9.57171,-4.2987234 1.48144,-3.197512 0.31642,-6.911688 -1.28327,-8.1287744 -1.5997,-1.217089 -5.34344,-1.389246 -5.34344,-1.389246 0,0 6.50041,-7.574848 10.07294,-6.346027 3.33267,0.65255 5.39806,3.030602 7.34616,8.3282004 2.02818,-5.5056764 15.6027,-15.2482674 19.90407,-11.8706194 l -33.89578,47.045524 -45.9295,-14.617386 z"
         id="path3095-9"
         inkscape:connector-curvature="0" /><path
         sodipodi:nodetypes="cscsc"
         id="path2084-8"
         d="m -589.46917,45.473988 c -15.8402,9.521681 -12.4518,29.96771 -2.2935,36.12524 20.33477,12.326148 64.73521,-1.91919 78.399,-0.53764 -12.9106,-30.775072 -55.35637,-4.24737 -72.37418,-14.985971 -11.39755,-7.192085 0.2483,-20.796461 -3.73132,-20.601629 z"
         style="fill:#fcdd09;fill-opacity:1;fill-rule:evenodd;stroke:#000000;stroke-width:3.01789;stroke-linecap:butt;stroke-linejoin:miter;stroke-miterlimit:4;stroke-opacity:1"
         inkscape:connector-curvature="0" /><path
         inkscape:connector-curvature="0"
         sodipodi:nodetypes="cccccccccccczczccccccccccccccccccccccc"
         id="path25700-3"
         d="m -525.66808,112.12771 c 0,0 -5.13115,33.86642 -29.26015,37.47836 -17.25104,8.28712 -35.29777,30.87835 -35.29777,30.87835 0,0 17.73647,-0.6959 18.12478,-0.49064 0.15961,8.11901 -11.09353,5.21504 -22.71014,13.6483 -11.61661,8.43329 -19.09288,29.02773 -19.09288,29.02773 0,0 22.93558,-6.56743 24.65508,-11.50154 -0.48257,1.38475 -22.83246,29.45478 -23.70329,41.39861 -0.87081,11.94382 -2.75964,28.31783 -13.94554,39.30311 8.60112,-1.58901 26.60509,-13.81353 34.8389,-31.42405 2.67704,4.04898 -17.5827,37.16672 -15.43739,45.6076 6.07283,11.02605 -2.09966,51.93986 -2.09966,51.93986 0,0 24.60559,-31.04498 24.31505,-29.62409 -0.28027,1.37068 -9.81449,28.47128 -19.13212,48.889 9.94671,-2.95616 38.94071,-39.03883 42.88071,-42.12564 3.56538,-2.79332 -14.09337,57.19961 3.91998,64.18546 0.50311,0.49119 -1.02323,-55.53998 17.54654,-57.9511 -4.03299,12.30495 -8.48437,41.44864 5.91578,48.28118 -4.16633,-17.74365 1.16556,-41.98325 4.50731,-35.25826 3.34175,6.72498 7.22567,4.62059 16.36344,25.88432 6.46932,-17.26287 -4.0269,-35.68866 -2.92712,-36.10466 7.69128,10.35928 11.99357,22.62678 22.46549,17.96465 -3.95311,-4.83494 -11.84495,-18.38792 -5.46202,-14.37911 6.38294,4.00882 9.09907,-7.68734 16.48041,6.80379 3.90903,-19.08973 -20.25087,-46.64409 -11.09935,-34.26557 9.15151,12.3785 40.29261,27.77313 35.05603,20.47491 -5.23659,-7.29824 -31.13987,-152.6821 -29.98475,-152.80538 15.56537,29.7815 7.10992,-36.6528 7.66837,-37.31467 17.3655,44.13766 10.69254,-35.79905 10.38984,-36.42065 19.99145,48.02687 -3.36526,-48.206708 5.03774,-39.690832 13.72876,9.727874 -1.082,-23.440411 -1.082,-23.440411 l -5.79865,-15.290578 -14.08662,-9.990477 -48.89904,-15.9254414 -4.45602,33.5176014 25.46391,25.196294 -1.18047,33.143534 z"
         style="fill:#ffffff;fill-opacity:1;fill-rule:evenodd;stroke:#000000;stroke-width:2.74447;stroke-linecap:butt;stroke-linejoin:miter;stroke-miterlimit:4;stroke-opacity:1" /><path
         inkscape:connector-curvature="0"
         sodipodi:nodetypes="cccccczc"
         id="path25702-0"
         d="m -536.76534,5.0137018 c -14.68838,-0.846307 -19.06073,8.3459492 -15.51828,14.9518372 3.54244,6.605873 32.84698,-0.947032 37.38048,1.900239 4.5335,2.847272 29.82047,8.652385 35.98236,6.827015 6.16187,-1.825369 16.18229,-15.027669 16.18229,-15.027669 0,0 -10.14599,2.280363 -14.82966,1.69358 -4.68368,-0.586784 -42.76584,-17.5494306 -50.30022,-16.9694006 -7.32305,0.5637544 -8.89697,6.6243984 -8.89697,6.6243984 z"
         style="fill:#ffffff;fill-opacity:1;fill-rule:evenodd;stroke:#000000;stroke-width:2.74447;stroke-linecap:butt;stroke-linejoin:miter;stroke-miterlimit:4;stroke-opacity:1" /><path
         inkscape:connector-curvature="0"
         sodipodi:nodetypes="cccc"
         id="path25704-9"
         d="m -531.51197,17.727546 c 14.05724,-7.398889 11.69288,9.336636 34.16111,9.252718 3.1399,1.972007 -2.81143,8.91933 -12.79358,14.332099 -13.45332,2.701685 -23.69374,-19.347297 -21.36753,-23.584817 z"
         style="fill:#000000;fill-opacity:1;fill-rule:evenodd;stroke:none;stroke-width:1.37223px;stroke-linecap:butt;stroke-linejoin:miter;stroke-opacity:1" /><path
         inkscape:connector-curvature="0"
         sodipodi:nodetypes="ccccccc"
         id="path25706-7"
         d="m -507.76569,26.555433 c -2.06734,3.625445 -4.18331,8.064568 -9.78328,7.749317 -2.27129,-1.640027 -2.49365,-7.976844 -2.18099,-11.327344 -0.99443,1.238184 -1.825,2.658588 -2.17197,4.464068 -0.96821,5.038125 1.51194,9.970438 5.5285,10.966088 4.01655,0.995635 8.0468,-2.322853 9.01499,-7.360975 0.45849,-2.385762 0.47635,-2.567973 -0.40725,-4.491154 z"
         style="fill:#da121a;fill-opacity:1;fill-rule:nonzero;stroke:#000000;stroke-width:1.38212;stroke-miterlimit:4;stroke-dashoffset:0;stroke-opacity:1" /><path
         inkscape:connector-curvature="0"
         sodipodi:nodetypes="czczcccscc"
         id="path25708-9"
         d="m -575.57742,61.112654 c 0,0 -12.8498,-30.593731 -1.1607,-42.81921 11.87556,-12.4205052 45.80336,-5.212 42.20885,19.53996 3.34256,4.043984 24.28114,14.814113 25.67505,31.066947 1.39392,16.252861 4.21401,46.910019 -18.53859,45.151309 -13.26088,-25.630048 -37.06388,-20.643494 -40.17259,-19.722574 0.67405,-6.828794 11.36884,-8.381414 15.0167,-17.925668 0.0125,-0.034 31.99275,27.739702 33.0973,13.187244 2.53669,-33.688082 -21.91729,-31.86669 -24.76988,-29.696879 -12.48799,-34.348371 -29.17936,-3.824243 -31.35614,1.218871 z"
         style="fill:#fcdd09;fill-opacity:1;fill-rule:evenodd;stroke:#000000;stroke-width:2.74447;stroke-linecap:butt;stroke-linejoin:miter;stroke-miterlimit:4;stroke-opacity:1" /><path
         inkscape:connector-curvature="0"
         style="fill:#000000;fill-opacity:1;fill-rule:nonzero;stroke:none;stroke-width:1.50946;stroke-miterlimit:4;stroke-dashoffset:0;stroke-opacity:1"
         d="m -553.80832,16.749664 c -5.88533,2.032621 -5.80274,9.638139 -3.93326,11.71898 0.39382,0.438362 0.83525,0.667606 1.32295,0.865416 -0.34356,-2.076568 -0.38042,-5.536202 1.51306,-6.36013 0.52908,1.252585 1.47202,2.218425 2.76178,2.071132 1.73934,-0.198637 3.08201,-2.437905 3.0204,-4.101534 -0.0603,-1.620148 -0.33436,-2.524258 -1.05294,-3.324086 -0.7186,-0.799844 -2.36273,-1.308149 -3.63199,-0.869778 z"
         id="path25710-5"
         sodipodi:nodetypes="ccccczzs" /><path
         inkscape:connector-curvature="0"
         sodipodi:nodetypes="ccccc"
         id="path25712-8"
         d="m -482.14509,54.09167 c 1.87181,11.858543 24.35094,-6.075847 58.59117,-38.280617 -26.6099,-0.35642 -58.25669,10.048367 -61.69839,14.591271 l 6.22236,7.59876 z"
         style="fill:#ffffff;fill-opacity:1;fill-rule:evenodd;stroke:#000000;stroke-width:2.74447;stroke-linecap:butt;stroke-linejoin:miter;stroke-miterlimit:4;stroke-opacity:1" /><path
         inkscape:connector-curvature="0"
         sodipodi:nodetypes="cc"
         id="path25714-0"
         d="m -479.16902,38.713095 c 15.32481,-12.23107 16.8093,6.719267 26.87582,-12.358923"
         style="fill:none;fill-opacity:0.75;fill-rule:evenodd;stroke:#000000;stroke-width:2.88169;stroke-linecap:butt;stroke-linejoin:miter;stroke-miterlimit:4;stroke-opacity:1" /><g
         id="g9093"
         transform="matrix(1.3780229,0.37239585,-0.29669294,1.3907812,-709.40816,-249.48884)"><g
           style="fill:#ffffff;fill-opacity:1"
           id="g35950"
           transform="matrix(1.003876,-0.10506,0.04034267,1.161275,2.712691,-269.094)"><path
             style="fill:#ffffff;fill-opacity:1;fill-rule:evenodd;stroke:#000000;stroke-width:2.10321;stroke-linecap:butt;stroke-linejoin:miter;stroke-miterlimit:4;stroke-opacity:1"
             d="m 217.25391,469.71935 c 1.92785,-4.40652 29.0359,-16.01563 32.34079,-33.71782 0,-17.70219 -3.64457,-44.25547 4.68587,-53.62722 8.33045,-9.37175 62.47832,-33.32177 66.12288,-44.77613 6.34002,10.43261 -1.90441,15.15199 -1.22622,16.96646 11.67559,5.91152 32.30005,-11.28508 35.40833,-18.55858 4.83335,12.45712 3.01831,21.64786 -2.18821,29.45765 -5.20653,7.80979 -78.85263,41.38127 -78.85263,41.38127 l -10.41305,51.02396 -51.54461,33.84242 z"
             id="path34295-0"
             sodipodi:nodetypes="ccccccccccc"
             inkscape:connector-curvature="0" /><path
             style="fill:#ffffff;fill-opacity:1;fill-rule:evenodd;stroke:#000000;stroke-width:2;stroke-linecap:butt;stroke-linejoin:miter;stroke-miterlimit:4;stroke-opacity:1"
             d="m 220.61311,466.9916 c 0,0 30.75372,-15.22969 30.75372,-32.06318 0,-16.83348 -3.46572,-42.08371 4.45592,-50.99555 7.92164,-8.91185 59.4123,-31.68656 62.87801,-42.57882 6.02889,9.92065 -3.12042,13.62276 -2.47551,15.34818 11.10263,5.62143 35.16715,-9.42182 38.1229,-16.33838 4.59616,11.84581 -0.27252,20.06174 -5.22354,27.48828 -4.95103,7.42653 -74.98307,39.35055 -74.98307,39.35055 l -9.90205,48.79546 -49.01514,31.90625 z"
             id="path35190-9"
             sodipodi:nodetypes="ccccccccccc"
             inkscape:connector-curvature="0" /></g><g
           id="g34272"
           transform="matrix(1.003876,-0.10506,0.04034267,1.161275,84.97911,-638.1801)"><path
             style="fill:#000000;fill-opacity:1;fill-rule:evenodd;stroke:none;stroke-width:1px;stroke-linecap:butt;stroke-linejoin:miter;stroke-opacity:1"
             d="m 108.79694,831.27458 c 0.93989,10.46644 35.27306,35.39698 39.9421,32.12865 4.66904,-3.26833 -3.73278,-15.14645 -0.46446,-11.41122 3.26832,3.73523 27.85838,1.95953 29.78689,-0.57839 1.9285,-2.53794 29.61974,-6.2485 28.19405,-11.47603 -2.85138,-6.17799 24.07185,-5.75435 21.73732,-11.35719 -2.33452,-5.60284 -10.34752,-7.45386 -6.07045,-6.02817 -10.45506,-0.47523 22.60766,-11.60776 23.20824,-18.33429 0.60059,-6.72654 -14.59551,-0.51729 -10.32939,-8.95811 5.6861,-3.21005 24.73061,-0.96287 36.13613,-27.57575 -3.80184,-2.37615 -7.1179,-0.71916 -10.12907,-0.57514 22.8277,-5.61118 41.55726,-20.35896 34.97065,-29.28842 -8.01229,0.57515 -16.5289,2.48277 -16.5289,2.48277 0,0 21.97044,-11.18168 22.007,-21.07805 -15.28398,-1.24069 -23.08943,-1.66223 -22.65665,-2.70091 9.95403,-1.12524 36.3543,-29.52153 34.78957,-40.35434 -11.92203,1.20315 -19.07915,8.00591 -32.21984,9.26372 -1.80174,-3.24315 34.29687,-25.34099 38.52169,-42.45162 -6.33512,-4.5599 -60.64379,26.17143 -66.24662,25.23762 -5.60285,-0.9338 -63.35129,16.12852 -67.89079,17.61347 -4.46331,1.46004 -9.23569,1.46976 -10.02355,15.53331 -0.78851,14.07493 1.36382,39.48674 -2.48222,46.02339 -24.12899,41.00921 -73.289519,23.91458 -79.241317,55.34401 -0.83726,25.27992 18.703887,2.78271 14.989617,28.54069 z"
             id="path16778-0"
             sodipodi:nodetypes="ccczccczccccccccccczcscc"
             inkscape:connector-curvature="0" /><path
             style="fill:#ffffff;fill-opacity:1;fill-rule:evenodd;stroke:none;stroke-width:2;stroke-linecap:butt;stroke-linejoin:miter;stroke-miterlimit:4;stroke-opacity:1"
             d="m 276.09514,667.31826 c -0.54678,0.27339 -88.32003,15.93456 -93.97387,28.21152 -5.73412,12.45126 2.48468,30.47243 -5.61433,52.3865 -8.04339,21.76356 -24.9394,26.1442 -50.67774,33.91217 -9.50095,2.86744 -16.54529,2.2401 -27.300087,17.10237 -6.47773,25.31733 7.129327,7.13215 17.064767,9.5542 8.06224,13.72263 7.54368,-4.99902 15.40469,2.862 7.86101,7.86102 4.00306,-8.96242 14.11008,-6.71641 10.10702,2.246 -0.79869,-7.18661 17.16936,-7.18661 17.96804,0 -0.003,-13.40409 15.71913,-15.6501 15.72204,-2.24601 3.23392,-12.75633 13.34094,-17.24835 10.10702,-4.49201 -4.71486,-14.11299 5.39216,-19.72801 10.10701,-5.61502 -6.36258,-8.20901 5.20672,-18.45407 11.56932,-10.24506 -6.8821,-4.75295 -0.79081,-13.88305 6.51682,-9.76791 9.14001,-10.58437 3.73786,-16.6509 -5.40215,-6.06653 71.21113,-28.51126 71.21113,-28.51126 z"
             id="path2880-7"
             sodipodi:nodetypes="czzscczzzzzzzzzc"
             inkscape:connector-curvature="0" /><path
             style="fill:#ffffff;fill-opacity:1;fill-rule:evenodd;stroke:none;stroke-width:2;stroke-linecap:butt;stroke-linejoin:miter;stroke-miterlimit:4;stroke-opacity:1"
             d="m 189.08783,804.91174 c -0.37207,4.76753 1.5169,7.46946 6.91117,8.88672 12.58199,3.30573 32.47281,5.57546 44.28366,-10.16929 -10.51019,-1.42497 -20.65664,-16.27055 -37.58925,-11.88491 -4.11032,-0.22889 -7.43678,3.58889 -9.02023,8.17043 3.66369,0.5602 7.26342,1.08939 11.23089,1.75036 24.17792,4.02795 15.05353,9.02874 -9.12437,5.00079 -4.03739,-0.67262 -2.98708,-1.08506 -6.69187,-1.7541 z"
             id="path31216-1"
             sodipodi:nodetypes="cccccccc"
             inkscape:connector-curvature="0" /><path
             style="fill:#ffffff;fill-opacity:1;fill-rule:evenodd;stroke:none;stroke-width:2;stroke-linecap:butt;stroke-linejoin:miter;stroke-miterlimit:4;stroke-opacity:1"
             d="m 206.62943,786.10366 c 1.05869,4.66337 3.66403,6.68347 9.23593,6.43706 12.9963,-0.57474 44.92274,-1.81575 47.2325,-23.46504 -10.4599,1.75639 -32.51047,-8.79272 -47.38042,0.41767 -3.99326,1.0005 -6.03772,5.6331 -6.19107,10.47813 3.66499,-0.55163 7.2597,-1.1139 11.24469,-1.6594 24.28467,-3.32428 20.86012,-3.25472 21.02391,-2.05815 -0.0697,2.13037 -3.96987,6.21587 -28.25452,9.54015 -4.05522,0.5551 -3.1745,-0.15029 -6.91102,0.30958 z"
             id="path31214-2"
             sodipodi:nodetypes="ccccccccc"
             inkscape:connector-curvature="0" /><path
             style="fill:#ffffff;fill-opacity:1;fill-rule:evenodd;stroke:none;stroke-width:2;stroke-linecap:butt;stroke-linejoin:miter;stroke-miterlimit:4;stroke-opacity:1"
             d="m 220.7027,762.95096 c 1.05869,4.66337 3.66403,6.68347 9.23593,6.43706 12.99631,-0.57474 64.67665,-11.71573 63.72316,-28.5329 -10.45991,1.75639 -46.1052,4.56068 -63.87108,5.48553 -3.99326,1.0005 -6.03772,5.6331 -6.19107,10.47813 3.66499,-0.55163 7.2597,-1.1139 11.24469,-1.6594 24.28467,-3.32428 23.19295,-3.49605 23.35674,-2.29948 -0.0697,2.13037 -6.3027,6.4572 -30.58735,9.78148 -4.05522,0.5551 -3.1745,-0.15029 -6.91102,0.30958 z"
             id="path31212-1"
             sodipodi:nodetypes="ccccccccc"
             inkscape:connector-curvature="0" /><path
             style="fill:#ffffff;fill-opacity:1;fill-rule:evenodd;stroke:none;stroke-width:2;stroke-linecap:butt;stroke-linejoin:miter;stroke-miterlimit:4;stroke-opacity:1"
             d="m 223.58542,742.8704 c 1.05869,4.66337 3.66403,6.68347 9.23593,6.43706 12.99631,-0.57474 64.67665,-11.71573 63.72316,-28.5329 -10.45991,1.75639 -49.00112,-3.72486 -63.87108,5.48553 -3.99326,1.0005 -6.03772,5.6331 -6.19107,10.47813 3.66499,-0.55163 7.2597,-1.1139 11.24469,-1.6594 24.28467,-3.32428 37.35077,-8.32258 37.51456,-7.12601 -0.0697,2.13037 -20.46052,11.28373 -44.74517,14.60801 -4.05522,0.5551 -3.1745,-0.15029 -6.91102,0.30958 z"
             id="path16726-0"
             sodipodi:nodetypes="ccccccccc"
             inkscape:connector-curvature="0" /><path
             style="fill:#ffffff;fill-opacity:1;fill-rule:evenodd;stroke:none;stroke-width:2;stroke-linecap:butt;stroke-linejoin:miter;stroke-miterlimit:4;stroke-opacity:1"
             d="m 225.44443,713.39478 c 4.58839,4.58864 8.5165,9.58364 13.23068,9.06392 41.20608,5.40922 75.17222,-40.98442 72.01727,-44.43197 -21.1574,11.03651 -64.98408,16.94119 -73.7765,20.95252 -2.73262,1.1924 -0.90143,5.9033 2.76189,10.73243 2.79544,-0.72951 5.52061,-1.46616 8.60266,-2.20534 18.78218,-4.5046 40.7025,-12.35798 41.78481,-11.17527 1.08231,1.1827 -19.0738,10.96388 -37.85597,15.46847 -3.13637,0.7522 -23.83448,0.95353 -26.76484,1.59524 z"
             id="path16732-6"
             sodipodi:nodetypes="ccccccccc"
             inkscape:connector-curvature="0" /><path
             style="fill:#ffffff;fill-opacity:1;fill-rule:evenodd;stroke:none;stroke-width:1px;stroke-linecap:butt;stroke-linejoin:miter;stroke-opacity:1"
             d="m 173.41795,794.31048 c 1.87234,-2.72573 3.81161,-4.91859 4.64708,-4.5154 1.9487,0.94043 5.19888,12.87809 3.85066,14.93129 -1.34833,2.05338 -11.92071,1.16047 -12.84647,-1.45344 -0.29901,-0.77915 1.04689,-3.62949 2.7841,-6.51913 0.40781,0.49698 0.80009,0.99702 1.26324,1.5051 2.82261,3.09613 5.49296,5.0278 5.95548,4.32344 0.4625,-0.70436 -1.45396,-3.78411 -4.27656,-6.88024 -0.47134,-0.51702 -0.92445,-0.94597 -1.37753,-1.39162 z"
             id="path18310-0"
             inkscape:connector-curvature="0" /><path
             style="fill:#ffffff;fill-opacity:1;fill-rule:evenodd;stroke:none;stroke-width:1px;stroke-linecap:butt;stroke-linejoin:miter;stroke-opacity:1"
             d="m 186.70094,779.16213 c 1.52738,-3.69413 3.1387,-4.69151 4.07735,-4.22384 2.18929,1.09087 13.43881,12.27932 12.35337,15.05757 -1.08559,2.7785 -18.17645,4.53484 -19.56055,1.18491 -0.43669,-0.99692 0.51981,-4.81658 1.87972,-8.71532 0.50584,0.62051 0.99586,1.24613 1.56138,1.87723 3.44638,3.84574 11.89257,3.31098 12.26493,2.35789 0.37237,-0.95311 -7.46681,-1.97182 -10.9132,-5.81758 -0.57551,-0.6422 -1.11793,-1.17062 -1.663,-1.72086 z"
             id="path18312-0"
             sodipodi:nodetypes="ccccccccc"
             inkscape:connector-curvature="0" /><path
             style="fill:#ffffff;fill-opacity:1;fill-rule:evenodd;stroke:none;stroke-width:2;stroke-linecap:butt;stroke-linejoin:miter;stroke-miterlimit:4;stroke-opacity:1"
             d="m 245.02978,687.21206 c 5.1499,3.94811 4.25359,13.08878 8.85909,11.95606 10.74221,-2.64206 63.86869,-49.34266 60.28935,-52.34726 -3.57978,-3.00489 -24.78451,11.79299 -97.90347,39.9749 -2.5529,1.54006 20.3156,-0.68867 23.27428,-1.82518 18.03033,-6.92595 34.29017,-13.03572 35.51808,-12.00497 1.22789,1.03075 -27.21627,13.22644 -30.03733,14.24645 z"
             id="path16734-4"
             sodipodi:nodetypes="ccccccc"
             inkscape:connector-curvature="0" /><path
             style="fill:#ffffff;fill-opacity:1;fill-rule:evenodd;stroke:none;stroke-width:2;stroke-linecap:butt;stroke-linejoin:miter;stroke-miterlimit:4;stroke-opacity:1"
             d="m 172.14453,816.77105 c -1.54602,4.52522 -0.38835,7.61203 4.48398,10.32627 11.36459,6.33092 30.06603,13.47602 45.4214,1.1632 -9.8256,-3.994 -15.9613,-20.89652 -33.4526,-20.85966 -3.92427,-1.24391 -8.09567,1.62666 -10.76876,5.67047 3.40927,1.45373 6.76429,2.86152 10.44274,4.4884 22.41659,9.91426 12.33521,12.48878 -10.08136,2.57452 -3.74327,-1.65555 -2.62339,-1.79383 -6.0454,-3.3632 z"
             id="path31218-1"
             sodipodi:nodetypes="cccccccc"
             inkscape:connector-curvature="0" /><path
             style="fill:#ffffff;fill-opacity:1;fill-rule:evenodd;stroke:none;stroke-width:2;stroke-linecap:butt;stroke-linejoin:miter;stroke-miterlimit:4;stroke-opacity:1"
             d="m 158.29829,823.24569 c -2.36986,4.15351 -1.81367,7.403 2.46093,10.98553 9.97041,8.35617 24.16319,17.12356 41.56104,7.91988 -8.89861,-5.77142 -8.91417,-21.75763 -26.09999,-25.01253 -3.62012,-1.96007 -8.25714,0.0744 -11.64336,3.54297 3.07485,2.06924 6.10507,4.08316 9.41171,6.37311 20.15077,13.95501 9.76504,14.58667 -10.38572,0.63166 -3.3649,-2.3303 -2.23901,-2.2554 -5.30461,-4.44062 z"
             id="path31220-8"
             sodipodi:nodetypes="cccccccc"
             inkscape:connector-curvature="0" /><path
             style="fill:#ffffff;fill-opacity:1;fill-rule:evenodd;stroke:none;stroke-width:1.61199;stroke-linecap:butt;stroke-linejoin:miter;stroke-miterlimit:4;stroke-opacity:1"
             d="m 136.20266,832.12764 c -1.9101,3.34772 -1.46182,5.96679 1.9835,8.8543 8.03611,6.73505 19.47544,13.80153 33.49805,6.3834 -7.17224,-4.65175 -7.18479,-17.53658 -21.0365,-20.16002 -2.91781,-1.5798 -6.65523,0.0599 -9.38451,2.85563 2.47832,1.6678 4.92067,3.29101 7.58581,5.1367 16.24145,11.24769 7.87059,11.75681 -8.37085,0.50912 -2.71211,-1.87822 -1.80464,-1.81785 -4.2755,-3.57913 z"
             id="path31222-2"
             sodipodi:nodetypes="cccccccc"
             inkscape:connector-curvature="0" /><path
             style="fill:#ffffff;fill-opacity:1;fill-rule:evenodd;stroke:none;stroke-width:1.4132;stroke-linecap:butt;stroke-linejoin:miter;stroke-miterlimit:4;stroke-opacity:1"
             d="m 119.1761,835.03238 c -2.33874,2.43883 -2.51662,4.7615 -0.20343,7.95216 5.39543,7.44212 13.61385,15.89249 27.12064,12.5781 -5.10558,-5.48631 -2.36591,-16.44489 -13.58396,-21.63231 -2.14378,-1.96612 -5.6717,-1.36963 -8.58915,0.42495 1.7513,1.94714 3.48153,3.84868 5.35371,5.98694 11.40915,13.03068 4.18277,11.67677 -7.22636,-1.3539 -1.90517,-2.17595 -1.14644,-1.93092 -2.87145,-3.95594 z"
             id="path31224-9"
             sodipodi:nodetypes="cccccccc"
             inkscape:connector-curvature="0" /><path
             style="fill:#ffffff;fill-opacity:1;fill-rule:evenodd;stroke:none;stroke-width:1px;stroke-linecap:butt;stroke-linejoin:miter;stroke-opacity:1"
             d="m 195.61331,762.37308 c 0.50151,-3.96585 1.79361,-5.35208 2.82223,-5.14788 2.39919,0.47636 16.19632,8.31042 15.88017,11.27638 -0.31622,2.96624 -16.34265,9.15783 -18.55945,6.29016 -0.68362,-0.84689 -0.7659,-4.78363 -0.47979,-8.90281 0.65129,0.46554 1.28866,0.94017 2.00031,1.40023 4.33687,2.80336 12.3447,0.065 12.45314,-0.9525 0.10846,-1.0175 -7.72252,0.0624 -12.0594,-2.74096 -0.72421,-0.46813 -1.38656,-0.8352 -2.05721,-1.22262 z"
             id="path31984-5"
             sodipodi:nodetypes="ccccccccc"
             inkscape:connector-curvature="0" /><path
             style="fill:#ffffff;fill-opacity:1;fill-rule:evenodd;stroke:none;stroke-width:1px;stroke-linecap:butt;stroke-linejoin:miter;stroke-opacity:1"
             d="m 201.22311,743.90765 c 0.42656,-3.98168 1.91836,-5.41472 3.16413,-5.24869 2.90566,0.38733 19.842,7.70596 19.59383,10.68158 -0.24825,2.9759 -19.24098,9.75576 -22.03373,6.972 -0.85956,-0.82103 -1.13359,-4.75204 -0.97283,-8.87898 0.80374,0.44114 1.59114,0.89189 2.46721,1.32531 5.33878,2.64112 14.84458,-0.39144 14.9297,-1.41223 0.0851,-1.02082 -9.2818,0.34788 -14.6206,-2.29325 -0.89152,-0.44104 -1.70418,-0.78337 -2.52771,-1.14574 z"
             id="path31986-7"
             sodipodi:nodetypes="ccccccccc"
             inkscape:connector-curvature="0" /><path
             style="fill:#ffffff;fill-opacity:1;fill-rule:evenodd;stroke:none;stroke-width:1px;stroke-linecap:butt;stroke-linejoin:miter;stroke-opacity:1"
             d="m 208.65915,719.57328 c 0.42656,-3.98168 1.91836,-5.41472 3.16412,-5.24869 2.90567,0.38733 19.84201,7.70596 19.59384,10.68158 -0.24825,2.9759 -19.24098,9.75576 -22.03373,6.972 -0.85957,-0.82103 -1.13359,-4.75204 -0.97283,-8.87898 0.80374,0.44114 1.59114,0.89189 2.46721,1.32531 5.33878,2.64112 14.84458,-0.39144 14.9297,-1.41223 0.0851,-1.02082 -9.2818,0.34788 -14.6206,-2.29325 -0.89152,-0.44104 -1.70418,-0.78337 -2.52771,-1.14574 z"
             id="path31988-1"
             sodipodi:nodetypes="ccccccccc"
             inkscape:connector-curvature="0" /><path
             style="fill:#ffffff;fill-opacity:1;fill-rule:evenodd;stroke:none;stroke-width:1px;stroke-linecap:butt;stroke-linejoin:miter;stroke-opacity:1"
             d="m 210.14629,699.39744 c -0.66283,-3.94923 0.38733,-5.73143 1.63172,-5.90745 2.90249,-0.41048 21.1849,2.07052 21.74824,5.00285 0.56335,2.93262 -15.89789,14.58242 -19.3378,12.65478 -1.0491,-0.55886 -2.3729,-4.27039 -3.33085,-8.28783 0.89291,0.20809 1.77269,0.42983 2.73317,0.61099 5.85318,1.10379 14.18924,-4.37952 13.99597,-5.38545 -0.19325,-1.00597 -8.84423,2.83766 -14.69743,1.73386 -0.97742,-0.18432 -1.85228,-0.29485 -2.74302,-0.42175 z"
             id="path31990-3"
             sodipodi:nodetypes="ccccccccc"
             inkscape:connector-curvature="0" /><path
             style="fill:#ffffff;fill-opacity:1;fill-rule:evenodd;stroke:none;stroke-width:1px;stroke-linecap:butt;stroke-linejoin:miter;stroke-opacity:1"
             d="m 157.8182,803.68675 c 2.83977,-2.54775 5.60985,-4.47984 6.43714,-3.80083 1.9296,1.58379 2.33153,15.85208 0.26212,17.7881 -2.06959,1.9362 -13.68169,-1.93662 -14.00975,-5.11901 -0.12365,-0.95486 2.15968,-3.78533 4.89245,-6.55358 0.32229,0.66802 0.62633,1.33526 1.00765,2.03076 2.32399,4.2383 4.79354,7.12955 5.50346,6.46539 0.70991,-0.66417 -0.60248,-4.63797 -2.92645,-8.87627 -0.38808,-0.70775 -0.77963,-1.3118 -1.16662,-1.93456 z"
             id="path32750-9"
             inkscape:connector-curvature="0" /><path
             style="fill:#ffffff;fill-opacity:1;fill-rule:evenodd;stroke:none;stroke-width:1px;stroke-linecap:butt;stroke-linejoin:miter;stroke-opacity:1"
             d="m 140.53517,812.67474 c 3.3109,-1.2023 6.34973,-1.90139 6.82399,-1.03449 1.10619,2.02201 -3.47163,14.38019 -5.91176,15.32436 -2.44034,0.94425 -11.0491,-6.37823 -10.23224,-9.21684 0.22349,-0.86041 3.15537,-2.49679 6.4507,-3.92484 0.0456,0.68328 0.0758,1.35959 0.16242,2.08676 0.52823,4.43143 1.64581,7.75944 2.48291,7.43553 0.83709,-0.3239 1.08396,-4.17984 0.55574,-8.61126 -0.0882,-0.74 -0.21516,-1.39238 -0.33176,-2.05922 z"
             id="path32752-8"
             inkscape:connector-curvature="0" /><path
             style="fill:#ffffff;fill-opacity:1;fill-rule:evenodd;stroke:none;stroke-width:1px;stroke-linecap:butt;stroke-linejoin:miter;stroke-opacity:1"
             d="m 121.19743,817.06721 c 3.4462,-0.72887 6.55283,-0.99738 6.90157,-0.0728 0.81343,2.15651 -5.44296,13.7556 -7.9909,14.35028 -2.54818,0.59473 -10.05174,-7.85666 -8.84704,-10.55363 0.34129,-0.82083 3.47272,-2.03239 6.93498,-2.98698 -0.0502,0.68296 -0.11455,1.35687 -0.13015,2.08903 -0.0949,4.46179 0.54771,7.91312 1.4218,7.70911 0.87408,-0.20401 1.65622,-3.98785 1.75111,-8.44963 0.0158,-0.74507 -0.0189,-1.40878 -0.0414,-2.08536 z"
             id="path32754-8"
             inkscape:connector-curvature="0" /></g></g><path
         sodipodi:nodetypes="cc"
         id="path4069-3"
         d="m -194.85489,570.4987 c 0,0 11.89709,-24.52521 4.89647,-35.49567"
         style="display:inline;fill:none;fill-opacity:0.75;fill-rule:evenodd;stroke:#000000;stroke-width:2.27685;stroke-linecap:butt;stroke-linejoin:miter;stroke-miterlimit:4;stroke-opacity:1"
         inkscape:connector-curvature="0" /><path
         sodipodi:nodetypes="cc"
         id="path4069-6"
         d="m -202.35002,579.0901 c 0.83901,-2.04201 1.51148,-37.29464 -8.2437,-46.73927"
         style="display:inline;fill:none;fill-opacity:0.75;fill-rule:evenodd;stroke:#000000;stroke-width:2.27685;stroke-linecap:butt;stroke-linejoin:miter;stroke-miterlimit:4;stroke-opacity:1"
         inkscape:connector-curvature="0" /></g></g></svg>
