<?xml version="1.0" encoding="UTF-8"?>
<svg width="751.11pt" height="500pt" preserveAspectRatio="xMidYMid" version="1.0" viewBox="0 0 751.11 500" xml:space="preserve" xmlns="http://www.w3.org/2000/svg"><g transform="matrix(.22222 0 0 -.22222 0 500)"><rect transform="scale(1 -1)" y="-2250" width="3380" height="2250" fill="#fff" fill-rule="evenodd" stop-color="#000000" stroke-width="0" style="paint-order:markers stroke fill"/><path transform="scale(1,-1)" d="m1140-720h1080v400h-1080z" fill-rule="evenodd" stop-color="#000000" stroke-width="0" style="paint-order:markers stroke fill"/><path d="m1680 1140h110v110h-110z"/><path d="m0 0h840v2250h-840z" fill="#f78c31"/><path d="m2540 0h840v2250h-840z" fill="#f78c31"/><path d="m1140 1685.2v-215h220v110h210v100h220v110h110v-210h110v-220h110v-220h-110v-110h-220v-100h-110v100h-110v110h-100v-110h-110v110h-110v220h-110v-540h1080v1080h-1080z" fill="#f78c31"/><g transform="scale(1,-1)" fill="#fff" fill-rule="evenodd" stop-color="#000000" stroke-width="0" style="paint-order:markers stroke fill" aria-label="PROVINCIA  DI TREVISO "><path d="m1258.7-588.24v45.254h-15.632v-121.07h34.39q19.618 0 30.404 9.4573 10.864 9.4573 10.864 27.043 0 17.82-12.662 28.919-12.662 11.021-31.655 10.395zm0-62.059v48.303h14.46q14.303 0 21.728-6.4091 7.4251-6.4872 7.4251-18.524 0-23.37-27.668-23.37z"/><path d="m1429.4-542.99h-18.446l-20.087-33.609q-6.0183-10.083-11.021-13.678-5.0022-3.6735-11.958-3.6735h-11.255v50.96h-15.632v-121.07h36.891q17.664 0 27.668 8.5194 10.004 8.5194 10.004 23.839 0 25.167-26.887 32.671v0.3908q5.0022 2.1103 8.5975 6.0183 3.6736 3.908 9.4574 13.365zm-72.767-107.39v42.753h18.446q10.708 0 17.351-6.2528 6.7218-6.2528 6.7218-16.414 0-9.4573-6.0965-14.772-6.0964-5.3149-17.742-5.3149z"/><path d="m1436-602.08q0-29.31 15.866-46.661 15.866-17.351 42.988-17.351 25.246 0 40.643 16.961 15.398 16.961 15.398 44.16 0 29.466-15.788 46.739-15.788 17.273-42.206 17.273-25.793 0-41.346-16.961-15.554-16.961-15.554-44.16zm16.414-1.2506q0 21.963 11.177 35.25 11.255 13.209 29.31 13.209 19.384 0 30.404-12.662 11.099-12.74 11.099-35.563 0-23.448-10.864-36.188-10.786-12.74-29.622-12.74-18.524 0-30.013 13.443t-11.49 35.25z"/><path d="m1665.4-664.06-44.473 121.07h-17.351l-43.613-121.07h17.351l32.593 94.651q1.6413 4.6896 2.4229 10.864h0.3908q0.6253-5.393 2.7356-11.021l33.218-94.495z"/><path d="m1698.1-664.06v121.07h-15.632v-121.07z"/><path d="m1828.4-542.99h-18.524l-60.886-94.182q-2.5792-3.9862-4.1424-7.8941h-0.469q0.6253 4.0643 0.6253 16.961v85.116h-15.476v-121.07h19.618l59.245 92.541q4.2206 6.5654 5.0022 8.3631h0.3126q-0.7816-5.1585-0.7816-17.664v-83.24h15.476z"/><path d="m1942.5-547.99q-13.365 7.0344-33.53 7.0344-26.027 0-41.581-16.492-15.554-16.57-15.554-43.769 0-29.232 17.508-47.052 17.508-17.82 44.473-17.82 17.351 0 28.685 4.9241v16.335q-12.974-7.1907-28.528-7.1907-20.243 0-32.983 13.522-12.74 13.443-12.74 36.344 0 21.728 11.88 34.547 11.88 12.74 31.108 12.74 17.977 0 31.264-8.1286z"/><path d="m1982.4-664.06v121.07h-15.632v-121.07z"/><path d="m2108.9-542.99h-17.273l-12.349-33.14h-50.413l-11.646 33.14h-17.273l46.114-121.07h16.726zm-34.468-46.818-18.289-50.335q-0.8597-2.423-1.8758-8.4412h-0.3908q-0.8597 5.4712-1.954 8.4412l-18.133 50.335z"/><path d="m1243.1-375.94v-121.07h34.547q27.512 0 45.723 16.023 18.289 16.023 18.289 42.988 0 28.137-18.289 45.098-18.211 16.961-46.974 16.961zm15.632-107.16v93.323h17.586q23.057 0 35.953-12.584 12.974-12.584 12.974-35.25 0-22.666-13.287-34.078-13.287-11.411-34.937-11.411z"/><path d="m1380.6-497.01v121.07h-15.632v-121.07z"/><path d="m1551.1-483.1h-34.937v107.16h-15.71v-107.16h-34.781v-13.912h85.428z"/><path d="m1658.1-375.94h-18.446l-20.087-33.609q-6.0183-10.083-11.02-13.678-5.0022-3.6735-11.958-3.6735h-11.255v50.96h-15.632v-121.07h36.891q17.664 0 27.668 8.5194 10.004 8.5194 10.004 23.839 0 25.167-26.887 32.671v0.3908q5.0023 2.1103 8.5976 6.0183 3.6735 3.908 9.4573 13.365zm-72.767-107.39v42.753h18.446q10.708 0 17.351-6.2528 6.7217-6.2528 6.7217-16.414 0-9.4573-6.0964-14.772-6.0965-5.3149-17.742-5.3149z"/><path d="m1739.3-375.94h-65.107v-121.07h62.371v13.912h-46.739v38.767h43.3v13.834h-43.3v40.721h49.475z"/><path d="m1853.4-497.01-44.473 121.07h-17.352l-43.613-121.07h17.352l32.593 94.651q1.6413 4.6896 2.4229 10.864h0.3908q0.6253-5.393 2.7356-11.021l33.218-94.495z"/><path d="m1886-497.01v121.07h-15.632v-121.07z"/><path d="m1911.8-398.68q5.5494 4.8459 14.85 7.9723 9.301 3.1264 17.664 3.1264 25.48 0 25.48-18.133 0-5.0804-2.7356-9.1447t-7.5033-7.1907q-4.7678-3.1264-17.899-9.6136-18.211-9.0665-23.995-16.804-5.7838-7.816-5.7838-17.82 0-15.085 12.115-23.917 12.115-8.832 30.56-8.832 18.055 0 26.496 4.3769v17.039q-10.942-7.5815-27.668-7.5815-11.099 0-18.133 4.6896-6.9562 4.6114-6.9562 12.896 0 7.347 4.8459 11.958t21.025 12.584q17.82 8.5194 24.933 17.039 7.1125 8.5194 7.1125 19.149 0 15.945-11.568 24.464t-32.124 8.5194q-7.1907 0-16.804-2.0322-9.5355-1.954-13.912-4.9241z"/><path d="m2002-435.03q0-29.31 15.866-46.661 15.866-17.351 42.988-17.351 25.246 0 40.643 16.961 15.397 16.961 15.397 44.16 0 29.466-15.788 46.739-15.788 17.273-42.206 17.273-25.793 0-41.346-16.961-15.554-16.961-15.554-44.16zm16.414-1.2506q0 21.963 11.177 35.25 11.255 13.209 29.31 13.209 19.384 0 30.404-12.662 11.099-12.74 11.099-35.563 0-23.448-10.864-36.188-10.786-12.74-29.623-12.74-18.524 0-30.013 13.443-11.489 13.443-11.489 35.25z"/></g></g></svg>
