<?xml version="1.0" encoding="UTF-8" standalone="no"?>
<svg
   xmlns:dc="http://purl.org/dc/elements/1.1/"
   xmlns:cc="http://creativecommons.org/ns#"
   xmlns:rdf="http://www.w3.org/1999/02/22-rdf-syntax-ns#"
   xmlns:svg="http://www.w3.org/2000/svg"
   xmlns="http://www.w3.org/2000/svg"
   xmlns:sodipodi="http://sodipodi.sourceforge.net/DTD/sodipodi-0.dtd"
   xmlns:inkscape="http://www.inkscape.org/namespaces/inkscape"
   version="1.1"
   preserveAspectRatio="xMidYMid meet"
   zoomAndPan="magnify"
   id="Government_Ensign_of_the_United_Kingdom"
   viewBox="-15 -7.5 30 15"
   width="1200"
   height="600"
   sodipodi:version="0.32"
   inkscape:version="1.0.1 (3bc2e813f5, 2020-09-07)"
   sodipodi:docname="Flag_of_the_Gilbert_and_Ellice_Islands_(1975–1979).svg"
   inkscape:output_extension="org.inkscape.output.svg.inkscape">
  <metadata
     id="metadata21">
    <rdf:RDF>
      <cc:Work
         rdf:about="">
        <dc:format>image/svg+xml</dc:format>
        <dc:type
           rdf:resource="http://purl.org/dc/dcmitype/StillImage" />
        <dc:title></dc:title>
      </cc:Work>
    </rdf:RDF>
  </metadata>
  <sodipodi:namedview
     inkscape:window-height="837"
     inkscape:window-width="1600"
     inkscape:pageshadow="2"
     inkscape:pageopacity="0.0"
     guidetolerance="10.0"
     gridtolerance="10.0"
     objecttolerance="10.0"
     borderopacity="1.0"
     bordercolor="#666666"
     pagecolor="#ffffff"
     id="base"
     inkscape:zoom="1"
     inkscape:cx="668.16136"
     inkscape:cy="318.81546"
     inkscape:window-x="-8"
     inkscape:window-y="-8"
     inkscape:current-layer="Government_Ensign_of_the_United_Kingdom"
     showgrid="false"
     inkscape:document-rotation="0"
     inkscape:window-maximized="1" />
  <defs
     id="defs3">
    <inkscape:path-effect
       effect="bend_path"
       id="path-effect115"
       is_visible="true"
       lpeversion="1"
       bendpath="m -11.568156,4.1905073 c 1.8453796,1.7707132 3.826288,1.5497351 5.4359653,-7.2e-6"
       prop_scale="1"
       scale_y_rel="false"
       vertical="false"
       hide_knot="false"
       bendpath-nodetypes="cc" />
    <inkscape:perspective
       sodipodi:type="inkscape:persp3d"
       inkscape:vp_x="0 : 300 : 1"
       inkscape:vp_y="0 : 1000 : 0"
       inkscape:vp_z="1200 : 300 : 1"
       inkscape:persp3d-origin="600 : 200 : 1"
       id="perspective45" />
    <clipPath
       id="border">
      <rect
         x="-15"
         y="-7.5"
         width="30"
         height="15"
         id="rect6" />
    </clipPath>
    <marker
       id="TriangleInL"
       style="overflow:visible"
       orient="auto"
       refY="0"
       refX="0">
      <path
         id="path5721"
         style="fill-rule:evenodd;stroke:#000000;stroke-width:1pt;marker-start:none"
         transform="scale(-0.8,-0.8)"
         d="M 5.77,0 L -2.88,5 L -2.88,-5 L 5.77,0 z " />
    </marker>
  </defs>
  <rect
     fill="#012169"
     x="-15"
     y="-7.5"
     width="30"
     height="15"
     id="rect8" />
  <!--The above line is the ensign field color: #C8102E red and #012169 blue-->
  <g
     id="canton"
     transform="matrix(0.5,0,0,0.5,-7.5,-3.75)">
    <g
       clip-path="url(#border)"
       id="g11">
      <path
         d="M -20,-10 L 20,10 M -20,10 L 20,-10"
         id="saltire_white"
         stroke-width="3"
         stroke="white" />
      <path
         d="M -20,-10 L 20,10 M -20,10 L 20,-10"
         id="saltire_red"
         stroke-width="2"
         stroke="#C8102E" />
      <path
         d="M 0,0 l 20,10 h -3 l -20,-10 M 0,0 l 20,-10 h 3 l -20,10 M 0,0 l -20,10 h -3 l 20,-10 M 0,0 l -20,-10 h 3 l 20,10"
         id="eraser_white"
         stroke="none"
         fill="white" />
      <!--I think the above two lines give the simplest way to make the diagonals-->
      <path
         d="M -20,0 H 20 M 0,-10 V 10"
         id="cross_white"
         stroke-width="5"
         stroke="white" />
      <path
         d="M -20,0 H 20 M 0,-10 V 10"
         id="cross_red"
         stroke-width="3"
         stroke="#C8102E" />
    </g>
  </g>
  <circle
     style="fill:#ffffff;fill-rule:evenodd;stroke-width:0.700935"
     id="path149"
     cx="7.5"
     cy="0"
     r="3.75" />
  <g
     id="g2443"
     transform="matrix(0.7,0,0,0.7,1.9929211,0.09291618)">
    <path
       id="path4241"
       style="fill:#c8102e;fill-opacity:1;fill-rule:evenodd;stroke:#000000;stroke-width:0;stroke-linecap:butt;stroke-linejoin:miter;stroke-miterlimit:4;stroke-dasharray:none;stroke-opacity:1"
       d="m 10.411239,0.41948162 c -4.6171381,0 -1.2655634,-0.0247711 -5.1111954,-0.0247711 L 5.2453347,0.14488078 5.2272369,-4.0565857 H 10.49159 l -0.0031,4.24189694 z" />
    <path
       id="path5591"
       style="fill:#fedd00;fill-opacity:1;fill-rule:evenodd;stroke:#000000;stroke-width:0.0248006;stroke-linecap:butt;stroke-linejoin:miter;stroke-miterlimit:4;stroke-dasharray:none;stroke-opacity:1"
       d="m 6.1473546,0.00412489 -0.4992984,-0.25161513 0.7469814,-0.21623111 -0.5189553,-0.50322977 0.8374051,0.0393147 -0.3066551,-0.63689988 0.6290366,0.2752037 -0.00786,-0.6998039 0.5464758,0.4442579 0.1808481,-0.6093799 0.3695594,0.6251055 0.4010111,-0.5307501 0.137602,0.7430503 0.5307492,-0.3813539 -0.086492,0.75484446 0.621174,-0.16119086 -0.3813536,0.67228342 0.7076661,0.0707666 -0.4678458,0.34990195 z" />
    <path
       id="path5587"
       style="fill:#fedd00;fill-opacity:1;fill-rule:evenodd;stroke:#000000;stroke-width:0.0248006;stroke-linecap:butt;stroke-linejoin:miter;stroke-miterlimit:4;stroke-dasharray:none;stroke-opacity:1"
       d="M 6.6200261,0.23312311 5.6081148,0.03296478 6.6200261,-0.05599453 6.6457547,-0.18820685 5.7915933,-0.7009494 l 0.9719562,0.24275834 0.067946,-0.104795 -0.6840652,-0.82183754 0.9062725,0.56711538 0.067619,-0.0500394 -0.376197,-0.99801168 0.6525858,0.8447863 0.072335,-0.027282 -0.041047,-1.1094018 0.3520214,1.0564472 0.080428,-0.00452 0.3515043,-1.0713829 v 1.1000267 l 0.7283536,-0.8581683 -0.3794948,1.0289738 0.071953,0.0523018 0.9469363,-0.5864398 -0.726474,0.79649109 0.076804,0.1068656 1.0611067,-0.18890257 -0.9167388,0.47485812 0.026955,0.10738369 1.0565827,0.16001158 -0.9952322,0.15011887 z" />
    <path
       id="path5585"
       style="fill:#fedd00;fill-opacity:1;stroke:#000000;stroke-width:0.0248006;stroke-miterlimit:4;stroke-dasharray:none;stroke-opacity:1"
       d="m 9.1439121,0.16583054 c 1.263e-4,0.7028551 -0.5696149,1.27269866 -1.27247,1.27269866 -0.7028549,0 -1.2725962,-0.56984356 -1.27247,-1.27269866 -1.262e-4,-0.7028551 0.5696151,-1.27269874 1.27247,-1.27269874 0.7028551,0 1.2725963,0.56984364 1.27247,1.27269874 z" />
    <path
       id="path4239"
       style="fill:#00205b;fill-opacity:1;fill-rule:evenodd;stroke:#000000;stroke-width:0;stroke-linecap:butt;stroke-linejoin:miter;stroke-miterlimit:4;stroke-dasharray:none;stroke-opacity:1"
       d="M 10.406756,0.51913868 C 10.163396,1.0947061 10.147702,1.1803357 9.7855818,1.6396959 9.3649408,2.189127 8.7308116,2.6178932 8.021676,2.6368488 7.3302753,2.6715744 6.6702808,2.3586938 6.1508942,1.922107 5.6155588,1.4351777 5.5080677,1.0920763 5.2949572,0.40188559 Z" />
    <path
       id="path4218"
       style="fill:none;fill-rule:evenodd;stroke:#000000;stroke-width:0.0248006;stroke-linecap:butt;stroke-linejoin:miter;stroke-miterlimit:4;stroke-dasharray:none;stroke-opacity:1"
       d="M 10.4975,0.03063328 C 10.475357,0.32746601 10.186276,1.1173239 9.7948855,1.6217321 9.403495,2.1261403 8.7312956,2.592042 8.0309794,2.6188847 7.3306632,2.6457274 6.6876597,2.3659893 6.1601981,1.9041432 5.6327365,1.4422971 5.2592473,0.35575099 5.2363943,0.00839333 c -0.022853,-0.34735767 0,-4.05715943 0,-4.05715943 h 5.2643527 c 0,0 0.0189,3.78256665 -0.0032,4.07939938 z"
       sodipodi:nodetypes="zzzzzccz" />
    <path
       id="path5597"
       style="fill:#fedd00;fill-opacity:1;fill-rule:evenodd;stroke:#000000;stroke-width:0.0248006;stroke-linecap:butt;stroke-linejoin:miter;stroke-miterlimit:4;stroke-dasharray:none;stroke-opacity:1"
       d="m 10.008224,-3.5916766 c -0.3447171,0.3280372 -1.1620302,0.2752179 -1.1620302,0.2752179 -0.2057182,0.3864164 -0.4753763,0.3641767 -0.4753763,0.3641767 0.1612388,0.00556 0.378077,-0.1862586 0.378077,-0.1862586 l 0.5726755,0.04726 h 0.6588546 c 0.080618,0.119539 -0.2779978,0.1695784 -0.2779978,0.1695784 H 9.4105293 c -0.00834,0.1362189 -0.183479,0.1805597 -0.183479,0.1805597 h -0.444677 c -0.4795122,0.4221298 -1.0231506,0.350416 -1.0231506,0.350416 -0.5087357,-0.01112 -0.8951521,-0.472596 -0.8951521,-0.472596 -0.1254782,-0.1500985 -0.17172,-0.081324 -0.4421757,-0.1370921 -0.3759701,-0.077525 -0.029682,-0.1754673 -0.029682,-0.1754673 0.243894,-0.039032 0.3083354,0.014701 0.3967982,-0.032158 0.1160525,-0.1386019 0.3208761,-0.1303641 0.4740682,-0.066366 0.1937506,0.1065655 0.4453913,0.1582731 0.6460942,0.03987 0.2633741,-0.2081159 0.6362601,-0.5672905 0.8035816,-0.6101182 0.2214894,-0.056693 0.898725,-0.040724 1.6846659,0 0,0 -0.01063,0.2722093 -0.389197,0.2529775 z" />
    <path
       id="path5606"
       style="fill:none;fill-rule:evenodd;stroke:#000000;stroke-width:0.0248006;stroke-linecap:round;stroke-linejoin:miter;stroke-miterlimit:4;stroke-dasharray:none;stroke-opacity:1"
       d="m 8.0475621,-3.1792969 c 0,0 0.5260461,-0.4049742 0.7902275,-0.495367 0.3355711,-0.1148197 0.8850419,-0.070967 1.2580744,-0.062904" />
    <path
       id="path5608"
       style="fill:none;fill-rule:evenodd;stroke:#000000;stroke-width:0.0248006;stroke-linecap:butt;stroke-linejoin:miter;stroke-miterlimit:4;stroke-dasharray:none;stroke-opacity:1"
       d="m 8.810054,-2.7465636 c 0,0 -0.044479,-0.2112782 0.586575,-0.1389988" />
    <path
       id="path5610"
       style="fill:none;fill-rule:evenodd;stroke:#000000;stroke-width:0.0431007px;stroke-linecap:butt;stroke-linejoin:miter;stroke-opacity:1;marker-mid:url(#TriangleInL);marker-end:none"
       d="m 6.5971926,-3.7028754 c 0,0 1.0258115,0.044479 1.1008708,0.5254155" />
    <path
       id="path5612"
       style="fill:#fedd00;fill-opacity:1;fill-rule:evenodd;stroke:#000000;stroke-width:0.0248006;stroke-linecap:butt;stroke-linejoin:miter;stroke-miterlimit:4;stroke-dasharray:none;stroke-opacity:1"
       d="m 6.3386547,-3.516617 c -0.2757762,-0.035832 -0.566771,-0.07642 -0.8080581,-0.2271623 -0.043311,-0.027236 -0.1120329,-0.086787 -0.038271,-0.091737 0.685611,0.019593 1.0829898,0.013342 1.6231804,0.050054 0.2833587,0.020786 0.5870851,0.1167501 0.7617139,0.3547264 0.038599,0.063899 0.1241023,0.1538213 0.00647,0.2055313 -0.063894,0.030009 -0.1807764,0.089933 -0.2135378,-0.012095 -0.064921,-0.151844 -0.174076,-0.2345707 -0.319978,-0.2134661 -0.1610683,0.016297 -0.3146729,0.011395 -0.4860003,2.579e-4 -0.2015082,-0.016497 -0.1744297,-0.018868 -0.525522,-0.066109 z" />
    <path
       id="path5827"
       style="fill:none;fill-rule:evenodd;stroke:#000000;stroke-width:0.0173604;stroke-linecap:round;stroke-linejoin:miter;stroke-miterlimit:4;stroke-dasharray:none;stroke-opacity:1"
       d="m 6.2390807,-3.0888729 c 0,0 0.5071614,0 0.5268189,-0.00786" />
    <path
       id="path5829"
       style="fill:#000000;fill-opacity:1;stroke:#000000;stroke-width:0.0431007;stroke-miterlimit:4;stroke-dasharray:none;stroke-opacity:1"
       d="m 7.0671088,-3.1336958 c -0.01098,0.00977 -0.036105,0.015065 -0.060884,0.012842 -0.024779,-0.00222 -0.04282,-0.011394 -0.043717,-0.022225 -8.978e-4,-0.010831 0.01558,-0.020527 0.039928,-0.023495 0.024349,-0.00297 0.050288,0.00156 0.062857,0.010963 l -0.047779,0.011697 z" />
    <path
       id="path5846"
       style="fill:#ffffff;fill-rule:evenodd;stroke:#000000;stroke-width:0.0248006;stroke-linecap:butt;stroke-linejoin:miter;stroke-miterlimit:4;stroke-dasharray:none;stroke-opacity:1"
       d="M 10.356198,0.6567816 C 10.051754,0.50397856 9.7087849,0.62452269 9.4040293,0.7101049 9.1331547,0.76349046 8.8876433,0.59926599 8.6270674,0.56948021 8.3351629,0.56925229 8.0667253,0.80086499 7.7710139,0.69830006 7.5227729,0.67293498 7.2814798,0.50668207 7.0282504,0.60397141 6.7517397,0.67717068 6.4418257,0.76494477 6.1707029,0.62616673 5.9137269,0.54308417 5.6376648,0.58930011 5.3828189,0.65678085 5.3329228,0.56613808 5.313986,0.40570364 5.2815366,0.32113553 5.2677777,0.28527682 5.3795784,0.28406382 5.4533362,0.29124781 5.756236,0.23742552 6.086233,0.21330915 6.370449,0.35408339 c 0.2297289,0.0597531 0.4585034,-0.0260267 0.675478,-0.0926437 0.194166,-0.0467221 0.404876,-0.0272836 0.5807612,0.0689229 0.1983437,0.0460267 0.4188132,0.0761716 0.6072575,-0.0210411 0.259192,-0.0785217 0.5573405,-0.11443252 0.8044764,0.0201458 0.2374914,0.0765054 0.4814164,0.007799 0.7180108,-0.0295618 0.2222041,-0.0251622 0.4734221,-0.0274583 0.6915041,0.0288379 0,0 -0.03614,0.19320869 -0.09174,0.32803823 z" />
    <path
       id="path5873"
       style="fill:#ffffff;fill-rule:evenodd;stroke:#000000;stroke-width:0.0248006;stroke-linecap:butt;stroke-linejoin:miter;stroke-miterlimit:4;stroke-dasharray:none;stroke-opacity:1"
       d="M 9.9788393,1.3614819 C 9.7690856,1.3616706 9.5543327,1.4322614 9.3557978,1.4880144 9.0849235,1.5414002 8.839412,1.3771752 8.5788362,1.3473897 8.2869315,1.3471618 8.0184941,1.5787745 7.7227824,1.4762095 7.4745417,1.4508442 7.2332483,1.2845916 6.9800189,1.3818811 6.7035084,1.4550802 6.393594,1.5428542 6.1224714,1.4040762 5.9863458,1.3600655 5.8448647,1.3523369 5.7040186,1.3648315 c -0.1709817,-0.3020011 0.00492,0.00139 -0.1761774,-0.3153411 0.2675614,-0.037656 0.5481494,-0.039456 0.7943766,0.082502 0.2297286,0.059753 0.4585034,-0.026027 0.6754775,-0.092643 0.194166,-0.0467219 0.4048762,-0.027283 0.5807617,0.068923 0.1983437,0.046027 0.4188129,0.076172 0.6072574,-0.021041 0.259192,-0.078522 0.5573405,-0.11443278 0.8044762,0.020146 0.2374917,0.076505 0.4814166,0.0078 0.7180108,-0.029562 0.1514968,-0.017155 0.3061416,-0.024974 0.4583366,-0.010371 -0.1851427,0.2955095 -0.0018,0.00264 -0.1876987,0.2940375 z" />
    <path
       id="path5875"
       style="fill:#ffffff;fill-rule:evenodd;stroke:#000000;stroke-width:0.0248006;stroke-linecap:butt;stroke-linejoin:miter;stroke-miterlimit:4;stroke-dasharray:none;stroke-opacity:1"
       d="M 9.1277524,2.2433511 C 8.9426729,2.2130098 8.7645819,2.1234657 8.5788362,2.1022339 8.2869315,2.1020059 8.0184941,2.3336186 7.7227824,2.2310537 7.4745417,2.2056886 7.2332483,2.039436 6.9800189,2.1367251 6.8606831,2.1683163 6.720729,2.2090208 6.594753,2.226658 6.5769846,2.2233201 6.2084125,1.9937026 6.0579615,1.801354 6.1488245,1.817599 6.2375525,1.844902 6.3222178,1.886837 6.5519464,1.94659 6.7807212,1.86081 6.9976953,1.794193 7.1918613,1.747471 7.4025715,1.766909 7.578457,1.863116 7.7768007,1.909143 7.9972699,1.939288 8.1857144,1.842075 8.4449064,1.763553 8.7430549,1.7276424 8.9901906,1.862221 9.1943564,1.927991 9.3728078,1.890374 9.5777385,1.853681 9.5005575,1.938699 9.4355382,2.0584887 9.1277524,2.24335 Z" />
    <path
       id="path2186"
       style="fill:none;fill-opacity:1;fill-rule:evenodd;stroke:#000000;stroke-width:0.0198405;stroke-linecap:round;stroke-linejoin:round;stroke-miterlimit:7.8;stroke-dasharray:none;stroke-opacity:1"
       d="M 7.5603674,-3.391238 C 7.4303941,-3.5111447 7.2384267,-3.6765104 6.6037889,-3.7335588" />
  </g>
  <g
     id="g147"
     transform="translate(16.250003,-1.2322663)">
    <path
       d="m -8.7500033,4.3697663 c 1.262552,0 2.365649,-0.9831958 2.365649,-1.3338982 0,-0.1430294 -0.247043,-0.225495 -0.296644,-0.5129321 -0.01284,-0.074407 -0.0789,-0.2162679 -0.125171,-0.2340913 -0.0391,-0.015061 -0.151467,-0.073352 -0.389456,0.090964 -0.429382,0.296462 -0.07537,0.4341475 0.163892,0.6740532 -0.459319,0.5249241 -1.066774,0.7239898 -1.71827,0.7239898 -0.651495,0 -1.2589497,-0.1990657 -1.7182687,-0.7239898 0.239259,-0.2399057 0.5932737,-0.3775912 0.163892,-0.6740532 -0.237989,-0.1643161 -0.350357,-0.1060247 -0.389456,-0.090964 -0.04627,0.017823 -0.112332,0.1596847 -0.125171,0.2340913 -0.0496,0.2874371 -0.296644,0.3699027 -0.296644,0.5129321 0,0.3507024 1.103097,1.3338982 2.3656477,1.3338982 z"
       id="path4660"
       style="display:inline;overflow:visible;visibility:visible;opacity:1;fill:#ffffff;fill-opacity:1;fill-rule:evenodd;stroke:#000000;stroke-width:0.0248006;stroke-linecap:butt;stroke-linejoin:bevel;stroke-miterlimit:4;stroke-dasharray:none;stroke-dashoffset:0;stroke-opacity:1;marker:none;marker-start:none;marker-mid:none;marker-end:none;enable-background:accumulate" />
    <path
       d="m -10.645866,2.8020572 0.163283,-0.2122677 c 0.196202,0.3190159 0.444394,0.1424604 0.304795,-0.032656 -0.330697,-0.4148334 -0.718777,-0.291997 -0.468078,0.2449237 z"
       id="path4664"
       style="display:inline;overflow:visible;visibility:visible;opacity:1;fill:#ffffff;fill-opacity:1;fill-rule:evenodd;stroke:#000000;stroke-width:0.0248006;stroke-linecap:butt;stroke-linejoin:bevel;stroke-miterlimit:4;stroke-dasharray:none;stroke-dashoffset:0;stroke-opacity:1;marker:none;marker-start:none;marker-mid:none;marker-end:none;enable-background:accumulate" />
    <path
       d="m -6.8541393,2.8020572 -0.163283,-0.2122677 c -0.196202,0.3190159 -0.444394,0.1424604 -0.304794,-0.032656 0.330696,-0.4148334 0.718776,-0.291997 0.468077,0.2449237 z"
       id="path4672"
       style="display:inline;overflow:visible;visibility:visible;opacity:1;fill:#ffffff;fill-opacity:1;fill-rule:evenodd;stroke:#000000;stroke-width:0.0248006;stroke-linecap:butt;stroke-linejoin:bevel;stroke-miterlimit:4;stroke-dasharray:none;stroke-dashoffset:0;stroke-opacity:1;marker:none;marker-start:none;marker-mid:none;marker-end:none;enable-background:accumulate" />
    <path
       d="m -10.468272,3.0538619 c -0.06488,-0.072751 -0.136503,-0.1407098 -0.177594,-0.2518045"
       id="path4662"
       style="display:inline;overflow:visible;visibility:visible;opacity:1;fill:none;fill-opacity:1;fill-rule:evenodd;stroke:#000000;stroke-width:0.0248006;stroke-linecap:butt;stroke-linejoin:bevel;stroke-miterlimit:4;stroke-dasharray:none;stroke-dashoffset:0;stroke-opacity:1;marker:none;marker-start:none;marker-mid:none;marker-end:none;enable-background:accumulate" />
    <path
       d="m -7.0317339,3.0538619 c 0.06488,-0.072751 0.136503,-0.1407098 0.177594,-0.2518045"
       id="path4670"
       style="display:inline;overflow:visible;visibility:visible;opacity:1;fill:none;fill-opacity:1;fill-rule:evenodd;stroke:#000000;stroke-width:0.0248006;stroke-linecap:butt;stroke-linejoin:bevel;stroke-miterlimit:4;stroke-dasharray:none;stroke-dashoffset:0;stroke-opacity:1;marker:none;marker-start:none;marker-mid:none;marker-end:none;enable-background:accumulate" />
    <g
       aria-label="TE MAORI TE RAOI AO TE TABOMOA"
       id="text64"
       style="font-style:normal;font-variant:normal;font-weight:normal;font-stretch:condensed;font-size:0.366667px;line-height:1.25;font-family:'TeX Gyre Heros Cn';-inkscape-font-specification:'TeX Gyre Heros Cn, Condensed';font-variant-ligatures:normal;font-variant-caps:normal;font-variant-numeric:normal;font-variant-east-asian:normal;text-align:center;letter-spacing:0px;word-spacing:0px;text-anchor:middle;stroke-width:0.025"
       inkscape:path-effect="#path-effect115"
       transform="matrix(0.75,0,0,0.75,-2.0952606,0.01059993)">
      <path
         d="m -11.435615,4.1781903 0.02177,-0.023418 c -0.0493,-0.045531 -0.09768,-0.091841 -0.145091,-0.1388192 l -0.02248,0.022475 c 0.01989,0.019749 0.03994,0.03938 0.06017,0.058885 l -0.160963,0.1659041 c 0.0084,0.00818 0.01677,0.016346 0.0252,0.024486 l 0.16011,-0.1670467 c 0.02026,0.019309 0.04069,0.038489 0.06128,0.057534 z"
         style="font-style:normal;font-variant:normal;font-weight:normal;font-stretch:condensed;font-size:0.366667px;font-family:'TeX Gyre Heros Cn';-inkscape-font-specification:'TeX Gyre Heros Cn, Condensed';font-variant-ligatures:normal;font-variant-caps:normal;font-variant-numeric:normal;font-variant-east-asian:normal;stroke-width:0.025"
         id="path66"
         inkscape:original-d="m -11.192176,4.0436334 v -0.0319 h -0.175633 v 0.0319 h 0.07333 v 0.2313667 h 0.02933 V 4.0436334 Z" />
      <path
         d="m -11.423855,4.5002819 0.0209,-0.024382 c -0.0394,-0.033866 -0.07826,-0.068254 -0.116559,-0.1031187 l 0.05884,-0.064907 c 0.03425,0.031063 0.06893,0.061743 0.104042,0.092006 l 0.02096,-0.024322 c -0.03492,-0.030069 -0.06942,-0.06055 -0.103489,-0.091411 l 0.05414,-0.059725 c 0.03645,0.032905 0.07339,0.065376 0.110796,0.097368 l 0.02091,-0.024371 c -0.04574,-0.039088 -0.0908,-0.078892 -0.135128,-0.119334 l -0.17859,0.19456 c 0.04688,0.043281 0.09462,0.085854 0.143181,0.1276354 z"
         style="font-style:normal;font-variant:normal;font-weight:normal;font-stretch:condensed;font-size:0.366667px;font-family:'TeX Gyre Heros Cn';-inkscape-font-specification:'TeX Gyre Heros Cn, Condensed';font-variant-ligatures:normal;font-variant-caps:normal;font-variant-numeric:normal;font-variant-east-asian:normal;stroke-width:0.025"
         id="path68"
         inkscape:original-d="m -11.002976,4.2750001 v -0.0319 h -0.1298 v -0.087267 h 0.1177 v -0.0319 h -0.1177 v -0.0803 h 0.1276 v -0.0319 h -0.156933 v 0.2632667 z" />
      <path
         d="m -11.113569,4.7476883 0.157632,-0.2139243 c -0.0128,-0.00943 -0.02556,-0.018924 -0.03827,-0.028477 -0.06412,0.045945 -0.128993,0.091107 -0.194571,0.1354726 0.02641,-0.074711 0.05375,-0.1488911 0.08199,-0.2225156 -0.01256,-0.00999 -0.02507,-0.02003 -0.03754,-0.030129 l -0.167333,0.206066 c 0.0088,0.00719 0.01769,0.014353 0.02658,0.021489 l 0.108714,-0.135613 0.03192,-0.039818 c -0.02849,0.073194 -0.05611,0.1469377 -0.08282,0.2212052 0.0091,0.00711 0.01824,0.014187 0.0274,0.021236 0.06552,-0.044361 0.13032,-0.089518 0.19437,-0.1354555 l -0.04096,0.054858 -0.09389,0.1257299 c 0.0089,0.00665 0.01784,0.013279 0.02679,0.019876 z"
         style="font-style:normal;font-variant:normal;font-weight:normal;font-stretch:condensed;font-size:0.366667px;font-family:'TeX Gyre Heros Cn';-inkscape-font-specification:'TeX Gyre Heros Cn, Condensed';font-variant-ligatures:normal;font-variant-caps:normal;font-variant-numeric:normal;font-variant-east-asian:normal;stroke-width:0.025"
         id="path70"
         inkscape:original-d="M -10.675177,4.2750001 V 4.0117334 h -0.04143 l -0.0616,0.2236667 -0.06197,-0.2236667 h -0.0418 v 0.2632667 h 0.02823 v -0.1723333 -0.0506 l 0.06087,0.2229333 h 0.0286 l 0.0616,-0.2233 v 0.067833 0.1554667 z" />
      <path
         d="m -10.896392,4.899056 c 0.02231,-0.091241 0.04624,-0.1818581 0.07171,-0.2718017 -0.01054,-0.00725 -0.02105,-0.014539 -0.03153,-0.021873 -0.07618,0.054782 -0.153622,0.1083591 -0.232238,0.1607014 0.0098,0.00715 0.01969,0.014273 0.02958,0.021357 0.02249,-0.015598 0.04489,-0.031296 0.06719,-0.047093 0.02813,0.019931 0.05646,0.039569 0.08499,0.058904 -0.0074,0.02608 -0.01477,0.052213 -0.02197,0.078398 0.01073,0.00718 0.02148,0.014314 0.03226,0.021407 z m -0.0027,-0.133534 c -0.02194,-0.014956 -0.04377,-0.030094 -0.06547,-0.045407 0.03388,-0.024099 0.06752,-0.048429 0.100927,-0.072986 -0.0121,0.039338 -0.02392,0.078804 -0.03546,0.1183928 z"
         style="font-style:normal;font-variant:normal;font-weight:normal;font-stretch:condensed;font-size:0.366667px;font-family:'TeX Gyre Heros Cn';-inkscape-font-specification:'TeX Gyre Heros Cn, Condensed';font-variant-ligatures:normal;font-variant-caps:normal;font-variant-numeric:normal;font-variant-east-asian:normal;stroke-width:0.025"
         id="path72"
         inkscape:original-d="m -10.457011,4.2750001 -0.0781,-0.2632667 h -0.03337 l -0.08103,0.2632667 h 0.03007 l 0.02273,-0.076633 h 0.08653 l 0.02127,0.076633 z m -0.0638,-0.1085333 h -0.0671 l 0.03483,-0.1166 z" />
      <path
         d="m -10.606031,4.9236103 c 0.04179,-0.071667 0.02766,-0.1454585 -0.03113,-0.1820012 -0.06674,-0.041488 -0.1369,-0.014176 -0.179867,0.051226 -0.04107,0.062522 -0.04016,0.1409752 0.03134,0.1851607 0.07153,0.044203 0.142106,0.010008 0.179655,-0.054385 z m -0.03035,-0.018283 c -0.03291,0.055436 -0.08574,0.074206 -0.132387,0.045358 -0.04664,-0.028842 -0.05341,-0.084507 -0.01853,-0.1384731 0.03576,-0.05532 0.0876,-0.07163 0.132848,-0.043519 0.04307,0.026755 0.05064,0.081758 0.01807,0.1366345 z"
         style="font-style:normal;font-variant:normal;font-weight:normal;font-stretch:condensed;font-size:0.366667px;font-family:'TeX Gyre Heros Cn';-inkscape-font-specification:'TeX Gyre Heros Cn, Condensed';font-variant-ligatures:normal;font-variant-caps:normal;font-variant-numeric:normal;font-variant-east-asian:normal;stroke-width:0.025"
         id="path74"
         inkscape:original-d="m -10.239945,4.1437334 c 0,-0.0825 -0.04327,-0.1389666 -0.103767,-0.1389666 -0.0693,0 -0.1067,0.0616 -0.1067,0.1389666 0,0.074433 0.03667,0.1382334 0.105234,0.1382334 0.06857,0 0.105233,-0.0638 0.105233,-0.1382334 z m -0.03007,-3.666e-4 c 0,0.064167 -0.03007,0.1067 -0.07517,0.1067 -0.0451,0 -0.07517,-0.042533 -0.07517,-0.1063334 0,-0.065267 0.0297,-0.1070666 0.07627,-0.1070666 0.044,0 0.07407,0.043267 0.07407,0.1067 z" />
      <path
         d="m -10.441071,5.1631793 0.0027,-0.00524 c -0.0067,-0.010349 -0.0068,-0.014973 1.79e-4,-0.029558 0.0067,-0.014448 0.01342,-0.028893 0.02014,-0.043335 0.01183,-0.027822 0.01087,-0.040182 -0.0046,-0.058171 0.0311,-0.00286 0.04643,-0.013318 0.05993,-0.039779 0.02107,-0.041304 0.0069,-0.076325 -0.03891,-0.1009323 -0.03348,-0.017999 -0.06676,-0.036474 -0.09983,-0.055405 l -0.130986,0.2298783 c 0.0103,0.00585 0.02063,0.011654 0.03098,0.017419 l 0.05539,-0.098992 c 0.02433,0.013603 0.04877,0.026969 0.07332,0.04009 0.02741,0.014648 0.03407,0.032894 0.01842,0.062915 -0.01294,0.024813 -0.0233,0.050389 -0.02543,0.061338 0.01288,0.00666 0.02578,0.013249 0.03872,0.019775 z m 0.0461,-0.1894281 c -0.0144,0.027653 -0.03565,0.033361 -0.06678,0.016669 -0.02323,-0.012455 -0.04635,-0.02513 -0.06938,-0.038019 l 0.04388,-0.078425 c 0.02425,0.01362 0.04862,0.026996 0.07309,0.040119 0.02625,0.014078 0.03279,0.033545 0.01919,0.059656 0,3e-7 0,6e-7 -1e-6,9e-7 z"
         style="font-style:normal;font-variant:normal;font-weight:normal;font-stretch:condensed;font-size:0.366667px;font-family:'TeX Gyre Heros Cn';-inkscape-font-specification:'TeX Gyre Heros Cn, Condensed';font-variant-ligatures:normal;font-variant-caps:normal;font-variant-numeric:normal;font-variant-east-asian:normal;stroke-width:0.025"
         id="path76"
         inkscape:original-d="m -10.022512,4.2750001 v -0.00587 c -0.0088,-0.00623 -0.01063,-0.010267 -0.011,-0.0264 l -0.0015,-0.047667 c -0.0018,-0.030067 -0.0073,-0.0407 -0.02603,-0.0495 0.02237,-0.016867 0.03007,-0.033 0.03007,-0.0627 0,-0.0462 -0.02493,-0.071133 -0.07077,-0.071133 h -0.1001 v 0.2632667 h 0.02933 v -0.11293 h 0.07077 c 0.0264,0 0.0385,0.0132 0.0385,0.046933 0,0.027867 0.0022,0.055367 0.0048,0.066 z m -0.0385,-0.1892 c 0,0.031167 -0.01393,0.045833 -0.044,0.045833 h -0.06747 v -0.089467 h 0.0726 c 0.02603,0 0.03887,0.0143 0.03887,0.043633 z" />
      <path
         d="m -10.367479,5.1994244 0.114614,-0.2370849 c -0.0098,-0.00479 -0.01968,-0.00962 -0.0295,-0.014498 l -0.11662,0.2362802 c 0.01048,0.00514 0.02098,0.010245 0.0315,0.015302 z"
         style="font-style:normal;font-variant:normal;font-weight:normal;font-stretch:condensed;font-size:0.366667px;font-family:'TeX Gyre Heros Cn';-inkscape-font-specification:'TeX Gyre Heros Cn, Condensed';font-variant-ligatures:normal;font-variant-caps:normal;font-variant-numeric:normal;font-variant-east-asian:normal;stroke-width:0.025"
         id="path78"
         inkscape:original-d="M -9.9546791,4.2750001 V 4.0117334 h -0.028967 v 0.2632667 z" />
      <path
         d="m -9.9636083,5.1227401 0.011296,-0.029634 c -0.061426,-0.02358 -0.1223745,-0.048904 -0.1827955,-0.075861 l -0.0129,0.029101 c 0.02544,0.011333 0.05098,0.02238 0.07661,0.033133 l -0.08878,0.2127229 c 0.01089,0.00452 0.02181,0.00899 0.03274,0.013407 l 0.08684,-0.2133684 c 0.02557,0.010464 0.051238,0.020633 0.076986,0.0305 z"
         style="font-style:normal;font-variant:normal;font-weight:normal;font-stretch:condensed;font-size:0.366667px;font-family:'TeX Gyre Heros Cn';-inkscape-font-specification:'TeX Gyre Heros Cn, Condensed';font-variant-ligatures:normal;font-variant-caps:normal;font-variant-numeric:normal;font-variant-east-asian:normal;stroke-width:0.025"
         id="path80"
         inkscape:original-d="m -9.66428,4.0436334 v -0.0319 h -0.1756333 v 0.0319 h 0.073333 v 0.2313667 h 0.029333 V 4.0436334 Z" />
      <path
         d="m -9.8302418,5.4119679 0.00946,-0.030155 c -0.049263,-0.015374 -0.098227,-0.031796 -0.1468718,-0.049223 l 0.029356,-0.081532 c 0.043079,0.015501 0.086399,0.030185 0.1299452,0.044021 l 0.00958,-0.030124 c -0.043154,-0.013732 -0.086089,-0.02831 -0.1287909,-0.043701 l 0.027012,-0.075023 c 0.045265,0.016384 0.090781,0.031824 0.1365296,0.046277 l 0.00948,-0.03015 c -0.05574,-0.017639 -0.1111431,-0.036764 -0.1661727,-0.057297 L -10.0116,5.350342 c 0.059965,0.02207 0.1204302,0.042639 0.1813582,0.061626 z"
         style="font-style:normal;font-variant:normal;font-weight:normal;font-stretch:condensed;font-size:0.366667px;font-family:'TeX Gyre Heros Cn';-inkscape-font-specification:'TeX Gyre Heros Cn, Condensed';font-variant-ligatures:normal;font-variant-caps:normal;font-variant-numeric:normal;font-variant-east-asian:normal;stroke-width:0.025"
         id="path82"
         inkscape:original-d="m -9.4750803,4.2750001 v -0.0319 h -0.1298 v -0.087267 h 0.1177 v -0.0319 h -0.1177 v -0.0803 h 0.1276 v -0.0319 h -0.1569333 v 0.2632667 z" />
      <path
         d="m -9.4754324,5.5030386 0.00115,-0.00568 c -0.00914,-0.00812 -0.010467,-0.012495 -0.00768,-0.028174 0.0026,-0.015487 0.0052,-0.030972 0.00781,-0.046456 0.00391,-0.029557 -2.541e-4,-0.041031 -0.019586,-0.054111 0.028816,-0.010803 0.040619,-0.024807 0.046503,-0.053481 0.0092,-0.044819 -0.013352,-0.074175 -0.062675,-0.085633 -0.036129,-0.00839 -0.072143,-0.017437 -0.1080314,-0.027113 l -0.067422,0.2514699 c 0.011361,0.00303 0.022737,0.006 0.034127,0.00892 l 0.02783,-0.1081185 c 0.026597,0.00684 0.053269,0.013358 0.080011,0.019543 0.029838,0.0069 0.040954,0.022486 0.033871,0.055101 -0.00585,0.026956 -0.00904,0.053938 -0.00823,0.064916 0.014086,0.00303 0.028193,0.00597 0.04232,0.00882 z m -0.00582,-0.192117 c -0.00649,0.030012 -0.025192,0.041015 -0.059069,0.033132 -0.025258,-0.00588 -0.050453,-0.012055 -0.075584,-0.018527 l 0.022048,-0.085655 c 0.026325,0.0068 0.052718,0.013269 0.079174,0.019391 0.028364,0.00656 0.039568,0.023293 0.033431,0.051658 0,3e-7 -10e-8,6e-7 -2e-7,9e-7 z"
         style="font-style:normal;font-variant:normal;font-weight:normal;font-stretch:condensed;font-size:0.366667px;font-family:'TeX Gyre Heros Cn';-inkscape-font-specification:'TeX Gyre Heros Cn, Condensed';font-variant-ligatures:normal;font-variant-caps:normal;font-variant-numeric:normal;font-variant-east-asian:normal;stroke-width:0.025"
         id="path84"
         inkscape:original-d="m -9.1703811,4.2750001 v -0.00587 c -0.0088,-0.00623 -0.010633,-0.010267 -0.011,-0.0264 l -0.00147,-0.047667 c -0.00183,-0.030067 -0.00733,-0.0407 -0.026033,-0.0495 0.022367,-0.016867 0.030067,-0.033 0.030067,-0.0627 0,-0.0462 -0.024933,-0.071133 -0.070767,-0.071133 h -0.1001 v 0.2632667 h 0.029333 v -0.11293 h 0.070767 c 0.0264,0 0.0385,0.0132 0.0385,0.046933 0,0.027867 0.0022,0.055367 0.00477,0.066 z m -0.0385,-0.1892 c 0,0.031167 -0.013933,0.045833 -0.044,0.045833 h -0.067467 v -0.089467 h 0.0726 c 0.026033,0 0.038867,0.0143 0.038867,0.043633 z" />
      <path
         d="m -9.2283157,5.543408 c -0.020535,-0.089976 -0.038461,-0.1800058 -0.053858,-0.27004 -0.012191,-0.00186 -0.024371,-0.0038 -0.03654,-0.00581 -0.043741,0.080606 -0.089954,0.1603155 -0.1385454,0.2390993 0.011835,0.00232 0.023683,0.00458 0.035545,0.00677 0.01356,-0.023144 0.026923,-0.046362 0.040088,-0.069653 0.033416,0.0059 0.066932,0.011284 0.1005423,0.016131 0.00467,0.02617 0.00954,0.05234 0.014611,0.078509 0.012705,0.00174 0.025424,0.0034 0.038157,0.00499 z m -0.060543,-0.1164847 c -0.025786,-0.00382 -0.051518,-0.00795 -0.077192,-0.012403 0.01988,-0.035509 0.039296,-0.071189 0.058238,-0.1070364 0.00586,0.039809 0.012171,0.079623 0.018954,0.1194396 z"
         style="font-style:normal;font-variant:normal;font-weight:normal;font-stretch:condensed;font-size:0.366667px;font-family:'TeX Gyre Heros Cn';-inkscape-font-specification:'TeX Gyre Heros Cn, Condensed';font-variant-ligatures:normal;font-variant-caps:normal;font-variant-numeric:normal;font-variant-east-asian:normal;stroke-width:0.025"
         id="path86"
         inkscape:original-d="m -8.9624815,4.2750001 -0.0781,-0.2632667 h -0.033367 l -0.081033,0.2632667 h 0.030067 l 0.022733,-0.076633 h 0.086533 l 0.021267,0.076633 z m -0.0638,-0.1085333 h -0.0671 l 0.034833,-0.1166 z" />
      <path
         d="m -8.9614962,5.4350878 c 0.0032,-0.082009 -0.043756,-0.1392744 -0.1093513,-0.144334 -0.075371,-0.00581 -0.1247455,0.048618 -0.13397,0.1248161 -0.00879,0.072601 0.026381,0.1417126 0.1103545,0.1486688 0.084086,0.00697 0.1300947,-0.055609 0.1329668,-0.1291509 z m -0.034903,-0.00193 c -0.00324,0.063578 -0.041564,0.1040404 -0.095533,0.099599 -0.054573,-0.00449 -0.085149,-0.050606 -0.078295,-0.113194 0.00703,-0.064158 0.044509,-0.1013944 0.096456,-0.097347 0.048461,0.00378 0.080578,0.047991 0.077371,0.1109416 z"
         style="font-style:normal;font-variant:normal;font-weight:normal;font-stretch:condensed;font-size:0.366667px;font-family:'TeX Gyre Heros Cn';-inkscape-font-specification:'TeX Gyre Heros Cn, Condensed';font-variant-ligatures:normal;font-variant-caps:normal;font-variant-numeric:normal;font-variant-east-asian:normal;stroke-width:0.025"
         id="path88"
         inkscape:original-d="m -8.7454157,4.1437334 c 0,-0.0825 -0.043267,-0.1389666 -0.1037667,-0.1389666 -0.0693,0 -0.1067,0.0616 -0.1067,0.1389666 0,0.074433 0.036667,0.1382334 0.1052334,0.1382334 0.068567,0 0.1052333,-0.0638 0.1052333,-0.1382334 z m -0.030067,-3.666e-4 c 0,0.064167 -0.030067,0.1067 -0.075167,0.1067 -0.0451,0 -0.075167,-0.042533 -0.075167,-0.1063334 0,-0.065267 0.0297,-0.1070666 0.076267,-0.1070666 0.044,0 0.074067,0.043267 0.074067,0.1067 z" />
      <path
         d="m -8.8836548,5.5677648 0.00311,-0.262036 c -0.01075,-7.83e-5 -0.021494,-2.209e-4 -0.032233,-4.275e-4 l -0.00614,0.2616986 c 0.011744,3.208e-4 0.023498,5.759e-4 0.035261,7.649e-4 z"
         style="font-style:normal;font-variant:normal;font-weight:normal;font-stretch:condensed;font-size:0.366667px;font-family:'TeX Gyre Heros Cn';-inkscape-font-specification:'TeX Gyre Heros Cn, Condensed';font-variant-ligatures:normal;font-variant-caps:normal;font-variant-numeric:normal;font-variant-east-asian:normal;stroke-width:0.025"
         id="path90"
         inkscape:original-d="M -8.6772163,4.2750001 V 4.0117334 h -0.028967 v 0.2632667 z" />
      <path
         d="m -8.5098018,5.5490584 c -0.040881,-0.083134 -0.079295,-0.1671558 -0.1151535,-0.2520398 -0.012368,9.372e-4 -0.024747,0.00179 -0.037135,0.00257 -0.024299,0.089129 -0.051395,0.1781909 -0.081374,0.2671367 0.012245,-4.773e-4 0.024477,-0.00102 0.036698,-0.00164 0.00806,-0.02594 0.015885,-0.051887 0.02348,-0.077839 0.034261,-0.00195 0.06843,-0.00447 0.1025018,-0.00755 0.010627,0.024552 0.021454,0.049036 0.032479,0.073454 0.01285,-0.00129 0.025684,-0.00265 0.038504,-0.00408 z m -0.086233,-0.099886 c -0.026168,0.00224 -0.052391,0.00414 -0.078667,0.0057 0.011369,-0.039499 0.022199,-0.07901 0.032499,-0.1185313 0.014921,0.037763 0.030313,0.075374 0.046169,0.1128311 z"
         style="font-style:normal;font-variant:normal;font-weight:normal;font-stretch:condensed;font-size:0.366667px;font-family:'TeX Gyre Heros Cn';-inkscape-font-specification:'TeX Gyre Heros Cn, Condensed';font-variant-ligatures:normal;font-variant-caps:normal;font-variant-numeric:normal;font-variant-east-asian:normal;stroke-width:0.025"
         id="path92"
         inkscape:original-d="m -8.3699505,4.2750001 -0.0781,-0.2632667 h -0.033367 l -0.081033,0.2632667 h 0.030067 l 0.022733,-0.076633 h 0.086533 l 0.021267,0.076633 z m -0.0638,-0.1085333 h -0.0671 l 0.034833,-0.1166 z" />
      <path
         d="m -8.2747844,5.3818434 c -0.015404,-0.080236 -0.073075,-0.1257512 -0.1394827,-0.1157125 -0.074987,0.011336 -0.1107074,0.075748 -0.1021062,0.1524657 0.0082,0.073144 0.058598,0.1322534 0.1418736,0.1194386 0.083182,-0.0128 0.1135362,-0.084203 0.099715,-0.1561918 z m -0.034356,0.00603 c 0.011282,0.062434 -0.016039,0.110593 -0.070122,0.1188965 -0.053506,0.00821 -0.094614,-0.029423 -0.102385,-0.09227 -0.00796,-0.064407 0.020685,-0.1093176 0.071751,-0.1170506 0.048805,-0.00739 0.089583,0.028594 0.1007554,0.090424 z"
         style="font-style:normal;font-variant:normal;font-weight:normal;font-stretch:condensed;font-size:0.366667px;font-family:'TeX Gyre Heros Cn';-inkscape-font-specification:'TeX Gyre Heros Cn, Condensed';font-variant-ligatures:normal;font-variant-caps:normal;font-variant-numeric:normal;font-variant-east-asian:normal;stroke-width:0.025"
         id="path94"
         inkscape:original-d="m -8.1528847,4.1437334 c 0,-0.0825 -0.043267,-0.1389666 -0.1037667,-0.1389666 -0.0693,0 -0.1067,0.0616 -0.1067,0.1389666 0,0.074433 0.036667,0.1382334 0.1052333,0.1382334 0.068567,0 0.1052334,-0.0638 0.1052334,-0.1382334 z m -0.030067,-3.666e-4 c 0,0.064167 -0.030067,0.1067 -0.075167,0.1067 -0.0451,0 -0.075167,-0.042533 -0.075167,-0.1063334 0,-0.065267 0.0297,-0.1070666 0.076267,-0.1070666 0.044,0 0.074067,0.043267 0.074067,0.1067 z" />
      <path
         d="m -7.9928528,5.2114305 -0.0089,-0.030331 c -0.062719,0.018482 -0.1258788,0.035057 -0.1894339,0.049615 l 0.00705,0.030786 c 0.026801,-0.00614 0.053531,-0.01263 0.080185,-0.019467 l 0.056837,0.2219456 c 0.011413,-0.00292 0.022811,-0.00589 0.034193,-0.00892 l -0.059081,-0.2213942 c 0.026461,-0.00708 0.052846,-0.01449 0.079152,-0.022234 z"
         style="font-style:normal;font-variant:normal;font-weight:normal;font-stretch:condensed;font-size:0.366667px;font-family:'TeX Gyre Heros Cn';-inkscape-font-specification:'TeX Gyre Heros Cn, Condensed';font-variant-ligatures:normal;font-variant-caps:normal;font-variant-numeric:normal;font-variant-east-asian:normal;stroke-width:0.025"
         id="path96"
         inkscape:original-d="m -7.8778858,4.0436334 v -0.0319 h -0.1756333 v 0.0319 h 0.073333 v 0.2313667 h 0.029333 V 4.0436334 Z" />
      <path
         d="m -7.7116644,5.3607506 -0.010783,-0.029793 c -0.04863,0.017532 -0.097595,0.03406 -0.1468784,0.04954 l -0.026006,-0.082527 c 0.04361,-0.013736 0.086979,-0.028327 0.1300955,-0.043737 l -0.010667,-0.029829 c -0.042737,0.015294 -0.08572,0.029772 -0.1289351,0.043399 l -0.023929,-0.075938 c 0.045773,-0.014474 0.091297,-0.029938 0.1365528,-0.046349 l -0.010762,-0.0298 c -0.055156,0.020029 -0.1107027,0.03863 -0.1666077,0.055725 l 0.076007,0.2496379 c 0.061134,-0.018539 0.1217828,-0.038676 0.1819126,-0.060328 z"
         style="font-style:normal;font-variant:normal;font-weight:normal;font-stretch:condensed;font-size:0.366667px;font-family:'TeX Gyre Heros Cn';-inkscape-font-specification:'TeX Gyre Heros Cn, Condensed';font-variant-ligatures:normal;font-variant-caps:normal;font-variant-numeric:normal;font-variant-east-asian:normal;stroke-width:0.025"
         id="path98"
         inkscape:original-d="m -7.6886859,4.2750001 v -0.0319 h -0.1298 v -0.087267 h 0.1177 v -0.0319 h -0.1177 v -0.0803 h 0.1276 v -0.0319 h -0.1569333 v 0.2632667 z" />
      <path
         d="m -7.4974443,5.0238227 -0.013334,-0.028911 c -0.060046,0.027851 -0.1206544,0.054092 -0.1817797,0.078611 l 0.011757,0.029479 c 0.025749,-0.010314 0.051404,-0.020929 0.076963,-0.031837 l 0.090139,0.2121269 c 0.010864,-0.00459 0.021709,-0.00923 0.032535,-0.013919 l -0.092049,-0.2114384 c 0.025354,-0.011086 0.050612,-0.022459 0.07577,-0.034112 z"
         style="font-style:normal;font-variant:normal;font-weight:normal;font-stretch:condensed;font-size:0.366667px;font-family:'TeX Gyre Heros Cn';-inkscape-font-specification:'TeX Gyre Heros Cn, Condensed';font-variant-ligatures:normal;font-variant-caps:normal;font-variant-numeric:normal;font-variant-east-asian:normal;stroke-width:0.025"
         id="path100"
         inkscape:original-d="m -7.4100201,4.0436334 v -0.0319 h -0.1756333 v 0.0319 h 0.073333 v 0.2313667 h 0.029333 V 4.0436334 Z" />
      <path
         d="m -7.214883,5.1426519 c -0.068576,-0.063391 -0.1355578,-0.1278617 -0.2008557,-0.1933883 -0.011292,0.00561 -0.022605,0.011164 -0.033939,0.016661 0.010569,0.092325 0.019123,0.1850806 0.025576,0.2782203 0.011027,-0.00498 0.022034,-0.010001 0.033019,-0.015076 -0.00243,-0.026964 -0.00503,-0.053894 -0.0078,-0.08079 0.030932,-0.014579 0.061701,-0.029554 0.092302,-0.044912 0.019001,0.019051 0.038133,0.03802 0.057394,0.056905 0.01146,-0.00582 0.022896,-0.011695 0.034307,-0.01762 z m -0.1172372,-0.062183 c -0.023574,0.011758 -0.047247,0.023285 -0.071016,0.034576 -0.00433,-0.04092 -0.00905,-0.081759 -0.014153,-0.1225132 0.02808,0.029502 0.056472,0.058815 0.085168,0.087937 z"
         style="font-style:normal;font-variant:normal;font-weight:normal;font-stretch:condensed;font-size:0.366667px;font-family:'TeX Gyre Heros Cn';-inkscape-font-specification:'TeX Gyre Heros Cn, Condensed';font-variant-ligatures:normal;font-variant-caps:normal;font-variant-numeric:normal;font-variant-east-asian:normal;stroke-width:0.025"
         id="path102"
         inkscape:original-d="m -7.2387876,4.2750001 -0.0781,-0.2632667 h -0.033367 l -0.081033,0.2632667 h 0.030067 l 0.022733,-0.076633 h 0.086533 l 0.021267,0.076633 z m -0.0638,-0.1085333 h -0.0671 l 0.034833,-0.1166 z" />
      <path
         d="m -7.051091,4.9620214 c -0.016489,-0.027966 -0.036087,-0.036326 -0.071755,-0.031916 0.013704,-0.02277 0.013923,-0.042606 0.00109,-0.064512 -0.020317,-0.034672 -0.057638,-0.043286 -0.093811,-0.022777 -0.031386,0.017795 -0.062958,0.035172 -0.09471,0.052116 l 0.1236756,0.2329041 c 0.033195,-0.017546 0.066177,-0.035526 0.09894,-0.053924 0.046704,-0.026226 0.060674,-0.071014 0.036572,-0.1118915 4e-7,-1e-7 8e-7,-2e-7 1.2e-6,-3e-7 z m -0.09839,-0.076463 c 0.014294,0.024832 0.00655,0.044777 -0.024568,0.062212 -0.017831,0.00999 -0.035723,0.019848 -0.053677,0.029574 l -0.038662,-0.071416 c 0.017725,-0.00963 0.035392,-0.019394 0.053,-0.029287 0.030388,-0.017074 0.050473,-0.014423 0.063908,0.00892 -3e-7,10e-8 -6e-7,3e-7 -1e-6,5e-7 z m 0.068238,0.094057 c 0.015297,0.026408 0.00712,0.051677 -0.022953,0.068564 -0.02178,0.01223 -0.043655,0.024274 -0.065625,0.036126 l -0.04426,-0.081757 c 0.019721,-0.010673 0.039368,-0.021505 0.05894,-0.032492 0.034168,-0.019181 0.058917,-0.016304 0.073897,0.00956 z"
         style="font-style:normal;font-variant:normal;font-weight:normal;font-stretch:condensed;font-size:0.366667px;font-family:'TeX Gyre Heros Cn';-inkscape-font-specification:'TeX Gyre Heros Cn, Condensed';font-variant-ligatures:normal;font-variant-caps:normal;font-variant-numeric:normal;font-variant-east-asian:normal;stroke-width:0.025"
         id="path104"
         inkscape:original-d="m -7.046288,4.1965334 c 0,-0.032267 -0.010633,-0.0495 -0.038867,-0.063433 0.0198,-0.012833 0.0286,-0.0297 0.0286,-0.055 0,-0.039967 -0.0242,-0.066367 -0.060867,-0.066367 h -0.094967 v 0.2632667 h 0.093133 c 0.044,0 0.072967,-0.031167 0.072967,-0.078467 z m -0.0396,-0.1151333 c 0,0.0286 -0.0143,0.0418 -0.044733,0.0418 h -0.052433 v -0.081033 h 0.0528 c 0.030433,0 0.044367,0.012467 0.044367,0.039233 z m 0.010267,0.1151333 c 0,0.030433 -0.0165,0.048033 -0.0451,0.048033 h -0.062333 v -0.092767 h 0.0572 c 0.033367,0 0.050233,0.015033 0.050233,0.044733 z" />
      <path
         d="m -6.8463731,4.7702869 c -0.046341,-0.068963 -0.1190442,-0.088253 -0.1773725,-0.051093 -0.066158,0.042148 -0.071966,0.1170643 -0.03202,0.183935 0.038196,0.06394 0.1090581,0.097341 0.1800313,0.052433 0.070948,-0.044892 0.071035,-0.1232576 0.029361,-0.1852754 z m -0.029712,0.019363 c 0.035606,0.053846 0.029432,0.1095148 -0.016845,0.1388157 -0.046287,0.029307 -0.099255,0.011117 -0.1325245,-0.043603 -0.03408,-0.056053 -0.026667,-0.1095637 0.018559,-0.1383492 0.042397,-0.026985 0.095551,-0.010185 0.1308111,0.043137 z"
         style="font-style:normal;font-variant:normal;font-weight:normal;font-stretch:condensed;font-size:0.366667px;font-family:'TeX Gyre Heros Cn';-inkscape-font-specification:'TeX Gyre Heros Cn, Condensed';font-variant-ligatures:normal;font-variant-caps:normal;font-variant-numeric:normal;font-variant-east-asian:normal;stroke-width:0.025"
         id="path106"
         inkscape:original-d="m -6.8138223,4.1437334 c 0,-0.0825 -0.043267,-0.1389666 -0.1037666,-0.1389666 -0.0693,0 -0.1067,0.0616 -0.1067,0.1389666 0,0.074433 0.036667,0.1382334 0.1052333,0.1382334 0.068567,0 0.1052333,-0.0638 0.1052333,-0.1382334 z m -0.030067,-3.666e-4 c 0,0.064167 -0.030067,0.1067 -0.075167,0.1067 -0.0451,0 -0.075167,-0.042533 -0.075167,-0.1063334 0,-0.065267 0.0297,-0.1070666 0.076267,-0.1070666 0.044,0 0.074067,0.043267 0.074067,0.1067 z" />
      <path
         d="M -6.5354587,4.7106387 -6.6958192,4.499191 c -0.012657,0.0096 -0.025357,0.019132 -0.0381,0.028606 0.025891,0.0744 0.050821,0.1493051 0.074746,0.2246913 -0.064103,-0.046426 -0.1274129,-0.093634 -0.1898821,-0.1416085 -0.013108,0.00917 -0.026257,0.018281 -0.039448,0.027319 l 0.1497257,0.2188983 c 0.00942,-0.00643 0.018818,-0.012898 0.028193,-0.019396 l -0.099006,-0.1426428 -0.02907,-0.041882 c 0.061985,0.048104 0.1247977,0.095459 0.1883941,0.1420519 0.0094,-0.00672 0.018771,-0.013476 0.028121,-0.020261 -0.023946,-0.075322 -0.048891,-0.1501612 -0.074793,-0.224494 l 0.040971,0.054744 0.093903,0.1254677 c 0.00889,-0.00665 0.017759,-0.013336 0.026605,-0.020046 z"
         style="font-style:normal;font-variant:normal;font-weight:normal;font-stretch:condensed;font-size:0.366667px;font-family:'TeX Gyre Heros Cn';-inkscape-font-specification:'TeX Gyre Heros Cn, Condensed';font-variant-ligatures:normal;font-variant-caps:normal;font-variant-numeric:normal;font-variant-east-asian:normal;stroke-width:0.025"
         id="path108"
         inkscape:original-d="M -6.5732893,4.2750001 V 4.0117334 h -0.041433 l -0.0616,0.2236667 -0.061967,-0.2236667 h -0.0418 v 0.2632667 h 0.028233 v -0.1723333 -0.0506 l 0.060867,0.2229333 h 0.0286 l 0.0616,-0.2233 v 0.067833 0.1554667 z" />
      <path
         d="m -6.3910687,4.4251147 c -0.053706,-0.063313 -0.1282628,-0.074391 -0.1823188,-0.030706 -0.0614,0.049619 -0.058446,0.1249509 -0.010731,0.1868757 0.045656,0.059253 0.1200205,0.084009 0.1850757,0.031278 0.065013,-0.052697 0.056252,-0.1305326 0.00797,-0.1874469 z m -0.027344,0.022559 c 0.041413,0.049476 0.041621,0.1054988 -8.444e-4,0.1399057 -0.042478,0.034417 -0.097254,0.02257 -0.1368186,-0.028056 -0.040544,-0.051879 -0.039001,-0.1062591 0.00258,-0.1398716 0.039555,-0.031974 0.094095,-0.020947 0.1350824,0.028022 z"
         style="font-style:normal;font-variant:normal;font-weight:normal;font-stretch:condensed;font-size:0.366667px;font-family:'TeX Gyre Heros Cn';-inkscape-font-specification:'TeX Gyre Heros Cn, Condensed';font-variant-ligatures:normal;font-variant-caps:normal;font-variant-numeric:normal;font-variant-east-asian:normal;stroke-width:0.025"
         id="path110"
         inkscape:original-d="m -6.3294563,4.1437334 c 0,-0.0825 -0.043267,-0.1389666 -0.1037667,-0.1389666 -0.0693,0 -0.1067,0.0616 -0.1067,0.1389666 0,0.074433 0.036667,0.1382334 0.1052333,0.1382334 0.068567,0 0.1052334,-0.0638 0.1052334,-0.1382334 z m -0.030067,-3.666e-4 c 0,0.064167 -0.030067,0.1067 -0.075167,0.1067 -0.0451,0 -0.075167,-0.042533 -0.075167,-0.1063334 0,-0.065267 0.0297,-0.1070666 0.076267,-0.1070666 0.044,0 0.074067,0.043267 0.074067,0.1067 z" />
      <path
         d="m -6.1279742,4.3679316 c -0.082633,-0.043353 -0.1645232,-0.087974 -0.2455835,-0.1338401 -0.00954,0.00849 -0.019118,0.016944 -0.028724,0.025369 0.034961,0.08665 0.068671,0.1742196 0.101046,0.2626614 0.00921,-0.00785 0.018389,-0.015731 0.02754,-0.023639 -0.00985,-0.025447 -0.019806,-0.050821 -0.029868,-0.076121 0.025871,-0.02254 0.05151,-0.045307 0.07691,-0.068287 0.023428,0.013386 0.04692,0.026672 0.070474,0.03986 0.00944,-0.00864 0.018838,-0.017308 0.028205,-0.026004 z m -0.1294666,-0.029217 c -0.019638,0.017666 -0.039416,0.035204 -0.059333,0.052607 -0.015363,-0.038467 -0.030969,-0.07676 -0.046811,-0.1148764 0.035228,0.020982 0.070611,0.041739 0.1061438,0.062269 z"
         style="font-style:normal;font-variant:normal;font-weight:normal;font-stretch:condensed;font-size:0.366667px;font-family:'TeX Gyre Heros Cn';-inkscape-font-specification:'TeX Gyre Heros Cn, Condensed';font-variant-ligatures:normal;font-variant-caps:normal;font-variant-numeric:normal;font-variant-east-asian:normal;stroke-width:0.025"
         id="path112"
         inkscape:original-d="m -6.1321907,4.2750001 -0.0781,-0.2632667 h -0.033367 l -0.081033,0.2632667 h 0.030067 l 0.022733,-0.076633 h 0.086533 l 0.021267,0.076633 z m -0.0638,-0.1085333 h -0.0671 l 0.034833,-0.1166 z" />
    </g>
  </g>
</svg>
