<?xml version="1.0" encoding="UTF-8" standalone="no"?>
<svg
   xmlns:dc="http://purl.org/dc/elements/1.1/"
   xmlns:cc="http://creativecommons.org/ns#"
   xmlns:rdf="http://www.w3.org/1999/02/22-rdf-syntax-ns#"
   xmlns:svg="http://www.w3.org/2000/svg"
   xmlns="http://www.w3.org/2000/svg"
   width="1600"
   height="799.99994"
   viewBox="0 0 423.33332 211.66666"
   version="1.1"
   id="svg847">
  <defs
     id="defs841" />
  <metadata
     id="metadata844">
    <rdf:RDF>
      <cc:Work
         rdf:about="">
        <dc:format>image/svg+xml</dc:format>
        <dc:type
           rdf:resource="http://purl.org/dc/dcmitype/StillImage" />
        <dc:title></dc:title>
      </cc:Work>
    </rdf:RDF>
  </metadata>
  <g
     id="layer1"
     transform="translate(-303.84185,100.22989)">
    <rect
       style="fill:#b1b2b2;stroke:none;stroke-width:0.0661458;stroke-linejoin:bevel;stroke-miterlimit:10;fill-opacity:1"
       id="rect844"
       width="423.33331"
       height="211.66666"
       x="303.84186"
       y="-100.22989"
       rx="0"
       ry="0" />
    <path
       style="fill:#ffffff;fill-opacity:1;stroke:none;stroke-width:0.529167;stroke-linejoin:bevel;stroke-miterlimit:10;stroke-dasharray:none"
       d="M 727.17518,-15.525762 H 303.84185 V 26.73264 h 423.33333 z"
       id="path1134" />
    <path
       id="rect942"
       style="fill:#c80e2c;fill-opacity:1;stroke:none;stroke-width:2;stroke-linejoin:bevel;stroke-miterlimit:10;stroke-dasharray:none"
       d="M 0 380.03516 L 0 419.96289 L 249.20312 419.96289 L 249.20312 380.03516 L 0 380.03516 z M 709.09766 380.03516 L 709.09766 419.96289 L 1600 419.96289 L 1600 380.03516 L 709.09766 380.03516 z "
       transform="matrix(0.26458334,0,0,0.26458334,303.84185,-100.22989)" />
    <path
       style="fill:#ffffff;fill-opacity:1;stroke:none;stroke-width:0.529167;stroke-linejoin:bevel;stroke-miterlimit:10;stroke-dasharray:none"
       d="M 451.74629,111.43677 V -100.22989 H 409.48788 V 111.43677 Z"
       id="path1138" />
    <path
       id="path1021"
       style="fill:#c80e2c;fill-opacity:1;stroke:none;stroke-width:2;stroke-linejoin:bevel;stroke-miterlimit:10;stroke-dasharray:none"
       d="M 459.1875 0 L 459.1875 129.98047 L 499.11523 129.98047 L 499.11523 0 L 459.1875 0 z M 459.1875 669.02344 L 459.1875 800 L 499.11523 800 L 499.11523 669.02344 C 492.41795 669.68431 485.75183 670.01953 479.15039 670.01953 C 472.54959 670.01953 465.88413 669.68418 459.1875 669.02344 z "
       transform="matrix(0.26458334,0,0,0.26458334,303.84185,-100.22989)" />
    <path
       style="color:#000000;display:inline;overflow:visible;visibility:visible;fill:#c80e2c;fill-opacity:1;stroke:#000000;stroke-width:1.5875;stroke-linecap:butt;stroke-linejoin:miter;stroke-miterlimit:4;stroke-dasharray:none;stroke-dashoffset:0;stroke-opacity:1;marker:none;enable-background:accumulate"
       d="m 376.58025,-59.0357 c 0,0 0,35.546848 0,72.029139 0,36.482294 28.99599,57.249136 54.03683,57.249136 25.04085,0 54.03683,-20.766842 54.03683,-57.249136 0,-36.482291 0,-72.029139 0,-72.029139 z"
       id="path3802" />
    <g
       id="g4007"
       transform="matrix(0.26458334,0,0,0.26458334,746.1836,-146.78254)" />
    <path
       id="path4009"
       style="opacity:1;fill:#000000;stroke-width:0.999999"
       d="M 477.99219 218.57812 C 468.90166 218.50664 460.45398 220.25354 453.03711 223.75195 C 445.01941 227.53384 438.09861 233.64672 434.00391 240.5625 C 432.93872 242.36155 431.00737 246.7699 430.30664 249.00391 C 429.85937 250.43018 429.62579 250.63672 428.45508 250.63672 C 427.83127 250.63672 426.94882 250.88571 426.24609 251.25977 L 425.07617 251.88281 L 423.10938 251.36914 C 420.68439 250.73647 419.43644 250.85949 417.29492 251.93945 C 415.74222 252.7224 415.6902 252.72947 415.0332 252.30078 C 413.72689 251.44865 411.76655 250.66596 410.24805 250.39062 C 408.42227 250.05954 406.38203 250.35444 404.04492 251.28516 C 402.25104 251.99952 401.97327 252.01954 401.23438 251.50195 C 399.16357 250.05157 394.76945 249.67309 392.46484 250.74609 C 391.74775 251.07997 390.81945 251.60565 390.40234 251.91406 L 389.64453 252.47461 L 388.06445 251.61914 C 386.64195 250.84785 386.28646 250.76172 384.47656 250.76172 C 382.67316 250.76172 382.26658 250.85772 380.49609 251.70312 C 378.21129 252.79404 378.03267 252.81669 376.93555 252.13867 C 375.64408 251.34045 373.33604 250.63672 372.00977 250.63672 C 370.60945 250.63672 368.64522 251.31853 367.23633 252.29492 L 366.25781 252.97461 L 363.93945 251.86719 C 361.67933 250.78811 361.56152 250.76172 359.11133 250.76172 C 356.68423 250.76172 356.54436 250.7941 354.91406 251.69531 L 353.22656 252.62695 L 351.52344 251.82227 C 350.01027 251.10795 349.58174 251.02035 347.68555 251.0332 C 346.10695 251.04377 345.19141 251.19052 344.16992 251.5957 C 343.4102 251.89703 342.6404 252.14251 342.45898 252.14258 C 342.27768 252.14265 341.25049 251.36889 340.17578 250.42188 C 337.70439 248.24405 335.55209 246.7793 333.41602 245.82422 C 332.49381 245.41181 331.5762 244.99121 331.37891 244.88867 C 331.18143 244.78616 330.86268 243.9227 330.66992 242.96875 C 329.52393 237.29803 325.61838 234.41364 321.30469 236.05273 C 319.51361 236.7333 318.40238 237.65831 317.26758 239.41406 C 315.62439 241.95637 315.26835 243.52376 315.03516 249.25586 C 314.9229 252.01833 314.82189 254.30507 314.81055 254.33984 C 314.7983 254.37431 314.1672 254.4043 313.41016 254.4043 C 312.18782 254.4043 312.02083 254.33973 311.9082 253.83789 C 311.83828 253.52711 311.74905 250.73083 311.70898 247.62305 C 311.64209 242.42497 311.58899 241.85825 311.0625 240.54102 C 310.19355 238.36676 308.59057 236.73053 306.69922 236.0918 C 304.77162 235.4409 304.20866 235.43984 302.14844 236.07617 C 299.14625 237.00345 296.79811 239.58567 296.05664 242.77539 C 295.85746 243.63304 295.70614 246.08588 295.67969 248.98438 C 295.65436 251.61973 295.58794 253.96569 295.53125 254.19727 C 295.46348 254.47407 294.9806 254.71308 294.12109 254.89453 C 293.40204 255.04633 292.21947 255.45852 291.49414 255.81055 C 288.90596 257.06665 288.28614 259.47751 288.4668 267.58398 C 288.5558 271.5807 288.62833 272.22577 289.0957 273.11328 C 290.09342 275.00777 291.84122 276.06118 294.5293 276.38867 C 295.33449 276.48676 296.03372 276.69423 296.08398 276.84961 C 296.13425 277.00498 296.28253 278.48704 296.41406 280.14453 C 296.72315 284.03973 297.32784 285.697 299.07617 287.44531 C 302.00342 290.37256 306.47702 290.37256 309.4043 287.44531 C 311.27951 285.57008 311.79572 284.04014 311.99414 279.76758 L 312.15039 276.37695 L 313.34375 276.30078 C 314.84471 276.2045 314.90932 276.34882 315.12891 280.32617 C 315.23976 282.33275 315.45306 283.70356 315.80078 284.63281 C 317.70007 289.70915 324.37637 291.21909 328.24805 287.44922 C 329.61707 286.11623 330.10995 284.96823 330.47656 282.24023 L 330.63281 281.07031 L 332.31641 281.04883 C 333.24213 281.03643 334.33235 280.99609 334.74023 280.96094 C 335.62313 280.88528 335.59848 280.85063 341.36328 290.18945 C 348.59756 301.90902 352.35766 307.25866 356.90625 312.29688 C 366.74398 323.19363 378.07159 329.80177 394.75586 334.37891 C 411.94266 339.09393 424.15276 341.10545 439.14062 341.69336 C 441.58073 341.78906 443.71872 341.95693 443.89258 342.06445 C 444.11788 342.20367 443.72694 342.82558 442.53125 344.22656 C 440.53883 346.56103 438.57863 350.31524 437.8457 353.20117 C 436.9393 356.7711 437.327 360.82788 438.91992 364.42969 C 440.578 368.17908 444.54866 372.69938 448.71094 375.57617 C 449.90995 376.40491 450.94961 377.30773 451.01953 377.58398 C 451.09021 377.86022 451.17887 381.29819 451.21289 385.22266 L 451.2793 392.35742 L 449.14453 393.58594 C 443.29273 396.9548 440.17364 400.51804 438.97852 405.19922 C 437.90324 409.41076 439.30282 414.31567 442.96484 419.16602 C 444.89924 421.72836 448.21942 424.94699 451.2207 427.16992 C 453.72865 429.02738 453.50759 428.4042 453.91797 434.7168 C 454.05717 436.85772 454.39477 441.83106 454.66992 445.76758 C 454.94481 449.7041 455.23912 454.22408 455.32227 455.8125 L 455.47461 458.70117 L 452.93359 459.89648 C 450.8948 460.85532 450.05386 461.42455 448.67773 462.7832 C 444.34296 467.06316 443.45197 472.94216 446.09961 479.80273 C 447.68799 483.91849 451.75954 489.07585 455.11523 491.22266 C 455.84423 491.689 456.49188 492.30288 456.55273 492.58789 C 456.61396 492.87293 456.7826 496.15739 456.92773 499.88672 C 457.07294 503.61606 457.2986 509.1527 457.43164 512.19141 C 457.56445 515.23012 457.78783 520.42918 457.92578 523.74414 C 458.06373 527.05911 458.24869 531.18741 458.33789 532.91797 L 458.5 536.06445 L 456.39648 536.86719 C 453.39259 538.01226 451.32411 539.32409 449.55469 541.20508 C 446.14457 544.83014 445.0856 549.44341 446.52148 554.41797 C 448.19139 560.20326 452.28316 564.84587 458.43555 567.9375 C 459.19523 568.31925 459.85144 568.66375 459.89453 568.70117 C 459.93713 568.73858 460.12951 569.96969 460.32227 571.4375 C 461.15856 577.80883 462.78986 581.15068 466.10156 583.27539 C 467.66727 584.27993 470.52183 585.30638 473.00195 585.75586 L 473.00977 585.75586 C 475.59424 586.22422 481.48507 586.23869 484.08984 585.7832 C 486.65047 585.33546 490.1676 584.18515 491.66992 583.30469 C 492.9443 582.55792 494.14316 581.27624 494.82812 579.92773 C 495.69364 578.22389 497.11903 572.30395 497.11914 570.41211 C 497.11925 569.16168 497.34323 568.84359 498.71875 568.15039 C 503.70924 565.63538 508.06665 561.36924 509.86914 557.23242 C 510.91282 554.83688 511.27004 553.17621 511.28516 550.61523 C 511.31116 546.5173 510.17603 543.88003 507.07031 540.82227 C 505.47603 539.25244 504.49476 538.53779 502.58398 537.55664 L 500.13867 536.30078 L 500.13867 524.875 C 500.13716 518.59038 500.21165 508.26773 500.30273 501.9375 L 500.46875 490.42969 L 502.37305 488.97656 C 504.66726 487.22718 507.69391 484.09669 509 482.12109 C 514.92789 473.15514 512.99062 463.48194 504.35742 458.94531 C 503.42671 458.45627 502.61762 457.97368 502.56055 457.875 C 502.45075 457.68587 502.74369 442.59076 503.0332 433.52734 L 503.20312 428.19336 L 505.14062 427.16211 C 507.31903 426.00142 510.03347 423.80921 511.35547 422.14258 C 514.77999 417.82546 516.71289 411.34094 515.98828 406.60742 C 515.0324 400.36324 511.62984 395.56028 506.34961 393.00391 L 505.15625 392.42773 L 505.14648 389.52539 C 505.14346 386.67066 505.56406 377.79784 505.79688 375.82031 C 505.90527 374.8992 506.06524 374.70877 507.58594 373.68555 C 511.10415 371.31832 514.47004 367.39692 515.88086 364.02344 C 518.70836 357.26229 517.11686 349.40364 511.5918 342.8418 C 511.08647 342.24169 510.67383 341.65703 510.67383 341.54297 C 510.67383 341.30097 512.07099 341.16946 518.58398 340.79492 C 532.76689 339.97923 547.12264 338.01738 556.23633 335.65039 C 563.36701 333.79843 568.45569 331.98136 573.6875 329.41797 C 585.23811 323.75853 596.27035 313.64234 606.74414 299.10547 C 609.53884 295.2267 615.65467 285.85236 617.2793 282.95898 C 618.92728 280.02369 619.00124 279.97653 620.95703 280.5625 C 621.82613 280.82287 622.02241 281.04438 622.79102 282.64258 C 624.8549 286.93339 628.30629 288.96981 631.79688 287.95508 C 635.48498 286.88292 637.25233 283.75614 637.89844 277.1582 L 638.04492 275.67773 L 640.66016 275.82422 C 642.09876 275.90571 643.38782 276.04206 643.52539 276.12695 C 643.66297 276.21188 643.7793 277.09465 643.7793 278.08789 C 643.78712 281.31371 644.95488 285.23756 646.36328 286.76953 C 646.66617 287.09888 647.59122 287.69178 648.41992 288.08789 C 649.66985 288.68529 650.25254 288.80842 651.83594 288.80859 C 653.99994 288.80881 655.00385 288.53107 656.48633 287.52344 C 658.40202 286.22157 659.83831 283.19245 660.375 279.32422 C 660.83652 275.99739 660.56041 276.33139 662.9668 276.20508 C 664.76619 276.11063 665.27401 275.98028 666.29883 275.34961 C 668.75121 273.84033 669.90354 270.9209 669.88086 266.2832 C 669.86007 262.29496 669.49899 258.60846 669.04492 257.73047 C 668.1138 255.92995 666.23356 254.8385 663.17188 254.32227 L 661.22852 253.99414 L 661.05078 250.36914 C 660.95278 248.37542 660.68979 246.00882 660.4668 245.11133 C 659.67151 241.91038 657.79672 239.35472 655.38281 238.17773 C 654.81414 237.90048 653.69071 237.68246 652.51758 237.62305 C 650.8736 237.53989 650.39071 237.61605 649.25391 238.13867 C 647.38032 238.99992 646.37152 239.93309 645.54883 241.56641 C 644.45258 243.74285 644.20548 245.45895 644.31055 250.13281 L 644.40234 254.27734 L 642.39453 254.35547 C 641.28955 254.39769 640.01725 254.36425 639.56836 254.28125 L 638.75195 254.12891 L 638.74023 250.8125 C 638.72145 243.6647 637.19035 239.95498 633.51562 238.15039 C 629.76335 236.30772 625.08874 238.0818 623.03906 242.12695 C 622.29616 243.59291 621.67578 245.47152 621.67578 246.2793 C 621.67246 246.94475 620.75218 247.75316 617.46289 249.98828 L 614.9043 251.72852 L 613.70508 251.07812 C 610.75947 249.48117 607.39937 249.27456 603.91797 250.47656 L 602.10938 251.09961 L 600.27539 250.31641 C 598.71671 249.6493 598.12379 249.53011 596.30859 249.51953 C 594.47507 249.5088 593.97936 249.60375 592.79297 250.19141 C 592.03336 250.5677 591.21499 251.01687 590.97461 251.19141 C 590.61404 251.45344 590.41616 251.43075 589.84375 251.06055 C 588.62984 250.27549 587.09362 249.6726 585.52148 249.36328 C 583.5457 248.97459 581.50091 249.38161 579.5625 250.54883 C 578.79371 251.01177 578.09474 251.39013 578.00781 251.39062 C 577.921 251.39126 577.05871 250.99762 576.0918 250.51562 C 573.77978 249.36309 571.85438 249.07208 569.37891 249.50195 C 568.33167 249.68382 566.89057 250.12727 566.17578 250.48633 C 564.57557 251.29 564.44489 251.29042 562.90039 250.50781 C 559.72888 248.90067 556.09352 248.76208 553.16016 250.13477 L 551.49805 250.91211 L 549.85352 250.1543 C 547.80221 249.20885 545.31656 248.82671 543.30664 249.15039 C 541.44685 249.44991 540.74291 249.71517 539.2207 250.68945 L 538.00977 251.46484 L 536.08203 250.81445 C 535.02123 250.45631 533.70093 250.09516 533.14844 250.01367 C 531.90641 249.83058 529.73665 250.22866 528.36914 250.89062 C 527.80274 251.1648 527.23315 251.39062 527.10352 251.39062 C 526.9738 251.39063 526.54117 250.11833 526.14258 248.56445 C 523.98987 240.17188 519.82741 233.91043 513.08594 228.92578 C 504.61394 222.66167 495.1638 219.56723 481.92578 218.7207 C 480.60204 218.63606 479.29083 218.58834 477.99219 218.57812 z M 585.08398 277.14062 C 585.35359 277.1739 585.72414 277.36047 586.46094 277.73242 C 588.08674 278.55309 590.5514 279.26562 591.76172 279.26562 C 592.19085 279.26562 592.54102 279.36232 592.54102 279.48047 C 592.54102 279.87599 586.16828 285.90166 583.46875 288.05859 C 574.26488 295.4125 566.00611 299.90758 556.6875 302.63281 C 547.53012 305.31091 538.22654 307.12 528.95312 308.02539 L 528.95508 308.02344 C 525.17725 308.39228 512.06551 308.70148 509.47461 308.48242 L 508.15234 308.37109 L 508.21875 302.94727 L 508.28516 297.52344 L 510.29492 296.85156 C 512.79413 296.01452 513.88792 295.45269 515.88672 293.98047 C 519.6481 291.21015 523.03472 286.749 524.9707 282.01367 L 525.53906 280.61914 L 527.71094 280.72266 L 529.88281 280.82617 L 532.14453 279.66406 L 534.4043 278.5 L 535.78516 279.11328 C 538.92557 280.50924 541.78839 280.51928 545.16211 279.14648 L 546.62695 278.55078 L 548.25586 279.16406 C 551.70834 280.46357 555.1186 280.17438 557.80078 278.35547 L 559.0957 277.47656 L 560.36914 278.12305 C 563.94537 279.93559 567.64838 279.93237 571.23047 278.11719 L 572.51172 277.46875 L 574.17578 278.21094 C 578.11488 279.97001 581.05649 279.75489 584.30469 277.4668 C 584.64413 277.22769 584.81438 277.10735 585.08398 277.14062 z M 374.06055 278.73633 L 375.50977 279.63086 C 377.21547 280.68368 378.2809 281.02552 379.82812 281.01758 C 381.43201 281.00888 382.9234 280.62052 384.6582 279.75977 C 385.48437 279.34986 386.31165 279.01562 386.49609 279.01562 C 386.68061 279.01562 387.74377 279.31007 388.85938 279.66992 C 391.52746 280.53046 394.06992 280.45841 396.21484 279.46289 L 397.65625 278.79297 L 399.85547 279.8457 L 402.05469 280.89844 L 404.94336 280.88086 C 407.39956 280.86626 408.07662 280.77029 409.46484 280.23438 L 411.0957 279.60352 L 412.72852 280.18164 C 415.65262 281.2167 419.89669 280.90598 422.1875 279.49023 L 423.05664 278.95508 L 424.86133 279.78906 C 426.20416 280.40979 427.03593 280.62904 428.10742 280.64453 C 428.89972 280.65602 429.64865 280.77513 429.77148 280.9082 C 429.89447 281.04128 430.23607 281.88345 430.53125 282.78125 C 431.99034 287.21972 435.8839 291.90736 440.75 295.08398 C 442.5943 296.28798 444.11713 296.96878 446.75781 297.76953 L 448.26367 298.22656 L 448.25195 299.60742 C 448.22115 303.09877 447.79569 308.53657 447.53906 308.70703 L 447.53711 308.70703 C 447.16573 308.95357 427.84431 308.88615 424.6582 308.62695 C 401.2017 306.7187 387.24978 301.89515 373.77539 291.03711 C 369.16539 287.32228 362.25 280.57129 362.25 279.78516 C 362.25 279.38543 362.54585 279.44999 364.16602 280.20117 C 365.37962 280.76378 366.00062 280.88458 367.66992 280.89062 C 369.56131 280.89722 369.84439 280.82648 371.87891 279.81836 L 374.06055 278.73633 z "
       transform="matrix(0.26458334,0,0,0.26458334,303.84185,-100.22989)" />
    <path
       id="path1293"
       style="fill:#b1b2b2;stroke-width:0.264583;opacity:1;fill-opacity:1"
       d="m 431.97934,53.952776 c 1.19864,-0.224358 1.81702,-0.551383 2.08735,-1.103894 0.1679,-0.343273 0.50496,-1.731232 0.50496,-2.079588 0,-0.198501 -0.0132,-0.199702 -0.47133,-0.04287 -0.90041,0.308296 -1.47143,0.373899 -3.24964,0.373354 -1.77435,-5.29e-4 -2.59199,-0.08979 -3.90549,-0.426278 -0.43535,-0.111522 -0.49273,-0.113954 -0.5279,-0.02236 -0.0556,0.144897 0.15296,1.268045 0.31676,1.705857 0.27353,0.731115 0.96986,1.288277 1.91667,1.533615 0.90371,0.234182 2.27301,0.259754 3.32862,0.06217 z m -0.2218,-3.980584 c 0.0424,-0.182727 0.0799,-0.617781 0.0834,-0.966788 0.004,-0.396894 0.0362,-0.664416 0.0861,-0.714293 0.11366,-0.11366 0.35351,-0.09854 0.45932,0.02896 0.10466,0.1261 0.1212,0.817475 0.0361,1.511088 l -0.056,0.456988 0.32181,-0.04552 c 0.65283,-0.09233 1.55929,-0.372907 2.1287,-0.658876 0.4839,-0.243046 0.61172,-0.340956 0.73777,-0.565174 0.17449,-0.310536 0.34287,-1.031214 0.34456,-1.474978 0.003,-0.349771 0.0858,-0.461799 0.34833,-0.461799 0.13449,0 0.2041,0.04314 0.24556,0.152168 0.0564,0.148367 -0.009,1.10839 -0.0943,1.375957 -0.0838,0.264118 0.15534,0.132395 0.64212,-0.353623 1.70236,-1.699689 1.75234,-3.89137 0.11724,-5.137058 -0.42109,-0.320786 -0.90443,-0.576633 -0.98978,-0.523891 -0.0328,0.02029 -0.0948,0.205963 -0.13769,0.412602 l -0.078,0.375711 0.28948,0.236501 c 0.41992,0.343072 0.83553,0.79525 1.03143,1.122092 0.1643,0.274193 0.16631,0.290034 0.053,0.415285 -0.21244,0.234741 -0.39005,0.164949 -0.75179,-0.295373 -0.30311,-0.385664 -0.71795,-0.77043 -0.83069,-0.77043 -0.0241,0 -0.23074,0.190291 -0.45884,0.422866 -0.29466,0.300423 -0.57518,0.503499 -0.96866,0.701304 -0.44728,0.22483 -0.54478,0.300114 -0.50644,0.391086 0.17015,0.404088 0.28487,0.743622 0.32321,0.956725 0.0391,0.216866 0.0233,0.259671 -0.13094,0.360882 -0.2753,0.180387 -0.41897,0.05007 -0.55965,-0.507659 -0.0415,-0.164674 -0.13099,-0.372983 -0.19883,-0.46291 l -0.12332,-0.163496 -0.62011,0.147211 c -0.34105,0.08096 -0.86722,0.173876 -1.16932,0.206476 -0.30208,0.0326 -0.58955,0.09272 -0.63879,0.133593 -0.10866,0.09018 -0.24056,0.711954 -0.24056,1.134004 0,0.336209 -0.0839,0.467328 -0.299,0.467328 -0.0767,0 -0.17542,-0.03588 -0.21926,-0.07973 -0.0929,-0.09292 -0.10504,-0.893977 -0.019,-1.263836 0.0392,-0.168764 0.0334,-0.265787 -0.0183,-0.30576 -0.0416,-0.0322 -0.33443,-0.09362 -0.65077,-0.136475 -0.31633,-0.04286 -0.82089,-0.14006 -1.12122,-0.216008 -0.53293,-0.134766 -0.54999,-0.135123 -0.7107,-0.01498 -0.0906,0.0677 -0.29205,0.332402 -0.44773,0.588217 -0.15565,0.255817 -0.33044,0.47449 -0.38838,0.485931 -0.16597,0.0328 -0.37812,-0.112146 -0.37812,-0.258355 0,-0.159197 0.21937,-0.610489 0.4395,-0.904214 0.20683,-0.27595 0.20122,-0.316063 -0.0676,-0.482198 -0.22592,-0.13962 -0.56877,-0.489458 -0.78589,-0.801912 l -0.11504,-0.165518 -0.20381,0.232561 c -0.11208,0.127907 -0.29593,0.419007 -0.40857,0.64689 -0.25842,0.522894 -0.33753,0.592923 -0.55676,0.493033 -0.0913,-0.0416 -0.18391,-0.122288 -0.20579,-0.179298 -0.0592,-0.154141 0.4047,-1.041577 0.78036,-1.492975 l 0.32869,-0.394967 -0.11242,-0.572244 -0.11248,-0.572246 -0.20439,0.03926 c -0.11239,0.02162 -0.42309,0.146487 -0.6904,0.277546 -0.61899,0.30345 -1.12281,0.800835 -1.41748,1.399413 -0.21227,0.431194 -0.22267,0.486894 -0.22132,1.184769 0.003,0.814028 0.1098,1.211041 0.51276,1.880913 0.37629,0.62556 1.4396,1.675334 1.69691,1.675334 0.0415,0 0.0671,-0.316683 0.0671,-0.831798 0,-0.931529 0.0428,-1.047789 0.37399,-1.01547 l 0.20499,0.02 0.0359,0.930241 c 0.0471,1.221113 0.12557,1.401143 0.69945,1.604962 0.50568,0.179599 1.73948,0.460735 1.7919,0.408305 0.0214,-0.02156 0.005,-0.28902 -0.0373,-0.594339 -0.0788,-0.57215 -0.0428,-1.152189 0.0806,-1.300988 0.0887,-0.106918 0.3347,-0.109709 0.43942,-0.005 0.0497,0.04968 0.0797,0.29559 0.0797,0.652396 0,0.622345 0.13017,1.178118 0.31496,1.34511 0.15229,0.137576 0.42696,0.162438 1.71125,0.154916 l 1.06275,-0.0062 0.0771,-0.332229 z m 0.47223,-4.789107 c 0.6832,-0.17067 1.75093,-0.613164 1.79416,-0.743556 0.0169,-0.051 -0.1248,-0.150495 -0.36002,-0.252719 -0.21336,-0.09273 -0.64222,-0.288071 -0.95297,-0.434073 l -0.56499,-0.26547 -0.56883,0.318865 c -0.31285,0.175379 -0.88834,0.452491 -1.27887,0.615808 -0.39052,0.163319 -0.71003,0.319857 -0.71003,0.347866 0,0.05805 0.71207,0.428048 1.06241,0.552029 0.29281,0.103621 0.78041,0.06078 1.57914,-0.13875 z m -2.97379,0.0487 c 0,-0.03079 -0.0993,-0.109463 -0.22066,-0.17482 -0.18198,-0.09799 -0.24704,-0.104709 -0.37113,-0.0383 -0.1791,0.09584 -0.15264,0.134273 0.13991,0.203562 0.30475,0.07217 0.45188,0.07529 0.45188,0.0096 z m -1.43306,-0.496683 c 0.18029,-0.04674 0.33816,-0.116134 0.35084,-0.154207 0.0124,-0.03808 -0.19185,-0.229079 -0.45458,-0.424434 -0.26271,-0.195363 -0.73912,-0.616665 -1.05871,-0.936221 -0.31954,-0.319566 -0.59576,-0.566274 -0.61381,-0.548245 -0.0604,0.06046 0.1542,0.838387 0.32579,1.180708 0.20182,0.402675 0.30678,0.528508 0.65095,0.780333 0.29263,0.214101 0.34272,0.220498 0.79952,0.102066 z m 1.7512,-0.536816 c 1.23015,-0.479571 2.0769,-0.927508 1.9649,-1.03949 -0.0318,-0.03181 -0.3883,-0.262998 -0.79222,-0.513752 -0.66307,-0.411665 -1.43425,-0.960414 -2.10002,-1.494311 l -0.24376,-0.195472 -0.60799,0.205471 c -0.54155,0.183004 -0.96819,0.30268 -1.54572,0.43362 -0.10049,0.02278 -0.18272,0.07937 -0.18272,0.125746 0,0.166447 0.88678,1.188286 1.41814,1.634127 0.57097,0.479071 1.36961,1.063797 1.45814,1.067533 0.0288,0.0013 0.31285,-0.09934 0.63125,-0.223472 z m 5.33109,-0.451144 c 0.30297,-0.418264 0.41801,-0.90034 0.42473,-1.780042 0.007,-0.982957 -0.0206,-0.991505 -0.8401,-0.253381 -0.33872,0.305173 -0.87749,0.747569 -1.19727,0.983107 -0.31977,0.235529 -0.58142,0.452456 -0.58142,0.482044 0,0.02959 0.1271,0.110487 0.28242,0.179777 0.15531,0.06928 0.55149,0.246041 0.8804,0.392792 0.3289,0.146746 0.65016,0.268401 0.71389,0.270335 0.0637,0.0019 0.20654,-0.121647 0.31735,-0.274632 z m -2.35384,-1.105945 c 0.74848,-0.485526 2.08671,-1.621523 2.08671,-1.771359 0,-0.04765 -0.22169,-0.224806 -0.49262,-0.393676 -0.27094,-0.168878 -0.85389,-0.560684 -1.2954,-0.870675 -0.44149,-0.309997 -0.85162,-0.563623 -0.91136,-0.563623 -0.0598,0 -0.24681,0.09903 -0.41561,0.220059 -0.47218,0.338524 -1.28773,0.821171 -1.94133,1.148868 -0.32536,0.163132 -0.59155,0.322183 -0.59155,0.353439 0,0.05019 0.85653,0.718148 1.44184,1.12441 0.30578,0.212233 1.63592,1.007078 1.68529,1.007078 0.0228,0 0.21821,-0.114533 0.43403,-0.254521 z m -5.25595,-1.817518 c 0.25604,-0.07651 0.50416,-0.16955 0.55136,-0.206767 0.0656,-0.05169 -0.0918,-0.249584 -0.6663,-0.837967 -0.41367,-0.423672 -0.86336,-0.897385 -0.9993,-1.0527 -0.13592,-0.155319 -0.27914,-0.282395 -0.31827,-0.282395 -0.0881,0 -0.01,2.518894 0.0821,2.634697 0.0661,0.08345 0.47892,0.0055 1.35043,-0.254868 z m 7.97015,-0.534133 c 0.0873,-0.124624 0.10342,-0.422122 0.10342,-1.906037 0,-1.713894 -0.004,-1.762239 -0.14446,-1.912136 -0.0795,-0.08459 -0.19217,-0.153789 -0.2504,-0.153789 -0.0583,0 -0.40439,0.30094 -0.7692,0.668755 -0.36475,0.367819 -0.90987,0.879367 -1.21136,1.136769 -0.30152,0.257406 -0.54769,0.502153 -0.54708,0.543881 0.003,0.136519 2.38963,1.755576 2.60313,1.765178 0.0619,0.0028 0.15906,-0.0614 0.21595,-0.142621 z m -5.77702,-0.376486 c 0.88336,-0.455684 1.9594,-1.140876 1.95982,-1.247966 0,-0.04277 -0.30615,-0.330277 -0.68074,-0.638902 -0.3746,-0.308629 -0.94994,-0.804368 -1.27858,-1.101651 -0.32864,-0.297278 -0.64447,-0.54051 -0.70191,-0.54051 -0.0574,0 -0.40151,0.146823 -0.76465,0.326282 -0.36311,0.179456 -0.95922,0.450165 -1.32469,0.601572 -0.36544,0.151411 -0.68693,0.297678 -0.71442,0.325049 -0.076,0.07567 0.60251,0.872551 1.58353,1.859603 0.76398,0.768718 0.9017,0.880385 1.03589,0.840068 0.0852,-0.02556 0.48374,-0.216175 0.88575,-0.423545 z m 2.99373,-1.980891 c 0.71205,-0.584501 1.95647,-1.822452 1.95647,-1.946288 0,-0.06099 -0.13597,-0.208553 -0.30218,-0.327917 -0.16624,-0.119364 -0.69173,-0.530423 -1.16785,-0.913463 -0.47609,-0.38304 -0.90323,-0.681993 -0.94924,-0.664345 -0.046,0.01765 -0.39508,0.28189 -0.77571,0.587187 -0.38066,0.3053 -0.96795,0.734227 -1.30511,0.953164 -0.33713,0.21894 -0.6137,0.418098 -0.61463,0.442577 -0.005,0.138345 2.45724,2.247876 2.62372,2.247876 0.0402,0 0.28075,-0.170455 0.53453,-0.378791 z M 426.50114,36.8757 c 0.63315,-0.255299 1.75117,-0.794383 1.85256,-0.893252 0.0368,-0.03587 -0.1623,-0.292222 -0.49938,-0.643001 -0.30831,-0.320836 -0.81115,-0.874874 -1.11744,-1.231188 -0.30628,-0.356317 -0.58986,-0.647735 -0.63018,-0.647602 -0.0403,0 -0.17426,0.06177 -0.29758,0.136972 l -0.22426,0.136718 0.0423,0.942774 c 0.0944,2.104797 0.122,2.43781 0.2019,2.43781 0.0434,0 0.34579,-0.107656 0.6721,-0.239231 z m 3.22249,-1.683258 c 0.8459,-0.560591 1.81761,-1.339355 1.84439,-1.478201 0.0111,-0.05819 -0.18746,-0.284004 -0.46339,-0.52669 -0.26567,-0.233651 -0.77963,-0.701403 -1.14213,-1.039442 -0.36248,-0.338045 -0.70102,-0.614625 -0.75227,-0.614625 -0.0512,0 -0.30858,0.144074 -0.57187,0.320162 -0.26328,0.176088 -0.83005,0.536922 -1.25947,0.801854 -0.42941,0.264925 -0.78075,0.498862 -0.78075,0.519851 0,0.146283 2.17947,2.477773 2.31624,2.477773 0.0627,0 0.42688,-0.207312 0.80925,-0.460682 z m 5.47622,0.01921 0.23558,-0.308563 v -1.185905 c 0,-1.145421 -0.005,-1.188762 -0.14361,-1.269526 -0.079,-0.04599 -0.3383,-0.211484 -0.57621,-0.367758 -0.23789,-0.156273 -0.45257,-0.275875 -0.47705,-0.265782 -0.0592,0.0244 -1.79319,1.829491 -1.79319,1.866734 0,0.03233 0.94457,0.798732 1.76081,1.428689 0.29236,0.225645 0.58256,0.41035 0.64481,0.410464 0.0623,0 0.21926,-0.138647 0.34886,-0.308353 z m -2.2632,-2.753622 c 0.4607,-0.478211 0.83765,-0.924127 0.83765,-0.990931 0,-0.161486 -0.77941,-0.811512 -0.9217,-0.768699 -0.15275,0.04594 -1.88646,0.170013 -2.38028,0.170333 -0.34025,0 -0.44389,0.02826 -0.59801,0.161803 l -0.18642,0.161534 0.26577,0.278204 c 0.38291,0.400793 2.02044,1.857227 2.08815,1.857227 0.0315,0 0.43412,-0.391261 0.89484,-0.869471 z m -7.2023,0.504018 c 0,-0.05482 -0.0281,-0.09967 -0.0625,-0.09967 -0.0838,0 -0.1438,0.103762 -0.0907,0.156845 0.0748,0.07483 0.15322,0.04558 0.15322,-0.05718 z m 1.17708,-0.587095 c 1.17919,-0.716193 1.87944,-1.188731 1.87944,-1.268291 0,-0.04488 -0.0685,-0.145955 -0.15221,-0.22462 -0.11753,-0.110406 -0.37135,-0.180785 -1.11297,-0.308666 -0.5284,-0.09111 -1.19179,-0.222044 -1.47416,-0.290954 -0.28236,-0.06892 -0.52903,-0.109644 -0.54816,-0.09051 -0.0479,0.04787 -0.0289,1.333466 0.0227,1.551316 0.0468,0.196887 0.63688,0.986263 0.73724,0.986263 0.0353,0 0.32686,-0.159546 0.64791,-0.354536 z m 8.524,-1.203021 c 0,-0.381566 -0.0259,-0.709879 -0.058,-0.729583 -0.0682,-0.04215 -0.73938,0.810773 -0.73938,0.939596 0,0.09576 0.57002,0.483749 0.7107,0.483749 0.0657,0 0.0867,-0.167669 0.0867,-0.693762 z m -0.9585,-0.470728 c 0.13551,-0.165383 0.22804,-0.319053 0.20558,-0.341492 -0.0373,-0.0373 -0.80106,0.147351 -0.93028,0.224906 -0.0704,0.04228 0.28498,0.41728 0.39553,0.41728 0.0455,0 0.19365,-0.135311 0.32917,-0.300694 z m -1.53321,-0.802553 c 0.75766,-0.11784 1.02047,-0.258169 1.35445,-0.723228 0.26197,-0.364783 0.37598,-0.681995 0.43839,-1.219567 0.04,-0.344832 0.0751,-0.430496 0.19921,-0.487067 0.10784,-0.04914 0.19338,-0.04577 0.30106,0.01188 0.14172,0.07583 0.14807,0.108813 0.10925,0.567838 -0.0225,0.268037 -0.0987,0.638543 -0.16888,0.823365 -0.0702,0.184817 -0.10544,0.349785 -0.0782,0.366594 0.0816,0.05042 0.84802,-0.433187 1.42436,-0.898732 1.47013,-1.187532 2.30658,-2.850957 2.09865,-4.173389 -0.0834,-0.530786 -0.3591,-1.138203 -0.68763,-1.515235 -0.2554,-0.2931 -0.98925,-0.818726 -1.14305,-0.818726 -0.05,0 -0.10901,0.08223 -0.13123,0.182726 -0.0222,0.1005 -0.0864,0.36213 -0.14269,0.581401 -0.1868,0.727967 -0.19024,0.707869 0.16181,0.943928 0.17476,0.11717 0.46366,0.361333 0.64196,0.542591 0.2707,0.27514 0.31716,0.357746 0.28139,0.500251 -0.0271,0.108053 -0.1042,0.186086 -0.20998,0.212645 -0.13745,0.0345 -0.2287,-0.0163 -0.514,-0.286088 -0.19077,-0.18042 -0.47244,-0.41116 -0.62593,-0.51275 l -0.27913,-0.184705 -0.31885,0.265697 c -0.17537,0.146135 -0.56555,0.388681 -0.86704,0.538993 -0.30152,0.150315 -0.54819,0.298276 -0.54819,0.328795 0,0.03053 0.0478,0.151297 0.1062,0.26838 0.0584,0.117092 0.13883,0.403334 0.1787,0.636093 0.082,0.478491 0.018,0.633249 -0.26125,0.633249 -0.17597,0 -0.22251,-0.08137 -0.3851,-0.673164 -0.0565,-0.205782 -0.1596,-0.444315 -0.22905,-0.530064 l -0.1262,-0.155908 -0.58852,0.124129 c -0.32366,0.06827 -0.95231,0.142341 -1.39702,0.164614 -0.44472,0.02228 -0.8304,0.06238 -0.8571,0.08915 -0.0267,0.02676 -0.0628,0.280919 -0.0802,0.564788 -0.0388,0.631391 -0.093,0.748686 -0.34621,0.748686 -0.27326,0 -0.32025,-0.133768 -0.28207,-0.802944 0.0384,-0.672606 0.13075,-0.590265 -0.81524,-0.726245 -0.29236,-0.04203 -0.87505,-0.14973 -1.29492,-0.239347 -0.88249,-0.188373 -0.8582,-0.198665 -0.99155,0.420471 -0.16233,0.753874 -0.20672,0.874461 -0.33711,0.915842 -0.0709,0.02249 -0.18981,0.0083 -0.26429,-0.03156 -0.17521,-0.09376 -0.17584,-0.353558 -0.003,-1.031251 0.0731,-0.285784 0.13288,-0.542052 0.13288,-0.569494 0,-0.02744 -0.13312,-0.114332 -0.29586,-0.193104 -0.16272,-0.07877 -0.44357,-0.260845 -0.62415,-0.404601 -0.18053,-0.143764 -0.3818,-0.261384 -0.4472,-0.261384 -0.0654,0 -0.36465,0.254153 -0.66498,0.564787 -0.30033,0.310634 -0.58401,0.56479 -0.63045,0.56479 -0.11954,0 -0.32742,-0.201522 -0.32742,-0.317425 0,-0.15171 0.64286,-0.906989 0.97499,-1.145517 0.24037,-0.172622 0.29043,-0.242136 0.25638,-0.355864 -0.0233,-0.07774 -0.0903,-0.373073 -0.14899,-0.656299 -0.074,-0.356952 -0.13626,-0.514956 -0.20317,-0.514956 -0.19947,0 -0.9139,0.441367 -1.22343,0.755835 -0.17674,0.179557 -0.41828,0.523349 -0.53674,0.763992 -0.20814,0.422778 -0.21539,0.465582 -0.21539,1.2695 0,0.702853 0.0246,0.904156 0.15864,1.297088 0.47188,1.383319 1.46555,2.588702 2.4833,3.012396 0.27773,0.115628 0.54046,0.210227 0.58383,0.210227 0.0863,0 0.0765,-0.04601 -0.13145,-0.616384 -0.0769,-0.211106 -0.15787,-0.555818 -0.17986,-0.766027 -0.0457,-0.437372 0.0408,-0.568862 0.35073,-0.532709 0.17479,0.02042 0.18907,0.04961 0.29983,0.614203 0.0905,0.46132 0.17132,0.672627 0.36422,0.952736 0.39376,0.571725 0.59368,0.688501 1.40976,0.823542 0.86119,0.142491 2.19921,0.232891 2.21117,0.149389 0.005,-0.03298 0.0272,-0.507839 0.0498,-1.055254 l 0.0412,-0.995283 0.17872,-0.06267 c 0.34677,-0.121542 0.38606,-0.0075 0.38606,1.120063 0,0.555887 0.0222,1.034238 0.0498,1.063001 0.0702,0.0737 1.58205,-0.01331 2.37543,-0.136711 z m -0.19934,-5.413557 c 0.48117,-0.09268 1.47772,-0.444683 1.53884,-0.543534 0.0241,-0.03905 -0.0526,-0.15717 -0.17047,-0.262501 l -0.21434,-0.191511 -0.54379,0.294503 c -0.29909,0.16198 -0.73182,0.388583 -0.96161,0.503573 -0.39647,0.198372 -0.50646,0.373669 -0.19272,0.307113 0.08,-0.01696 0.32483,-0.0654 0.54409,-0.107643 z m -0.64524,-0.592479 c 0.73861,-0.365226 1.34292,-0.69831 1.34292,-0.740193 0,-0.04188 -0.0523,-0.117023 -0.11628,-0.166992 -0.20611,-0.161028 -1.83915,-1.263658 -1.98538,-1.34057 -0.11978,-0.06297 -0.28343,-0.0097 -1.06315,0.346179 -0.50687,0.231327 -1.22801,0.536948 -1.60256,0.679148 -0.37454,0.1422 -0.68101,0.296595 -0.68109,0.343093 0,0.126101 1.03055,0.773951 1.87868,1.180849 0.41021,0.196802 0.77692,0.358886 0.81489,0.36018 0.038,0.0013 0.67336,-0.296474 1.41197,-0.661694 z m -2.9096,0.532265 c 0,-0.03593 -0.14205,-0.138898 -0.31562,-0.228812 -0.17359,-0.08992 -0.58473,-0.344522 -0.91363,-0.565772 -0.3289,-0.221252 -0.6445,-0.402338 -0.70136,-0.402418 -0.22484,0 -1.02708,0.315524 -1.04587,0.411761 -0.03,0.153635 0.48713,0.344453 1.64756,0.607965 1.10109,0.250028 1.32892,0.280426 1.32892,0.177276 z m 5.93434,-0.93335 c 0.18601,-0.146301 0.64379,-1.001723 0.64379,-1.202962 0,-0.188664 -0.097,-0.151929 -0.46744,0.177107 -0.18645,0.165581 -0.45654,0.378859 -0.60021,0.473948 -0.29728,0.19672 -0.3229,0.313618 -0.11679,0.533003 0.17778,0.189251 0.31788,0.194148 0.54065,0.01889 z m -8.83774,-0.460017 c 0.2804,-0.09256 0.44442,-0.181446 0.43191,-0.234061 -0.0272,-0.11393 -1.3484,-1.363748 -1.44169,-1.363748 -0.0908,0 -0.0949,0.429829 -0.009,0.954188 0.0662,0.403884 0.34682,0.873588 0.49046,0.820844 0.0419,-0.01543 0.27969,-0.09515 0.52835,-0.177223 z m 8.36192,-0.633768 c 0.60198,-0.451784 1.16014,-1.020109 1.26008,-1.282993 0.13784,-0.362551 0.0768,-0.511474 -0.40635,-0.991804 -0.25588,-0.25436 -0.56663,-0.517075 -0.69054,-0.583801 l -0.22529,-0.121324 -0.2563,0.20021 c -0.39473,0.308287 -1.39224,0.962827 -2.00057,1.31269 -0.30147,0.173403 -0.54816,0.341572 -0.54816,0.373709 0,0.03214 0.29151,0.251671 0.64783,0.487841 0.35631,0.236167 0.82725,0.565258 1.04653,0.731319 0.21926,0.166063 0.44352,0.302728 0.49837,0.303707 0.0548,7.94e-4 0.3583,-0.192331 0.6744,-0.429554 z m -6.4878,-0.02793 c 1.13599,-0.428075 2.42464,-1.020048 2.42464,-1.113809 0,-0.0482 -0.18176,-0.199855 -0.40396,-0.337026 -0.2222,-0.137171 -0.90432,-0.570434 -1.51583,-0.962814 l -1.11183,-0.713409 -0.79317,0.352854 c -0.43624,0.194074 -0.97247,0.426828 -1.19155,0.517234 -0.24185,0.09979 -0.40722,0.210254 -0.42087,0.281138 -0.0354,0.183729 2.03319,2.235751 2.2538,2.235751 0.038,0 0.37939,-0.116968 0.75877,-0.259919 z m 3.70682,-1.711656 c 0.50577,-0.288044 1.85697,-1.161725 2.12317,-1.372825 0.17481,-0.138644 0.14393,-0.21849 -0.16613,-0.429292 -0.44408,-0.301942 -2.70836,-1.608418 -2.78752,-1.608418 -0.0392,0 -0.44839,0.237017 -0.90932,0.526706 -0.46096,0.289693 -1.09223,0.671264 -1.40287,0.847937 -0.31062,0.176681 -0.56309,0.350787 -0.561,0.386919 0.005,0.07985 0.25178,0.24752 1.78533,1.21104 0.65513,0.411602 1.23209,0.748361 1.2822,0.748361 0.0501,0 0.33634,-0.139695 0.63614,-0.310428 z m 4.15189,-1.638533 c 0.01,-0.426424 -0.003,-0.775316 -0.0259,-0.775316 -0.0832,0 -0.88987,0.741682 -0.88987,0.81816 0,0.100976 0.74551,0.775277 0.83055,0.751242 0.038,-0.01074 0.0745,-0.350528 0.0852,-0.794086 z m -9.69119,0.257231 c 0.34468,-0.150818 0.63792,-0.307909 0.65162,-0.349086 0.0138,-0.04118 -0.27731,-0.303798 -0.64675,-0.583586 -0.36946,-0.279792 -0.8237,-0.643681 -1.00944,-0.808639 -0.19319,-0.171577 -0.3557,-0.270814 -0.37975,-0.231891 -0.0524,0.08471 0.0874,2.285452 0.15171,2.389563 0.0526,0.08509 0.20198,0.03462 1.23261,-0.416361 z m 9.08984,-1.196229 c 0.55063,-0.518316 0.61286,-0.601628 0.6539,-0.875319 0.0371,-0.247642 0.0227,-0.324135 -0.0794,-0.421968 -0.22281,-0.213399 -2.31407,-1.528003 -2.43163,-1.528553 -0.0628,0 -0.33187,0.186804 -0.59801,0.415777 -0.26609,0.228981 -0.70062,0.589076 -0.96557,0.800213 -0.26495,0.211143 -0.48152,0.405033 -0.48122,0.430866 0,0.02582 0.33668,0.239898 0.74752,0.4757 0.41085,0.235797 1.10273,0.645623 1.53752,0.91072 0.58407,0.356095 0.81899,0.466767 0.89948,0.423698 0.0599,-0.03207 0.38277,-0.316076 0.71744,-0.631134 z m -7.16504,0.255788 c 0.86979,-0.466563 2.19942,-1.308364 2.19942,-1.392462 0,-0.04111 -0.30646,-0.278249 -0.68106,-0.526984 -0.3746,-0.248732 -0.97639,-0.678011 -1.33734,-0.95396 l -0.6563,-0.501719 -0.27395,0.153482 c -0.99739,0.558795 -1.72992,0.939768 -2.12055,1.102886 -0.31112,0.129921 -0.44516,0.220057 -0.43164,0.290304 0.0387,0.200731 2.42363,2.130504 2.63694,2.133653 0.0511,5.29e-4 0.35012,-0.136586 0.66448,-0.3052 z m 3.4485,-2.244524 c 0.35456,-0.270195 0.80909,-0.643509 1.01007,-0.829585 l 0.36547,-0.338315 -0.16338,-0.139155 c -0.0898,-0.07653 -0.35896,-0.252841 -0.59801,-0.391787 l -0.43463,-0.252618 -1.51787,0.03403 -1.51786,0.03403 -0.27178,0.207259 c -0.14941,0.113993 -0.27207,0.237159 -0.27252,0.273703 -0.003,0.156419 2.44237,1.893705 2.66436,1.893705 0.0504,0 0.3816,-0.221072 0.73615,-0.491273 z m 4.42184,-0.715182 c 0.0686,-1.276704 0.0557,-1.916027 -0.0396,-1.952191 -0.0457,-0.01733 -0.29152,0.02824 -0.54631,0.101283 -0.42511,0.12187 -0.50856,0.177874 -1.0133,0.679987 -0.30253,0.30095 -0.54965,0.577744 -0.5492,0.615093 0.003,0.07268 1.90998,1.348332 2.03216,1.3579 0.047,0.0037 0.0883,-0.281139 0.11628,-0.802072 z m -10.10803,0.0094 c 0.8781,-0.443701 1.31416,-0.705004 1.31416,-0.787464 0,-0.12428 -0.72898,-0.739714 -0.87641,-0.739886 -0.0844,0 -0.50943,-0.09016 -0.94451,-0.200144 -0.43505,-0.109982 -0.80671,-0.184227 -0.82595,-0.164989 -0.0477,0.04765 0.0916,2.255914 0.14806,2.347196 0.059,0.09542 0.21257,0.03646 1.18465,-0.454713 z m 7.8245,-1.160325 c 0.16062,-0.163687 0.27503,-0.314675 0.25415,-0.335532 -0.0209,-0.02085 -0.24323,-0.005 -0.49418,0.03527 -0.67435,0.108162 -0.75531,0.129244 -0.75531,0.196699 0,0.06809 0.52467,0.399553 0.63402,0.400543 0.0381,5.29e-4 0.20066,-0.133297 0.36132,-0.296979 z m -5.8791,-0.04015 c 0,-0.05177 -0.0673,-0.103691 -0.14952,-0.115372 -0.16126,-0.02291 -0.21603,0.149664 -0.0664,0.2095 0.12567,0.05027 0.21595,0.01093 0.21595,-0.09413 z m 3.84741,-0.941319 c 0.11708,-0.181769 0.30544,-1.072169 0.30544,-1.443818 0,-0.219692 0.0294,-0.283401 0.15772,-0.341863 0.11448,-0.05216 0.19645,-0.05113 0.299,0.0038 0.11906,0.06371 0.14113,0.13543 0.14015,0.455345 0,0.208846 -0.0455,0.589016 -0.0997,0.844817 -0.0542,0.255805 -0.0985,0.476719 -0.0985,0.490911 0,0.08627 2.00081,-0.249716 2.74675,-0.461253 0.29585,-0.0839 0.43516,-0.33378 0.61256,-1.098561 0.12158,-0.524386 0.18539,-0.625438 0.39489,-0.625438 0.27956,0 0.3297,0.150244 0.2282,0.683556 -0.11792,0.619747 -0.11819,0.615408 0.0376,0.593162 0.3697,-0.05279 1.14477,-0.532794 1.63081,-1.009994 0.96972,-0.95209 1.41676,-2.0188848 1.42041,-3.3896752 0.003,-1.1436959 -0.27614,-1.8961154 -0.97993,-2.6410471 -0.36299,-0.3842068 -1.00759,-0.8428514 -1.10231,-0.7843044 -0.0332,0.020505 -0.0807,0.1642321 -0.10546,0.3193574 -0.0246,0.1551305 -0.0904,0.4672727 -0.14584,0.6936607 l -0.10073,0.4116071 0.35597,0.4042727 c 0.42254,0.4798272 0.85434,1.1197458 0.85434,1.2660922 0,0.1386866 -0.13139,0.2638901 -0.27697,0.2638901 -0.0666,0 -0.23749,-0.1654387 -0.39462,-0.3820637 -0.33999,-0.4687623 -0.72552,-0.8804063 -0.82455,-0.8804063 -0.0406,0 -0.17132,0.1301089 -0.29048,0.2891261 -0.11915,0.1590093 -0.36391,0.4014391 -0.54394,0.5387075 -0.17996,0.1372765 -0.32726,0.2694464 -0.32726,0.2937114 0,0.024262 0.14976,0.3364732 0.33282,0.693793 0.3537,0.6904117 0.36343,0.8477145 0.0585,0.9444964 -0.18611,0.059074 -0.28347,-0.046921 -0.61606,-0.6708246 -0.15046,-0.2823104 -0.32091,-0.5430758 -0.37872,-0.5794745 -0.0773,-0.048646 -0.28866,0.00458 -0.79735,0.2007605 -0.38071,0.1468173 -0.96134,0.3333856 -1.29027,0.4145809 -0.3289,0.081203 -0.61856,0.167058 -0.6437,0.1907937 -0.0251,0.023733 -0.0185,0.3549968 0.0148,0.736145 0.0675,0.7713371 0.0364,0.8684841 -0.2779,0.8684841 -0.2305,0 -0.32046,-0.179845 -0.32628,-0.6521687 -0.003,-0.1712119 -0.0249,-0.4308952 -0.0511,-0.5770775 l -0.0473,-0.2657819 -0.69639,-0.00426 c -0.38301,-0.00238 -1.01592,-0.027535 -1.40647,-0.055938 l -0.71009,-0.051655 -0.0741,0.2751111 c -0.0407,0.15131 -0.095,0.5053886 -0.12051,0.7868444 -0.0452,0.4986316 -0.0512,0.5122836 -0.23315,0.5331466 -0.34687,0.03978 -0.40167,-0.07893 -0.34679,-0.7511738 0.0269,-0.3295306 0.0533,-0.6871441 0.0587,-0.7946787 l 0.01,-0.1955245 -1.11529,-0.2654062 c -1.30506,-0.3105573 -1.18134,-0.3492553 -1.65963,0.5190623 -0.15965,0.2898907 -0.33763,0.5569347 -0.3955,0.5934419 -0.1324,0.083502 -0.45088,-0.1082199 -0.45088,-0.2714096 0,-0.061219 0.14949,-0.3742505 0.33224,-0.6956293 0.18272,-0.3213788 0.33221,-0.6108303 0.33221,-0.6432286 0,-0.032398 -0.0964,-0.098851 -0.21426,-0.1476639 -0.11784,-0.048816 -0.42082,-0.2916476 -0.67326,-0.539631 -0.25246,-0.2479781 -0.49294,-0.4508685 -0.53443,-0.4508685 -0.11271,0 -0.56359,0.3153913 -0.91741,0.6417469 -0.17201,0.1586733 -0.33727,0.2884937 -0.36725,0.2884937 -0.13001,0 -0.34988,-0.218686 -0.34988,-0.3479615 0,-0.17508 0.48977,-0.6402281 1.0164,-0.9652661 0.34631,-0.2137701 0.38518,-0.2593526 0.34983,-0.4104773 -0.10287,-0.439928 -0.23225,-1.1849788 -0.23434,-1.349412 -0.003,-0.2718383 -0.15894,-0.2347992 -0.77809,0.1852824 -0.69429,0.4710959 -1.27746,1.0952215 -1.56017,1.6697696 -0.21172,0.4302892 -0.22214,0.4861718 -0.2205,1.1836797 0.003,0.6680861 0.0193,0.7733691 0.20569,1.2046744 0.41309,0.9572916 1.31818,2.0453301 2.44877,2.9437841 0.71945,0.571711 0.73869,0.559062 0.39563,-0.260215 -0.31962,-0.763305 -0.27951,-1.176417 0.10856,-1.118071 0.11181,0.0168 0.20711,0.16442 0.42211,0.653766 0.15275,0.347631 0.41561,0.845212 0.58415,1.105731 l 0.30641,0.473679 0.7233,0.172944 c 0.67357,0.161058 1.54791,0.292688 1.54791,0.233032 0,-0.01434 -0.0443,-0.235397 -0.0985,-0.491199 -0.0542,-0.255802 -0.099,-0.637661 -0.0997,-0.848579 -0.003,-0.339683 0.0167,-0.391697 0.15656,-0.455348 0.11144,-0.05078 0.19626,-0.05122 0.28921,-0.0013 0.10724,0.05741 0.13957,0.167105 0.17526,0.595217 0.0704,0.843865 0.26342,1.276395 0.60706,1.360109 0.0731,0.01781 0.82741,0.03584 1.67624,0.04008 1.53162,0.0076 1.54406,0.0066 1.6396,-0.141793 z m -1.03454,-5.4410984 c 0.37761,-0.2240703 0.70315,-0.450596 0.72342,-0.5033989 0.0222,-0.058433 -0.10327,-0.2389611 -0.32115,-0.4612799 -0.52605,-0.5367761 -1.62476,-1.4846591 -1.72088,-1.4846591 -0.0457,0 -0.37073,0.2059411 -0.72226,0.4576524 -0.3515,0.2517035 -0.8858,0.6135053 -1.18729,0.8039921 -0.30147,0.1904947 -0.54819,0.3733271 -0.54819,0.4062915 0,0.068088 0.6945,0.5916851 1.10046,0.8296487 0.27495,0.1611709 1.13429,0.3404341 1.69029,0.3526023 0.25328,0.00553 0.40401,-0.055756 0.9856,-0.4008491 z m 1.42115,0.2868004 c 0.0365,-0.036491 -0.004,-0.1354825 -0.10136,-0.2488803 l -0.16195,-0.1882881 -0.37404,0.226695 c -0.20574,0.1246796 -0.37404,0.2546112 -0.37404,0.2887345 0,0.077727 0.92715,0.00598 1.01139,-0.078261 z m 1.47243,-0.3515598 c 0.78904,-0.2693167 1.50149,-0.6174449 1.81087,-0.884891 0.23659,-0.2044912 0.24286,-0.2205144 0.14274,-0.3634661 -0.0576,-0.082246 -0.29123,-0.3426513 -0.51911,-0.5786808 -0.36441,-0.3774334 -0.42839,-0.4188619 -0.53094,-0.3438393 -0.0642,0.046919 -0.39881,0.3245088 -0.74369,0.6168708 -0.34489,0.2923619 -0.81172,0.6735604 -1.03736,0.8471165 -0.22569,0.1735507 -0.41031,0.3386693 -0.41031,0.3669215 0,0.1249309 0.42055,0.5467747 0.54515,0.5467747 0.0752,0 0.40941,-0.093065 0.74265,-0.2068063 z m -6.88575,-0.2084784 c -0.0433,-0.1302809 -0.36846,-0.2230253 -0.46022,-0.1312492 -0.0589,0.058857 -0.0389,0.092736 0.0834,0.1416208 0.23027,0.092033 0.40918,0.087103 0.37682,-0.010398 z m -0.94464,-0.4229286 c 0.0901,-0.059023 0.16325,-0.1263015 0.16261,-0.1495028 -0.003,-0.057422 -1.77808,-1.8694533 -1.83277,-1.8694533 -0.0686,0 0.0285,0.496033 0.17214,0.8797238 0.15227,0.4066751 0.44532,0.7840795 0.81915,1.0548673 0.30189,0.2186861 0.44646,0.2366539 0.67887,0.084365 z m 6.54923,-0.3683132 c 0.41357,-0.2968413 1.59271,-1.2716801 1.76951,-1.4629316 l 0.14824,-0.1603401 -0.48048,-0.4673071 c -0.50956,-0.4956122 -1.35499,-1.2263306 -1.61899,-1.3993099 -0.18309,-0.1199753 -0.0966,-0.176858 -1.23044,0.8093367 -0.37814,0.3289062 -0.76973,0.6621198 -0.87027,0.7404656 -0.10049,0.078354 -0.18272,0.170688 -0.18272,0.2051896 0,0.034507 0.29154,0.3195479 0.64786,0.6334231 0.35631,0.3138832 0.81126,0.7373276 1.01102,0.9410065 0.19976,0.2036684 0.39709,0.3703082 0.43855,0.3703082 0.0414,0 0.20691,-0.094427 0.36772,-0.209841 z m -5.21901,-0.4319799 c 0.88902,-0.5624354 1.82364,-1.2381363 1.82364,-1.3184426 0,-0.095311 -2.48576,-2.092931 -2.60435,-2.092931 -0.0513,0 -0.12176,0.027681 -0.1565,0.06151 -0.0347,0.033827 -0.51734,0.2879936 -1.07252,0.5648166 -0.55514,0.2768177 -1.02616,0.530442 -1.04663,0.5635969 -0.0204,0.033152 0.0867,0.2200169 0.23831,0.4152556 0.32318,0.4163272 2.07309,2.1822305 2.16246,2.1822305 0.0337,0 0.32867,-0.1692169 0.65559,-0.376036 z m 9.20406,-0.6100895 c 0.24273,-0.6389318 0.42513,-2.2013969 0.26834,-2.2983217 -0.0325,-0.020029 -0.20191,0.1351703 -0.37658,0.3449214 -0.17466,0.2097484 -0.51292,0.5825226 -0.75174,0.828384 -0.5208,0.5362443 -0.51834,0.5618797 0.11557,1.2136596 0.48723,0.5009489 0.522,0.4968082 0.74441,-0.088643 z M 435.3646,4.0631773 c 0.57312,-0.6559285 1.26685,-1.555279 1.26685,-1.6423084 0,-0.058452 -2.22244,-1.3898934 -2.3872,-1.43013384 -0.0661,-0.0161396 -0.41598,0.30294524 -0.95168,0.86784134 -0.46596,0.4913524 -0.8472,0.9069202 -0.8472,0.9234778 0,0.016563 0.2766,0.2641706 0.61463,0.5502381 0.33806,0.2860622 0.83079,0.7226988 1.09495,0.970288 0.29271,0.2743412 0.51756,0.435864 0.57571,0.4135517 0.0525,-0.020135 0.33777,-0.3139625 0.63394,-0.6529547 z m -4.97186,-0.1304025 c 0.96025,-0.8048572 1.24592,-1.0912449 1.15445,-1.1572902 -0.72585,-0.5240337 -2.48234,-1.5412852 -2.66128,-1.5412852 -0.0566,0 -0.33285,0.1741011 -0.61391,0.3868869 -0.28107,0.2127859 -0.69964,0.5140855 -0.93017,0.6695414 -0.23051,0.1554639 -0.40992,0.3074247 -0.39868,0.3376957 0.0408,0.1099291 2.41544,1.9856662 2.51934,1.9900794 0.0587,0.00238 0.47736,-0.3060356 0.93025,-0.685628 z m -5.29029,-0.9199192 c 0.45717,-0.2277322 0.83124,-0.4483312 0.83124,-0.4902333 0,-0.041892 -0.2018,-0.2510102 -0.4485,-0.4647089 -0.24669,-0.2136933 -0.66222,-0.5931932 -0.92345,-0.8433303 -0.29326,-0.28082606 -0.49239,-0.4265665 -0.52054,-0.38099996 -0.0249,0.0405871 -0.0238,0.64068326 0.003,1.33356356 0.0377,0.9906661 0.0671,1.2597633 0.13777,1.2597633 0.0494,0 0.46392,-0.1863276 0.92109,-0.4140544 z m 7.73411,-1.3507377 c 0.61704,-0.6418606 0.82603,-0.90004899 0.72178,-0.89170933 -0.009,5.2917e-4 -0.27074,0.0458946 -0.58139,0.10035911 -0.31062,0.0544671 -1.12638,0.11810736 -1.81282,0.14142242 -0.68643,0.02331 -1.26212,0.065178 -1.27931,0.093025 -0.0172,0.027847 0.2155,0.1926749 0.5171,0.3662839 0.30165,0.173609 0.75496,0.4603406 1.00735,0.6371881 0.25241,0.1768448 0.51067,0.3215349 0.5739,0.3215349 0.0632,0 0.44728,-0.3456411 0.85339,-0.7681041 z m -5.64041,0.1398217 c 0.85746,-0.5835729 1.04468,-0.7430558 0.96348,-0.82077187 -0.0365,-0.0349911 -0.3206,-0.0995177 -0.63125,-0.14339095 -0.70789,-0.099986 -2.12018,-0.45927169 -2.83966,-0.72241041 -0.30364,-0.11104563 -0.56425,-0.17283907 -0.58526,-0.13878719 -0.0209,0.03376877 0.12075,0.22991498 0.31472,0.43589312 0.46376,0.49238959 1.97326,1.8183199 2.07063,1.8187538 0.0419,0 0.36018,-0.1929924 0.70734,-0.4292865 z m 9.60652,-1.11591724 c 0.0262,-0.57558518 0.0273,-1.04652236 0.003,-1.04652236 -0.0244,0 -0.24554,0.10034059 -0.49131,0.22297761 -0.24577,0.12264232 -0.72443,0.3214476 -1.0637,0.44179333 -0.34285,0.12161044 -0.60619,0.25131184 -0.59278,0.29197565 0.0363,0.11014605 1.99382,1.24265801 2.04944,1.18567731 0.0266,-0.027154 0.0695,-0.5203137 0.0955,-1.09590154 z M 432.1796,0.16129275 c 0.38373,-0.0402643 0.75936,-0.09651736 0.83476,-0.12501828 0.16214,-0.06126956 0.25524,-0.34532359 0.36502,-1.11360477 0.0951,-0.6650567 0.22849,-0.8783003 0.47839,-0.7644369 0.26686,0.1215734 0.28591,0.4784884 0.0783,1.46465666 -0.0586,0.27837607 0.0266,0.2808658 0.81235,0.0237331 1.54167,-0.50450487 1.81242,-0.81027326 1.85303,-2.09272986 0.0193,-0.6167305 0.0604,-0.7020983 0.33753,-0.7040933 0.25324,-0.00185 0.31819,0.1667537 0.3093,0.8028173 -0.005,0.3253396 0.0146,0.5915263 0.0425,0.5915263 0.1414,0 1.02965,-0.708271 1.4419,-1.1496754 0.83071,-0.8895107 1.18367,-1.7578494 1.18018,-2.9035164 -0.003,-0.6033612 -0.0295,-0.7760918 -0.20476,-1.2777047 -0.11145,-0.3190135 -0.33147,-0.7974251 -0.48893,-1.0631329 -0.30133,-0.5084313 -0.95276,-1.2472353 -1.09974,-1.2472353 -0.0487,0 -0.10361,0.108794 -0.12562,0.2491713 -0.0214,0.1370463 -0.0844,0.4497653 -0.13965,0.6949388 l -0.10052,0.4457567 0.35568,0.4312206 c 0.19564,0.2371725 0.42458,0.5691214 0.50874,0.737669 0.14772,0.2958147 0.14891,0.3110177 0.0336,0.4384622 -0.18963,0.2095156 -0.43111,0.1394962 -0.60418,-0.1752045 -0.081,-0.1472432 -0.24696,-0.3830875 -0.36885,-0.5240972 l -0.22164,-0.2563839 -0.34335,0.3579839 c -0.19312,0.2013691 -0.5765,0.4887965 -0.87628,0.6569895 -0.2931,0.1644518 -0.53363,0.3227123 -0.53448,0.3516921 -0.003,0.028975 0.11451,0.2083779 0.25646,0.3986742 0.49773,0.6673347 0.55036,0.8902991 0.24326,1.0302293 -0.20503,0.093414 -0.2862,0.028482 -0.6825,-0.5459465 -0.17443,-0.2528465 -0.36689,-0.4902703 -0.42769,-0.5276057 -0.0818,-0.050268 -0.28022,-0.012541 -0.76415,0.1453092 -0.65489,0.2136378 -1.8624,0.4756732 -2.20077,0.4775809 -0.39064,0.00212 -0.38857,-0.012171 -0.18061,1.2754927 0.0352,0.2180088 -0.11128,0.3846328 -0.33819,0.3846328 -0.20172,0 -0.26395,-0.1379009 -0.35967,-0.7972214 -0.11372,-0.7830899 -0.0951,-0.7700618 -1.17393,-0.8191817 -0.50531,-0.023019 -1.04344,-0.061061 -1.19589,-0.084561 l -0.27721,-0.042725 -0.1756,0.3465089 c -0.0965,0.1905794 -0.22765,0.5582629 -0.29126,0.8170837 -0.13017,0.5295 -0.24153,0.6467025 -0.50183,0.5280924 -0.23532,-0.1072039 -0.22678,-0.4019047 0.0337,-1.1604043 0.11274,-0.3283215 0.18,-0.6186038 0.14949,-0.6450701 -0.0305,-0.026471 -0.32814,-0.1132416 -0.66141,-0.1928309 -0.33324,-0.079597 -0.9272,-0.248846 -1.31987,-0.3761158 -0.39267,-0.1272726 -0.76652,-0.2314046 -0.83079,-0.2314046 -0.12795,0 -0.45913,0.3433365 -0.94766,0.9825143 -0.33671,0.4405234 -0.48188,0.5001155 -0.68138,0.2796831 -0.10271,-0.1134824 -0.10851,-0.1594961 -0.0393,-0.3113643 0.097,-0.2129525 0.40796,-0.6264063 0.72303,-0.9613768 0.12578,-0.1337019 0.21778,-0.2739178 0.2045,-0.3115865 -0.0132,-0.037666 -0.22911,-0.2794583 -0.47961,-0.5373132 l -0.45538,-0.4688232 -0.20738,0.1159563 c -0.11403,0.063775 -0.34819,0.257982 -0.52036,0.4315725 -0.17213,0.1735904 -0.36488,0.3156161 -0.42833,0.3156161 -0.14115,0 -0.3584,-0.1873779 -0.3584,-0.30911 0,-0.1305269 0.44505,-0.6018001 0.85322,-0.9034992 0.29015,-0.2144607 0.34727,-0.28838 0.31306,-0.4052517 -0.0227,-0.078624 -0.10163,-0.4416452 -0.17478,-0.8067199 -0.0731,-0.3650668 -0.16161,-0.6924358 -0.19667,-0.7274931 -0.11075,-0.1107466 -1.32014,1.1937789 -1.65452,1.7846464 -1.09678,1.9382238 -0.69355,3.8773048 1.16779,5.6155856 0.27649,0.2582227 0.53309,0.4694925 0.57018,0.4694925 0.0731,0 0.0647,-0.044797 -0.15401,-0.8117417 -0.16936,-0.5940292 -0.12174,-0.7380261 0.23264,-0.7032942 0.19601,0.019209 0.21352,0.047696 0.44144,0.7176876 0.13051,0.3837252 0.35515,0.8881401 0.49924,1.1209205 0.2346,0.3791321 0.30347,0.44017672 0.66058,0.5857346 0.55214,0.22502548 1.56467,0.55250028 1.70829,0.55250028 0.14496,0 0.14657,-0.0379651 0.0172,-0.40446061 -0.14602,-0.41388507 -0.20545,-1.22640987 -0.0991,-1.35458467 0.10173,-0.1225788 0.35774,-0.1329716 0.45267,-0.018362 0.0379,0.045683 0.10179,0.3222625 0.14211,0.6146218 0.0806,0.58522396 0.32157,1.15526877 0.57131,1.35169544 0.18212,0.14326923 1.11985,0.28881124 1.94268,0.30151653 l 0.51398,0.007937 -0.0114,-0.26578455 c -0.006,-0.14617965 0.004,-0.51305885 0.0225,-0.81528975 0.043,-0.69235107 0.19908,-0.88964297 0.51882,-0.65585177 0.10991,0.080378 0.12179,0.1760431 0.10798,0.86832807 -0.01,0.49376278 0.0114,0.81037643 0.0581,0.86665596 0.082,0.0988536 0.64741,0.0863891 1.86209,-0.0410554 z M 429.86143,-6.041615 c 0.14846,-0.8995701 0.22513,-3.7995437 0.22489,-8.505061 0,-5.271754 -0.0206,-5.872242 -0.33959,-10.000091 -0.0918,-1.18772 -0.18431,-3.027595 -0.20558,-4.088617 -0.0355,-1.765699 -0.029,-1.938792 0.0753,-2.043208 0.1423,-0.142261 0.32883,-0.146134 0.46533,-0.0097 0.0894,0.08939 0.10443,0.345178 0.10451,1.777426 5e-5,1.061492 0.0491,2.304475 0.13406,3.400599 0.37536,4.838798 0.49662,8.308888 0.44011,12.591476 -0.0377,2.856188 -0.0751,3.9631334 -0.21572,6.3954083 l -0.0452,0.7807379 0.69048,-0.00355 c 0.7234,-0.00365 1.68175,-0.129495 1.7838,-0.23418 0.15891,-0.1629516 0.64484,-3.3129142 0.80899,-5.2440762 0.11006,-1.29463 0.11176,-5.993868 0.003,-7.608041 -0.0456,-0.676087 -0.15793,-2.298747 -0.24953,-3.605908 -0.18481,-2.637531 -0.1861,-2.604722 0.17788,-4.533702 0.21069,-1.116645 0.59873,-2.795778 0.71782,-3.10634 0.0542,-0.141269 0.1138,-0.182727 0.26291,-0.182727 0.37248,0 0.3832,0.104849 0.12071,1.18028 -0.32057,1.31336 -0.62159,2.825578 -0.72105,3.622524 -0.0719,0.576551 -0.0601,0.965142 0.10137,3.32376 0.27352,3.996682 0.31043,4.856908 0.31247,7.288861 0.003,2.237533 -0.0551,3.456609 -0.23905,5.1163238 -0.0977,0.8816102 -0.46723,3.2392144 -0.53554,3.4173293 -0.0731,0.190418 0.12565,0.1673887 0.7862,-0.09112 0.75272,-0.2945791 1.64653,-0.7792349 1.91972,-1.0409661 0.47402,-0.4541573 0.67587,-1.1164623 0.81798,-2.683918 0.21503,-2.371743 0.26821,-3.814635 0.26824,-7.275814 2e-5,-2.886739 -0.0209,-3.727516 -0.11706,-4.663663 -0.16137,-1.573974 -0.11604,-1.803058 0.78518,-3.970726 0.70279,-1.690336 0.78476,-1.997692 0.79097,-2.966067 l 0.005,-0.836236 -0.26287,-0.518335 c -0.46683,-0.92052 -1.48669,-1.857015 -2.66075,-2.443229 -1.08641,-0.542459 -2.87856,-1.120193 -4.15907,-1.340741 -2.08859,-0.359736 -4.29715,-0.0757 -6.22903,0.801089 -1.50657,0.683758 -3.07806,2.098098 -3.68139,3.313208 -0.49218,0.991306 -0.41558,1.646616 0.41069,3.512862 0.45537,1.028468 0.68178,1.743819 0.8019,2.533703 0.10721,0.704694 0.10348,2.397152 -0.008,3.754189 -0.11393,1.383771 -0.11555,6.406724 -0.003,7.807381 0.16235,2.011804 0.47561,3.951743 0.72229,4.4731177 0.25381,0.5364692 1.00644,1.0535974 1.99826,1.372968 0.53224,0.171405 0.53562,0.1661636 0.43405,-0.6731609 -0.18124,-1.4972956 -0.41894,-3.8281298 -0.53094,-5.2061488 -0.15989,-1.967211 -0.16097,-7.081578 -0.003,-9.831705 0.14586,-2.525178 0.15001,-4.615506 0.0103,-5.230754 -0.0565,-0.248947 -0.24116,-0.911853 -0.41039,-1.473124 -0.33547,-1.112761 -0.3329,-1.222391 0.0295,-1.258842 0.17971,-0.01807 0.21201,0.0083 0.30975,0.252555 0.21638,0.54079 0.69551,2.304624 0.77616,2.857349 0.0872,0.597334 0.0549,2.850955 -0.0697,4.862608 -0.22276,3.597389 -0.21027,7.29936 0.0349,10.35348 0.15396,1.917718 0.57949,5.6209541 0.65447,5.6959582 0.051,0.050977 1.44113,0.3431143 1.95215,0.4102364 0.67598,0.088799 0.70308,0.080674 0.75364,-0.2257425 z m -7.35841,-4.537411 c 0.0177,-0.02878 -0.003,-0.410009 -0.0459,-0.847183 l -0.0782,-0.794864 -2.19271,-0.04224 c -3.66942,-0.07069 -6.30584,-0.3894 -9.25861,-1.119235 -1.84285,-0.455488 -4.2775,-1.298133 -4.35819,-1.508379 -0.0579,-0.150844 0.0161,-0.342104 0.16295,-0.42064 0.0964,-0.05162 0.27525,-0.0075 0.77624,0.191355 2.74248,1.088795 6.29174,1.839164 10.11946,2.139421 1.26953,0.09958 4.56618,0.107172 4.66262,0.01071 0.0476,-0.04756 0.0558,-0.260905 0.0243,-0.636193 l -0.0471,-0.564634 -1.37324,-0.0011 c -1.37737,-0.0011 -2.30891,-0.05636 -4.16391,-0.247074 -1.7472,-0.179636 -2.42382,-0.276264 -2.52552,-0.360677 -0.12293,-0.102013 -0.1269,-0.268354 -0.0103,-0.427956 0.0855,-0.116892 0.12472,-0.117374 1.0133,-0.01243 2.56548,0.302969 4.87085,0.466392 6.07975,0.43098 0.45361,-0.01328 0.86212,-0.04816 0.90779,-0.0775 0.10628,-0.06825 0.12065,-2.738696 0.0151,-2.803935 -0.0374,-0.0231 -1.11609,-0.03876 -2.3971,-0.0348 -4.96975,0.01537 -8.59186,-0.505934 -12.06029,-1.735744 -2.45695,-0.871164 -5.33111,-2.771201 -7.57129,-5.005165 -1.56226,-1.55793 -2.4503,-2.700761 -4.51839,-5.81483 -1.47752,-2.224829 -1.9811,-2.863104 -2.72566,-3.454784 -0.49125,-0.390403 -1.26622,-0.864193 -1.41349,-0.864193 -0.0448,0 -0.0767,0.107746 -0.0767,0.259596 0,0.231865 0.0371,0.290425 0.34705,0.548177 1.51747,1.26179 2.31712,2.22486 2.97249,3.580069 0.31851,0.65867 0.34475,0.906159 0.10255,0.966941 -0.0913,0.02291 -0.20994,0.02477 -0.26373,0.0042 -0.0538,-0.02064 -0.25189,-0.344662 -0.44027,-0.720058 -0.18838,-0.375396 -0.493,-0.90742 -0.67694,-1.182283 -0.35972,-0.537564 -1.77826,-1.994778 -1.94185,-1.994778 -0.0791,0 -0.0993,0.09935 -0.0993,0.488191 v 0.488193 l 0.39118,0.411091 c 0.57674,0.606144 1.10461,1.37899 2.18369,3.197286 1.7385,2.929363 2.15217,3.607295 2.85837,4.684427 1.20714,1.841177 2.27277,3.203083 3.51843,4.496602 0.37566,0.390056 0.68297,0.741386 0.68297,0.780737 0,0.106627 -0.2509,0.337331 -0.36687,0.337331 -0.10967,0 -1.20198,-1.106308 -1.93532,-1.96015 -1.32223,-1.539499 -2.76871,-3.699087 -4.73972,-7.076477 -1.36194,-2.33367 -2.36075,-3.853858 -2.53217,-3.853858 -0.0333,0 -0.0606,0.34671 -0.0606,0.77047 v 0.770464 l 0.40579,0.606668 c 0.22318,0.333666 0.64074,1.075844 0.92787,1.649288 0.28715,0.573442 0.72824,1.366536 0.9802,1.76243 0.25196,0.395893 0.81666,1.302872 1.25492,2.0155 2.03681,3.312023 2.91616,4.500304 4.50056,6.081726 1.10397,1.101895 1.78975,1.661338 2.93092,2.390942 1.87862,1.201097 3.8553,2.008206 6.74077,2.752318 4.10781,1.059341 6.57262,1.47779 9.80074,1.663882 2.08685,0.120306 3.46935,0.152649 3.5129,0.08219 z m 17.65006,-0.216506 c 9.12363,-0.480057 14.20742,-1.831411 18.02792,-4.792081 2.32233,-1.799685 4.26077,-4.014044 6.81344,-7.78324 1.27429,-1.881566 1.47217,-2.203553 2.23354,-3.634409 0.32086,-0.602996 0.71414,-1.309725 0.874,-1.570511 0.26606,-0.43416 0.29056,-0.511236 0.29056,-0.91363 0,-0.241713 -0.0235,-0.439473 -0.0526,-0.439473 -0.0796,0 -0.54498,0.500319 -1.03171,1.109257 -0.51128,0.639668 -1.27151,1.78987 -2.25714,3.415113 -0.96795,1.596059 -1.63949,2.547008 -1.81644,2.572255 -0.16291,0.02326 -0.35738,-0.144343 -0.35656,-0.307287 0,-0.06135 0.2045,-0.399912 0.45374,-0.752375 0.24921,-0.352459 0.74729,-1.129879 1.1068,-1.727589 1.5153,-2.519333 2.76347,-4.23872 3.58897,-4.943967 l 0.36494,-0.311793 v -0.689607 c 0,-0.547013 -0.019,-0.68961 -0.0931,-0.68961 -0.15959,0 -0.8705,0.577519 -1.38776,1.127384 -0.61513,0.653873 -1.00352,1.170512 -2.03219,2.703428 -0.44522,0.663411 -0.85773,1.224727 -0.91673,1.247365 -0.1407,0.05399 -0.42077,-0.132387 -0.42077,-0.280003 0,-0.119362 1.44156,-2.301923 2.08347,-3.154455 0.4881,-0.648243 1.69341,-1.808219 2.28534,-2.199379 l 0.48172,-0.318341 v -0.368099 c 0,-0.467225 -0.003,-0.466473 -1.01049,0.236855 -1.51107,1.05509 -2.3131,1.966336 -4.07194,4.626542 -1.30395,1.972225 -1.79393,2.599954 -2.85348,3.655885 -2.55987,2.551113 -5.91254,4.623097 -8.9081,5.505363 -3.85927,1.136655 -7.08332,1.623433 -11.06321,1.670381 l -2.09304,0.02468 -0.0191,0.597361 -0.019,0.597357 0.31806,0.04776 c 0.17491,0.02625 1.03566,0.02455 1.91275,-0.0038 1.98353,-0.06414 1.89976,-0.0659 1.96784,0.04148 0.0844,0.133242 0.0705,0.362561 -0.027,0.44345 -0.11858,0.09842 -2.69721,0.223454 -3.47736,0.168613 -0.5097,-0.03583 -0.64739,-0.02619 -0.69475,0.04863 -0.0325,0.05132 -0.0595,0.384273 -0.0601,0.739889 0,0.643165 0,0.646813 0.17372,0.690448 0.22892,0.05745 2.29042,-0.02262 3.68372,-0.143065 2.80164,-0.2422 6.08716,-0.796912 8.28058,-1.398061 0.93403,-0.255992 1.03442,-0.267523 1.14708,-0.131786 0.12935,0.155879 0.0545,0.392348 -0.156,0.49295 -0.30306,0.14482 -2.40163,0.654066 -3.72145,0.903068 -2.72319,0.513752 -5.41472,0.821073 -7.7779,0.888095 l -1.59187,0.04515 -0.0552,0.265785 c -0.0304,0.146179 -0.0466,0.445185 -0.0361,0.664456 l 0.019,0.398676 0.73091,-0.0168 c 1.58872,-0.0365 3.96608,-0.251923 6.09306,-0.552092 5.75448,-0.812105 10.0628,-2.389704 12.98718,-4.755598 0.64228,-0.519596 1.60624,-1.493684 1.92569,-1.945854 0.10467,-0.148153 0.2426,-0.286758 0.30655,-0.308012 0.17325,-0.05757 0.36968,0.02588 0.41778,0.17749 0.0538,0.169458 -0.13097,0.449469 -0.78399,1.188183 -3.42059,3.86941 -10.43495,6.257539 -19.91638,6.780787 -0.74914,0.04135 -1.46677,0.0959 -1.59469,0.12123 l -0.23255,0.04605 -0.0198,0.422653 c -0.0273,0.575723 -0.009,0.607169 0.33319,0.569701 0.15669,-0.01714 0.89781,-0.06344 1.64698,-0.102865 z m -17.64577,-12.224515 c -0.003,-0.561766 -0.0434,-0.9897 -0.12544,-1.327383 -0.13142,-0.541134 -0.42302,-1.328915 -0.49189,-1.328915 -0.0236,0 -0.3656,0.164772 -0.76012,0.36616 -0.74237,0.378984 -0.89882,0.398412 -1.00386,0.124669 -0.079,-0.205827 0.0267,-0.333386 0.43792,-0.528783 0.22526,-0.107035 0.5421,-0.278217 0.70413,-0.380407 0.34084,-0.215004 0.34137,-0.166394 -0.0124,-1.129483 -0.13288,-0.361667 -0.27488,-0.91354 -0.31965,-1.242134 l -0.0805,-0.591301 -0.46794,-0.170667 c -0.6518,-0.237731 -0.89906,-0.399061 -0.89906,-0.58665 0,-0.351094 0.24707,-0.394655 0.7877,-0.138891 0.20272,0.09591 0.45431,0.178136 0.55911,0.182727 0.17153,0.0075 0.20587,-0.0291 0.34518,-0.368001 0.22886,-0.556916 0.6967,-1.244132 1.227,-1.802421 0.25834,-0.271979 0.46974,-0.531972 0.46974,-0.577763 0,-0.04579 -0.1049,-0.25595 -0.23312,-0.467027 -0.29202,-0.480697 -0.56425,-1.090938 -0.56425,-1.264856 0,-0.164195 0.29824,-0.316765 0.44111,-0.225645 0.0542,0.03457 0.25369,0.359037 0.44334,0.721043 0.18965,0.362 0.39121,0.687022 0.44797,0.722265 0.0775,0.0482 0.22799,-0.01979 0.60713,-0.274537 0.48163,-0.323522 1.56433,-0.882859 2.0391,-1.053389 0.14112,-0.05069 0.20986,-0.112022 0.18613,-0.166113 -0.37925,-0.864658 -0.51025,-1.346224 -0.51025,-1.87557 0,-0.308756 0.0888,-0.436118 0.30417,-0.436118 0.21534,0 0.27508,0.114159 0.3529,0.674256 0.0772,0.555411 0.28294,1.172432 0.45966,1.378331 0.11184,0.130291 0.11684,0.130109 0.8102,-0.02934 0.38373,-0.08825 0.95102,-0.183399 1.26066,-0.211442 0.73721,-0.06677 0.75153,-0.09093 0.71041,-1.199356 -0.0322,-0.867992 0.009,-1.011121 0.29131,-1.011121 0.27289,0 0.35057,0.27641 0.34671,1.233831 -0.003,0.490839 0.0198,0.892435 0.0487,0.892435 0.31904,0 1.60729,0.174865 2.28365,0.30997 0.71115,0.14206 0.86492,0.155508 0.91392,0.07992 0.11803,-0.18214 0.33034,-0.962623 0.36785,-1.352307 0.0602,-0.625163 0.26866,-0.840391 0.58791,-0.606944 0.11668,0.08532 0.12025,0.130911 0.0508,0.647846 -0.0412,0.305834 -0.14912,0.789617 -0.23995,1.075071 l -0.16521,0.519009 0.14372,0.06014 c 0.0791,0.03308 0.44273,0.168897 0.8082,0.301821 0.36544,0.132927 0.91233,0.356807 1.21526,0.497512 0.30292,0.140705 0.58758,0.241697 0.63262,0.224425 0.0981,-0.03764 0.57652,-0.745141 0.77435,-1.145075 0.0777,-0.157096 0.18484,-0.302347 0.2381,-0.322781 0.1497,-0.05745 0.40934,0.03008 0.45691,0.154041 0.0526,0.137062 -0.21281,0.692909 -0.60288,1.262666 -0.15899,0.232235 -0.28908,0.445711 -0.28908,0.474392 0,0.02868 0.14742,0.164563 0.32758,0.301956 0.46413,0.353954 1.14212,1.090009 1.40705,1.527511 0.12404,0.204864 0.26408,0.373332 0.31123,0.374367 0.12848,0.0028 0.59695,-0.249182 1.02844,-0.553241 l 0.38327,-0.270055 0.18071,0.180747 c 0.14512,0.145111 0.16664,0.203536 0.10906,0.296313 -0.10141,0.163459 -0.65889,0.577275 -1.08778,0.807421 l -0.3637,0.19518 -0.003,0.91862 c -0.003,0.751261 -0.0312,1.025369 -0.15989,1.504577 l -0.15732,0.585957 0.22458,0.190132 c 0.12351,0.104572 0.38507,0.289402 0.58121,0.410729 0.63238,0.391131 0.69662,0.462137 0.60338,0.666782 -0.0445,0.09776 -0.1234,0.194016 -0.17526,0.213913 -0.11369,0.04364 -0.59642,-0.196118 -1.05032,-0.52164 -0.18261,-0.130968 -0.36549,-0.238127 -0.4064,-0.238127 -0.0409,0 -0.23185,0.381233 -0.42428,0.847182 -0.66352,1.606706 -0.78603,2.090799 -0.70109,2.770606 0.0378,0.302411 0.0689,0.368959 0.17269,0.368959 0.25911,0 1.0155,-0.339537 1.49534,-0.671256 1.90823,-1.319149 2.84846,-3.639725 2.851,-7.036456 0.003,-2.604133 -0.54378,-3.816816 -2.6038,-5.786343 -0.70048,-0.669689 -1.66923,-1.38635 -2.48729,-1.840039 -2.8185,-1.56313 -7.32557,-2.090849 -10.98931,-1.286709 -2.3794,0.522243 -4.41579,1.675482 -5.84473,3.309914 -1.19131,1.362654 -2.13862,3.149984 -2.5274,4.768593 -0.47112,1.961328 -0.28464,4.095946 0.49953,5.71835 0.42072,0.870389 1.40295,1.907064 2.34908,2.479223 0.39809,0.240723 1.21541,0.553296 1.37377,0.525354 0.0826,-0.01455 0.0989,-0.159462 0.0952,-0.846622 z m -37.63711,-1.496071 c 0.20965,-0.106613 0.4188,-0.335192 0.55702,-0.608758 0.1456,-0.288174 0.14195,-0.447138 -0.009,-0.384485 -0.5861,0.243544 -1.13761,0.297225 -1.30756,0.12727 -0.2525,-0.252508 -0.006,-0.560043 0.4485,-0.560043 0.33772,0 0.67788,-0.166675 0.87942,-0.430909 0.14976,-0.19635 0.16236,-0.270393 0.16236,-0.954114 0,-0.407686 -0.0112,-0.741243 -0.0249,-0.741243 -0.0137,0 -0.15199,0.04485 -0.30736,0.09967 -0.3386,0.119465 -1.00486,0.131361 -1.11629,0.01992 -0.10408,-0.104087 -0.1022,-0.351377 0.003,-0.434691 0.0457,-0.03607 0.25552,-0.08248 0.46632,-0.103127 0.43581,-0.0427 0.78691,-0.229857 0.90102,-0.480298 0.10685,-0.234519 0.1053,-1.838182 -0.002,-1.945365 -0.0482,-0.04817 -0.2817,-0.07974 -0.58988,-0.07974 -0.56657,0 -0.68345,-0.06745 -0.6475,-0.373655 0.0275,-0.233828 0.26963,-0.310245 0.83538,-0.263599 0.22841,0.01884 0.41907,0.01294 0.4237,-0.0131 0.0296,-0.166632 0.0509,-1.534343 0.0257,-1.647251 -0.0412,-0.184293 -0.30113,-0.293785 -0.69735,-0.293785 -0.4819,0 -0.66565,-0.08901 -0.66565,-0.322448 0,-0.305139 0.12728,-0.360162 0.77028,-0.332981 l 0.57229,0.02418 0.0202,-0.490625 c 0.0185,-0.447741 0.006,-0.503714 -0.14135,-0.640371 -0.17527,-0.16243 -0.61663,-0.29759 -0.97179,-0.29759 -0.27235,0 -0.38254,-0.1 -0.38254,-0.347162 0,-0.26112 0.24241,-0.347623 0.73,-0.260504 0.20149,0.036 0.41868,0.086 0.48263,0.111112 0.19789,0.07769 0.14055,-0.24107 -0.0947,-0.526471 -0.48588,-0.589454 -1.1826,-0.579792 -1.78717,0.02477 -0.5479,0.547902 -0.56136,0.639363 -0.55229,3.755745 0.008,2.8853 0.17975,7.143149 0.3042,7.558529 0.10449,0.348764 0.4926,0.766755 0.81765,0.880611 0.28154,0.09861 0.61759,0.07256 0.89702,-0.06954 z m 4.98295,-0.005 c 0.27291,-0.109199 0.53205,-0.393279 0.53205,-0.583253 0,-0.0903 -0.0702,-0.09924 -0.49657,-0.0632 -0.54181,0.0458 -0.70026,-0.01495 -0.69843,-0.267755 0.002,-0.251632 0.10446,-0.32176 0.53925,-0.368417 0.46678,-0.05008 0.68422,-0.142597 0.78711,-0.334893 0.0374,-0.06985 0.068,-0.521415 0.068,-1.00347 v -0.876472 l -0.21595,0.04565 c -0.11874,0.02511 -0.3697,0.0626 -0.55764,0.08331 -0.3153,0.03475 -0.35054,0.02416 -0.45615,-0.137014 -0.10439,-0.159327 -0.10537,-0.188542 -0.011,-0.33252 0.0855,-0.130485 0.17337,-0.162907 0.50688,-0.187032 0.26662,-0.01929 0.46511,-0.07518 0.58529,-0.164798 0.17957,-0.133908 0.18206,-0.14627 0.20047,-0.983115 0.0124,-0.56805 -0.007,-0.877943 -0.058,-0.939824 -0.0524,-0.06311 -0.22754,-0.09232 -0.55351,-0.09232 -0.52448,0 -0.6364,-0.06008 -0.6364,-0.341595 0,-0.252643 0.0891,-0.28964 0.69768,-0.28964 h 0.53158 l 0.0182,-0.868439 c 0.0222,-1.046342 0,-1.082847 -0.68926,-1.154234 -0.5727,-0.05927 -0.78648,-0.297953 -0.5124,-0.572035 0.10794,-0.107944 0.37203,-0.111852 1.05032,-0.01556 0.11832,0.0168 0.13518,-0.02482 0.15393,-0.379807 0.0114,-0.219271 0.003,-0.528195 -0.0214,-0.686501 -0.037,-0.250502 -0.073,-0.300567 -0.27768,-0.38608 -0.12935,-0.05404 -0.38878,-0.115504 -0.57652,-0.136591 -0.39859,-0.04476 -0.50747,-0.113226 -0.50747,-0.31908 0,-0.261834 0.15334,-0.322397 0.69945,-0.276233 0.45283,0.03828 0.49659,0.03123 0.49659,-0.0801 0,-0.178655 -0.36496,-0.652714 -0.59343,-0.770866 -0.60268,-0.311661 -1.33444,0.135326 -1.67352,1.022252 -0.20749,0.542742 -0.27413,2.418853 -0.23854,6.7163 0.0322,3.891431 0.0489,4.068956 0.42031,4.463822 0.1053,0.111962 0.28116,0.243605 0.39079,0.292542 0.27319,0.121939 0.7734,0.115983 1.09588,-0.01304 z m 87.16079,-0.237479 c 0.22955,-0.139555 0.41524,-0.362239 0.41524,-0.497965 0,-0.0571 -0.16738,-0.08809 -0.54817,-0.101496 l -0.54819,-0.01929 v -0.265785 -0.265782 l 0.47496,-0.04244 c 0.88929,-0.07947 1.01713,-0.172064 1.01917,-0.738294 l 0.003,-0.249171 h -0.61646 c -0.65095,0 -0.91284,-0.09183 -0.91077,-0.319384 0.003,-0.268989 0.10475,-0.310838 0.84354,-0.345075 l 0.71692,-0.03322 0.0496,-0.890566 c 0.0348,-0.625864 0.0274,-0.917175 -0.0246,-0.980075 -0.0878,-0.105772 -0.83982,-0.122801 -1.17523,-0.02661 -0.12062,0.03459 -0.2627,0.04625 -0.31575,0.02588 -0.12761,-0.04897 -0.19865,-0.347612 -0.11446,-0.481139 0.086,-0.136374 0.68014,-0.27449 1.14874,-0.267036 0.20103,0.0032 0.40283,0.0034 0.44852,2.64e-4 0.0624,-0.0041 0.0831,-0.24575 0.0831,-0.970989 0,-0.816663 -0.0161,-0.971732 -0.10445,-1.005636 -0.0575,-0.02204 -0.37568,-0.0013 -0.70713,0.0463 -0.57092,0.08183 -0.60759,0.0797 -0.6954,-0.0404 -0.13301,-0.181859 -0.0823,-0.379016 0.12268,-0.47693 0.0974,-0.04655 0.44128,-0.10663 0.76412,-0.133514 l 0.58695,-0.04888 0.019,-0.658966 c 0.014,-0.482417 -0.004,-0.673518 -0.0665,-0.713274 -0.12107,-0.07683 -0.70342,-0.06855 -1.00153,0.01421 -0.30173,0.08379 -0.49122,0.03514 -0.54694,-0.140417 -0.11219,-0.353406 0.24307,-0.539297 1.0414,-0.54496 0.2318,-0.0016 0.44047,-0.03213 0.46368,-0.06775 0.0529,-0.08114 -0.0523,-0.471974 -0.21095,-0.783786 -0.16534,-0.324961 -0.60013,-0.703011 -0.90631,-0.788027 -0.31268,-0.08683 -0.3279,-0.08685 -0.63772,-7.94e-4 -0.37071,0.102939 -0.68527,0.413941 -0.84175,0.832136 -0.1265,0.338058 -0.1352,0.498679 -0.12665,2.338205 0.005,1.086369 -0.0246,2.633025 -0.0662,3.43702 -0.0965,1.871998 -0.0973,3.716213 -0.003,4.1662 0.0994,0.468853 0.27863,0.809078 0.51493,0.977355 0.40434,0.287899 1.0359,0.313952 1.45367,0.05996 z m -6.07272,-0.07894 c 0.46548,-0.19449 0.84005,-0.948663 0.84005,-1.691304 v -0.260373 l -0.64783,0.0082 -0.64786,0.0082 -0.0214,-0.186743 c -0.0305,-0.266544 0.0922,-0.378048 0.41619,-0.378048 0.15333,0 0.43254,-0.04565 0.62042,-0.101446 0.40937,-0.121573 0.43066,-0.185058 0.40021,-1.194245 l -0.0198,-0.664458 -0.66445,-0.03322 c -0.36544,-0.01826 -0.70183,-0.05741 -0.7475,-0.08698 -0.12068,-0.0781 -0.10269,-0.427005 0.0257,-0.498869 0.0598,-0.03348 0.37325,-0.0458 0.69647,-0.02738 0.41783,0.02381 0.61682,0.0093 0.68855,-0.05022 0.0794,-0.06592 0.10086,-0.244904 0.10086,-0.841365 v -0.757634 l -0.18272,-0.07234 c -0.10049,-0.03979 -0.39204,-0.08775 -0.64784,-0.106579 -0.60671,-0.04466 -0.71104,-0.101071 -0.68495,-0.370385 l 0.0204,-0.211535 h 0.76415 0.76411 l 0.0183,-0.944578 0.0182,-0.944576 -0.28418,-0.145341 c -0.16696,-0.08537 -0.48615,-0.165227 -0.77365,-0.193537 -0.5085,-0.05008 -0.60407,-0.110239 -0.60587,-0.381389 -0.003,-0.247499 0.25064,-0.317775 0.81497,-0.22697 0.26385,0.04245 0.54698,0.09601 0.62918,0.119015 0.19413,0.0543 0.19831,-0.104101 0.0156,-0.592352 -0.45058,-1.204291 -1.7662,-1.303489 -2.438,-0.18383 -0.37174,0.619543 -0.38523,0.776115 -0.38174,4.423799 0.004,4.058383 0.0752,5.186516 0.36597,5.789853 0.34528,0.716389 0.97039,1.03799 1.54824,0.796536 z m -78.82843,-1.835644 c 0.0843,-0.05459 0.0485,-0.161933 -0.23257,-0.696495 -0.18272,-0.34758 -0.36213,-0.62207 -0.39867,-0.609978 -0.038,0.01257 -0.0664,0.288499 -0.0664,0.644684 0,0.607594 0.004,0.623821 0.16611,0.668909 0.2445,0.068 0.41915,0.06566 0.53157,-0.0071 z m 9.80909,-0.219822 c 0.50297,-0.254875 0.54652,-0.332988 0.37179,-0.666607 -0.27466,-0.524248 -0.5312,-1.22265 -0.90884,-2.474201 -0.61545,-2.039577 -0.92388,-2.56546 -1.71305,-2.920703 -0.52059,-0.234344 -1.08093,-0.251016 -1.4863,-0.04421 -0.4782,0.243951 -0.48149,0.267136 -0.14131,0.994846 0.16618,0.355515 0.53205,1.304208 0.81304,2.108203 0.60661,1.735741 0.98782,2.517926 1.407,2.886903 0.16327,0.143708 0.36195,0.275693 0.44154,0.293296 0.3194,0.07065 0.89106,-0.01278 1.21613,-0.177527 z m 3.29205,0.01077 c 0.24958,-0.115043 0.45381,-0.235641 0.45381,-0.267991 0,-0.03235 -0.0749,-0.20673 -0.16655,-0.387506 -0.26882,-0.53045 -0.40947,-0.925857 -0.86366,-2.427881 -0.45971,-1.520277 -0.7271,-2.166757 -1.04677,-2.530845 -0.48903,-0.556959 -1.29246,-0.7717 -1.85975,-0.497073 -0.16156,0.07821 -0.36301,0.215924 -0.44768,0.306041 l -0.15393,0.163857 0.24045,0.525991 c 0.13224,0.289298 0.40688,1.074939 0.61034,1.745875 0.44011,1.451419 0.55594,1.771766 0.85614,2.367867 0.24627,0.489022 0.68606,0.978792 1.00415,1.118246 0.36023,0.157935 0.87214,0.11448 1.37345,-0.116581 z m 6.55476,0.106934 c 0.18936,-0.05624 0.3443,-0.134752 0.3443,-0.17449 0,-0.03974 -0.1053,-0.335391 -0.23397,-0.657016 -0.12869,-0.321625 -0.37018,-1.072848 -0.53671,-1.669381 -0.709,-2.540304 -1.051,-3.315938 -1.62062,-3.67552 -0.59907,-0.37819 -1.32109,-0.442145 -1.86412,-0.165121 -0.44011,0.224533 -0.4462,0.263721 -0.14259,0.917215 0.14928,0.321276 0.39471,1.000993 0.54541,1.510482 0.59889,2.024706 0.68223,2.274679 0.9324,2.796509 0.28104,0.586285 0.68206,1.010465 1.07399,1.136057 0.33055,0.105916 1.11512,0.09613 1.50191,-0.01873 z m 2.9051,-2.65e-4 c 0.2178,-0.05642 0.44915,-0.155228 0.51408,-0.219569 0.11306,-0.11202 0.1065,-0.141685 -0.15425,-0.698037 -0.1951,-0.41641 -0.38555,-1.036696 -0.67209,-2.189091 -0.6589,-2.649779 -1.02339,-3.20411 -2.19761,-3.342119 -0.28445,-0.03343 -0.48066,-0.01008 -0.84513,0.100637 -0.26106,0.0793 -0.49046,0.18533 -0.50977,0.235627 -0.0193,0.0503 0.0686,0.310634 0.19524,0.578519 0.30292,0.640668 0.4427,1.064747 0.91532,2.77699 0.43349,1.570527 0.74131,2.298862 1.08122,2.558111 0.38809,0.295997 1.0119,0.370173 1.67299,0.198932 z m 29.54255,-0.107868 c 0.17,-0.07288 0.37484,-0.202493 0.45519,-0.28802 l 0.14608,-0.155503 -0.1674,-0.420529 c -0.1931,-0.484979 -0.2898,-0.848603 -0.57957,-2.17841 -0.22347,-1.025512 -0.48173,-1.833766 -0.63789,-1.996305 -0.0836,-0.08695 -0.089,-0.02756 -0.0432,0.465122 0.0863,0.926634 0.0477,2.62174 -0.0772,3.388733 -0.20722,1.272955 -0.20677,1.25195 -0.0283,1.325853 0.19722,0.08162 0.53081,0.03118 0.93223,-0.140941 z m -26.99554,0.05458 c 0.0535,-0.06446 0.055,-0.193336 0.005,-0.461661 -0.0378,-0.204729 -0.0784,-0.934426 -0.0902,-1.621552 -0.0196,-1.141015 -0.0394,-1.319868 -0.22883,-2.063176 -0.233,-0.914196 -0.50491,-1.512765 -0.80005,-1.761098 -0.23889,-0.201031 -0.79158,-0.345744 -1.11805,-0.292764 -0.26863,0.04359 -0.74983,0.351007 -0.74983,0.479028 0,0.04672 0.089,0.319236 0.19764,0.605586 0.10875,0.286348 0.36444,1.193395 0.5682,2.015662 0.52025,2.099165 0.83486,2.679875 1.65944,3.062989 0.31781,0.147669 0.45675,0.156906 0.55626,0.03698 z m 51.26863,0.02753 c 0.0588,-0.09509 -0.0404,-0.803548 -0.10676,-0.762545 -0.0831,0.05133 -0.32234,0.53445 -0.32234,0.650816 0,0.13624 0.35655,0.229085 0.4291,0.111729 z m -60.04949,-0.242213 c 0.15637,-0.09163 0.28432,-0.201491 0.28432,-0.244129 0,-0.04264 -0.103,-0.317957 -0.22884,-0.611819 -0.12586,-0.293868 -0.41116,-1.159891 -0.63407,-1.924506 -0.22289,-0.764611 -0.49948,-1.616522 -0.61463,-1.893136 -0.48011,-1.153287 -1.44973,-1.636069 -2.42408,-1.206992 -0.49708,0.218898 -0.5216,0.267219 -0.32901,0.647838 0.22508,0.444833 0.50466,1.258363 0.87521,2.5468 0.44564,1.549511 0.83119,2.348198 1.27336,2.637911 0.48464,0.317567 1.30061,0.339368 1.79774,0.04803 z m -9.15207,0.07284 c 0.0662,-0.07973 0.0499,-0.15259 -0.0859,-0.384267 -0.24914,-0.425112 -0.59841,-1.300795 -1.04601,-2.622548 -0.21965,-0.648562 -0.5158,-1.418712 -0.65815,-1.711444 -0.41778,-0.85916 -1.0105,-1.357852 -1.61806,-1.361358 -0.3347,-0.0019 -0.84704,0.130135 -0.88461,0.228023 -0.0343,0.08949 2.65047,4.164561 3.44946,5.235684 0.53046,0.711147 0.67601,0.817438 0.84325,0.61591 z m 48.55255,-0.137543 c 0.42545,-0.208159 0.42378,-0.187331 0.0878,-1.092989 -0.11525,-0.310634 -0.37386,-1.146564 -0.5747,-1.857618 -0.36928,-1.307431 -0.68421,-2.102565 -0.99319,-2.50765 -0.32166,-0.421706 -1.34673,-0.806915 -1.93334,-0.726514 -0.34092,0.04673 -0.66998,0.219565 -0.72038,0.378368 -0.0188,0.0596 0.0718,0.28462 0.20145,0.500036 0.29972,0.497736 0.55187,1.291846 0.86312,2.718347 0.3918,1.795566 0.70115,2.453455 1.24495,2.647728 0.15579,0.05564 0.32806,0.117655 0.38288,0.137808 0.25072,0.09216 1.08222,-0.0218 1.44142,-0.197516 z m 2.91351,0.0122 c 0.18421,-0.08578 0.41389,-0.249812 0.51041,-0.364511 l 0.17547,-0.208537 -0.20037,-0.548471 c -0.11022,-0.301659 -0.36356,-1.221234 -0.563,-2.043501 -0.40339,-1.663152 -0.63299,-2.244799 -1.04453,-2.645815 -0.63259,-0.616458 -1.55347,-0.834461 -2.31322,-0.547624 -0.49549,0.187055 -0.58317,0.292261 -0.43781,0.525338 0.45358,0.727337 0.69469,1.34466 1.13946,2.917833 0.55192,1.951937 0.91749,2.732352 1.38888,2.964805 0.32453,0.160017 0.94368,0.137218 1.34471,-0.04952 z m 3.68501,-0.137639 c 0.46038,-0.237151 0.48006,-0.277524 0.30547,-0.62648 -0.21286,-0.425374 -0.45683,-1.19778 -0.73737,-2.334459 -0.41971,-1.700398 -0.7094,-2.420948 -1.10943,-2.759252 -0.59745,-0.505257 -1.65727,-0.71215 -2.26679,-0.442521 -0.17134,0.07578 -0.31152,0.179014 -0.31152,0.229396 0,0.05039 0.0885,0.255016 0.19667,0.454742 0.25757,0.475533 0.53919,1.348058 0.90405,2.800842 0.54369,2.164938 0.72935,2.498837 1.5571,2.800615 0.22212,0.08097 1.23066,-0.0038 1.46182,-0.122883 z m 3.15617,0.0033 c 0.30056,-0.142443 0.63124,-0.392699 0.63124,-0.477721 0,-0.01831 -0.0557,-0.144219 -0.12369,-0.279807 -0.16688,-0.332552 -0.47877,-1.311304 -0.77732,-2.439236 -0.62609,-2.365494 -1.16192,-3.060375 -2.35485,-3.053729 -0.80063,0.0045 -1.48182,0.382519 -1.1989,0.665414 0.16319,0.163182 0.51133,1.193673 0.87428,2.587652 0.57312,2.201296 0.82349,2.661512 1.62785,2.992207 0.49978,0.205468 0.89557,0.207029 1.32139,0.0052 z m 3.57145,-0.0781 c 0.13708,-0.066 0.24918,-0.166785 0.24918,-0.223969 -2e-5,-0.05719 -0.10088,-0.38803 -0.22413,-0.735211 -0.12327,-0.347179 -0.32062,-1.034892 -0.43857,-1.528252 -0.40436,-1.691355 -0.53806,-2.160135 -0.73903,-2.591388 -0.2454,-0.526481 -0.39698,-0.695719 -0.81278,-0.907338 -0.65309,-0.332425 -1.32074,-0.267356 -1.7949,0.174932 l -0.27353,0.25513 0.12203,0.255251 c 0.21965,0.459542 0.4278,1.097875 0.80862,2.480056 0.60737,2.204569 0.84433,2.588625 1.79083,2.90226 0.34173,0.113241 0.99179,0.07288 1.31228,-0.08147 z m -79.07649,-2.587093 c -0.0163,-1.4351 -0.045,-2.016776 -0.10255,-2.076932 -0.0641,-0.06703 -0.14838,-0.06322 -0.42606,0.01924 -0.57055,0.169434 -0.57834,0.196358 -0.57834,1.999612 0,1.461537 0.007,1.552559 0.13912,1.730616 0.15772,0.213069 0.4963,0.356544 0.79112,0.335238 l 0.19934,-0.01439 -0.0226,-1.993373 z m 5.00606,-0.132892 v -2.059819 h -0.35813 -0.35813 l 0.0136,1.982431 c 0.007,1.090337 0.0303,2.026216 0.0509,2.079728 0.027,0.07037 0.12238,0.09179 0.34458,0.07739 l 0.30724,-0.0199 v -2.059818 z m 92.75451,1.89729 c 0.33928,-0.318749 0.40249,-0.644605 0.40249,-2.075204 0,-1.225428 -0.009,-1.319257 -0.13984,-1.495028 -0.21997,-0.295029 -0.52242,-0.437714 -0.94527,-0.445969 l -0.37669,-0.0074 -0.0471,2.023102 c -0.035,1.504183 -0.0272,2.04706 0.0305,2.116513 0.13052,0.157277 0.86989,0.07752 1.07595,-0.116059 z m -5.66729,-0.435483 c 0.0235,-0.292362 0.0648,-1.208887 0.0913,-2.036726 l 0.0481,-1.505156 -0.68932,-0.0268 c -0.42828,-0.01667 -0.71901,-2.65e-4 -0.76777,0.04335 -0.056,0.05007 -0.0845,0.631436 -0.0997,2.030307 l -0.0212,1.960153 0.36544,0.04045 c 0.201,0.02225 0.51496,0.0372 0.69768,0.03322 l 0.33224,-0.0072 0.0432,-0.531566 z m -11.31563,-0.816316 c 0.78288,-1.186133 0.82037,-1.258549 0.81238,-1.569617 -0.0222,-0.866683 -0.39166,-1.745734 -0.88323,-2.10185 -0.58537,-0.424037 -1.46971,-0.511199 -1.94331,-0.191535 -0.31975,0.215813 -0.34597,0.371642 -0.14672,0.871236 0.092,0.23064 0.31716,1.032309 0.50033,1.781485 0.40563,1.658897 0.65318,2.459265 0.75965,2.45614 0.0441,-0.0013 0.4495,-0.561933 0.9009,-1.245859 z m 1.71165,-2.389693 c 0.10411,-0.137047 0.42198,-0.491911 0.7063,-0.788591 0.56388,-0.588354 0.567,-0.616254 0.0836,-0.748996 -0.33083,-0.09085 -0.83788,-0.09176 -1.22661,-0.0021 -0.43965,0.101314 -0.49418,0.167695 -0.34377,0.418531 0.13891,0.231687 0.30017,0.661842 0.40783,1.088006 0.0392,0.155318 0.0965,0.282393 0.12734,0.282393 0.0308,0 0.14119,-0.112126 0.24533,-0.249172 z m -47.10192,-1.26247 c -0.0917,-0.117018 -0.41776,-0.103294 -0.54396,0.02289 -0.0969,0.09697 -0.095,0.123722 0.023,0.315619 0.0711,0.115316 0.18663,0.359169 0.25683,0.541896 0.0702,0.182726 0.15319,0.39203 0.18449,0.465121 0.039,0.09109 0.0707,-0.08657 0.1007,-0.56479 0.0267,-0.424905 0.0183,-0.730155 -0.0212,-0.780738 z m 1.15048,-1.063133 c 1.5952,-2.831299 4.05427,-4.699262 7.28605,-5.534615 2.23938,-0.57884 5.00411,-0.662483 7.56904,-0.228989 3.45829,0.584488 6.11828,2.0966 8.35636,4.750305 l 0.25217,0.299008 -0.0353,-0.251976 c -0.0473,-0.338285 -0.6435,-1.539726 -1.02008,-2.055862 -0.92556,-1.268442 -2.24959,-2.32486 -3.89493,-3.107685 -1.65576,-0.787792 -3.31145,-1.180616 -5.62615,-1.334842 -4.07771,-0.2717 -7.41074,0.683522 -10.01038,2.868915 -1.38777,1.166659 -2.26375,2.411349 -2.90494,4.127719 -0.34333,0.919075 -0.33205,1.107215 0.0281,0.468022 z" />
  </g>
</svg>
