<?xml version="1.0" encoding="UTF-8"?>
<svg width="800" height="400" version="1.1" xmlns="http://www.w3.org/2000/svg" xmlns:cc="http://creativecommons.org/ns#" xmlns:dc="http://purl.org/dc/elements/1.1/" xmlns:rdf="http://www.w3.org/1999/02/22-rdf-syntax-ns#" xmlns:xlink="http://www.w3.org/1999/xlink">
 <metadata>
  <rdf:RDF>
   <cc:Work rdf:about="">
    <dc:format>image/svg+xml</dc:format>
    <dc:type rdf:resource="http://purl.org/dc/dcmitype/StillImage"/>
    <dc:title/>
   </cc:Work>
  </rdf:RDF>
 </metadata>
 <rect x="-1.2207e-5" y="-4.8828e-6" width="800" height="400" fill="#0032a0"/>
 <path d="m4.546875 193.36133c-26.182 0-34.866828 10.14844-61.048828 10.14844v108.92187c26.182 0 34.866828-10.14648 61.048828-10.14648 26.18205 0 34.778918 10.14648 60.960937 10.14648 26.182013 0 34.866798-10.14648 61.048828-10.14648 26.18204 0 34.77696 10.14648 60.95898 10.14648 26.182 0 34.86682-10.14648 61.04883-10.14648 26.18205 0 34.77892 10.14648 60.96094 10.14648 26.18201 0 34.8668-10.14648 61.04883-10.14648 26.18204 0 34.77891 10.14648 60.96094 10.14648 26.182 0 34.86486-10.14648 61.04687-10.14648 26.18205 0 34.77892 10.14648 60.96094 10.14648 26.18201 0 34.8668-10.14648 61.04883-10.14648 26.18204 0 34.7789 10.14648 60.96093 10.14648 26.182 0 34.86682-10.14648 61.04883-10.14648 26.18205 0 34.77697 10.14648 60.95899 10.14648 26.18201 0 34.86678-10.14648 61.04883-10.14648v-108.92383c-26.18206 0-34.86683 10.14844-61.04883 10.14844-26.18202 0-34.77694-10.14844-60.95899-10.14844-26.18202 0-34.86683 10.14844-61.04883 10.14844-26.18203 0-34.77889-10.14844-60.96093-10.14844-26.18203 0-34.86683 10.14844-61.04883 10.14844-26.18202 0-34.77889-10.14844-60.96094-10.14844-26.18202 0-34.86487 10.14844-61.04687 10.14844-26.18203 0-34.7789-10.14844-60.96094-10.14844-26.18203 0-34.86683 10.14844-61.04883 10.14844-26.18202 0-34.77889-10.14844-60.96094-10.14844-26.18202 0-34.86681 10.14844-61.04883 10.14844-26.18201 0-34.77694-10.14844-60.95898-10.14844-26.18203 0-34.866827 10.14844-61.048828 10.14844-26.18202 0-34.778887-10.14844-60.960937-10.14844z" fill="#8a8d8f" stroke="#000" stroke-width="5.4"/>
 <use transform="translate(0,36.25198)" width="100%" height="100%" xlink:href="#path999"/>
 <path id="path999" d="m858.60938 229.69778c-26.18206 0-34.86683 10.14844-61.04883 10.14844-26.18202 0-34.77694-10.14844-60.95899-10.14844-26.18202 0-34.86683 10.14844-61.04883 10.14844-26.18203 0-34.77889-10.14844-60.96093-10.14844-26.18203 0-34.86683 10.14844-61.04883 10.14844-26.18202 0-34.77889-10.14844-60.96094-10.14844-26.18202 0-34.86487 10.14844-61.04687 10.14844-26.18203 0-34.7789-10.14844-60.96094-10.14844-26.18203 0-34.86683 10.14844-61.04883 10.14844-26.18202 0-34.77889-10.14844-60.96094-10.14844-26.18202 0-34.86681 10.14844-61.04883 10.14844-26.18201 0-34.77694-10.14844-60.95898-10.14844-26.18203 0-34.86683 10.14844-61.04883 10.14844-26.18202 0-34.77888-10.14844-60.96093-10.14844-26.182 0-34.86683 10.14844-61.04883 10.14844" fill="none" stroke="#000" stroke-width="5.4"/>
 <g transform="matrix(1.0260987,0,0,1.0260987,537.93713,-133.23487)">
  <path d="m-235.40783 316.44267-3.8718 4.37409v11.96076c16.02157 5.94606 31.76604 12.7225 47.84823 18.48704-2.2877 4.24374-3.49164 9.60441-4.99282 15.08348-4.70057 17.15971-7.29193 31.38677-11.25056 49.38114-2.40949 14.14522-4.44898 25.70016-6.85829 39.84591-1.97031 5.27633 3.68814 7.47292 7.04319 9.22944 3.02715 1.58409 5.575 1.23532 7.70846 2.23545 1.42843 0.66919 1.47854 1.88241 1.48157 3.25057 4e-3 1.55627-0.13658 3.21009 0.41849 4.66366 0.77279 2.02487 2.18303 3.39464 3.85254 4.33022-1.74993 2.21941-3.58775 4.39014-5.31235 6.64806-1.31966 1.72763-1.47479 4.17599-0.74854 6.00258 0.59448 1.49512 2.32871 2.44889 3.90924 2.75113 2.86167 0.54687 6.32246 0.54491 9.14794-0.16672 2.04805-0.51621 2.99362-1.52846 4.65706-3.16819 2.50952-0.52975 6.10672-2.22993 8.0715-3.35256 4.3518-2.48687 5.18022-7.38055 8.06222-9.40275 2.97758-2.08906 6.48883-3.62412 8.56631-5.66896-0.13908-0.13605-0.27406-0.28012-0.4069-0.43026 0.4447 0.0895 0.94164 0.16083 1.49957 0.20826 2.85633 0.24161 5.76258-0.78794 7.53104-2.81888 1.14796-1.31859-0.099-8.08094-0.48767-11.96736 4.04208-1.78469 8.25444-4.16368 12.55721-4.12124 4.041 0.0399 9.03061 1.00833 10.0821 4.90972 1.13065 4.19667 1.4065 8.57041 5.34908 10.41768 4.73802 2.21995 9.473 0.38319 11.74037-5.19127 1.34944-3.31833 9.30254-2.15932 9.862074 1.37779 0.897249 5.66807 3.481476 12.02745 8.873172 13.64738 0.854633 0.25677 1.708374 0.44987 2.558015 0.58842 0.863192 0.8623 1.893281 1.72906 3.168009 2.73739 2.299825 1.81804 5.850484 3.78621 9.701415 5.17024 1.662906 1.63955 3.008958 2.49186 5.056476 3.00789 2.825478 0.71163 5.886858 0.87335 8.748711 0.32648 1.579993-0.3017 3.314223-1.256 3.908525-2.75112 0.726964-1.8266 0.571658-4.27513-0.748539-6.00258-3.061381-4.00767-6.4792-7.74145-9.128153-11.96184 0.67472-1.74938 1.183613-3.54513 1.603708-5.06967 0.619622-2.24668 3.611462-2.70244 5.7813-1.8528 2.934959 1.14884 4.734985 1.87063 7.688667 0.78242 3.608431-1.32983 3.317788-3.72612 2.479203-7.96487-1.617438-8.17848-3.90906-16.11749-5.363167-24.10091-2.439796-13.39365-4.793648-26.50432-7.281945-40.32663-1.231221-6.83813-2.810678-13.3357-3.596128-19.87499-0.374091-3.11451-0.767262-5.14902-1.169704-7.12681-1.477287-7.26929-2.100654-13.30022-6.69959-18.19943 7.294962-1.14385 14.592599-2.26844 21.896298-3.34293 8.87959-1.33999 17.75918-2.68033 26.638771-4.02086 0.167788-3.57437 0.335042-7.14839 0.50283-10.72241-3.015912-3.18334-6.031467-6.36597-9.047379-9.54932l-10.984702-0.12374c2.139525-2.30892 4.612666-4.82806 4.882982-7.91423 0.634422-7.24753 0.436321-15.06833-2.626308-21.66735-4.269421-9.19894-13.06806-15.57722-18.60365-24.07416-2.834037-4.35091-3.76249-9.72263-6.346895-14.22617-2.548922-4.44292-5.982432-8.31649-8.973559-12.47483-3.337046-5.70035-7.999638-10.64164-13.569107-14.88217-0.802746-1.53203-1.416306-3.17978-2.40788-4.59644-1.574465-2.24972-3.973785-3.91673-5.252615-6.34689-0.97303-1.84835-0.39317-4.25284-1.313064-6.12794-1.028661-2.09655-3.408371-3.34667-4.377301-5.4714-0.98604-2.16074-0.49819-4.77296-1.31306-7.00342-0.59734-1.63456-2.1718-2.77342-2.84563-4.37712-0.87692-2.08853-0.87335-4.47822-1.75081-6.56568-1.25208-2.97918-3.15089-5.64579-4.59608-8.53599-1.83872-3.67762-2.83137-7.83791-5.25244-11.16159-1.9803-2.71831-4.59448-5.18646-7.6605-6.56568-3.01947-1.35871-6.2194-1.59372-10.03146-1.69232-5.47746-0.1414-9.12583 1.45927-13.25065 4.31203-3.63731 2.51558-6.85436 6.95778-8.87959 10.88967-1.83693 3.56635-2.49489 8.18508-4.02086 11.89514-1.72906 4.2047-4.98123 7.73271-6.36651 12.06276-1.77916 5.56144-1.06343 11.71666-3.35113 17.08856-2.36544 5.55628-6.05678 7.78888-9.92287 15.53674-4.7127 2.47368-8.12945 5.91771-10.71136 10.02344-2.04341 3.2495-1.35193 6.95493-2.84509 10.4915-1.31413 3.11292-3.94953 5.5183-5.4714 8.53528-2.57567 5.10551-3.14946 9.0258-6.11474 13.91538-2.49435 4.11269-7.42601 8.77439-10.08103 12.78562-3.43155 5.18325-4.88209 11.97806-3.72112 19.04051 0.77475 4.71323 3.43654 9.16221 5.69072 11.59986l1.9646 3.6038z" fill="#cc8a00" fill-rule="evenodd"/>
  <path d="m-150.5957 459.79209c-2.65056-22.83134-5.18236-45.66073-8.1619-68.4919 2.10761 1.40917 6.08033 32.39368 10.25738 66.61717-0.69861 0.62461-1.39705 1.24994-2.09548 1.87473" fill-rule="evenodd"/>
  <path d="m-129.1277 419.04287c1.84995 0.24553-0.0667 1.08251-0.50194 1.08768-4.36802 0.049-8.95733-2.67231-13.55074-6.6921-3.6498-3.19333-6.14059-7.30869-7.61146-11.45936-2.12294-5.98903-3.55084-12.23625-5.93892-18.15092 3.16444 5.77523 5.43449 12.1503 7.94596 18.48561 2.28663 5.76792 6.31997 10.1734 11.62715 13.29968 3.21259 1.89221 5.20554 3.05425 8.02995 3.42941" fill-rule="evenodd"/>
  <path d="m-113.34222 385.22575c-2.29322 3.85093-5.0201 7.07511-8.09967 9.83229-3.12521 2.79874-6.49435 5.32893-10.25131 7.23434-0.4267 0.217-1.68823 0.80221-2.11992 0.0471-0.43222-0.75513 0.878-1.34088 1.25548-1.55717 3.54673-2.03396 6.91659-4.30597 9.95229-7.02428 3.02001-2.70459 5.48246-5.9844 7.89247-9.6317 3.16498-4.78901 6.07676-10.29073 8.11126-16.54454-1.13671 6.11331-3.60789 12.36356-6.7406 17.64399"/>
  <path d="m-117.79619 376.38557c-0.9461 1.27419-2.0222 2.66268-3.29799 3.78781-1.28882 1.13618-2.7324 2.12882-4.35127 2.8269-2.16288 0.93202-4.39994 1.21107-6.66232 1.0012-2.22797-0.20666-4.4661-0.88708-6.67124-1.88222-1.46944-0.6626-2.75826-1.48353-3.92778-2.35742-1.15455-0.86177-2.26844-1.68466-3.16266-2.6288-3.04872-3.21919-4.051-5.94196-5.94445-9.01404-1.06201-1.72353-2.24865-3.39089-3.25859-5.14991 1.07199 1.4172 2.38166 2.59796 3.46275 4.00303 2.29376 2.98168 4.32309 6.20995 6.88967 8.85534 0.88048 0.90777 1.95408 1.71907 3.05389 2.54036 1.08376 0.80935 2.26844 1.56591 3.6013 2.16681 2.04662 0.92346 4.10109 1.55325 6.11384 1.73976 1.97834 0.18348 3.93224-0.0596 5.81857-0.87282 1.43449-0.6182 2.72634-1.50921 3.88891-2.5343 1.17523-1.03669 2.25222-2.30036 3.27927-3.40409 0.65671-0.70611 2.25792-3.05639 2.51112-2.91553 0.46557 0.25891-0.651 2.9059-1.34302 3.83792"/>
  <g fill-rule="evenodd">
   <path d="m-159.19891 195.69975c-0.58575 2.3205-1.70392 4.62978-3.0949 6.84259-0.72626 1.1549-1.19628 2.44693-1.23319 4.54598-0.0207 1.1722 0.24161 2.33762 0.33808 3.50626-0.44274-0.47555-1.26599-1.26207-1.49904-3.45776-0.22699-2.14202 0.36482-3.24237 1.45107-5.10195 1.41221-2.4184 2.74506-3.89444 4.03798-6.33512"/>
   <path d="m-158.38155 216.05243c-0.77082 1.63295-1.14848 3.19029-1.05291 4.40333 0.71769-1.49958 1.48852-2.97597 2.15379-4.49944 1.16899-2.67588 0.71912-5.55877 0.33504-8.42473-0.26942 3.37734-0.25623 6.02184-1.43592 8.52084"/>
   <path d="m-149.33417 215.23862c0.3987 2.04199 0.99621 3.61539 1.00531 5.69572 5e-3 1.48602-0.36286 3.11558-1.10141 4.40404-0.19258 0.33665-0.84608 0.14746-0.81381-0.23911 0.12339-1.45375 0.80632-2.4751 0.95734-3.92529 0.20631-1.9728-0.33504-3.71809-0.0474-5.93536"/>
   <path d="m-145.29066 212.53903c0.19311 0.51763 0.14104 2.16128 0.462 2.79107 0.90366 1.77256 1.97316 4.32915 2.08282 6.20621 0.0865 1.48245 0.1512 3.03731-0.36643 4.42918-0.13498 0.3625-0.81059 0.28262-0.84197-0.10306-0.11679-1.45411 0.15156-3.19636 0.0637-4.65154-0.0783-1.29897-0.60447-3.26768-1.18433-5.03971-0.62265-1.90362-0.71519-2.33781-0.21575-3.63215"/>
   <path d="m-139.64987 195.70082c-2.0279 1.30842-2.63843 1.29683-2.90786 3.04016-0.10359 0.66723 0.1077 1.88169 0.88406 2.52003 0.33058 0.27157 0.87389-0.0317 0.71769-0.43061-0.22806-0.58272-0.90171-1.29078-0.8138-1.96265 0.16886-1.28988 1.60941-1.97066 2.11991-3.16693"/>
   <path d="m-134.00016 195.22972c1.87117 1.67504 2.48134 1.76793 2.75112 3.51126 0.1036 0.66776-0.1077 1.88169-0.88405 2.52003-0.33094 0.27157-0.87425-0.0317-0.71823-0.43061 0.22806-0.58272 0.90224-1.29024 0.8138-1.96265-0.16886-1.28988-1.45161-2.44122-1.96264-3.63803"/>
   <path d="m-133.29709 199.53748c-0.23251-0.51602-1.62849-0.85873-2.29715-0.53564-0.78456 0.37909-0.89618 0.97892-0.82896 1.84835 0.043 0.554 0.81024 0.61766 0.77689 0.13801-0.10003-1.45928 0.83895-1.432 2.34922-1.45072"/>
   <path d="m-140.50967 199.53748c0.23198-0.51602 1.62849-0.85873 2.29715-0.53564 0.78402 0.37909 0.89618 0.97892 0.82895 1.84835-0.043 0.554-0.81023 0.61766-0.77742 0.13801 0.10074-1.45928-0.83841-1.432-2.34868-1.45072"/>
   <path d="m-124.84045 204.77601c0.79758 1.61583 1.0736 3.7049 1.17363 5.79022 0.0369 0.7612 0.12589 2.31141 0.51656 2.96598 1.08465 1.81661 1.33589 3.10649 1.50261 4.14265-1.01743-1.53756-2.45335-2.79053-2.72385-4.61321-0.33914-2.28716-0.046-5.54771-0.46895-8.28564"/>
   <path d="m-130.75762 209.81323c0.36785 1.98475 0.58574 3.87019-0.6576 5.27276-0.27246 0.30723-1.00495-0.42205-0.61071-1.08322 0.7193-1.20501 1.04935-2.21228 1.26831-4.18954"/>
   <path d="m-130.05366 213.39117c0.22093 1.01903 0.47965 1.91967 0.23501 3.05995-0.1874 0.87496-0.63727 1.81501-0.42241 2.68337 0.33094 1.33838 0.45184 2.10921 0.42241 3.48361-0.0312 1.44003-0.55489 3.05639-1.73761 3.67191 0.78295-1.67895 0.69041-2.06766 0.75157-3.76605 0.0323-0.90973-0.52155-2.65306-0.28209-3.53087 0.40993-1.50171 0.72037-3.6564 1.03312-5.60192"/>
   <path d="m-133.99802 215.93314c0.17278 1.52543 0.24303 2.88396-0.0942 4.28404-0.28404 1.17773-0.6362 3.12557-0.2819 4.28404 1.1483 3.75144 0.90723 6.77305 0.32898 8.75638-0.3593-1.8282-0.39014-4.03655-1.08055-6.30838-0.49695-1.63616-0.70308-3.58008-0.0936-5.17826 0.61927-1.62403 0.91134-4.00053 1.22124-5.83782"/>
   <path d="m-144.87823 201.1929c-4.17849 4.37195-6.51219 6.60205-5.59818 10.54856 0.32844-0.24268 0.25872-0.6626 0.41492-1.03918 0.30776-0.74159 0.0314-1.38849 0.51799-2.02684 0.34931-0.4579 0.78598-0.0813 1.08875-0.57166 0.52976-0.85927-0.11376-1.13725 0.36286-2.0263 0.7193-1.34302 2.83154-3.22417 3.21366-4.88458"/>
   <path d="m-130.57075 200.51711c1.05398 0.46752 1.17523 0.83395 2.17697 1.40311 0.68488 0.38925 1.95301 0.23305 2.4883 1.55877 0.67222 1.66594 0.92292 2.96296 0.57023 4.67686-0.0744 0.36232-0.72697 0.36999-0.72536 0 5e-3 -1.5775 0.33753-3.0004-0.72625-4.62479-0.40387-0.61713-1.61245-0.68542-2.22851-1.09125-0.62336-0.41047-1.03722-1.38599-1.55538-1.9227"/>
   <path d="m-133.00734 202.23208c0.46699 1.03918 0.52958 2.14363 0.15602 3.11808-0.16779 0.43811-1.04257 0.30973-0.98551-0.15619 0.14407-1.17666 0.82343-2.02131 0.82949-2.96189"/>
   <path d="m-131.34853 206.85687c0.20113-0.18045 0.48375-0.24214 0.72571-0.36393 0.32809 0.32952 0.52227 0.20666 0.7259 0.62373 0.24767 0.50586 0.19364 1.29701 0.62212 1.6629 0.29938 0.25623 0.68791-0.23911 0.77742-0.62372 0.15424-0.66206 0.0829-0.86729-0.25926-1.45464-0.28922-0.49784-1.21553-1.00834-1.50314-1.50724-0.37766-0.65511-0.0178-1.17524-0.41457-1.81911-0.12731-0.20523-0.63335-0.22288-0.72571 0-0.23965 0.57612-0.0344 1.24745-0.0521 1.87117-0.74301 0.17332-1.0711 0.69344-0.98462 1.55931-0.89012 0.56256-1.91967 1.3029-3.57705 1.14278-2.43266-0.23501-4.06882-0.60411-5.18379-1.55877-0.32505-0.27852 0.9643-0.47769 0.82949-0.88352-0.28761-0.8673-0.58681-1.68217-0.93309-2.39076-0.0909-0.18598-0.65813-0.15264-0.62229 0.0521 0.17599 0.99568 0.15566 1.85905-0.0515 2.59849-0.15264 0.54277 0.0237 1.33981 0.51816 1.61084 1.51081 0.82842 3.05478 1.1287 4.76922 1.29898 1.30058 0.12945 2.66429-0.16476 3.88802-0.62319 0.58467-0.21932 0.98605-0.77796 1.45108-1.19538"/>
   <path d="m-143.63382 203.16713c-0.0692 1.33339 0.2072 2.59796 0.82949 3.79387-0.78206 0.0474-1.12423 0.54688-1.34801 1.14332-0.3074 0.81879-0.58984 1.59925-1.19181 2.23456-0.21433 0.22592-0.74961 0.15353-0.77797-0.1562-0.0628-0.67632 0.43365-1.28792 0.67383-1.9227 0.27799-0.73392 0.69951-1.41987 0.88138-2.1825 0.10003-0.42152-0.18401-0.88655-0.0521-1.29897 0.19257-0.59948 0.65653-1.07413 0.98515-1.61138"/>
   <path d="m-135.49528 203.16713c0.32916 0.45041 0.40797 0.98409 0.20737 1.61138-0.22698 0.7086-0.80773 0.56256-1.08875 0.67525-0.25123 0.1011 5e-3 0.79151-0.88102 0.31186-0.16173-0.0876-0.24214-0.27745-0.36339-0.41599-0.3108 0.0868-0.6692 0.34217-0.93256 0.1562-0.46752-0.33112-0.61213-0.93416-0.62212-1.50671-9e-3 -0.50444 0.31133-0.76227 0.57006-1.19538 0.0799 0.53671 0.25569 1.54112 0.77742 2.07836 0.84055-0.0703 0.4998-0.87906 0.77778-1.03918 0.24322-0.13997 0.57023 0.90064 0.77743 1.09125 0.34663-0.29367 0.7102-1.05594 0.77778-1.76704"/>
   <path d="m-104.82352 282.36932c-0.0323 4.25427-0.38212 8.63049-2.09156 12.7644-0.79294 1.91771-1.88722 3.74787-3.26055 5.30361-0.24215 0.27495-1.12567-0.15513-0.98409-0.4932 1.10534-2.64253 3.19244-5.10605 3.93688-8.14014 0.77938-3.17675 1.66647-6.29038 2.39932-9.43467"/>
   <path d="m-140.19478 293.59224c0.1537 4.77939 0.29671 8.0986 1.53809 12.14817 0.86569 2.82548 2.66464 6.08852 3.99857 6.29019 0.28654 1.93233 0.57362 3.86466 0.8607 5.79699h1.90701c-0.36892-1.50064-0.9092-2.979-1.16864-4.50193-0.31525-1.85495-0.16065-3.77212-0.55382-5.61138-0.28762-1.34765-0.62622-1.41077-1.09785-2.70565 0.54331 2.19908 0.51353 3.11594 0.23697 4.98711-1.4739-1.67699-2.41251-3.57651-3.32224-5.98189-1.21767-3.22008-1.90702-7.01948-2.39879-10.42161"/>
   <path d="m-88.702998 249.16184c0.563633-2.6354 2.142556-5.66201 4.921139-8.08059 0.530647-0.46146 2.410911-1.51366 4.609099-1.13422-0.463602 0.30936-2.108677 1.46837-2.26755 1.55877-3.220075 1.8339-5.308604 4.44541-7.262688 7.65604"/>
  </g>
  <path d="m-45.199361 318.68781c-1.63787 1.96626-3.931638 3.27698-6.881041 3.93182-2.908404 3.97325-5.646806 8.1575-9.092811 11.67385-5.16274 5.26718-11.273914 5.80725-17.244186 4.00525" fill="none" stroke="#000" stroke-miterlimit="22.9256" stroke-width="1.741"/>
  <g fill-rule="evenodd">
   <path d="m-61.365614 293.98078c3.754466 2.41055 7.988583 4.70984 8.343773 11.38875 0.132484 2.49935-0.04297 4.39673-0.57772 6.88449-0.471091 0.60054-0.941647 1.39402-1.412204 1.99456 0.353408-2.52521 0.672759-5.46587-0.641911-7.91423-2.491328-4.64101-5.151335-7.07617-8.279582-9.20054 2.280567 0.62016 4.581818 1.72959 9.627595 7.72058 0.09504-3.30245-3.203492-7.22774-7.059951-10.87361"/>
   <path d="m-53.856325 323.64277c3.900501-4.84268 5.598356-10.7488 4.878167-17.82301 1.693219 5.27579 1.565728 10.70279-1.540586 16.14994-0.834485 0.38622-0.834485 0.64334-1.668612 1.02955-0.556501 0.21433-1.113003 0.42919-1.668969 0.64352"/>
   <path d="m-60.146518 332.00723c1.530958-2.29519 3.050861-4.63888 4.236613-8.49338-0.107164 2.10208-0.471092 4.03245-1.091249 5.79075-1.048276 0.90082-2.097087 1.80146-3.145364 2.70263"/>
   <path d="m-96.004023 328.63844c0.06063-0.22395 0.580752 0.17902 0.564525 0.41047-0.104667 1.48995-1.060401 2.99683-2.41198 3.4385-0.22039 0.0722-0.61463-0.45344-0.410288-0.56452 1.165425-0.63442 1.824097-1.6811 2.257743-3.28445"/>
   <path d="m-89.38485 331.4493c0.08755-0.19614 0.408505 0.29564 0.396915 0.50996-0.09861 1.86351-1.401149 2.68943-2.872909 2.5434-0.21397-0.0218-0.432755-0.57273-0.220389-0.6075 1.302544-0.21433 2.071768-1.04542 2.696383-2.44586"/>
   <path d="m-83.533832 335.24709c0.09611-0.1915 0.434182 0.29867 0.396915 0.50997-0.294209 1.66094-1.535593 2.71278-2.924617 2.6461-0.214327-0.0107-0.434182-0.58592-0.22039-0.60768 1.268131-0.12838 2.020237-1.09624 2.748092-2.54839"/>
  </g>
  <path d="m-214.72881 316.28894c4.24579 6.75677 10.21458 10.32318 18.34318 8.15236 8.21294 1.05856 10.42723 3.41495 18.09091 4.77494 5.01346 0.88899 15.22847-1.04367 17.02877-7.702" fill="none" stroke="#000" stroke-miterlimit="22.9256" stroke-width="1.741"/>
  <g fill-rule="evenodd">
   <path d="m-197.50638 324.40094c-9.61137-4.25337-10.31355-11.56706-10.90036-14.14433 3.73521 7.1853 7.1607 11.87072 15.17085 13.85921-2.92747-3.25003-4.23554-3.99054-5.56394-9.88953-1.0144-4.50443 0.78099-9.43199 2.30999-13.38348-1.29202 4.95216-2.96438 10.36097 0.97036 17.87579 2.02273 3.86323 7.02411 6.91356 9.27293 7.43814l0.61606 1.15402c-1.41666 0.1849-4.48927-1.74939-5.90558-1.56448-1.9252-0.23145-4.04547-1.11443-5.97031-1.34534"/>
   <path d="m-192.44384 244.5481c2.34779 0.35591 4.6157 1.03259 6.50862 2.8508 1.29845 1.24745 2.33923 2.79445 3.81902 3.81901 0.31756 0.21986 1.28435-0.10609 1.07609-0.43008-1.12852-1.75598-1.86957-2.79213-3.49663-4.14157-2.68087-2.22547-6.20425-2.44836-7.9071-2.09816"/>
   <path d="m-82.255537 348.70494-3.250031 0.54954 1.166673-2.01934z"/>
  </g>
  <path d="m-185.22297 327.41565-20.38934 0.43278" fill="none" stroke="#000" stroke-miterlimit="22.9256" stroke-width=".958526"/>
  <path d="m-101.87733 326.31793-64.81732 1.25351-0.0143-0.95983 64.81732-1.25351z"/>
  <path d="m-210.03408 322.3506-8.84692-3e-3" fill="none" stroke="#000" stroke-miterlimit="22.9256" stroke-width=".958526"/>
  <path d="m-99.00032 322.88603-61.39041-0.0107v-0.95983l61.39041 0.0107z"/>
  <path d="m-109.37752 330.69916-78.86162 3.0817-0.0334-0.95983 79.31387-3.09938z"/>
  <path d="m-108.26203 334.68061-66.63696 3.86751-0.0521-0.95983 66.63642-3.86752z"/>
  <g fill-rule="evenodd">
   <path d="m-219.96666 319.3894c0.7011 0 1.27633 0.59341 1.32732 1.34248h4e-3v2.70352c-0.81684 0.50604-1.71195 0.50443-2.66269 0v-2.70352h4e-3c0.0506-0.74907 0.62569-1.34248 1.3268-1.34248"/>
   <path d="m-204.70184 324.73348c0.70111 0 1.27633 0.59342 1.32733 1.34195h4e-3v2.70352c-0.81683 0.50657-1.71248 0.50444-2.66268 0v-2.70352h4e-3c0.0512-0.74853 0.6264-1.34195 1.32733-1.34195"/>
   <path d="m-174.76757 335.37102c0.70057 0 1.27633 0.59377 1.32679 1.34248h5e-3v2.70352c-0.81737 0.5064-1.71248 0.50444-2.66268 0v-2.70352h4e-3c0.0512-0.74871 0.6264-1.34248 1.32733-1.34248"/>
   <path d="m-189.05134 330.34183c0.70111 0 1.27633 0.59341 1.32733 1.34248h4e-3v2.70352c-0.81683 0.50604-1.71247 0.5039-2.66268 0v-2.70352h4e-3c0.0512-0.74907 0.6264-1.34248 1.32733-1.34248"/>
  </g>
  <path d="m-174.71247 314.39408c2.04662 0.38925 5.04595 0.77547 7.35112 1.42683 1.56645 1.64472 2.75362 2.10974 4.03602 3.29853 1.1155 1.03526 2.69442 4.47073 4.09664 6.26594 1.75188 2.24366 2.06374 3.1985 4.14407 5.14706 2.52628 2.36687 5.15241 4.31239 7.83185 6.50452 1.14688 0.93861 2.53822 2.14255 3.91976 2.65145 1.35907 0.50051 2.87184-0.25213 4.30116-0.21219 1.2626 0.0353 2.18909 0.5483 3.45116 0.66402 2.15433 0.19774 4.00767-0.38158 5.47354-1.23122 3.11541 0.71323 5.0094-0.0273 5.68056-2.2219 2.86488-0.78902 4.22698-2.15825 2.2827-4.80524 1.67753-3.31672-3.53158-5.84746-8.2186-8.72803-0.7546-0.46396-1.14028-1.9712-1.75027-2.6165-1.55182-1.64026-3.11202-2.46316-4.633-4.13159-2.23599-2.45192-3.8791-4.73195-5.89738-7.36272 1.93073-0.32506 4.58236 1.25797 7.93438 3.26554 1.93786 1.16008 4.3165 1.17934 6.26701 0.21237 1.13833-0.56363 0.69452-2.52467-0.5014-3.07047-2.03842-0.93006-4.59751-2.739-6.99737-5.17827-0.92738-0.94325-2.55444-0.61873-3.76962-1.12156-1.24174-0.51406-3.14625-1.37797-4.40743-1.8364-1.68823-0.61356-3.20296-0.61962-4.89421-1.22105-2.01204-0.71627-3.09081-1.64419-5.81661-1.51081-2.51611 0.12285-4.91597 0.41135-6.87344 0.3559-1.84532-0.0526-3.5972-1.66808-5.41077-2.09013-1.60585-0.37392-1.53346-0.64798-2.96956-0.24357-3.29389 1.63313-5.98029 4.65457-6.14451 9.49279-0.13445 3.97272-0.80025 6.59029 1.5142 8.2967" fill="#cc8a00" fill-rule="evenodd"/>
  <g fill-rule="evenodd">
   <path d="m-184.67618 390.83159c-0.40851-1.78772-0.32292-9.49065-0.12589-11.66156 0.50551-5.55734 0.66616-6.77037 2.10779-11.4467 0.12571 5.15794-0.0391 6.55552-0.74658 12.61873-0.3609 3.0924-0.4085 8.92006-1.23532 10.48953"/>
   <path d="m-72.060742 387.19232c0.311326-1.79771 0.05866-9.49565-0.162261-11.6605-0.565595-5.54165-0.732849-6.75022-2.086924-11.38607 0.0107 5.16007 0.185976 6.55248 0.938081 12.59465 0.383542 3.08117 0.560424 8.9058 1.311104 10.45192"/>
   <path d="m-135.04291 186.10549c-0.18544 0.91776-0.40333 1.05434-0.65742 1.53346-0.27549 0.51905-0.35591 1.03205 0.11928 1.37779 0.31739 0.23002 0.44578-0.26425 0.45737-0.52512 0.0353-0.79864 0.0496-0.64441 0.27941-1.07306 0.21735-0.40494 0.58788-0.80061 0.53136-1.25708-0.0424-0.34306-0.57737-0.80809-0.73-0.056"/>
   <path d="m-123.23727 183.74915c-0.46503-1.02706-0.89351-1.91878-1.97673-2.24063-1.12959-0.33576-2.81425-0.42972-3.99804 0.0216-1.0094 0.38479-1.73673 1.05344-2.81531 1.12066-0.78403 0.049-1.46285-1.12869-2.40699-1.35764-0.36946-0.089-0.73428 0.559-0.53725 0.88352 0.54081 0.89315 1.47943 1.60478 2.51451 1.74475 1.29755 0.17599 2.24063-0.56862 3.43868-1.09838 1.13619-0.50229 2.33906-0.35983 3.48148-0.10805 0.82022 0.18098 1.53345 0.68934 2.29965 1.03419"/>
   <path d="m-133.83433 185.62228c0.65403 0.14193 1.33446 0.6576 1.9621 0.42651 1.20198-0.44113 2.4817-1.80591 4.46806-1.63509 1.17327 0.1011 2.40752 0.70771 3.21562 1.5643 0.26853 0.28405-0.36946 0.80881-0.70949 0.61624-1.34356-0.76334-2.26702-1.17969-3.28587-1.09072-0.99175 0.0868-1.89952 1.10641-2.74257 1.63545 1.49245 0.0647 3.16052 0.0911 4.68542 0.14711 0.63228 0.0228 0.82682 0.33468 1.18932 0.87246 0.61053 0.90527 1.02509 1.49815 1.80894 2.01417 0.2992 0.19721-0.6642 0.42206-1.01636 0.35537-0.47769-0.0906-0.71377-0.69915-1.1237-0.9593-0.63781 0.68685-1.07966 1.48442-1.90291 1.81251-0.94522 0.37694-2.18 0.3502-3.14447-0.33165-0.74801-0.52922-1.04008-1.45055-1.33536-2.34672-0.74087 0.61605-1.39901 1.13778-2.14006 1.75384-0.44113 0.0713-0.55079-0.0945-0.61409-0.33148 0.94575-1.02705 1.72567-1.81714 2.67124-2.84366-0.84358-0.27906-1.84977-0.47823-1.98582-1.65934zm3.05995 2.95582c1.53256-0.10716 2.97294 0.0107 4.47055 0.24821-0.18044 0.63834-0.76369 1.49493-1.58694 1.72745-1.69732 0.48018-2.63647-0.37498-2.88361-1.97566"/>
   <path d="m-128.68282 187.31692c0.71109 0 1.29078 0.57986 1.29078 1.29149 0 0.7111-0.57969 1.29131-1.29078 1.29131-0.71163 0-1.29149-0.58021-1.29149-1.29131 0-0.71163 0.57986-1.29149 1.29149-1.29149"/>
   <path d="m-145.39979 187.38771c0.71163 0 1.29131 0.58022 1.29131 1.29149 0 0.71163-0.57968 1.29131-1.29131 1.29131-0.71127 0-1.29095-0.57968-1.29095-1.29131 0-0.71127 0.57968-1.29149 1.29095-1.29149"/>
   <path d="m-139.42609 180.94934c0.34485-0.2441 1.03882 0.29885 0.86836 0.67686-0.43472 0.96483-0.94058 1.8808-1.83265 2.44996-0.50301 0.32132-0.98873-0.13551-1.54362-0.35447-1.66487-0.65796-3.48861-1.3202-5.46641-1.35408-1.84478-0.0312-2.56711 0.65921-3.47292 1.09642 0.26854-0.63442 1.17773-1.68573 3.37646-1.96674 1.44697-0.18491 2.64788 0.0975 4.08398 0.35483 0.86979 0.1562 1.86956 1.02403 2.73329 0.83805 0.72999-0.15727 0.64458-1.30861 1.25351-1.74083"/>
   <path d="m-147.50811 185.06774c0.82842-0.40441 1.96175-0.75924 3.44813-0.37106 0.97963 0.25534 1.75848 1.12976 2.72331 1.43663 1.05951 0.337 2.26042-0.23858 3.20207 0.35269 0.52922 0.33166 0.74907 1.03419 0.56613 1.63117-0.1036 0.33807-0.67526 0.46396-0.95538 0.24856-0.43472-0.33557-0.25463-1.18111-0.77778-1.34747-0.9256-0.29421-1.58267 0.42401-2.51166 0.14211-1.03151-0.31347-1.97013-1.51384-2.97098-1.91521-0.84411-0.33861-1.81553-0.11822-2.72384-0.17742"/>
   <path d="m-151.61117 189.39386c0.44827-0.49694 0.68988-1.25155 1.34445-1.38296 1.91557-0.38515 4.25373-0.88958 6.57887-1.17006 1.13672 0.36232 1.95658 0.69897 3.1837 1.34748 1.021 0.53938 0.22342 2.35028-0.70752 2.7299-0.26194 0.10663-0.4217 0.0325-0.45951-0.24767-0.0744-0.5483-0.11215-1.68912 0.0763-2.20871-0.40886 1.04364-1.46534 2.5828-2.80016 2.91784-1.24798 0.31347-2.48526 0.17742-3.28944-0.67418-0.47305-0.50051-0.9083-1.24085-1.16756-1.87919-0.41296 0.26015-0.82539 0.51994-1.23782 0.78027-0.50693-0.0711-1.01386-0.14193-1.52133-0.21272zm8.47983-0.74497c-1.36781-0.0501-3.12165 0.0143-4.48999 0.24803 0.36553 1.17327 1.42896 1.87366 2.55409 1.80448 0.96393-0.0592 1.75883-1.03615 1.9359-2.05251"/>
  </g>
  <path d="m-174.4632 313.80174c0.58824 0.10966 1.21196 0.21326 1.86903 0.32256 1.75349 0.29207 3.73824 0.62319 5.3835 1.08822l0.30383 0.18187c0.87586 0.91936 1.62439 1.45322 2.33906 1.96211 0.5622 0.40084 1.1064 0.78848 1.667 1.30914 0.68489 0.63532 1.45518 1.95444 2.25935 3.33277 0.64548 1.10551 1.3136 2.25079 1.90701 3.01003 0.58575 0.75103 1.02046 1.37065 1.41221 1.9293 0.73944 1.05523 1.32073 1.88418 2.66375 3.14233 1.7558 1.64472 3.6013 3.11398 5.47996 4.60963 0.74497 0.59323 1.49708 1.19182 2.3164 1.8619 1e-3 5.4e-4 2e-3 1e-3 2e-3 2e-3l-2e-3 -2e-3c5.4e-4 5.4e-4 2e-3 1e-3 2e-3 2e-3 0.0749 0.0612 0.19168 0.15762 0.3008 0.24713 1.04578 0.8607 2.27094 1.86868 3.42496 2.29376 0.66562 0.245 1.46872 0.0984 2.27343-0.049 0.59644-0.1093 1.19538-0.21896 1.8216-0.20113 0.76477 0.0212 1.37975 0.1874 2.00152 0.35519 0.48072 0.13052 0.96785 0.26193 1.49048 0.3099 0.93826 0.0859 1.8125 0.0143 2.61525-0.16583 0.39317-0.0884 0.77083-0.2047 1.13262-0.34164-0.16565-0.0476-0.33255-0.0956-0.50283-0.1455-0.90474-0.26443-1.82375-0.54544-2.68087-0.82396l1e-3 2e-3c-0.5417-0.17581-0.97695-0.3962-1.41363-0.61748-0.36339-0.18402-0.72928-0.36964-1.16346-0.51924-0.48589-0.16672-1.03009-0.2819-1.58053-0.3978-0.92453-0.19454-1.86725-0.39317-2.67231-0.82843-0.91241-0.49266-1.61138-1.19787-2.31142-1.90433-0.48981-0.49445-0.98158-0.99068-1.49707-1.36121-0.30331-0.21843-0.63389-0.43472-0.98159-0.651-0.3634-0.22539-0.69452-0.41903-1.0144-0.60055l5e-3 -0.0107c-0.61873-0.38568-1.5816-1.20608-2.48527-1.6777-1.09125-0.56898-2.00151-1.22962-2.41644-1.83373 1.49049 0.38515 3.98895 1.4764 5.48906 2.42821 0.37962 0.21522 0.74051 0.42509 1.06093 0.62426 0.33611 0.20826 0.68489 0.43917 1.05523 0.70556 0.63282 0.45434 1.15241 0.9791 1.67058 1.50172 0.63228 0.63781 1.26367 1.27508 1.99188 1.66843 0.64298 0.34771 1.49066 0.52619 2.32051 0.70093 0.13444 0.0284 0.26835 0.0562 0.40191 0.0851 0.91633 0.0838 1.74368-0.0178 2.41144-0.44898 0.0314 0.53938-0.16422 0.83912-0.43721 1.05594 0.23947 0.10823 0.46396 0.22235 0.68685 0.33504 0.38318 0.19418 0.76476 0.38729 1.22676 0.53742l2e-3 1e-3c0.89065 0.28922 1.79129 0.56506 2.642 0.81434 0.9486 0.27744 1.89934 0.54027 2.74257 0.7612l-7e-3 0.0303c1.08876 0.17438 1.97317 0.12981 2.65056-0.13498 0.59181-0.23145 1.03758-0.64655 1.33892-1.24388-0.11982-9e-3 -0.23965-0.0187-0.3609-0.0319-1.35265-0.14603-2.81032-0.5458-3.82775-0.91223-0.80167-0.28868-1.60032-0.60856-2.37917-0.94931-0.79151-0.34574-1.60531-0.73285-2.41893-1.14831v4e-3c-0.29671-0.15121-0.57772-0.34467-0.85838-0.53778-0.35127-0.24161-0.70254-0.48375-1.04667-0.57933-0.75764-0.21022-1.66487-0.4422-2.59047-0.86016-0.95984-0.43418-1.91753-1.05951-2.70869-2.04252-0.45629-0.56756-0.98711-1.05987-1.58801-1.52187-0.61356-0.47109-1.31967-0.92399-2.10458-1.39562l5e-3 -9e-3c-0.96786-0.53618-2.12187-1.23229-3.25057-1.89685 1.09731-0.0754 2.49953-0.0421 4.08862 0.95877 0.72429 0.44077 1.39241 0.87799 2.00811 1.35104 0.69041 0.53029 1.29898 1.09535 1.82214 1.74475 0.63335 0.78759 1.4188 1.29648 2.21227 1.65542 0.65653 0.2967 1.33286 0.49676 1.94143 0.66562 0.89671 0.17029 1.51027 9e-3 2.18303-0.42705 0.0353 0.61053-0.21932 0.91384-0.55044 1.13761 0.0915 0.0612 0.18348 0.12393 0.27388 0.18616 0.23055 0.15923 0.46253 0.31881 0.70521 0.4422l3.6e-4 4e-3c0.73606 0.37605 1.524 0.74907 2.34636 1.10836 0.77582 0.33861 1.54754 0.64905 2.29662 0.91901 0.94468 0.34003 2.29019 0.71056 3.52551 0.84358 0.8648 0.0929 1.65881 0.0717 2.17287-0.16137l0.0182 0.0385c0.62783-0.27709 1.08465-0.60411 1.31717-0.99781 0.12695-0.21487 0.18044-0.46557 0.1512-0.75514-0.34413-1.1048-2.37311-1.90452-4.23822-2.63843-0.47251-0.18598-0.93861-0.36946-1.302-0.52459l-0.0378-0.0187c-1.39045-0.69505-2.61828-1.25547-3.76106-1.74582-0.87086-0.37356-1.65934-0.69398-2.42054-0.99728-0.26122 0.14265-0.52209 0.28619-0.78295 0.42865-0.2598-0.56452-0.36999-0.98711-0.74248-1.49297-0.42455-0.49481-0.88459-0.94326-1.38243-1.34962-0.66259-0.54028-1.38884-1.00067-2.18499-1.39348-0.52761-0.26033-1.0078-0.63639-1.4607-1.08412-1e-3 -5.3e-4 -1e-3 -1e-3 -2e-3 -2e-3l2e-3 2e-3c-5.4e-4 -5.3e-4 -1e-3 -1e-3 -2e-3 -2e-3 -0.42722-0.42206-0.82949-0.91081-1.22516-1.42487l0.0125-9e-3c-0.66777-0.88495-1.45019-2.09745-2.23207-3.20902 1.01244 0.36285 2.21941 0.98105 3.20652 2.47813l9e-3 -7e-3c0.36196 0.47002 0.72732 0.91383 1.10694 1.28935l2e-3 1e-3c0.35341 0.34984 0.72072 0.63942 1.11104 0.83199 0.88655 0.43828 1.69821 0.95288 2.4398 1.55788 0.68934 0.56257 1.32216 1.20947 1.90344 1.95302 1.02403 0.40422 2.05109 0.8138 3.10133 1.26403 1.14188 0.49035 2.38024 1.05541 3.80189 1.76561 0.44738 0.19097 0.85321 0.35073 1.26724 0.51353 1.04632 0.41189 2.13596 0.84054 3.04123 1.36959 1.01244-2.34013-2.53733-4.46253-6.33833-6.7349-0.27995-0.16725-0.56096-0.33558-0.82985-0.49694-0.24571 0.13408-0.49124 0.26888-0.73695 0.40297-0.22396-0.48678-0.5039-1.03419-0.82896-1.6276-0.22181-0.31739-0.4069-0.68132-0.58931-1.03972-0.1997-0.39227-0.39531-0.77635-0.59091-0.98301-0.71877-0.75977-1.45607-1.34962-2.18945-1.9359-0.81434-0.65154-1.62511-1.30005-2.453-2.20781-1.53505-1.68306-2.80105-3.29747-4.10109-5.00174 8.9e-4 0.0107 4e-3 0.0202 4e-3 0.0303-1.55467-2.14469-2.56354-2.71974-3.85503-2.92248 1.27829-0.97855 3.89355-1.11603 5.44715-0.0182 0.24464 0.0956 0.49498 0.20166 0.75014 0.31881 1.35872 0.62176 2.87398 1.52846 4.5656 2.5409 0.85837 0.5146 1.81215 0.77992 2.76592 0.81184 0.99104 0.0339 1.98939-0.18205 2.89056-0.62836 0.11822-0.0587 0.20167-0.1521 0.25266-0.26372 0.0597-0.12999 0.0799-0.29118 0.0672-0.46307-0.0143-0.19096-0.0703-0.38924-0.1612-0.57219-0.13587-0.27495-0.34627-0.50996-0.60607-0.62871-1.09321-0.49838-2.32799-1.23943-3.60575-2.18446-1.18772-0.87906-2.41145-1.9334-3.5906-3.13182-0.40191-0.40886-1.10855-0.50033-1.82214-0.59234-0.58432-0.0752-1.17363-0.15174-1.7246-0.37908-0.48268-0.19971-0.93755-0.3962-1.42237-0.605-1.02188-0.44078-2.14612-0.92542-2.95974-1.22124-0.81238-0.2951-1.59265-0.4447-2.37258-0.59377-0.81932-0.15673-1.64079-0.31453-2.51664-0.62639-0.54492-0.19347-1.01137-0.39621-1.45928-0.59127-1.19075-0.51817-2.24366-0.97607-4.10912-0.88513-0.87086 0.0426-1.76811 0.1093-2.63487 0.17296-1.54611 0.11376-2.99737 0.22039-4.28814 0.18402-1.19949-0.0339-2.2836-0.60304-3.36576-1.17114-0.73695-0.38621-1.4739-0.77279-2.17394-0.93558-0.47002-0.10966-0.76922-0.19917-1.01136-0.27085-0.55401-0.16529-0.75157-0.22396-1.5857 5e-3 -1.64811 0.82628-3.13217 2.02023-4.18098 3.6407-0.9199 1.42166-1.50778 3.17568-1.57999 5.30254-0.0237 0.7136-0.0631 1.35854-0.0995 1.96514-0.15976 2.6338-0.27192 4.49641 1.22872 5.69429zm53.8517 19.97306c0.0125 0.054 0.0223 0.10966 0.0303 0.16583l-0.016 8.9e-4c0.0294 0.50604-0.0879 0.9634-0.33308 1.37886-0.50586 0.85731-1.56983 1.45678-2.99362 1.88686-0.416 1.11051-1.14028 1.86707-2.17287 2.27094-1.01743 0.39781-2.31445 0.43222-3.88748 0.10306-0.77583 0.42616-1.65382 0.77885-2.62364 0.99728-0.92809 0.2088-1.93429 0.29118-3.00646 0.19311-0.6428-0.0587-1.17969-0.20363-1.71033-0.34734-0.55651-0.1505-1.10694-0.29921-1.70036-0.31579-0.48321-0.0125-1.02099 0.0849-1.55627 0.18295-0.97856 0.17937-1.95444 0.35786-2.95065-9e-3 -1.37138-0.50497-2.68908-1.58909-3.8142-2.51451-0.0934-0.0774-0.17635-0.14568-0.29814-0.24571l-2e-3 -2e-3c-0.72999-0.5968-1.51937-1.2257-2.30392-1.84978-1.87973-1.49672-3.72612-2.96652-5.56127-4.68595-1.42897-1.33856-2.05073-2.22493-2.84117-3.35273-0.37356-0.53315-0.78848-1.12459-1.3703-1.8701-0.68025-0.8714-1.35907-2.03379-2.01364-3.15535-0.7571-1.29755-1.48192-2.53947-2.01364-3.03268-0.51353-0.47626-1.01244-0.83145-1.52704-1.19894-0.74336-0.52922-1.52079-1.08323-2.40984-1.99296-1.55824-0.42509-3.41942-0.73552-5.06967-1.01083-0.75299-0.12535-1.46462-0.24428-2.04948-0.35483l-0.26835-0.11626c-2.20639-1.62707-2.07444-3.80653-1.88579-6.92105 0.0369-0.61213 0.0767-1.26421 0.099-1.9268 0.081-2.37596 0.73944-4.33914 1.7706-5.93286 1.18272-1.82713 2.85472-3.16498 4.70824-4.08452l0.10663-0.0403c1.23675-0.34823 1.52026-0.26336 2.34868-0.0161 0.25338 0.0752 0.5656 0.16886 0.93666 0.25534 0.8664 0.20167 1.67396 0.62515 2.48223 1.04917 0.95021 0.49837 1.90255 0.99835 2.79909 1.02349 1.21963 0.0344 2.64342-0.0706 4.1619-0.18241 0.84857-0.0622 1.72799-0.12731 2.66268-0.17278 2.17786-0.10627 3.35702 0.4069 4.69148 0.98712 0.43008 0.18704 0.87835 0.38211 1.3728 0.55793 0.79597 0.28315 1.5627 0.43008 2.32746 0.57682 0.83912 0.16012 1.67806 0.32096 2.57228 0.64584 0.86836 0.31543 2.00098 0.80417 3.0316 1.24851 0.53885 0.23198 1.05737 0.45594 1.40062 0.59787 0.40476 0.16726 0.89957 0.23145 1.38991 0.29421 0.94522 0.12179 1.87973 0.24268 2.60295 0.97802 1.13779 1.15651 2.30696 2.16538 3.43209 2.99773 1.19841 0.88655 2.35082 1.5791 3.36522 2.04145 0.55543 0.25374 0.98711 0.71984 1.25047 1.25209 0.1653 0.33361 0.26729 0.69843 0.29403 1.05327 0.0284 0.37355-0.0262 0.74461-0.17527 1.07163-0.1603 0.35127-0.42705 0.6469-0.81273 0.83752-1.0777 0.53421-2.27968 0.79151-3.48005 0.75103-1.17613-0.0399-2.34726-0.36446-3.39803-0.99371-1.65987-0.99372-3.14643-1.88276-4.43471-2.47261-0.69452-0.31846-1.32787-0.54937-1.89756-0.66259 0.10663 0.13997 0.21593 0.28458 0.32559 0.42865 1.53042 2.0156 2.93763 3.86859 4.74408 5.84995 0.73998 0.81113 1.51883 1.43396 2.30071 2.05964 0.76727 0.61356 1.53863 1.23016 2.32301 2.05965 0.32202 0.33967 0.5631 0.81433 0.8097 1.29844 0.26033 0.51157 0.52922 1.03865 0.80417 1.20804 0.62729 0.38568 1.15544 0.70111 1.67503 1.0119 4.26853 2.55142 8.2589 4.93862 6.95386 8.20737 0.47626 0.71413 0.73499 1.35711 0.80417 1.93839"/>
  <path d="m-181.54241 287.74212c-0.3691 0.14407-0.73641 0.29527-1.10194 0.45201-0.26586 0.12535-0.59181 0.28547-0.91134 0.4422-0.49926 0.24553-0.98462 0.48322-1.48299 0.69184-2.81532 1.46534-5.28436 3.24646-6.73793 5.05897-0.0405-1.69108 1.30148-3.15784 3.31422-4.50639-0.85588 0.0328-1.672 0.12285-2.46404 0.24606-1.26564 0.19614-2.5343 0.49124-3.8101 0.78349-0.89565 0.20524-1.59979 0.4604-2.21477 0.81523-0.60554 0.34931-1.14029 0.80827-1.70392 1.42379l-0.0105-0.0107c-0.85267 0.93558-1.69286 1.61173-2.55516 2.22939-1.29631 0.92863-2.76468 2.34779-3.72005 3.88392-1.39848 2.25025-1.40757 3.49556-2.16931 4.73855 0.3083-1.82874 0.63639-4.54652 2.04057-6.60259 1.34997-1.97691 3.39339-3.561 5.18682-5.47853 2e-3 -2e-3 4e-3 -5e-3 7e-3 -7e-3 0.0105-0.0107 0.0216-0.0226 0.0323-0.0339 0.17189-0.18544 0.34164-0.37302 0.508-0.56506 8e-3 0.0107 0.0166 0.0193 0.0248 0.0294 0.47252-0.44328 0.95467-0.80881 1.48906-1.11711 0.76262-0.43971 1.61993-0.75264 2.69799-0.99924 0.62425-0.14247 1.24441-0.28565 1.87669-0.42009-3.91316-1.37726-7.9021-0.82682-11.61859 1.12316 2.26845-2.10119 5.1763-3.35309 8.97107-3.02197 2.04056 0.17831 4.04814 0.92435 6.89163 1.27116 0.67186-0.043 1.3612-0.0556 2.07194-0.0273 0.86926-0.21183 1.71587-0.6289 2.61401-1.0695 0.18615-0.0911 0.37409-0.18312 0.59145-0.28672-0.39068-1.27062-0.87996-2.52164-1.4739-3.71791-0.63835-1.28739-1.39901-2.51504-2.28663-3.64231-0.76727-0.97446-1.91415-1.50118-3.0851-2.03949-0.66063-0.30259-1.32947-0.60946-1.96228-0.99925-1e-3 -8.9e-4 -3e-3 -2e-3 -4e-3 -2e-3 -1.17113-0.63424-2.34369-1.34587-3.55726-1.92769-1.63562-0.78403-3.38341-1.31111-5.0752-1.96728 1.54719 0.0699 3.27125 0.0815 5.1697 0.8705 1.3794 0.57308 2.72991 1.18718 4.07632 1.97067l7e-3 -0.0107c0.59127 0.36731 1.22765 0.6601 1.85655 0.9486 1.31146 0.60251 2.59528 1.19182 3.54353 2.39629 0.93772 1.19092 1.74332 2.49186 2.42107 3.8586 0.60108 1.21161 1.10034 2.4751 1.50279 3.75803 0.51192-0.2063 1.04881-0.39032 1.6037-0.54901 0.8056-0.23038 1.66237-0.41386 2.55249-0.54687 0.16886-5.58516-1.75081-8.89065-4.43168-12.72001 2.50399 2.17608 5.52239 4.17849 5.93286 12.54758 0.80364-0.0656 1.6235-0.0893 2.44943-0.0692-0.11537-0.6034-0.21843-1.23229-0.31347-1.87617-0.13248-0.89724-0.25124-1.84692-0.3609-2.81281-0.1455-1.27883-0.12588-2.56158-0.10663-3.83631 0.0152-1.00281 0.0308-2.00152-0.0383-2.98204-0.0152-0.21236-0.0143-0.35893-0.0137-0.50051v-0.0246c-1e-3 0-3e-3 0-5e-3 3.6e-4 -0.22841-4.55792-1.29381-9.12262-2.76414-13.61814 2.03343 2.91142 3.65729 7.85271 3.94187 12.83822l0.0127-1e-3c0.0501 0.44631 0.049 0.62569 0.048 0.81077-3.6e-4 0.0995-9e-4 0.2031 0.0132 0.40833 0.0713 0.99871 0.0551 2.03842 0.0389 3.08367-0.0187 1.24691-0.0383 2.50256 0.0966 3.68724 0.1061 0.93059 0.22236 1.86047 0.35627 2.76878 0.10912 0.73909 0.22805 1.45125 0.36196 2.11991 1.19378 0.0956 2.38559 0.28654 3.53747 0.58325 3.8627 0.99621 7.3037 3.1746 9.00048 6.90125h4e-3c0.23001 0.50551 0.42812 1.04329 0.59091 1.61245 0.0849 0.2967 0.31079 1.15383 0.47805 2.26541 0.1011 0.67115 0.18241 1.43734 0.20113 2.23349l-1.74065 0.041c-0.0178-0.72233-0.09-1.41274-0.18152-2.01578-0.15317-1.01742-0.35483-1.78415-0.42954-2.04805-0.13659-0.47715-0.30527-0.93309-0.50301-1.3678h4e-3c-1.44858-3.18174-4.45646-5.05933-7.85092-5.93483-3.47898-0.89725-7.34507-0.74854-10.40306 0.12589-0.3584 0.10199-0.70307 0.21326-1.03152 0.33254 8.9e-4 2e-3 2e-3 4e-3 2e-3 5e-3" fill-rule="evenodd"/>
  <path d="m-166.28882 298.02339-1.29933-0.75318c-0.0517-0.0298-0.10931-0.0587-0.17136-0.0859-2.09352-0.92489-5.33446 1.97833-6.55462 4.74212-1.06807 2.41947-1.67807 5.95711-1.3712 8.93165 0.14301 1.38938 0.48661 2.63737 1.07645 3.55227 0.52833 0.81826 1.27277 1.36513 2.27308 1.47693 0.9108 0.10163 2.05305-0.13142 3.46115-0.80364l1.08822 1.28168c-1.63563 2.3494-3.53604 3.64588-5.45322 4.09058-0.16172 1.52186 0.0132 2.87505 0.63496 5.11104 0.0717 0.25872-0.15869 0.7719-0.3559 0.57522-1.53203-1.52846-1.6169-3.23987-1.61744-5.51187-1.1681 0.035-2.31284-0.23448-3.37841-0.76316-0.18901-0.094-0.37499-0.19614-0.55793-0.3058-0.43008 1.80091-0.47412 3.87375 0.39888 6.39076 0.0893 0.25872-0.15834 0.78741-0.35537 0.58681-1.68056-1.71248-2.17751-4.24375-1.11711-7.73521-0.72072-0.59145-1.37832-1.31217-1.94891-2.14255-1.81465-2.64093-2.78001-6.42125-2.11385-10.66749 0.0824-0.52815 0.17902-1.04864 0.28868-1.55913-3.0291-0.0678-5.09534 1.76953-7.07207 3.78424 0.799-2.73151 2.82441-4.82557 7.51071-5.5372 0.66884-2.3164 1.64133-4.38425 2.93157-6.04715 0.19971-0.2573 0.40797-0.50444 0.62284-0.74195-2.26042-1.15651-4.55561-0.59341-6.85383 0.13445 1.7312-1.7756 4.13908-2.56961 8.0057-1.24745 1.46374-1.22819 3.20849-2.04199 5.24602-2.31391 0.32398-0.0435 0.72429-0.0722 1.15187-0.0697 0.97339 4e-3 2.18749 0.1587 3.22418 0.63389 1.15294 0.52815 2.07587 1.42986 2.27397 2.90928 0.0262 0.19917 0.0394 0.39424 0.0389 0.58325l-7e-3 1.50118zm-2.10154-2.71368c-0.23252-0.30526-0.55847-0.53386-0.92596-0.70254-0.76887-0.35233-1.72567-0.46663-2.51005-0.47073-0.37249-2e-3 -0.68792 0.0187-0.92043 0.0496-2.44122 0.32613-4.39067 1.60282-5.87117 3.50983-1.69429 2.18303-2.78946 5.18789-3.31868 8.56273-0.59198 3.77355 0.24803 7.10703 1.83462 9.4163 0.8138 1.18486 1.81768 2.09103 2.91392 2.63487 1.06343 0.52726 2.2219 0.71733 3.38144 0.48981 0.83948-0.16476 1.68823-0.54883 2.51309-1.18325-0.43472 0.0435-0.84572 0.0415-1.23283-2e-3 -1.57857-0.17688-2.73704-1.01404-3.5446-2.26541-0.74515-1.15544-1.17166-2.66625-1.34141-4.31453-0.33665-3.26465 0.33308-7.15 1.5067-9.80858 1.3095-2.96545 4.69505-5.96424 7.51536-5.9161"/>
  <path d="m-69.577082 328.34174c0.401908 1.8216 0.392814 3.64427 0.317033 5.46694 0.781348-1.94998 1.089644-4.13605 1.057905-6.49293 0.789015-0.7127 1.428787-1.54772 1.901483-2.50506 1.234787 1.59569 1.800382 3.67066 2.046448 5.97388 0.774394-3.00183-0.06615-5.86868-1.211964-8.7102 0.300094-2.00116 0.190434-3.84648-0.26033-5.52347 0.351268-0.87656 1.065394-1.56091 2.756116-1.85191 1.751347-0.30188 3.465784 0.82022 5.198944 2.31641-1.294877-2.31088-2.73044-3.41889-5.712473-3.79637-1.226763-0.15531-2.316942 0.47305-2.998259 1.28275-0.274417-0.57665-0.592341-1.12959-0.951277-1.65577-1.194311-1.75242-2.833502-3.21206-4.778849-4.35644 0.566487-1.49654 1.786653-2.6864 3.31654-3.73075-2.280032 0.66277-3.862521 1.65381-4.749071 2.97151-0.715731-0.34057-1.463201-0.64387-2.23706-0.90777-1.431461-0.48767-2.866311-0.76976-4.233581-0.85624-0.08131-1.54968 0.508536-3.10025 1.420228-4.65046-1.752774 1.54718-2.758613 3.09472-3.018408 4.64084-0.675255 0.0365-1.324298 0.12446-1.936432 0.26389-1.208932 0.27602-2.283955 0.75157-3.151426 1.41934-0.898676 0.69184-1.572326 1.58445-1.941781 2.66964-0.360362 1.05701-0.425088 2.28413-0.121963 3.66798-1.297908 1.25458-2.624703 2.50702-3.468281 3.05693-0.621584 0.40547-1.348548 0.69665-2.073729 0.98711-0.892613 0.35751-1.784869 0.71538-2.585475 1.30665-0.976418 0.72179-1.70677 1.65024-2.434626 2.57567-0.264431 0.33575-0.52922 0.67222-0.78188 0.97053-0.36554 0.43008-0.69255 0.88851-1.01904 1.34641-0.45682 0.63995-0.91436 1.28043-1.46231 1.80502-1.60317 1.53505-3.26661 2.24971-4.646 2.84206-0.79348 0.34074-1.50011 0.6444-2.08942 1.04471-0.48732 0.33112-0.78706 0.93861-0.87336 1.56751-0.0859 0.62408 0.0389 1.29987 0.39923 1.76186 1.12263 1.43753 2.41341 2.06928 3.69081 2.23261 0.68328 0.0874 1.35497 0.0394 1.99082-0.092-0.46039 0.86319-0.87889 1.75188-1.08768 2.74042-0.22735 1.07717-0.22539 2.17555-0.22289 3.26466 1e-3 0.62176 2e-3 1.24138-0.044 1.86314-0.0833 1.1114-0.33611 2.21228-0.58878 3.31012-0.40333 1.75189-0.80524 3.49967-0.58431 5.30861 0.17438 1.42736 0.6066 2.55605 1.14795 3.40462 0.57861 0.90742 1.29291 1.50885 1.96959 1.82624 0.0703 0.54883 0.34182 1.18682 0.77689 1.72246 0.50141 0.6182 1.22784 1.1196 2.12598 1.2248h-2e-3c0.13784 0.0161 0.27638 0.0237 0.4119 0.0207 1.31003-0.0289 2.000441-1.03009 2.697984-2.04306 0.230019-0.33398 0.460928-0.6692 0.71163-0.94771 0.01605-4e-3 0.03388-7e-3 0.05421-9e-3 1.514732-0.26907 3.029998-0.53796 4.171352-2.62078 0.629786 0.11929 1.363169 0.12375 2.104576-0.0506 0.785093-0.18437 1.582667-0.56898 2.281102-1.22819 1.12067-1.0579 2.038959-2.28003 2.956892-3.50162 0.425088-0.5656 0.85071-1.13226 1.305575-1.69126 0.261223-0.32096 0.52922-0.62319 0.79597-0.92489 0.607141-0.68595 1.214638-1.37279 1.694823-2.17643 0.43864-0.73392 0.741408-1.51277 1.043641-2.29127 0.265858-0.68488 0.532251-1.37012 0.898675-2.00704 0.355904-0.61873 0.745152-1.159 1.129229-1.69233 0.678286-0.94254 1.346051-1.8701 1.775062-3.0316 0.514598-1.39348 0.897249-2.84866 1.206079-4.32256 0.09593-0.45629 0.184371-0.91222 0.267285-1.36566 2.191591-0.26176 4.101633-0.87033 5.64525-1.82214zm-33.043258 6.68247 0.90527-1.52989c0.13141-0.17849 0.25373-0.36304 0.36946-0.55596 0.45896-0.76638 0.79561-1.64027 1.11246-2.65823 0.234123-0.59395 0.470204-1.09981 0.427766-1.81251-0.01872-0.32345-0.697006-0.37551-0.907416-0.12981-0.291 0.33915-0.41492 0.71716-0.52101 1.1114l-0.0309-9e-3c-0.33611 1.14385-0.6708 2.09049-1.13672 2.86684-0.42972 0.71769-0.98408 1.30665-1.77916 1.80199-0.60001 0.15513-1.23836 0.22788-1.8742 0.14657-0.98052-0.12535-1.9828-0.62586-2.87648-1.77007-0.14853-0.19008-0.19364-0.51656-0.14906-0.84162 0.0419-0.30526 0.16279-0.58378 0.34823-0.70967 0.50141-0.34021 1.15188-0.62015 1.88223-0.93344 1.46926-0.63139 3.24201-1.39259 5.01243-3.08831 0.62676-0.6 1.11907-1.28935 1.61138-1.97887 0.308292-0.43168 0.617657-0.86533 0.956265-1.26402 0.290643-0.34271 0.550974-0.67383 0.810769-1.00442 0.679356-0.86319 1.361208-1.73013 2.198724-2.34921 0.670262-0.49534 1.490482-0.82397 2.31088-1.15241 0.779921-0.3124 1.561805-0.62569 2.285559-1.09731 1.06896-0.69701 2.712253-2.29073 4.216821-3.75037 1.012971-0.98266 1.962642-1.90451 2.594568-2.41394l-0.02782-0.0349c0.129274-0.0449 0.262827-0.0884 0.399233-0.12838 1.259037-0.36839 2.736502-0.49178 4.028883-0.31935 0.661168 0.0879 1.2651 0.25409 1.748851 0.5039 2.862388 1.47836 5.327326 4.56363 6.449957 7.47238 0.260866 0.67579 0.446307 1.33892 0.542772 1.96318-0.582178 0.29153-1.171488 0.59341-1.748316 0.95573-0.688271 0.43275-1.327686 0.93719-1.852448 1.5791-0.570053 0.69844-0.579682 1.43378-0.588241 2.20568v2e-3 -2e-3 2e-3c-0.0036 0.29171-0.0071 0.59038-0.04903 0.86533-0.218963 1.44305-0.450408 2.90483-0.745509 4.3124-0.29617 1.41327-0.663129 2.80889-1.158471 4.14924-0.374091 1.01243-0.989612 1.86814-1.615476 2.73739-0.419916 0.58343-0.844469 1.17327-1.201978 1.79396-0.395132 0.68738-0.685775 1.43432-0.975348 2.18036-0.282619 0.72786-0.56613 1.45678-0.952346 2.10369-0.424553 0.7102-0.992644 1.35211-1.559844 1.99295-0.284046 0.32096-0.568626 0.64298-0.829848 0.9634-0.4513 0.55454-0.893148 1.14225-1.334462 1.7296-0.882449 1.17469-1.765969 2.35082-2.816741 3.34257-0.526189 0.49623-1.126554 0.78581-1.716934 0.92489-0.42063 0.0986-0.834484 0.12125-1.214103 0.0895 0.175277-0.31703 0.345205-0.64441 0.508001-0.97357 0.339678-0.6888 0.642803-1.37583 0.885481-1.9753 1.896847-1.37975 2.844557-3.77158 3.916727-6.47617 0.168323-0.42651 0.338073-0.85463 0.410823-1.03454 0.103597-0.2573 0.230018-0.48286 0.366424-0.67883 0.03495-0.0506 0.06972-0.0991 0.106272-0.14567 0.08737-0.0975 0.176347-0.19757 0.265323-0.29921 0.01605-0.016 0.03227-0.0323 0.0485-0.0474l-0.0036-4e-3c0.47965-0.54848 0.976953-1.13119 1.447509-1.6169 0.234119-0.24161 0.2614-0.76423-0.06508-0.68239-1.074131 0.27049-1.880799 0.91847-2.301251 1.48406-0.17492 0.17492-0.348236 0.37605-0.509962 0.60803-0.181518 0.26123-0.351803 0.56703-0.495876 0.92436-0.20987 0.51923-0.315428 0.78509-0.415994 1.03971-1.025631 2.58833-1.929834 4.86997-3.620022 6.01792l-0.226452 0.28404c-0.249097 0.62712-0.56506 1.35301-0.912227 2.05751-0.206838 0.41867-0.424552 0.83199-0.647973 1.21767l-0.02478-9e-3 -0.10966 0.23644c-0.05064 0.0829-0.101101 0.16476-0.151205 0.24464l0.02889 0.0182c-0.748183 1.60834-1.787366 2.02843-2.873087 2.25845-0.01854-4e-3 -0.03637-7e-3 -0.05189-0.0125l-0.0018-2e-3c-0.07221-0.0248-0.124281-0.0981-0.15923-0.19864-0.06615-0.19061-0.07774-0.44488-0.05153-0.71876 0.02889-0.29885 0.105737-0.6198 0.209335-0.919 0.267819-0.77529 0.531181-1.55057 0.771719-2.43712 0.231088-0.84929 0.440779-1.80003 0.615165-2.94887 0.552935-0.72126 1.035081-1.59765 1.449649-2.61508 0.413854-1.01653 0.762091-2.17643 1.049703-3.46685 0.155128-0.18491 0.3099-0.37249 0.462532-0.56149v2e-3c0.03798-0.0465 0.07739-0.095 0.116792-0.14514 0.0071 7e-3 0.01426 0.0125 0.02211 0.0184 0.636383-0.8664 1.279899-1.77577 1.704987-2.76182 0.348236-0.8072 0.422948-1.2232 0.391209-2.10921-0.0054-0.17582-0.276557-0.34164-0.327553-0.17278-0.210761 0.69593-0.489814 1.64418-1.011902 2.26737-0.397806 0.47359-0.804171 0.88655-1.323763 1.48495l-0.01426-0.0107c-0.06883 0.0901-0.143182 0.18616-0.222886 0.28726-0.0011 1e-3 -0.0018 4e-3 -0.0036 4e-3 -0.02086 0.0243-0.04208 0.049-0.06276 0.0738 0.0011 1e-3 0.0016 1e-3 0.0018 2e-3 -0.07221 0.0906-0.149601 0.18544-0.22984 0.28565v2e-3c-0.173851 0.2154-0.355369 0.43418-0.542414 0.65564l-0.132484 0.26729c-0.278874 1.28132-0.617126 2.42464-1.020995 3.41425-0.34467 0.84661-0.738376 1.57999-1.184147 2.18963-0.295636 0.32345-0.591985 0.53475-0.888156 0.63371 0.151206 0.21736 0.302234 0.43418 0.452904 0.65207-0.145499 0.83805-0.312753 1.56537-0.493201 2.2285-0.232158 0.85375-0.487318 1.60639-0.747648 2.35938-0.06972 0.20114-0.129809 0.41493-0.176882 0.63389-0.0036-9e-3 -0.0071-0.0161-0.0107-0.0234-0.0107 0.0906-0.02264 0.18259-0.03834 0.27656-0.0011 7e-3 -0.0018 0.0143-0.0036 0.0207-5.35e-4 2e-3 -5.35e-4 4e-3 -0.0011 7e-3 -5.35e-4 2e-3 -8.92e-4 4e-3 -8.92e-4 5e-3 -0.178487 1.05345-0.647973 2.31391-0.932197 3.20599-0.452726 0.64405-0.918825 1.21214-1.513663 1.22534-0.087 1e-3 -0.16886-2e-3 -0.24321-0.0107h-2e-3c-0.54027-0.0631-0.99121-0.38211-1.31164-0.77635-0.0849-0.10467-0.15922-0.21487-0.22449-0.32453 0.13356 0.13605 0.25784 0.2771 0.36999 0.42563-1.01029-1.28276-0.3436-3.16462 0.20524-4.72179-4e-3 4e-3 -7e-3 5e-3 -0.0107 9e-3 0.43757-1.30504 0.80809-2.90589 1.16293-4.43685 0.23002-0.99211 0.453439-1.95498 0.671689-2.74756l0.02389-0.15406c0.0036-0.21593 0.0053-0.45094 0.0089-0.69201 0.01248-1.62243 0.02978-3.59417 0.777783-4.85481 0.17599-0.2976 0.409396-0.6642 0.639414-1.02545v-2e-3c0.193643-0.30419 0.386217-0.60696 0.573262-0.91829 5.35e-4 5.4e-4 8.92e-4 5.4e-4 8.92e-4 5.4e-4 0.0036-5e-3 0.0053-0.0107 0.0089-0.0161 0.07721-0.12945 0.153524-0.2598 0.228949-0.39317l-0.02033-0.0107c0.42063-0.82432 0.816297-1.68109 1.04685-2.56871 0.220925-0.85107 0.231445-1.27366 0.06473-2.14452-0.03299-0.17278-0.325591-0.29564-0.350376-0.12072-0.101993 0.71966-0.233049 1.69982-0.654036 2.39469-0.319886 0.52815-0.705032 1.14438-1.140819 1.85958l-0.02068-0.0125c-0.239112 0.42241-0.506932 0.84304-0.777783 1.26902v-2e-3c-0.204341 0.32095-0.409931 0.6444-0.658672 1.06396-0.919363 1.54879-0.937013 3.7008-0.951633 5.4714-2e-3 0.2088-5e-3 0.41404-7e-3 0.6157-0.22591 0.82896-0.44077 1.75741-0.66259 2.71315-0.57112 2.46708-1.18789 5.12566-1.96068 6.1265-0.0278 0.0364-0.043 0.0556-0.0496 0.0642v2e-3c-0.0521 0.0688-0.11822 0.15673-0.194 0.23554-0.0537 0.0556-0.12642 0.10414-0.19561 0.0374l-0.0653 0.0678c-0.17189-0.18598-0.34021-0.40138-0.49837-0.64905-0.45237-0.70967-0.81523-1.66487-0.96429-2.88913-0.19561-1.59925 0.18187-3.23987 0.56006-4.88405 0.26729-1.16204 0.53511-2.32657 0.62266-3.49307 0.0465-0.62479 0.0455-1.28899 0.0439-1.95515-2e-3 -1.03366-5e-3 -2.07587 0.19365-3.01395 0.22502-1.06397 0.78241-2.07837 1.33481-3.08314 0.0456-0.0829 0.0915-0.16529 0.14657-0.26639zm15.458998-23.94827c0.616235-0.42402 1.372263-0.76174 2.198189-1.00335 1.477465-0.43257 3.214012-0.57718 4.736055-0.37409 0.856059 0.11376 1.654703 0.33772 2.319438 0.68096 3.238798 1.67289 6.016667 5.13565 7.272673 8.39031 0.519235 1.34499 0.788124 2.66625 0.737485 3.83168-0.05563 1.27883-0.483752 2.3888-1.363705 3.18477-0.792046 0.71519-1.921632 1.14688-3.442426 1.1747-0.0071 0.0628-0.01605 0.12481-0.02532 0.18847-0.0617 0.4044-0.12339 0.81077-0.188473 1.21927 2.133463-0.31899 3.914588-1.00994 5.232823-2.07034 1.328221-1.06807 2.197119-2.52877 2.487762-4.37872 0.500869-3.18317-0.177417-5.90255-1.671465-8.09414-1.667007-2.44533-4.356436-4.26176-7.571162-5.35711-2.441758-0.83199-4.868895-1.00084-6.829398-0.554-0.964471 0.21985-1.808584 0.58877-2.471714 1.09927-0.631747 0.48625-1.102304 1.10694-1.357107 1.85352-0.02318 0.0683-0.04386 0.13854-0.06366 0.2088zm12.561307 14.13916c0.993714-0.0383 1.702847-0.29974 2.169302-0.72073 0.469487-0.42455 0.717692-1.04524 0.780992-1.78415-0.400481 0.20559-0.792047 0.41795-1.153478 0.64494-0.587349 0.36892-1.126733 0.79151-1.553782 1.31413-0.126777 0.15567-0.199705 0.34164-0.243034 0.54581zm-29.004395 29.69979c7e-3 -9e-3 -0.0143 0.0193 0 0" fill-rule="evenodd"/>
  <path d="m-153.08756 194.74793c0.0505 1.45465 0.60856 2.29323 0.90117 3.32136 0.33968 1.19128 0.93451 2.42856 1.13672 3.65122 0.39121 2.36348-0.25819 4.28155-0.74961 5.92431 0.12891-1.95462 0.38817-3.96612-0.29011-5.94856-0.55953-1.63455-1.24139-3.22417-1.86208-4.83608-1.02349 1.61191-1.98582 3.12414-3.14322 4.64244-1.35158 1.77221-2.30393 3.84754-3.02305 5.77934 0.43062-2.57317 1.3621-5.23889 3.07101-7.9071 1.05024-1.63919 1.99956-3.08117 2.50239-4.91044 0.0471-0.47162 0.0708-0.93451 0.0471-1.38492-0.0358-0.67775-0.12125-1.31966-0.2063-1.96264-0.14604-1.10338-0.29314-2.21335-0.22646-3.30299 0.0713-1.17167 0.37356-2.47421 0.65511-3.69277 0.089-0.38372 0.17599-0.75924 0.2573-1.14385 0.22752-1.07413 0.4044-1.69982 0.65207-2.57924 0.16227-0.57575 0.35573-1.2601 0.58931-2.15414 0.2573-0.98623 0.62212-1.90416 1.11247-2.7456 0.49837-0.8557 1.12014-1.63063 1.88276-2.31444 1.17256-1.05185 2.60509-1.82107 4.02835-2.58584 0.98212-0.52725 1.96015-1.05291 2.80319-1.65131 1.14795-0.81469 2.05572-1.6811 2.76681-2.69496h-4e-3c0.61053-0.87086 1.08215-1.85601 1.44394-3.01751 0.28815-1.01957 0.6182-2.16128 1.00031-3.35916 0.24571 1.02403 0.48679 2.3362 0.78848 3.41015 0.3634 1.13476 0.84109 2.08657 1.44609 2.93264 0.72072 1.0078 1.63562 1.88116 2.76681 2.74346 1.04328 0.79561 2.21691 1.64775 3.37788 2.45495 1.14224 0.79365 2.24009 1.5224 3.15695 2.08853 0.92953 0.57469 2.06981 1.60121 2.99826 2.7217 0.83003 1.00192 1.51188 2.10529 1.76561 3.07672 0.32292 1.23728 0.51853 2.03539 0.63781 2.75362 0.12429 0.748 0.16886 1.39348 0.18545 2.30892 0.0143 0.78135-2e-3 1.53541-0.0178 2.26487-0.049 2.28859-0.0925 4.33005 0.87389 5.89952 0.0859 0.13944 0.22146 0.3436 0.3716 0.57059 0.61855 0.93451 1.47229 2.22351 1.92662 3.82365l-0.0535 0.0143c0.56257 1.53364 0.37302 2.87452 2e-3 5.43503-0.44631 3.08367 0.46502 5.67253 1.03312 7.48557-1.54558-1.5536-2.64646-4.26781-2.39522-7.15552 0.21682-2.48919 0.32755-5.01654-0.56364-6.7324 0.0143 7e-3 0.0284 0.0125 0.0424 0.0191-0.19347-0.40583-0.40779-0.78492-0.61909-1.13315-0.43222 2.07587-1.06646 3.87429-1.58356 6.01025-0.36285 1.50171 0.44631 3.49716 0.32898 5.03721-0.21629 2.84456-0.75513 3.93581-1.12709 4.84928 0.094-1.3653 0.11733-2.87397 0-4.23714-0.11982-1.3835-0.63691-2.8952-0.6576-4.28369-0.0267-1.73316 0.51656-3.0448 0.79811-4.75513-0.67276 0.56648-1.34605 0.47162-2.01917 0.28244 1.05327-0.44363 2.20461-1.07699 2.48866-2.44782 0.25177-1.21446 0.32969-2.43267-0.0934-4.09611 0.0143 0.0298 0.0298 0.0606 0.0455 0.0909-0.3502-1.44145-0.31596-3.01235-0.27959-4.70663 0.016-0.7177 0.0314-1.4591 0.0178-2.21281-0.016-0.85375-0.0546-1.44145-0.16227-2.08942-0.11269-0.6774-0.29973-1.44003-0.60963-2.62578-0.19347-0.74194-0.76673-1.64828-1.4764-2.50452-0.83537-1.00887-1.83622-1.91664-2.63326-2.40948-0.98569-0.60893-2.10529-1.34998-3.22632-2.12883-1.15187-0.80061-2.34315-1.66647-3.42994-2.49543-1.24281-0.94718-2.25721-1.92021-3.07404-3.06192-0.43775-0.61213-0.81523-1.26813-1.13779-1.99045-0.31685 0.73284-0.68934 1.40007-1.12298 2.01881h-4e-3c-0.81077 1.15579-1.83337 2.13488-3.11969 3.04818-0.92702 0.6576-1.94142 1.20305-2.95885 1.74939-1.33696 0.71769-2.68194 1.44055-3.73931 2.3888-0.65297 0.58521-1.17916 1.23782-1.59355 1.95052-0.42366 0.72625-0.73908 1.52079-0.96197 2.37507-0.26283 1.00566-0.44363 1.64454-0.59537 2.18339-0.23947 0.85017-0.41047 1.45464-0.62872 2.48633-0.0753 0.35573-0.16832 0.7571-0.26336 1.16703-0.26479 1.14635-0.54883 2.3715-0.61463 3.45009-0.0606 0.98926 0.0749 2.01025 0.20933 3.02519 0.094 0.71305 0.18848 1.42486 0.22342 2.0789 5e-3 0.10003 9e-3 0.20113 9e-3 0.30116 0.73303 0.29011 1.45625 0.59092 1.90915 1.13618 0.605 0.72786 0.59591 1.63064 0.99157 2.49044 0.4226 0.91936 0.68096 1.34837 1.37851 1.95854 0.32791 0.28708-0.0703 0.60803-0.38729 0.43561-0.92185-0.5023-1.16649-1.12245-1.69268-2.03129-0.38372-0.66313-0.33718-1.8307-0.79758-2.4423-0.32898-0.43578-0.89118-0.65956-1.4163-0.8951-0.0143 0.26229-0.0369 0.52511-0.0656 0.7899" fill-rule="evenodd"/>
  <path d="m-107.60799 223.98127c-0.78188-0.6576-1.58606-1.42646-2.29769-2.35135-0.71876-0.93416-1.33339-2.01578-1.71907-3.28035-0.26978-0.88494-0.39977-1.87723-0.40833-2.89466-7e-3 -0.94824 0.092-1.9268 0.28155-2.86791 0.37855-2.10066 1.17452-4.39727 1.39491-6.64449 0.27406-2.79053-0.25819-4.72286-0.38711-7.08421 0.75817 1.53595 1.32787 4.22039 1.45215 6.16235 0.12232 1.9079-0.0449 3.20599-0.53225 5.09535-0.26122 1.01083-0.57309 2.04948-0.78991 3.08206-0.12642 0.73909-0.19168 1.50065-0.18562 2.24722 7e-3 0.90332 0.1209 1.77721 0.35537 2.5475 0.33968 1.11336 0.87995 2.06463 1.5117 2.88557 0.63942 0.83038 1.38599 1.54148 2.11938 2.15878 0.23608 0.1981 0.47216 0.39674 0.0749 0.86872-0.39781 0.47216-0.63389 0.27406-0.86997 0.0754"/>
  <path d="m-89.629846 222.53412c2.817811 2.16378 5.407208 4.50711 7.713452 7.03677 2.255247 2.47368 4.244815 5.13226 5.918241 7.98341 0.960905 1.33393 1.996521 2.67374 3.031068 4.01373 2.123477 2.74916 4.247846 5.49922 5.980471 8.51923 1.247447 2.17447 2.109747 4.50247 2.970443 6.82851 0.949315 2.56568 1.898452 5.12976 3.337937 7.339 2.278071 3.49717 5.169702 6.67641 8.05527 9.84905 4.049032 4.45201 8.088078 8.89332 10.634504 14.37988 1.593187 3.43191 2.440331 7.17211 2.80622 10.99023 0.364463 3.80511 0.256765 7.63785-0.06366 11.2987-0.22556 2.57531-1.70142 4.70057-3.371816 6.62274l8.24927 0.0754 0.521018 5e-3 0.360896 0.38015 9.047558 9.54985 0.365889 0.38658-0.02372 0.51459c-0.167432 3.57384-0.335755 7.1484-0.503009 10.72241l-0.04743 1.01494-1.002807 0.15102-26.638772 4.02086h-0.0053c-0.82022 0.12072-1.642044 0.24215-2.464047 0.36233-5.784688 0.85017-11.592199 1.70338-17.303246 2.56372 3.078142 4.11376 4.001067 8.89671 5.0645 14.42534 0.154237 0.8031 0.314358 1.63242 0.537244 2.7308l-0.0036-4e-3c0.211296 1.03865 0.417956 2.07837 0.605002 3.17514 0.199705 1.17006 0.394775 2.47974 0.583782 4.05207 0.509428 4.24374 1.36727 8.51174 2.242231 12.86906 0.435608 2.16984 0.876387 4.3625 1.339276 6.93425 0.409396 2.27753 0.816297 4.53635 1.220166 6.77947 2.046091 11.37092 4.024425 22.36061 6.061779 33.54716 0.759773 4.17242 1.787722 8.46859 2.822982 12.79578 0.887977 3.71453 1.782551 7.45277 2.540363 11.28605 0.446663 2.25774 0.744973 4.03797 0.422948 5.55984-0.36589 1.73458-1.420228 2.96224-3.687601 3.79726-1.693397 0.62425-3.07511 0.72643-4.468235 0.50604-1.327151-0.21023-2.561582-0.69862-4.092539-1.29809-1.535059-0.6009-3.582042-0.43204-4.09254 0.87193-0.02282 0.0587-0.0419 0.11322-0.0551 0.16172-0.38265 1.38849-0.837515 2.9963-1.420763 4.60055 1.662906 2.56407 3.622518 4.97819 5.587657 7.39873 1.070565 1.3177 2.142556 2.63843 3.150357 3.95756 0.776355 1.0169 1.22177 2.22601 1.374402 3.44706 0.161191 1.29595-0.0071 2.62275-0.457005 3.75554-0.371951 0.93612-1.053269 1.69821-1.878124 2.27843-0.882628 0.62122-1.943029 1.03775-2.946372 1.22926-1.506173 0.28761-3.05086 0.39335-4.579143 0.33611-1.585164-0.059-3.172289-0.29261-4.69968-0.67668-1.146346-0.28922-2.102615-0.67579-3.00985-1.22266-0.819863-0.49445-1.58659-1.1155-2.41198-1.91058-1.820709-0.6683-3.586143-1.46944-5.196983-2.32764-1.802343-0.96037-3.383406-1.97673-4.606603-2.94423-1.169169-0.92436-2.144517-1.74012-2.988095-2.55588-0.771898-0.14068-1.547184-0.32452-2.32354-0.55811-2.721881-0.81736-4.792222-2.67837-6.331204-5.04488-1.818034-2.79748-2.885576-6.31141-3.404096-9.59015v-5e-3c-0.11839-0.74604-0.90438-1.36923-1.9243-1.78415-0.56096-0.22788-1.18629-0.38568-1.82018-0.46254-0.63531-0.0777-1.26296-0.0758-1.82659 0.0137h-5e-3c-0.92542 0.14604-1.67913 0.51246-1.92983 1.12959-1.24496 3.05942-3.19084 5.1237-5.50065 6.14523-2.40699 1.06396-5.16471 0.97962-7.9021-0.30331-3.80047-1.78005-4.62122-5.31324-5.49262-9.06414-0.16226-0.6979-0.32702-1.4056-0.52672-2.14861-0.3502-1.30041-1.31057-2.19498-2.55249-2.80016-1.815-0.88334-4.21486-1.1731-6.34886-1.19431-3.2889-0.0323-6.65715 1.52953-9.92127 3.04337-0.44131 0.20416-0.88048 0.40725-1.30611 0.60197 0.0753 0.64583 0.16173 1.33071 0.25267 2.03735 0.5055 3.94597 1.09535 8.54598-0.15513 9.98207-1.00887 1.15883-2.3362 2.03433-3.81652 2.58833-1.49458 0.559-3.13484 0.79098-4.74568 0.65493-0.0813-7e-3 -0.16066-0.0152-0.23947-0.0226-1.36834 1.27117-3.19957 2.36955-5.09089 3.46739-2.94566 1.75474-4.38728 2.6322-6.20478 5.64062-1.31574 2.13043-2.75719 4.44951-5.45215 6.01631-2.44443 1.44145-5.3275 2.75772-8.08504 3.44706-3.00843 2.94584-5.51544 3.75999-9.71408 3.82276-2.50702 0.0626-5.70355-0.12535-7.89711-1.62903-1.94285-1.37886-2.63237-3.69794-2.3189-6.07943 0.37605-2.88307 2.75772-5.20162 4.51246-7.39517 0.44327-0.54242 0.88762-1.08715 1.32786-1.63509-0.18794-0.14051-0.37249-0.28654-0.55151-0.44025-1.12049-0.96233-2.04235-2.1841-2.63576-3.73877-0.54544-1.4279-0.52565-2.8886-0.50693-4.31346 3e-3 -0.26782 7e-3 -0.53582 6e-3 -0.78848-8.9e-4 -0.57523-0.0105-1.11301-0.1389-1.4871-0.0884-0.25872-0.2705-0.48214-0.62925-0.65047-0.7694-0.36036-1.70445-0.52761-2.71725-0.70806h-5e-3c-1.50368-0.26836-3.15803-0.56453-5.03473-1.54665-0.4381-0.22895-0.71163-0.36696-0.98551-0.50497-3.7459-1.88472-8.73462-4.3978-6.68711-10.11848 1.25048-7.34293 2.33121-13.58373 3.4123-19.82988 1.13885-6.5778 2.27646-13.15008 3.42941-19.9185l0.01-0.0628c1.17221-5.32929 2.1274-9.84941 3.0514-14.22653 2.51558-11.91084 4.81986-22.82172 8.21396-35.21221 0.33202-1.21143 0.52102-1.92216 0.70807-2.62577 1.09178-4.1011 2.14362-8.04814 3.7443-11.44866-8.40493-3.04337-16.71037-6.34493-25.01438-9.64685-7.14982-2.8426-14.29982-5.6852-21.53183-8.36963l-0.80507-0.29831v-12.81896l0.31329-0.8147 3.87179-4.37408 0.37659-0.42509 0.55347 5e-3 18.8943 0.21218c-0.21825-0.37088-0.43115-0.73748-0.63888-1.09624-0.0981-0.16886-0.19454-0.33557-0.29065-0.50087-1.27562-1.40061-2.66571-3.3966-3.79833-5.70552-0.96233-1.96264-1.74421-4.16725-2.11937-6.44692-0.59734-3.63714-0.53119-7.20652 0.11982-10.5384 0.6708-3.4319 1.96264-6.6197 3.78924-9.37903 1.27686-1.9293 3.03873-3.97468 4.817-6.03896 1.95997-2.27557 3.94241-4.57629 5.23532-6.70868 1.63099-2.68907 2.51861-5.07716 3.4344-7.54174 0.73695-1.98493 1.49316-4.01925 2.63701-6.28627 0.74444-1.4764 1.71034-2.77626 2.67516-4.07471 1.05595-1.42094 2.11082-2.84063 2.76236-4.38372 0.59288-1.40418 0.8163-2.92408 1.03615-4.42419 0.31079-2.11937 0.61713-4.20469 1.90042-6.24579 1.34391-2.1365 2.90678-4.1036 4.74907-5.85958 1.76044-1.67753 3.77015-3.15945 6.07854-4.41153 1.96211-3.85486 3.87019-6.34529 5.58605-8.58378 1.60531-2.09513 3.03428-3.9597 4.12945-6.53144 1.17933-2.76878 1.52204-5.85191 1.86564-8.94325 0.2992-2.69353 0.60001-5.39348 1.44662-8.03958 0.80506-2.51611 2.16877-4.7168 3.53354-6.91998 1.06147-1.71283 2.12384-3.42834 2.86685-5.23425 0.62675-1.52347 1.1171-3.27125 1.60977-5.02919 0.67383-2.40182 1.35318-4.8245 2.45442-6.96206 1.1196-2.1743 2.59599-4.5039 4.30544-6.59992 1.49814-1.83729 3.18013-3.50126 4.96946-4.73855 2.14612-1.48406 4.17955-2.64699 6.41162-3.42798 2.25721-0.78937 4.67935-1.17969 7.56634-1.10534 1.93697 0.0501 3.72826 0.13641 5.45785 0.38818 1.76348 0.25677 3.42727 0.68435 5.05077 1.4147 1.56591 0.70468 3.01948 1.67093 4.33932 2.80177 1.44805 1.2412 2.72741 2.66963 3.81242 4.15976 1.61244 2.21281 2.60116 4.71216 3.58971 7.21312 0.55543 1.40453 1.11193 2.81121 1.76953 4.12641 0.57683 1.15348 1.24299 2.29519 1.90862 3.43548 0.97748 1.6761 1.95604 3.35166 2.72081 5.17219h-5e-3c0.4948 1.1772 0.72375 2.35136 0.95288 3.52499 0.20612 1.05487 0.41189 2.1101 0.80257 3.04123 0.26086 0.62069 0.73588 1.21303 1.21 1.80448 0.63745 0.79454 1.27419 1.58855 1.65488 2.63023 0.4472 1.22462 0.54937 2.42464 0.65047 3.62252 0.10003 1.18076 0.20006 2.36045 0.62426 3.28997 0.39977 0.87692 1.18219 1.65524 1.96514 2.43356 0.904205 0.89921 1.809478 1.79949 2.402354 3.00842 0.557928 1.13779 0.657602 2.29822 0.757099 3.45633 0.08291 0.96679 0.166362 1.9343 0.536887 2.63826 0.651005 1.23692 1.689652 2.31605 2.730261 3.39571 0.866937 0.89956 1.734765 1.80127 2.445325 2.8162 0.706102 1.00941 1.227298 2.11474 1.747959 3.22026v5e-3c0.187937 0.4003 0.376409 0.80221 0.617126 1.27169zm37.548227 100.08659c-0.274952 0.37605-0.549013 0.75317-0.82236 1.13226l8.702709-5e-3 -2.386304-2.85116-0.212099-0.58761c-0.776979 0.74149-2.796681 1.75981-5.281946 2.31186zm-1.135291 1.5684c-1.69518 2.36241-3.371281 4.75816-5.206968 7.00842 1.071991-0.1587 2.266837-0.33201 3.455621-0.50551 0.458966-0.0667 0.962866-0.1405 2.317477-0.33914h-0.0053l12.412776-1.87367-0.708242-0.84607-14.248819 0.57665-0.03744-0.95984 13.508482-0.54687-1.669504-1.99492-9.818741 5e-3v-0.52369zm-6.487759 8.52012-0.05367-0.35626 0.87603-1.08768c0.06366-0.0818 0.128383-0.16423 0.19293-0.24875 0.792047-1.03312 1.41684-2.18 2.035928-3.31671 0.968929-1.77917 1.927873-3.53907 3.516424-5.02207 1.014398-0.9461 2.164845-1.60673 3.312617-2.26576 1.170596-0.67187 2.339231-1.34302 3.181383-2.26292 0.07115-0.0779 0.260687-0.28048 1.44947-1.55904 1.188784-1.27856 3.260195-3.52275 3.480049-6.02977 0.313824-3.5865 0.424018-7.28837 0.08291-10.85472-0.340213-3.55333-1.124058-7.02411-2.593499-10.19087-2.385056-5.13832-6.298217-9.44055-10.220471-13.75348-2.945658-3.23879-5.897557-6.48437-8.296343-10.16644-1.598715-2.45388-2.593499-5.14135-3.588639-7.83078-0.823429-2.22351-1.64668-4.44898-2.797127-6.45299-1.665403-2.90322-3.72665-5.57161-5.786828-8.23982-1.045245-1.353-2.09156-2.70708-3.113981-4.12945l-0.06276-0.0959c-1.583381-2.70565-3.482902-5.24298-5.647747-7.61752-1.937858-2.12544-4.086477-4.11643-6.411443-5.9753-0.169928 2.01061-0.768866 3.49146-3.009492 4.04654-0.210226 1.28578-0.624615 2.5104-1.450541 3.54406-1.120135 1.40115-2.9412 2.38684-5.931441 2.58387-0.13391 0.41047-0.30776 0.81986-0.51656 1.22159-0.8541 1.64579-2.29465 3.16819-3.88837 4.1603-1.66844 1.03972-3.53604 1.52044-5.15651 1.01547-0.10467-0.0323-0.20826-0.0697-0.30972-0.1102-0.73196 0.56256-1.6326 0.96501-2.73597 1.17577-0.2507 0.3411-0.54491 0.66348-0.8623 1.01083-0.89814 0.98052-2.01524 2.20122-2.43783 4.45094-0.16013 0.85053-0.23448 1.84032-0.30937 2.84456-0.12482 1.66486-0.25213 3.36932-0.84304 5.0135-0.7662 2.13203-1.9696 3.72665-3.41176 5.02616-1.32983 1.19788-2.85312 2.13097-4.41546 3.00629 0 4e-3 5.4e-4 7e-3 0 0.0125-0.0813 2.11741-0.17937 4.63656-1.6037 6.1791-0.7193 0.77886-1.53667 1.46623-2.42678 2.01828 0.19364 1.43128 0.11625 2.8269 0.0355 4.27655-0.0389 0.69434-0.0794 1.40151-0.089 2.12223 1.47586-0.17385 3.02305-0.47145 4.61713-0.86069 0.0925 1.26759 0 2.34975 0.0925 3.61788-1.49048 0.58075-2.95119 1.00637-4.40547 1.20198 0.0774 1.20804-0.0521 2.272-0.18544 3.35969-0.11983 0.97855-0.24215 1.97976-0.19757 3.10435 0.0196 0.49695 0.32399 2.47564 0.67365 4.65314 1.60335-0.16333 3.29461-0.48072 5.04293-0.90777 0.0924 1.2676 0 2.35029 0.0924 3.61788-1.5224 0.59341-3.01342 1.02456-4.49784 1.21411 0.0207 0.12784 0.0449 0.27103 0.0708 0.43168 0.0879 0.54545 0.10859 1.49351 0.0945 2.43784-0.0203 1.30343-0.1102 2.66963-0.18295 2.97739l-1.69375-0.40119c0.0505-0.21433 0.11715-1.40008 0.13533-2.59653 0.0143-0.88102-3.5e-4 -1.73066-0.0672-2.14559-7e-3 -0.0399-0.0455-0.27441-0.0981-0.59697-1.49298-0.0125-2.99112-0.30063-4.52262-0.94914 0-1.17559-0.18544-2.16538-0.18544-3.3399 1.25191 0.30366 2.61811 0.41546 4.07221 0.37391-0.35126-2.19052-0.65403-4.17028-0.67525-4.70057-0.0494-1.24994 0.0829-2.32853 0.21183-3.3834 0.12232-0.99871 0.24107-1.97584 0.17902-3.03018-1.5265 5.3e-4 -3.05746-0.28654-4.62283-0.94967 0-1.17523-0.18544-2.16485-0.18544-3.3399 1.37226 0.33308 2.88093 0.43507 4.49338 0.35769 4e-3 -0.8122 0.049-1.59551 0.0918-2.36384 0.0647-1.15705 0.12695-2.27861 0.0456-3.3506-1.0711 0.4135-2.21281 0.62925-3.3941 0.58485-2.15058-0.0804-3.46382-1.22426-5.03882-2.59599-0.43365-0.37802-0.89048-0.77582-1.36406-1.14884-1.03829-0.81791-1.9252-1.97281-2.58031-3.26323-0.10573-0.20826-0.20577-0.42099-0.29973-0.63585-2.28967-0.92292-2.62132-1.28578-3.4164-2.15718-0.19257-0.21183-0.41688-0.45682-0.6913-0.73035-0.87443-0.86836-1.56145-2.14719-1.99545-3.50875-0.45041-1.41078-0.63995-2.9412-0.49285-4.21094 0.0373-0.31882 0.0221-0.64227-0.0284-0.96786-2.23046-0.0975-3.88891-1.10747-5.06503-2.60651-0.95181-1.21215-1.5734-2.74203-1.9186-4.3518-1.65185-0.64352-2.9963-1.61245-4.03352-2.80623-0.50497-0.58182-0.93648-1.2157-1.29345-1.88935-1.18825-0.033-2.30518-0.45951-3.27821-1.16757-1.58462 1.07092-3.33686 1.47943-4.99032 1.30558-0.98658-0.10414-1.93572-0.41404-2.79053-0.9108-0.85267-0.49588-1.6153-1.18023-2.231-2.0345-1.16346-1.61441-1.79681-3.83025-1.51384-6.51825l0.0137 2e-3c0.23555-1.62796 1.39349-3.95453 2.45906-5.72567 1.94784-3.23826 2.7233-6.62488 3.88124-10.91748-0.12892 3.09419-0.48874 6.13863-1.9227 9.79289-0.87657 2.2351-1.87171 3.41889-2.50256 5.65845-0.21629 0.76833-0.22984 1.92216-0.25374 2.72027-3.5e-4 0-3.5e-4 -5.3e-4 -3.5e-4 -5.3e-4 0.048 1.6185 0.51388 2.95885 1.24691 3.97574 0.46753 0.64851 1.04667 1.1681 1.69411 1.54416 0.64548 0.37551 1.35871 0.6091 2.09673 0.68648 1.14938 0.12125 2.36937-0.13052 3.50573-0.80167-0.70058-0.82646-1.26475-1.81964-1.63812-2.90376l0.0282-9e-3c-0.4538-1.4172-0.53618-3.02661-0.22289-4.48571 0.85624-3.99055 2.04609-7.80867 2.64753-11.64284-0.30723 4.13694-0.80667 8.17652-1.28329 11.45526-0.28262 1.94338 0.23751 3.65532 0.80863 4.93201 0.46414 0.9725 1.11514 1.80609 1.88383 2.3954 0.48982 0.37498 1.02759 0.6494 1.59515 0.79508-0.12125-0.39371-0.22092-0.79561-0.29974-1.20394-7e-3 -7e-3 -0.0143-0.0143-0.0201-0.0209-0.98516-4.15013-0.22396-8.84661 1.88579-13.96424-0.92346 4.70859-1.65542 9.38099-0.20221 13.64935l0.04-7e-3c0.0192 0.097 0.0383 0.194 0.0601 0.29011 0.0217 0.0592 0.0435 0.11822 0.0658 0.17742-2e-3 0.0207-7e-3 0.0408-9e-3 0.0617 0.33718 1.35158 0.9552 2.59386 1.85298 3.62751 0.656 0.75514 1.46516 1.40258 2.42856 1.90594-5e-3 -0.0763-0.0107-0.15209-0.0143-0.22841l0.0212-1e-3c-0.0107-0.27762-0.0107-0.56113 2e-3 -0.86782 0.0767-1.70196 0.53368-3.5109 1.08822-4.679 1.0538-2.21994 1.28418-4.77831 1.59604-8.01569 0.30384 2.85776 0.34984 5.71444-0.47145 8.26942-0.559 1.74029-0.5672 3.90657-0.50497 5.19253l0.0107-5.4e-4c0.12874 2.07623 0.70004 4.17742 1.85138 5.64418 0.76672 0.9766 1.81054 1.67414 3.1746 1.88223-0.0298-0.0808-0.0596-0.16012-0.0893-0.24054-0.20274-0.54527-0.40636-1.09321-0.55454-1.65435-0.28761-1.08768-0.41296-2.36597-0.37463-3.61538 0.038-1.23782 0.23715-2.47314 0.59805-3.49913v-4e-3c0.61517-1.74689 1.54968-3.06762 2.4924-4.3994 0.77225-1.09072 1.55057-2.19053 2.10261-3.47952l0.0107 5e-3c0.5146-1.33339 1.0695-2.64289 1.04079-3.95613-0.033-1.48603-0.44631-2.03736-0.79811-3.48201-0.46699-1.91753-0.3017-3.66282-0.14514-5.29541 0.30223 1.30557 0.49587 2.64235 0.90688 3.91708 0.60286 1.86868 1.48941 3.73824 1.45107 5.87581-0.0237 1.31823-0.42313 2.57513-0.89671 3.60379l0.0294 0.0125c-0.63549 1.48246-1.46088 2.64895-2.28003 3.806-0.87603 1.23835-1.74493 2.46547-2.27451 3.97075v-4e-3c-0.29777 0.84554-0.46307 1.89791-0.49588 2.97508-0.0339 1.10284 0.0708 2.20871 0.31276 3.12557 0.13248 0.50194 0.31703 0.99781 0.50051 1.49102 0.45326 1.2207 0.90313 2.4307 0.74355 3.81009-0.11929 1.02706 0.0433 2.29626 0.42455 3.49004 0.35626 1.11603 0.89511 2.14059 1.5602 2.80123 0.33219 0.33005 0.55846 0.57861 0.75264 0.79151 0.39977 0.4381 0.64494 0.7061 1.32733 1.06432-0.44185-1.90897-0.37356-3.75429-0.24714-5.50528 0.31793-4.39726 1.43236-7.47077 2.17234-9.35621-0.94218 4.93363-0.92703 9.4377-0.29564 13.46052l5e-3 -5.3e-4c2e-3 0.0223 4e-3 0.044 5e-3 0.0656 0.0506 0.3206 0.10609 0.63853 0.16422 0.95289-9e-3 -5.4e-4 -0.016-5.4e-4 -0.0251-5.4e-4 0.17332 0.85428 0.47412 1.70998 0.87478 2.49935 0.54349 1.0711 1.26724 2.01935 2.10369 2.67838 0.53439 0.42098 0.99478 0.82182 1.43307 1.2034 0.9445 0.82343 1.77648 1.54718 2.73578 1.91468 0.4135-1.35212 0.65921-2.72384 0.60055-4.18865-0.0592-1.4739-0.42509-3.05389-1.23372-4.81932-0.65511-0.56203-1.35925-1.29756-1.98992-2.18108-0.48928-0.68577-0.9347-1.4607-1.27687-2.3098-8.9e-4 5.3e-4 -2e-3 5.3e-4 -4e-3 1e-3 -4e-3 -0.0125-7e-3 -0.0248-0.0107-0.0369-0.0449-0.11216-0.0874-0.22539-0.12838-0.34022l0.0264-9e-3c-0.57772-1.991-0.93665-3.42638-0.97303-5.50172-0.0829-4.62728 0.34164-8.51619 1.08608-11.93758-0.30723 7.67369 0.25373 13.55306 1.77007 17.46266-9e-3 1e-3 -0.0191 4e-3 -0.0287 5e-3 0.26942 0.60501 0.59787 1.16097 0.95377 1.65988 0.34628 0.48464 0.7193 0.91793 1.09179 1.29434-0.0308-1.53791 4e-3 -2.95172 0.27584-4.16939 0.37463-1.67236 1.59265-3.49057 1.97174-5.16203 0.53831-2.3765 0.75121-4.11376 1.04578-6.53341 0.21486 2.0436 0.34217 3.83488 0.28155 5.88793-0.0672 2.30089-1.49655 4.47876-1.89079 6.65412-0.43418 2.39843-0.11786 5.18432 0.24161 6.65466-0.0209-0.0251-0.0416-0.0505-0.0622-0.0752 0.36642 1.18985 0.55151 2.31231 0.59448 3.38804 0.0637 1.58552-0.17956 3.06245-0.60001 4.508 0.92846-0.0394 1.82303-0.27549 2.65751-0.6617 1.10338-0.5105 2.10975-1.28133 2.96349-2.20568 0.98712-1.0686 1.07146-3.23933 1.14171-5.06361 0.016-0.41136 0.0314-0.81059 0.0501-1.11193 0.081-1.28489 0.0849-2.43106 0.0884-3.57295 4e-3 -1.32323 9e-3 -2.64342 0.11519-4.06116l0.0259 1e-3c0.24963-2.43409 0.88406-3.35719 1.63456-4.73588 1.18985-2.18659 2.79409-3.74234 4.18401-5.80769 1.61191-2.39522 2.41447-5.41113 2.5343-9.11406 0.49284 2.80925 0.47822 5.93233-0.80453 8.59002-1.25315 2.59653-3.0555 4.52529-4.50568 7.01697-1.10373 1.89703-1.358 3.88838-1.36763 5.16222-7e-3 -1e-3 -0.0143-2e-3 -0.0207-4e-3 -0.0485 1.03348-0.0515 1.99189-0.0542 2.95119-4e-3 0.88048-7e-3 1.76347-0.0399 2.67677 1.12513-0.66563 2.20283-1.38439 3.15357-2.24063 1.24227-1.11996 2.27896-2.49079 2.93549-4.31899 0.50497-1.40454 0.6248-2.99969 0.74105-4.55811 0.0758-1.01172 0.15067-2.00953 0.34325-3.03516 0.51709-2.74845 1.81554-4.16725 2.85918-5.307 0.41849-0.45754 0.78901-0.8623 0.98408-1.23693 0.22253-0.42758 0.31151-0.87942 0.33165-1.34801 0.0232-0.53671-0.0358-1.09179-0.0975-1.65738l0.0348-4e-3c-0.10752-1.31681-0.20202-2.21851-0.26835-3.29354-0.19864-3.20492-0.099-6.03895 0.24107-8.59001 0.30794 2.71724 0.60464 5.44625 1.02563 8.14068 0.2113 1.35211 0.67579 2.5844 0.77332 4.36446 0.0309 0.37409 0.0485 0.74604 0.0317 1.11407-9e-3 0.19953-0.0267 0.3978-0.056 0.59644 1.04525-0.47822 1.74279-1.27633 2.19213-2.30589 0.62818-1.44055 0.81469-3.35059 0.78902-5.49155-4e-3 -2e-3 -5e-3 -4e-3 -9e-3 -5e-3 -0.26069-2.46013-0.54438-2.97562-1.04578-4.39585-0.56506-1.60032-0.40226-3.3875-0.52298-5.08179 0.59894 2.15111 0.8714 3.8561 2.37347 6.08959 0.55151 0.81987 0.78349 1.81001 0.87032 2.69139l0.0612-1e-3c0.0799 2.62577-0.10966 5.0201-0.92542 6.88966-0.16583 0.38051-0.3568 0.73749-0.57362 1.07003 0.99425 0.11519 2.14202-0.26282 3.22275-0.93612 1.34231-0.83591 2.55142-2.10974 3.26251-3.47951 0.17635-0.34004 0.32203-0.68685 0.42973-1.03401 0.88191-2.83047 0.22895-5.08536-0.60197-7.95114-0.20631-0.7127-0.42366-1.46124-0.62783-2.24669l7e-3 -2e-3c-0.39781-1.16757-0.8097-2.33317-0.98052-3.54977-0.7193-5.12512 0.5943-7.60379 1.28721-9.39668-0.0403 2.91695-0.37695 5.77826 0 8.67079 0.19917 1.5281 1.17969 2.65412 1.73012 5.16221-8.9e-4 3.6e-4 -2e-3 8.9e-4 -4e-3 2e-3 0.0854 0.30027 0.17046 0.59127 0.25337 0.87746 0.75104 2.59189 1.369239 4.72946 0.98855 7.25609 2.105646-0.22699 3.382871-0.92756 4.149241-1.88633 0.77172-0.96643 1.073418-2.24918 1.196807-3.59416 0.0485-1.15045 0.06972-2.11885-0.309365-3.34044-0.68738-2.21691-1.941781-3.66549-3.25859-5.48513 1.56341 1.17613 3.143938 2.37614 4.465561 4.7587 0.681852 1.22926 0.917398 2.47778 0.861944 3.72059l0.01783 5.4e-4c-0.0036 0.0556-0.0071 0.11126-0.01248 0.16636 1.102839-0.98765 1.612801-3.1106 0.580751-5.50029 0.01248-1e-3 0.02425-1e-3 0.03638-2e-3 -0.02782-0.0587-0.05617-0.11786-0.08398-0.17688v5e-3c-0.464494-0.98766-0.930415-1.97531-1.545044-2.85419-0.636384-0.90884-1.416306-1.71907-2.194623-2.52681-1.162572-1.20697-2.322648-2.41145-3.135378-3.95506-0.619088-1.17666-0.722684-2.37953-0.825924-3.58258-0.0802-0.93648-0.16119-1.87509-0.5064-2.57924-0.41546-0.84607-1.1681-1.59514-1.92074-2.34368-0.93951-0.93416-1.87812-1.86814-2.46601-3.1566-0.62265-1.36567-0.73944-2.73633-0.8557-4.10912-0.0895-1.05791-0.17938-2.11831-0.49623-2.98614-0.23912-0.65457-0.74908-1.29095-1.25958-1.9268-0.58895-0.73445-1.17933-1.47033-1.56644-2.39219-0.48464-1.15597-0.71626-2.33976-0.94717-3.52302-0.20773-1.06593-0.416-2.13186-0.79865-3.04266h-5e-3c-0.70253-1.67307-1.63972-3.27838-2.5762-4.88316-0.68399-1.17166-1.36834-2.34422-1.98636-3.58008-0.70574-1.41167-1.28079-2.86631-1.85548-4.31988-0.92863-2.34833-1.85708-4.69504-3.29104-6.66375-0.99318-1.36317-2.14202-2.65163-3.41782-3.74484-1.14634-0.98266-2.40324-1.81964-3.7509-2.42571-1.39544-0.62764-2.84152-0.99763-4.38568-1.22266-1.57803-0.22948-3.29389-0.31026-5.16863-0.35876-2.58993-0.0669-4.73195 0.27246-6.69905 0.96019-1.9926 0.69755-3.84594 1.76205-5.82374 3.12986-1.58552 1.09677-3.09793 2.59688-4.45896 4.26585-1.59373 1.95498-2.97455 4.13498-4.02532 6.17608-0.98426 1.91004-1.63063 4.21486-2.27112 6.49935-0.50835 1.81304-1.01386 3.61502-1.70677 5.29915-0.81736 1.98689-1.93429 3.79031-3.04979 5.59069-1.28435 2.07283-2.56764 4.14353-3.28284 6.38006-0.76637 2.39433-1.05398 4.97962-1.34052 7.55796-0.36393 3.27018-0.72625 6.53127-2.04912 9.63723-1.21696 2.85829-2.73383 4.83751-4.43775 7.06102-1.27669 1.6654-2.66357 3.47541-4.0945 5.91824-2.10921 3.71042-2.3255 7.16016-1.49262 9.82926-1.17167-1.17505-1.72852-3.17015-1.67343-5.98439-1.74635 1.03258-3.29157 2.21388-4.66384 3.52195-1.68911 1.60977-3.1261 3.41871-4.36339 5.38706-1.00138 1.59265-1.2708 3.42674-1.54468 5.29184-0.24108 1.64276-0.48572 3.30709-1.20894 5.02153-0.77029 1.82481-1.91057 3.35933-3.05193 4.89475-0.89974 1.21107-1.80091 2.42411-2.45388 3.71809-1.09428 2.1693-1.8216 4.12588-2.53073 6.03539-0.96751 2.60402-1.90505 5.12673-3.62716 7.96629-1.36923 2.25793-3.43904 4.66028-5.48548 7.03571-1.7205 1.99812-3.42585 3.97735-4.62479 5.78843-1.64615 2.48776-2.81389 5.3744-3.42282 8.49284-0.59751 3.05745-0.65867 6.33281-0.10966 9.67074 0.33041 2.00954 1.03509 3.98431 1.90701 5.7624 0.68186 1.38903 1.46374 2.6486 2.24758 3.70454-0.23804-1.46837-0.30829-2.93621-0.27495-4.40493 0.73642 3.45312 1.86119 6.29376 3.4164 9.08571 1.74171 2.79303 3.97931 5.68377 7.57811 7.48861 2.04395 1.02509 3.82151 1.76953 5.41666 2.15985-5.66397 0.12125-10.09405-2.88503-13.48922-7.85503l-6e-3 0.6979-20.73818-0.23305-2.66126 3.00646c6.76788 2.5327 13.51151 5.21464 20.25461 7.89604 14.32068 5.69375 28.64243 11.38804 43.34361 15.71166 3.15357 0.92739 6.46672 1.35711 9.81928 1.4616 4.07186 0.12642 8.08558-0.2598 12.12195-0.72928 0.43329-0.0501 1.12923-0.13338 1.98244-0.23394 0 0-5.4e-4 8.9e-4 0 8.9e-4l45.19053-6.33709 0.33754 2.43819c-15.70863 2.20265-31.51622 4.74818-47.23145 6.5803-4.15121 0.48269-8.28065 0.87853-12.46877 0.74854-3.53604-0.11019-7.05549-0.57112-10.44549-1.56786-14.86292-4.37106-29.20999-10.07551-43.55545-15.77942-6.60152-2.62471-13.20304-5.24995-19.86928-7.74983v8.79168c6.94262 2.59029 13.85921 5.33945 20.77509 8.08951 14.32068 5.69428 28.64243 11.38857 43.34361 15.7122 3.15357 0.92738 6.46672 1.35657 9.81928 1.46123 3.39196 0.10556 6.80675-0.11982 10.13417-0.49944 7.95149-0.90777 15.85003-1.93019 23.71166-3.0275 7.74804-1.08126 15.66619-2.26648 23.66137-3.49931l0.37605 2.43837c-7.77782 1.19895-15.64408 2.37507-23.69971 3.49913-7.94097 1.10837-15.86786 2.13543-23.76996 3.03767-3.45009 0.3937-6.98417 0.62729-10.48134 0.5187-3.53604-0.1102-7.05549-0.57077-10.44549-1.56751-5.4607-1.60621-10.8508-3.3925-16.19738-5.29185-1.58498 3.26804-2.62524 7.17015-3.70739 11.23434-0.27692 1.04132-0.5565 2.09156-0.70807 2.64503-3.4007 12.41313-5.68768 23.24377-8.18507 35.0676-0.99835 4.72785-2.02898 9.6078-3.05086 14.25541l9e-3 -0.0626c-1.25815 7.3743-2.34494 13.65291-3.43066 19.92491-1.13761 6.57531-2.27736 13.15811-3.42888 19.91797l-0.0626 0.22645c-1.39919 3.7468 2.51397 5.71711 5.44501 7.1919 0.42205 0.21236 0.82182 0.41403 1.01493 0.5146 1.54273 0.80773 3.00343 1.06842 4.33112 1.30557h-5e-3c1.16864 0.20862 2.24723 0.4012 3.33384 0.9108 0.22699 0.1061 0.43168 0.22182 0.61463 0.34717 0.64048-4.78099 1.92627-11.03231 2.60919-15.96682 2.48312-17.94124 3.27214-30.47776 5.18379-47.20525 0.39566 10.12401-0.23412 21.35745-1.65435 32.64635-0.6576 5.22533-4.5631 35.38766-4.56559 35.44971-0.0526 1.16757-0.0218 2.35938 0.3436 3.31779 0.43721 1.14528 1.113 2.04252 1.93233 2.74595 0.85321 0.73303 1.86814 1.27134 2.9412 1.67058 1.67307 0.62211 3.40516 0.97552 5.14385 1.08411 1.8191 0.11323 3.62091-0.0408 5.34961-0.43257 0.85874-0.19472 1.6745-0.31846 2.49133-0.44132 2.20978-0.33254 4.43061-0.66759 5.67253-2.13489 0.21433-0.25373 0.21379-1.10801 0.2129-2.13453 0-0.13748 3.6e-4 -0.27852 8.9e-4 -0.42099-0.0394 0.0802-0.0769 0.15709-0.11073 0.22984-0.0323-21.24458 1.35515-44.6729 2.20586-67.38888 0.9001 14.56068 1.18272 30.46188 0.27299 61.03396 0.73838-0.51905 1.60674-0.89403 2.51255-1.11799 1.20144-0.29724 2.49132-0.33415 3.63803-0.0925 0.20327 0.043 0.40387 0.0941 0.59858 0.15477-0.40548-14.94993-0.50604-29.49207-0.0733-43.324 0.61196 15.68331 1.64758 30.3952 2.277 44.65632 0.20114 0.21575 0.36893 0.43472 0.54688 0.6667 0.6469 0.84304 1.48549 1.93429 4.63638 2.20122 1.2758 0.1077 2.54892-0.0663 3.68564-0.49142 1.09428-0.4094 2.07337-1.05381 2.81335-1.90345 0.53118-0.60999 0.0178-4.61712-0.42313-8.05473-0.13943-1.09268-0.27299-2.134-0.35786-2.98203l-0.089-0.88762 0.8163-0.36037c0.73089-0.32291 1.40828-0.63727 2.09156-0.95377 3.51535-1.6301 7.14286-3.31155 10.97168-3.27428 2.4332 0.0242 5.20911 0.37302 7.40926 1.44466 1.59158 0.77528 2.8845 1.91503 3.57188 3.55476 1.07823-3.47952 2.10172-7.03428 3.1919-11.05549 5.84246-21.53701 14.71242-44.86049 21.45249-70.21758-2.58583 15.55493-6.40805 30.59687-11.99215 47.56668-4.24267 12.89385-7.15445 24.32985-10.47224 35.52995-0.2482 0.83805-0.7061 2.50648-0.36535 4.822 0.61712 1.66077 1.5158 3.03873 3.14625 3.80296 2.06838 0.96929 4.11644 1.04917 5.86867 0.27442 0.71627-0.31703 1.39152-0.77992 2.00615-1.38546 1.72353-2.23759 3.12718-9.08535 4.14104-13.06413 3.30406-12.96964 6.2499-26.02932 9.374936-39.04388-1.825526 15.21828-4.793116 30.30123-8.568266 46.3055 0.34824-0.11412 0.71431-0.2006 1.09339-0.26069h-5e-3c0.80881-0.12803 1.67004-0.13498 2.51059-0.033 0.84197 0.10271 1.68252 0.31543 2.44728 0.62676 0.69202 0.28154 1.32733 0.64601 1.85905 1.08821 3.272674-24.52296 6.836707-48.84229 9.747416-76.50313 0.246779 19.67029-2.367403 39.97447-5.329287 60.35782-1.09642 7.54371-3.361653 17.64596-1.066108 24.91578l0.126421 0.4003c0.333616 0.72483 0.708064 1.41827 1.128159 2.06428 1.238888 1.90505 2.870412 3.39196 4.971957 4.02371 3.093476 0.92917 6.185704 0.98676 9.081436 0.55704 2.930502-0.43418 5.668431-1.36923 8.012654-2.40984 1.679132-0.74551 2.940665-2.5031 3.917262-4.54099 0.493201-1.02902 0.911692-2.12579 1.274193-3.20706 0.45647-3.40105 0.642446-10.14879 0.233049-14.67194-1.734229-19.14054-3.162124-38.30836-4.743187-57.46263 2.955287 15.41496 4.940753 32.62228 6.17661 49.85277 0.392636 5.47283 0.794543 10.94476 1.193776 16.41777 1.582489-0.95377 3.821154-1.00531 5.600317-0.30883 1.403111 0.54937 2.536797 0.99728 3.581507 1.16257 0.979093 0.15513 1.975303 0.0736 3.234875-0.39032 1.340881-0.49373 1.945882-1.13012 2.12633-1.98529 0.22556-1.06806-0.04083-2.60562-0.432577-4.58591-0.73998-3.74235-1.633663-7.47809-2.521105-11.18994-1.024026-4.28065-2.041099-8.53135-2.842239-12.93076-2.037355-11.18601-4.015689-22.17571-6.061602-33.54716-0.403869-2.24259-0.810769-4.50194-1.220165-6.77894-0.379084-2.10475-0.862301-4.50853-1.339455-6.88628-0.882449-4.39477-1.747246-8.6986-2.271473-13.06164-0.184906-1.54148-0.373557-2.80711-0.564525-3.92725-0.203272-1.19234-0.394775-2.15967-0.585387-3.09829l-0.0053-5e-3c-0.156198-0.76869-0.348236-1.76704-0.537243-2.75006-1.086791-5.64935-2.014174-10.45851-5.520078-14.45262-3.074041 0.46699-6.113668 0.93719-9.099802 1.40917l-0.188116-1.21446-0.187937-1.21464c0.84661-0.13337 1.690188-0.26532 2.531626-0.39674 9.120664-1.42647 17.969942-2.72794 26.765192-4.02086 0.821824-0.12035 1.643649-0.24214 2.464047-0.36232h-0.0053l25.635607-3.8693c0.140507-2.99879 0.279944-5.99705 0.420451-8.99531l-25.689456 3.87786h-0.0053c-0.175813 0.0251-1.225694 0.17884-2.326928 0.33914-1.517406 0.22075-3.224889 0.47136-5.077337 0.7513l-0.0071-1.17246zm21.679831-4.56506 9.5322-1.43841-6.416079-6.77252-10.063381-0.0915zm-121.720412 145.18404c-1.87171-0.66723-2.66874-1.70427-3.32884-2.56408-0.15727-0.20469-0.30384-0.3962-0.43222-0.52672-0.34271-0.34877-0.86123-0.58521-1.46178-0.71163-0.79151-0.16618-1.69571-0.13801-2.54892 0.0733-0.82485 0.20416-1.58249 0.57379-2.11278 1.09428-0.34003 0.33468-0.58467 0.73391-0.68078 1.19128-0.20969 0.99585-0.2088 2.05375-0.20826 2.98827 1e-3 1.51527 2e-3 2.77591-0.80061 3.72451-1.84282 2.17751-4.52066 2.58191-7.18637 2.9831-0.81024 0.12232-1.62083 0.24518-2.31748 0.40298-1.9778 0.44827-4.01069 0.62622-6.03432 0.50033-1.95159-0.12178-3.92136-0.52868-5.85654-1.24851-0.32756-0.12179-0.65208-0.25463-0.97107-0.4003-1.56324 1.94855-3.17265 3.86519-4.67936 5.82373-1.0028 1.31628-1.19074 3.32171-0.56399 4.82593 0.18794 0.43881 0.50141 0.81487 0.94005 1.12815 1.12815-2.50702 3.25912-4.6378 5.45267-6.76877-1.56679 3.07101-5.07662 7.01948-2.8203 7.709 1.25351 0.2507 2.50702 0.31328 3.88588 0.31328 2.00508-0.0626 4.51192-0.2507 6.20424-1.50421 3.00843-2.25632 3.50983-3.82311 7.83435-5.38991-1.25351 0.94004-2.06838 1.37886-2.56961 2.3189 1.75474-0.62675 3.44707-1.44144 5.07663-2.38167 2.19355-1.2535 3.44706-3.25859 4.57522-5.13885 2.06767-3.3843 3.82258-4.57522 7.0817-6.51807 1.0777-0.6091 2.08497-1.18326 2.97009-1.80038zm92.162728-0.68577c-1.193419 2.42553-2.799088 4.53635-5.054514 5.53755-2.513973 1.11657-5.464267 2.12134-8.648502 2.59386-1.17969 0.17492-2.391297 0.27548-3.623588 0.28261 0.106629 0.0854 0.215397 0.17189 0.326127 0.25927 1.144741 0.9058 2.597421 1.84228 4.230906 2.71278 0.669727 0.3568 1.376364 0.7061 2.108856 1.04008-0.486782-0.74551-1.264208-1.19182-2.371148-2.01721 2.656085 0.95484 4.116789 1.62511 5.775773 3.45527-0.01605 2e-3 -0.03245 4e-3 -0.04814 7e-3l0.101101 0.0642c0.760843 0.74997 1.442517 1.3161 2.157713 1.74725 0.692551 0.4176 1.435028 0.71627 2.335664 0.94272 1.350688 0.34003 2.765389 0.54687 4.188113 0.59983 0.840547 0.0314 1.678062 9e-3 2.500422-0.0703-0.0053-1e-3 -0.0089-3e-3 -0.01427-4e-3 0.02336 0 0.04458-5.3e-4 0.06722-5.3e-4 0.300272-0.0298 0.598404-0.0667 0.894753-0.11216 2.255782-0.70967-1.240493-4.63745-2.847767-7.7632 2.221904 2.18767 4.369631 4.29331 5.473896 6.80123 0.430615-0.31276 0.775999-0.69594 0.94985-1.13316 0.302233-0.75959 0.413854-1.66094 0.302768-2.55141-0.101101-0.8122-0.387821-1.60389-0.882628-2.25133-1.024917-1.34141-2.064635-2.6222-3.101856-3.89996-1.660945-2.04503-3.317788-4.08595-4.81986-6.24009z" fill-rule="evenodd"/>
  <path d="m-57.484905 287.75085c3.78781 0.84804 7.193504 4.10253 8.115538 7.39143-2.740068-3.37378-5.476036-4.95181-8.554177-5.7246l-0.0018 7e-3c-1.867605-0.49284-3.591671-0.72339-5.341591-0.6683-1.752774 0.0546-3.538 0.39638-5.527032 1.04578-1.671465 0.54545-3.480406 1.7337-5.027055 3.19494-1.07003 1.01083-2.004011 2.14362-2.669815 3.27624 1.634199 0.0531 2.847232-1.11051 4.016758-1.64864-1.14385 1.71836-2.183924 2.39165-5.019565 3.53746-0.0089 5.4e-4 -0.01783 5.4e-4 -0.02621 1e-3l-0.131948 0.0596c-2.327106 1.05184-4.879059 2.1816-7.25199 3.55137-2.307491 1.33125-4.424193 2.88343-5.938568 4.79811-1.22819 1.55378-2.043417 3.38839-2.513081 5.30503-0.534213 2.18054-0.627112 4.47323-0.37855 6.58958l-1.510987 0.78545-38.784442-0.34735-2.48384-2.48919 14.15841 0.12625c1.12317-3.53194 2.40842-6.57264 4.42776-9.5684-1.21909 3.55066-2.21798 6.48936-2.7759 9.58355l11.18084 0.10021c1.52792-1.48246 3.56688-2.84563 5.31324-4.75068 3.37181-3.67957 5.567866-8.30133 7.196894-13.32001-0.481077 4.39834-1.754379 8.85891-4.490174 12.64173-1.49975 2.07319-3.48861 3.72861-5.39776 5.45214l11.303704 0.1011c-0.04547-1.74831 0.123925-3.55939 0.55347-5.31217 0.52922-2.15878 1.448223-4.22663 2.832967-5.97833 1.21874-1.54112 2.765389-2.85472 4.474833-4.00766-4.846784-5.9441-6.145763-11.19457-5.812682-16.1257 0.736414 5.71247 3.344534 10.71439 7.297636 15.18548 0.157625-0.094 0.315428-0.18705 0.474658-0.27888 1.361029-0.78545 2.787855-1.49672 4.200059-2.16092-1.041679-0.48571-2.061604-1.19021-2.979002-2.10814-1.326794-1.3268-2.451387-3.10543-3.132704-5.31378-1.854409-6.01114-1.713011-12.38068-2.243122-18.71902-0.525119-6.28555-2.238665-11.75695-5.176834-16.27672 2.00722 1.35818 4.139078 4.69362 5.284354 10.39397 0.674898-3.82062 0.733027-8.12499 1.048455-12.18472 0.317389 3.72665 0.357687 8.83662 0.40583 13.52471l0.0469-2e-3c0.04707 1.2692 0.08202 2.58387 0.116257 3.89854 0.169394 6.44836 0.340213 12.89742 2.17804 18.85507 0.59038 1.91307 1.560735 3.45063 2.703515 4.59341 1.196986 1.1968 2.576381 1.95497 3.894439 2.25578 0.258369-1.68769 0.218963-3.09687 1.040252-4.68756 2.41305-4.67685 6.643957-7.77978 10.735605-9.91467-5.327861 4.11073-8.768504 8.0082-9.730836 12.03904 0.669192-0.95466 1.479961-1.88169 2.372039-2.72473 1.7205-1.626 3.762134-2.95743 5.6802-3.58311 2.156286-0.70361 4.097175-1.07413 6.009713-1.13422 1.915034-0.0597 3.798865 0.1915 5.838359 0.72981l-0.0016 5e-3z" fill-rule="evenodd"/>
 </g>
</svg>
