<?xml version="1.0" encoding="UTF-8" standalone="no"?>
<svg
   xmlns:dc="http://purl.org/dc/elements/1.1/"
   xmlns:cc="http://creativecommons.org/ns#"
   xmlns:rdf="http://www.w3.org/1999/02/22-rdf-syntax-ns#"
   xmlns:svg="http://www.w3.org/2000/svg"
   xmlns="http://www.w3.org/2000/svg"
   xmlns:xlink="http://www.w3.org/1999/xlink"
   xmlns:sodipodi="http://sodipodi.sourceforge.net/DTD/sodipodi-0.dtd"
   xmlns:inkscape="http://www.inkscape.org/namespaces/inkscape"
   sodipodi:docname="svg.svg"
   inkscape:version="1.0 (4035a4fb49, 2020-05-01)"
   version="1.1"
   id="svg2"
   height="500"
   width="1000.3">
  <defs
     id="defs4" />
  <sodipodi:namedview
     inkscape:document-rotation="0"
     inkscape:guide-bbox="true"
     showguides="true"
     inkscape:showpageshadow="false"
     fit-margin-bottom="0"
     fit-margin-right="0.3"
     fit-margin-left="0"
     fit-margin-top="0"
     inkscape:snap-global="false"
     inkscape:snap-smooth-nodes="true"
     inkscape:object-nodes="true"
     inkscape:window-maximized="1"
     inkscape:window-y="-8"
     inkscape:window-x="-8"
     inkscape:window-height="1017"
     inkscape:window-width="1920"
     showborder="true"
     showgrid="false"
     inkscape:current-layer="layer1"
     inkscape:document-units="px"
     inkscape:cy="309.03519"
     inkscape:cx="550.345"
     inkscape:zoom="0.96377842"
     inkscape:pageshadow="2"
     inkscape:pageopacity="0"
     borderopacity="1.0"
     bordercolor="#666666"
     pagecolor="#f6f3f1"
     id="base" />
  <metadata
     id="metadata7">
    <rdf:RDF>
      <cc:Work
         rdf:about="">
        <dc:format>image/svg+xml</dc:format>
        <dc:type
           rdf:resource="http://purl.org/dc/dcmitype/StillImage" />
        <dc:title />
      </cc:Work>
    </rdf:RDF>
  </metadata>
  <g
     transform="translate(-269.02489,-67.751561)"
     id="layer1"
     inkscape:groupmode="layer"
     inkscape:label="Layer 1">
    <g
       transform="matrix(0.67715899,0,0,0.67715899,259.69398,72.4608)"
       id="g991">
      <rect
         style="color:#000000;overflow:visible;opacity:1;fill:#cccccc;fill-opacity:1;fill-rule:evenodd;stroke-width:10.6835;stroke-linecap:round;stroke-linejoin:bevel;stroke-miterlimit:4;stroke-dasharray:none"
         id="rect942"
         width="1476.7581"
         height="738.37903"
         x="13.779496"
         y="-731.42462"
         rx="0"
         ry="0"
         transform="scale(1,-1)" />
      <rect
         ry="0"
         rx="0"
         y="-731.42462"
         x="13.779496"
         height="369.18951"
         width="1476.7581"
         id="rect966"
         style="color:#000000;overflow:visible;opacity:1;fill:#ffffff;fill-opacity:1;fill-rule:evenodd;stroke-width:7.55438;stroke-linecap:round;stroke-linejoin:bevel;stroke-miterlimit:4;stroke-dasharray:none"
         transform="scale(1,-1)" />
      <g
         id="g964"
         transform="translate(2.6920515)">
        <g
           id="g940">
          <path
             sodipodi:nodetypes="cszscc"
             inkscape:connector-curvature="0"
             id="path4006"
             d="m 602.13384,110.50686 c 0,0 0,125.08004 0,209.18696 0,84.10692 64.84521,151.39246 147.32593,151.39246 82.48073,0 147.32594,-67.28554 147.32594,-151.39246 0,-84.10692 0,-209.18696 0,-209.18696 z"
             style="color:#000000;display:inline;overflow:visible;visibility:visible;fill:#005dab;fill-opacity:1;stroke:none;stroke-width:5;marker:none;enable-background:accumulate" />
          <path
             style="color:#000000;display:inline;overflow:visible;visibility:visible;fill:#bead7d;fill-opacity:1;stroke:#000000;stroke-width:4;stroke-linecap:butt;stroke-linejoin:miter;stroke-miterlimit:4;stroke-dasharray:none;stroke-dashoffset:0;stroke-opacity:1;marker:none;enable-background:accumulate"
             d="M 522.96875,312.65625 C 541.55655,374.11398 596.76398,418.25 663.5625,418.25 c 66.79853,0 122.0372,-44.13602 140.625,-105.59375 z"
             transform="translate(85.888348,52.84162)"
             id="path3931"
             inkscape:connector-curvature="0" />
          <path
             style="color:#000000;display:inline;overflow:visible;visibility:visible;fill:none;stroke:#000000;stroke-width:5;stroke-linecap:butt;stroke-linejoin:miter;stroke-miterlimit:4;stroke-dasharray:none;stroke-dashoffset:0;stroke-opacity:1;marker:none;enable-background:accumulate"
             d="m 602.13384,110.50686 c 0,0 0,125.08004 0,209.18696 0,84.10692 64.84521,151.39246 147.32593,151.39246 82.48073,0 147.32594,-67.28554 147.32594,-151.39246 0,-84.10692 0,-209.18696 0,-209.18696 z"
             id="path3761"
             inkscape:connector-curvature="0"
             sodipodi:nodetypes="cszscc" />
          <path
             style="color:#000000;display:inline;overflow:visible;visibility:visible;fill:#bead7d;fill-opacity:1;stroke:#000000;stroke-width:3;stroke-linecap:butt;stroke-linejoin:miter;stroke-miterlimit:4;stroke-dasharray:none;stroke-dashoffset:0;stroke-opacity:1;marker:none;enable-background:accumulate"
             d="m 747.49102,118.74787 -1.4375,18.375 -6.21875,10.03125 2.25,14.40625 -3.15625,9.78125 3,11.8125 -3.75,10.59375 -0.71875,16.125 -6.0625,-15.15625 v -14.40625 l -6.0625,-10.21875 0.375,-15.90625 -9.09375,-9.84375 -3.03125,-19.3125 -7.96875,20.4375 4.5625,14.78125 -1.53125,15.15625 4.5625,10.96875 -1.90625,12.875 2.65625,15.9375 -9.46875,-14.03125 -1.125,-13.25 -6.84375,-8.34375 -2.25,-14.375 -9.46875,-8.71875 -9.46875,-15.53125 -1.53125,21.96875 9.09375,17.8125 -1.125,11.34375 5.28125,11.75 -0.75,10.96875 5.3125,14.78125 -10.21875,-10.59375 -1.90625,-14.03125 -7.96875,-6.0625 -3.40625,-12.125 -9.09375,-6.03125 -11.71875,-14.78125 0.375,18.5625 9.46875,13.25 1.125,11.375 7.59375,9.46875 2.25,13.625 6.0625,15.15625 -12.125,-10.21875 -1.875,-8.71875 -9.09375,-6.4375 -4.1875,-9.09375 -7.5625,-2.65625 -10.59375,-11.75 1.5,16.6875 10.21875,12.5 2.28125,12.125 9.09375,8.6875 3.03125,12.5 6.4375,12.5 -9.84375,-3.40625 -5.6875,-10.96875 -11.375,-5.6875 -15.53125,-14.78125 4.9375,19.3125 12.125,11 1.90625,10.59375 11.34375,10.25 2.28125,6.8125 9.46875,11.75 -12.875,-5.6875 -3.78125,-7.59375 -7.21875,-2.65625 -10.59375,-9.84375 3.40625,16.6875 8.34375,7.1875 7.5625,14.78125 18.5625,10.59375 5.3125,9.84375 -9.46875,-1.5 -7.96875,-8.71875 -15.90625,-0.375 15.90625,12.5 6.0625,9.46875 37.5,12.5 h 14.34375 c -14.5577,-11.59001 -23.90625,-29.44588 -23.90625,-49.5 0,-34.93798 28.34327,-63.25 63.28125,-63.25 34.93798,0 63.25,28.31202 63.25,63.25 0,20.05412 -9.34855,37.90999 -23.90625,49.5 h 14.3125 l 37.5,-12.5 6.0625,-9.46875 15.9375,-12.5 -15.9375,0.375 -7.9375,8.71875 -9.46875,1.5 5.3125,-9.84375 18.5625,-10.59375 7.5625,-14.78125 8.34375,-7.1875 3.40625,-16.6875 -10.625,9.84375 -7.1875,2.65625 -3.78125,7.59375 -12.875,5.6875 9.46875,-11.75 2.25,-6.8125 11.375,-10.25 1.90625,-10.59375 12.125,-11 4.90625,-19.3125 -15.53125,14.78125 -11.34375,5.6875 -5.6875,10.96875 -9.84375,3.40625 6.4375,-12.5 3.03125,-12.5 9.0625,-8.6875 2.28125,-12.125 10.25,-12.5 1.5,-16.6875 -10.59375,11.75 -7.59375,2.65625 -4.15625,9.09375 -9.09375,6.4375 -1.90625,8.71875 -12.125,10.21875 6.0625,-15.15625 2.28125,-13.625 7.5625,-9.46875 1.15625,-11.375 9.46875,-13.25 0.375,-18.5625 -11.75,14.78125 -9.09375,6.03125 -3.40625,12.125 -7.9375,6.0625 -1.90625,14.03125 -10.21875,10.59375 5.28125,-14.78125 -0.75,-10.96875 5.3125,-11.75 -1.125,-11.34375 9.0625,-17.8125 -1.5,-21.96875 -9.46875,15.53125 -9.46875,8.71875 -2.28125,14.375 -6.8125,8.34375 -1.125,13.25 -9.46875,14.03125 2.625,-15.9375 -1.875,-12.875 4.53125,-10.96875 -1.5,-15.15625 4.53125,-14.78125 -7.9375,-20.4375 -3.03125,19.3125 -9.09375,9.84375 0.375,15.90625 -6.0625,10.21875 v 14.40625 l -6.0625,15.15625 -1.125,-12.28125 2.125,-11.25 -4.4375,-8.78125 1.78125,-14.78125 -5.375,-12.84375 1.40625,-17.3125 z"
             id="path3979"
             inkscape:connector-curvature="0" />
          <g
             id="g4001"
             transform="translate(0.008925)"
             style="fill:#cccccc;fill-opacity:1;stroke:#000000;stroke-width:3;stroke-miterlimit:4;stroke-dasharray:none">
            <path
               transform="matrix(0.91793468,0,0,0.91793468,141.17217,69.825166)"
               d="m 662.6601,206.95157 9.41126,15.91479 18.0441,4.03271 -12.22761,13.86858 1.74059,18.40713 -16.96835,-7.34352 -16.96834,7.34352 1.74059,-18.40713 -12.22761,-13.86859 18.0441,-4.03271 z"
               inkscape:randomized="0"
               inkscape:rounded="0"
               inkscape:flatsided="false"
               sodipodi:arg2="-0.94247777"
               sodipodi:arg1="-1.5707963"
               sodipodi:r2="16.011406"
               sodipodi:r1="28.86828"
               sodipodi:cy="235.81985"
               sodipodi:cx="662.6601"
               sodipodi:sides="5"
               id="path3995"
               style="color:#000000;display:inline;overflow:visible;visibility:visible;fill:#cccccc;fill-opacity:1;stroke:#000000;stroke-width:3.26821;stroke-linecap:round;stroke-linejoin:miter;stroke-miterlimit:4;stroke-dasharray:none;stroke-dashoffset:0;stroke-opacity:1;marker:none;enable-background:accumulate"
               sodipodi:type="star" />
            <path
               sodipodi:type="star"
               style="color:#000000;display:inline;overflow:visible;visibility:visible;fill:#cccccc;fill-opacity:1;stroke:#000000;stroke-width:3.26821;stroke-linecap:round;stroke-linejoin:miter;stroke-miterlimit:4;stroke-dasharray:none;stroke-dashoffset:0;stroke-opacity:1;marker:none;enable-background:accumulate"
               id="path3997"
               sodipodi:sides="5"
               sodipodi:cx="662.6601"
               sodipodi:cy="235.81985"
               sodipodi:r1="28.86828"
               sodipodi:r2="16.011406"
               sodipodi:arg1="-1.5707963"
               sodipodi:arg2="-0.94247777"
               inkscape:flatsided="false"
               inkscape:rounded="0"
               inkscape:randomized="0"
               d="m 662.6601,206.95157 9.41126,15.91479 18.0441,4.03271 -12.22761,13.86858 1.74059,18.40713 -16.96835,-7.34352 -16.96834,7.34352 1.74059,-18.40713 -12.22761,-13.86859 18.0441,-4.03271 z"
               transform="matrix(0.83702198,0.37682658,-0.37682658,0.83702198,257.1988,-115.20027)" />
            <path
               transform="matrix(-0.83702198,0.37682658,0.37682658,0.83702198,1241.7029,-115.20027)"
               d="m 662.6601,206.95157 9.41126,15.91479 18.0441,4.03271 -12.22761,13.86858 1.74059,18.40713 -16.96835,-7.34352 -16.96834,7.34352 1.74059,-18.40713 -12.22761,-13.86859 18.0441,-4.03271 z"
               inkscape:randomized="0"
               inkscape:rounded="0"
               inkscape:flatsided="false"
               sodipodi:arg2="-0.94247777"
               sodipodi:arg1="-1.5707963"
               sodipodi:r2="16.011406"
               sodipodi:r1="28.86828"
               sodipodi:cy="235.81985"
               sodipodi:cx="662.6601"
               sodipodi:sides="5"
               id="path3999"
               style="color:#000000;display:inline;overflow:visible;visibility:visible;fill:#cccccc;fill-opacity:1;stroke:#000000;stroke-width:3.26821;stroke-linecap:round;stroke-linejoin:miter;stroke-miterlimit:4;stroke-dasharray:none;stroke-dashoffset:0;stroke-opacity:1;marker:none;enable-background:accumulate"
               sodipodi:type="star" />
          </g>
        </g>
        <g
           transform="translate(-0.692027)"
           id="g921">
          <use
             x="0"
             y="0"
             xlink:href="#g896"
             id="use900"
             transform="matrix(-1,0,0,1,1500.317,0)"
             width="100%"
             height="100%" />
          <g
             id="g896">
            <path
               sodipodi:nodetypes="csssscscscscsssscccsszscccssssssssscscssssscscssccscscscscscssscsscscc"
               id="path852"
               d="m 567.35184,326.18551 c 12.10575,7.70366 18.43375,12.8753 18.43375,20.35968 0,6.69134 -4.12696,10.80641 -4.67722,17.88349 0,0 3.84749,-3.12507 8.80418,-1.37565 4.67722,1.65078 6.97269,6.2808 5.59703,17.83629 -1.37565,11.55549 -7.79807,20.68201 -2.57059,21.23227 5.22749,0.55026 13.15907,1.00881 10.95803,21.91875 -2.20105,20.90993 3.1404,29.23061 3.1404,29.23061 0,0 12.56989,-2.08355 19.18448,-0.91627 6.61459,1.16728 15.56374,16.73103 15.56374,16.73103 0,0 5.44732,-10.50553 15.95284,-4.28003 10.50553,6.22549 10.89462,28.40383 10.89462,28.40383 0,0 3.08499,-0.20307 6.11142,-3.22951 3.02644,-3.02644 11.28036,2.47617 13.20628,10.17983 1.92591,7.70366 1.37565,16.0493 3.5767,19.90113 2.20104,3.85183 5.50261,-1.10053 10.17983,7.15339 4.67723,8.25393 4.53815,13.46458 12.70911,22.41373 0,0 -3.89093,-22.95653 -0.77818,-34.62933 l 14.78556,7.78187 c 0,0 -5.05822,16.73102 -2.33457,26.06927 2.72366,9.33825 5.05822,12.451 9.33825,19.06559 3.61198,5.58216 6.46257,10.98081 16.34193,16.34192 9.87936,5.36111 28.79293,17.50922 38.52027,21.78925 9.72734,4.28003 17.8983,12.45099 17.8983,12.45099 l 2.33456,-5.8364 c 0,0 5.44731,3.11275 7.39278,10.89462 0,0 12.0619,8.30066 26.84746,18.028 14.78555,9.72734 23.34561,21.01106 24.51289,26.06927 1.16728,5.05822 -10.50552,6.61459 -21.78924,5.05822 -11.28371,-1.55638 -13.22918,-1.94547 -18.2874,-13.22918 -5.05821,-11.28372 -21.40014,-24.90199 -36.96389,-35.01843 -15.56374,-10.11643 -49.02579,-31.51658 -58.36403,-32.29476 -9.33825,-0.77819 -16.73103,3.11275 -21.40015,2.72365 -4.66912,-0.38909 -7.39278,-8.56006 -10.89462,-8.17096 -3.50184,0.38909 -8.56006,6.22549 -17.89831,10.11643 -9.33824,3.89094 -21.78924,4.66912 -21.40014,-7.78187 0,0 -12.00369,8.04316 -17.89831,9.72734 -5.89462,1.68418 -22.95652,5.44731 -19.45468,-11.67281 0,0 -11.28371,5.8364 -20.62196,3.50184 -9.33824,-2.33456 -16.73102,-13.22918 -15.56374,-23.73471 1.16728,-10.50552 9.72734,-14.39646 16.34193,-18.67649 6.61459,-4.28003 2.16728,-24.37956 -10.50553,-29.57112 -11.83071,-4.84658 -19.84377,-1.55636 -29.57111,-1.16727 -9.72734,0.38909 -15.56373,-7.78187 -10.89462,-14.39646 0,0 -8.89462,0.64096 -18.6765,1.16728 -9.69852,0.52183 -21.78923,-7.00369 -12.45099,-17.89831 -4.53169,-3.62536 -13.91385,1.1202 -19.84377,-3.50185 -6.32235,-4.92793 -7.2142,-15.8983 -6.2255,-25.29107 0.98872,-9.39278 15.17465,-14.00737 21.40015,-16.73103 0,0 -5.44731,-17.50921 -1.94547,-36.96389 0,0 -7.39278,-5.05821 -13.61827,-13.61827 -6.2255,-8.56006 -0.3891,-16.34193 -0.3891,-16.34193 0,0 -12.84008,-11.28372 -16.73102,-20.62196 -3.89094,-9.33825 -0.77819,-18.6765 9.72734,-16.34193 0,0 3.11275,-1.55638 -2.33456,-11.67281 -5.44731,-10.11644 3.11275,-27.23655 19.45468,-27.62565 0,0 -1.16728,-7.00368 -3.50185,-21.40014 -2.33456,-14.39647 1.94547,-20.23287 9.33825,-17.50922 0,0 -4.66912,-11.28371 -6.2255,-20.23286 -1.55637,-8.94915 6.61459,-32.68386 18.2874,-16.34193 0,0 0.7782,-10.89462 3.50185,-18.2874 2.82474,-7.66716 13.65864,-16.93293 28.40383,-10.50553 15.17464,6.61459 16.34193,19.84378 13.61827,26.06927 -2.72365,6.2255 -5.8364,5.44731 -7.78187,11.67281 0,0 9.05898,-1.08965 10.50553,5.05821 1.81846,7.72851 -0.77819,13.22919 -7.78188,20.62197 -7.00368,7.39278 -10.50552,11.28371 -10.50552,11.28371 0,0 10.11643,0.38909 9.33824,11.28371 -0.77818,10.89463 -11.6728,39.68755 -11.6728,39.68755 z"
               style="color:#000000;display:inline;overflow:visible;visibility:visible;fill:#bead7d;fill-opacity:1;fill-rule:evenodd;stroke:#000000;stroke-width:3;stroke-linecap:butt;stroke-linejoin:miter;stroke-miterlimit:4;stroke-dasharray:none;stroke-dashoffset:0;stroke-opacity:1;marker:none;marker-start:none;marker-mid:none;marker-end:none;enable-background:accumulate" />
            <path
               sodipodi:nodetypes="cccccsscsssssccsscsccccssccsccsccccssscsssccsccccssccsccccsccsccc"
               id="path854"
               d="m 841.43007,662.64279 c 5.72974,-2.0974 14.57357,-3.1888 26.41895,1.5085 M 714.93524,550.14687 c 0,0 5.05822,11.67281 15.95284,19.84377 M 607.54541,453.65166 c 0,0 -12.0619,5.05822 -12.84009,15.95284 -0.77819,10.89462 1.16728,17.12012 8.17097,20.23286 7.00368,3.11275 12.84008,7.78188 12.84008,7.78188 0,0 -10.50552,4.66912 -6.22549,13.22918 4.28003,8.56006 6.61459,10.11643 16.34193,11.28371 9.72734,1.16728 14.78555,4.28003 15.17465,13.61828 0.38909,9.33824 10.89462,17.12011 18.2874,13.61827 7.39277,-3.50184 17.12011,-6.22549 23.7347,2.72366 6.6146,8.94915 22.95653,10.11643 26.84746,8.94915 m -103.1098,-95.32793 c 0,0 47.10631,31.01843 61.0877,51.74945 13.98138,20.73103 24.1238,30.73839 36.57479,39.29845 12.451,8.56006 24.90199,25.68018 24.90199,25.68018 0,0 -39.68754,-13.22918 -67.70228,-15.17465 -28.01474,-1.94547 -56.41857,4.28003 -56.41857,4.28003 m 35.01842,15.17465 c 0,0 19.45468,-17.12012 44.74576,-15.95284 m -85.92292,-18.74325 c 0,0 7.55395,-3.48229 14.55763,-1.14773 7.00368,2.33457 6.38666,-1.89826 8.72123,-6.95648 2.33456,-5.05821 14.39646,-5.44731 20.62196,-1.55637 m -15.34747,-34.22637 c 0,0 15.95758,0.55026 25.58716,6.60313 9.62957,6.05288 17.60836,10.17984 20.35967,10.17984 M 505.53914,462.55864 c 0,0 23.66124,2.7513 50.07379,13.75653 26.41254,11.00523 53.37535,28.06334 53.37535,28.06334 m -69.27485,-14.15205 c 0,0 27.37412,-4.8067 49.55245,2.58608 m 5.56914,-24.89411 c 0,0 -10.89462,-11.28372 -16.73102,-12.451 -5.83641,-1.16728 -10.50553,0.38909 -13.22919,-1.16728 -2.72365,-1.55637 -21.78924,-27.62564 -24.1238,-33.85114 -2.33456,-6.2255 1.94547,-17.12012 6.2255,-18.67649 0,0 -7.78187,-9.72734 -11.28372,-16.73103 -3.50184,-7.00368 -1.94546,-17.50921 4.66913,-17.12012 6.61459,0.3891 8.94915,-4.66912 5.44731,-12.84008 -3.50184,-8.17097 8.56006,-24.12381 21.78924,-28.40384 m -2.72366,13.22919 c 0,0.77818 -3.89093,34.62933 0,60.6986 3.89094,26.06927 19.29352,55.93911 26.68629,64.11008 m -19.29351,-36.48444 c 0,0 0.38909,-28.40383 9.33825,-45.13486 m -66.89568,59.83663 c 0,0 6.05288,-3.5767 12.10575,3.5767 6.05288,7.15339 10.17984,4.40209 9.90471,-1.10053 -0.27513,-5.50261 12.93114,-5.77774 18.70889,-2.47617 m -15.13219,-23.38611 c 0,0 -14.33187,-27.76076 -22.89192,-59.66643 -8.56006,-31.90568 -3.89094,-49.02579 -3.89094,-49.02579 m 17.8983,31.90567 c 0,0 -9.72733,22.56743 -6.61458,40.46573 m -13.11522,-85.41581 c 5.151,0 17.7345,4.98949 23.20345,13.24342 5.47924,8.26946 9.90471,10.45496 9.90471,10.45496 m -8.42623,-8.35471 c 0,0 -2.579,-33.09831 5.12466,-65.01348 7.70366,-31.91516 14.3068,-42.92039 14.3068,-42.92039 m 6.05287,39.61882 c 0,0 -21.46019,18.15863 -25.86228,53.92562"
               style="color:#000000;display:inline;overflow:visible;visibility:visible;fill:none;fill-rule:evenodd;stroke:#000000;stroke-width:2;stroke-linecap:butt;stroke-linejoin:miter;stroke-miterlimit:4;stroke-dasharray:none;stroke-dashoffset:0;stroke-opacity:1;marker:none;marker-start:none;marker-mid:none;marker-end:none;enable-background:accumulate" />
            <g
               id="g869">
              <path
                 id="path858"
                 d="m 593.58096,552.65017 c 0,0 23.11098,1.37566 23.11098,-16.15704 0,-17.5327 -23.11098,-16.15704 -23.11098,-16.15704 v 3.65456 h -18.17557 c 0,0 -18.09643,-1.0645 -18.09643,12.50248 0,13.56698 18.09643,12.50248 18.09643,12.50248 h 18.17557 z"
                 style="color:#000000;display:inline;overflow:visible;visibility:visible;fill:#cccccc;fill-opacity:1;fill-rule:evenodd;stroke:#000000;stroke-width:3;stroke-linecap:butt;stroke-linejoin:miter;stroke-miterlimit:4;stroke-dasharray:none;stroke-dashoffset:0;stroke-opacity:1;marker:none;marker-start:none;marker-mid:none;marker-end:none;enable-background:accumulate"
                 sodipodi:nodetypes="czcczcccc" />
              <path
                 sodipodi:nodetypes="cc"
                 style="color:#000000;display:inline;overflow:visible;visibility:visible;fill:none;fill-rule:evenodd;stroke:#000000;stroke-width:2;stroke-linecap:butt;stroke-linejoin:miter;stroke-miterlimit:4;stroke-dasharray:none;stroke-dashoffset:0;stroke-opacity:1;marker:none;marker-start:none;marker-mid:none;marker-end:none;enable-background:accumulate"
                 d="M 594.06733,548.99561 V 523.99065"
                 id="path862" />
              <path
                 style="color:#000000;display:inline;overflow:visible;visibility:visible;fill:none;fill-rule:evenodd;stroke:#000000;stroke-width:2;stroke-linecap:butt;stroke-linejoin:miter;stroke-miterlimit:4;stroke-dasharray:none;stroke-dashoffset:0;stroke-opacity:1;marker:none;marker-start:none;marker-mid:none;marker-end:none;enable-background:accumulate"
                 d="m 552.42382,536.49313 h 5.8364 m 31.05622,8.05446 v 4.33331 m -4.95235,-4.33331 v 4.33331 m -4.95235,-4.33331 v 4.33331 m -4.95236,-4.33331 v 4.33331 m -4.95235,-4.33331 v 4.33331"
                 id="path864"
                 sodipodi:nodetypes="cccccccccccc" />
            </g>
            <use
               height="100%"
               width="100%"
               transform="rotate(17.329682,912.39503,209.7837)"
               id="use871"
               xlink:href="#g869"
               y="0"
               x="0" />
            <use
               x="0"
               y="0"
               xlink:href="#g869"
               id="use871-2"
               transform="matrix(-0.67777886,0.73526582,0.73526582,0.67777886,564.36289,-487.30436)"
               width="100%"
               height="100%" />
          </g>
        </g>
      </g>
    </g>
  </g>
</svg>
