<?xml version="1.0" encoding="UTF-8" standalone="no"?>
<svg
   xmlns:dc="http://purl.org/dc/elements/1.1/"
   xmlns:cc="http://creativecommons.org/ns#"
   xmlns:rdf="http://www.w3.org/1999/02/22-rdf-syntax-ns#"
   xmlns:svg="http://www.w3.org/2000/svg"
   xmlns="http://www.w3.org/2000/svg"
   xmlns:xlink="http://www.w3.org/1999/xlink"
   xmlns:sodipodi="http://sodipodi.sourceforge.net/DTD/sodipodi-0.dtd"
   xmlns:inkscape="http://www.inkscape.org/namespaces/inkscape"
   id="svg8"
   version="1.1"
   viewBox="0 0 423.33332 211.66667"
   height="800"
   width="1600"
   sodipodi:docname="Rojas pagasts.svg"
   inkscape:version="1.0.2 (e86c870879, 2021-01-15, custom)">
  <sodipodi:namedview
     pagecolor="#ffffff"
     bordercolor="#666666"
     borderopacity="1"
     objecttolerance="10"
     gridtolerance="10"
     guidetolerance="10"
     inkscape:pageopacity="0"
     inkscape:pageshadow="2"
     inkscape:window-width="1920"
     inkscape:window-height="1017"
     id="namedview884"
     showgrid="false"
     inkscape:zoom="0.24365721"
     inkscape:cx="688.09166"
     inkscape:cy="327.26645"
     inkscape:window-x="-8"
     inkscape:window-y="-8"
     inkscape:window-maximized="1"
     inkscape:current-layer="svg8" />
  <defs
     id="defs2" />
  <metadata
     id="metadata5">
    <rdf:RDF>
      <cc:Work
         rdf:about="">
        <dc:format>image/svg+xml</dc:format>
        <dc:type
           rdf:resource="http://purl.org/dc/dcmitype/StillImage" />
        <dc:title></dc:title>
      </cc:Work>
    </rdf:RDF>
  </metadata>
  <path
     id="path961"
     d="M 0,211.66665 V 0 h 423.33333 v 211.66665 z"
     style="color:#000000;display:inline;overflow:visible;visibility:visible;fill:#0157a4;fill-opacity:1;fill-rule:evenodd;stroke:none;stroke-width:1.85208;stroke-linecap:butt;stroke-linejoin:miter;stroke-miterlimit:4;stroke-dasharray:none;stroke-dashoffset:0;stroke-opacity:1;marker:none;marker-start:none;marker-mid:none;marker-end:none;enable-background:accumulate"
     sodipodi:nodetypes="ccccc" />
  <g
     id="layer1-9"
     transform="matrix(0.47148634,0,0,0.47148634,-137.40159,-20.593301)"
     style="stroke-width:2.329;stroke-miterlimit:4;stroke-dasharray:none">
    <g
       id="g4142"
       style="stroke-width:2.329;stroke-miterlimit:4;stroke-dasharray:none">
      <path
         id="path4134"
         d="m 607.37333,230.09698 c 0,0 10.60661,-5.3033 17.42514,-6.81853 0,0 26.5165,-44.32044 22.72843,-45.45686 -3.78807,-1.13642 -15.9099,-2.27284 -26.1377,10.6066 -10.22779,12.87945 -14.01587,41.66879 -14.01587,41.66879 z m 13.25826,32.57742 c 0,0 -13.023,8.20618 -16.66752,25.38009 -3.64452,17.17391 10.12886,36.21362 13.63706,53.79062 0,0 8.33376,-19.69798 13.25825,-25.00128 4.9245,-5.3033 -10.22779,-54.16943 -10.22779,-54.16943 z M 684.65,318.48533 c 0,0 12.50064,10.6066 15.90991,18.94036 0,0 6.06091,-21.2132 2.65165,-35.22907 -3.40927,-14.01587 -12.12183,-20.83439 -12.12183,-20.83439 z m 24.1174,-79.29697 c 0,0 7.57614,6.43972 10.98541,15.53109 0,0 4.92449,-13.25825 1.89403,-24.62247 -3.03046,-11.36421 -9.84899,-14.77348 -9.84899,-14.77348 z"
         style="color:#000000;display:inline;overflow:visible;visibility:visible;fill:#ebb200;fill-opacity:1;stroke:#000000;stroke-width:2.329;stroke-linecap:butt;stroke-linejoin:miter;stroke-miterlimit:4;stroke-dasharray:none;stroke-dashoffset:0;stroke-opacity:1;marker:none;enable-background:accumulate" />
      <path
         id="path4136"
         d="m 640.23661,186.21611 0.0625,-2 c -6.11049,0.36739 -10.92186,3.07128 -15.03125,7.4375 4.74699,-2.01841 9.82793,-5.53832 14.96875,-5.4375 z m -3.65625,8.5625 -0.125,-2 c -9.01026,0.56315 -16.28125,7.71875 -16.28125,7.71875 0,0 8.27365,-5.21046 16.40625,-5.71875 z m -4.25,7.5 -0.1875,-1.96875 c -5.50154,1.0008 -9.79324,3.33951 -13.84375,7.14063 4.68967,-1.5187 9.06106,-4.61475 14.03125,-5.17188 z m -4.21875,8.03125 -0.34375,-1.96875 c -6.27328,1.1406 -11.34375,6.60938 -11.34375,6.60938 0,0 6.17508,-3.63837 11.6875,-4.64063 z m -1.46875,7.25 -0.0937,-2 h -5e-5 c -6.06794,0.28895 -11.20312,5.28125 -11.20312,5.28125 0,0 6.11481,-3.03448 11.29687,-3.28125 z m 88.03125,4.96875 -1.65625,1.09375 c 2.28233,2.85611 4.40823,6.59363 6.1875,9.64063 -0.0626,-4.3305 -2.05828,-7.53775 -4.53125,-10.73438 z m -2.6875,5.0625 -1.09375,1.6875 c 0,0 4.98719,3.24331 7.23438,9.875 -0.43138,-7.83261 -6.14063,-11.5625 -6.14063,-11.5625 z m -0.375,6.28125 -1.4375,1.4375 c 0.53568,0.53567 4.68764,4.68158 8.21875,10.53125 -1.82603,-7.00749 -6.24549,-11.433 -6.78125,-11.96875 z m -90.375,40.71875 -0.875,-1.78125 c -5.83729,3.7522 -9.08327,9.11969 -11.07812,15.625 3.75954,-4.51205 6.5946,-11.12068 11.95312,-13.84375 z m 0.84375,9.375 -0.9375,-1.78125 c -5.96131,4.15936 -8.79918,10.24574 -9.98437,17.21875 3.11715,-5.15478 5.56353,-12.47937 10.92187,-15.4375 z m 70.34375,2.5625 -1.625,1.125 c 0,0 5.25835,7.72046 8.84375,15.78125 -1.77174,-9.08207 -7.21875,-16.90625 -7.21875,-16.90625 z m -68.625,5.9375 -1.15625,-1.625 c -4.64707,3.90564 -7.25,8.62497 -8.53125,14.46875 3.07589,-4.25855 5.42294,-9.74628 9.6875,-12.84375 z m 67.1875,1.96875 -1.4375,1.375 c 0,0 5.42642,5.69037 8.75,15.9375 -1.49786,-11.18143 -7.3125,-17.3125 -7.3125,-17.3125 z m -65.3125,6.0625 -1.1875,-1.625 c -4.5597,4.24656 -6.72172,9.44178 -7.4375,15.54687 2.72414,-4.54211 4.36435,-10.63675 8.625,-13.92187 z m 63.40625,1.125 -1.375,1.46875 c 0,0 7.58025,7.18026 10.0625,14.8125 -0.73203,-8.9749 -8.6875,-16.28125 -8.6875,-16.28125 z m -59.9375,6.90625 -1.125,-1.625 c -4.3598,3.87732 -6.52484,8.55535 -7.75,14.20312 3.11725,-3.93463 4.67508,-9.53602 8.875,-12.57812 z m 58.09375,3.78125 c 3.32328,3.22763 5.6169,5.49922 9.1875,10.9375 -1.22693,-5.11733 -4.27426,-8.86357 -7.75,-12.34375 z"
         style="color:#000000;font-style:normal;font-variant:normal;font-weight:normal;font-stretch:normal;font-size:medium;line-height:normal;font-family:Sans;-inkscape-font-specification:Sans;text-indent:0;text-align:start;text-decoration:none;text-decoration-line:none;letter-spacing:normal;word-spacing:normal;text-transform:none;writing-mode:lr-tb;direction:ltr;baseline-shift:baseline;text-anchor:start;display:inline;overflow:visible;visibility:visible;fill:#000000;fill-opacity:1;stroke:none;stroke-width:2.329;stroke-miterlimit:4;stroke-dasharray:none;marker:none;enable-background:accumulate" />
      <path
         id="path3994"
         d="m 674.42221,140.69848 c 17.42513,-12.50063 32.57742,-20.8344 39.77476,-18.56155 7.19733,2.27284 -3.03046,22.34963 -8.71257,30.30458 -5.68211,7.95495 -3.16688,20.30755 0.75761,21.2132 3.9245,0.90565 9.47019,-15.9099 9.84899,-27.65293 0.37881,-11.74302 3.03046,-14.77348 5.68211,-14.01586 2.65165,0.75761 5.68211,8.33376 4.92449,25.38008 -0.75761,17.04632 -9.09137,33.71384 -10.60659,52.6542 -1.45124,18.14057 -6.81853,41.28999 -15.1523,60.23035 -7.92873,18.01984 -14.41793,37.63833 -14.01586,54.92704 0.40207,17.28871 4.00221,40.58838 19.31917,47.72971 14.63706,6.82434 25.75889,-0.37881 28.41054,-11.74302 0,0 11.11167,32.32488 -18.43529,39.52221 0,0 -3.03046,21.59202 -21.97082,28.78935 0,0 5.14291,-15.94036 -1.51523,-30.68338 -6.65814,-14.74303 -17.77524,-17.31223 -35.60788,-34.72028 -19.26584,-18.80713 -31.95761,-58.27885 -36.1705,-78.0937 -4.2129,-19.81485 -8.04185,-68.70756 31.01145,-118.61629 0,0 5.03279,-14.16307 22.45792,-26.66371 z"
         style="color:#000000;display:inline;overflow:visible;visibility:visible;fill:#ebb200;fill-opacity:1;stroke:#000000;stroke-width:2.329;stroke-linecap:butt;stroke-linejoin:miter;stroke-miterlimit:4;stroke-dasharray:none;stroke-dashoffset:0;stroke-opacity:1;marker:none;enable-background:accumulate" />
      <path
         id="path3998"
         d="m 711.48661,121.80986 c -0.4661,15.69237 -13.80977,22.96795 -11.85719,36.9375 1.31804,-14.97922 14.30745,-22.35019 13.85714,-37.0625 z m 8.15625,11.28125 -1.96875,0.3125 c 3.17259,20.62179 -2.77232,37.62277 -2.77232,37.62277 0,0 7.99706,-16.77136 4.74107,-37.93527 z m -15.375,60.625 c -2.52776,1.18418 -5.04428,1.72046 -6.9375,1.96875 3.59973,-3.32793 6.22135,-7.99106 6.14063,-14.32812 -2.26908,8.66876 -6.84303,14.05717 -13.10938,16.54687 -6.26635,2.4897 -14.34606,1.99636 -22.5625,-1.5 -8.04176,-3.42203 -11.72274,-10.53145 -13.4375,-16.9375 -1.71476,-6.40605 -1.40625,-11.96875 -1.40625,-11.96875 l -1.96875,-0.0937 v -5e-5 c 0,0 -0.36831,5.81629 1.4375,12.5625 1.80581,6.74621 5.83157,14.55266 14.59375,18.28125 8.5875,3.65425 17.19815,4.27096 24.09375,1.53125 1.24261,-0.49371 2.35535,-1.2229 3.46875,-1.9375 0.6314,0.014 5.37623,0.10247 10.53125,-2.3125 5.50571,-2.57925 11.09375,-8.15679 10.09375,-19.09375 -1,10.27624 -5.93131,14.93601 -10.9375,17.28125 z m -11.78125,193.5937 c 0.48412,-0.15323 0.9497,-0.22952 1.4375,-0.4375 0.28646,-0.12213 0.55961,-0.35522 0.84375,-0.5 0.22023,0.29647 5.52071,7.42677 8.98438,13.40625 -1.73589,-7.01941 -6.86476,-13.93264 -7.26563,-14.46875 0.63694,-0.45687 1.20601,-1.02078 1.78125,-1.625 1.26349,1.28061 6.97471,7.09959 10.5625,10.45313 -2.23765,-4.89917 -8.17889,-10.90828 -9.28125,-12.01563 0.32816,-0.47639 0.62537,-0.98249 0.90625,-1.53125 0.7702,0.52217 8.55258,5.81738 13.48438,10.07813 -3.92421,-6.15807 -12.60714,-11.91058 -12.76563,-12.01563 0.22966,-0.65006 0.55832,-1.17007 0.71875,-1.90625 1.1062,0.79048 6.74736,4.71787 17.39063,7.21875 -10.78635,-4.64232 -17.07813,-9.375 -17.07813,-9.375 l -0.15625,0.1875 c 0.18537,-1.49921 0.40662,-2.98215 0.28125,-4.8125 v 5e-5 l -2,0.15625 c 0.64903,9.47579 -3.17053,13.19359 -7.1875,14.90625 -4.01697,1.71266 -8.28125,1.15625 -8.28125,1.15625 l -0.25,2 c 0,0 2.73604,0.35255 6.09375,-0.34375 l -0.15625,0.0937 c 0,0 5.60442,9.94731 8.375,15.84375 -0.92088,-6.75998 -6.11677,-15.90462 -6.4375,-16.46875 z"
         style="color:#000000;font-style:normal;font-variant:normal;font-weight:normal;font-stretch:normal;font-size:medium;line-height:normal;font-family:Sans;-inkscape-font-specification:Sans;text-indent:0;text-align:start;text-decoration:none;text-decoration-line:none;letter-spacing:normal;word-spacing:normal;text-transform:none;writing-mode:lr-tb;direction:ltr;baseline-shift:baseline;text-anchor:start;display:inline;overflow:visible;visibility:visible;fill:#000000;fill-opacity:1;stroke:none;stroke-width:2.329;stroke-miterlimit:4;stroke-dasharray:none;marker:none;enable-background:accumulate" />
      <g
         id="g4004"
         style="stroke-width:2.329;stroke-miterlimit:4;stroke-dasharray:none">
        <path
           style="color:#000000;font-style:normal;font-variant:normal;font-weight:normal;font-stretch:normal;font-size:medium;line-height:normal;font-family:Sans;-inkscape-font-specification:Sans;text-indent:0;text-align:start;text-decoration:none;text-decoration-line:none;letter-spacing:normal;word-spacing:normal;text-transform:none;writing-mode:lr-tb;direction:ltr;baseline-shift:baseline;text-anchor:start;display:inline;overflow:visible;visibility:visible;fill:#000000;fill-opacity:1;stroke:none;stroke-width:2.329;stroke-miterlimit:4;stroke-dasharray:none;marker:none;enable-background:accumulate"
           d="m 668.1875,227.18932 c 5.29009,0.58779 7.34599,-4.20758 7.34599,-4.20758 0,0 -2.64054,2.48712 -6.99331,2.00347 -4.21944,-0.46882 -5.86607,-4.40972 -5.86607,-4.40972 0,0 0.09,6.01123 5.51339,6.61383 z"
           id="path4000" />
        <use
           height="484.28894"
           width="424.05441"
           transform="matrix(1.3082612,0.12878156,-0.12878156,1.3082612,-190.04504,-162.91051)"
           id="use4007"
           xlink:href="#path4000"
           y="0"
           x="0"
           style="stroke-width:1.77166;stroke-miterlimit:4;stroke-dasharray:none" />
        <use
           x="0"
           y="0"
           xlink:href="#path4000"
           id="use4009"
           transform="matrix(1.020246,0.1814087,-0.17760025,1.1406888,31.435859,-164.07432)"
           width="424.05441"
           height="484.28894"
           style="stroke-width:2.12963;stroke-miterlimit:4;stroke-dasharray:none" />
        <use
           height="484.28894"
           width="424.05441"
           transform="matrix(1.1801509,0.2098412,-0.20543585,1.319471,-56.499014,-219.25749)"
           id="use4011"
           xlink:href="#path4000"
           y="0"
           x="0"
           style="stroke-width:1.84107;stroke-miterlimit:4;stroke-dasharray:none" />
        <use
           x="0"
           y="0"
           xlink:href="#path4000"
           id="use4013"
           transform="matrix(0.83510274,0.85987958,-0.93771244,0.95073808,312.10937,-584.88309)"
           width="424.05441"
           height="484.28894"
           style="stroke-width:1.84107;stroke-miterlimit:4;stroke-dasharray:none" />
        <use
           height="484.28894"
           width="424.05441"
           transform="matrix(0.83510274,0.85987958,-0.93771244,0.95073808,298.0935,-587.53474)"
           id="use4015"
           xlink:href="#path4000"
           y="0"
           x="0"
           style="stroke-width:1.84107;stroke-miterlimit:4;stroke-dasharray:none" />
        <use
           x="0"
           y="0"
           xlink:href="#path4000"
           id="use4017"
           transform="matrix(1.2041972,0.52729614,-0.52729614,1.2041972,-39.248483,-433.25433)"
           width="424.05441"
           height="484.28894"
           style="stroke-width:1.77166;stroke-miterlimit:4;stroke-dasharray:none" />
        <use
           height="484.28894"
           width="424.05441"
           transform="matrix(0.97376495,0.3543908,-0.37138018,1.0930643,70.609373,-280.58525)"
           id="use4019"
           xlink:href="#path4000"
           y="0"
           x="0"
           style="stroke-width:2.12963;stroke-miterlimit:4;stroke-dasharray:none" />
        <use
           height="484.28894"
           width="424.05441"
           transform="matrix(0.99153493,0.67353393,-0.72641321,1.120505,141.9088,-483.37307)"
           id="use4021"
           xlink:href="#path4000"
           y="0"
           x="0"
           style="stroke-width:1.84107;stroke-miterlimit:4;stroke-dasharray:none" />
        <use
           x="0"
           y="0"
           xlink:href="#path4000"
           id="use4023"
           transform="matrix(1.331316,0.29259017,-0.29397814,1.4898204,-174.13659,-297.66925)"
           width="424.05441"
           height="484.28894"
           style="stroke-width:1.61899;stroke-miterlimit:4;stroke-dasharray:none" />
        <use
           height="484.28894"
           width="424.05441"
           transform="matrix(1.2229269,-0.27306557,0.30781888,1.4808766,-218.98504,88.266568)"
           id="use4025"
           xlink:href="#path4000"
           y="0"
           x="0"
           style="stroke-width:1.69184;stroke-miterlimit:4;stroke-dasharray:none" />
        <use
           height="484.28894"
           width="424.05441"
           transform="matrix(1.0060988,-0.27993547,0.25176823,1.1186588,-45.312637,170.48959)"
           id="use4027"
           xlink:href="#path4000"
           y="0"
           x="0"
           style="stroke-width:2.12967;stroke-miterlimit:4;stroke-dasharray:none" />
        <use
           x="0"
           y="0"
           xlink:href="#path4000"
           id="use4029"
           transform="matrix(1.1186588,-0.27993547,0.27993547,1.1186588,-133.69236,184.50546)"
           width="424.05441"
           height="484.28894"
           style="stroke-width:2.01968;stroke-miterlimit:4;stroke-dasharray:none" />
        <use
           height="484.28894"
           width="424.05441"
           transform="matrix(1.0556739,-0.46401958,0.46401958,1.0556739,-142.00965,338.39586)"
           id="use4031"
           xlink:href="#path4000"
           y="0"
           x="0"
           style="stroke-width:2.01968;stroke-miterlimit:4;stroke-dasharray:none" />
        <use
           x="0"
           y="0"
           xlink:href="#path4000"
           id="use4033"
           transform="matrix(0.9982618,-0.2969529,0.26694531,1.1104774,-64.119883,201.9183)"
           width="424.05441"
           height="484.28894"
           style="stroke-width:2.13695;stroke-miterlimit:4;stroke-dasharray:none" />
        <use
           height="484.28894"
           width="424.05441"
           transform="matrix(1.0408066,-0.03780572,-0.0193177,1.1419486,-43.148003,16.331158)"
           id="use4035"
           xlink:href="#path4000"
           y="0"
           x="0"
           style="stroke-width:2.13695;stroke-miterlimit:4;stroke-dasharray:none" />
        <use
           x="0"
           y="0"
           xlink:href="#path4000"
           id="use4037"
           transform="matrix(1.1598588,0.3025179,-0.30914469,1.2990909,-73.821641,-274.21238)"
           width="424.05441"
           height="484.28894"
           style="stroke-width:1.84107;stroke-miterlimit:4;stroke-dasharray:none" />
        <use
           height="484.28894"
           width="424.05441"
           transform="matrix(0.91388773,0.775628,-0.84198559,1.0364689,212.7797,-519.78767)"
           id="use4039"
           xlink:href="#path4000"
           y="0"
           x="0"
           style="stroke-width:1.84107;stroke-miterlimit:4;stroke-dasharray:none" />
        <use
           x="0"
           y="0"
           xlink:href="#path4000"
           id="use4041"
           transform="matrix(1.1527627,0.32852356,-0.33827967,1.2918105,-65.930507,-272.01488)"
           width="424.05441"
           height="484.28894"
           style="stroke-width:1.84107;stroke-miterlimit:4;stroke-dasharray:none" />
        <use
           height="484.28894"
           width="424.05441"
           transform="matrix(1.331316,0.29259017,-0.29397814,1.4898204,-190.04649,-281.00173)"
           id="use4043"
           xlink:href="#path4000"
           y="0"
           x="0"
           style="stroke-width:1.61899;stroke-miterlimit:4;stroke-dasharray:none" />
        <use
           x="0"
           y="0"
           xlink:href="#path4000"
           id="use4045"
           transform="matrix(1.0408066,-0.03780572,-0.0193177,1.1419486,-48.072497,27.695374)"
           width="424.05441"
           height="484.28894"
           style="stroke-width:2.13695;stroke-miterlimit:4;stroke-dasharray:none" />
        <use
           height="484.28894"
           width="424.05441"
           transform="matrix(1.0352333,0.11401578,-0.18524585,1.1269888,-23.839828,-74.332085)"
           id="use4047"
           xlink:href="#path4000"
           y="0"
           x="0"
           style="stroke-width:2.13695;stroke-miterlimit:4;stroke-dasharray:none" />
        <use
           height="484.28894"
           width="424.05441"
           transform="matrix(0.98817217,-0.32897327,0.30259804,1.1012966,-93.679837,238.83289)"
           id="use4049"
           xlink:href="#path4000"
           y="0"
           x="0"
           style="stroke-width:2.13695;stroke-miterlimit:4;stroke-dasharray:none" />
        <use
           height="484.28894"
           width="424.05441"
           transform="matrix(1.0408066,-0.03780572,-0.0193177,1.1419486,-65.497628,42.468855)"
           id="use4051"
           xlink:href="#path4000"
           y="0"
           x="0"
           style="stroke-width:2.13695;stroke-miterlimit:4;stroke-dasharray:none" />
        <use
           x="0"
           y="0"
           xlink:href="#path4000"
           id="use4053"
           transform="matrix(1.0158644,-0.22962409,0.19218951,1.1258255,-80.27913,173.67748)"
           width="424.05441"
           height="484.28894"
           style="stroke-width:2.13695;stroke-miterlimit:4;stroke-dasharray:none" />
        <use
           height="484.28894"
           width="424.05441"
           transform="matrix(0.88777065,-0.5445833,0.54456054,1.0039291,-69.932098,424.49691)"
           id="use4055"
           xlink:href="#path4000"
           y="0"
           x="0"
           style="stroke-width:2.13695;stroke-miterlimit:4;stroke-dasharray:none" />
        <use
           x="0"
           y="0"
           xlink:href="#path4000"
           id="use4070"
           transform="matrix(1.0408066,-0.03780572,-0.0193177,1.1419486,-58.300291,53.454264)"
           width="424.05441"
           height="484.28894"
           style="stroke-width:2.13695;stroke-miterlimit:4;stroke-dasharray:none" />
        <use
           height="484.28894"
           width="424.05441"
           transform="matrix(1.0408066,-0.03780572,-0.0193177,1.1419486,-60.951941,61.409215)"
           id="use4072"
           xlink:href="#path4000"
           y="0"
           x="0"
           style="stroke-width:2.13695;stroke-miterlimit:4;stroke-dasharray:none" />
        <use
           height="484.28894"
           width="424.05441"
           transform="matrix(1.0158644,-0.22962409,0.19218951,1.1258255,-76.869865,197.54233)"
           id="use4074"
           xlink:href="#path4000"
           y="0"
           x="0"
           style="stroke-width:2.13695;stroke-miterlimit:4;stroke-dasharray:none" />
        <use
           x="0"
           y="0"
           xlink:href="#path4000"
           id="use4076"
           transform="matrix(1.0158644,-0.22962409,0.19218951,1.1258255,-81.036744,210.42177)"
           width="424.05441"
           height="484.28894"
           style="stroke-width:2.13695;stroke-miterlimit:4;stroke-dasharray:none" />
      </g>
      <circle
         r="10.580358"
         cy="140.40501"
         cx="638.61609"
         style="color:#000000;display:inline;overflow:visible;visibility:visible;fill:none;stroke:#000000;stroke-width:1.66357;stroke-linecap:square;stroke-linejoin:miter;stroke-miterlimit:4;stroke-dasharray:none;stroke-dashoffset:0;stroke-opacity:1;marker:none;enable-background:accumulate"
         id="path4115"
         transform="translate(47.232143,23.25182)" />
      <circle
         r="10.580358"
         cy="140.40501"
         cx="638.61609"
         transform="matrix(0.57664633,0,0,0.57664633,317.5926,82.692799)"
         id="path4117"
         style="color:#000000;display:inline;overflow:visible;visibility:visible;fill:none;stroke:#000000;stroke-width:2.88491;stroke-linecap:square;stroke-linejoin:miter;stroke-miterlimit:4;stroke-dasharray:none;stroke-dashoffset:0;stroke-opacity:1;marker:none;enable-background:accumulate" />
      <path
         style="color:#000000;font-style:normal;font-variant:normal;font-weight:normal;font-stretch:normal;font-size:medium;line-height:normal;font-family:Sans;-inkscape-font-specification:Sans;text-indent:0;text-align:start;text-decoration:none;text-decoration-line:none;letter-spacing:normal;word-spacing:normal;text-transform:none;writing-mode:lr-tb;direction:ltr;baseline-shift:baseline;text-anchor:start;display:inline;overflow:visible;visibility:visible;fill:#000000;fill-opacity:1;stroke:none;stroke-width:2.329;stroke-miterlimit:4;stroke-dasharray:none;marker:none;enable-background:accumulate"
         d="m 683.7994,161.19491 c -3.086,3.98378 0.90848,8.15937 5.27106,4.3199 -4.30215,1.07919 -5.66011,-1.06316 -5.27106,-4.3199 z"
         id="path4119" />
    </g>
    <g
       id="g4236"
       transform="matrix(-1,0,0,1,1480.7142,0)"
       style="stroke-width:2.329;stroke-miterlimit:4;stroke-dasharray:none">
      <path
         style="color:#000000;display:inline;overflow:visible;visibility:visible;fill:#cbcdcc;fill-opacity:1;stroke:#000000;stroke-width:2.329;stroke-linecap:butt;stroke-linejoin:miter;stroke-miterlimit:4;stroke-dasharray:none;stroke-dashoffset:0;stroke-opacity:1;marker:none;enable-background:accumulate"
         d="m 607.37333,230.09698 c 0,0 10.60661,-5.3033 17.42514,-6.81853 0,0 26.5165,-44.32044 22.72843,-45.45686 -3.78807,-1.13642 -15.9099,-2.27284 -26.1377,10.6066 -10.22779,12.87945 -14.01587,41.66879 -14.01587,41.66879 z m 13.25826,32.57742 c 0,0 -13.023,8.20618 -16.66752,25.38009 -3.64452,17.17391 10.12886,36.21362 13.63706,53.79062 0,0 8.33376,-19.69798 13.25825,-25.00128 4.9245,-5.3033 -10.22779,-54.16943 -10.22779,-54.16943 z M 684.65,318.48533 c 0,0 12.50064,10.6066 15.90991,18.94036 0,0 6.06092,-21.2132 2.65166,-35.22907 -3.40928,-14.01587 -12.12184,-20.83439 -12.12184,-20.83439 z m 24.11741,-79.29697 c 0,0 7.57614,6.43972 10.98541,15.53109 0,0 4.92449,-13.25825 1.89403,-24.62247 -3.03046,-11.36421 -9.84899,-14.77348 -9.84899,-14.77348 z"
         id="path4244" />
      <use
         id="use4224"
         xlink:href="#path4136"
         y="0"
         x="0"
         width="424.05441"
         height="484.28894"
         style="stroke-width:2.329;stroke-miterlimit:4;stroke-dasharray:none" />
      <path
         style="color:#000000;display:inline;overflow:visible;visibility:visible;fill:#cbcdcc;fill-opacity:1;stroke:#000000;stroke-width:2.329;stroke-linecap:butt;stroke-linejoin:miter;stroke-miterlimit:4;stroke-dasharray:none;stroke-dashoffset:0;stroke-opacity:1;marker:none;enable-background:accumulate"
         d="m 674.42222,140.69848 c 17.42512,-12.50063 32.57742,-20.8344 39.77476,-18.56155 7.19733,2.27284 -3.03046,22.34963 -8.71257,30.30458 -5.68212,7.95495 -3.16689,20.30755 0.75761,21.2132 3.9245,0.90565 9.47019,-15.9099 9.84899,-27.65293 0.37881,-11.74302 3.03046,-14.77348 5.68211,-14.01586 2.65165,0.75761 5.68211,8.33376 4.92449,25.38008 -0.75761,17.04632 -9.09137,33.71384 -10.60659,52.6542 -1.45124,18.14057 -6.81853,41.28999 -15.15231,60.23035 -7.92873,18.01984 -14.41793,37.63833 -14.01586,54.92704 0.40207,17.28871 4.00221,40.58838 19.31918,47.72971 14.63706,6.82434 25.75889,-0.37881 28.41054,-11.74302 0,0 11.11167,32.32488 -18.43529,39.52221 0,0 -3.03046,21.59202 -21.97083,28.78935 0,0 5.14291,-15.94036 -1.51523,-30.68338 -6.65814,-14.74303 -17.77523,-17.31223 -35.60788,-34.72028 -19.26584,-18.80713 -31.95761,-58.27885 -36.1705,-78.0937 -4.2129,-19.81485 -8.04185,-68.70756 31.01145,-118.61629 0,0 5.03279,-14.16307 22.45793,-26.66371 z"
         id="path4246" />
      <use
         id="use4226"
         xlink:href="#path3998"
         y="0"
         x="0"
         width="424.05441"
         height="484.28894"
         style="stroke-width:2.329;stroke-miterlimit:4;stroke-dasharray:none" />
      <use
         id="use4228"
         xlink:href="#g4004"
         y="0"
         x="0"
         width="424.05441"
         height="484.28894"
         style="stroke-width:2.329;stroke-miterlimit:4;stroke-dasharray:none" />
      <path
         id="use4230"
         style="color:#000000;display:inline;overflow:visible;visibility:visible;fill:none;stroke:#000000;stroke-width:1.66357;stroke-linecap:square;stroke-linejoin:miter;stroke-miterlimit:4;stroke-dasharray:none;stroke-dashoffset:0;stroke-opacity:1;marker:none;enable-background:accumulate"
         d="m 696.42856,163.65683 a 10.580358,10.580358 0 0 1 -10.58035,10.58036 10.580358,10.580358 0 0 1 -10.58036,-10.58036 10.580358,10.580358 0 0 1 10.58036,-10.58036 10.580358,10.580358 0 0 1 10.58035,10.58036 z" />
      <path
         id="use4232"
         style="color:#000000;display:inline;overflow:visible;visibility:visible;fill:none;stroke:#000000;stroke-width:1.66357;stroke-linecap:square;stroke-linejoin:miter;stroke-miterlimit:4;stroke-dasharray:none;stroke-dashoffset:0;stroke-opacity:1;marker:none;enable-background:accumulate"
         d="m 691.94933,163.65683 a 6.1011243,6.1011243 0 0 1 -6.10112,6.10112 6.1011243,6.1011243 0 0 1 -6.10113,-6.10112 6.1011243,6.1011243 0 0 1 6.10113,-6.10112 6.1011243,6.1011243 0 0 1 6.10112,6.10112 z" />
      <use
         id="use4234"
         xlink:href="#path4119"
         y="0"
         x="0"
         width="424.05441"
         height="484.28894"
         style="stroke-width:2.329;stroke-miterlimit:4;stroke-dasharray:none" />
    </g>
  </g>
</svg>
