<?xml version="1.0" encoding="utf-8"?>
<!-- Generator: Adobe Illustrator 26.2.1, SVG Export Plug-In . SVG Version: 6.00 Build 0)  -->
<svg version="1.1"
	 id="svg2" xmlns:cc="http://creativecommons.org/ns#" xmlns:dc="http://purl.org/dc/elements/1.1/" xmlns:inkscape="http://www.inkscape.org/namespaces/inkscape" xmlns:rdf="http://www.w3.org/1999/02/22-rdf-syntax-ns#" xmlns:sodipodi="http://sodipodi.sourceforge.net/DTD/sodipodi-0.dtd" xmlns:svg="http://www.w3.org/2000/svg"
	 xmlns="http://www.w3.org/2000/svg" xmlns:xlink="http://www.w3.org/1999/xlink" x="0px" y="0px" viewBox="0 0 750 375.4"
	 style="enable-background:new 0 0 750 375.4;" xml:space="preserve">
<style type="text/css">
	.st0{fill:#0060AA;}
	.st1{fill:#EAB00E;stroke:#000000;stroke-width:1.5;}
	.st2{fill:none;stroke:#000000;}
	.st3{fill:#C3C4C8;stroke:#000000;stroke-width:1.5;}
</style>
<rect y="0.4" class="st0" width="750" height="375"/>
<sodipodi:namedview  bordercolor="#666666" borderopacity="1.0" fit-margin-bottom="0" fit-margin-left="0" fit-margin-right="0" fit-margin-top="0" id="base" inkscape:current-layer="layer1" inkscape:cx="60.574088" inkscape:cy="276.58954" inkscape:document-units="px" inkscape:object-nodes="true" inkscape:pageopacity="0" inkscape:pageshadow="2" inkscape:showpageshadow="false" inkscape:snap-center="false" inkscape:snap-global="false" inkscape:window-height="1017" inkscape:window-maximized="1" inkscape:window-width="1920" inkscape:window-x="-8" inkscape:window-y="-8" inkscape:zoom="1" pagecolor="#f6f3f1" showborder="true" showgrid="false">
	</sodipodi:namedview>
<g id="g4971" transform="translate(9.6590531e-6,0)">
	<g id="g4944">
		
			<path id="path4936" inkscape:connector-curvature="0" sodipodi:nodetypes="czsssssssssssssssssssssssssssssssssssssscsscsssssc" class="st1" d="
			M84.1,90c0,0,5.6-6,3.8-8.8c-2.9-4.4-5.6,1.9-7.5,2.8c-2.5,1.2-3-1.9-1.1-4.7s7.1-6.9,7.1-9.9s0.6-4.7,1.7-7.5
			c1.1-2.8-2.8-5.4-6.2-1.9c-3,3.1-5.1,8.7-7.5,7.9c-2.4-0.8-1.5-4.1,1.9-7.7s8.1-9.7,7.5-12.9c-0.8-4.3,1.3-6.8-1.5-9
			s-5.8-1.7-9.6,2.4S64.4,55,61.4,52.8c-2.1-1.5-0.9-7.5,2.6-10.1s4.1-4.5,3.8-6.9s2.6-3.6,0.2-6.4s-7.9-0.5-9.9,2.2
			c-2.2,3-2.7,7.3-6,6.6S50.7,33,54,29.8c3.1-3,4.6-6.5,1.9-9.2c-2.7-2.7-0.2-4.1-2.4-8.1S42.7,9,40.6,12.3
			c-2.4,3.9-4.7,1.7-6.9,4.9s0.6,6.2,2.1,11.8s-4.1,6.7-6,2.6s-8.6-5.4-11.4-1.1c-2.8,4.2,0.5,5.9,1.7,9.2s2.6,5.8,9.2,7.5
			s4.1,7.5-2.4,5.2s-9.8-3-11.3,1.9s3.4,8.6,9.8,13.5s15.6,2.1,19.9,3.9s1.6,7.2-3.8,5.8c-4.9-1.3-9.9-2.6-12.2,0.9s2.1,6.6,4.5,7.5
			s5.2-0.3,8.9,2.5c4.2,3.2,12.6-3.1,18.5-2.7c6.4,0.4,7.9,4.3,5.1,4.5s-6.8-1.9-7.9,0.2c-1.6,2.9,2.5,7.4,7.5,7.3s6.8,1.9,6.8,1.9
			s1.6,3.6-1.8,7.2s-11.1,5.8-15.8,6.6s-5.4-1.5-5.2-3.8c0,0-1.9-0.1-3.9,2.4c-1.3,1.5-3.5,2-5.3,3.1s-0.5,4,2.3,2.9
			c2.5-1,7.3,0.2,14.1-0.4s13.1-4.3,18.2-10.1S79.1,95.7,84.1,90z"/>
		<path id="path4938" inkscape:connector-curvature="0" sodipodi:nodetypes="csccscsc" class="st2" d="M43.1,117.9
			c0.8-0.3,3.2-1.9,4.1-4.3c0.9-2.4,2.4-3.7,2.4-3.7 M74.9,92.6c0,0-2.8-13.3-11.2-21.4c-8.1-7.8-14.1-15.9-14.1-15.9
			s8.1,7.4,15.4,13.9s10.3,15.5,11.8,21.9"/>
		<path id="path4940" inkscape:connector-curvature="0" sodipodi:nodetypes="ccsscscccccccccccssccsscccsccccsccscc" d="M50.7,57.4
			l1.5-0.2c0,0-5.9-5.2-8.7-12c-1.3-3.3-1.1-8.2-0.6-12.3s1-7.4,1-7.4s-1.4,3.1-2,7.3c-0.6,4.1-0.8,9,0.6,12.6l0.1,0.2
			c0.3,0.7,0.6,1.2,0.9,1.8c-3.2-2.6-6.9-5.3-10.8-5.8c4.4,2.1,9.6,5.1,11.9,8.4C47,53.5,50.7,57.4,50.7,57.4L50.7,57.4z M66.6,71
			l1.1,0.3c0,0-1.9-8.1,1-13.6C64.6,63.2,66.6,71,66.6,71z M40.9,62.1c2.3,0.3,5.4,0.7,8.3,0.8c2.8,0.1,4.9,0.7,6.2,1.3
			s1.9,1.2,1.9,1.2l-0.2-1c0,0,0.2-0.4-1.3-1.1s-3.6-1.3-6.6-1.4c-2.9-0.1-5.9-0.4-8.2-0.8c-1.3-0.2-2.6-0.4-3.9-0.1
			C38.5,61.7,39.8,62,40.9,62.1z M74,79.1c-0.4,2.4-0.1,4-0.1,4l1.1,1c0,0-0.5-2.5,0-4.8c0.4-2.3,1.6-5.4,4.3-9.3
			C75.8,73.3,74.5,76.7,74,79.1L74,79.1z M70.7,82.3l0.1-1.2c-2.5-2.4-5-2.7-7.5-2.9C60.8,78,59,78.9,59,78.9S66.1,77.8,70.7,82.3
			L70.7,82.3z"/>
	</g>
	<path id="path4949" inkscape:connector-curvature="0" sodipodi:nodetypes="cssccsscc" class="st1" d="M51.9,112.9
		c0.3-0.1,4.1-3.8,8.4,0.1c4.2,4,7.7,5.4,10.9,3.3c3.2-2.1,3.4-5.8,3.4-5.8l2.4,3.7c0,0-2.3,6.4-8.9,6.2s-8.5-3.4-10.6-5
		c-1.1-0.8-2.9-1.5-4-1.9L51.9,112.9z"/>
	<g id="g4959">
		<path id="path4951" inkscape:connector-curvature="0" sodipodi:nodetypes="csscscscc" class="st3" d="M100.3,110.4
			c0,0,0.5,12.5-14.1,10.1s-17.8-15.6-14.8-24.8c2.8-8.7,13.3-9.5,16.4-6.3c0,0,2.4-1.1,9.9-3.3c7.6-2.2,10.9-1.1,13.4,1.6
			c0,0,3.2-1.9,4.4,0.3c1.2,2.1-1.7,4-1.7,4S115.1,102.6,100.3,110.4z"/>
		<path id="path4953" inkscape:connector-curvature="0" sodipodi:nodetypes="cssccccccccccccccccccccc" class="st2" d="M88.6,89.3
			c0,0-5,1.7-5.2,7.6c-0.2,6.2,3.3,10.2,8,12.9s9.5,0.1,9.5,0.1 M77.7,117.3c0,0-2.1-19,7.5-25.4 M85,103.8c0,0-3.8,5.2-0.9,16.3
			 M90.1,109.1c0,0-0.9,8.1,0.9,12 M96.2,111.2c0,0-0.2,4.1,0.6,7.3 M72.2,110.1c0,0,0-15.7,8.6-22 M75.7,89.9c0,0,3.7,2.5,8.9,2.8
			 M71.6,94.8c0,0,7.2,3.2,11.7,3.8 M70.6,101.5c0,0,11.5,2.4,15,3 M71.6,109.1c0.5,0,11,3.1,24.6,1.9 M76.7,116.1
			c0,0,7,1.6,22.5-0.7"/>
		<path id="path4955" inkscape:connector-curvature="0" sodipodi:nodetypes="cccccccc" d="M111.7,88.1l-0.5-0.8c0,0-1.3,1-1.6,2.4
			C110.5,89,111.7,88.1,111.7,88.1z M114.2,92l-0.4-1c-1.2,0.7-1.8,0.9-3.1,1.3C111.9,92.7,113.4,92.4,114.2,92z"/>
	</g>
</g>
<g id="use4982" transform="translate(96.109873,0)">
	<g id="g4971_00000120550216430287113250000007095280680806020745_" transform="translate(9.6590531e-6,0)">
		<g id="g4944_00000132786989013922932720000005356817426624020614_">
			
				<path id="path4936_00000100358158367512789180000007036046293945100451_" inkscape:connector-curvature="0" sodipodi:nodetypes="czsssssssssssssssssssssssssssssssssssssscsscsssssc" class="st1" d="
				M235.9,90c0,0,5.6-6,3.8-8.8c-2.9-4.4-5.6,1.9-7.5,2.8c-2.5,1.2-3-1.9-1.1-4.7s7.1-6.9,7.1-9.9s0.6-4.7,1.7-7.5
				c1.1-2.8-2.8-5.4-6.2-1.9c-3,3.1-5.1,8.7-7.5,7.9c-2.4-0.8-1.5-4.1,1.9-7.7s8.1-9.7,7.5-12.9c-0.8-4.3,1.3-6.8-1.5-9
				s-5.8-1.7-9.6,2.4s-8.3,14.3-11.2,12.2c-2.1-1.5-0.9-7.5,2.6-10.1s4.1-4.5,3.8-6.9s2.6-3.6,0.2-6.4S212,29,210,31.7
				c-2.2,3-2.7,7.3-6,6.6s-1.4-5.2,1.9-8.4c3.1-3,4.6-6.5,1.9-9.2c-2.7-2.7-0.2-4.1-2.4-8.1s-10.7-3.5-12.8-0.2
				c-2.4,3.9-4.7,1.7-6.9,4.9s0.6,6.2,2.1,11.8s-4.1,6.7-6,2.6s-8.6-5.4-11.4-1.1c-2.8,4.2,0.5,5.9,1.7,9.2s2.6,5.8,9.2,7.5
				s4.1,7.5-2.4,5.2s-9.8-3-11.2,1.9s3.4,8.6,9.8,13.5s15.6,2.1,19.9,3.9s1.6,7.2-3.8,5.8c-4.9-1.3-9.9-2.6-12.2,0.9
				s2.1,6.6,4.5,7.5s5.2-0.3,8.9,2.5c4.2,3.2,12.6-3.1,18.5-2.7c6.4,0.4,7.9,4.3,5.1,4.5s-6.8-1.9-7.9,0.2c-1.6,2.9,2.5,7.4,7.5,7.3
				s6.8,1.9,6.8,1.9s1.6,3.6-1.8,7.2s-11.1,5.8-15.8,6.6s-5.4-1.5-5.2-3.8c0,0-1.9-0.1-3.9,2.4c-1.3,1.5-3.5,2-5.3,3.1
				s-0.5,4,2.3,2.9c2.5-1,7.3,0.2,14.1-0.4s13.1-4.3,18.2-10.1S230.9,95.7,235.9,90z"/>
			
				<path id="path4938_00000106867900206948879500000011529505695052168600_" inkscape:connector-curvature="0" sodipodi:nodetypes="csccscsc" class="st2" d="
				M194.9,117.9c0.8-0.3,3.2-1.9,4.1-4.3c0.9-2.4,2.4-3.7,2.4-3.7 M226.6,92.6c0,0-2.8-13.3-11.2-21.4c-8.1-7.8-14.1-15.9-14.1-15.9
				s8.1,7.4,15.4,13.9c7.3,6.5,10.3,15.5,11.8,21.9"/>
			
				<path id="path4940_00000103945168728257660130000000172465650106518969_" inkscape:connector-curvature="0" sodipodi:nodetypes="ccsscscccccccccccssccsscccsccccsccscc" d="
				M202.4,57.4l1.5-0.2c0,0-5.9-5.2-8.7-12c-1.3-3.3-1.1-8.2-0.6-12.3s1-7.4,1-7.4s-1.4,3.1-2,7.3c-0.6,4.1-0.8,9,0.6,12.6l0.1,0.2
				c0.3,0.7,0.6,1.2,0.9,1.8c-3.2-2.6-6.9-5.3-10.8-5.8c4.4,2.1,9.6,5.1,11.9,8.4C198.8,53.5,202.4,57.4,202.4,57.4L202.4,57.4z
				 M218.3,71l1.1,0.3c0,0-1.9-8.1,1-13.6C216.4,63.2,218.3,71,218.3,71z M192.7,62.1c2.3,0.3,5.4,0.7,8.3,0.8
				c2.8,0.1,4.9,0.7,6.2,1.3s1.9,1.2,1.9,1.2l-0.2-1c0,0,0.2-0.4-1.3-1.1S204,62,201,61.9c-2.9-0.1-5.9-0.4-8.2-0.8
				c-1.3-0.2-2.6-0.4-3.9-0.1C190.2,61.7,191.6,62,192.7,62.1z M225.8,79.1c-0.4,2.4-0.1,4-0.1,4l1.1,1c0,0-0.5-2.5,0-4.8
				c0.4-2.3,1.6-5.4,4.3-9.3C227.5,73.3,226.2,76.7,225.8,79.1L225.8,79.1z M222.4,82.3l0.1-1.2c-2.5-2.4-5-2.7-7.5-2.9
				c-2.5-0.2-4.3,0.7-4.3,0.7S217.9,77.8,222.4,82.3L222.4,82.3z"/>
		</g>
		
			<path id="path4949_00000006696127097335946360000013454227988066656390_" inkscape:connector-curvature="0" sodipodi:nodetypes="cssccsscc" class="st1" d="
			M203.7,112.9c0.3-0.1,4.1-3.8,8.4,0.1c4.2,4,7.7,5.4,10.9,3.3s3.4-5.8,3.4-5.8l2.4,3.7c0,0-2.3,6.4-8.9,6.2s-8.5-3.4-10.6-5
			c-1.1-0.8-2.9-1.5-4-1.9L203.7,112.9z"/>
		<g id="g4959_00000016075330684469942360000009360160830707188878_">
			
				<path id="path4951_00000127733094013365123040000015682981657580398227_" inkscape:connector-curvature="0" sodipodi:nodetypes="csscscscc" class="st3" d="
				M252,110.4c0,0,0.5,12.5-14.1,10.1s-17.8-15.6-14.8-24.8c2.8-8.7,13.3-9.5,16.4-6.3c0,0,2.4-1.1,9.9-3.3
				c7.6-2.2,10.9-1.1,13.4,1.6c0,0,3.2-1.9,4.4,0.3c1.2,2.1-1.7,4-1.7,4S266.8,102.6,252,110.4z"/>
			
				<path id="path4953_00000183930372369272514320000012765095357308849333_" inkscape:connector-curvature="0" sodipodi:nodetypes="cssccccccccccccccccccccc" class="st2" d="
				M240.3,89.3c0,0-5,1.7-5.2,7.6c-0.2,6.2,3.3,10.2,8,12.9s9.5,0.1,9.5,0.1 M229.5,117.3c0,0-2.1-19,7.5-25.4 M236.8,103.8
				c0,0-3.8,5.2-0.9,16.3 M241.8,109.1c0,0-0.9,8.1,0.9,12 M248,111.2c0,0-0.2,4.1,0.6,7.3 M224,110.1c0,0,0-15.7,8.6-22
				 M227.5,89.9c0,0,3.7,2.5,8.9,2.8 M223.4,94.8c0,0,7.2,3.2,11.7,3.8 M222.3,101.5c0,0,11.5,2.4,15,3 M223.4,109.1
				c0.5,0,11,3.1,24.6,1.9 M228.4,116.1c0,0,7,1.6,22.5-0.7"/>
			
				<path id="path4955_00000021102124329994043450000011295172775329126540_" inkscape:connector-curvature="0" sodipodi:nodetypes="cccccccc" d="
				M263.4,88.1l-0.5-0.8c0,0-1.3,1-1.6,2.4C262.2,89,263.4,88.1,263.4,88.1z M266,92l-0.4-1c-1.2,0.7-1.8,0.9-3.1,1.3
				C263.7,92.7,265.1,92.4,266,92z"/>
		</g>
	</g>
</g>
<g id="use4984" transform="translate(192.21974,0)">
	<g id="g4971_00000016058138180015615290000002837261059573928629_" transform="translate(9.6590531e-6,0)">
		<g id="g4944_00000045619729712795211090000003970044717423744416_">
			
				<path id="path4936_00000024720821760683777260000011925755554555295641_" inkscape:connector-curvature="0" sodipodi:nodetypes="czsssssssssssssssssssssssssssssssssssssscsscsssssc" class="st1" d="
				M387.5,90c0,0,5.6-6,3.8-8.8c-2.9-4.4-5.6,1.9-7.5,2.8c-2.5,1.2-3-1.9-1.1-4.7s7.1-6.9,7.1-9.9s0.6-4.7,1.7-7.5
				c1.1-2.8-2.8-5.4-6.2-1.9c-3,3.1-5.1,8.7-7.5,7.9c-2.4-0.8-1.5-4.1,1.9-7.7s8.1-9.7,7.5-12.9c-0.8-4.3,1.3-6.8-1.5-9
				s-5.8-1.7-9.6,2.4s-8.3,14.3-11.2,12.2c-2.1-1.5-0.9-7.5,2.6-10.1s4.1-4.5,3.8-6.9s2.6-3.6,0.2-6.4s-7.9-0.5-9.9,2.2
				c-2.2,3-2.7,7.3-6,6.6s-1.4-5.2,1.9-8.4c3.1-3,4.6-6.5,1.9-9.2s-0.2-4.1-2.4-8.1s-10.7-3.5-12.8-0.2c-2.4,3.9-4.7,1.7-6.9,4.9
				s0.6,6.2,2.1,11.8s-4.1,6.7-6,2.6s-8.6-5.4-11.4-1.1c-2.8,4.2,0.5,5.9,1.7,9.2s2.6,5.8,9.2,7.5s4.1,7.5-2.4,5.2s-9.8-3-11.2,1.9
				s3.4,8.6,9.8,13.5s15.6,2.1,19.9,3.9s1.6,7.2-3.8,5.8c-4.9-1.3-9.9-2.6-12.2,0.9s2.1,6.6,4.5,7.5s5.2-0.3,8.9,2.5
				c4.2,3.2,12.6-3.1,18.5-2.7c6.4,0.4,7.9,4.3,5.1,4.5s-6.8-1.9-7.9,0.2c-1.6,2.9,2.5,7.4,7.5,7.3s6.8,1.9,6.8,1.9s1.6,3.6-1.8,7.2
				s-11.1,5.8-15.8,6.6s-5.4-1.5-5.2-3.8c0,0-1.9-0.1-3.9,2.4c-1.3,1.5-3.5,2-5.3,3.1s-0.5,4,2.3,2.9c2.5-1,7.3,0.2,14.1-0.4
				s13.1-4.3,18.2-10.1S382.5,95.7,387.5,90z"/>
			
				<path id="path4938_00000039842564275132545060000010522628926175578275_" inkscape:connector-curvature="0" sodipodi:nodetypes="csccscsc" class="st2" d="
				M346.5,117.9c0.8-0.3,3.2-1.9,4.1-4.3s2.4-3.7,2.4-3.7 M378.2,92.6c0,0-2.8-13.3-11.2-21.4c-8.1-7.8-14.1-15.9-14.1-15.9
				s8.1,7.4,15.4,13.9s10.3,15.5,11.8,21.9"/>
			
				<path id="path4940_00000168088671412887687030000010823417431818427823_" inkscape:connector-curvature="0" sodipodi:nodetypes="ccsscscccccccccccssccsscccsccccsccscc" d="
				M354,57.4l1.5-0.2c0,0-5.9-5.2-8.7-12c-1.3-3.3-1.1-8.2-0.6-12.3s1-7.4,1-7.4s-1.4,3.1-2,7.3c-0.6,4.1-0.8,9,0.6,12.6l0.1,0.2
				c0.3,0.7,0.6,1.2,0.9,1.8c-3.2-2.6-6.9-5.3-10.8-5.8c4.4,2.1,9.6,5.1,11.9,8.4C350.4,53.5,354,57.4,354,57.4L354,57.4z M369.9,71
				l1.1,0.3c0,0-1.9-8.1,1-13.6C368,63.2,369.9,71,369.9,71z M344.3,62.1c2.3,0.3,5.4,0.7,8.3,0.8c2.8,0.1,4.9,0.7,6.2,1.3
				c1.3,0.6,1.9,1.2,1.9,1.2l-0.2-1c0,0,0.2-0.4-1.3-1.1s-3.6-1.3-6.6-1.4c-2.9-0.1-5.9-0.4-8.2-0.8c-1.3-0.2-2.6-0.4-3.9-0.1
				C341.8,61.7,343.2,62,344.3,62.1z M377.4,79.1c-0.4,2.4-0.1,4-0.1,4l1.1,1c0,0-0.5-2.5,0-4.8c0.4-2.3,1.6-5.4,4.3-9.3
				C379.1,73.3,377.8,76.7,377.4,79.1L377.4,79.1z M374,82.3l0.1-1.2c-2.5-2.4-5-2.7-7.5-2.9c-2.5-0.2-4.3,0.7-4.3,0.7
				S369.4,77.8,374,82.3L374,82.3z"/>
		</g>
		
			<path id="path4949_00000018937059425038437870000015383191450396696493_" inkscape:connector-curvature="0" sodipodi:nodetypes="cssccsscc" class="st1" d="
			M355.3,112.9c0.3-0.1,4.1-3.8,8.4,0.1c4.2,4,7.7,5.4,10.9,3.3c3.2-2.1,3.4-5.8,3.4-5.8l2.4,3.7c0,0-2.3,6.4-8.9,6.2
			s-8.5-3.4-10.6-5c-1.1-0.8-2.9-1.5-4-1.9L355.3,112.9z"/>
		<g id="g4959_00000170275854126603368680000017296393561937549983_">
			
				<path id="path4951_00000117652702236415882520000010491584998128196277_" inkscape:connector-curvature="0" sodipodi:nodetypes="csscscscc" class="st3" d="
				M403.6,110.4c0,0,0.5,12.5-14.1,10.1s-17.8-15.6-14.8-24.8c2.8-8.7,13.3-9.5,16.4-6.3c0,0,2.4-1.1,9.9-3.3
				c7.6-2.2,10.9-1.1,13.4,1.6c0,0,3.2-1.9,4.4,0.3c1.2,2.1-1.7,4-1.7,4S418.4,102.6,403.6,110.4z"/>
			
				<path id="path4953_00000170260718430556550270000016539531362196323716_" inkscape:connector-curvature="0" sodipodi:nodetypes="cssccccccccccccccccccccc" class="st2" d="
				M391.9,89.3c0,0-5,1.7-5.2,7.6c-0.2,6.2,3.3,10.2,8,12.9s9.5,0.1,9.5,0.1 M381,117.3c0,0-2.1-19,7.5-25.4 M388.3,103.8
				c0,0-3.8,5.2-0.9,16.3 M393.4,109.1c0,0-0.9,8.1,0.9,12 M399.6,111.2c0,0-0.2,4.1,0.6,7.3 M375.6,110.1c0,0,0-15.7,8.6-22
				 M379.1,89.9c0,0,3.7,2.5,8.9,2.8 M375,94.8c0,0,7.2,3.2,11.7,3.8 M373.9,101.5c0,0,11.5,2.4,15,3 M375,109.1
				c0.5,0,11,3.1,24.6,1.9 M380,116.1c0,0,7,1.6,22.5-0.7"/>
			
				<path id="path4955_00000128443758379878028240000014347214296890038410_" inkscape:connector-curvature="0" sodipodi:nodetypes="cccccccc" d="
				M415,88.1l-0.5-0.8c0,0-1.3,1-1.6,2.4C413.8,89,415,88.1,415,88.1z M417.6,92l-0.4-1c-1.2,0.7-1.8,0.9-3.1,1.3
				C415.2,92.7,416.7,92.4,417.6,92z"/>
		</g>
	</g>
</g>
<g id="use4986" transform="translate(288.3296,0)">
	<g id="g4971_00000085247348615332116030000016945789856257072031_" transform="translate(9.6590531e-6,0)">
		<g id="g4944_00000084506407040828818350000016106066870539086270_">
			
				<path id="path4936_00000068638894989159739290000008281638272046086832_" inkscape:connector-curvature="0" sodipodi:nodetypes="czsssssssssssssssssssssssssssssssssssssscsscsssssc" class="st1" d="
				M415.3,90c0,0,5.6-6,3.8-8.8c-2.9-4.4-5.6,1.9-7.5,2.8c-2.5,1.2-3-1.9-1.1-4.7s7.1-6.9,7.1-9.9s0.6-4.7,1.7-7.5
				c1.1-2.8-2.8-5.4-6.2-1.9c-3,3.1-5.1,8.7-7.5,7.9c-2.4-0.8-1.5-4.1,1.9-7.7s8.1-9.7,7.5-12.9c-0.8-4.3,1.3-6.8-1.5-9
				s-5.8-1.7-9.6,2.4s-8.3,14.3-11.2,12.2c-2.1-1.5-0.9-7.5,2.6-10.1s4.1-4.5,3.8-6.9s2.6-3.6,0.2-6.4s-7.9-0.5-9.9,2.2
				c-2.2,3-2.7,7.3-6,6.6s-1.4-5.2,1.9-8.4c3.1-3,4.6-6.5,1.9-9.2s-0.2-4.1-2.4-8.1s-10.7-3.5-12.8-0.2c-2.4,3.9-4.7,1.7-6.9,4.9
				s0.6,6.2,2.1,11.8s-4.1,6.7-6,2.6s-8.6-5.4-11.4-1.1c-2.8,4.2,0.5,5.9,1.7,9.2s2.6,5.8,9.2,7.5s4.1,7.5-2.4,5.2s-9.8-3-11.2,1.9
				s3.4,8.6,9.8,13.5s15.6,2.1,19.9,3.9s1.6,7.2-3.8,5.8c-4.9-1.3-9.9-2.6-12.2,0.9s2.1,6.6,4.5,7.5s5.2-0.3,8.9,2.5
				c4.2,3.2,12.6-3.1,18.5-2.7c6.4,0.4,7.9,4.3,5.1,4.5s-6.8-1.9-7.9,0.2c-1.6,2.9,2.5,7.4,7.5,7.3s6.8,1.9,6.8,1.9s1.6,3.6-1.8,7.2
				s-11.1,5.8-15.8,6.6s-5.4-1.5-5.2-3.8c0,0-1.9-0.1-3.9,2.4c-1.3,1.5-3.5,2-5.3,3.1s-0.5,4,2.3,2.9c2.5-1,7.3,0.2,14.1-0.4
				s13.1-4.3,18.2-10.1S410.3,95.7,415.3,90z"/>
			
				<path id="path4938_00000150083876194756942000000015545025368567936656_" inkscape:connector-curvature="0" sodipodi:nodetypes="csccscsc" class="st2" d="
				M374.3,117.9c0.8-0.3,3.2-1.9,4.1-4.3s2.4-3.7,2.4-3.7 M406.1,92.6c0,0-2.8-13.3-11.2-21.4c-8.1-7.8-14.1-15.9-14.1-15.9
				s8.1,7.4,15.4,13.9s10.3,15.5,11.8,21.9"/>
			
				<path id="path4940_00000049183973883486930850000015298545685627470743_" inkscape:connector-curvature="0" sodipodi:nodetypes="ccsscscccccccccccssccsscccsccccsccscc" d="
				M381.9,57.4l1.5-0.2c0,0-5.9-5.2-8.7-12c-1.3-3.3-1.1-8.2-0.6-12.3s1-7.4,1-7.4s-1.4,3.1-2,7.3c-0.6,4.1-0.8,9,0.6,12.6l0.1,0.2
				c0.3,0.7,0.6,1.2,0.9,1.8c-3.2-2.6-6.9-5.3-10.8-5.8c4.4,2.1,9.6,5.1,11.9,8.4C378.2,53.5,381.9,57.4,381.9,57.4L381.9,57.4z
				 M397.8,71l1.1,0.3c0,0-1.9-8.1,1-13.6C395.8,63.2,397.8,71,397.8,71z M372.1,62.1c2.3,0.3,5.4,0.7,8.3,0.8
				c2.8,0.1,4.9,0.7,6.2,1.3c1.3,0.6,1.9,1.2,1.9,1.2l-0.2-1c0,0,0.2-0.4-1.3-1.1s-3.6-1.3-6.6-1.4c-2.9-0.1-5.9-0.4-8.2-0.8
				c-1.3-0.2-2.6-0.4-3.9-0.1C369.7,61.7,371.1,62,372.1,62.1z M405.2,79.1c-0.4,2.4-0.1,4-0.1,4l1.1,1c0,0-0.5-2.5,0-4.8
				c0.4-2.3,1.6-5.4,4.3-9.3C407,73.3,405.7,76.7,405.2,79.1L405.2,79.1z M401.9,82.3l0.1-1.2c-2.5-2.4-5-2.7-7.5-2.9
				c-2.5-0.2-4.3,0.7-4.3,0.7S397.3,77.8,401.9,82.3L401.9,82.3z"/>
		</g>
		
			<path id="path4949_00000183224661319935322470000008114702801119903669_" inkscape:connector-curvature="0" sodipodi:nodetypes="cssccsscc" class="st1" d="
			M383.1,112.9c0.3-0.1,4.1-3.8,8.4,0.1c4.2,4,7.7,5.4,10.9,3.3c3.2-2.1,3.4-5.8,3.4-5.8l2.4,3.7c0,0-2.3,6.4-8.9,6.2
			s-8.5-3.4-10.6-5c-1.1-0.8-2.9-1.5-4-1.9L383.1,112.9z"/>
		<g id="g4959_00000171680988203773799160000006367829035504750761_">
			
				<path id="path4951_00000070110408519744260810000017982507858058821014_" inkscape:connector-curvature="0" sodipodi:nodetypes="csscscscc" class="st3" d="
				M431.5,110.4c0,0,0.5,12.5-14.1,10.1s-17.8-15.6-14.8-24.8c2.8-8.7,13.3-9.5,16.4-6.3c0,0,2.4-1.1,9.9-3.3
				c7.6-2.2,10.9-1.1,13.4,1.6c0,0,3.2-1.9,4.4,0.3c1.2,2.1-1.7,4-1.7,4S446.3,102.6,431.5,110.4z"/>
			
				<path id="path4953_00000083046856616889603670000007244371612072472467_" inkscape:connector-curvature="0" sodipodi:nodetypes="cssccccccccccccccccccccc" class="st2" d="
				M419.8,89.3c0,0-5,1.7-5.2,7.6c-0.2,6.2,3.3,10.2,8,12.9s9.5,0.1,9.5,0.1 M408.9,117.3c0,0-2.1-19,7.5-25.4 M416.2,103.8
				c0,0-3.8,5.2-0.9,16.3 M421.3,109.1c0,0-0.9,8.1,0.9,12 M427.5,111.2c0,0-0.2,4.1,0.6,7.3 M403.5,110.1c0,0,0-15.7,8.6-22
				 M407,89.9c0,0,3.7,2.5,8.9,2.8 M402.8,94.8c0,0,7.2,3.2,11.7,3.8 M401.8,101.5c0,0,11.5,2.4,15,3 M402.8,109.1
				c0.5,0,11,3.1,24.6,1.9 M407.9,116.1c0,0,7,1.6,22.5-0.7"/>
			
				<path id="path4955_00000080196424751003953310000005958851042297787786_" inkscape:connector-curvature="0" sodipodi:nodetypes="cccccccc" d="
				M442.9,88.1l-0.5-0.8c0,0-1.3,1-1.6,2.4C441.7,89,442.9,88.1,442.9,88.1z M445.4,92l-0.4-1c-1.2,0.7-1.8,0.9-3.1,1.3
				C443.1,92.7,444.6,92.4,445.4,92z"/>
		</g>
	</g>
</g>
<g id="use4984_00000069396126504826768820000001932762248769471115_" transform="translate(192.21974,0)">
	<g id="g4971_00000044153512971782172880000001767493265064181633_" transform="translate(9.6590531e-6,0)">
		<g id="g4944_00000008859825842387691960000016529635624535022753_">
			
				<path id="path4936_00000165922758556882149300000001296380762620238494_" inkscape:connector-curvature="0" sodipodi:nodetypes="czsssssssssssssssssssssssssssssssssssssscsscsssssc" class="st1" d="
				M15.8,90c0,0,5.6-6,3.8-8.8c-2.9-4.4-5.6,1.9-7.5,2.8c-2.5,1.2-3-1.9-1.1-4.7s7.1-6.9,7.1-9.9s0.6-4.7,1.7-7.5
				c1.1-2.8-2.8-5.4-6.2-1.9c-3,3.1-5.1,8.7-7.5,7.9c-2.4-0.8-1.5-4.1,1.9-7.7s8.1-9.7,7.5-12.9c-0.8-4.3,1.3-6.8-1.5-9
				s-5.8-1.7-9.6,2.4S-3.9,55-6.8,52.9c-2.1-1.5-0.9-7.5,2.6-10.1s4.1-4.5,3.8-6.9s2.6-3.6,0.2-6.4s-7.9-0.5-9.9,2.2
				c-2.2,3-2.7,7.3-6,6.6s-1.4-5.2,1.9-8.4c3.1-3,4.6-6.5,1.9-9.2c-2.7-2.7-0.2-4.1-2.4-8.1s-10.7-3.5-12.8-0.2
				c-2.4,3.9-4.7,1.7-6.9,4.9s0.6,6.2,2.1,11.8c1.5,5.6-4.1,6.7-6,2.6s-8.6-5.4-11.4-1.1c-2.8,4.2,0.5,5.9,1.7,9.2
				c1.2,3.3,2.6,5.8,9.2,7.5s4.1,7.5-2.4,5.2s-9.8-3-11.2,1.9s3.4,8.6,9.8,13.5c6.4,4.9,15.6,2.1,19.9,3.9s1.6,7.2-3.8,5.8
				c-4.9-1.3-9.9-2.6-12.2,0.9s2.1,6.6,4.5,7.5s5.2-0.3,8.9,2.5c4.2,3.2,12.6-3.1,18.5-2.7c6.4,0.4,7.9,4.3,5.1,4.5
				s-6.8-1.9-7.9,0.2c-1.6,2.9,2.5,7.4,7.5,7.3s6.8,1.9,6.8,1.9s1.6,3.6-1.8,7.2s-11.1,5.8-15.8,6.6s-5.4-1.5-5.2-3.8
				c0,0-1.9-0.1-3.9,2.4c-1.3,1.5-3.5,2-5.3,3.1s-0.5,4,2.3,2.9c2.5-1,7.3,0.2,14.1-0.4s13.1-4.3,18.2-10.1S10.8,95.7,15.8,90z"/>
			
				<path id="path4938_00000041273061030532338150000011836575557792011184_" inkscape:connector-curvature="0" sodipodi:nodetypes="csccscsc" class="st2" d="
				M-25.2,117.9c0.8-0.3,3.2-1.9,4.1-4.3c0.9-2.4,2.4-3.7,2.4-3.7 M6.6,92.6c0,0-2.8-13.3-11.2-21.4c-8.1-7.8-14.1-15.9-14.1-15.9
				s8.1,7.4,15.4,13.9C4,75.7,7,84.7,8.5,91.1"/>
			
				<path id="path4940_00000154397742464447564520000015894829948450633909_" inkscape:connector-curvature="0" sodipodi:nodetypes="ccsscscccccccccccssccsscccsccccsccscc" d="
				M-17.7,57.4l1.5-0.2c0,0-5.9-5.2-8.7-12c-1.3-3.3-1.1-8.2-0.6-12.3s1-7.4,1-7.4s-1.4,3.1-2,7.3c-0.6,4.1-0.8,9,0.6,12.6l0.1,0.2
				c0.3,0.7,0.6,1.2,0.9,1.8c-3.2-2.6-6.9-5.3-10.8-5.8c4.4,2.1,9.6,5.1,11.9,8.4C-21.3,53.5-17.7,57.4-17.7,57.4L-17.7,57.4z
				 M-1.8,71l1.1,0.3c0,0-1.9-8.1,1-13.6C-3.7,63.2-1.8,71-1.8,71z M-27.4,62.1c2.3,0.3,5.4,0.7,8.3,0.8c2.8,0.1,4.9,0.7,6.2,1.3
				s1.9,1.2,1.9,1.2l-0.2-1c0,0,0.2-0.4-1.3-1.1s-3.6-1.3-6.6-1.4c-2.9-0.1-5.9-0.4-8.2-0.8c-1.3-0.2-2.6-0.4-3.9-0.1
				C-29.9,61.7-28.5,62-27.4,62.1z M5.7,79.1c-0.4,2.4-0.1,4-0.1,4l1.1,1c0,0-0.5-2.5,0-4.8C7.1,77,8.3,73.9,11,70
				C7.4,73.3,6.2,76.7,5.7,79.1L5.7,79.1z M2.3,82.3l0.1-1.2c-2.5-2.4-5-2.7-7.5-2.9c-2.5-0.2-4.3,0.7-4.3,0.7S-2.2,77.8,2.3,82.3
				L2.3,82.3z"/>
		</g>
		
			<path id="path4949_00000164474043760143046370000012393976612303392921_" inkscape:connector-curvature="0" sodipodi:nodetypes="cssccsscc" class="st1" d="
			M-16.4,112.9c0.3-0.1,4.1-3.8,8.4,0.1c4.2,4,7.7,5.4,10.9,3.3s3.4-5.8,3.4-5.8l2.4,3.7c0,0-2.3,6.4-8.9,6.2s-8.5-3.4-10.6-5
			c-1.1-0.8-2.9-1.5-4-1.9L-16.4,112.9z"/>
		<g id="g4959_00000088108232985023831640000005636199271490501539_">
			
				<path id="path4951_00000094579804758063425950000008270479511091622026_" inkscape:connector-curvature="0" sodipodi:nodetypes="csscscscc" class="st3" d="
				M32,110.4c0,0,0.5,12.5-14.1,10.1S0.1,104.9,3.1,95.7c2.8-8.7,13.3-9.5,16.4-6.3c0,0,2.4-1.1,9.9-3.3c7.6-2.2,10.9-1.1,13.4,1.6
				c0,0,3.2-1.9,4.4,0.3c1.2,2.1-1.7,4-1.7,4S46.8,102.6,32,110.4z"/>
			
				<path id="path4953_00000100383790560821989100000005632201818592421290_" inkscape:connector-curvature="0" sodipodi:nodetypes="cssccccccccccccccccccccc" class="st2" d="
				M20.2,89.3c0,0-5,1.7-5.2,7.6c-0.2,6.2,3.3,10.2,8,12.9s9.5,0.1,9.5,0.1 M9.4,117.3c0,0-2.1-19,7.5-25.4 M16.7,103.8
				c0,0-3.8,5.2-0.9,16.3 M21.7,109.1c0,0-0.9,8.1,0.9,12 M27.9,111.2c0,0-0.2,4.1,0.6,7.3 M3.9,110.1c0,0,0-15.7,8.6-22 M7.4,89.9
				c0,0,3.7,2.5,8.9,2.8 M3.3,94.8c0,0,7.2,3.2,11.7,3.8 M2.3,101.5c0,0,11.5,2.4,15,3 M3.3,109.1c0.5,0,11,3.1,24.6,1.9 M8.4,116.1
				c0,0,7,1.6,22.5-0.7"/>
			
				<path id="path4955_00000144320198977348462320000008452724740255307188_" inkscape:connector-curvature="0" sodipodi:nodetypes="cccccccc" d="
				M43.3,88.1l-0.5-0.8c0,0-1.3,1-1.6,2.4C42.1,89,43.3,88.1,43.3,88.1z M45.9,92l-0.4-1c-1.2,0.7-1.8,0.9-3.1,1.3
				C43.6,92.7,45,92.4,45.9,92z"/>
		</g>
	</g>
</g>
<g id="use4986_00000055699950908641916750000016124877090330287745_" transform="translate(288.3296,0)">
	<g id="g4971_00000183944119286134812920000011484199042458869669_" transform="translate(9.6590531e-6,0)">
		<g id="g4944_00000066494073124775187240000006469427131211170237_">
			
				<path id="path4936_00000035520271577062397630000013158999882807442105_" inkscape:connector-curvature="0" sodipodi:nodetypes="czsssssssssssssssssssssssssssssssssssssscsscsssssc" class="st1" d="
				M167.6,90c0,0,5.6-6,3.8-8.8c-2.9-4.4-5.6,1.9-7.5,2.8c-2.5,1.2-3-1.9-1.1-4.7s7.1-6.9,7.1-9.9s0.6-4.7,1.7-7.5
				c1.1-2.8-2.8-5.4-6.2-1.9c-3,3.1-5.1,8.7-7.5,7.9c-2.4-0.8-1.5-4.1,1.9-7.7s8.1-9.7,7.5-12.9c-0.8-4.3,1.3-6.8-1.5-9
				s-5.8-1.7-9.6,2.4S147.9,55,145,52.9c-2.1-1.5-0.9-7.5,2.6-10.1s4.1-4.5,3.8-6.9s2.6-3.6,0.2-6.4s-7.9-0.5-9.9,2.2
				c-2.2,3-2.7,7.3-6,6.6s-1.4-5.2,1.9-8.4c3.1-3,4.6-6.5,1.9-9.2c-2.7-2.7-0.2-4.1-2.4-8.1s-10.7-3.5-12.8-0.2
				c-2.4,3.9-4.7,1.7-6.9,4.9s0.6,6.2,2.1,11.8s-4.1,6.7-6,2.6s-8.6-5.4-11.4-1.1c-2.8,4.2,0.5,5.9,1.7,9.2s2.6,5.8,9.2,7.5
				s4.1,7.5-2.4,5.2s-9.8-3-11.2,1.9s3.4,8.6,9.8,13.5s15.6,2.1,19.9,3.9s1.6,7.2-3.8,5.8c-4.9-1.3-9.9-2.6-12.2,0.9
				s2.1,6.6,4.5,7.5s5.2-0.3,8.9,2.5c4.2,3.2,12.6-3.1,18.5-2.7c6.4,0.4,7.9,4.3,5.1,4.5s-6.8-1.9-7.9,0.2c-1.6,2.9,2.5,7.4,7.5,7.3
				s6.8,1.9,6.8,1.9s1.6,3.6-1.8,7.2s-11.1,5.8-15.8,6.6s-5.4-1.5-5.2-3.8c0,0-1.9-0.1-3.9,2.4c-1.3,1.5-3.5,2-5.3,3.1
				s-0.5,4,2.3,2.9c2.5-1,7.3,0.2,14.1-0.4s13.1-4.3,18.2-10.1S162.6,95.7,167.6,90z"/>
			
				<path id="path4938_00000061440631376622029850000014383790652238658990_" inkscape:connector-curvature="0" sodipodi:nodetypes="csccscsc" class="st2" d="
				M126.6,117.9c0.8-0.3,3.2-1.9,4.1-4.3c0.9-2.4,2.4-3.7,2.4-3.7 M158.3,92.6c0,0-2.8-13.3-11.2-21.4C139,63.4,133,55.3,133,55.3
				s8.1,7.4,15.4,13.9c7.3,6.5,10.3,15.5,11.8,21.9"/>
			
				<path id="path4940_00000104706960409186422220000008954244773694729878_" inkscape:connector-curvature="0" sodipodi:nodetypes="ccsscscccccccccccssccsscccsccccsccscc" d="
				M134.1,57.4l1.5-0.2c0,0-5.9-5.2-8.7-12c-1.3-3.3-1.1-8.2-0.6-12.3s1-7.4,1-7.4s-1.4,3.1-2,7.3c-0.6,4.1-0.8,9,0.6,12.6l0.1,0.2
				c0.3,0.7,0.6,1.2,0.9,1.8c-3.2-2.6-6.9-5.3-10.8-5.8c4.4,2.1,9.6,5.1,11.9,8.4C130.5,53.5,134.1,57.4,134.1,57.4L134.1,57.4z
				 M150,71l1.1,0.3c0,0-1.9-8.1,1-13.6C148.1,63.2,150,71,150,71z M124.4,62.1c2.3,0.3,5.4,0.7,8.3,0.8c2.8,0.1,4.9,0.7,6.2,1.3
				s1.9,1.2,1.9,1.2l-0.2-1c0,0,0.2-0.4-1.3-1.1s-3.6-1.3-6.6-1.4c-2.9-0.1-5.9-0.4-8.2-0.8c-1.3-0.2-2.6-0.4-3.9-0.1
				C121.9,61.7,123.3,62,124.4,62.1z M157.5,79.1c-0.4,2.4-0.1,4-0.1,4l1.1,1c0,0-0.5-2.5,0-4.8c0.4-2.3,1.6-5.4,4.3-9.3
				C159.2,73.3,157.9,76.7,157.5,79.1L157.5,79.1z M154.1,82.3l0.1-1.2c-2.5-2.4-5-2.7-7.5-2.9c-2.5-0.2-4.3,0.7-4.3,0.7
				S149.6,77.8,154.1,82.3L154.1,82.3z"/>
		</g>
		
			<path id="path4949_00000073695330381317177730000014527861238920994494_" inkscape:connector-curvature="0" sodipodi:nodetypes="cssccsscc" class="st1" d="
			M135.4,112.9c0.3-0.1,4.1-3.8,8.4,0.1c4.2,4,7.7,5.4,10.9,3.3s3.4-5.8,3.4-5.8l2.4,3.7c0,0-2.3,6.4-8.9,6.2s-8.5-3.4-10.6-5
			c-1.1-0.8-2.9-1.5-4-1.9L135.4,112.9z"/>
		<g id="g4959_00000093866622654395725890000009168847404853123469_">
			
				<path id="path4951_00000079470031618951012250000014987261035171176118_" inkscape:connector-curvature="0" sodipodi:nodetypes="csscscscc" class="st3" d="
				M183.7,110.4c0,0,0.5,12.5-14.1,10.1s-17.8-15.6-14.8-24.8c2.8-8.7,13.3-9.5,16.4-6.3c0,0,2.4-1.1,9.9-3.3
				c7.6-2.2,10.9-1.1,13.4,1.6c0,0,3.2-1.9,4.4,0.3c1.2,2.1-1.7,4-1.7,4S198.5,102.6,183.7,110.4z"/>
			
				<path id="path4953_00000096774392937421981290000013349530897568103312_" inkscape:connector-curvature="0" sodipodi:nodetypes="cssccccccccccccccccccccc" class="st2" d="
				M172,89.3c0,0-5,1.7-5.2,7.6c-0.2,6.2,3.3,10.2,8,12.9s9.5,0.1,9.5,0.1 M161.1,117.3c0,0-2.1-19,7.5-25.4 M168.4,103.8
				c0,0-3.8,5.2-0.9,16.3 M173.5,109.1c0,0-0.9,8.1,0.9,12 M179.7,111.2c0,0-0.2,4.1,0.6,7.3 M155.7,110.1c0,0,0-15.7,8.6-22
				 M159.2,89.9c0,0,3.7,2.5,8.9,2.8 M155.1,94.8c0,0,7.2,3.2,11.7,3.8 M154,101.5c0,0,11.5,2.4,15,3 M155.1,109.1
				c0.5,0,11,3.1,24.6,1.9 M160.1,116.1c0,0,7,1.6,22.5-0.7"/>
			
				<path id="path4955_00000048480995347943125230000017923233163688739241_" inkscape:connector-curvature="0" sodipodi:nodetypes="cccccccc" d="
				M195.1,88.1l-0.5-0.8c0,0-1.3,1-1.6,2.4C193.9,89,195.1,88.1,195.1,88.1z M197.7,92l-0.4-1c-1.2,0.7-1.8,0.9-3.1,1.3
				C195.4,92.7,196.8,92.4,197.7,92z"/>
		</g>
	</g>
</g>
<g id="g4971_00000063606717329664952770000011104858787702517942_" transform="translate(9.6590531e-6,0)">
	<g id="g4944_00000062902141636474860170000003086461663872329144_">
		
			<path id="path4936_00000179616304015166491760000000167118453204068762_" inkscape:connector-curvature="0" sodipodi:nodetypes="czsssssssssssssssssssssssssssssssssssssscsscsssssc" class="st1" d="
			M84.1,212.5c0,0,5.6-6,3.8-8.8c-2.9-4.4-5.6,1.9-7.5,2.8c-2.5,1.2-3-1.9-1.1-4.7c1.9-2.8,7.1-6.9,7.1-9.9s0.6-4.7,1.7-7.5
			s-2.8-5.4-6.2-1.9c-3,3.1-5.1,8.7-7.5,7.9c-2.4-0.8-1.5-4.1,1.9-7.7c3.4-3.6,8.1-9.7,7.5-12.9c-0.8-4.3,1.3-6.8-1.5-9
			c-2.8-2.2-5.8-1.7-9.6,2.4s-8.3,14.3-11.3,12.1c-2.1-1.5-0.9-7.5,2.6-10.1c3.5-2.6,4.1-4.5,3.8-6.9c-0.3-2.4,2.6-3.6,0.2-6.4
			c-2.4-2.8-7.9-0.5-9.9,2.2c-2.2,3-2.7,7.3-6,6.6c-3.3-0.7-1.4-5.2,1.9-8.4c3.1-3,4.6-6.5,1.9-9.2c-2.7-2.7-0.2-4.1-2.4-8.1
			s-10.8-3.5-12.9-0.2c-2.4,3.9-4.7,1.7-6.9,4.9c-2.2,3.2,0.6,6.2,2.1,11.8c1.5,5.6-4.1,6.7-6,2.6s-8.6-5.4-11.4-1.1
			c-2.8,4.2,0.5,5.9,1.7,9.2c1.2,3.3,2.6,5.8,9.2,7.5c6.6,1.7,4.1,7.5-2.4,5.2s-9.8-3-11.3,1.9c-1.5,4.9,3.4,8.6,9.8,13.5
			c6.4,4.9,15.6,2.1,19.9,3.9s1.6,7.2-3.8,5.8c-4.9-1.3-9.9-2.6-12.2,0.9s2.1,6.6,4.5,7.5c2.4,0.9,5.2-0.3,8.9,2.5
			c4.2,3.2,12.6-3.1,18.5-2.7c6.4,0.4,7.9,4.3,5.1,4.5s-6.8-1.9-7.9,0.2c-1.6,2.9,2.5,7.4,7.5,7.3c5-0.1,6.8,1.9,6.8,1.9
			s1.6,3.6-1.8,7.2c-3.4,3.6-11.1,5.8-15.8,6.6c-4.7,0.8-5.4-1.5-5.2-3.8c0,0-1.9-0.1-3.9,2.4c-1.3,1.5-3.5,2-5.3,3.1
			c-1.8,1.1-0.5,4,2.3,2.9c2.5-1,7.3,0.2,14.1-0.4c6.8-0.6,13.1-4.3,18.2-10.1C80.4,224.2,79.1,218.2,84.1,212.5z"/>
		
			<path id="path4938_00000116944042582984233200000016888294434382150305_" inkscape:connector-curvature="0" sodipodi:nodetypes="csccscsc" class="st2" d="
			M43.1,240.4c0.8-0.3,3.2-1.9,4.1-4.3c0.9-2.4,2.4-3.7,2.4-3.7 M74.9,215.1c0,0-2.8-13.3-11.2-21.4c-8.1-7.8-14.1-15.9-14.1-15.9
			s8.1,7.4,15.4,13.9s10.3,15.5,11.8,21.9"/>
		
			<path id="path4940_00000183937100003226970860000012833469410134554028_" inkscape:connector-curvature="0" sodipodi:nodetypes="ccsscscccccccccccssccsscccsccccsccscc" d="
			M50.7,179.9l1.5-0.2c0,0-5.9-5.2-8.7-12c-1.3-3.3-1.1-8.2-0.6-12.3c0.5-4.1,1-7.4,1-7.4s-1.4,3.1-2,7.3c-0.6,4.1-0.8,9,0.6,12.6
			l0.1,0.2c0.3,0.7,0.6,1.2,0.9,1.8c-3.2-2.6-6.9-5.3-10.8-5.8c4.4,2.1,9.6,5.1,11.9,8.4C47,176,50.7,179.9,50.7,179.9L50.7,179.9z
			 M66.6,193.5l1.1,0.3c0,0-1.9-8.1,1-13.6C64.6,185.7,66.6,193.5,66.6,193.5z M40.9,184.6c2.3,0.3,5.4,0.7,8.3,0.8
			c2.8,0.1,4.9,0.7,6.2,1.3c1.3,0.6,1.9,1.2,1.9,1.2l-0.2-1c0,0,0.2-0.4-1.3-1.1s-3.6-1.3-6.6-1.4c-2.9-0.1-5.9-0.4-8.2-0.8
			c-1.3-0.2-2.6-0.4-3.9-0.1C38.5,184.2,39.8,184.5,40.9,184.6z M74,201.6c-0.4,2.4-0.1,4-0.1,4l1.1,1c0,0-0.5-2.5,0-4.8
			c0.4-2.3,1.6-5.4,4.3-9.3C75.8,195.8,74.5,199.2,74,201.6L74,201.6z M70.7,204.8l0.1-1.2c-2.5-2.4-5-2.7-7.5-2.9s-4.3,0.7-4.3,0.7
			S66.1,200.3,70.7,204.8L70.7,204.8z"/>
	</g>
	
		<path id="path4949_00000178202771168062501440000015473667561747947674_" inkscape:connector-curvature="0" sodipodi:nodetypes="cssccsscc" class="st1" d="
		M51.9,235.4c0.3-0.1,4.1-3.8,8.4,0.1c4.2,4,7.7,5.4,10.9,3.3c3.2-2.1,3.4-5.8,3.4-5.8l2.4,3.7c0,0-2.3,6.4-8.9,6.2
		c-6.6-0.2-8.5-3.4-10.6-5c-1.1-0.8-2.9-1.5-4-1.9L51.9,235.4z"/>
	<g id="g4959_00000022550384051961834460000016879503603521451681_">
		
			<path id="path4951_00000011748886119418146590000007959741564151572921_" inkscape:connector-curvature="0" sodipodi:nodetypes="csscscscc" class="st3" d="
			M100.3,232.9c0,0,0.5,12.5-14.1,10.1c-14.6-2.4-17.8-15.6-14.8-24.8c2.8-8.7,13.3-9.5,16.4-6.3c0,0,2.4-1.1,9.9-3.3
			c7.6-2.2,10.9-1.1,13.4,1.6c0,0,3.2-1.9,4.4,0.3c1.2,2.1-1.7,4-1.7,4S115.1,225.1,100.3,232.9z"/>
		
			<path id="path4953_00000134223479475670044770000014294461903613268649_" inkscape:connector-curvature="0" sodipodi:nodetypes="cssccccccccccccccccccccc" class="st2" d="
			M88.6,211.8c0,0-5,1.7-5.2,7.6c-0.2,6.2,3.3,10.2,8,12.9c4.7,2.7,9.5,0.1,9.5,0.1 M77.7,239.8c0,0-2.1-19,7.5-25.4 M85,226.3
			c0,0-3.8,5.2-0.9,16.3 M90.1,231.6c0,0-0.9,8.1,0.9,12 M96.2,233.7c0,0-0.2,4.1,0.6,7.3 M72.2,232.6c0,0,0-15.7,8.6-22
			 M75.7,212.4c0,0,3.7,2.5,8.9,2.8 M71.6,217.3c0,0,7.2,3.2,11.7,3.8 M70.6,224c0,0,11.5,2.4,15,3 M71.6,231.6
			c0.5,0,11,3.1,24.6,1.9 M76.7,238.6c0,0,7,1.6,22.5-0.7"/>
		
			<path id="path4955_00000025424073821528192950000015465506681232775844_" inkscape:connector-curvature="0" sodipodi:nodetypes="cccccccc" d="
			M111.7,210.6l-0.5-0.8c0,0-1.3,1-1.6,2.4C110.5,211.5,111.7,210.6,111.7,210.6z M114.2,214.5l-0.4-1c-1.2,0.7-1.8,0.9-3.1,1.3
			C111.9,215.2,113.4,214.9,114.2,214.5z"/>
	</g>
</g>
<g id="use4982_00000142166216890303954840000013217411002780999832_" transform="translate(96.109873,0)">
	<g id="g4971_00000146479185484137323950000014071986202670877114_" transform="translate(9.6590531e-6,0)">
		<g id="g4944_00000080197897998574516940000013357536718797947782_">
			
				<path id="path4936_00000049196510234126161250000003864912777318203293_" inkscape:connector-curvature="0" sodipodi:nodetypes="czsssssssssssssssssssssssssssssssssssssscsscsssssc" class="st1" d="
				M235.9,212.5c0,0,5.6-6,3.8-8.8c-2.9-4.4-5.6,1.9-7.5,2.8c-2.5,1.2-3-1.9-1.1-4.7c1.9-2.8,7.1-6.9,7.1-9.9s0.6-4.7,1.7-7.5
				c1.1-2.8-2.8-5.4-6.2-1.9c-3,3.1-5.1,8.7-7.5,7.9c-2.4-0.8-1.5-4.1,1.9-7.7c3.4-3.6,8.1-9.7,7.5-12.9c-0.8-4.3,1.3-6.8-1.5-9
				c-2.8-2.2-5.8-1.7-9.6,2.4s-8.3,14.3-11.2,12.2c-2.1-1.5-0.9-7.5,2.6-10.1c3.5-2.6,4.1-4.5,3.8-6.9c-0.3-2.4,2.6-3.6,0.2-6.4
				c-2.4-2.8-7.9-0.5-9.9,2.2c-2.2,3-2.7,7.3-6,6.6c-3.3-0.7-1.4-5.2,1.9-8.4c3.1-3,4.6-6.5,1.9-9.2c-2.7-2.7-0.2-4.1-2.4-8.1
				s-10.7-3.5-12.8-0.2c-2.4,3.9-4.7,1.7-6.9,4.9c-2.2,3.2,0.6,6.2,2.1,11.8c1.5,5.6-4.1,6.7-6,2.6s-8.6-5.4-11.4-1.1
				c-2.8,4.2,0.5,5.9,1.7,9.2c1.2,3.3,2.6,5.8,9.2,7.5c6.6,1.7,4.1,7.5-2.4,5.2s-9.8-3-11.2,1.9c-1.4,4.9,3.4,8.6,9.8,13.5
				c6.4,4.9,15.6,2.1,19.9,3.9s1.6,7.2-3.8,5.8c-4.9-1.3-9.9-2.6-12.2,0.9s2.1,6.6,4.5,7.5c2.4,0.9,5.2-0.3,8.9,2.5
				c4.2,3.2,12.6-3.1,18.5-2.7c6.4,0.4,7.9,4.3,5.1,4.5s-6.8-1.9-7.9,0.2c-1.6,2.9,2.5,7.4,7.5,7.3c5-0.1,6.8,1.9,6.8,1.9
				s1.6,3.6-1.8,7.2c-3.4,3.6-11.1,5.8-15.8,6.6c-4.7,0.8-5.4-1.5-5.2-3.8c0,0-1.9-0.1-3.9,2.4c-1.3,1.5-3.5,2-5.3,3.1
				c-1.8,1.1-0.5,4,2.3,2.9c2.5-1,7.3,0.2,14.1-0.4c6.8-0.6,13.1-4.3,18.2-10.1C232.5,224.3,230.9,218.2,235.9,212.5z"/>
			
				<path id="path4938_00000083799605196384582820000008033569494092421556_" inkscape:connector-curvature="0" sodipodi:nodetypes="csccscsc" class="st2" d="
				M194.9,240.4c0.8-0.3,3.2-1.9,4.1-4.3c0.9-2.4,2.4-3.7,2.4-3.7 M226.6,215.1c0,0-2.8-13.3-11.2-21.4
				c-8.1-7.8-14.1-15.9-14.1-15.9s8.1,7.4,15.4,13.9c7.3,6.5,10.3,15.5,11.8,21.9"/>
			
				<path id="path4940_00000178909330922961171640000011386791699932116115_" inkscape:connector-curvature="0" sodipodi:nodetypes="ccsscscccccccccccssccsscccsccccsccscc" d="
				M202.4,179.9l1.5-0.2c0,0-5.9-5.2-8.7-12c-1.3-3.3-1.1-8.2-0.6-12.3c0.5-4.1,1-7.4,1-7.4s-1.4,3.1-2,7.3c-0.6,4.1-0.8,9,0.6,12.6
				l0.1,0.2c0.3,0.7,0.6,1.2,0.9,1.8c-3.2-2.6-6.9-5.3-10.8-5.8c4.4,2.1,9.6,5.1,11.9,8.4C198.8,176,202.4,179.9,202.4,179.9
				L202.4,179.9z M218.3,193.5l1.1,0.3c0,0-1.9-8.1,1-13.6C216.4,185.7,218.3,193.5,218.3,193.5z M192.7,184.6
				c2.3,0.3,5.4,0.7,8.3,0.8c2.8,0.1,4.9,0.7,6.2,1.3c1.3,0.6,1.9,1.2,1.9,1.2l-0.2-1c0,0,0.2-0.4-1.3-1.1s-3.6-1.3-6.6-1.4
				c-2.9-0.1-5.9-0.4-8.2-0.8c-1.3-0.2-2.6-0.4-3.9-0.1C190.2,184.2,191.6,184.5,192.7,184.6z M225.8,201.6c-0.4,2.4-0.1,4-0.1,4
				l1.1,1c0,0-0.5-2.5,0-4.8c0.4-2.3,1.6-5.4,4.3-9.3C227.5,195.8,226.2,199.2,225.8,201.6L225.8,201.6z M222.4,204.8l0.1-1.2
				c-2.5-2.4-5-2.7-7.5-2.9s-4.3,0.7-4.3,0.7S217.9,200.3,222.4,204.8L222.4,204.8z"/>
		</g>
		
			<path id="path4949_00000044867895309015399750000010111991728796221832_" inkscape:connector-curvature="0" sodipodi:nodetypes="cssccsscc" class="st1" d="
			M203.7,235.4c0.3-0.1,4.1-3.8,8.4,0.1c4.2,4,7.7,5.4,10.9,3.3c3.2-2.1,3.4-5.8,3.4-5.8l2.4,3.7c0,0-2.3,6.4-8.9,6.2
			c-6.6-0.2-8.5-3.4-10.6-5c-1.1-0.8-2.9-1.5-4-1.9L203.7,235.4z"/>
		<g id="g4959_00000075855477063508753050000014135319313207102343_">
			
				<path id="path4951_00000148654203938429785180000002270078698816826246_" inkscape:connector-curvature="0" sodipodi:nodetypes="csscscscc" class="st3" d="
				M252,232.9c0,0,0.5,12.5-14.1,10.1c-14.6-2.4-17.8-15.6-14.8-24.8c2.8-8.7,13.3-9.5,16.4-6.3c0,0,2.4-1.1,9.9-3.3
				c7.6-2.2,10.9-1.1,13.4,1.6c0,0,3.2-1.9,4.4,0.3c1.2,2.1-1.7,4-1.7,4S266.8,225.1,252,232.9z"/>
			
				<path id="path4953_00000155868151749677029060000015041111190957661596_" inkscape:connector-curvature="0" sodipodi:nodetypes="cssccccccccccccccccccccc" class="st2" d="
				M240.3,211.8c0,0-5,1.7-5.2,7.6c-0.2,6.2,3.3,10.2,8,12.9c4.7,2.7,9.5,0.1,9.5,0.1 M229.5,239.8c0,0-2.1-19,7.5-25.4
				 M236.8,226.3c0,0-3.8,5.2-0.9,16.3 M241.8,231.6c0,0-0.9,8.1,0.9,12 M248,233.7c0,0-0.2,4.1,0.6,7.3 M224,232.6
				c0,0,0-15.7,8.6-22 M227.5,212.4c0,0,3.7,2.5,8.9,2.8 M223.4,217.3c0,0,7.2,3.2,11.7,3.8 M222.3,224c0,0,11.5,2.4,15,3
				 M223.4,231.6c0.5,0,11,3.1,24.6,1.9 M228.4,238.6c0,0,7,1.6,22.5-0.7"/>
			
				<path id="path4955_00000108302687494099612310000006488141341480175520_" inkscape:connector-curvature="0" sodipodi:nodetypes="cccccccc" d="
				M263.4,210.6l-0.5-0.8c0,0-1.3,1-1.6,2.4C262.2,211.5,263.4,210.6,263.4,210.6z M266,214.5l-0.4-1c-1.2,0.7-1.8,0.9-3.1,1.3
				C263.7,215.2,265.1,214.9,266,214.5z"/>
		</g>
	</g>
</g>
<g id="use4984_00000114754142495707371530000008412728802113242502_" transform="translate(192.21974,0)">
	<g id="g4971_00000148628486509601652120000012656234242306445965_" transform="translate(9.6590531e-6,0)">
		<g id="g4944_00000043437652725387774780000014366665232911113118_">
			
				<path id="path4936_00000102530408001565248670000002698320536053843607_" inkscape:connector-curvature="0" sodipodi:nodetypes="czsssssssssssssssssssssssssssssssssssssscsscsssssc" class="st1" d="
				M387.5,212.5c0,0,5.6-6,3.8-8.8c-2.9-4.4-5.6,1.9-7.5,2.8c-2.5,1.2-3-1.9-1.1-4.7c1.9-2.8,7.1-6.9,7.1-9.9s0.6-4.7,1.7-7.5
				s-2.8-5.4-6.2-1.9c-3,3.1-5.1,8.7-7.5,7.9c-2.4-0.8-1.5-4.1,1.9-7.7c3.4-3.6,8.1-9.7,7.5-12.9c-0.8-4.3,1.3-6.8-1.5-9
				c-2.8-2.2-5.8-1.7-9.6,2.4s-8.3,14.3-11.2,12.2c-2.1-1.5-0.9-7.5,2.6-10.1c3.5-2.6,4.1-4.5,3.8-6.9c-0.3-2.4,2.6-3.6,0.2-6.4
				c-2.4-2.8-7.9-0.5-9.9,2.2c-2.2,3-2.7,7.3-6,6.6c-3.3-0.7-1.4-5.2,1.9-8.4c3.1-3,4.6-6.5,1.9-9.2s-0.2-4.1-2.4-8.1
				s-10.7-3.5-12.8-0.2c-2.4,3.9-4.7,1.7-6.9,4.9c-2.2,3.2,0.6,6.2,2.1,11.8c1.5,5.6-4.1,6.7-6,2.6s-8.6-5.4-11.4-1.1
				c-2.8,4.2,0.5,5.9,1.7,9.2c1.2,3.3,2.6,5.8,9.2,7.5c6.6,1.7,4.1,7.5-2.4,5.2s-9.8-3-11.2,1.9c-1.4,4.9,3.4,8.6,9.8,13.5
				c6.4,4.9,15.6,2.1,19.9,3.9s1.6,7.2-3.8,5.8c-4.9-1.3-9.9-2.6-12.2,0.9s2.1,6.6,4.5,7.5c2.4,0.9,5.2-0.3,8.9,2.5
				c4.2,3.2,12.6-3.1,18.5-2.7c6.4,0.4,7.9,4.3,5.1,4.5s-6.8-1.9-7.9,0.2c-1.6,2.9,2.5,7.4,7.5,7.3c5-0.1,6.8,1.9,6.8,1.9
				s1.6,3.6-1.8,7.2c-3.4,3.6-11.1,5.8-15.8,6.6c-4.7,0.8-5.4-1.5-5.2-3.8c0,0-1.9-0.1-3.9,2.4c-1.3,1.5-3.5,2-5.3,3.1
				c-1.8,1.1-0.5,4,2.3,2.9c2.5-1,7.3,0.2,14.1-0.4c6.8-0.6,13.1-4.3,18.2-10.1C384.1,224.3,382.5,218.2,387.5,212.5z"/>
			
				<path id="path4938_00000122697509768396883880000008720402437847718553_" inkscape:connector-curvature="0" sodipodi:nodetypes="csccscsc" class="st2" d="
				M346.5,240.4c0.8-0.3,3.2-1.9,4.1-4.3c0.9-2.4,2.4-3.7,2.4-3.7 M378.2,215.1c0,0-2.8-13.3-11.2-21.4
				c-8.1-7.8-14.1-15.9-14.1-15.9s8.1,7.4,15.4,13.9s10.3,15.5,11.8,21.9"/>
			
				<path id="path4940_00000053515214035618031270000005886562906231391887_" inkscape:connector-curvature="0" sodipodi:nodetypes="ccsscscccccccccccssccsscccsccccsccscc" d="
				M354,179.9l1.5-0.2c0,0-5.9-5.2-8.7-12c-1.3-3.3-1.1-8.2-0.6-12.3c0.5-4.1,1-7.4,1-7.4s-1.4,3.1-2,7.3c-0.6,4.1-0.8,9,0.6,12.6
				l0.1,0.2c0.3,0.7,0.6,1.2,0.9,1.8c-3.2-2.6-6.9-5.3-10.8-5.8c4.4,2.1,9.6,5.1,11.9,8.4C350.4,176,354,179.9,354,179.9L354,179.9z
				 M369.9,193.5l1.1,0.3c0,0-1.9-8.1,1-13.6C368,185.7,369.9,193.5,369.9,193.5z M344.3,184.6c2.3,0.3,5.4,0.7,8.3,0.8
				c2.8,0.1,4.9,0.7,6.2,1.3c1.3,0.6,1.9,1.2,1.9,1.2l-0.2-1c0,0,0.2-0.4-1.3-1.1s-3.6-1.3-6.6-1.4c-2.9-0.1-5.9-0.4-8.2-0.8
				c-1.3-0.2-2.6-0.4-3.9-0.1C341.8,184.2,343.2,184.5,344.3,184.6z M377.4,201.6c-0.4,2.4-0.1,4-0.1,4l1.1,1c0,0-0.5-2.5,0-4.8
				c0.4-2.3,1.6-5.4,4.3-9.3C379.1,195.8,377.8,199.2,377.4,201.6L377.4,201.6z M374,204.8l0.1-1.2c-2.5-2.4-5-2.7-7.5-2.9
				s-4.3,0.7-4.3,0.7S369.4,200.3,374,204.8L374,204.8z"/>
		</g>
		
			<path id="path4949_00000047031649229878613410000005231793257403027129_" inkscape:connector-curvature="0" sodipodi:nodetypes="cssccsscc" class="st1" d="
			M355.3,235.4c0.3-0.1,4.1-3.8,8.4,0.1c4.2,4,7.7,5.4,10.9,3.3c3.2-2.1,3.4-5.8,3.4-5.8l2.4,3.7c0,0-2.3,6.4-8.9,6.2
			c-6.6-0.2-8.5-3.4-10.6-5c-1.1-0.8-2.9-1.5-4-1.9L355.3,235.4z"/>
		<g id="g4959_00000137095112759418766500000008269666667934766512_">
			
				<path id="path4951_00000168802853253038566080000007181449347846072766_" inkscape:connector-curvature="0" sodipodi:nodetypes="csscscscc" class="st3" d="
				M403.6,232.9c0,0,0.5,12.5-14.1,10.1c-14.6-2.4-17.8-15.6-14.8-24.8c2.8-8.7,13.3-9.5,16.4-6.3c0,0,2.4-1.1,9.9-3.3
				c7.6-2.2,10.9-1.1,13.4,1.6c0,0,3.2-1.9,4.4,0.3c1.2,2.1-1.7,4-1.7,4S418.4,225.1,403.6,232.9z"/>
			
				<path id="path4953_00000163769704193659117580000009080181400103222177_" inkscape:connector-curvature="0" sodipodi:nodetypes="cssccccccccccccccccccccc" class="st2" d="
				M391.9,211.8c0,0-5,1.7-5.2,7.6c-0.2,6.2,3.3,10.2,8,12.9c4.7,2.7,9.5,0.1,9.5,0.1 M381,239.8c0,0-2.1-19,7.5-25.4 M388.3,226.3
				c0,0-3.8,5.2-0.9,16.3 M393.4,231.6c0,0-0.9,8.1,0.9,12 M399.6,233.7c0,0-0.2,4.1,0.6,7.3 M375.6,232.6c0,0,0-15.7,8.6-22
				 M379.1,212.4c0,0,3.7,2.5,8.9,2.8 M375,217.3c0,0,7.2,3.2,11.7,3.8 M373.9,224c0,0,11.5,2.4,15,3 M375,231.6
				c0.5,0,11,3.1,24.6,1.9 M380,238.6c0,0,7,1.6,22.5-0.7"/>
			
				<path id="path4955_00000080208700563565382360000011630752182461092489_" inkscape:connector-curvature="0" sodipodi:nodetypes="cccccccc" d="
				M415,210.6l-0.5-0.8c0,0-1.3,1-1.6,2.4C413.8,211.5,415,210.6,415,210.6z M417.6,214.5l-0.4-1c-1.2,0.7-1.8,0.9-3.1,1.3
				C415.2,215.2,416.7,214.9,417.6,214.5z"/>
		</g>
	</g>
</g>
<g id="use4986_00000053505535002087299070000011774939190609510017_" transform="translate(288.3296,0)">
	<g id="g4971_00000166649399413030694120000002755585183830975917_" transform="translate(9.6590531e-6,0)">
		<g id="g4944_00000077323227275762080100000000285329417519134345_">
			
				<path id="path4936_00000091728738255596974640000007653432230235120290_" inkscape:connector-curvature="0" sodipodi:nodetypes="czsssssssssssssssssssssssssssssssssssssscsscsssssc" class="st1" d="
				M415.3,212.5c0,0,5.6-6,3.8-8.8c-2.9-4.4-5.6,1.9-7.5,2.8c-2.5,1.2-3-1.9-1.1-4.7c1.9-2.8,7.1-6.9,7.1-9.9s0.6-4.7,1.7-7.5
				s-2.8-5.4-6.2-1.9c-3,3.1-5.1,8.7-7.5,7.9c-2.4-0.8-1.5-4.1,1.9-7.7c3.4-3.6,8.1-9.7,7.5-12.9c-0.8-4.3,1.3-6.8-1.5-9
				c-2.8-2.2-5.8-1.7-9.6,2.4s-8.3,14.3-11.2,12.2c-2.1-1.5-0.9-7.5,2.6-10.1c3.5-2.6,4.1-4.5,3.8-6.9c-0.3-2.4,2.6-3.6,0.2-6.4
				c-2.4-2.8-7.9-0.5-9.9,2.2c-2.2,3-2.7,7.3-6,6.6c-3.3-0.7-1.4-5.2,1.9-8.4c3.1-3,4.6-6.5,1.9-9.2s-0.2-4.1-2.4-8.1
				s-10.7-3.5-12.8-0.2c-2.4,3.9-4.7,1.7-6.9,4.9c-2.2,3.2,0.6,6.2,2.1,11.8c1.5,5.6-4.1,6.7-6,2.6s-8.6-5.4-11.4-1.1
				c-2.8,4.2,0.5,5.9,1.7,9.2c1.2,3.3,2.6,5.8,9.2,7.5c6.6,1.7,4.1,7.5-2.4,5.2s-9.8-3-11.2,1.9c-1.4,4.9,3.4,8.6,9.8,13.5
				c6.4,4.9,15.6,2.1,19.9,3.9s1.6,7.2-3.8,5.8c-4.9-1.3-9.9-2.6-12.2,0.9s2.1,6.6,4.5,7.5c2.4,0.9,5.2-0.3,8.9,2.5
				c4.2,3.2,12.6-3.1,18.5-2.7c6.4,0.4,7.9,4.3,5.1,4.5s-6.8-1.9-7.9,0.2c-1.6,2.9,2.5,7.4,7.5,7.3c5-0.1,6.8,1.9,6.8,1.9
				s1.6,3.6-1.8,7.2c-3.4,3.6-11.1,5.8-15.8,6.6c-4.7,0.8-5.4-1.5-5.2-3.8c0,0-1.9-0.1-3.9,2.4c-1.3,1.5-3.5,2-5.3,3.1
				c-1.8,1.1-0.5,4,2.3,2.9c2.5-1,7.3,0.2,14.1-0.4c6.8-0.6,13.1-4.3,18.2-10.1C411.9,224.3,410.3,218.2,415.3,212.5z"/>
			
				<path id="path4938_00000045580311738496579590000006781603617214919337_" inkscape:connector-curvature="0" sodipodi:nodetypes="csccscsc" class="st2" d="
				M374.3,240.4c0.8-0.3,3.2-1.9,4.1-4.3c0.9-2.4,2.4-3.7,2.4-3.7 M406.1,215.1c0,0-2.8-13.3-11.2-21.4
				c-8.1-7.8-14.1-15.9-14.1-15.9s8.1,7.4,15.4,13.9s10.3,15.5,11.8,21.9"/>
			
				<path id="path4940_00000029736755048841644080000005666443177241641909_" inkscape:connector-curvature="0" sodipodi:nodetypes="ccsscscccccccccccssccsscccsccccsccscc" d="
				M381.9,179.9l1.5-0.2c0,0-5.9-5.2-8.7-12c-1.3-3.3-1.1-8.2-0.6-12.3c0.5-4.1,1-7.4,1-7.4s-1.4,3.1-2,7.3c-0.6,4.1-0.8,9,0.6,12.6
				l0.1,0.2c0.3,0.7,0.6,1.2,0.9,1.8c-3.2-2.6-6.9-5.3-10.8-5.8c4.4,2.1,9.6,5.1,11.9,8.4C378.2,176,381.9,179.9,381.9,179.9
				L381.9,179.9z M397.8,193.5l1.1,0.3c0,0-1.9-8.1,1-13.6C395.8,185.7,397.8,193.5,397.8,193.5z M372.1,184.6
				c2.3,0.3,5.4,0.7,8.3,0.8c2.8,0.1,4.9,0.7,6.2,1.3c1.3,0.6,1.9,1.2,1.9,1.2l-0.2-1c0,0,0.2-0.4-1.3-1.1s-3.6-1.3-6.6-1.4
				c-2.9-0.1-5.9-0.4-8.2-0.8c-1.3-0.2-2.6-0.4-3.9-0.1C369.7,184.2,371.1,184.5,372.1,184.6z M405.2,201.6c-0.4,2.4-0.1,4-0.1,4
				l1.1,1c0,0-0.5-2.5,0-4.8c0.4-2.3,1.6-5.4,4.3-9.3C407,195.8,405.7,199.2,405.2,201.6L405.2,201.6z M401.9,204.8l0.1-1.2
				c-2.5-2.4-5-2.7-7.5-2.9s-4.3,0.7-4.3,0.7S397.3,200.3,401.9,204.8L401.9,204.8z"/>
		</g>
		
			<path id="path4949_00000096753340947458769910000014110058260045527705_" inkscape:connector-curvature="0" sodipodi:nodetypes="cssccsscc" class="st1" d="
			M383.1,235.4c0.3-0.1,4.1-3.8,8.4,0.1c4.2,4,7.7,5.4,10.9,3.3c3.2-2.1,3.4-5.8,3.4-5.8l2.4,3.7c0,0-2.3,6.4-8.9,6.2
			c-6.6-0.2-8.5-3.4-10.6-5c-1.1-0.8-2.9-1.5-4-1.9L383.1,235.4z"/>
		<g id="g4959_00000160869981141168389320000007792044278235013280_">
			
				<path id="path4951_00000122714386975198124250000013584042067610257803_" inkscape:connector-curvature="0" sodipodi:nodetypes="csscscscc" class="st3" d="
				M431.5,232.9c0,0,0.5,12.5-14.1,10.1c-14.6-2.4-17.8-15.6-14.8-24.8c2.8-8.7,13.3-9.5,16.4-6.3c0,0,2.4-1.1,9.9-3.3
				c7.6-2.2,10.9-1.1,13.4,1.6c0,0,3.2-1.9,4.4,0.3c1.2,2.1-1.7,4-1.7,4S446.3,225.1,431.5,232.9z"/>
			
				<path id="path4953_00000172429266097621144560000014926368406355208089_" inkscape:connector-curvature="0" sodipodi:nodetypes="cssccccccccccccccccccccc" class="st2" d="
				M419.8,211.8c0,0-5,1.7-5.2,7.6c-0.2,6.2,3.3,10.2,8,12.9c4.7,2.7,9.5,0.1,9.5,0.1 M408.9,239.8c0,0-2.1-19,7.5-25.4
				 M416.2,226.3c0,0-3.8,5.2-0.9,16.3 M421.3,231.6c0,0-0.9,8.1,0.9,12 M427.5,233.7c0,0-0.2,4.1,0.6,7.3 M403.5,232.6
				c0,0,0-15.7,8.6-22 M407,212.4c0,0,3.7,2.5,8.9,2.8 M402.8,217.3c0,0,7.2,3.2,11.7,3.8 M401.8,224c0,0,11.5,2.4,15,3
				 M402.8,231.6c0.5,0,11,3.1,24.6,1.9 M407.9,238.6c0,0,7,1.6,22.5-0.7"/>
			
				<path id="path4955_00000017514850441863633450000014120873574287044025_" inkscape:connector-curvature="0" sodipodi:nodetypes="cccccccc" d="
				M442.9,210.6l-0.5-0.8c0,0-1.3,1-1.6,2.4C441.7,211.5,442.9,210.6,442.9,210.6z M445.4,214.5l-0.4-1c-1.2,0.7-1.8,0.9-3.1,1.3
				C443.1,215.2,444.6,214.9,445.4,214.5z"/>
		</g>
	</g>
</g>
<g id="use4984_00000173159334117814444910000018127709271804028832_" transform="translate(192.21974,0)">
	<g id="g4971_00000043445172628356960480000008478164202003603647_" transform="translate(9.6590531e-6,0)">
		<g id="g4944_00000153671318104956307370000008531555802631655592_">
			
				<path id="path4936_00000137819834738417798610000006905552698544150713_" inkscape:connector-curvature="0" sodipodi:nodetypes="czsssssssssssssssssssssssssssssssssssssscsscsssssc" class="st1" d="
				M15.8,212.5c0,0,5.6-6,3.8-8.8c-2.9-4.4-5.6,1.9-7.5,2.8c-2.5,1.2-3-1.9-1.1-4.7c1.9-2.8,7.1-6.9,7.1-9.9s0.6-4.7,1.7-7.5
				c1.1-2.8-2.8-5.4-6.2-1.9c-3,3.1-5.1,8.7-7.5,7.9c-2.4-0.8-1.5-4.1,1.9-7.7c3.4-3.6,8.1-9.7,7.5-12.9c-0.8-4.3,1.3-6.8-1.5-9
				c-2.8-2.2-5.8-1.7-9.6,2.4s-8.3,14.3-11.2,12.2c-2.1-1.5-0.9-7.5,2.6-10.1c3.5-2.6,4.1-4.5,3.8-6.9c-0.3-2.4,2.6-3.6,0.2-6.4
				c-2.4-2.8-7.9-0.5-9.9,2.2c-2.2,3-2.7,7.3-6,6.6c-3.3-0.7-1.4-5.2,1.9-8.4c3.1-3,4.6-6.5,1.9-9.2c-2.7-2.7-0.2-4.1-2.4-8.1
				s-10.7-3.5-12.8-0.2c-2.4,3.9-4.7,1.7-6.9,4.9c-2.2,3.2,0.6,6.2,2.1,11.8c1.5,5.6-4.1,6.7-6,2.6s-8.6-5.4-11.4-1.1
				c-2.8,4.2,0.5,5.9,1.7,9.2c1.2,3.3,2.6,5.8,9.2,7.5c6.6,1.7,4.1,7.5-2.4,5.2s-9.8-3-11.2,1.9c-1.4,4.9,3.4,8.6,9.8,13.5
				c6.4,4.9,15.6,2.1,19.9,3.9s1.6,7.2-3.8,5.8c-4.9-1.3-9.9-2.6-12.2,0.9s2.1,6.6,4.5,7.5c2.4,0.9,5.2-0.3,8.9,2.5
				c4.2,3.2,12.6-3.1,18.5-2.7c6.4,0.4,7.9,4.3,5.1,4.5s-6.8-1.9-7.9,0.2c-1.6,2.9,2.5,7.4,7.5,7.3c5-0.1,6.8,1.9,6.8,1.9
				s1.6,3.6-1.8,7.2c-3.4,3.6-11.1,5.8-15.8,6.6c-4.7,0.8-5.4-1.5-5.2-3.8c0,0-1.9-0.1-3.9,2.4c-1.3,1.5-3.5,2-5.3,3.1
				c-1.8,1.1-0.5,4,2.3,2.9c2.5-1,7.3,0.2,14.1-0.4c6.8-0.6,13.1-4.3,18.2-10.1C12.4,224.3,10.8,218.2,15.8,212.5z"/>
			
				<path id="path4938_00000121240155737488684060000014696453045618963861_" inkscape:connector-curvature="0" sodipodi:nodetypes="csccscsc" class="st2" d="
				M-25.2,240.4c0.8-0.3,3.2-1.9,4.1-4.3c0.9-2.4,2.4-3.7,2.4-3.7 M6.6,215.1c0,0-2.8-13.3-11.2-21.4c-8.1-7.8-14.1-15.9-14.1-15.9
				s8.1,7.4,15.4,13.9C4,198.2,7,207.2,8.5,213.6"/>
			
				<path id="path4940_00000024687886094749438570000002932698897805195400_" inkscape:connector-curvature="0" sodipodi:nodetypes="ccsscscccccccccccssccsscccsccccsccscc" d="
				M-17.7,179.9l1.5-0.2c0,0-5.9-5.2-8.7-12c-1.3-3.3-1.1-8.2-0.6-12.3c0.5-4.1,1-7.4,1-7.4s-1.4,3.1-2,7.3c-0.6,4.1-0.8,9,0.6,12.6
				l0.1,0.2c0.3,0.7,0.6,1.2,0.9,1.8c-3.2-2.6-6.9-5.3-10.8-5.8c4.4,2.1,9.6,5.1,11.9,8.4C-21.3,176-17.7,179.9-17.7,179.9
				L-17.7,179.9z M-1.8,193.5l1.1,0.3c0,0-1.9-8.1,1-13.6C-3.7,185.7-1.8,193.5-1.8,193.5z M-27.4,184.6c2.3,0.3,5.4,0.7,8.3,0.8
				c2.8,0.1,4.9,0.7,6.2,1.3c1.3,0.6,1.9,1.2,1.9,1.2l-0.2-1c0,0,0.2-0.4-1.3-1.1s-3.6-1.3-6.6-1.4c-2.9-0.1-5.9-0.4-8.2-0.8
				c-1.3-0.2-2.6-0.4-3.9-0.1C-29.9,184.2-28.5,184.5-27.4,184.6z M5.7,201.6c-0.4,2.4-0.1,4-0.1,4l1.1,1c0,0-0.5-2.5,0-4.8
				c0.4-2.3,1.6-5.4,4.3-9.3C7.4,195.8,6.2,199.2,5.7,201.6L5.7,201.6z M2.3,204.8l0.1-1.2c-2.5-2.4-5-2.7-7.5-2.9s-4.3,0.7-4.3,0.7
				S-2.2,200.3,2.3,204.8L2.3,204.8z"/>
		</g>
		
			<path id="path4949_00000018919703566389268580000014770077241378508965_" inkscape:connector-curvature="0" sodipodi:nodetypes="cssccsscc" class="st1" d="
			M-16.4,235.4c0.3-0.1,4.1-3.8,8.4,0.1c4.2,4,7.7,5.4,10.9,3.3c3.2-2.1,3.4-5.8,3.4-5.8l2.4,3.7c0,0-2.3,6.4-8.9,6.2
			c-6.6-0.2-8.5-3.4-10.6-5c-1.1-0.8-2.9-1.5-4-1.9L-16.4,235.4z"/>
		<g id="g4959_00000046332292078174852150000014900450867229895347_">
			
				<path id="path4951_00000042731588769636848770000001230477781119763129_" inkscape:connector-curvature="0" sodipodi:nodetypes="csscscscc" class="st3" d="
				M32,232.9c0,0,0.5,12.5-14.1,10.1c-14.6-2.4-17.8-15.6-14.8-24.8c2.8-8.7,13.3-9.5,16.4-6.3c0,0,2.4-1.1,9.9-3.3
				c7.6-2.2,10.9-1.1,13.4,1.6c0,0,3.2-1.9,4.4,0.3c1.2,2.1-1.7,4-1.7,4S46.8,225.1,32,232.9z"/>
			
				<path id="path4953_00000119839128729376929100000000202486581216523141_" inkscape:connector-curvature="0" sodipodi:nodetypes="cssccccccccccccccccccccc" class="st2" d="
				M20.2,211.8c0,0-5,1.7-5.2,7.6c-0.2,6.2,3.3,10.2,8,12.9c4.7,2.7,9.5,0.1,9.5,0.1 M9.4,239.8c0,0-2.1-19,7.5-25.4 M16.7,226.3
				c0,0-3.8,5.2-0.9,16.3 M21.7,231.6c0,0-0.9,8.1,0.9,12 M27.9,233.7c0,0-0.2,4.1,0.6,7.3 M3.9,232.6c0,0,0-15.7,8.6-22 M7.4,212.4
				c0,0,3.7,2.5,8.9,2.8 M3.3,217.3c0,0,7.2,3.2,11.7,3.8 M2.3,224c0,0,11.5,2.4,15,3 M3.3,231.6c0.5,0,11,3.1,24.6,1.9 M8.4,238.6
				c0,0,7,1.6,22.5-0.7"/>
			
				<path id="path4955_00000174578882981037812770000000343208189091679109_" inkscape:connector-curvature="0" sodipodi:nodetypes="cccccccc" d="
				M43.3,210.6l-0.5-0.8c0,0-1.3,1-1.6,2.4C42.1,211.5,43.3,210.6,43.3,210.6z M45.9,214.5l-0.4-1c-1.2,0.7-1.8,0.9-3.1,1.3
				C43.6,215.2,45,214.9,45.9,214.5z"/>
		</g>
	</g>
</g>
<g id="use4986_00000094610442272235888000000000783229217314498974_" transform="translate(288.3296,0)">
	<g id="g4971_00000000222193463640034410000006843578226250575528_" transform="translate(9.6590531e-6,0)">
		<g id="g4944_00000026149794064364591590000004230487070151942821_">
			
				<path id="path4936_00000110446767178993699530000008655300987825346945_" inkscape:connector-curvature="0" sodipodi:nodetypes="czsssssssssssssssssssssssssssssssssssssscsscsssssc" class="st1" d="
				M167.6,212.5c0,0,5.6-6,3.8-8.8c-2.9-4.4-5.6,1.9-7.5,2.8c-2.5,1.2-3-1.9-1.1-4.7c1.9-2.8,7.1-6.9,7.1-9.9s0.6-4.7,1.7-7.5
				c1.1-2.8-2.8-5.4-6.2-1.9c-3,3.1-5.1,8.7-7.5,7.9c-2.4-0.8-1.5-4.1,1.9-7.7c3.4-3.6,8.1-9.7,7.5-12.9c-0.8-4.3,1.3-6.8-1.5-9
				c-2.8-2.2-5.8-1.7-9.6,2.4s-8.3,14.3-11.2,12.2c-2.1-1.5-0.9-7.5,2.6-10.1c3.5-2.6,4.1-4.5,3.8-6.9c-0.3-2.4,2.6-3.6,0.2-6.4
				c-2.4-2.8-7.9-0.5-9.9,2.2c-2.2,3-2.7,7.3-6,6.6c-3.3-0.7-1.4-5.2,1.9-8.4c3.1-3,4.6-6.5,1.9-9.2c-2.7-2.7-0.2-4.1-2.4-8.1
				s-10.7-3.5-12.8-0.2c-2.4,3.9-4.7,1.7-6.9,4.9c-2.2,3.2,0.6,6.2,2.1,11.8c1.5,5.6-4.1,6.7-6,2.6s-8.6-5.4-11.4-1.1
				c-2.8,4.2,0.5,5.9,1.7,9.2c1.2,3.3,2.6,5.8,9.2,7.5c6.6,1.7,4.1,7.5-2.4,5.2s-9.8-3-11.2,1.9c-1.4,4.9,3.4,8.6,9.8,13.5
				c6.4,4.9,15.6,2.1,19.9,3.9s1.6,7.2-3.8,5.8c-4.9-1.3-9.9-2.6-12.2,0.9s2.1,6.6,4.5,7.5c2.4,0.9,5.2-0.3,8.9,2.5
				c4.2,3.2,12.6-3.1,18.5-2.7c6.4,0.4,7.9,4.3,5.1,4.5s-6.8-1.9-7.9,0.2c-1.6,2.9,2.5,7.4,7.5,7.3c5-0.1,6.8,1.9,6.8,1.9
				s1.6,3.6-1.8,7.2c-3.4,3.6-11.1,5.8-15.8,6.6c-4.7,0.8-5.4-1.5-5.2-3.8c0,0-1.9-0.1-3.9,2.4c-1.3,1.5-3.5,2-5.3,3.1
				c-1.8,1.1-0.5,4,2.3,2.9c2.5-1,7.3,0.2,14.1-0.4c6.8-0.6,13.1-4.3,18.2-10.1C164.2,224.3,162.6,218.2,167.6,212.5z"/>
			
				<path id="path4938_00000032645821942659095320000014983911916242570141_" inkscape:connector-curvature="0" sodipodi:nodetypes="csccscsc" class="st2" d="
				M126.6,240.4c0.8-0.3,3.2-1.9,4.1-4.3c0.9-2.4,2.4-3.7,2.4-3.7 M158.3,215.1c0,0-2.8-13.3-11.2-21.4
				c-8.1-7.8-14.1-15.9-14.1-15.9s8.1,7.4,15.4,13.9c7.3,6.5,10.3,15.5,11.8,21.9"/>
			
				<path id="path4940_00000090294362611481336330000009240583336911858860_" inkscape:connector-curvature="0" sodipodi:nodetypes="ccsscscccccccccccssccsscccsccccsccscc" d="
				M134.1,179.9l1.5-0.2c0,0-5.9-5.2-8.7-12c-1.3-3.3-1.1-8.2-0.6-12.3c0.5-4.1,1-7.4,1-7.4s-1.4,3.1-2,7.3c-0.6,4.1-0.8,9,0.6,12.6
				l0.1,0.2c0.3,0.7,0.6,1.2,0.9,1.8c-3.2-2.6-6.9-5.3-10.8-5.8c4.4,2.1,9.6,5.1,11.9,8.4C130.5,176,134.1,179.9,134.1,179.9
				L134.1,179.9z M150,193.5l1.1,0.3c0,0-1.9-8.1,1-13.6C148.1,185.7,150,193.5,150,193.5z M124.4,184.6c2.3,0.3,5.4,0.7,8.3,0.8
				c2.8,0.1,4.9,0.7,6.2,1.3c1.3,0.6,1.9,1.2,1.9,1.2l-0.2-1c0,0,0.2-0.4-1.3-1.1s-3.6-1.3-6.6-1.4c-2.9-0.1-5.9-0.4-8.2-0.8
				c-1.3-0.2-2.6-0.4-3.9-0.1C121.9,184.2,123.3,184.5,124.4,184.6z M157.5,201.6c-0.4,2.4-0.1,4-0.1,4l1.1,1c0,0-0.5-2.5,0-4.8
				c0.4-2.3,1.6-5.4,4.3-9.3C159.2,195.8,157.9,199.2,157.5,201.6L157.5,201.6z M154.1,204.8l0.1-1.2c-2.5-2.4-5-2.7-7.5-2.9
				s-4.3,0.7-4.3,0.7S149.6,200.3,154.1,204.8L154.1,204.8z"/>
		</g>
		
			<path id="path4949_00000158010186815695787820000011570898990605429434_" inkscape:connector-curvature="0" sodipodi:nodetypes="cssccsscc" class="st1" d="
			M135.4,235.4c0.3-0.1,4.1-3.8,8.4,0.1c4.2,4,7.7,5.4,10.9,3.3c3.2-2.1,3.4-5.8,3.4-5.8l2.4,3.7c0,0-2.3,6.4-8.9,6.2
			c-6.6-0.2-8.5-3.4-10.6-5c-1.1-0.8-2.9-1.5-4-1.9L135.4,235.4z"/>
		<g id="g4959_00000061454432109201088820000009658385755396019089_">
			
				<path id="path4951_00000163060752116563864820000015126144006374061747_" inkscape:connector-curvature="0" sodipodi:nodetypes="csscscscc" class="st3" d="
				M183.7,232.9c0,0,0.5,12.5-14.1,10.1c-14.6-2.4-17.8-15.6-14.8-24.8c2.8-8.7,13.3-9.5,16.4-6.3c0,0,2.4-1.1,9.9-3.3
				c7.6-2.2,10.9-1.1,13.4,1.6c0,0,3.2-1.9,4.4,0.3c1.2,2.1-1.7,4-1.7,4S198.5,225.1,183.7,232.9z"/>
			
				<path id="path4953_00000146497231999977433660000015586195519613944499_" inkscape:connector-curvature="0" sodipodi:nodetypes="cssccccccccccccccccccccc" class="st2" d="
				M172,211.8c0,0-5,1.7-5.2,7.6c-0.2,6.2,3.3,10.2,8,12.9c4.7,2.7,9.5,0.1,9.5,0.1 M161.1,239.8c0,0-2.1-19,7.5-25.4 M168.4,226.3
				c0,0-3.8,5.2-0.9,16.3 M173.5,231.6c0,0-0.9,8.1,0.9,12 M179.7,233.7c0,0-0.2,4.1,0.6,7.3 M155.7,232.6c0,0,0-15.7,8.6-22
				 M159.2,212.4c0,0,3.7,2.5,8.9,2.8 M155.1,217.3c0,0,7.2,3.2,11.7,3.8 M154,224c0,0,11.5,2.4,15,3 M155.1,231.6
				c0.5,0,11,3.1,24.6,1.9 M160.1,238.6c0,0,7,1.6,22.5-0.7"/>
			
				<path id="path4955_00000166666619127251847890000008775365238480744881_" inkscape:connector-curvature="0" sodipodi:nodetypes="cccccccc" d="
				M195.1,210.6l-0.5-0.8c0,0-1.3,1-1.6,2.4C193.9,211.5,195.1,210.6,195.1,210.6z M197.7,214.5l-0.4-1c-1.2,0.7-1.8,0.9-3.1,1.3
				C195.4,215.2,196.8,214.9,197.7,214.5z"/>
		</g>
	</g>
</g>
<g id="g4971_00000103951780762580350750000013970109412478789304_" transform="translate(9.6590531e-6,0)">
	<g id="g4944_00000068672966331477968150000005976628343030741947_">
		
			<path id="path4936_00000150793357887174041240000012640815336494777253_" inkscape:connector-curvature="0" sodipodi:nodetypes="czsssssssssssssssssssssssssssssssssssssscsscsssssc" class="st1" d="
			M84.1,335c0,0,5.6-6,3.8-8.8c-2.9-4.4-5.6,1.9-7.5,2.8c-2.5,1.2-3-1.9-1.1-4.7s7.1-6.9,7.1-9.9s0.6-4.7,1.7-7.5
			c1.1-2.8-2.8-5.4-6.2-1.9c-3,3.1-5.1,8.7-7.5,7.9c-2.4-0.8-1.5-4.1,1.9-7.7s8.1-9.7,7.5-12.9c-0.8-4.3,1.3-6.8-1.5-9
			s-5.8-1.7-9.6,2.4s-8.3,14.3-11.3,12.1c-2.1-1.5-0.9-7.5,2.6-10.1s4.1-4.5,3.8-6.9c-0.3-2.4,2.6-3.6,0.2-6.4
			c-2.4-2.8-7.9-0.5-9.9,2.2c-2.2,3-2.7,7.3-6,6.6s-1.4-5.2,1.9-8.4c3.1-3,4.6-6.5,1.9-9.2c-2.7-2.7-0.2-4.1-2.4-8.1
			c-2.2-4-10.8-3.5-12.9-0.2c-2.4,3.9-4.7,1.7-6.9,4.9s0.6,6.2,2.1,11.8c1.5,5.6-4.1,6.7-6,2.6s-8.6-5.4-11.4-1.1
			c-2.8,4.2,0.5,5.9,1.7,9.2s2.6,5.8,9.2,7.5s4.1,7.5-2.4,5.2c-6.5-2.3-9.8-3-11.3,1.9s3.4,8.6,9.8,13.5s15.6,2.1,19.9,3.9
			c4.3,1.8,1.6,7.2-3.8,5.8c-4.9-1.3-9.9-2.6-12.2,0.9s2.1,6.6,4.5,7.5s5.2-0.3,8.9,2.5c4.2,3.2,12.6-3.1,18.5-2.7
			c6.4,0.4,7.9,4.3,5.1,4.5c-2.8,0.2-6.8-1.9-7.9,0.2c-1.6,2.9,2.5,7.4,7.5,7.3c5-0.1,6.8,1.9,6.8,1.9s1.6,3.6-1.8,7.2
			s-11.1,5.8-15.8,6.6s-5.4-1.5-5.2-3.8c0,0-1.9-0.1-3.9,2.4c-1.3,1.5-3.5,2-5.3,3.1c-1.8,1.1-0.5,4,2.3,2.9c2.5-1,7.3,0.2,14.1-0.4
			c6.8-0.6,13.1-4.3,18.2-10.1C80.4,346.7,79.1,340.7,84.1,335z"/>
		
			<path id="path4938_00000020357483874101348310000015437495311166317224_" inkscape:connector-curvature="0" sodipodi:nodetypes="csccscsc" class="st2" d="
			M43.1,362.9c0.8-0.3,3.2-1.9,4.1-4.3c0.9-2.4,2.4-3.7,2.4-3.7 M74.9,337.6c0,0-2.8-13.3-11.2-21.4c-8.1-7.8-14.1-15.9-14.1-15.9
			s8.1,7.4,15.4,13.9s10.3,15.5,11.8,21.9"/>
		
			<path id="path4940_00000132090060597471821090000010305128042525685138_" inkscape:connector-curvature="0" sodipodi:nodetypes="ccsscscccccccccccssccsscccsccccsccscc" d="
			M50.7,302.4l1.5-0.2c0,0-5.9-5.2-8.7-12c-1.3-3.3-1.1-8.2-0.6-12.3c0.5-4.1,1-7.4,1-7.4s-1.4,3.1-2,7.3c-0.6,4.1-0.8,9,0.6,12.6
			l0.1,0.2c0.3,0.7,0.6,1.2,0.9,1.8c-3.2-2.6-6.9-5.3-10.8-5.8c4.4,2.1,9.6,5.1,11.9,8.4C47,298.5,50.7,302.4,50.7,302.4L50.7,302.4
			z M66.6,316l1.1,0.3c0,0-1.9-8.1,1-13.6C64.6,308.2,66.6,316,66.6,316z M40.9,307.1c2.3,0.3,5.4,0.7,8.3,0.8
			c2.8,0.1,4.9,0.7,6.2,1.3s1.9,1.2,1.9,1.2l-0.2-1c0,0,0.2-0.4-1.3-1.1c-1.5-0.7-3.6-1.3-6.6-1.4c-2.9-0.1-5.9-0.4-8.2-0.8
			c-1.3-0.2-2.6-0.4-3.9-0.1C38.5,306.7,39.8,307,40.9,307.1z M74,324.1c-0.4,2.4-0.1,4-0.1,4l1.1,1c0,0-0.5-2.5,0-4.8
			c0.4-2.3,1.6-5.4,4.3-9.3C75.8,318.3,74.5,321.7,74,324.1L74,324.1z M70.7,327.3l0.1-1.2c-2.5-2.4-5-2.7-7.5-2.9
			c-2.5-0.2-4.3,0.7-4.3,0.7S66.1,322.8,70.7,327.3L70.7,327.3z"/>
	</g>
	
		<path id="path4949_00000180344662194382957860000010418272076894172034_" inkscape:connector-curvature="0" sodipodi:nodetypes="cssccsscc" class="st1" d="
		M51.9,357.9c0.3-0.1,4.1-3.8,8.4,0.1c4.2,4,7.7,5.4,10.9,3.3c3.2-2.1,3.4-5.8,3.4-5.8l2.4,3.7c0,0-2.3,6.4-8.9,6.2
		c-6.6-0.2-8.5-3.4-10.6-5c-1.1-0.8-2.9-1.5-4-1.9L51.9,357.9z"/>
	<g id="g4959_00000089553649425379681300000015983872418310636690_">
		
			<path id="path4951_00000107568885830447554510000001201839142867409803_" inkscape:connector-curvature="0" sodipodi:nodetypes="csscscscc" class="st3" d="
			M100.3,355.4c0,0,0.5,12.5-14.1,10.1c-14.6-2.4-17.8-15.6-14.8-24.8c2.8-8.7,13.3-9.5,16.4-6.3c0,0,2.4-1.1,9.9-3.3
			c7.6-2.2,10.9-1.1,13.4,1.6c0,0,3.2-1.9,4.4,0.3c1.2,2.1-1.7,4-1.7,4S115.1,347.6,100.3,355.4z"/>
		
			<path id="path4953_00000082360739920881192730000017100242646448943777_" inkscape:connector-curvature="0" sodipodi:nodetypes="cssccccccccccccccccccccc" class="st2" d="
			M88.6,334.3c0,0-5,1.7-5.2,7.6c-0.2,6.2,3.3,10.2,8,12.9s9.5,0.1,9.5,0.1 M77.7,362.3c0,0-2.1-19,7.5-25.4 M85,348.8
			c0,0-3.8,5.2-0.9,16.3 M90.1,354.1c0,0-0.9,8.1,0.9,12 M96.2,356.2c0,0-0.2,4.1,0.6,7.3 M72.2,355.1c0,0,0-15.7,8.6-22
			 M75.7,334.9c0,0,3.7,2.5,8.9,2.8 M71.6,339.8c0,0,7.2,3.2,11.7,3.8 M70.6,346.5c0,0,11.5,2.4,15,3 M71.6,354.1
			c0.5,0,11,3.1,24.6,1.9 M76.7,361.1c0,0,7,1.6,22.5-0.7"/>
		
			<path id="path4955_00000044141260646898016790000013508103009727326368_" inkscape:connector-curvature="0" sodipodi:nodetypes="cccccccc" d="
			M111.7,333.1l-0.5-0.8c0,0-1.3,1-1.6,2.4C110.5,334,111.7,333.1,111.7,333.1z M114.2,337l-0.4-1c-1.2,0.7-1.8,0.9-3.1,1.3
			C111.9,337.7,113.4,337.4,114.2,337z"/>
	</g>
</g>
<g id="use4982_00000085222807928296451600000008987003965982374048_" transform="translate(96.109873,0)">
	<g id="g4971_00000047033784117833766690000012200014666743601081_" transform="translate(9.6590531e-6,0)">
		<g id="g4944_00000181770588542936088750000014898542874688472483_">
			
				<path id="path4936_00000075128005824797174500000006965567077424397199_" inkscape:connector-curvature="0" sodipodi:nodetypes="czsssssssssssssssssssssssssssssssssssssscsscsssssc" class="st1" d="
				M235.9,335c0,0,5.6-6,3.8-8.8c-2.9-4.4-5.6,1.9-7.5,2.8c-2.5,1.2-3-1.9-1.1-4.7s7.1-6.9,7.1-9.9s0.6-4.7,1.7-7.5
				c1.1-2.8-2.8-5.4-6.2-1.9c-3,3.1-5.1,8.7-7.5,7.9c-2.4-0.8-1.5-4.1,1.9-7.7s8.1-9.7,7.5-12.9c-0.8-4.3,1.3-6.8-1.5-9
				s-5.8-1.7-9.6,2.4s-8.3,14.3-11.2,12.2c-2.1-1.5-0.9-7.5,2.6-10.1s4.1-4.5,3.8-6.9c-0.3-2.4,2.6-3.6,0.2-6.4
				c-2.4-2.8-7.9-0.5-9.9,2.2c-2.2,3-2.7,7.3-6,6.6s-1.4-5.2,1.9-8.4c3.1-3,4.6-6.5,1.9-9.2c-2.7-2.7-0.2-4.1-2.4-8.1
				c-2.2-4-10.7-3.5-12.8-0.2c-2.4,3.9-4.7,1.7-6.9,4.9s0.6,6.2,2.1,11.8c1.5,5.6-4.1,6.7-6,2.6s-8.6-5.4-11.4-1.1
				c-2.8,4.2,0.5,5.9,1.7,9.2s2.6,5.8,9.2,7.5s4.1,7.5-2.4,5.2c-6.5-2.3-9.8-3-11.2,1.9s3.4,8.6,9.8,13.5s15.6,2.1,19.9,3.9
				c4.3,1.8,1.6,7.2-3.8,5.8c-4.9-1.3-9.9-2.6-12.2,0.9s2.1,6.6,4.5,7.5s5.2-0.3,8.9,2.5c4.2,3.2,12.6-3.1,18.5-2.7
				c6.4,0.4,7.9,4.3,5.1,4.5c-2.8,0.2-6.8-1.9-7.9,0.2c-1.6,2.9,2.5,7.4,7.5,7.3c5-0.1,6.8,1.9,6.8,1.9s1.6,3.6-1.8,7.2
				s-11.1,5.8-15.8,6.6s-5.4-1.5-5.2-3.8c0,0-1.9-0.1-3.9,2.4c-1.3,1.5-3.5,2-5.3,3.1c-1.8,1.1-0.5,4,2.3,2.9
				c2.5-1,7.3,0.2,14.1-0.4c6.8-0.6,13.1-4.3,18.2-10.1C232.5,346.8,230.9,340.7,235.9,335z"/>
			
				<path id="path4938_00000166673037212038928050000004723631626060792478_" inkscape:connector-curvature="0" sodipodi:nodetypes="csccscsc" class="st2" d="
				M194.9,362.9c0.8-0.3,3.2-1.9,4.1-4.3c0.9-2.4,2.4-3.7,2.4-3.7 M226.6,337.6c0,0-2.8-13.3-11.2-21.4
				c-8.1-7.8-14.1-15.9-14.1-15.9s8.1,7.4,15.4,13.9c7.3,6.5,10.3,15.5,11.8,21.9"/>
			
				<path id="path4940_00000039108758842481638770000001865930139846587031_" inkscape:connector-curvature="0" sodipodi:nodetypes="ccsscscccccccccccssccsscccsccccsccscc" d="
				M202.4,302.4l1.5-0.2c0,0-5.9-5.2-8.7-12c-1.3-3.3-1.1-8.2-0.6-12.3c0.5-4.1,1-7.4,1-7.4s-1.4,3.1-2,7.3c-0.6,4.1-0.8,9,0.6,12.6
				l0.1,0.2c0.3,0.7,0.6,1.2,0.9,1.8c-3.2-2.6-6.9-5.3-10.8-5.8c4.4,2.1,9.6,5.1,11.9,8.4C198.8,298.5,202.4,302.4,202.4,302.4
				L202.4,302.4z M218.3,316l1.1,0.3c0,0-1.9-8.1,1-13.6C216.4,308.2,218.3,316,218.3,316z M192.7,307.1c2.3,0.3,5.4,0.7,8.3,0.8
				c2.8,0.1,4.9,0.7,6.2,1.3s1.9,1.2,1.9,1.2l-0.2-1c0,0,0.2-0.4-1.3-1.1c-1.5-0.7-3.6-1.3-6.6-1.4c-2.9-0.1-5.9-0.4-8.2-0.8
				c-1.3-0.2-2.6-0.4-3.9-0.1C190.2,306.7,191.6,307,192.7,307.1z M225.8,324.1c-0.4,2.4-0.1,4-0.1,4l1.1,1c0,0-0.5-2.5,0-4.8
				c0.4-2.3,1.6-5.4,4.3-9.3C227.5,318.3,226.2,321.7,225.8,324.1L225.8,324.1z M222.4,327.3l0.1-1.2c-2.5-2.4-5-2.7-7.5-2.9
				c-2.5-0.2-4.3,0.7-4.3,0.7S217.9,322.8,222.4,327.3L222.4,327.3z"/>
		</g>
		
			<path id="path4949_00000023250880124287643290000008547240727092241832_" inkscape:connector-curvature="0" sodipodi:nodetypes="cssccsscc" class="st1" d="
			M203.7,357.9c0.3-0.1,4.1-3.8,8.4,0.1c4.2,4,7.7,5.4,10.9,3.3s3.4-5.8,3.4-5.8l2.4,3.7c0,0-2.3,6.4-8.9,6.2
			c-6.6-0.2-8.5-3.4-10.6-5c-1.1-0.8-2.9-1.5-4-1.9L203.7,357.9z"/>
		<g id="g4959_00000012464890225603900670000012250843635932557194_">
			
				<path id="path4951_00000176738802861217939070000005164868983194546056_" inkscape:connector-curvature="0" sodipodi:nodetypes="csscscscc" class="st3" d="
				M252,355.4c0,0,0.5,12.5-14.1,10.1c-14.6-2.4-17.8-15.6-14.8-24.8c2.8-8.7,13.3-9.5,16.4-6.3c0,0,2.4-1.1,9.9-3.3
				c7.6-2.2,10.9-1.1,13.4,1.6c0,0,3.2-1.9,4.4,0.3c1.2,2.1-1.7,4-1.7,4S266.8,347.6,252,355.4z"/>
			
				<path id="path4953_00000107571375425447693640000004389619894086269599_" inkscape:connector-curvature="0" sodipodi:nodetypes="cssccccccccccccccccccccc" class="st2" d="
				M240.3,334.3c0,0-5,1.7-5.2,7.6c-0.2,6.2,3.3,10.2,8,12.9s9.5,0.1,9.5,0.1 M229.5,362.3c0,0-2.1-19,7.5-25.4 M236.8,348.8
				c0,0-3.8,5.2-0.9,16.3 M241.8,354.1c0,0-0.9,8.1,0.9,12 M248,356.2c0,0-0.2,4.1,0.6,7.3 M224,355.1c0,0,0-15.7,8.6-22
				 M227.5,334.9c0,0,3.7,2.5,8.9,2.8 M223.4,339.8c0,0,7.2,3.2,11.7,3.8 M222.3,346.5c0,0,11.5,2.4,15,3 M223.4,354.1
				c0.5,0,11,3.1,24.6,1.9 M228.4,361.1c0,0,7,1.6,22.5-0.7"/>
			
				<path id="path4955_00000110431094961184124010000011998334721438943876_" inkscape:connector-curvature="0" sodipodi:nodetypes="cccccccc" d="
				M263.4,333.1l-0.5-0.8c0,0-1.3,1-1.6,2.4C262.2,334,263.4,333.1,263.4,333.1z M266,337l-0.4-1c-1.2,0.7-1.8,0.9-3.1,1.3
				C263.7,337.7,265.1,337.4,266,337z"/>
		</g>
	</g>
</g>
<g id="use4984_00000012432731542479523910000018105854658320365487_" transform="translate(192.21974,0)">
	<g id="g4971_00000114036555050856545700000003428912580051692965_" transform="translate(9.6590531e-6,0)">
		<g id="g4944_00000138531829430390493130000017301083461708337583_">
			
				<path id="path4936_00000107558942616415242350000015757342522752525215_" inkscape:connector-curvature="0" sodipodi:nodetypes="czsssssssssssssssssssssssssssssssssssssscsscsssssc" class="st1" d="
				M387.5,335c0,0,5.6-6,3.8-8.8c-2.9-4.4-5.6,1.9-7.5,2.8c-2.5,1.2-3-1.9-1.1-4.7s7.1-6.9,7.1-9.9s0.6-4.7,1.7-7.5
				c1.1-2.8-2.8-5.4-6.2-1.9c-3,3.1-5.1,8.7-7.5,7.9c-2.4-0.8-1.5-4.1,1.9-7.7s8.1-9.7,7.5-12.9c-0.8-4.3,1.3-6.8-1.5-9
				s-5.8-1.7-9.6,2.4s-8.3,14.3-11.2,12.2c-2.1-1.5-0.9-7.5,2.6-10.1s4.1-4.5,3.8-6.9c-0.3-2.4,2.6-3.6,0.2-6.4
				c-2.4-2.8-7.9-0.5-9.9,2.2c-2.2,3-2.7,7.3-6,6.6s-1.4-5.2,1.9-8.4c3.1-3,4.6-6.5,1.9-9.2c-2.7-2.7-0.2-4.1-2.4-8.1
				c-2.2-4-10.7-3.5-12.8-0.2c-2.4,3.9-4.7,1.7-6.9,4.9s0.6,6.2,2.1,11.8c1.5,5.6-4.1,6.7-6,2.6s-8.6-5.4-11.4-1.1
				c-2.8,4.2,0.5,5.9,1.7,9.2s2.6,5.8,9.2,7.5s4.1,7.5-2.4,5.2c-6.5-2.3-9.8-3-11.2,1.9s3.4,8.6,9.8,13.5s15.6,2.1,19.9,3.9
				c4.3,1.8,1.6,7.2-3.8,5.8c-4.9-1.3-9.9-2.6-12.2,0.9s2.1,6.6,4.5,7.5s5.2-0.3,8.9,2.5c4.2,3.2,12.6-3.1,18.5-2.7
				c6.4,0.4,7.9,4.3,5.1,4.5c-2.8,0.2-6.8-1.9-7.9,0.2c-1.6,2.9,2.5,7.4,7.5,7.3c5-0.1,6.8,1.9,6.8,1.9s1.6,3.6-1.8,7.2
				s-11.1,5.8-15.8,6.6s-5.4-1.5-5.2-3.8c0,0-1.9-0.1-3.9,2.4c-1.3,1.5-3.5,2-5.3,3.1c-1.8,1.1-0.5,4,2.3,2.9
				c2.5-1,7.3,0.2,14.1-0.4c6.8-0.6,13.1-4.3,18.2-10.1C384.1,346.8,382.5,340.7,387.5,335z"/>
			
				<path id="path4938_00000141445958260232329800000013694514677894345869_" inkscape:connector-curvature="0" sodipodi:nodetypes="csccscsc" class="st2" d="
				M346.5,362.9c0.8-0.3,3.2-1.9,4.1-4.3s2.4-3.7,2.4-3.7 M378.2,337.6c0,0-2.8-13.3-11.2-21.4c-8.1-7.8-14.1-15.9-14.1-15.9
				s8.1,7.4,15.4,13.9s10.3,15.5,11.8,21.9"/>
			
				<path id="path4940_00000036944918650722231470000009075669495003022476_" inkscape:connector-curvature="0" sodipodi:nodetypes="ccsscscccccccccccssccsscccsccccsccscc" d="
				M354,302.4l1.5-0.2c0,0-5.9-5.2-8.7-12c-1.3-3.3-1.1-8.2-0.6-12.3c0.5-4.1,1-7.4,1-7.4s-1.4,3.1-2,7.3c-0.6,4.1-0.8,9,0.6,12.6
				l0.1,0.2c0.3,0.7,0.6,1.2,0.9,1.8c-3.2-2.6-6.9-5.3-10.8-5.8c4.4,2.1,9.6,5.1,11.9,8.4C350.4,298.5,354,302.4,354,302.4
				L354,302.4z M369.9,316l1.1,0.3c0,0-1.9-8.1,1-13.6C368,308.2,369.9,316,369.9,316z M344.3,307.1c2.3,0.3,5.4,0.7,8.3,0.8
				c2.8,0.1,4.9,0.7,6.2,1.3c1.3,0.6,1.9,1.2,1.9,1.2l-0.2-1c0,0,0.2-0.4-1.3-1.1c-1.5-0.7-3.6-1.3-6.6-1.4
				c-2.9-0.1-5.9-0.4-8.2-0.8c-1.3-0.2-2.6-0.4-3.9-0.1C341.8,306.7,343.2,307,344.3,307.1z M377.4,324.1c-0.4,2.4-0.1,4-0.1,4
				l1.1,1c0,0-0.5-2.5,0-4.8c0.4-2.3,1.6-5.4,4.3-9.3C379.1,318.3,377.8,321.7,377.4,324.1L377.4,324.1z M374,327.3l0.1-1.2
				c-2.5-2.4-5-2.7-7.5-2.9c-2.5-0.2-4.3,0.7-4.3,0.7S369.4,322.8,374,327.3L374,327.3z"/>
		</g>
		
			<path id="path4949_00000090983110577595901910000008268795217577535634_" inkscape:connector-curvature="0" sodipodi:nodetypes="cssccsscc" class="st1" d="
			M355.3,357.9c0.3-0.1,4.1-3.8,8.4,0.1c4.2,4,7.7,5.4,10.9,3.3c3.2-2.1,3.4-5.8,3.4-5.8l2.4,3.7c0,0-2.3,6.4-8.9,6.2
			c-6.6-0.2-8.5-3.4-10.6-5c-1.1-0.8-2.9-1.5-4-1.9L355.3,357.9z"/>
		<g id="g4959_00000025401135666803727110000009858979492950808968_">
			
				<path id="path4951_00000039119259654146000900000015502798437667226771_" inkscape:connector-curvature="0" sodipodi:nodetypes="csscscscc" class="st3" d="
				M403.6,355.4c0,0,0.5,12.5-14.1,10.1c-14.6-2.4-17.8-15.6-14.8-24.8c2.8-8.7,13.3-9.5,16.4-6.3c0,0,2.4-1.1,9.9-3.3
				c7.6-2.2,10.9-1.1,13.4,1.6c0,0,3.2-1.9,4.4,0.3c1.2,2.1-1.7,4-1.7,4S418.4,347.6,403.6,355.4z"/>
			
				<path id="path4953_00000129183935135011001070000010321856026776718745_" inkscape:connector-curvature="0" sodipodi:nodetypes="cssccccccccccccccccccccc" class="st2" d="
				M391.9,334.3c0,0-5,1.7-5.2,7.6c-0.2,6.2,3.3,10.2,8,12.9s9.5,0.1,9.5,0.1 M381,362.3c0,0-2.1-19,7.5-25.4 M388.3,348.8
				c0,0-3.8,5.2-0.9,16.3 M393.4,354.1c0,0-0.9,8.1,0.9,12 M399.6,356.2c0,0-0.2,4.1,0.6,7.3 M375.6,355.1c0,0,0-15.7,8.6-22
				 M379.1,334.9c0,0,3.7,2.5,8.9,2.8 M375,339.8c0,0,7.2,3.2,11.7,3.8 M373.9,346.5c0,0,11.5,2.4,15,3 M375,354.1
				c0.5,0,11,3.1,24.6,1.9 M380,361.1c0,0,7,1.6,22.5-0.7"/>
			
				<path id="path4955_00000026854424997324884260000010698193119208017280_" inkscape:connector-curvature="0" sodipodi:nodetypes="cccccccc" d="
				M415,333.1l-0.5-0.8c0,0-1.3,1-1.6,2.4C413.8,334,415,333.1,415,333.1z M417.6,337l-0.4-1c-1.2,0.7-1.8,0.9-3.1,1.3
				C415.2,337.7,416.7,337.4,417.6,337z"/>
		</g>
	</g>
</g>
<g id="use4986_00000080887522019684514400000000409126512020721559_" transform="translate(288.3296,0)">
	<g id="g4971_00000160909449072616048580000008166785891316654744_" transform="translate(9.6590531e-6,0)">
		<g id="g4944_00000103237850123315868360000002278302274315543463_">
			
				<path id="path4936_00000138557578422297488310000012499014538859212677_" inkscape:connector-curvature="0" sodipodi:nodetypes="czsssssssssssssssssssssssssssssssssssssscsscsssssc" class="st1" d="
				M415.3,335c0,0,5.6-6,3.8-8.8c-2.9-4.4-5.6,1.9-7.5,2.8c-2.5,1.2-3-1.9-1.1-4.7s7.1-6.9,7.1-9.9s0.6-4.7,1.7-7.5
				c1.1-2.8-2.8-5.4-6.2-1.9c-3,3.1-5.1,8.7-7.5,7.9c-2.4-0.8-1.5-4.1,1.9-7.7s8.1-9.7,7.5-12.9c-0.8-4.3,1.3-6.8-1.5-9
				s-5.8-1.7-9.6,2.4s-8.3,14.3-11.2,12.2c-2.1-1.5-0.9-7.5,2.6-10.1s4.1-4.5,3.8-6.9c-0.3-2.4,2.6-3.6,0.2-6.4
				c-2.4-2.8-7.9-0.5-9.9,2.2c-2.2,3-2.7,7.3-6,6.6s-1.4-5.2,1.9-8.4c3.1-3,4.6-6.5,1.9-9.2c-2.7-2.7-0.2-4.1-2.4-8.1
				c-2.2-4-10.7-3.5-12.8-0.2c-2.4,3.9-4.7,1.7-6.9,4.9s0.6,6.2,2.1,11.8c1.5,5.6-4.1,6.7-6,2.6s-8.6-5.4-11.4-1.1
				c-2.8,4.2,0.5,5.9,1.7,9.2s2.6,5.8,9.2,7.5s4.1,7.5-2.4,5.2c-6.5-2.3-9.8-3-11.2,1.9s3.4,8.6,9.8,13.5s15.6,2.1,19.9,3.9
				c4.3,1.8,1.6,7.2-3.8,5.8c-4.9-1.3-9.9-2.6-12.2,0.9s2.1,6.6,4.5,7.5s5.2-0.3,8.9,2.5c4.2,3.2,12.6-3.1,18.5-2.7
				c6.4,0.4,7.9,4.3,5.1,4.5c-2.8,0.2-6.8-1.9-7.9,0.2c-1.6,2.9,2.5,7.4,7.5,7.3c5-0.1,6.8,1.9,6.8,1.9s1.6,3.6-1.8,7.2
				s-11.1,5.8-15.8,6.6s-5.4-1.5-5.2-3.8c0,0-1.9-0.1-3.9,2.4c-1.3,1.5-3.5,2-5.3,3.1c-1.8,1.1-0.5,4,2.3,2.9
				c2.5-1,7.3,0.2,14.1-0.4c6.8-0.6,13.1-4.3,18.2-10.1C411.9,346.8,410.3,340.7,415.3,335z"/>
			
				<path id="path4938_00000092450242066433550200000010464412964471804844_" inkscape:connector-curvature="0" sodipodi:nodetypes="csccscsc" class="st2" d="
				M374.3,362.9c0.8-0.3,3.2-1.9,4.1-4.3s2.4-3.7,2.4-3.7 M406.1,337.6c0,0-2.8-13.3-11.2-21.4c-8.1-7.8-14.1-15.9-14.1-15.9
				s8.1,7.4,15.4,13.9s10.3,15.5,11.8,21.9"/>
			
				<path id="path4940_00000036947237922954201450000006456511374912564873_" inkscape:connector-curvature="0" sodipodi:nodetypes="ccsscscccccccccccssccsscccsccccsccscc" d="
				M381.9,302.4l1.5-0.2c0,0-5.9-5.2-8.7-12c-1.3-3.3-1.1-8.2-0.6-12.3c0.5-4.1,1-7.4,1-7.4s-1.4,3.1-2,7.3c-0.6,4.1-0.8,9,0.6,12.6
				l0.1,0.2c0.3,0.7,0.6,1.2,0.9,1.8c-3.2-2.6-6.9-5.3-10.8-5.8c4.4,2.1,9.6,5.1,11.9,8.4C378.2,298.5,381.9,302.4,381.9,302.4
				L381.9,302.4z M397.8,316l1.1,0.3c0,0-1.9-8.1,1-13.6C395.8,308.2,397.8,316,397.8,316z M372.1,307.1c2.3,0.3,5.4,0.7,8.3,0.8
				c2.8,0.1,4.9,0.7,6.2,1.3c1.3,0.6,1.9,1.2,1.9,1.2l-0.2-1c0,0,0.2-0.4-1.3-1.1c-1.5-0.7-3.6-1.3-6.6-1.4
				c-2.9-0.1-5.9-0.4-8.2-0.8c-1.3-0.2-2.6-0.4-3.9-0.1C369.7,306.7,371.1,307,372.1,307.1z M405.2,324.1c-0.4,2.4-0.1,4-0.1,4
				l1.1,1c0,0-0.5-2.5,0-4.8c0.4-2.3,1.6-5.4,4.3-9.3C407,318.3,405.7,321.7,405.2,324.1L405.2,324.1z M401.9,327.3l0.1-1.2
				c-2.5-2.4-5-2.7-7.5-2.9c-2.5-0.2-4.3,0.7-4.3,0.7S397.3,322.8,401.9,327.3L401.9,327.3z"/>
		</g>
		
			<path id="path4949_00000137812421527134657690000009825930056483715223_" inkscape:connector-curvature="0" sodipodi:nodetypes="cssccsscc" class="st1" d="
			M383.1,357.9c0.3-0.1,4.1-3.8,8.4,0.1c4.2,4,7.7,5.4,10.9,3.3c3.2-2.1,3.4-5.8,3.4-5.8l2.4,3.7c0,0-2.3,6.4-8.9,6.2
			c-6.6-0.2-8.5-3.4-10.6-5c-1.1-0.8-2.9-1.5-4-1.9L383.1,357.9z"/>
		<g id="g4959_00000149342049971555304800000018434711825314463896_">
			
				<path id="path4951_00000101786241283768679190000013493175791665232035_" inkscape:connector-curvature="0" sodipodi:nodetypes="csscscscc" class="st3" d="
				M431.5,355.4c0,0,0.5,12.5-14.1,10.1c-14.6-2.4-17.8-15.6-14.8-24.8c2.8-8.7,13.3-9.5,16.4-6.3c0,0,2.4-1.1,9.9-3.3
				c7.6-2.2,10.9-1.1,13.4,1.6c0,0,3.2-1.9,4.4,0.3c1.2,2.1-1.7,4-1.7,4S446.3,347.6,431.5,355.4z"/>
			
				<path id="path4953_00000018920110194883816990000011374333978579397552_" inkscape:connector-curvature="0" sodipodi:nodetypes="cssccccccccccccccccccccc" class="st2" d="
				M419.8,334.3c0,0-5,1.7-5.2,7.6c-0.2,6.2,3.3,10.2,8,12.9s9.5,0.1,9.5,0.1 M408.9,362.3c0,0-2.1-19,7.5-25.4 M416.2,348.8
				c0,0-3.8,5.2-0.9,16.3 M421.3,354.1c0,0-0.9,8.1,0.9,12 M427.5,356.2c0,0-0.2,4.1,0.6,7.3 M403.5,355.1c0,0,0-15.7,8.6-22
				 M407,334.9c0,0,3.7,2.5,8.9,2.8 M402.8,339.8c0,0,7.2,3.2,11.7,3.8 M401.8,346.5c0,0,11.5,2.4,15,3 M402.8,354.1
				c0.5,0,11,3.1,24.6,1.9 M407.9,361.1c0,0,7,1.6,22.5-0.7"/>
			
				<path id="path4955_00000178922149798185732240000007022591963435252883_" inkscape:connector-curvature="0" sodipodi:nodetypes="cccccccc" d="
				M442.9,333.1l-0.5-0.8c0,0-1.3,1-1.6,2.4C441.7,334,442.9,333.1,442.9,333.1z M445.4,337l-0.4-1c-1.2,0.7-1.8,0.9-3.1,1.3
				C443.1,337.7,444.6,337.4,445.4,337z"/>
		</g>
	</g>
</g>
<g id="use4984_00000070085194361679394930000006081624377721151159_" transform="translate(192.21974,0)">
	<g id="g4971_00000070112474277634319870000011425511021679341964_" transform="translate(9.6590531e-6,0)">
		<g id="g4944_00000040567519205639577390000000619118025913381787_">
			
				<path id="path4936_00000173150253134578502990000012775423215269406867_" inkscape:connector-curvature="0" sodipodi:nodetypes="czsssssssssssssssssssssssssssssssssssssscsscsssssc" class="st1" d="
				M15.8,335c0,0,5.6-6,3.8-8.8c-2.9-4.4-5.6,1.9-7.5,2.8c-2.5,1.2-3-1.9-1.1-4.7s7.1-6.9,7.1-9.9s0.6-4.7,1.7-7.5
				c1.1-2.8-2.8-5.4-6.2-1.9c-3,3.1-5.1,8.7-7.5,7.9c-2.4-0.8-1.5-4.1,1.9-7.7s8.1-9.7,7.5-12.9c-0.8-4.3,1.3-6.8-1.5-9
				s-5.8-1.7-9.6,2.4S-3.9,300-6.8,297.9c-2.1-1.5-0.9-7.5,2.6-10.1s4.1-4.5,3.8-6.9c-0.3-2.4,2.6-3.6,0.2-6.4
				c-2.4-2.8-7.9-0.5-9.9,2.2c-2.2,3-2.7,7.3-6,6.6s-1.4-5.2,1.9-8.4c3.1-3,4.6-6.5,1.9-9.2c-2.7-2.7-0.2-4.1-2.4-8.1
				c-2.2-4-10.7-3.5-12.8-0.2c-2.4,3.9-4.7,1.7-6.9,4.9s0.6,6.2,2.1,11.8c1.5,5.6-4.1,6.7-6,2.6s-8.6-5.4-11.4-1.1
				c-2.8,4.2,0.5,5.9,1.7,9.2c1.2,3.3,2.6,5.8,9.2,7.5s4.1,7.5-2.4,5.2c-6.5-2.3-9.8-3-11.2,1.9s3.4,8.6,9.8,13.5
				c6.4,4.9,15.6,2.1,19.9,3.9c4.3,1.8,1.6,7.2-3.8,5.8c-4.9-1.3-9.9-2.6-12.2,0.9s2.1,6.6,4.5,7.5s5.2-0.3,8.9,2.5
				c4.2,3.2,12.6-3.1,18.5-2.7c6.4,0.4,7.9,4.3,5.1,4.5c-2.8,0.2-6.8-1.9-7.9,0.2c-1.6,2.9,2.5,7.4,7.5,7.3c5-0.1,6.8,1.9,6.8,1.9
				s1.6,3.6-1.8,7.2s-11.1,5.8-15.8,6.6s-5.4-1.5-5.2-3.8c0,0-1.9-0.1-3.9,2.4c-1.3,1.5-3.5,2-5.3,3.1c-1.8,1.1-0.5,4,2.3,2.9
				c2.5-1,7.3,0.2,14.1-0.4c6.8-0.6,13.1-4.3,18.2-10.1C12.4,346.8,10.8,340.7,15.8,335z"/>
			
				<path id="path4938_00000036941992023266912460000016245584382833811640_" inkscape:connector-curvature="0" sodipodi:nodetypes="csccscsc" class="st2" d="
				M-25.2,362.9c0.8-0.3,3.2-1.9,4.1-4.3c0.9-2.4,2.4-3.7,2.4-3.7 M6.6,337.6c0,0-2.8-13.3-11.2-21.4c-8.1-7.8-14.1-15.9-14.1-15.9
				s8.1,7.4,15.4,13.9C4,320.7,7,329.7,8.5,336.1"/>
			
				<path id="path4940_00000127032354948581439620000008278161959549930632_" inkscape:connector-curvature="0" sodipodi:nodetypes="ccsscscccccccccccssccsscccsccccsccscc" d="
				M-17.7,302.4l1.5-0.2c0,0-5.9-5.2-8.7-12c-1.3-3.3-1.1-8.2-0.6-12.3c0.5-4.1,1-7.4,1-7.4s-1.4,3.1-2,7.3c-0.6,4.1-0.8,9,0.6,12.6
				l0.1,0.2c0.3,0.7,0.6,1.2,0.9,1.8c-3.2-2.6-6.9-5.3-10.8-5.8c4.4,2.1,9.6,5.1,11.9,8.4C-21.3,298.5-17.7,302.4-17.7,302.4
				L-17.7,302.4z M-1.8,316l1.1,0.3c0,0-1.9-8.1,1-13.6C-3.7,308.2-1.8,316-1.8,316z M-27.4,307.1c2.3,0.3,5.4,0.7,8.3,0.8
				c2.8,0.1,4.9,0.7,6.2,1.3s1.9,1.2,1.9,1.2l-0.2-1c0,0,0.2-0.4-1.3-1.1c-1.5-0.7-3.6-1.3-6.6-1.4c-2.9-0.1-5.9-0.4-8.2-0.8
				c-1.3-0.2-2.6-0.4-3.9-0.1C-29.9,306.7-28.5,307-27.4,307.1z M5.7,324.1c-0.4,2.4-0.1,4-0.1,4l1.1,1c0,0-0.5-2.5,0-4.8
				c0.4-2.3,1.6-5.4,4.3-9.3C7.4,318.3,6.2,321.7,5.7,324.1L5.7,324.1z M2.3,327.3l0.1-1.2c-2.5-2.4-5-2.7-7.5-2.9
				c-2.5-0.2-4.3,0.7-4.3,0.7S-2.2,322.8,2.3,327.3L2.3,327.3z"/>
		</g>
		
			<path id="path4949_00000058569105131682736550000001592424719435182513_" inkscape:connector-curvature="0" sodipodi:nodetypes="cssccsscc" class="st1" d="
			M-16.4,357.9c0.3-0.1,4.1-3.8,8.4,0.1c4.2,4,7.7,5.4,10.9,3.3s3.4-5.8,3.4-5.8l2.4,3.7c0,0-2.3,6.4-8.9,6.2
			c-6.6-0.2-8.5-3.4-10.6-5c-1.1-0.8-2.9-1.5-4-1.9L-16.4,357.9z"/>
		<g id="g4959_00000103237651500942993530000001822662613244923806_">
			
				<path id="path4951_00000071546848906091311150000000798420579985021850_" inkscape:connector-curvature="0" sodipodi:nodetypes="csscscscc" class="st3" d="
				M32,355.4c0,0,0.5,12.5-14.1,10.1c-14.6-2.4-17.8-15.6-14.8-24.8c2.8-8.7,13.3-9.5,16.4-6.3c0,0,2.4-1.1,9.9-3.3
				c7.6-2.2,10.9-1.1,13.4,1.6c0,0,3.2-1.9,4.4,0.3c1.2,2.1-1.7,4-1.7,4S46.8,347.6,32,355.4z"/>
			
				<path id="path4953_00000051364478453420622460000011460886564501044897_" inkscape:connector-curvature="0" sodipodi:nodetypes="cssccccccccccccccccccccc" class="st2" d="
				M20.2,334.3c0,0-5,1.7-5.2,7.6c-0.2,6.2,3.3,10.2,8,12.9s9.5,0.1,9.5,0.1 M9.4,362.3c0,0-2.1-19,7.5-25.4 M16.7,348.8
				c0,0-3.8,5.2-0.9,16.3 M21.7,354.1c0,0-0.9,8.1,0.9,12 M27.9,356.2c0,0-0.2,4.1,0.6,7.3 M3.9,355.1c0,0,0-15.7,8.6-22 M7.4,334.9
				c0,0,3.7,2.5,8.9,2.8 M3.3,339.8c0,0,7.2,3.2,11.7,3.8 M2.3,346.5c0,0,11.5,2.4,15,3 M3.3,354.1c0.5,0,11,3.1,24.6,1.9
				 M8.4,361.1c0,0,7,1.6,22.5-0.7"/>
			
				<path id="path4955_00000182490701790860866890000013939553213116532376_" inkscape:connector-curvature="0" sodipodi:nodetypes="cccccccc" d="
				M43.3,333.1l-0.5-0.8c0,0-1.3,1-1.6,2.4C42.1,334,43.3,333.1,43.3,333.1z M45.9,337l-0.4-1c-1.2,0.7-1.8,0.9-3.1,1.3
				C43.6,337.7,45,337.4,45.9,337z"/>
		</g>
	</g>
</g>
<g id="use4986_00000057117093895625852240000006043647684106046360_" transform="translate(288.3296,0)">
	<g id="g4971_00000039853429315779955730000007676861559443000980_" transform="translate(9.6590531e-6,0)">
		<g id="g4944_00000092428900759497497950000011147620587704650175_">
			
				<path id="path4936_00000084506490627617052230000007152049520657966771_" inkscape:connector-curvature="0" sodipodi:nodetypes="czsssssssssssssssssssssssssssssssssssssscsscsssssc" class="st1" d="
				M167.6,335c0,0,5.6-6,3.8-8.8c-2.9-4.4-5.6,1.9-7.5,2.8c-2.5,1.2-3-1.9-1.1-4.7s7.1-6.9,7.1-9.9s0.6-4.7,1.7-7.5
				c1.1-2.8-2.8-5.4-6.2-1.9c-3,3.1-5.1,8.7-7.5,7.9c-2.4-0.8-1.5-4.1,1.9-7.7s8.1-9.7,7.5-12.9c-0.8-4.3,1.3-6.8-1.5-9
				s-5.8-1.7-9.6,2.4s-8.3,14.3-11.2,12.2c-2.1-1.5-0.9-7.5,2.6-10.1s4.1-4.5,3.8-6.9c-0.3-2.4,2.6-3.6,0.2-6.4
				c-2.4-2.8-7.9-0.5-9.9,2.2c-2.2,3-2.7,7.3-6,6.6s-1.4-5.2,1.9-8.4c3.1-3,4.6-6.5,1.9-9.2c-2.7-2.7-0.2-4.1-2.4-8.1
				c-2.2-4-10.7-3.5-12.8-0.2c-2.4,3.9-4.7,1.7-6.9,4.9s0.6,6.2,2.1,11.8c1.5,5.6-4.1,6.7-6,2.6s-8.6-5.4-11.4-1.1
				c-2.8,4.2,0.5,5.9,1.7,9.2s2.6,5.8,9.2,7.5s4.1,7.5-2.4,5.2c-6.5-2.3-9.8-3-11.2,1.9s3.4,8.6,9.8,13.5s15.6,2.1,19.9,3.9
				c4.3,1.8,1.6,7.2-3.8,5.8c-4.9-1.3-9.9-2.6-12.2,0.9s2.1,6.6,4.5,7.5s5.2-0.3,8.9,2.5c4.2,3.2,12.6-3.1,18.5-2.7
				c6.4,0.4,7.9,4.3,5.1,4.5c-2.8,0.2-6.8-1.9-7.9,0.2c-1.6,2.9,2.5,7.4,7.5,7.3c5-0.1,6.8,1.9,6.8,1.9s1.6,3.6-1.8,7.2
				s-11.1,5.8-15.8,6.6s-5.4-1.5-5.2-3.8c0,0-1.9-0.1-3.9,2.4c-1.3,1.5-3.5,2-5.3,3.1c-1.8,1.1-0.5,4,2.3,2.9
				c2.5-1,7.3,0.2,14.1-0.4c6.8-0.6,13.1-4.3,18.2-10.1C164.2,346.8,162.6,340.7,167.6,335z"/>
			
				<path id="path4938_00000077320032068009359490000007592465651624957069_" inkscape:connector-curvature="0" sodipodi:nodetypes="csccscsc" class="st2" d="
				M126.6,362.9c0.8-0.3,3.2-1.9,4.1-4.3c0.9-2.4,2.4-3.7,2.4-3.7 M158.3,337.6c0,0-2.8-13.3-11.2-21.4
				c-8.1-7.8-14.1-15.9-14.1-15.9s8.1,7.4,15.4,13.9c7.3,6.5,10.3,15.5,11.8,21.9"/>
			
				<path id="path4940_00000101783274845473688020000002964131235817489309_" inkscape:connector-curvature="0" sodipodi:nodetypes="ccsscscccccccccccssccsscccsccccsccscc" d="
				M134.1,302.4l1.5-0.2c0,0-5.9-5.2-8.7-12c-1.3-3.3-1.1-8.2-0.6-12.3c0.5-4.1,1-7.4,1-7.4s-1.4,3.1-2,7.3c-0.6,4.1-0.8,9,0.6,12.6
				l0.1,0.2c0.3,0.7,0.6,1.2,0.9,1.8c-3.2-2.6-6.9-5.3-10.8-5.8c4.4,2.1,9.6,5.1,11.9,8.4C130.5,298.5,134.1,302.4,134.1,302.4
				L134.1,302.4z M150,316l1.1,0.3c0,0-1.9-8.1,1-13.6C148.1,308.2,150,316,150,316z M124.4,307.1c2.3,0.3,5.4,0.7,8.3,0.8
				c2.8,0.1,4.9,0.7,6.2,1.3s1.9,1.2,1.9,1.2l-0.2-1c0,0,0.2-0.4-1.3-1.1c-1.5-0.7-3.6-1.3-6.6-1.4c-2.9-0.1-5.9-0.4-8.2-0.8
				c-1.3-0.2-2.6-0.4-3.9-0.1C121.9,306.7,123.3,307,124.4,307.1z M157.5,324.1c-0.4,2.4-0.1,4-0.1,4l1.1,1c0,0-0.5-2.5,0-4.8
				c0.4-2.3,1.6-5.4,4.3-9.3C159.2,318.3,157.9,321.7,157.5,324.1L157.5,324.1z M154.1,327.3l0.1-1.2c-2.5-2.4-5-2.7-7.5-2.9
				c-2.5-0.2-4.3,0.7-4.3,0.7S149.6,322.8,154.1,327.3L154.1,327.3z"/>
		</g>
		
			<path id="path4949_00000142873530530131722350000009176584820780627850_" inkscape:connector-curvature="0" sodipodi:nodetypes="cssccsscc" class="st1" d="
			M135.4,357.9c0.3-0.1,4.1-3.8,8.4,0.1c4.2,4,7.7,5.4,10.9,3.3s3.4-5.8,3.4-5.8l2.4,3.7c0,0-2.3,6.4-8.9,6.2
			c-6.6-0.2-8.5-3.4-10.6-5c-1.1-0.8-2.9-1.5-4-1.9L135.4,357.9z"/>
		<g id="g4959_00000005981689013153967000000011527245566275761037_">
			
				<path id="path4951_00000094595502054950113340000015104483209106182843_" inkscape:connector-curvature="0" sodipodi:nodetypes="csscscscc" class="st3" d="
				M183.7,355.4c0,0,0.5,12.5-14.1,10.1c-14.6-2.4-17.8-15.6-14.8-24.8c2.8-8.7,13.3-9.5,16.4-6.3c0,0,2.4-1.1,9.9-3.3
				c7.6-2.2,10.9-1.1,13.4,1.6c0,0,3.2-1.9,4.4,0.3c1.2,2.1-1.7,4-1.7,4S198.5,347.6,183.7,355.4z"/>
			
				<path id="path4953_00000149359428010413974640000012207355829374561705_" inkscape:connector-curvature="0" sodipodi:nodetypes="cssccccccccccccccccccccc" class="st2" d="
				M172,334.3c0,0-5,1.7-5.2,7.6c-0.2,6.2,3.3,10.2,8,12.9s9.5,0.1,9.5,0.1 M161.1,362.3c0,0-2.1-19,7.5-25.4 M168.4,348.8
				c0,0-3.8,5.2-0.9,16.3 M173.5,354.1c0,0-0.9,8.1,0.9,12 M179.7,356.2c0,0-0.2,4.1,0.6,7.3 M155.7,355.1c0,0,0-15.7,8.6-22
				 M159.2,334.9c0,0,3.7,2.5,8.9,2.8 M155.1,339.8c0,0,7.2,3.2,11.7,3.8 M154,346.5c0,0,11.5,2.4,15,3 M155.1,354.1
				c0.5,0,11,3.1,24.6,1.9 M160.1,361.1c0,0,7,1.6,22.5-0.7"/>
			
				<path id="path4955_00000057847320340212573020000000453442465154301359_" inkscape:connector-curvature="0" sodipodi:nodetypes="cccccccc" d="
				M195.1,333.1l-0.5-0.8c0,0-1.3,1-1.6,2.4C193.9,334,195.1,333.1,195.1,333.1z M197.7,337l-0.4-1c-1.2,0.7-1.8,0.9-3.1,1.3
				C195.4,337.7,196.8,337.4,197.7,337z"/>
		</g>
	</g>
</g>
</svg>
