<?xml version="1.0" encoding="UTF-8" standalone="no"?>
<!-- Created with Inkscape (http://www.inkscape.org/) -->

<svg
   xmlns:dc="http://purl.org/dc/elements/1.1/"
   xmlns:cc="http://creativecommons.org/ns#"
   xmlns:rdf="http://www.w3.org/1999/02/22-rdf-syntax-ns#"
   xmlns:svg="http://www.w3.org/2000/svg"
   xmlns="http://www.w3.org/2000/svg"
   xmlns:sodipodi="http://sodipodi.sourceforge.net/DTD/sodipodi-0.dtd"
   xmlns:inkscape="http://www.inkscape.org/namespaces/inkscape"
   version="1.1"
   id="svg2699"
   width="1200"
   height="600"
   viewBox="0 0 1200 600"
   sodipodi:docname="Flag of Vecumnieku novads.svg"
   inkscape:version="0.92.1 r15371">
  <metadata
     id="metadata2705">
    <rdf:RDF>
      <cc:Work
         rdf:about="">
        <dc:format>image/svg+xml</dc:format>
        <dc:type
           rdf:resource="http://purl.org/dc/dcmitype/StillImage" />
        <dc:title />
      </cc:Work>
    </rdf:RDF>
  </metadata>
  <defs
     id="defs2703" />
  <sodipodi:namedview
     pagecolor="#ffffff"
     bordercolor="#666666"
     borderopacity="1"
     objecttolerance="10"
     gridtolerance="10"
     guidetolerance="10"
     inkscape:pageopacity="0"
     inkscape:pageshadow="2"
     inkscape:window-width="1920"
     inkscape:window-height="986"
     id="namedview2701"
     showgrid="false"
     inkscape:zoom="1.1125147"
     inkscape:cx="174.72559"
     inkscape:cy="311.68524"
     inkscape:window-x="-4"
     inkscape:window-y="-4"
     inkscape:window-maximized="1"
     inkscape:current-layer="svg2699" />
  <rect
     style="fill:#ba7906;fill-opacity:1;stroke:none;stroke-width:2.78280449;stroke-miterlimit:4;stroke-dasharray:none;stroke-opacity:1"
     id="rect2709"
     width="1200"
     height="240"
     x="0"
     y="0" />
  <rect
     style="fill:#babcb9;fill-opacity:1;stroke:none;stroke-width:2.78280449;stroke-miterlimit:4;stroke-dasharray:none;stroke-opacity:1"
     id="rect2709-0"
     width="1200"
     height="240"
     x="3.0517578e-005"
     y="360" />
  <rect
     style="fill:#ffffff;fill-opacity:1;stroke:none;stroke-width:1.96773994;stroke-miterlimit:4;stroke-dasharray:none;stroke-opacity:1"
     id="rect2709-0-0"
     width="1200"
     height="120"
     x="0"
     y="240" />
  <g
     id="g3417"
     transform="translate(56.82692,-284.92743)">
    <path
       inkscape:export-ydpi="96"
       inkscape:export-xdpi="96"
       sodipodi:nodetypes="sccsss"
       inkscape:connector-curvature="0"
       id="path2066"
       d="m 717.75586,614.74067 -2.31722,-231.9768 H 370.37286 v 233.9766 c 0,81.00956 61.05756,169.22444 173.69149,169.983 107.86759,0.72647 174.47607,-93.43983 173.69151,-171.9828 z"
       style="fill:#a41a4a;fill-opacity:1;fill-rule:evenodd;stroke:#000000;stroke-width:4.39955997;stroke-linecap:butt;stroke-linejoin:miter;stroke-miterlimit:4;stroke-dasharray:none;stroke-opacity:1" />
    <path
       inkscape:export-ydpi="96"
       inkscape:export-xdpi="96"
       sodipodi:nodetypes="sscsssscsssscsscs"
       inkscape:connector-curvature="0"
       id="path1839-5"
       d="m 533.83645,646.10037 c -2.11334,3.6784 -12.92386,28.23631 -29.71722,18.53495 -2.0167,-1.16502 -8.88452,-6.89315 -7.96544,-27.72585 0,0 -3.2012,4.79702 -10.02429,7.82362 -5.56256,2.46746 -14.21731,9.70528 -15.40383,16.0727 -1.81033,9.71506 0.3639,21.77894 10.26316,28.1854 16.58362,10.73235 34.4938,-1.92627 41.81855,-14.24588 7.9716,-13.40756 16.68575,-26.82176 20.20067,-32.47448 3.51492,5.65272 12.22907,19.06692 20.20067,32.47448 7.32475,12.31961 25.23493,24.97823 41.81855,14.24588 9.89926,-6.40646 12.07349,-18.47034 10.26316,-28.1854 -1.18652,-6.36742 -9.84127,-13.60524 -15.40383,-16.0727 -6.82309,-3.0266 -10.02429,-7.82362 -10.02429,-7.82362 0.91908,20.8327 -5.94874,26.56083 -7.96544,27.72585 -16.79336,9.70136 -27.60388,-14.85655 -29.71722,-18.53495 -3.3642,-5.85562 -9.1716,-14.0927 -9.1716,-14.0927 0,0 -5.8074,8.23708 -9.1716,14.0927 z"
       style="fill:#f1b600;fill-opacity:1;fill-rule:evenodd;stroke:#000000;stroke-width:2.4000001;stroke-linecap:butt;stroke-linejoin:miter;stroke-miterlimit:4;stroke-dasharray:none;stroke-opacity:1" />
    <path
       inkscape:export-ydpi="96"
       inkscape:export-xdpi="96"
       sodipodi:nodetypes="ssacsccccccscasscs"
       inkscape:connector-curvature="0"
       id="path1822-4"
       d="m 534.22541,647.01946 c -8.31108,5.9323 -21.70369,5.92213 -26.5004,-1.37863 -4.2617,-6.48646 -4.53976,-12.73547 -1.53182,-17.92225 4.3206,-7.45027 14.24587,-10.10997 23.43676,-10.87588 0,0 -8.6929,8.9288 -4.13589,14.0927 2.02201,2.2913 12.09596,2.85044 12.86187,-7.71908 v -15.6568 c 0,0 -0.29544,-6.98636 4.3,-7.29272 h 1.39956 c 4.59544,0.30636 4.3,7.29272 4.3,7.29272 v 15.6568 c 0.76591,10.56952 10.83986,10.01038 12.86187,7.71908 4.55701,-5.1639 -4.13589,-14.0927 -4.13589,-14.0927 9.19089,0.76591 19.11616,3.42561 23.43676,10.87588 3.00794,5.18678 2.72988,11.43579 -1.53182,17.92225 -4.79671,7.30076 -18.18932,7.31093 -26.5004,1.37863 -5.34585,-3.81578 -9.1303,-14.68815 -9.1303,-14.68815 0,0 -3.78445,10.87237 -9.1303,14.68815 z"
       style="fill:#f1b600;fill-opacity:1;fill-rule:evenodd;stroke:#000000;stroke-width:2.4000001;stroke-linecap:butt;stroke-linejoin:miter;stroke-miterlimit:4;stroke-dasharray:none;stroke-opacity:1" />
    <path
       inkscape:export-ydpi="96"
       inkscape:export-xdpi="96"
       sodipodi:nodetypes="sscsscs"
       inkscape:connector-curvature="0"
       id="path1856"
       d="m 528.36612,668.31169 c -7.74424,12.15963 -10.88519,25.49007 1.43589,42.73568 11.16185,15.62303 13.16648,33.08569 13.16648,33.08569 0,0 3.11309,-17.46266 14.27494,-33.08569 12.32108,-17.24561 9.18013,-30.57605 1.43589,-42.73568 -3.59025,-5.63724 -14.75357,-18.38096 -15.71083,-33.39205 -0.95726,15.01109 -11.01212,27.75481 -14.60237,33.39205 z"
       style="fill:#f1b600;fill-opacity:1;fill-rule:evenodd;stroke:#000000;stroke-width:2.4000001;stroke-linecap:butt;stroke-linejoin:miter;stroke-miterlimit:4;stroke-dasharray:none;stroke-opacity:1" />
    <path
       inkscape:export-ydpi="96"
       inkscape:export-xdpi="96"
       sodipodi:nodetypes="cccccccc"
       inkscape:connector-curvature="0"
       d="m 542.96849,639.91736 c -5.63241,49.82521 -32.05331,68.22352 -32.05331,68.22352 m 32.05331,-68.22352 c 5.63241,49.82521 32.05331,68.22352 32.05331,68.22352 m -32.05331,4.8998 -2.7e-4,-111.8225 c -0.29218,-20.52631 3.93084,-23.61756 3.9969,-35.5381 0.0332,-5.98692 -3.36999,-15.31815 -3.36999,-15.31815"
       style="fill:none;fill-rule:evenodd;stroke:#000000;stroke-width:2.4000001;stroke-linecap:butt;stroke-linejoin:miter;stroke-miterlimit:4;stroke-dasharray:none;stroke-opacity:1"
       id="path1877-3" />
    <ellipse
       inkscape:export-ydpi="96"
       inkscape:export-xdpi="96"
       ry="4.3326273"
       rx="3.2494702"
       cy="708.57416"
       cx="508.0827"
       id="path1896"
       style="fill:#000000;fill-opacity:1;stroke:#000000;stroke-width:2.4000001;stroke-miterlimit:4;stroke-dasharray:none;stroke-opacity:1" />
    <ellipse
       inkscape:export-ydpi="96"
       inkscape:export-xdpi="96"
       ry="4.3326273"
       rx="3.2494702"
       cy="717.02277"
       cx="543.177"
       id="path1896-0"
       style="fill:#000000;fill-opacity:1;stroke:#000000;stroke-width:2.4000001;stroke-miterlimit:4;stroke-dasharray:none;stroke-opacity:1" />
    <ellipse
       inkscape:export-ydpi="96"
       inkscape:export-xdpi="96"
       ry="4.3326273"
       rx="3.2494702"
       cy="708.57416"
       cx="578.10675"
       id="path1896-1"
       style="fill:#000000;fill-opacity:1;stroke:#000000;stroke-width:2.4000001;stroke-miterlimit:4;stroke-dasharray:none;stroke-opacity:1" />
    <path
       inkscape:export-ydpi="96"
       inkscape:export-xdpi="96"
       sodipodi:nodetypes="sscsssscsssscsscs"
       inkscape:connector-curvature="0"
       id="path1839-5-0"
       d="m 629.98652,513.44319 c 4.24226,-0.009 30.91529,-2.92576 30.91035,16.4684 -5.9e-4,2.32902 -1.52738,11.14079 -20.02857,20.76119 0,0 5.75494,0.37382 11.7876,4.76948 4.91816,3.58359 15.51367,7.45992 21.62128,5.30376 9.31865,-3.28974 18.67917,-11.20461 19.27769,-22.98085 1.00268,-19.72802 -18.9151,-28.90938 -33.24657,-29.09299 -15.59708,-0.19983 -31.5712,-1.0394 -38.22406,-1.25705 3.13794,-5.87037 10.39791,-20.12415 18.02339,-33.73154 7.00673,-12.50321 9.01433,-34.34319 -8.57197,-43.33886 -10.49779,-5.36978 -22.03253,-1.22077 -29.54085,5.20455 -4.92109,4.21126 -6.86185,15.32541 -6.21746,21.37646 0.79044,7.42226 -1.7633,12.5931 -1.7633,12.5931 17.5821,-11.2123 25.97672,-8.12866 27.99401,-6.96466 16.79829,9.69279 0.93578,31.33393 -1.19314,35.00334 -3.38901,5.84129 -7.61883,14.98919 -7.61883,14.98919 0,0 10.03722,0.91081 16.79043,0.89648 z"
       style="fill:#f1b600;fill-opacity:1;fill-rule:evenodd;stroke:#000000;stroke-width:2.4000001;stroke-linecap:butt;stroke-linejoin:miter;stroke-miterlimit:4;stroke-dasharray:none;stroke-opacity:1" />
    <path
       inkscape:export-ydpi="96"
       inkscape:export-xdpi="96"
       sodipodi:nodetypes="ssacsccccccscasscs"
       inkscape:connector-curvature="0"
       id="path1822-4-5"
       d="m 630.588,512.6468 c 9.29306,4.23146 15.98056,15.83488 12.05627,23.63933 -3.48659,6.93397 -8.75936,10.29929 -14.75521,10.28772 -8.61243,-0.0166 -15.87843,-7.2823 -21.13717,-14.85889 0,0 12.07902,3.06388 14.27258,-3.46456 0.97332,-2.89676 -3.57943,-11.90063 -13.11586,-7.27917 l -13.55918,7.8284 c 0,0 -5.90265,3.74904 -8.46568,-0.0775 l -0.69978,-1.21206 c -2.03241,-4.13295 4.16568,-7.37027 4.16568,-7.37027 l 13.55918,-7.8284 c 8.77052,-5.94806 3.24932,-14.39278 0.25399,-14.99824 -6.75057,-1.36454 -10.13669,10.62813 -10.13669,10.62813 -3.93215,-8.3425 -6.59141,-18.26788 -2.29959,-25.73476 2.98791,-5.19834 8.53875,-8.08204 16.28703,-7.63453 8.721,0.50369 15.42611,12.09694 14.44413,22.2607 -0.63164,6.53753 -8.15516,15.25114 -8.15516,15.25114 0,0 11.30797,-2.15875 17.28546,0.563 z"
       style="fill:#f1b600;fill-opacity:1;fill-rule:evenodd;stroke:#000000;stroke-width:2.4000001;stroke-linecap:butt;stroke-linejoin:miter;stroke-miterlimit:4;stroke-dasharray:none;stroke-opacity:1" />
    <path
       inkscape:export-ydpi="96"
       inkscape:export-xdpi="96"
       sodipodi:nodetypes="sscsscs"
       inkscape:connector-curvature="0"
       id="path1856-0"
       d="m 651.95726,507.07498 c 14.40266,0.62689 27.51764,-3.31819 36.29224,-22.61136 7.94901,-17.47796 22.0698,-27.94535 22.0698,-27.94535 0,0 -16.67965,6.03532 -35.79051,4.18039 -21.09568,-2.04756 -31.06971,7.33779 -37.72813,20.12432 -3.08687,5.92787 -8.5416,21.96744 -21.06295,30.302 13.47861,-6.67653 29.54243,-4.34063 36.21955,-4.05 z"
       style="fill:#f1b600;fill-opacity:1;fill-rule:evenodd;stroke:#000000;stroke-width:2.4000001;stroke-linecap:butt;stroke-linejoin:miter;stroke-miterlimit:4;stroke-dasharray:none;stroke-opacity:1" />
    <path
       inkscape:export-ydpi="96"
       inkscape:export-xdpi="96"
       sodipodi:nodetypes="cccccccc"
       inkscape:connector-curvature="0"
       d="m 620.06586,508.62612 c 45.9661,-20.03479 75.10996,-6.35278 75.10996,-6.35278 m -75.10996,6.35278 c 40.33369,-29.79041 43.05665,-61.87073 43.05665,-61.87073 m 20.27,25.30907 -96.84099,55.91148 c -17.63021,10.51619 -22.41883,8.40458 -32.77535,14.30764 -5.20142,2.96471 -11.58091,10.57757 -11.58091,10.57757"
       style="fill:none;fill-rule:evenodd;stroke:#000000;stroke-width:2.4000001;stroke-linecap:butt;stroke-linejoin:miter;stroke-miterlimit:4;stroke-dasharray:none;stroke-opacity:1"
       id="path1877-3-8" />
    <ellipse
       inkscape:export-ydpi="96"
       inkscape:export-xdpi="96"
       transform="rotate(-120)"
       ry="4.3326273"
       rx="3.2494702"
       cy="351.33652"
       cx="-785.40186"
       id="path1896-3"
       style="fill:#000000;fill-opacity:1;stroke:#000000;stroke-width:2.4000001;stroke-miterlimit:4;stroke-dasharray:none;stroke-opacity:1" />
    <ellipse
       inkscape:export-ydpi="96"
       inkscape:export-xdpi="96"
       transform="rotate(-120)"
       ry="4.3326273"
       rx="3.2494702"
       cy="359.78513"
       cx="-750.30756"
       id="path1896-0-3"
       style="fill:#000000;fill-opacity:1;stroke:#000000;stroke-width:2.4000001;stroke-miterlimit:4;stroke-dasharray:none;stroke-opacity:1" />
    <ellipse
       inkscape:export-ydpi="96"
       inkscape:export-xdpi="96"
       transform="rotate(-120)"
       ry="4.3326273"
       rx="3.2494702"
       cy="351.33652"
       cx="-715.37781"
       id="path1896-1-4"
       style="fill:#000000;fill-opacity:1;stroke:#000000;stroke-width:2.4000001;stroke-miterlimit:4;stroke-dasharray:none;stroke-opacity:1" />
    <path
       inkscape:export-ydpi="96"
       inkscape:export-xdpi="96"
       sodipodi:nodetypes="sscsssscsssscsscs"
       inkscape:connector-curvature="0"
       id="path1839-5-0-1"
       d="m 467.00543,497.21448 c -2.12892,-3.66941 -17.99143,-25.31054 -1.19313,-35.00334 2.01728,-1.164 10.4119,-4.24765 27.99401,6.96465 0,0 -2.55374,-5.17083 -1.76331,-12.5931 0.6444,-6.05105 -1.29636,-17.16519 -6.21745,-21.37646 -7.50833,-6.42532 -19.04306,-10.57432 -29.54085,-5.20454 -17.5863,8.99566 -15.5787,30.83564 -8.57198,43.33887 7.62549,13.60738 14.88545,27.86116 18.02339,33.73153 -6.65286,0.21765 -22.62697,1.05722 -38.22406,1.25705 -14.33147,0.18361 -34.24924,9.36497 -33.24657,29.09298 0.59853,11.77624 9.95904,19.69112 19.2777,22.98086 6.1076,2.15615 16.70311,-1.72017 21.62128,-5.30376 6.03266,-4.39567 11.7876,-4.76948 11.7876,-4.76948 -18.50119,-9.6204 -20.02799,-18.43217 -20.02857,-20.7612 -0.005,-19.39415 26.66808,-16.47738 30.91034,-16.46838 6.75321,0.0143 16.79043,-0.89649 16.79043,-0.89649 0,0 -4.22982,-9.1479 -7.61883,-14.98919 z"
       style="fill:#f1b600;fill-opacity:1;fill-rule:evenodd;stroke:#000000;stroke-width:2.4000001;stroke-linecap:butt;stroke-linejoin:miter;stroke-miterlimit:4;stroke-dasharray:none;stroke-opacity:1" />
    <path
       inkscape:export-ydpi="96"
       inkscape:export-xdpi="96"
       sodipodi:nodetypes="ssacsccccccscasscs"
       inkscape:connector-curvature="0"
       id="path1822-4-5-5"
       d="m 466.01499,497.09179 c -0.98198,-10.16376 5.72313,-21.75702 14.44413,-22.26071 7.74829,-0.44751 13.29912,2.43619 16.28703,7.63453 4.29183,7.46688 1.63256,17.39227 -2.29959,25.73477 0,0 -3.38612,-11.99267 -10.13669,-10.62814 -2.99533,0.60547 -8.51653,9.05019 0.25398,14.99825 l 13.55919,7.8284 c 0,0 6.19809,3.23732 4.16568,7.37027 l -0.69978,1.21205 c -2.56303,3.82659 -8.46568,0.0776 -8.46568,0.0776 l -13.55919,-7.8284 c -9.53642,-4.62146 -14.08917,4.38241 -13.11585,7.27917 2.19356,6.52844 14.27258,3.46456 14.27258,3.46456 -5.25874,7.57659 -12.52474,14.84227 -21.13716,14.85888 -5.99585,0.0116 -11.26862,-3.35375 -14.75521,-10.28772 -3.92429,-7.80445 2.7632,-19.40787 12.05626,-23.63932 5.97749,-2.72175 17.28546,-0.563 17.28546,-0.563 0,0 -7.52352,-8.71361 -8.15516,-15.25114 z"
       style="fill:#f1b600;fill-opacity:1;fill-rule:evenodd;stroke:#000000;stroke-width:2.4000001;stroke-linecap:butt;stroke-linejoin:miter;stroke-miterlimit:4;stroke-dasharray:none;stroke-opacity:1" />
    <path
       inkscape:export-ydpi="96"
       inkscape:export-xdpi="96"
       sodipodi:nodetypes="sscsscs"
       inkscape:connector-curvature="0"
       id="path1856-0-3"
       d="m 450.50503,481.37138 c -6.65843,-12.78653 -16.63246,-22.17189 -37.72813,-20.12433 -19.11087,1.85493 -35.23629,-5.14034 -35.23629,-5.14034 0,0 13.56656,11.42735 21.51558,28.90531 8.7746,19.29316 21.88957,23.23825 36.29224,22.61136 6.67711,-0.29063 23.29516,-3.58649 36.77377,3.09004 -12.52135,-8.33455 -18.53031,-23.41418 -21.61717,-29.34204 z"
       style="fill:#f1b600;fill-opacity:1;fill-rule:evenodd;stroke:#000000;stroke-width:2.4000001;stroke-linecap:butt;stroke-linejoin:miter;stroke-miterlimit:4;stroke-dasharray:none;stroke-opacity:1" />
    <path
       inkscape:export-ydpi="96"
       inkscape:export-xdpi="96"
       sodipodi:nodetypes="cccccccc"
       inkscape:connector-curvature="0"
       d="m 467.79405,508.21456 c -40.33369,-29.79041 -43.05664,-61.87074 -43.05664,-61.87074 m 43.05664,61.87074 c -45.9661,-20.03479 -75.10995,-6.35278 -75.10995,-6.35278 m 11.7833,-30.20888 96.84126,55.91102 c 17.92239,10.01012 18.48798,15.21299 28.77844,21.23047 5.16823,3.02221 14.95091,4.74058 14.95091,4.74058"
       style="fill:none;fill-rule:evenodd;stroke:#000000;stroke-width:2.4000001;stroke-linecap:butt;stroke-linejoin:miter;stroke-miterlimit:4;stroke-dasharray:none;stroke-opacity:1"
       id="path1877-3-8-6" />
    <ellipse
       inkscape:export-ydpi="96"
       inkscape:export-xdpi="96"
       transform="rotate(120)"
       ry="4.3326273"
       rx="3.2494702"
       cy="-590.57202"
       cx="171.34392"
       id="path1896-3-4"
       style="fill:#000000;fill-opacity:1;stroke:#000000;stroke-width:2.4000001;stroke-miterlimit:4;stroke-dasharray:none;stroke-opacity:1" />
    <ellipse
       inkscape:export-ydpi="96"
       inkscape:export-xdpi="96"
       transform="rotate(120)"
       ry="4.3326273"
       rx="3.2494702"
       cy="-582.12341"
       cx="206.43822"
       id="path1896-0-3-3"
       style="fill:#000000;fill-opacity:1;stroke:#000000;stroke-width:2.4000001;stroke-miterlimit:4;stroke-dasharray:none;stroke-opacity:1" />
    <ellipse
       inkscape:export-ydpi="96"
       inkscape:export-xdpi="96"
       transform="rotate(120)"
       ry="4.3326273"
       rx="3.2494702"
       cy="-590.57202"
       cx="241.36797"
       id="path1896-1-4-4"
       style="fill:#000000;fill-opacity:1;stroke:#000000;stroke-width:2.4000001;stroke-miterlimit:4;stroke-dasharray:none;stroke-opacity:1" />
    <path
       inkscape:export-ydpi="96"
       inkscape:export-xdpi="96"
       id="path2032"
       d="m 542.19526,552.86111 c -25.71326,14.30984 -45.60253,9.23851 -63.85546,13.08439 -39.00419,8.21815 -51.46898,48.8649 -51.46898,48.8649 24.81541,-9.03771 49.05546,-0.80153 71.68895,-9.03771 6.90762,-2.51364 18.53495,-11.94816 18.53495,-11.94816 23.89632,-22.51768 25.10054,-40.96342 25.10054,-40.96342 z"
       style="fill:#ccced0;fill-opacity:1;fill-rule:evenodd;stroke:#000000;stroke-width:2.4000001;stroke-linecap:butt;stroke-linejoin:miter;stroke-miterlimit:4;stroke-dasharray:none;stroke-opacity:1"
       inkscape:connector-curvature="0" />
    <path
       inkscape:export-ydpi="96"
       inkscape:export-xdpi="96"
       id="path2032-9"
       d="m 542.89555,552.56206 c 25.24932,15.11341 30.80204,34.87369 43.25915,48.75825 26.61922,29.66954 68.05272,20.14098 68.05272,20.14098 -20.23458,-16.97191 -25.22187,-42.0825 -43.67136,-57.56559 -5.63068,-4.72534 -19.61488,-10.07766 -19.61488,-10.07766 -31.44905,-9.43597 -48.02563,-1.25598 -48.02563,-1.25598 z"
       style="fill:#ccced0;fill-opacity:1;fill-rule:evenodd;stroke:#000000;stroke-width:2.4000001;stroke-linecap:butt;stroke-linejoin:miter;stroke-miterlimit:4;stroke-dasharray:none;stroke-opacity:1"
       inkscape:connector-curvature="0" />
    <path
       inkscape:export-ydpi="96"
       inkscape:export-xdpi="96"
       id="path2032-9-7"
       d="m 544.33831,552.13461 c 0.46394,-29.42325 14.80048,-44.11219 20.59631,-61.84264 12.38497,-37.88762 -16.58377,-69.00581 -16.58377,-69.00581 -4.5808,26.00962 -23.83357,42.88403 -28.01757,66.60324 -1.27692,7.23898 1.07993,22.02582 1.07993,22.02582 7.55273,31.95365 22.9251,42.21939 22.9251,42.21939 z"
       style="fill:#ccced0;fill-opacity:1;fill-rule:evenodd;stroke:#000000;stroke-width:2.4000001;stroke-linecap:butt;stroke-linejoin:miter;stroke-miterlimit:4;stroke-dasharray:none;stroke-opacity:1"
       inkscape:connector-curvature="0" />
    <path
       sodipodi:nodetypes="csaccccccc"
       inkscape:connector-curvature="0"
       id="path2603-9"
       d="m 540.16469,545.85269 c -3.52148,-10.92052 -4.45484,-16.54914 -4.40235,-26.54776 0.075,-14.26321 1.88013,-20.54093 5.2768,-30.16795 2.48734,-7.0497 10.85465,-19.62505 10.85465,-19.62505 0,0.39348 -0.89157,2.8102 -1.98131,5.37051 -5.88187,13.81951 -9.55001,24.92523 -10.57603,32.02043 -0.35171,2.432 -0.62833,8.34959 -0.61471,13.15022 0.0277,9.80824 2.0557,18.70294 5.29527,28.88048 l -1.82175,3.92754 c 0.0954,-0.0954 -0.81831,-3.2492 -2.03057,-7.00842 z"
       style="fill:#000000;fill-opacity:1;stroke:none;stroke-width:2.19457102;stroke-miterlimit:4;stroke-dasharray:none;stroke-opacity:1" />
    <path
       sodipodi:nodetypes="csacccccccc"
       inkscape:connector-curvature="0"
       id="path2603-9-4"
       d="m 538.03415,560.31413 c -7.69671,8.50995 -12.10456,12.13257 -20.78987,17.08642 -12.3898,7.06666 -18.72903,8.64223 -28.76461,10.51414 -7.34889,1.37075 -22.42312,0.41212 -22.42312,0.41212 0.34077,-0.19674 2.8795,-0.63298 5.64166,-0.96939 14.90898,-1.81591 26.36088,-4.19207 33.01852,-6.85111 2.28203,-0.91141 7.54512,-3.63064 11.69578,-6.04275 8.48034,-4.92811 15.16937,-11.13176 22.3636,-19.02608 l 5.5622,-3.30287 -1.24998,2.91678 c -0.13032,-0.0349 -2.40473,2.33328 -5.05418,5.26274 z"
       style="fill:#000000;fill-opacity:1;stroke:none;stroke-width:2.19457102;stroke-miterlimit:4;stroke-dasharray:none;stroke-opacity:1" />
    <path
       sodipodi:nodetypes="csacccccccc"
       inkscape:connector-curvature="0"
       id="path2603-9-4-6"
       d="m 553.59061,553.39266 c 11.21818,2.41058 16.55939,4.41658 25.19221,9.46136 12.3148,7.19655 16.8489,11.89869 23.48781,19.65381 4.86155,5.67895 11.56847,19.21294 11.56847,19.21294 -0.34077,-0.19676 -1.98793,-2.17724 -3.66035,-4.40114 -9.02711,-12.0036 -16.81088,-20.73315 -22.44249,-25.16933 -1.93032,-1.52059 -6.91679,-4.71894 -11.08107,-7.10746 -8.50804,-4.88013 -17.22507,-7.57118 -27.65887,-9.8544 l -6.10077,-2.62638 3.6103,-0.91507 c 0.0349,0.13031 3.22304,0.91592 7.08476,1.74567 z"
       style="fill:#000000;fill-opacity:1;stroke:none;stroke-width:2.19457102;stroke-miterlimit:4;stroke-dasharray:none;stroke-opacity:1" />
  </g>
</svg>
