<?xml version="1.0" encoding="UTF-8"?>
<svg id="svg8" width="500" height="300" version="1.1" viewBox="0 0 132.29168 79.374998" xmlns="http://www.w3.org/2000/svg" xmlns:cc="http://creativecommons.org/ns#" xmlns:dc="http://purl.org/dc/elements/1.1/" xmlns:rdf="http://www.w3.org/1999/02/22-rdf-syntax-ns#">
 <metadata id="metadata5">
  <rdf:RDF>
   <cc:Work rdf:about="">
    <dc:format>image/svg+xml</dc:format>
    <dc:type rdf:resource="http://purl.org/dc/dcmitype/StillImage"/>
   </cc:Work>
  </rdf:RDF>
 </metadata>
 <g id="g9801" transform="matrix(.97282156 0 0 1.0092687 -.04063539 .13764788)">
  <path id="rect2246" d="m0.04177065-0.13638378h135.9875994l-1.1e-4 78.64605378h-135.9874894z" fill="#9e0000" opacity=".999" stroke-width="0"/>
  <g fill="#fffefe" stroke-width="0">
   <path id="path2261-4-3-0" d="m67.091086 26.774708s3.06357-0.491109 2.0112-1.941047c-1.86742-2.470453-5.97598-0.360127-6.03361 1.473324-0.0315 5.714868 5.11255 10.603022 8.88671 12.792189l1.94104 0.02339s0.25725-0.35079-0.0468-0.514493c-2.57633-1.44566-3.9978-3.38282-5.61266-5.823135 0 0-0.81851-1.496708-0.88867-1.987817-0.11913-1.338167-0.18491-2.680947-0.25724-4.022411z"/>
   <path id="path2261-7-4-8-4-4" d="m75.370726 31.456983s1.707777-0.304585 1.12114-1.203824c-1.04099-1.532157-3.33128-0.223349-3.36341 0.913744-0.0176 3.544319 2.84997 6.575914 4.953847 7.933619l1.08204 0.01451s0.14341-0.217556-0.0261-0.319085c-1.43616-0.896586-2.22857-2.098-3.128757-3.611463 0 0-0.45628-0.928248-0.49539-1.232829-0.0664-0.829922-0.10307-1.662706-0.1434-2.494669z"/>
   <path id="path2261-7-42-7-8" d="m71.478936 29.228295s2.13422-0.391524 1.40109-1.547445c-1.30092-1.969498-4.16312-0.287101-4.20327 1.174567-0.022 4.556014 3.56162 8.452955 6.19086 10.198205l1.35221 0.01865s0.17921-0.279658-0.0326-0.410166c-1.79479-1.152511-2.78504-2.696857-3.91002-4.642327 0 0-0.57021-1.193208-0.61909-1.584731-0.083-1.066814-0.12881-2.137309-0.17921-3.206751z"/>
   <path id="path2261-4-3" d="m103.4296 26.75866s-3.06357-0.491109-2.0112-1.941047c1.86742-2.470453 5.97598-0.360127 6.03361 1.473324 0.0315 5.714868-5.11255 10.603022-8.886711 12.792189l-1.941036 0.02339s-0.25725-0.35079 0.0468-0.514493c2.576326-1.44566 3.997797-3.38282 5.612657-5.823135 0 0 0.81851-1.496708 0.88867-1.987817 0.11913-1.338167 0.18491-2.680947 0.25724-4.022411z"/>
   <path id="path2261-7-42-7" d="m99.041749 29.212247s-2.134216-0.391524-1.401086-1.547445c1.300916-1.969498 4.163117-0.287101 4.203267 1.174567 0.022 4.556014-3.561621 8.452955-6.190857 10.198205l-1.35221 0.01865s-0.17921-0.279658 0.0326-0.410166c1.79479-1.152511 2.78504-2.696857 3.910016-4.642327 0 0 0.57021-1.193208 0.61909-1.584731 0.083-1.066814 0.12881-2.137309 0.17921-3.206751z"/>
   <path id="path2261-7-4-8-4" d="m95.149963 31.440935s-1.70778-0.304585-1.12114-1.203824c1.04099-1.532157 3.33128-0.223349 3.36341 0.913744 0.0176 3.544319-2.84997 6.575914-4.95385 7.933619l-1.08204 0.01451s-0.14341-0.217556 0.0261-0.319085c1.43616-0.896586 2.22857-2.098 3.12876-3.611463 0 0 0.45628-0.928248 0.49539-1.232829 0.0664-0.829922 0.10307-1.662706 0.1434-2.494669z"/>
   <path id="path2261-7-4" d="m75.219065 47.317201s1.707778 0.304585 1.121139 1.203824c-1.040986 1.532157-3.331281 0.223349-3.363408-0.913744-0.01756-3.544319 2.84997-6.575914 4.953847-7.933619l1.08204-0.01451s0.14341 0.217556-0.0261 0.319085c-1.43616 0.896586-2.22857 2.098-3.128761 3.611463 0 0-0.456275 0.928248-0.495381 1.232829-0.0664 0.829922-0.103075 1.662706-0.143406 2.494669z"/>
   <path id="path2261-7" d="m71.748224 49.569275s2.134219 0.391524 1.401093 1.547445c-1.300923 1.969498-4.163117 0.287101-4.203265-1.174567-0.02195-4.556014 3.561617-8.452955 6.190856-10.198205l1.352206-0.01865s0.179209 0.279658-0.03258 0.410166c-1.794785 1.152511-2.78504 2.696857-3.910019 4.642327 0 0-0.570209 1.193208-0.619084 1.584731-0.08301 1.066814-0.128818 2.137309-0.179212 3.206751z"/>
   <path id="path2261" d="m67.547464 52.046248s3.063578 0.491109 2.011203 1.941047c-1.867421 2.470453-5.975976 0.360127-6.033608-1.473324-0.0315-5.714868 5.112552-10.603022 8.886708-12.792189l1.941044-0.02339s0.257249 0.35079-0.04677 0.514493c-2.576334 1.44566-3.9978 3.38282-5.612662 5.823135 0 0-0.818512 1.496708-0.888669 1.987817-0.119128 1.338167-0.184911 2.680947-0.257246 4.022411z"/>
   <path id="path2261-7-42" d="m99.135569 49.572791s-2.134216 0.391524-1.401086 1.547445c1.300916 1.969498 4.163117 0.287101 4.203267-1.174567 0.022-4.556014-3.561621-8.452955-6.190857-10.198205l-1.35221-0.01865s-0.17921 0.279658 0.0326 0.410166c1.79479 1.152511 2.78504 2.696857 3.910016 4.642327 0 0 0.57021 1.193208 0.61909 1.584731 0.083 1.066814 0.12881 2.137309 0.17921 3.206751z"/>
   <path id="path2261-4" d="m103.33633 52.049764s-3.06357 0.491109-2.0112 1.941047c1.86742 2.470453 5.97598 0.360127 6.03361-1.473324 0.0315-5.714868-5.11255-10.603022-8.886711-12.792189l-1.941036-0.02339s-0.25725 0.35079 0.0468 0.514493c2.576326 1.44566 3.997797 3.38282 5.612657 5.823135 0 0 0.81851 1.496708 0.88867 1.987817 0.11913 1.338167 0.18491 2.680947 0.25724 4.022411z"/>
   <path id="path2261-7-4-8" d="m95.664733 47.320717s-1.70778 0.304585-1.12114 1.203824c1.04099 1.532157 3.33128 0.223349 3.36341-0.913744 0.0176-3.544319-2.84997-6.575914-4.95385-7.933619l-1.08204-0.01451s-0.14341 0.217556 0.0261 0.319085c1.43616 0.896586 2.22857 2.098 3.12876 3.611463 0 0 0.45628 0.928248 0.49539 1.232829 0.0664 0.829922 0.10307 1.662706 0.1434 2.494669z"/>
  </g>
  <path id="path2250" d="M 49.486016,38.760297 136.0279,38.722607 M -0.56003818,0.65718046 49.503453,38.742757 -0.47372839,77.715418" fill="none" stroke="#000000" stroke-width="1.99419"/>
  <rect id="rect2259" x="79.909363" y="36.731491" width="10.836283" height="5.4357104" fill="#fffefe" opacity=".999" stroke-width="0"/>
  <path id="path2407" d="m26.727841 41.701828 2.480469 6.813021 0.992187-0.661458 1.124479 0.694531s0.760678 0.429948 0.396875-0.23151c-0.363802-0.661459-1.719791-2.745052-1.785937-2.910417-0.06615-0.165365 3.571875 1.124479 4.20026 1.157552 0.628386 0.03307 1.653646-0.628385 1.190625-0.628385-0.46302 0-0.760677 0.23151-0.760677 0.23151l-6.779948-7.14375s-0.628385-0.562239 0-0.529166c1.330943 0.211403 2.296734-0.28181 2.844271-1.455213 0.264584-0.595312 0.826823-3.009635 0.826823-3.009635l1.951302 0.132291s1.521354-0.892968 1.653646-0.992187c1.150735-0.07847 1.755295 0.03439 2.513542-0.826828l0.23151-0.760677-8.698177-0.892969s-0.595312 0.959115-0.992187 1.819011-0.363802 1.091406-1.091407 1.5875c-0.727604 0.496093-1.190625 1.02526-2.017448 1.157552-0.826822 0.132291-1.719791 0.165364-2.381249-0.297657-0.661459-0.46302-0.694532-0.496093-0.826823-1.289843-0.132292-0.79375-0.346483-1.508726-0.708967-1.689968-0.362485-0.181242-0.847744-0.473567-1.485017-0.192934-0.862572 0.515754-0.987561 1.542493-1.455782 2.397074-0.105238 0.06431-0.339098 0.333251-0.233863 0.333251 0.105238 0 1.444094-0.473567 1.467477-0.496954 0.02339-0.02339 0.368332-0.09355 0.450184 0.04677 0.08185 0.140316 0.502801 0.99391 0.643117 1.262848 0.140317 0.268941 0.339098 0.806821 0.374176 0.982218 0.03508 0.175395 0.239708 0.672349 0.128625 0.830204-0.111085 0.157856-0.596344 0.157856-0.917903 0.0877-0.321559-0.07016-1.116687-0.192937-1.373934-0.450183-0.257246-0.257246-1.297926-0.760047-1.297926-0.760047l-1.777344 1.835808-1.373931-1.356394 1.660411-3.414368 2.309376-0.0058c-0.714431-0.849578-1.65843-2.059247-2.280142-2.20414-0.777589-0.169548-1.321316 0.05262-1.590254 0.491109-0.268941 0.438488-1.081607 1.8475-1.356395 1.818267-0.274785-0.02923-0.713274 0.01169-0.824359-0.286478-0.111083-0.298172-0.561266-1.163458-0.648963-1.829961-0.0877-0.666502-0.622649-4.988209-0.622649-4.988209l-4.6136722-0.347304-2.910416-0.79375-1.223698-0.248047c1.525686 1.604299 3.836811 2.981101 5.539713 3.389974 0 0-0.04961 2.778125 0.01654 3.075781s0.03307 1.322917 0.297656 2.050521c0.2645832 0.727604 0.3307292 1.438672 0.7772142 2.067057 0.446484 0.628386 0.926041 0.413412 0.46302 0.644922-2.4929432 1.916564-6.2012692 3.322362-7.9540362 5.705078-0.23151 0.314193-0.115755 0.463021 0.661458 0.380339 0.777214-0.08268 3.257683-1.240235 3.423047-1.273308 0.165365-0.03307 0.677995-0.314192 0.214974 0.231511s-1.984375 2.976562-1.984375 2.976562l-1.81901 2.43086c3.226532-1.861144 5.275492-3.830204 7.7390622-6.333464 0.429948-0.429948 1.025261-1.289844 1.025261-1.289844l1.504817 0.79375 1.653646 0.03307-2.497008 2.4474s-0.01654 0.314192 0.826823 0.115755c0.84336-0.198438 2.596224-1.07487 2.695443-1.157552 0.09922-0.08268 0.975651 3.389974 1.322917 3.902604 0.347265 0.51263 0.479557 0.926042 0.926041 1.058333 0.446485 0.132292 0.926042 0.314193 0.892969-0.363802-0.03307-0.677995-0.810286-5.572786-0.810286-5.572786s-0.181902-0.248047 0.214973-0.08268c0.396875 0.165364 1.488282 0.79375 2.166277 1.141015 0.677994 0.347266 1.471744 0.810287 1.967838 0.744141 0.496094-0.06615 5.324739-0.09922 5.324739-0.09922z" fill="#fffefe" stroke="#fffefe" stroke-width=".264583px"/>
 </g>
</svg>
