<?xml version="1.0" encoding="UTF-8" standalone="no"?>
<!-- Created with Inkscape (http://www.inkscape.org/) -->

<svg
   xmlns:dc="http://purl.org/dc/elements/1.1/"
   xmlns:cc="http://creativecommons.org/ns#"
   xmlns:rdf="http://www.w3.org/1999/02/22-rdf-syntax-ns#"
   xmlns:svg="http://www.w3.org/2000/svg"
   xmlns="http://www.w3.org/2000/svg"
   xmlns:xlink="http://www.w3.org/1999/xlink"
   xmlns:sodipodi="http://sodipodi.sourceforge.net/DTD/sodipodi-0.dtd"
   xmlns:inkscape="http://www.inkscape.org/namespaces/inkscape"
   id="svg2"
   version="1.1"
   inkscape:version="0.48.1 "
   width="500"
   height="704"
   sodipodi:docname="Flag of Drugovo Municipality.svg">
  <metadata
     id="metadata8">
    <rdf:RDF>
      <cc:Work
         rdf:about="">
        <dc:format>image/svg+xml</dc:format>
        <dc:type
           rdf:resource="http://purl.org/dc/dcmitype/StillImage" />
        <dc:title />
      </cc:Work>
    </rdf:RDF>
  </metadata>
  <defs
     id="defs6" />
  <sodipodi:namedview
     pagecolor="#ffffff"
     bordercolor="#666666"
     borderopacity="1"
     objecttolerance="10"
     gridtolerance="10"
     guidetolerance="10"
     inkscape:pageopacity="0"
     inkscape:pageshadow="2"
     inkscape:window-width="1280"
     inkscape:window-height="738"
     id="namedview4"
     showgrid="false"
     inkscape:snap-nodes="false"
     inkscape:zoom="0.43740224"
     inkscape:cx="274.67284"
     inkscape:cy="431.83352"
     inkscape:window-x="-8"
     inkscape:window-y="-8"
     inkscape:window-maximized="1"
     inkscape:current-layer="svg2" />
  <g
     id="g3799"
     transform="matrix(0.97307647,0,0,0.98323024,6.5653197,5.6423306)">
    <rect
       rx="0"
       ry="4.3577547"
       y="1.2673404"
       x="0.23532306"
       height="701.98157"
       width="499.7998"
       id="rect2987"
       style="fill:#030000;fill-opacity:1;fill-rule:nonzero;stroke:#f7e401;stroke-width:13.9119997;stroke-linecap:round;stroke-linejoin:miter;stroke-miterlimit:4;stroke-opacity:1;stroke-dasharray:none;stroke-dashoffset:0" />
    <rect
       rx="0"
       ry="5.5187316"
       y="1.4847628"
       x="163.43805"
       height="700.53265"
       width="169.25084"
       id="rect3757"
       style="fill:#e40001;fill-opacity:1;fill-rule:nonzero;stroke:#f7e401;stroke-width:14.03439045;stroke-miterlimit:4;stroke-opacity:1;stroke-dasharray:none" />
    <rect
       transform="matrix(0,-1,1,0,0,0)"
       rx="0"
       ry="3.9464977"
       y="0.4804683"
       x="-337.8486"
       height="498.86176"
       width="169.45816"
       id="rect3757-6"
       style="fill:#e40001;fill-opacity:1;fill-rule:nonzero;stroke:#f7e401;stroke-width:14.12401962;stroke-miterlimit:4;stroke-opacity:1;stroke-dasharray:none" />
    <rect
       rx="0"
       ry="3.1247623"
       y="147.05695"
       x="170.43753"
       height="396.64877"
       width="155.20398"
       id="rect3757-8"
       style="fill:#e40001;fill-opacity:1;fill-rule:nonzero;stroke:none" />
  </g>
  <use
     height="1"
     width="1"
     y="0"
     x="0"
     transform="matrix(0.99975227,-0.02225795,-0.02225795,-0.99975227,5.7664274,518.08127)"
     id="use3022"
     xlink:href="#path4352" />
  <use
     height="1"
     width="1"
     y="0"
     x="0"
     transform="matrix(-1,0,0,-1,493.44686,512.65321)"
     id="use3024"
     xlink:href="#path4352" />
  <use
     height="1"
     width="1"
     y="0"
     x="0"
     transform="matrix(-0.99975227,0.02225795,0.02225795,0.99975227,487.68043,-5.4280555)"
     id="use3020"
     xlink:href="#path4352" />
  <use
     height="1"
     width="1"
     y="0"
     x="0"
     transform="matrix(0.99975227,-0.02225795,-0.02225795,-0.99975227,5.7664274,518.08127)"
     id="use3016"
     xlink:href="#path4350" />
  <use
     height="1"
     width="1"
     y="0"
     x="0"
     transform="matrix(-1,0,0,-1,493.44686,512.65321)"
     id="use3018"
     xlink:href="#path4350" />
  <use
     height="1"
     width="1"
     y="0"
     x="0"
     transform="matrix(-0.99975227,0.02225795,0.02225795,0.99975227,487.68043,-5.4280555)"
     id="use3014"
     xlink:href="#path4350" />
  <use
     height="1"
     width="1"
     y="0"
     x="0"
     transform="matrix(0.99975227,-0.02225795,-0.02225795,-0.99975227,5.7664274,518.08127)"
     id="use3010"
     xlink:href="#path3343" />
  <use
     height="1"
     width="1"
     y="0"
     x="0"
     transform="matrix(-1,0,0,-1,493.44686,512.65321)"
     id="use3012"
     xlink:href="#path3343" />
  <use
     height="1"
     width="1"
     y="0"
     x="0"
     transform="matrix(-0.99975227,0.02225795,0.02225795,0.99975227,487.68043,-5.4280555)"
     id="use3008"
     xlink:href="#path3343" />
  <use
     height="1"
     width="1"
     y="0"
     x="0"
     transform="matrix(-1.430701e-4,0.9935944,-1.0064469,1.430701e-4,504.73785,11.146921)"
     id="use3004"
     xlink:href="#path2301" />
  <use
     height="1"
     width="1"
     y="0"
     x="0"
     transform="matrix(1.430701e-4,-0.9935944,1.0064469,-1.430701e-4,-11.291004,501.50629)"
     id="use3006"
     xlink:href="#path2301" />
  <use
     height="1"
     width="1"
     y="0"
     x="0"
     transform="matrix(0.99975227,-0.02225795,-0.02225795,-0.99975227,5.7664274,518.08127)"
     id="use3002"
     xlink:href="#path2301" />
  <path
     inkscape:connector-curvature="0"
     d="m 273.19044,270.42204 a 29.838595,30.031032 89.362304 1 1 0.0772,-0.14407"
     id="path2299"
     style="fill:#ffe600" />
  <path
     inkscape:connector-curvature="0"
     d="M 245.00875,76.188543 234.93878,204.6198 c -1.67667,5.25342 0.59226,11.14293 5.66618,13.83849 5.73095,3.04489 12.88914,0.88844 15.96036,-4.79566 l 0.047,-0.0474 c 1.59571,-2.99253 1.7504,-6.37528 0.70389,-9.33842 L 245.00873,76.188425 z"
     id="path2301"
     style="fill:#ffe600" />
  <path
     inkscape:connector-curvature="0"
     d="m 116.37215,129.83969 84.45239,97.85921 c 2.56004,4.88964 8.36403,7.46251 13.8745,5.81014 6.22423,-1.86611 9.74918,-8.41025 7.86835,-14.58246 l -7.9e-4,-0.0663 c -1.00521,-3.23471 -3.30777,-5.73462 -6.16069,-7.09564 L 116.37215,129.84001 z"
     id="path3343"
     style="fill:#ffe600" />
  <path
     inkscape:connector-curvature="0"
     d="m 175.69596,92.367443 33.91036,100.845387 c 0.0818,0.26828 0.13923,0.53878 0.2464,0.79831 l 0.19687,0.61051 0.0946,-0.048 c 0.78723,1.57338 2.0699,2.93046 3.74898,3.82245 4.29842,2.28346 9.63135,0.69022 11.93491,-3.57285 1.72768,-3.19725 1.24551,-6.99292 -0.91517,-9.65033 L 175.69599,92.367757 z"
     id="path4350"
     style="fill:#ffe600" />
  <path
     inkscape:connector-curvature="0"
     d="m 78.301072,189.98727 95.887628,47.51596 c 0.24917,0.13312 0.48261,0.28317 0.74352,0.39156 l 0.57448,0.29332 0.0326,-0.0995 c 1.67863,0.56055 3.55341,0.6203 5.37687,0.0745 4.66821,-1.40009 7.30371,-6.26604 5.89326,-10.89532 -1.0578,-3.472 -4.10512,-5.81717 -7.52808,-6.1808 L 78.301148,189.98891 z"
     id="path4352"
     style="fill:#ffe600" />
</svg>
