<?xml version="1.0" encoding="utf-8"?>
<svg viewBox="-984.932 1138.675 1200 800" xmlns="http://www.w3.org/2000/svg">
  <g transform="matrix(1, 0, 0, 1, -256.279034, -730.519259)">
    <title>Maguindanao flag</title>
    <path d="M -728.653 1869.194 L 471.347 1869.194 L 471.347 2669.194 L -728.653 2669.194 L -728.653 1869.194 Z" style="fill: rgb(3, 100, 30);"/>
    <g transform="matrix(1, 0, 0, 1, -106.370995, 1258.3125)">
      <title>Maguindanao seal</title>
      <path d="M -317.382 717.89 L 272.818 717.89 L 272.818 1303.873 L -317.382 1303.873 L -317.382 717.89 Z" style="fill: rgb(216, 216, 216); stroke: rgb(0, 0, 0); pointer-events: none; visibility: hidden;"/>
      <g style="" transform="matrix(0.22988, 0, 0, 0.229977, -165.840378, 1527.946899)">
        <title>Maguindanao seal</title>
        <circle style="stroke-width: 35px; stroke: rgb(0, 0, 0); fill: rgb(255, 255, 255);" cx="621.935" cy="-2248.335" r="1222.308"/>
        <g transform="matrix(0.999995, -0.00354, 0.00354, 0.999995, 10.565441, 2.398402)">
          <g>
            <circle style="stroke: rgb(0, 0, 0); stroke-width: 35px; fill: rgb(3, 100, 30);" cx="621.935" cy="-2248.335" r="841.432"/>
            <g transform="matrix(1, 0, 0, 1, 355.307739, -2846.993896)">
              <path style="fill: rgb(234, 234, 79);" d="M -270.078 858.576 C -71.318 1209.092 433.213 1213.487 638.077 866.488 C 842.942 519.49 594.492 81.345 190.868 77.829 C 0.27 76.168 -176.22 177.834 -270.078 343.353 C -71.318 82.634 335.784 134.361 462.706 436.462 C 589.628 738.562 341.178 1064.461 15.496 1023.079 C -97.951 1008.664 -200.842 949.394 -270.078 858.576 Z" transform="matrix(-1, 0, 0, -1, 441.329346, 1201.929428)"/>
              <path style="fill: rgb(231, 231, 55);" d="M 703.528 422.17 L 670.114 481.757 L 603.189 494.543 L 649.558 544.174 L 641.891 612.437 L 703.17 583.888 L 764.948 612.139 L 756.929 544.833 L 803.333 494.989 L 736.323 481.644 L 703.528 422.17 Z"/>
              <path style="fill: rgb(220, 37, 37);" d="M 179.345 888.924 L 271.547 921.78 L 363.75 954.635 L 454.112 918.516 L 544.474 882.397 C 540.127 856.46 535.363 821.46 532.194 780.383 C 529.024 739.305 527.449 692.149 529.482 641.897 C 531.514 591.646 537.362 538.351 545.159 487.422 C 552.955 436.493 562.701 387.928 572.529 347.136 L 516.958 321.947 L 461.387 296.758 L 405.816 271.569 L 350.245 246.38 L 295.594 273.498 L 240.944 300.615 L 186.293 327.733 L 131.642 354.85 C 137.424 354.423 182.758 620.445 183.735 632.171 C 194.695 701.035 187.272 867.337 179.345 888.924 Z"/>
              <rect x="322.968" y="278.505" width="57.661" height="23.682" style="" rx="6.352" ry="6.515"/>
              <rect x="329.611" y="300.922" width="42.922" height="104.435" style=""/>
              <rect x="275.671" y="-424.46" width="155.57" height="19.103" style="" transform="matrix(1, 0, 0, -1, 0, 0)"/>
              <path d="M 326.858 424.553 L 351.399 424.468 L 355.124 846.441 L 314.349 899.954 L 326.858 424.553 Z" style="fill: rgb(255, 255, 255); stroke: rgb(0, 0, 0); stroke-width: 5px;"/>
              <path d="M 365.788 909.078 L 392.398 909.163 L 388.576 487.136 L 351.65 424.491 L 365.788 909.078 Z" style="fill: rgb(255, 255, 255); stroke: rgb(0, 0, 0); stroke-width: 5px;" transform="matrix(-1, 0, 0, -1, 744.048004, 1333.654022)"/>
            </g>
            <g transform="matrix(2.704625, 0, 0, 2.445971, -145.394928, -7121.317871)" style="">
              <path d="M 223.772 2287.785 C 224.731 2290.378 207.282 2300.237 207.18 2294.206 C 207.08 2289.021 207.585 2282.6 208.695 2274.94 C 209.807 2267.283 211.322 2258.69 213.241 2249.164 C 212.199 2251.949 201.924 2244.253 204.087 2241.204 C 206.251 2238.156 216.221 2230.23 219.756 2227.094 C 220.968 2226.009 222.13 2225.465 223.24 2225.465 C 224.352 2225.465 225.464 2225.858 226.574 2226.641 C 227.685 2227.425 228.241 2228.3 228.241 2229.265 C 228.241 2229.747 228.115 2230.592 227.862 2231.798 C 227.609 2233.003 227.28 2234.45 226.877 2236.139 C 225.867 2240.119 224.856 2245.515 223.846 2252.329 C 222.837 2259.143 222.331 2266.952 222.331 2275.755 C 222.331 2281.182 222.811 2285.192 223.772 2287.785 Z" style="white-space: pre; fill: rgb(234, 234, 79);"/>
              <path d="M 249.946 2295.317 C 248.969 2295.649 248.601 2288.948 249.286 2288.249 C 259.466 2277.866 269.141 2256.962 265.012 2247.838 C 263.853 2245.276 262.806 2242.963 260.882 2241.271 C 258.959 2239.58 256.504 2238.734 253.519 2238.734 C 250.269 2238.734 247.616 2239.829 245.559 2242.018 C 243.503 2244.207 242.508 2246.926 242.574 2250.177 C 242.641 2253.56 243.818 2256.213 246.107 2258.137 C 248.395 2260.06 259.251 2259.449 261.108 2258.653 C 262.951 2257.863 255.868 2270.235 253.734 2270.262 C 246.663 2270.352 242.648 2270.653 239.597 2267.336 C 236.546 2264.019 234.954 2259.509 234.821 2253.804 C 234.755 2249.227 235.048 2242.367 236.739 2238.686 C 238.43 2235.005 240.835 2232.069 243.953 2229.88 C 247.07 2227.691 250.719 2226.597 254.898 2226.597 C 258.944 2226.597 265.771 2227.088 268.358 2229.111 C 270.945 2231.134 272.901 2233.871 274.228 2237.32 C 275.555 2240.769 276.251 2244.716 276.318 2249.161 C 276.451 2255.131 275.605 2260.719 273.781 2265.926 C 271.956 2271.133 269.436 2275.71 266.219 2279.657 C 263.002 2283.604 254.387 2293.807 249.946 2295.317 Z" style="white-space: pre; fill: rgb(234, 234, 79);"/>
              <path d="M 303.96 2287.887 C 304.126 2289.082 292.197 2296.409 291.033 2295.044 C 289.869 2293.679 288.538 2290.209 288.538 2287.887 C 288.538 2285.035 287.057 2280.848 287.853 2277.896 C 288.649 2274.944 289.711 2271.942 291.037 2268.891 C 293.359 2263.717 296.244 2258.327 299.693 2252.722 C 303.143 2247.117 305.934 2242.982 309.648 2238.339 C 307.393 2238.67 307.295 2240.533 304.608 2240.765 C 301.922 2240.998 299.566 2239.879 296.945 2239.978 C 294.325 2240.077 292.02 2240.127 290.03 2240.127 C 288.571 2240.127 287.344 2240.077 286.349 2239.978 C 285.354 2239.879 281.674 2237.973 280.945 2237.641 C 279.684 2237.044 284.492 2227.59 285.553 2227.59 C 285.752 2227.59 286.017 2227.623 286.349 2227.69 C 286.68 2227.756 287.211 2227.889 287.941 2228.088 C 290.594 2228.751 293.214 2229.182 295.801 2229.381 C 298.388 2229.58 301.208 2229.68 304.259 2229.68 C 307.111 2229.68 309.665 2229.58 311.92 2229.381 C 314.175 2229.182 316 2229.017 317.393 2228.884 C 318.786 2228.685 319.681 2228.585 320.079 2228.585 C 321.008 2228.585 321.771 2229.066 322.368 2230.028 C 322.965 2230.99 323.263 2231.836 323.263 2232.565 C 323.263 2233.361 322.998 2234.157 322.467 2234.953 C 318.421 2240.724 314.673 2246.545 311.224 2252.415 C 307.775 2258.286 305.121 2263.51 303.264 2268.087 C 302.468 2270.143 301.854 2272.067 301.423 2273.858 C 300.992 2275.649 300.776 2277.307 300.776 2278.833 C 300.776 2280.292 300.975 2281.453 301.373 2282.315 C 301.771 2283.178 302.202 2283.974 302.667 2284.703 C 302.998 2285.3 303.297 2285.848 303.562 2286.345 C 303.827 2286.842 303.887 2287.361 303.96 2287.887 Z" style="white-space: pre; fill: rgb(234, 234, 79);"/>
              <path d="M 339.8 2297.577 C 335.555 2297.577 328.493 2304.596 326.539 2303.092 C 324.585 2301.588 332.762 2289.83 332.923 2290.305 C 333.084 2290.78 341.352 2287.927 344.477 2287.03 C 349.408 2285.614 350.573 2282.025 352.472 2280.823 C 354.749 2279.382 354.859 2276.416 354.859 2273.63 C 354.859 2271.441 355.357 2271.536 354.13 2270.276 C 352.903 2269.015 351.526 2268.053 350.001 2267.39 C 347.878 2266.594 343.575 2266.988 340.922 2266.657 C 340.391 2266.59 339.927 2266.441 339.529 2266.209 C 339.131 2265.977 338.766 2265.463 338.434 2264.667 C 337.837 2263.34 337.539 2262.014 337.539 2260.687 C 337.539 2259.957 337.262 2259.199 337.66 2258.735 C 338.058 2258.27 338.589 2257.872 339.252 2257.541 C 340.579 2256.944 342.088 2256.164 343.779 2255.202 C 345.47 2254.241 346.93 2253.03 348.157 2251.571 C 349.384 2250.112 349.998 2248.321 349.998 2246.198 C 349.998 2243.743 349.152 2242.035 347.461 2241.073 C 345.769 2240.112 343.862 2239.631 341.739 2239.631 C 339.616 2239.631 337.693 2239.979 335.968 2240.675 C 334.243 2241.372 332.917 2241.985 331.988 2242.516 C 330.794 2243.312 332.29 2242.913 331.693 2242.913 C 330.764 2242.913 330.101 2242.416 329.703 2241.421 C 329.305 2240.426 329.106 2239.497 329.106 2238.635 C 329.106 2237.507 329.421 2236.396 330.051 2235.301 C 330.681 2234.207 331.759 2233.162 333.285 2232.167 C 335.408 2230.642 337.646 2229.614 340.001 2229.083 C 342.356 2228.552 344.594 2228.287 346.717 2228.287 C 351.626 2228.287 355.44 2229.497 358.16 2231.918 C 360.879 2234.339 362.239 2237.507 362.239 2241.421 C 362.239 2244.738 361.31 2247.822 359.453 2250.674 C 357.596 2253.527 355.374 2255.749 352.787 2257.341 C 356.236 2258.27 358.906 2259.994 360.797 2262.515 C 362.687 2265.036 363.632 2268.253 363.632 2272.166 C 363.632 2276.478 363.297 2281.977 361.142 2285.393 C 358.986 2288.809 355.787 2292.684 352.138 2294.641 C 348.49 2296.598 344.377 2297.577 339.8 2297.577 Z" style="white-space: pre; fill: rgb(234, 234, 79);"/>
            </g>
            <g transform="matrix(0.997065, -0.076565, 0.076565, 0.997065, -93.722504, -856.619202)">
              <g transform="matrix(1, 0, 0, 1, 1008.01123, -3792.366943)">
                <path style="fill: rgb(234, 234, 79);" d="M 314.335 2236.86 C 373.253 2328.142 398.918 2407.66 398.235 2475.761 C 397.552 2543.862 408.962 2598.872 380.087 2681.713 C 351.212 2764.554 297.814 2799.876 246.872 2856.837 C 195.93 2913.798 137.096 2999.782 134.315 3087.84 L 145.584 3083.443 C 139.269 3062.819 194.186 2947.706 378.533 2862.397 C 464.839 2822.502 522.424 2760.295 535.464 2731.905 C 568.238 2677.157 577.554 2533.952 577.441 2516.979 C 580.496 2464.746 569.048 2389.712 558.645 2362.595 C 558.709 2362.638 516.902 2206.15 513.034 2203.571 L 523.311 2330.988 C 524.578 2331.241 522.065 2479.579 520.367 2494.516 C 521.309 2506.121 507.283 2610.08 499.905 2627.851 C 509.835 2622.247 524.659 2556.512 526.168 2546.34 C 530.5 2533.852 539.587 2451.852 539.032 2446.317 C 540.574 2461.245 528.442 2588.963 524.927 2602.303 C 519.728 2632.823 499.214 2700.705 477.753 2735.576 C 471.127 2748.091 441.432 2786.633 425.865 2794.407 C 422.395 2798.054 340.592 2843.582 315.328 2856.261 C 297.55 2865.184 239.396 2908.457 230.499 2914.648 C 243.166 2897.719 309.897 2830.147 328.936 2822.258 C 382.965 2773.824 410.335 2691.325 419.683 2645.439 C 431.11 2612.995 433.636 2483.087 430.772 2471.176 C 426.675 2363.823 354.95 2253.557 314.335 2236.86 Z"/>
                <path style="fill: rgb(234, 234, 79);" d="M 480.799 2551.252 C 474.108 2617.429 421.747 2756.702 386.36 2790.58 C 446.025 2760.216 490.231 2621.778 480.799 2551.252 Z"/>
                <path style="fill: rgb(234, 234, 79);" d="M 402.186 2312.944 C 419.66 2335.183 454.526 2425.44 457.441 2443.64 C 464.666 2464.342 470.063 2524.812 468.469 2560.991 C 467.863 2583.373 457.252 2641.207 440.162 2671.337 C 436.444 2677.892 419.766 2715.147 401.1 2736.35 C 408.48 2716.441 433.023 2635.354 436.051 2614.336 C 444.637 2554.743 445.271 2500.087 440.786 2473.065 C 441.121 2454.307 429.729 2396.721 422.227 2376.108 L 402.186 2312.944 Z"/>
              </g>
              <rect x="325.858" y="2235.154" width="34.919" height="25.624" style="fill: rgb(234, 234, 79);" rx="13.333" ry="13.333" transform="matrix(0.391785, 0.920057, -0.931405, 0.365134, 3460.98999, -2573.715088)"/>
              <rect x="428.103" y="3068.173" width="45.877" height="35.173" style="fill: rgb(234, 234, 79);" rx="17.59" ry="18.226" transform="matrix(0.975161, -0.221496, 0.204711, 0.978974, 334.276184, -4426.456543)"/>
              <rect x="428.781" y="3063.33" width="45.949" height="35.118" style="fill: rgb(234, 234, 79);" rx="17.59" ry="18.226" transform="matrix(0.954614, -0.297847, 0.276149, 0.961384, 170.900421, -4349.119629)"/>
              <rect x="428.781" y="3063.336" width="45.949" height="35.118" style="fill: rgb(234, 234, 79);" rx="17.59" ry="18.226" transform="matrix(0.954614, -0.297847, 0.276149, 0.961384, 214.646484, -4366.48877)"/>
              <rect x="325.858" y="2235.154" width="34.919" height="25.624" style="fill: rgb(234, 234, 79);" rx="13.333" ry="13.333" transform="matrix(0.391785, 0.920057, -0.931405, 0.365134, 3427.925781, -2564.48999)"/>
              <rect x="325.858" y="2235.16" width="34.919" height="25.624" style="fill: rgb(234, 234, 79);" rx="13.333" ry="13.333" transform="matrix(0.391785, 0.920057, -0.931405, 0.365134, 3414.090088, -2602.570557)"/>
              <rect x="325.858" y="2235.166" width="34.919" height="25.624" style="fill: rgb(234, 234, 79);" rx="13.333" ry="13.333" transform="matrix(0.391785, 0.920057, -0.931405, 0.365134, 3446.459961, -2615.522217)"/>
              <rect x="428.103" y="3068.179" width="45.877" height="35.173" style="fill: rgb(234, 234, 79);" rx="17.59" ry="18.226" transform="matrix(0.975161, -0.221496, 0.204711, 0.978974, 310.873138, -4467.148437)"/>
              <rect x="428.103" y="3068.179" width="45.877" height="35.173" style="fill: rgb(234, 234, 79);" rx="17.59" ry="18.226" transform="matrix(0.975161, -0.221496, 0.204711, 0.978974, 361.558594, -4489.67041)"/>
              <rect x="428.103" y="3068.179" width="45.877" height="35.173" style="fill: rgb(234, 234, 79);" rx="17.59" ry="18.226" transform="matrix(0.975161, -0.221496, 0.204711, 0.978974, 409.848816, -4506.37207)"/>
              <rect x="428.103" y="3068.177" width="45.877" height="35.173" style="fill: rgb(234, 234, 79);" rx="17.59" ry="18.226" transform="matrix(0.975161, -0.221496, 0.204711, 0.978974, 292.96936, -4512.383301)"/>
              <rect x="428.103" y="3068.181" width="45.877" height="35.173" style="fill: rgb(234, 234, 79);" rx="17.59" ry="18.226" transform="matrix(0.975161, -0.221496, 0.204711, 0.978974, 345.374817, -4529.606934)"/>
              <path id="use160462" d="M 1452.533 -1618.057 C 1452.533 -1618.057 1457.804 -1666.497 1482.798 -1654.02 C 1500.299 -1634.455 1452.533 -1618.057 1452.533 -1618.057 Z" fill-rule="evenodd" stroke-linejoin="round" stroke-width="6.291" style="stroke: rgb(231, 231, 55); fill: rgb(234, 234, 79);" transform="matrix(-0.945835, 0.324647, -0.324647, -0.945835, 2328.116901, -3662.558861)"/>
              <path id="path-1" d="M 1387.442 -1633.846 C 1387.442 -1633.846 1393.663 -1706.953 1424.901 -1688.123 C 1446.852 -1658.595 1387.442 -1633.846 1387.442 -1633.846 Z" fill-rule="evenodd" stroke-linejoin="round" stroke-width="6.291" style="stroke: rgb(231, 231, 55); fill: rgb(234, 234, 79);" transform="matrix(-0.997197, -0.07482, 0.07482, -0.997197, 2937.653173, -3215.017116)"/>
              <path id="path-2" d="M 1326.754 -1680.005 C 1326.754 -1680.005 1331.66 -1607.371 1363.45 -1626.081 C 1386.093 -1655.418 1326.754 -1680.005 1326.754 -1680.005 Z" fill-rule="evenodd" stroke-linejoin="round" stroke-width="6.291" style="stroke: rgb(231, 231, 55); fill: rgb(234, 234, 79);" transform="matrix(0.873344, -0.487104, 0.487104, 0.873344, 975.145089, 447.286393)"/>
              <path id="path-3" d="M 1358.787 -1678.275 C 1358.787 -1678.275 1364.732 -1751.352 1396.056 -1732.531 C 1418.13 -1703.014 1358.787 -1678.275 1358.787 -1678.275 Z" fill-rule="evenodd" stroke-linejoin="round" stroke-width="6.291" style="stroke: rgb(231, 231, 55); fill: rgb(234, 234, 79);" transform="matrix(-0.997016, 0.077196, -0.077196, -0.997016, 2623.876501, -3515.332018)"/>
              <path id="path-4" d="M 1294.845 -1733.429 C 1294.845 -1733.429 1299.91 -1660.679 1331.607 -1679.418 C 1354.148 -1708.802 1294.845 -1733.429 1294.845 -1733.429 Z" fill-rule="evenodd" stroke-linejoin="round" stroke-width="6.291" style="stroke: rgb(231, 231, 55); fill: rgb(234, 234, 79);" transform="matrix(0.905419, -0.424519, 0.424519, 0.905419, 848.202337, 397.325221)"/>
              <path id="path-5" d="M 1278.388 -1786.974 C 1278.388 -1786.974 1283.453 -1714.224 1315.15 -1732.963 C 1337.691 -1762.347 1278.388 -1786.974 1278.388 -1786.974 Z" fill-rule="evenodd" stroke-linejoin="round" stroke-width="6.291" style="stroke: rgb(231, 231, 55); fill: rgb(234, 234, 79);" transform="matrix(0.775512, -0.631333, 0.631333, 0.775512, 1401.834966, 425.561041)"/>
              <path id="path-6" d="M 1343.235 -1731.755 C 1343.235 -1731.755 1349.18 -1804.832 1380.504 -1786.011 C 1402.579 -1756.494 1343.235 -1731.755 1343.235 -1731.755 Z" fill-rule="evenodd" stroke-linejoin="round" stroke-width="6.291" style="stroke: rgb(231, 231, 55); fill: rgb(234, 234, 79);" transform="matrix(-0.970806, 0.239865, -0.239865, -0.970806, 2266.564275, -3796.725784)"/>
              <path id="path-7" d="M 1320.469 -1774.584 C 1320.469 -1774.584 1326.414 -1847.661 1357.738 -1828.84 C 1379.812 -1799.323 1320.469 -1774.584 1320.469 -1774.584 Z" fill-rule="evenodd" stroke-linejoin="round" stroke-width="6.291" style="stroke: rgb(231, 231, 55); fill: rgb(234, 234, 79);" transform="matrix(-0.966663, 0.256053, -0.256053, -0.966663, 2176.673589, -3889.917927)"/>
              <path id="path-8" d="M 1254.59 -1832.646 C 1254.59 -1832.646 1259.655 -1759.895 1291.353 -1778.635 C 1313.894 -1808.019 1254.59 -1832.646 1254.59 -1832.646 Z" fill-rule="evenodd" stroke-linejoin="round" stroke-width="6.291" style="stroke: rgb(231, 231, 55); fill: rgb(234, 234, 79);" transform="matrix(0.813823, -0.581113, 0.581113, 0.813823, 1285.858439, 405.343926)"/>
              <path id="path-10" d="M 1293.341 -1822.761 C 1293.341 -1822.761 1299.286 -1895.838 1330.61 -1877.017 C 1352.685 -1847.5 1293.341 -1822.761 1293.341 -1822.761 Z" fill-rule="evenodd" stroke-linejoin="round" stroke-width="6.291" style="stroke: rgb(231, 231, 55); fill: rgb(234, 234, 79);" transform="matrix(-0.82568, 0.564138, -0.564138, -0.82568, 1355.273107, -4121.657886)"/>
              <path id="path-11" d="M 1242.211 -1885.466 C 1242.211 -1885.466 1247.276 -1812.715 1278.973 -1831.455 C 1301.514 -1860.839 1242.211 -1885.466 1242.211 -1885.466 Z" fill-rule="evenodd" stroke-linejoin="round" stroke-width="6.291" style="stroke: rgb(231, 231, 55); fill: rgb(234, 234, 79);" transform="matrix(0.948953, -0.315419, 0.315419, 0.948953, 650.187337, 303.629814)"/>
            </g>
            <path d="M -42.706 -1463.176 C -42.706 -1448.558 -54.556 -1436.708 -69.174 -1436.708 C -83.792 -1436.708 -95.642 -1448.558 -95.642 -1463.176 C -95.642 -1477.794 -83.792 -1489.644 -69.174 -1489.644 C -54.556 -1489.644 -42.706 -1477.794 -42.706 -1463.176 Z M 1297.451 -1463.176 C 1297.451 -1448.558 1285.601 -1436.708 1270.983 -1436.708 C 1256.365 -1436.708 1244.515 -1448.558 1244.515 -1463.176 C 1244.515 -1477.794 1256.365 -1489.644 1270.983 -1489.644 C 1285.601 -1489.644 1297.451 -1477.794 1297.451 -1463.176 Z" style="fill: rgb(3, 100, 30);" transform="matrix(0.999874, 0.015863, -0.015863, 0.999874, -23.134761, -9.716257)"/>
            <path d="M 35.975 -1923.814 C 36.696 -1924.351 37.461 -1924.532 38.248 -1925 C 41.61 -1927 45.19 -1928.636 48.895 -1929.857 C 50.713 -1930.455 52.348 -1931.46 54.512 -1930.911 C 55.316 -1930.707 55.954 -1929.974 56.418 -1929.352 C 57.709 -1927.619 58.147 -1925.285 58.546 -1923.256 C 58.723 -1922.354 59.951 -1920.494 58.892 -1919.793 C 58.453 -1919.503 57.917 -1919.335 57.456 -1919.082 C 52.954 -1916.603 48.029 -1915.294 42.991 -1915.313 C 42.283 -1915.315 41.539 -1915.099 40.84 -1914.962 C 40.574 -1914.91 40.267 -1915.03 40.004 -1914.965 C 39.737 -1914.899 39.218 -1914.824 38.929 -1914.969 C 37.369 -1915.756 36.732 -1917.746 36.078 -1919.396 C 35.858 -1919.953 35.73 -1920.58 35.487 -1921.07 C 35.478 -1921.089 35.488 -1921.428 35.488 -1921.428" style="fill: rgb(3, 100, 30);"/>
            <path d="M 30.304 -1924.397 C 31.11 -1923.856 31.527 -1922.854 31.887 -1921.945 C 32.364 -1920.739 32.954 -1919.605 33.098 -1918.27 C 33.168 -1917.617 33.137 -1916.791 33.335 -1916.188 C 33.464 -1915.8 33.746 -1913.791 33.326 -1913.374 C 32.405 -1912.461 30.433 -1912.349 29.036 -1912.043 C 28.191 -1911.859 26.264 -1911.48 25.364 -1911.934 C 24.294 -1912.473 23.791 -1913.389 23.046 -1914.39 C 21.891 -1915.94 21.299 -1917.852 20.985 -1919.781 C 20.906 -1920.259 20.884 -1921.233 20.623 -1921.495 C 20.537 -1921.582 20.538 -1921.776 20.625 -1921.862 C 21.578 -1922.809 22.609 -1923.456 23.815 -1924.053 C 24.801 -1924.542 25.568 -1924.782 26.633 -1924.777" style="fill: rgb(3, 100, 30);"/>
            <path d="M 7.367 -1911.386 C 9.779 -1912.581 11.899 -1914.198 14.237 -1915.522 C 14.475 -1915.657 14.737 -1915.747 14.973 -1915.886 C 15.426 -1916.156 15.927 -1916.665 16.323 -1916.861 C 16.426 -1916.912 16.453 -1917.105 16.568 -1917.104 C 16.691 -1917.104 16.936 -1917.226 16.936 -1917.103 C 16.934 -1916.543 17.849 -1915.26 18.151 -1914.652 C 18.869 -1913.202 19.105 -1911.509 19.603 -1909.997 C 19.762 -1909.515 20.303 -1908.678 20.577 -1908.403 C 20.696 -1908.283 20.866 -1907.912 20.698 -1907.913 C 20.457 -1907.914 20.285 -1907.464 19.961 -1907.304 C 18.982 -1906.818 17.916 -1906.238 17.017 -1905.601 C 16.263 -1905.066 15.445 -1904.765 14.687 -1904.263 C 13.95 -1903.776 13.196 -1903.202 12.356 -1902.926 C 11.3 -1902.578 10.827 -1904.005 10.404 -1904.646 C 9.935 -1905.353 9.441 -1906.061 8.942 -1906.731 C 8.62 -1907.163 8.085 -1907.597 7.845 -1908.081 C 7.688 -1908.397 7.453 -1909.212 7.238 -1909.429" style="fill: rgb(3, 100, 30);"/>
            <path d="M -4.524 -1906.656 C -4.066 -1905.5 -3.62 -1904.342 -3.067 -1903.225 C -2.722 -1902.529 -3.045 -1901.911 -2.216 -1901.631 C -1.249 -1901.305 0.049 -1901.134 1.088 -1901.13 C 1.692 -1901.128 2.219 -1901.132 2.802 -1901.246 C 3.142 -1901.313 3.562 -1901.366 3.904 -1901.365 C 4.233 -1901.364 4.368 -1901.337 4.517 -1901.485 C 4.693 -1901.66 5.426 -1901.429 5.252 -1901.605 C 5.101 -1901.756 5.129 -1901.67 5.13 -1901.85 C 5.13 -1901.931 5.131 -1902.013 5.131 -1902.095 C 5.132 -1902.339 5.173 -1902.587 5.133 -1902.829 C 5.096 -1903.056 4.928 -1903.336 4.891 -1903.564 C 4.802 -1904.112 4.634 -1904.624 4.53 -1905.156 C 4.386 -1905.886 4.371 -1906.707 4.048 -1907.36 C 3.997 -1907.462 4.127 -1907.772 4.049 -1907.849 C 3.714 -1908.187 2.607 -1907.898 2.213 -1907.856 C 1.186 -1907.745 0.16 -1907.661 -0.849 -1907.377 C -1.134 -1907.297 -1.54 -1907.135 -1.829 -1907.136 C -1.853 -1907.136 -2.196 -1907.137 -2.196 -1907.137" style="fill: rgb(3, 100, 30);"/>
            <path d="M 27.701 -1905.409 C 29.158 -1905.767 30.614 -1906.255 32.117 -1906.438 C 32.624 -1906.499 33.636 -1906.321 34.092 -1906.547 C 34.674 -1906.836 36.033 -1906.764 36.413 -1906.191 C 37.038 -1905.247 37.382 -1904.161 37.563 -1903.053 C 37.652 -1902.507 37.617 -1901.833 37.789 -1901.311 C 38.003 -1900.661 37.997 -1900.014 38.13 -1899.336 C 38.272 -1898.617 38.64 -1898.455 38.242 -1898.059 C 38.186 -1898.003 37.726 -1898.061 37.661 -1898.061 C 36.912 -1898.064 36.293 -1898.178 35.572 -1898.301 C 34.036 -1898.562 32.645 -1899.333 31.165 -1899.709 C 30.706 -1899.826 30.025 -1899.808 29.772 -1900.062 C 29.257 -1900.581 29.416 -1901.73 29.2 -1902.386 C 29.115 -1902.643 29.203 -1903.198 29.203 -1903.198" style="fill: rgb(3, 100, 30);"/>
            <path d="M 14.528 -1901.627 C 16.542 -1901.956 18.518 -1902.664 20.592 -1902.427 C 20.849 -1902.397 21.178 -1902.425 21.412 -1902.346 C 21.521 -1902.309 21.624 -1902.357 21.725 -1902.306 C 21.789 -1902.274 21.988 -1902.316 22.038 -1902.265 C 22.107 -1902.195 22.131 -1901.924 22.153 -1901.796 C 22.244 -1901.288 22.195 -1900.775 22.265 -1900.271 C 22.315 -1899.917 22.308 -1899.577 22.262 -1899.216 C 22.254 -1899.156 22.319 -1898.767 22.26 -1898.708 C 22.201 -1898.65 22.084 -1898.65 22.025 -1898.592 C 21.983 -1898.55 21.815 -1898.628 21.79 -1898.631 C 21.412 -1898.687 21.033 -1898.767 20.657 -1898.831 C 20.246 -1898.901 19.821 -1898.88 19.406 -1898.914 C 18.688 -1898.971 17.977 -1899.066 17.257 -1899.117 C 16.92 -1899.14 16.574 -1899.11 16.24 -1899.159 C 15.791 -1899.225 15.316 -1899.308 14.872 -1899.399 C 14.849 -1899.403 14.521 -1899.517 14.521 -1899.517" style="fill: rgb(3, 100, 30);"/>
            <path d="M 40.859 -1907.032 C 41.936 -1907.458 42.89 -1908.038 43.931 -1908.554 C 45.568 -1909.365 47.357 -1910.113 49.052 -1910.784 C 49.63 -1911.013 50.351 -1911.02 50.894 -1911.289 C 52.241 -1911.956 53.873 -1912.635 55.399 -1913.01 C 56.398 -1913.256 57.549 -1913.565 58.47 -1914.021 C 58.813 -1914.191 59.113 -1914.378 59.494 -1914.529 C 60.531 -1914.939 61.336 -1915.238 62.258 -1915.541 C 62.392 -1915.585 63.31 -1915.918 63.486 -1915.741 C 64.263 -1914.958 64.78 -1913.209 65.006 -1912.056 C 65.19 -1911.123 65.875 -1910.035 66.428 -1909.292 C 66.939 -1908.606 67.181 -1907.73 67.442 -1906.938 C 67.527 -1906.68 67.499 -1906.486 67.542 -1906.222 C 67.617 -1905.763 67.992 -1904.428 67.636 -1904.075 C 67.489 -1903.929 66.983 -1903.911 66.716 -1903.874 C 65.933 -1903.765 65.146 -1903.671 64.363 -1903.576 C 63.877 -1903.517 63.303 -1903.698 62.829 -1903.581 C 62.035 -1903.386 61.192 -1903.602 60.375 -1903.488 C 58.349 -1903.206 56.119 -1903.345 54.135 -1902.692 C 53.192 -1902.382 52.221 -1902.167 51.269 -1901.885 C 50.702 -1901.717 50.176 -1901.304 49.631 -1901.073 C 48.911 -1900.768 48.195 -1900.745 47.482 -1900.57 C 47.215 -1900.504 47.07 -1900.418 46.766 -1900.47 C 46.106 -1900.582 45.474 -1900.712 44.927 -1900.987 C 44.725 -1901.089 44.607 -1901.373 44.418 -1901.5 C 43.996 -1901.783 43.452 -1902.062 43.092 -1902.425 C 42.735 -1902.784 42.364 -1903.362 42.074 -1903.655 C 41.999 -1903.73 42.177 -1903.859 42.177 -1903.859" style="fill: rgb(3, 100, 30);"/>
            <path style="fill: rgb(234, 234, 79);" d="M 334.554 -1697.132 C 336.324 -1693.56 345.122 -1667.06 322.188 -1658.825 C 314.759 -1675.071 265.069 -1725.864 242.066 -1731.053 C 211.427 -1717.319 160.358 -1697.856 102.452 -1716.663 C 73.711 -1722.906 16.436 -1767.918 0.29 -1815.004 C -2.848 -1822.268 -12.298 -1864.725 -38.97 -1877.893 C -33.263 -1881.137 -23.77 -1884.106 -22.474 -1884.041 C -18.67 -1881.142 5.089 -1853.739 23.882 -1849.651 C 31.974 -1847.417 41.816 -1842.008 72.676 -1848.007 C 116.732 -1856.571 134.689 -1849.728 157.172 -1843.387 C 153.454 -1851.967 125.849 -1859.295 114.895 -1861.114 C 88.137 -1866.948 47.738 -1856.782 30.809 -1858.651 C 25.277 -1859.571 4.881 -1862.688 -10.87 -1885.57 C 137.064 -1907.524 281.028 -1888.124 262.94 -1757.835 C 282.215 -1750.531 313.476 -1737.197 334.554 -1697.132 Z M 136.251 -1958.812 L 121.405 -1996.454 C 100.599 -2042.702 71.383 -2023.836 69.796 -2024.029 C 69.656 -2002.541 131.839 -1954.172 131.893 -1955.712 C 133.872 -1955.564 135.789 -1956.011 136.251 -1958.812 Z M 53.741 -1989.445 C 102.245 -1934.397 135.17 -1897.886 163.797 -1897.691 C 158.978 -1909.571 93.316 -1994.452 53.741 -1989.445 Z M 32.301 -1913.887 C 33.358 -1914.24 34.83 -1914.124 35.902 -1913.945 C 38.766 -1913.468 40.805 -1913.095 41.188 -1909.647 C 41.303 -1908.611 42.834 -1905.21 41.363 -1904.477 C 38.991 -1903.295 36.386 -1902.714 33.753 -1903.373 C 32.711 -1903.634 31.536 -1903.733 31.371 -1904.883 C 30.972 -1907.679 33.23 -1909.654 33.23 -1912.203 M 45.581 -1927.464 C 48.526 -1927.464 52.356 -1924.068 53.904 -1921.746 C 54.343 -1921.086 55.853 -1919.585 55.376 -1918.632 C 54.446 -1916.774 53.331 -1915.189 52.092 -1913.537 C 51.066 -1912.168 49.593 -1911.136 48.638 -1909.8 C 48.274 -1909.29 47.448 -1908.484 46.714 -1908.668 C 45.603 -1908.945 44.622 -1909.514 43.77 -1910.366 C 41.459 -1912.675 37.696 -1917.497 38.561 -1920.953 C 39.008 -1922.738 40.63 -1923.986 41.845 -1925.199 C 41.983 -1925.338 43.317 -1926.332 43.317 -1926.332 M 53.2 -1933.173 C 54.448 -1933.922 56.325 -1934.936 57.344 -1935.955 C 57.926 -1936.536 58.636 -1937.051 59.534 -1936.902 C 61.745 -1936.534 62.694 -1935.292 63.973 -1933.587 C 65.058 -1932.14 66.313 -1931.055 67.347 -1929.503 C 67.885 -1928.695 69.263 -1927.287 68.531 -1926.188 C 67.901 -1925.244 66.73 -1924.613 65.808 -1923.998 C 64.513 -1923.136 62.121 -1922.208 61.132 -1921.216 C 60.911 -1920.995 59.532 -1922.201 59.356 -1922.341 C 57.348 -1923.948 55.628 -1925.15 54.325 -1927.431 C 53.795 -1928.358 52.135 -1930.554 52.135 -1931.574 M 67.174 -1941.023 C 69.093 -1941.408 71.109 -1942.438 72.953 -1943.13 C 74.438 -1943.687 76.127 -1943.668 77.648 -1943.973 C 79.254 -1944.294 80.685 -1944.809 82.343 -1944.394 C 83.744 -1944.043 85.433 -1941.744 86.194 -1940.602 C 87.354 -1938.863 91.176 -1937.444 89.866 -1934.823 C 89.453 -1933.998 88.057 -1933.074 87.458 -1932.355 C 86.415 -1931.104 86.309 -1930.669 84.69 -1930.128 C 82.251 -1929.313 79.552 -1929.836 77.106 -1929.225 C 76.288 -1929.021 75.052 -1929.028 74.277 -1929.286 C 73.191 -1929.647 72.371 -1931.262 71.689 -1932.115 C 70.864 -1933.146 69.544 -1933.557 68.498 -1934.342 C 67.41 -1935.159 66.437 -1936.312 66.03 -1937.532 C 65.922 -1937.856 66.572 -1939.94 66.572 -1939.94 M 19.902 -1930.466 C 24.707 -1931.154 26.985 -1926.409 29.389 -1923.202 C 30.16 -1922.174 31.794 -1920.964 31.415 -1919.447 C 30.83 -1917.101 29.163 -1914.502 27.907 -1912.529 C 27.186 -1911.397 26.505 -1908.986 25.288 -1908.378 C 24.996 -1908.233 24.262 -1908.589 24.003 -1908.675 C 22.621 -1909.136 21.306 -1909.749 20.1 -1910.552 C 16.891 -1912.69 13.654 -1917.047 14.318 -1921.028 C 14.639 -1922.948 15.601 -1925.109 16.591 -1926.76 C 16.658 -1926.87 18.222 -1928.687 18.222 -1928.687 M 24.492 -1939.187 C 25.371 -1940.066 26.449 -1940.753 27.207 -1941.764 C 28.567 -1943.577 29.815 -1945.314 31.994 -1945.861 C 35.533 -1946.747 35.814 -1942.946 38.07 -1941.442 C 39.043 -1940.793 39.27 -1940.041 39.911 -1939.187 C 41.131 -1937.559 44.244 -1935.243 43.04 -1932.835 C 42.03 -1930.814 40.334 -1929.588 38.898 -1927.864 C 38.056 -1926.853 36.565 -1924.985 35.262 -1924.55 C 33.202 -1923.862 31.678 -1925.418 30.291 -1927.082 C 28.473 -1929.263 26.417 -1931.377 25.136 -1933.94 C 24.667 -1934.877 24.169 -1935.707 24.169 -1936.839 C 24.169 -1936.979 24.169 -1938.174 24.169 -1938.174 M 38.26 -1949.5 C 38.982 -1950.404 40.134 -1951.147 41.044 -1951.875 C 42.734 -1953.227 43.83 -1954.353 46.203 -1953.759 C 47.649 -1953.397 48.215 -1951.732 49.315 -1950.852 C 50.359 -1950.017 50.902 -1948.996 51.69 -1947.944 C 52.479 -1946.893 53.721 -1945.972 54.311 -1944.791 C 54.461 -1944.49 55.737 -1943.065 55.416 -1942.744 C 54.722 -1942.049 54.288 -1940.471 53.492 -1939.673 C 51.407 -1937.585 47.952 -1936.622 45.466 -1938.486 C 43.967 -1939.61 43.041 -1941.65 41.904 -1943.113 C 40.981 -1944.299 39.748 -1945.5 39.079 -1946.839 C 39.015 -1946.966 38.587 -1948.395 38.587 -1948.395 M 52.884 -1955.312 C 52.37 -1957.366 53.646 -1957.959 55.241 -1959.024 C 57.611 -1960.604 60.037 -1960.402 62.664 -1960.929 C 63.798 -1961.157 65.617 -1961.182 66.627 -1960.679 C 67.343 -1960.321 68.048 -1959.447 68.482 -1958.723 C 69.057 -1957.765 70.267 -1957.276 70.84 -1956.415 C 71.11 -1956.01 71.31 -1955.394 71.642 -1955.061 C 72.592 -1954.112 73.156 -1952.758 73.949 -1951.701 C 74.135 -1951.453 74.875 -1950.743 74.702 -1950.397 C 74.368 -1949.731 74.272 -1948.914 73.699 -1948.341 C 72.797 -1947.439 71.524 -1946.971 70.388 -1946.485 C 67.093 -1945.073 60.836 -1943.141 58.201 -1946.435 C 56.699 -1948.312 55.776 -1950.558 54.238 -1952.403 C 54.127 -1952.536 53.285 -1954.159 53.285 -1954.159 M 7.42 -1945.984 C 7.843 -1946.124 8.284 -1946.07 8.721 -1946.118 C 11.434 -1946.42 11.739 -1945.204 13.656 -1943.606 C 14.657 -1942.772 15.663 -1942.076 16.348 -1941.049 C 16.758 -1940.434 17.141 -1939.267 17.559 -1938.851 C 12.574 -1926.047 10.809 -1927.194 10.606 -1927.277 C 9.213 -1927.846 8.032 -1928.863 6.972 -1929.924 C 4.196 -1932.7 3.05 -1934.475 4.146 -1938.312 C 4.55 -1939.728 4.991 -1941.443 5.805 -1942.664 C 5.91 -1942.821 6.703 -1944.055 6.703 -1944.055 M 13.073 -1955.051 C 13.481 -1955.869 14.829 -1957.015 15.488 -1957.674 C 16.487 -1958.674 17.484 -1960.169 18.735 -1960.797 C 19.567 -1961.214 20.647 -1961.048 21.483 -1960.839 C 23.968 -1960.216 24.941 -1958.506 26.646 -1956.8 C 27.838 -1955.607 29.851 -1953.853 29.519 -1951.97 C 29.195 -1950.136 27.398 -1948.183 26.147 -1946.932 C 25.35 -1946.136 24.534 -1945.08 24.023 -1944.059 C 22.626 -1942.506 21.379 -1943.143 20.817 -1943.393 C 20.155 -1943.687 18.878 -1943.998 18.402 -1944.476 C 17.144 -1945.737 15.992 -1947.756 15.196 -1949.347 C 14.592 -1950.555 13.156 -1952.073 13.156 -1953.427 M 26.62 -1965.768 C 27.6 -1962.824 29.752 -1960.298 31.558 -1957.889 C 32.261 -1956.952 32.822 -1955.823 34.028 -1955.42 C 35.662 -1954.873 37.195 -1956.264 38.457 -1957.105 C 39.133 -1957.556 40.001 -1957.826 40.535 -1958.36 C 40.922 -1958.747 41.91 -1959.718 41.75 -1960.359 C 41.444 -1961.583 40.669 -1963.458 39.908 -1964.475 C 39.22 -1965.394 38.348 -1966.149 37.713 -1967.101 C 36.875 -1968.357 36.251 -1970.005 34.694 -1970.315 C 32.529 -1970.747 31.195 -1969.471 29.52 -1968.355 C 29.021 -1968.023 28.641 -1967.437 28.227 -1967.023 C 28.187 -1966.983 27.835 -1966.709 27.835 -1966.709 M 51.688 -1978.135 C 54.306 -1975.516 57.321 -1973.518 59.218 -1970.353 C 59.659 -1969.618 59.935 -1968.83 60.102 -1967.997 C 60.125 -1967.879 60.31 -1967.195 60.186 -1967.071 C 59.19 -1966.076 59.068 -1964.482 57.493 -1963.958 C 55.151 -1963.179 52.631 -1963.124 50.215 -1962.78 C 49.322 -1962.653 48.332 -1962.654 47.439 -1962.654 C 47.179 -1962.654 46.509 -1962.574 46.303 -1962.78 C 45.271 -1963.81 44.665 -1965.217 43.821 -1966.398 C 42.232 -1968.622 39.43 -1971.892 41.97 -1974.433 C 42.508 -1974.971 43.326 -1975.213 43.989 -1975.611 C 44.764 -1976.076 45.472 -1976.559 46.303 -1976.915 C 47.748 -1977.534 49.226 -1977.967 50.804 -1977.967 M -0.796 -1962.303 C -0.022 -1961.993 0.743 -1961.497 1.39 -1960.958 C 3.417 -1959.268 6.584 -1957.031 6.054 -1953.856 C 5.775 -1952.182 4.437 -1951.039 3.701 -1949.57 C 3.381 -1948.93 3.454 -1948.195 3.197 -1947.552 C 2.726 -1946.375 1.657 -1945.133 0.927 -1944.4 C 0.648 -1944.12 -0.829 -1945.076 -1.006 -1945.199 C -2.112 -1945.965 -3.147 -1946.812 -4.242 -1947.594 C -4.725 -1947.94 -5.705 -1948.461 -5.797 -1949.107 C -5.951 -1950.19 -6.414 -1951.555 -6.259 -1952.637 C -5.91 -1955.083 -4.687 -1957.383 -3.107 -1959.277 C -2.579 -1959.91 -2.241 -1960.901 -1.678 -1961.463 M 9.879 -1977.139 C 10.867 -1977.139 11.935 -1977.182 12.778 -1976.761 C 13.246 -1976.527 13.572 -1975.594 13.787 -1975.164 C 14.413 -1973.912 15.598 -1973.135 16.056 -1971.76 C 16.119 -1971.571 16.482 -1971.454 16.56 -1971.297 C 16.959 -1970.497 17.908 -1969.371 17.569 -1968.356 C 16.959 -1966.525 15.396 -1965.505 14.459 -1963.943 C 13.598 -1962.506 12.314 -1960.505 10.593 -1960.161 C 8.182 -1959.679 6.896 -1962.049 5.886 -1963.817 C 4.74 -1965.823 2.694 -1968.736 4.079 -1971.045 C 4.555 -1971.84 5.168 -1972.414 5.76 -1973.104 C 6.464 -1973.925 7.237 -1974.664 8.071 -1975.332 C 8.198 -1975.433 8.659 -1975.878 8.786 -1975.878 M 17.353 -1982.517 C 17.771 -1982.935 18.582 -1983.038 19.067 -1983.442 C 19.447 -1983.759 19.882 -1983.992 20.267 -1984.299 C 20.645 -1984.601 21.069 -1984.837 21.501 -1985.054 C 22.611 -1985.61 24.069 -1986.978 25.444 -1986.288 C 26.416 -1985.799 26.7 -1984.551 27.432 -1983.82 C 28.043 -1983.208 28.468 -1982.423 28.906 -1981.694 C 29.49 -1980.721 30.481 -1979.645 30.757 -1978.54 C 30.81 -1978.327 31.146 -1977.741 31.032 -1977.511 C 30.803 -1977.055 30.528 -1976.504 30.277 -1976.003 C 30.093 -1975.636 29.74 -1975.05 29.386 -1974.838 C 27.887 -1973.939 26.586 -1972.786 24.998 -1971.992 C 24.29 -1971.639 23.572 -1971.285 22.77 -1971.821 C 22.182 -1972.213 21.833 -1972.894 21.33 -1973.398 C 20.512 -1974.215 19.466 -1974.974 18.827 -1975.935 C 18.381 -1976.605 17.611 -1976.687 17.25 -1977.409 C 16.808 -1978.292 17.1 -1979.468 17.216 -1980.391 C 17.224 -1980.454 17.353 -1981.42 17.353 -1981.42 M 42.457 -1993.916 C 42.779 -1992.307 42.332 -1990.431 43.055 -1988.985 C 43.944 -1987.207 46.544 -1986.275 45.932 -1983.829 C 45.416 -1981.765 43.561 -1981.008 41.598 -1980.354 C 40.35 -1979.938 38.441 -1978.856 37.115 -1979.121 C 36.094 -1979.325 35.339 -1980.175 34.723 -1980.914 C 33.275 -1982.652 31.966 -1984.854 31.174 -1986.967 C 30.829 -1987.888 30.378 -1988.911 30.688 -1989.844 C 30.869 -1990.388 31.568 -1990.662 32.033 -1990.927 C 33.372 -1991.692 34.765 -1992.331 36.143 -1993.02 C 37.808 -1993.852 39.431 -1993.991 41.262 -1993.991 M -15.298 -1972.295 C -14.406 -1973.856 -13.354 -1976.242 -11.699 -1977.069 C -11.137 -1977.35 -10.358 -1977.14 -9.805 -1976.955 C -7.696 -1976.251 -6.71 -1974.733 -5.902 -1972.712 C -5.381 -1971.408 -4.693 -1970.566 -4.349 -1969.188 C -4.199 -1968.59 -4.71 -1967.481 -4.955 -1966.991 C -5.731 -1965.439 -6.728 -1964.112 -7.834 -1962.785 C -8.109 -1962.456 -8.345 -1961.965 -8.706 -1961.724 C -9.348 -1961.297 -10.313 -1962.38 -10.714 -1962.861 C -11.225 -1963.474 -11.328 -1964.366 -11.547 -1965.134 C -11.906 -1966.388 -12.476 -1967.585 -13.252 -1968.62 C -13.647 -1969.147 -13.832 -1969.808 -14.086 -1970.4 C -14.098 -1970.429 -14.313 -1970.893 -14.313 -1970.893 M 1.68 -1993.403 C 2.642 -1993.083 3.162 -1992.288 3.968 -1991.751 C 5.521 -1990.716 7.505 -1988.556 8.079 -1986.835 C 8.188 -1986.507 9.07 -1984.691 8.884 -1984.505 C 8.492 -1984.111 8.476 -1983.119 8.164 -1982.598 C 7.423 -1981.363 6.469 -1980.338 5.536 -1979.25 C 4.053 -1977.52 1.667 -1974.425 -0.862 -1975.055 C -2.248 -1975.4 -3.276 -1977.396 -3.956 -1978.53 C -4.947 -1980.182 -5.746 -1981.856 -6.583 -1983.53 C -7.138 -1984.641 -5.738 -1986.536 -5.1 -1987.301 C -4.019 -1988.598 -2.708 -1989.694 -1.498 -1990.903 C -1.395 -1991.006 -0.312 -1991.92 -0.312 -1991.92 M 8.243 -1998.942 C 9.829 -2000.21 12.146 -2001.755 13.958 -2002.36 C 14.539 -2002.554 15.26 -2003.012 15.934 -2002.787 C 18.546 -2001.915 19.962 -1998.372 21.327 -1996.325 C 21.748 -1995.694 22.786 -1994.398 22.502 -1993.548 C 21.847 -1991.583 20.389 -1990.261 18.711 -1988.955 C 17.588 -1988.082 15.71 -1987.672 14.385 -1987.406 C 14.12 -1987.353 13.182 -1986.953 12.943 -1987.193 C 11.628 -1988.509 9.713 -1990.823 8.831 -1992.587 C 8.298 -1993.652 8.381 -1994.803 8.19 -1995.951 C 8.172 -1996.058 8.243 -1997.126 8.243 -1997.126 M 22.54 -2007.378 C 24.432 -2008.639 26.826 -2009.053 28.931 -2009.842 C 32.533 -2011.192 36.148 -2012.565 39.866 -2013.307 C 41.867 -2013.707 43.761 -2014.936 45.872 -2014.231 C 46.862 -2013.901 47.919 -2013.876 48.644 -2013.153 C 49.094 -2012.703 49.423 -2011.123 49.645 -2010.458 C 50.487 -2007.929 50.502 -2004.533 47.72 -2002.681 C 45.251 -2001.037 42.937 -2000.445 40.251 -1999.37 C 38.824 -1998.799 37.226 -1997.928 35.707 -1997.676 C 34.828 -1997.529 33.837 -1997.566 33.012 -1997.29 C 31.168 -1996.674 29.565 -1995.796 27.622 -1996.443 C 25.009 -1997.315 23.754 -1999.423 22.925 -2001.911 C 22.625 -2002.812 22.463 -2003.818 22.463 -2004.76 C 22.463 -2004.783 22.463 -2005.761 22.463 -2005.761 M -19.665 -1991.099 C -16.337 -1991.653 -14.662 -1988.989 -13.988 -1986.292 C -13.511 -1984.384 -14.138 -1982.2 -16.187 -1981.689 C -19.282 -1980.917 -19.409 -1985.117 -19.409 -1987.161 C -19.409 -1987.575 -19.579 -1989.821 -20.023 -1989.821 M -13.937 -1998.464 C -13.341 -1999.457 -12.391 -2000.163 -11.584 -2000.969 C -9.865 -2002.689 -8.193 -2005.508 -5.856 -2006.288 C -3.031 -2007.232 0.787 -2003.099 0.127 -2000.458 C -0.096 -1999.563 -0.757 -1998.696 -1.254 -1997.952 C -2.892 -1995.497 -5.237 -1992.275 -8.158 -1991.304 C -8.789 -1991.094 -9.463 -1991.767 -9.999 -1991.968 C -12.149 -1992.776 -13.374 -1995.257 -13.374 -1997.492 M 0.025 -2009.817 C 1.026 -2011.319 2.281 -2012.644 3.452 -2014.011 C 5.081 -2015.913 8.71 -2018.009 10.969 -2015.75 C 11.56 -2015.159 11.8 -2014.376 12.248 -2013.704 C 12.72 -2012.997 13.868 -2010.756 13.424 -2009.868 C 12.589 -2008.199 11.363 -2007.009 9.947 -2005.828 C 8.346 -2004.494 7.515 -2002.845 5.395 -2003.373 C 5.063 -2003.456 4.633 -2003.831 4.321 -2003.987 C 3.8 -2004.248 3.344 -2004.606 2.94 -2005.01 C 1.833 -2006.117 1.563 -2007.458 0.894 -2008.794 M 15.833 -2021.407 C 16.542 -2021.94 17.503 -2022.215 18.295 -2022.611 C 20.658 -2023.794 23.044 -2024.994 25.626 -2025.511 C 28.087 -2026.003 30.397 -2027.056 32.793 -2027.535 C 35.297 -2028.036 37.277 -2026.852 39.304 -2025.839 C 39.845 -2025.569 40.99 -2024.774 41.164 -2024.252 C 41.65 -2022.796 42.431 -2021.036 41.109 -2019.711 C 38.093 -2016.688 33.597 -2016.642 29.784 -2015.499 C 25.717 -2014.279 20.07 -2009.76 16.709 -2014.24 C 16.202 -2014.916 15.874 -2015.588 15.56 -2016.374 C 15.172 -2017.344 15.724 -2018.327 15.724 -2019.11 M -20.304 -2012.643 C -19.599 -2013.701 -18.412 -2014.495 -17.443 -2015.223 C -15.779 -2016.473 -14.51 -2017.816 -12.658 -2018.741 C -11.919 -2019.11 -11.05 -2019.012 -10.312 -2019.258 C -9.594 -2019.497 -8.67 -2018.613 -8.154 -2018.226 C -5.773 -2016.439 -7.402 -2013.313 -8.952 -2011.376 C -10.082 -2009.963 -11.762 -2008.732 -12.752 -2007.248 C -13.618 -2005.948 -14.91 -2004.741 -16.27 -2004.058 C -17.019 -2003.681 -18.21 -2004.731 -18.663 -2005.184 C -20.296 -2006.817 -21.033 -2007.781 -20.68 -2010.25 C -20.65 -2010.459 -20.661 -2011.067 -20.492 -2011.235 M -5.668 -2023.715 C -2.992 -2025.497 -0.098 -2027.963 3.058 -2028.593 C 5.295 -2029.04 7.799 -2026.116 7.28 -2024.043 C 6.894 -2022.496 5.702 -2021.404 4.466 -2020.478 C 3.014 -2019.39 1.263 -2017.861 -0.46 -2017.287 C -1.299 -2017.008 -2.175 -2016.505 -3.087 -2017.053 C -4.215 -2017.73 -4.595 -2019.272 -5.058 -2020.431 C -5.108 -2020.557 -5.292 -2021.979 -5.292 -2021.979 M 10.001 -2029.625 C 10.381 -2030.575 11.159 -2031.502 11.456 -2032.393 C 11.739 -2033.243 13.805 -2034.111 14.552 -2034.41 C 17.641 -2035.647 22.21 -2037.495 24.92 -2034.786 C 25.818 -2033.887 27.496 -2034.517 27.875 -2033.003 C 28.462 -2030.66 24.52 -2029.51 22.902 -2028.921 C 21.28 -2028.331 19.765 -2027.5 18.117 -2026.951 C 16.787 -2026.508 13.699 -2024.623 12.347 -2025.637 C 11.569 -2026.221 11.57 -2027.257 10.94 -2027.889 M -9.28 -2032.346 C -8.772 -2034.381 -5.292 -2036.079 -3.416 -2036.287 C -2.793 -2036.356 -2.049 -2036.324 -1.445 -2036.475 C -0.672 -2036.668 1.68 -2036.761 1.979 -2035.865 C 2.133 -2035.403 1.749 -2034.33 1.604 -2033.894 C 1.325 -2033.06 0.339 -2032.254 -0.367 -2031.783 C -2.027 -2030.676 -3.938 -2029.765 -5.808 -2029.062 C -6.484 -2028.809 -7.877 -2027.97 -8.623 -2028.218 C -9.367 -2028.466 -9.699 -2029.472 -9.843 -2030.188 C -9.864 -2030.295 -10.031 -2031.08 -10.031 -2031.08 M -62.242 -1909.299 C -70.339 -1910.071 -104.244 -1914.251 -92.998 -1947.352 C -57.349 -1970.341 -17.018 -1921.159 -19.038 -1919.887 C -39.126 -1907.243 -50.583 -1912.369 -62.242 -1909.299 Z M -92.649 -2048.012 C -92.123 -2048.2 -48.758 -2004.62 -52.036 -1991.839 C -66.047 -1981.852 -48.386 -1963.513 -41.193 -1955.096 C -36.26 -1952.001 -18.706 -1933.95 -14.884 -1936.32 C -8.577 -1940.231 -50.763 -2018.599 -54.205 -2020.521 L -97.106 -2069.106 L -114.726 -2086.781 L -125.379 -2092.517 L -129.681 -2091.083 C -130.47 -2034.248 -98.191 -1986.772 -72.544 -1963.554 L -68.251 -1964.301 C -62.648 -1982.831 -91.167 -2048.43 -92.649 -2048.012 Z M -24.65 -2040.449 C 36.712 -2126.709 -9.605 -2187.134 -60.165 -2235.679 C -99.479 -2285.167 -95.48 -2306.501 -107.682 -2319.073 C -157.477 -2243.615 -175.354 -2077.62 -32.216 -2039.031 L -24.65 -2040.449 Z M -135.974 -2320.428 L -136.788 -2322.644 C -139.084 -2331.963 -123.453 -2355.691 -128.826 -2398.708 C -128.725 -2400.121 -134.462 -2420.699 -138.639 -2418.688 C -139.086 -2371.956 -167.605 -2307.563 -151.144 -2226.888 C -142.802 -2251.912 -134.64 -2306.629 -135.974 -2320.428 Z M 19.046 -2390.963 C -18.748 -2299.286 22.627 -2225.56 26.898 -2198.961 C 33.703 -2176.636 42.616 -2111.019 1.096 -2054.961 C 5.27 -2052.337 10.33 -2058.94 17.342 -2065.589 C 68.013 -2113.635 51.845 -2192.025 46.054 -2211.622 C 40.115 -2232.573 10.457 -2323.444 19.995 -2367.007 L 19.046 -2390.963 Z M -100.793 -2495.787 C -94.902 -2472.856 -103.596 -2444.578 -109.563 -2415.501 C -115.531 -2386.424 -118.772 -2356.548 -101.977 -2330.421 C -92.028 -2310.408 -76.78 -2266.208 -54.479 -2244.252 C -32.178 -2222.296 7.535 -2164.907 9.395 -2151.764 L 15.871 -2152.19 C 20.441 -2200.314 0.122 -2299.063 -12.111 -2320.692 C -21.351 -2323.959 -46.838 -2340.3 -51.65 -2370.647 C -43.02 -2423.289 -81.505 -2492.707 -100.793 -2495.787 Z M -31.939 -2390.091 C -31.274 -2390.745 -22.315 -2407.773 -9.323 -2410.976 C 14.797 -2352.017 -16.23 -2311.601 -31.939 -2390.091 Z M -43.639 -2426.365 C -44.713 -2423.263 -38.23 -2401.558 -34.712 -2398.626 C -32.371 -2396.675 -11.364 -2420.062 -10.693 -2420.201 C -9.741 -2420.399 -17.889 -2440.618 -21.427 -2440.712 C -31.41 -2440.688 -44.783 -2428.125 -43.639 -2426.365 Z M -51.042 -2449.498 C -50.107 -2445.737 -50.019 -2432.916 -44.039 -2434.227 L -24.001 -2448.526 L -31.394 -2461.852 C -43.388 -2458.427 -49.996 -2451.634 -50.751 -2450.763 L -51.042 -2449.498 Z M -58.019 -2468.233 C -50.044 -2476.114 -45.111 -2476.479 -39.196 -2477.152 L -34.447 -2468.87 C -35.618 -2466.906 -50.074 -2456.04 -53.675 -2455.723 C -55.427 -2456.143 -58.667 -2466.264 -58.019 -2468.233 Z M -61.619 -2481.543 C -60.952 -2482.043 -60.642 -2483.179 -60.09 -2483.915 C -58.997 -2485.372 -58.063 -2487.16 -56.452 -2488.08 C -54.839 -2489.001 -52.983 -2490.09 -51.128 -2490.399 C -49.971 -2490.592 -48.724 -2491.015 -47.49 -2490.768 C -45.295 -2490.329 -44.113 -2488.068 -43.484 -2486.182 C -43.127 -2485.112 -42.174 -2484.087 -42.957 -2482.913 C -44.692 -2480.31 -48.357 -2480.293 -51.128 -2478.907 C -53.479 -2477.731 -56.061 -2472.331 -59.194 -2473.898 C -59.747 -2474.174 -60.339 -2475.137 -60.722 -2475.585 C -61.248 -2476.198 -61.544 -2476.76 -61.777 -2477.536 C -62.082 -2478.555 -62.304 -2479.696 -62.304 -2480.646 M -65.836 -2501.312 C -64.316 -2503.213 -60.533 -2504.283 -58.139 -2503.684 C -57.144 -2503.435 -55.992 -2502.353 -55.134 -2501.839 C -53.505 -2500.861 -51.49 -2499.453 -50.653 -2497.78 C -50.405 -2497.283 -51.91 -2495.311 -52.235 -2494.986 C -53.551 -2493.669 -55.083 -2493.06 -56.505 -2491.875 C -57.861 -2490.746 -59.403 -2489.587 -60.933 -2488.712 C -61.877 -2488.173 -63.487 -2487.042 -64.518 -2487.816 C -66.972 -2489.657 -66.876 -2493.632 -66.363 -2496.198 C -66.193 -2497.047 -65.942 -2497.9 -65.942 -2498.781 C -65.942 -2498.824 -65.942 -2499.677 -65.942 -2499.677 M 46.606 -2739.436 C 45.736 -2736.356 32.204 -2682.997 48.704 -2662.179 C 49.25 -2652.097 57.438 -2569.803 7.777 -2532.826 C 0.037 -2529.837 -9.854 -2518.44 -15.233 -2493.111 C -32.016 -2486.123 -42.804 -2495.455 -34.241 -2509.865 C -15.765 -2540.959 -19.421 -2547.438 -27.108 -2547.592 C -71.351 -2580.606 -41.854 -2668.182 -29.901 -2668.39 C -16.087 -2689.094 8.91 -2717.633 28.923 -2731.83 L 34.08 -2744.084 C 35.731 -2733.945 40.953 -2735.181 46.606 -2739.436 Z M -38.614 -2672.602 C -28.472 -2691.026 -13.517 -2724.563 17.604 -2736.469 L 21.224 -2736.887 L 29.997 -2758.193 L 29.995 -2778.84 C 6.44 -2772.993 -35.421 -2747.814 -46.093 -2674.899 L -38.614 -2672.602 Z M 123.453 -2757.498 C 38.473 -2704.495 80.388 -2568.526 15.976 -2526.889 C 84.439 -2526.79 114.436 -2605.465 105.692 -2635.092 C 100.272 -2690.512 121.015 -2752.342 123.453 -2757.498 Z M 98.112 -2755.39 C 110.632 -2766.902 116.475 -2777.038 119.924 -2797.021 C 64.599 -2782.406 53.963 -2735.943 66.512 -2707.205 C 73.262 -2726.654 70.892 -2731.263 98.112 -2755.39 Z M 149.858 -2891.267 C 140.774 -2845.02 104.059 -2832.816 73.462 -2822.193 C 67.233 -2815.438 45.961 -2807.087 48.439 -2763.116 C 75.429 -2798.78 89.15 -2795.187 120.53 -2811.215 C 169.547 -2836.251 150.904 -2889.755 149.858 -2891.267 Z M 166.259 -2804.693 C 158.095 -2802.316 126.886 -2746.836 119.538 -2685.835 C 118.934 -2665.679 116.888 -2609.238 108.813 -2586.289 C 144.191 -2601.458 145.795 -2664.07 143.44 -2667.829 C 135.843 -2701.959 166.561 -2802.988 166.259 -2804.693 Z" transform="matrix(0.993443, 0.114328, -0.114328, 0.993443, -259.506656, -25.288564)"/>
            <path d="M 36.769 -1927.811 C 37.446 -1927.906 38.153 -1927.866 38.819 -1927.975 C 40.478 -1928.246 42.216 -1928.689 43.86 -1929.152 C 45.564 -1929.632 47.178 -1930.503 48.904 -1930.841 C 49.329 -1930.924 49.782 -1931.188 50.187 -1931.349 C 51.18 -1931.742 52.182 -1932.204 53.179 -1932.533 C 53.305 -1932.574 53.225 -1932.662 53.351 -1932.703 C 54.025 -1932.925 54.666 -1933.016 55.4 -1932.866 C 55.854 -1932.774 56.386 -1932.378 56.764 -1932.093 C 57.248 -1931.728 57.638 -1931.299 58.04 -1930.894 C 58.381 -1930.551 58.489 -1929.791 58.632 -1929.356 C 59.207 -1927.612 59.302 -1925.864 59.553 -1924.061 C 59.614 -1923.623 59.582 -1923.196 59.719 -1922.78 C 59.787 -1922.575 59.649 -1922.302 59.717 -1922.097 C 59.868 -1921.638 60.083 -1921.159 60.224 -1920.73 C 60.302 -1920.492 60.231 -1920.193 60.307 -1919.961 C 60.348 -1919.838 60.479 -1919.454 60.39 -1919.278 C 59.601 -1917.714 58.429 -1916.433 56.791 -1915.621 C 56.096 -1915.277 55.156 -1915.052 54.398 -1914.947 C 52.328 -1914.659 50.074 -1914.324 47.993 -1914.628 C 47.475 -1914.704 46.925 -1914.561 46.456 -1914.719 C 46.252 -1914.788 45.978 -1914.652 45.773 -1914.721 C 45.33 -1914.871 44.739 -1914.966 44.409 -1915.409 C 43.854 -1916.155 43.711 -1917.253 43.565 -1918.143 C 43.446 -1918.874 43.125 -1919.46 42.804 -1920.109 C 42.536 -1920.648 42.34 -1921.25 41.956 -1921.733 C 41.352 -1922.494 40.494 -1923.01 39.914 -1923.789 C 39.891 -1923.819 39.404 -1924.388 39.404 -1924.388" style="fill: rgb(234, 234, 79);"/>
            <path d="M 46.121 -1908.51 C 46.408 -1908.794 46.481 -1908.641 46.831 -1908.71 C 47.28 -1908.798 47.71 -1909.039 48.148 -1909.11 C 48.565 -1909.178 48.945 -1909.17 49.364 -1909.308 C 51.475 -1910.003 52.523 -1910.127 54.621 -1910.818 C 55.691 -1911.171 56.816 -1911.404 57.864 -1911.819 C 58.577 -1912.101 59.208 -1912.585 59.893 -1912.925 C 60.485 -1913.218 61.133 -1913.337 61.717 -1913.626 C 62.564 -1914.046 63.601 -1914.247 64.454 -1914.527 C 64.55 -1914.559 64.667 -1914.481 64.757 -1914.526 C 64.903 -1914.598 65.431 -1914.896 65.568 -1914.827 C 67.047 -1914.082 67.496 -1911.657 67.678 -1910.165 C 67.757 -1909.514 68.127 -1908.958 68.278 -1908.342 C 68.499 -1907.447 68.694 -1906.466 68.977 -1905.607 C 69.077 -1905.305 69.398 -1904.65 69.276 -1904.291 C 69.105 -1903.783 69.032 -1903.266 68.866 -1902.774 C 68.73 -1902.37 68.176 -1901.996 67.85 -1901.766 C 66.481 -1900.796 64.908 -1900.36 63.289 -1900.163 C 60.77 -1899.858 58.265 -1899.878 55.696 -1899.886 C 53.633 -1899.894 52.142 -1899.728 50.448 -1901.007 C 49.86 -1901.451 49.551 -1902.25 49.138 -1902.833 C 48.761 -1903.365 48.512 -1903.945 48.132 -1904.455 C 47.848 -1904.836 47.426 -1905.186 47.427 -1905.672" style="fill: rgb(234, 234, 79);"/>
            <path d="M 33.854 -1906.339 C 34.517 -1906.865 35.292 -1906.827 36.084 -1907.14 C 37.5 -1907.701 38.878 -1908.489 40.442 -1908.744 C 41.336 -1908.889 42.177 -1909.341 43.075 -1909.038 C 43.763 -1908.806 44.247 -1907.782 44.587 -1907.211 C 44.945 -1906.61 45.079 -1905.914 45.39 -1905.286 C 45.98 -1904.097 46.387 -1902.875 46.794 -1901.638 C 46.999 -1901.016 47.296 -1900.379 47.294 -1899.714 C 47.293 -1899.606 47.475 -1899.288 47.393 -1899.208 C 46.543 -1898.364 44.986 -1898.407 43.847 -1898.411 C 42.342 -1898.416 40.813 -1898.573 39.395 -1898.932 C 39.074 -1899.014 38.769 -1898.852 38.586 -1899.036 C 38.535 -1899.087 38.333 -1898.987 38.282 -1899.037 C 38.012 -1899.309 37.693 -1899.855 37.375 -1900.255 C 37.026 -1900.695 36.795 -1901.216 36.469 -1901.675 C 35.876 -1902.512 35.316 -1902.819 35.566 -1903.803 C 35.607 -1903.965 35.547 -1904.187 35.669 -1904.308" style="fill: rgb(234, 234, 79);"/>
            <path d="M 14.601 -1900.639 C 15.202 -1900.877 15.815 -1900.989 16.424 -1901.139 C 17.179 -1901.324 17.836 -1901.806 18.553 -1902.042 C 19.365 -1902.309 20.173 -1902.642 20.986 -1902.944 C 22.581 -1903.535 24.007 -1904.488 25.65 -1904.951 C 26.505 -1905.192 27.336 -1905.543 28.183 -1905.751 C 28.625 -1905.86 29.179 -1906.226 29.703 -1906.05 C 31.2 -1905.545 31.842 -1903.911 32.12 -1902.5 C 32.199 -1902.096 32.42 -1901.706 32.419 -1901.284 C 32.417 -1900.755 32.943 -1899.705 32.21 -1899.464 C 29.252 -1898.49 25.718 -1898.697 22.592 -1898.992 C 21.746 -1899.072 20.847 -1899.504 20.063 -1899.507" style="fill: rgb(234, 234, 79);"/>
            <path d="M -6.926 -1905.797 C -6.625 -1906.196 -6.237 -1906.403 -5.865 -1906.727 C -4.98 -1907.495 -4.073 -1908.28 -3.119 -1908.956 C -2.444 -1909.434 -1.63 -1909.656 -0.937 -1910.068 C -0.579 -1910.281 -0.202 -1910.533 0.185 -1910.686 C 0.265 -1910.718 0.633 -1910.758 0.683 -1910.809 C 0.763 -1910.888 0.946 -1911.073 1.182 -1910.994 C 1.75 -1910.802 2.202 -1909.969 2.483 -1909.496 C 2.927 -1908.751 3.094 -1907.888 3.471 -1907.129 C 3.919 -1906.226 4.447 -1905.297 4.768 -1904.325 C 4.94 -1903.802 5.084 -1903.185 5.322 -1902.706 C 5.388 -1902.572 5.513 -1902.338 5.382 -1902.208 C 5.174 -1902.002 4.669 -1902.033 4.386 -1901.963 C 3.404 -1901.721 2.401 -1901.536 1.397 -1901.414 C 1.091 -1901.377 0.77 -1901.44 0.463 -1901.417 C -0.096 -1901.376 -0.668 -1901.215 -1.218 -1901.112 C -2.4 -1900.891 -1.343 -1901.097 -2.277 -1900.867 C -3.2 -1900.64 -3.94 -1900.789 -4.702 -1901.249 C -4.912 -1901.376 -5.066 -1901.601 -5.26 -1901.748 C -5.668 -1902.056 -5.78 -1902.318 -5.941 -1902.808 C -6.045 -1903.125 -6.125 -1903.617 -6.125 -1903.742" style="fill: rgb(234, 234, 79);"/>
            <path d="M 7.24 -1912.478 C 7.736 -1912.97 8.352 -1913.306 8.836 -1913.786 C 9.358 -1914.305 9.883 -1914.81 10.501 -1915.301 C 10.768 -1915.513 10.995 -1915.795 11.195 -1916.059 C 11.542 -1916.518 12.088 -1916.827 12.445 -1917.299 C 12.842 -1917.825 13.222 -1918.412 13.764 -1918.816 C 14.466 -1919.338 15.294 -1919.852 15.914 -1920.467 C 16.067 -1920.619 16.362 -1920.637 16.538 -1920.742 C 16.754 -1920.87 16.946 -1921.095 17.162 -1921.223 C 17.478 -1921.411 17.891 -1921.55 18.201 -1921.704 C 18.449 -1921.826 18.772 -1921.589 18.961 -1921.494 C 19.694 -1921.124 20.117 -1920.469 20.685 -1919.897 C 21.179 -1919.4 21.621 -1918.906 22.063 -1918.371 C 22.624 -1917.694 23.338 -1917.192 23.854 -1916.498 C 24.5 -1915.632 25.031 -1914.749 25.436 -1913.727 C 25.664 -1913.15 25.985 -1912.523 25.983 -1911.928 C 25.982 -1911.813 26.032 -1911.545 25.981 -1911.444 C 25.725 -1910.938 25.075 -1910.493 24.662 -1910.135 C 24.074 -1909.624 23.48 -1909.031 22.789 -1908.69 C 21.755 -1908.177 20.637 -1907.698 19.534 -1907.387 C 18.599 -1907.124 17.633 -1906.97 16.696 -1906.706 C 15.835 -1906.464 14.993 -1906.097 14.134 -1905.885 C 14.06 -1905.868 13.63 -1905.629 13.511 -1905.749 C 13.384 -1905.876 13.28 -1905.917 13.096 -1906.027 C 12.968 -1906.105 12.908 -1906.265 12.821 -1906.374 C 12.477 -1906.807 12.064 -1907.205 11.788 -1907.691 C 11.574 -1908.069 11.457 -1908.503 11.239 -1908.869 C 10.891 -1909.453 10.487 -1909.973 10 -1910.463 C 9.855 -1910.609 9.379 -1910.87 9.379 -1911.088" style="fill: rgb(234, 234, 79);"/>
            <path d="M 22.86 -1922.44 C 23.986 -1923.277 24.52 -1923.103 25.811 -1923.651 C 26.909 -1924.116 27.839 -1924.911 28.908 -1925.364 C 29.554 -1925.638 30.083 -1926.014 30.709 -1926.22 C 30.883 -1926.278 31.2 -1926.476 31.428 -1926.361 C 34.296 -1924.915 35.754 -1921.821 36.362 -1918.727 C 36.446 -1918.295 36.796 -1917.925 37.004 -1917.575 C 37.395 -1916.919 37.545 -1916.051 37.86 -1915.416 C 37.952 -1915.23 38.132 -1914.528 37.999 -1914.266 C 37.784 -1913.839 37.277 -1913.549 36.917 -1913.263 C 36.26 -1912.742 35.239 -1912.312 34.397 -1912.194 C 34.086 -1912.151 33.686 -1912.152 33.39 -1912.054 C 33.029 -1911.935 32.578 -1911.913 32.168 -1911.915 C 32.068 -1911.915 31.826 -1911.871 31.736 -1911.916 C 30.438 -1912.571 29.6 -1914.334 28.658 -1915.52 C 28.37 -1915.883 27.884 -1916.146 27.655 -1916.53 C 27.528 -1916.744 27.408 -1916.995 27.226 -1917.178 C 27.008 -1917.398 26.713 -1917.572 26.509 -1917.827 C 26.333 -1918.05 26.105 -1918.25 25.937 -1918.476 C 25.728 -1918.756 25.595 -1919.18 25.365 -1919.412 C 25.255 -1919.523 25.188 -1919.844 25.079 -1919.844" style="fill: rgb(234, 234, 79);"/>
          </g>
          <path id="path-9" class="s0" aria-label="" d="M 320.339 -2808.434 C 317.605 -2808.434 314.239 -2809.034 310.239 -2810.234 C 306.372 -2811.568 302.505 -2813.201 298.639 -2815.134 C 294.905 -2817.134 291.872 -2819.134 289.539 -2821.134 L 292.239 -2827.634 C 295.705 -2826.301 299.372 -2825.334 303.239 -2824.734 C 307.239 -2824.201 311.439 -2823.934 315.839 -2823.934 C 325.505 -2823.934 333.772 -2826.834 340.639 -2832.634 C 347.639 -2838.568 352.939 -2847.134 356.539 -2858.334 L 356.339 -2859.934 C 352.605 -2856.201 348.472 -2853.368 343.939 -2851.434 C 339.405 -2849.568 334.872 -2848.634 330.339 -2848.634 C 322.872 -2848.634 316.939 -2850.934 312.539 -2855.534 C 308.272 -2860.334 306.139 -2866.534 306.139 -2874.134 C 306.139 -2880.868 307.439 -2887.468 310.039 -2893.934 C 312.772 -2900.534 316.272 -2905.901 320.539 -2910.034 C 324.805 -2913.968 329.105 -2915.934 333.439 -2915.934 C 338.505 -2915.934 343.305 -2913.634 347.839 -2909.034 C 352.505 -2904.501 356.305 -2898.034 359.239 -2889.634 C 360.772 -2885.368 361.872 -2881.134 362.539 -2876.934 C 363.339 -2872.868 363.739 -2868.768 363.739 -2864.634 C 363.739 -2858.434 362.772 -2852.234 360.839 -2846.034 C 359.039 -2839.834 356.439 -2834.101 353.039 -2828.834 C 349.839 -2823.701 346.039 -2819.401 341.639 -2815.934 C 334.905 -2810.934 327.805 -2808.434 320.339 -2808.434 Z M 335.039 -2864.834 C 338.239 -2864.834 341.139 -2865.101 343.739 -2865.634 C 346.472 -2866.168 350.105 -2867.368 354.639 -2869.234 C 353.039 -2875.434 350.839 -2880.901 348.039 -2885.634 C 345.172 -2890.368 342.072 -2893.868 338.739 -2896.134 C 336.005 -2898.134 333.272 -2899.134 330.539 -2899.134 C 327.872 -2899.134 325.239 -2898.068 322.639 -2895.934 C 320.039 -2893.934 317.839 -2891.368 316.039 -2888.234 C 314.372 -2885.034 313.539 -2882.201 313.539 -2879.734 C 313.539 -2874.934 315.405 -2871.234 319.139 -2868.634 C 322.872 -2866.101 328.172 -2864.834 335.039 -2864.834 Z M 424.339 -2848.634 C 419.339 -2848.634 414.805 -2849.301 410.739 -2850.634 C 406.739 -2852.101 403.539 -2854.068 401.139 -2856.534 C 398.672 -2859.201 397.239 -2862.301 396.839 -2865.834 C 396.439 -2869.701 395.972 -2873.868 395.439 -2878.334 C 395.105 -2882.801 394.672 -2887.868 394.139 -2893.534 C 393.605 -2899.201 393.005 -2905.668 392.339 -2912.934 C 391.872 -2920.334 391.305 -2928.734 390.639 -2938.134 C 389.972 -2947.601 389.205 -2958.334 388.339 -2970.334 C 390.139 -2972.201 392.139 -2974.068 394.339 -2975.934 C 396.539 -2977.868 398.905 -2979.701 401.439 -2981.434 C 401.839 -2971.168 402.172 -2961.001 402.439 -2950.934 C 402.705 -2940.934 402.905 -2930.334 403.039 -2919.134 C 403.305 -2908.001 403.505 -2895.668 403.639 -2882.134 L 404.239 -2868.834 C 407.172 -2867.101 410.339 -2865.768 413.739 -2864.834 C 417.205 -2864.034 420.739 -2863.634 424.339 -2863.634 C 425.405 -2863.634 425.939 -2863.134 425.939 -2862.134 L 425.939 -2850.234 C 425.939 -2849.168 425.405 -2848.634 424.339 -2848.634 Z M 422.639 -2848.634 C 421.572 -2848.634 421.039 -2849.168 421.039 -2850.234 L 421.039 -2862.134 C 421.039 -2863.134 421.572 -2863.634 422.639 -2863.634 C 428.572 -2863.634 434.572 -2864.301 440.639 -2865.634 C 446.839 -2867.101 452.272 -2868.901 456.939 -2871.034 C 456.005 -2874.034 454.972 -2877.334 453.839 -2880.934 C 452.639 -2884.601 451.339 -2888.534 449.939 -2892.734 C 448.605 -2896.201 447.639 -2899.001 447.039 -2901.134 C 446.505 -2903.334 446.239 -2904.968 446.239 -2906.034 C 446.239 -2908.968 447.339 -2911.934 449.539 -2914.934 C 451.872 -2918.001 454.972 -2920.568 458.839 -2922.634 C 459.105 -2920.834 459.605 -2918.001 460.339 -2914.134 C 461.139 -2910.468 462.105 -2905.734 463.239 -2899.934 C 464.305 -2895.534 465.039 -2891.634 465.439 -2888.234 C 465.972 -2884.901 466.239 -2882.068 466.239 -2879.734 C 466.239 -2877.734 465.572 -2874.901 464.239 -2871.234 C 463.105 -2867.634 461.439 -2863.734 459.239 -2859.534 C 447.505 -2852.268 435.305 -2848.634 422.639 -2848.634 Z M 449.139 -2936.134 C 443.472 -2940.468 438.839 -2944.768 435.239 -2949.034 C 438.572 -2952.434 441.339 -2955.334 443.539 -2957.734 C 445.739 -2960.068 447.472 -2961.968 448.739 -2963.434 C 450.805 -2961.168 452.872 -2958.934 454.939 -2956.734 C 457.139 -2954.601 459.339 -2952.534 461.539 -2950.534 C 460.139 -2948.468 458.339 -2946.168 456.139 -2943.634 C 454.072 -2941.234 451.739 -2938.734 449.139 -2936.134 Z M 504.939 -2850.234 L 496.039 -2848.634 C 495.905 -2860.234 495.639 -2871.334 495.239 -2881.934 C 494.972 -2892.468 494.605 -2902.534 494.139 -2912.134 C 493.739 -2921.801 493.272 -2930.934 492.739 -2939.534 C 492.205 -2948.068 491.572 -2956.168 490.839 -2963.834 C 490.572 -2967.368 490.739 -2970.334 491.339 -2972.734 C 492.139 -2975.134 493.505 -2976.968 495.439 -2978.234 C 497.505 -2979.701 500.205 -2980.768 503.539 -2981.434 C 504.072 -2978.968 504.939 -2975.534 506.139 -2971.134 C 507.405 -2966.934 508.805 -2962.534 510.339 -2957.934 L 505.139 -2953.334 C 505.672 -2943.601 506.005 -2933.568 506.139 -2923.234 C 506.405 -2912.968 506.405 -2901.901 506.139 -2890.034 C 506.005 -2878.168 505.605 -2864.901 504.939 -2850.234 Z M 552.239 -2848.634 C 536.439 -2848.634 528.539 -2852.801 528.539 -2861.134 C 528.539 -2863.334 528.805 -2865.301 529.339 -2867.034 C 530.005 -2868.768 530.905 -2870.301 532.039 -2871.634 C 535.305 -2868.968 539.005 -2866.968 543.139 -2865.634 C 547.272 -2864.301 552.372 -2863.634 558.439 -2863.634 C 562.572 -2863.634 566.839 -2863.968 571.239 -2864.634 C 575.705 -2865.434 580.339 -2866.501 585.139 -2867.834 C 581.939 -2873.768 578.972 -2879.834 576.239 -2886.034 C 573.639 -2892.234 571.572 -2897.901 570.039 -2903.034 C 568.505 -2908.234 567.739 -2912.001 567.739 -2914.334 C 567.739 -2917.668 568.572 -2920.368 570.239 -2922.434 C 571.905 -2924.701 574.472 -2926.368 577.939 -2927.434 C 580.939 -2916.234 583.939 -2906.068 586.939 -2896.934 C 589.872 -2887.934 593.539 -2880.268 597.939 -2873.934 C 600.539 -2870.134 603.172 -2867.434 605.839 -2865.834 C 608.572 -2864.368 611.739 -2863.634 615.339 -2863.634 C 616.539 -2863.634 617.139 -2863.134 617.139 -2862.134 L 617.139 -2850.234 C 617.139 -2849.168 616.539 -2848.634 615.339 -2848.634 C 610.205 -2848.634 605.639 -2849.501 601.639 -2851.234 C 597.772 -2853.034 594.339 -2855.601 591.339 -2858.934 C 579.605 -2852.068 566.572 -2848.634 552.239 -2848.634 Z M 613.839 -2848.634 C 612.772 -2848.634 612.239 -2849.168 612.239 -2850.234 L 612.239 -2862.134 C 612.239 -2863.134 612.772 -2863.634 613.839 -2863.634 C 623.239 -2863.634 629.939 -2865.501 633.939 -2869.234 C 635.139 -2870.301 636.639 -2872.401 638.439 -2875.534 C 640.239 -2878.734 642.872 -2883.701 646.339 -2890.434 C 647.005 -2891.434 647.839 -2892.201 648.839 -2892.734 C 649.905 -2893.401 651.072 -2893.734 652.339 -2893.734 C 653.939 -2893.734 655.572 -2893.201 657.239 -2892.134 C 655.772 -2888.734 654.272 -2885.268 652.739 -2881.734 C 651.205 -2878.134 649.539 -2874.634 647.739 -2871.234 C 652.272 -2868.434 656.339 -2866.434 659.939 -2865.234 C 663.672 -2864.168 667.739 -2863.634 672.139 -2863.634 C 673.139 -2863.634 673.639 -2863.134 673.639 -2862.134 L 673.639 -2850.234 C 673.639 -2849.168 673.139 -2848.634 672.139 -2848.634 C 660.139 -2848.634 649.939 -2852.534 641.539 -2860.334 C 641.005 -2859.534 640.472 -2858.734 639.939 -2857.934 C 639.472 -2857.268 638.905 -2856.601 638.239 -2855.934 C 636.972 -2854.268 633.872 -2852.634 628.939 -2851.034 C 624.139 -2849.434 619.105 -2848.634 613.839 -2848.634 Z M 644.239 -2912.334 C 638.572 -2916.734 633.905 -2921.034 630.239 -2925.234 C 633.639 -2928.634 636.439 -2931.534 638.639 -2933.934 C 640.839 -2936.334 642.572 -2938.234 643.839 -2939.634 C 645.905 -2937.434 647.972 -2935.201 650.039 -2932.934 C 652.239 -2930.868 654.439 -2928.834 656.639 -2926.834 C 655.239 -2924.701 653.439 -2922.401 651.239 -2919.934 C 649.172 -2917.534 646.839 -2915.001 644.239 -2912.334 Z M 670.439 -2848.634 C 669.372 -2848.634 668.839 -2849.168 668.839 -2850.234 L 668.839 -2862.134 C 668.839 -2863.134 669.372 -2863.634 670.439 -2863.634 C 678.439 -2863.634 685.205 -2863.968 690.739 -2864.634 C 696.272 -2865.434 700.205 -2866.701 702.539 -2868.434 C 703.939 -2869.368 705.605 -2871.401 707.539 -2874.534 C 709.539 -2877.868 712.405 -2883.168 716.139 -2890.434 C 716.739 -2891.434 717.505 -2892.201 718.439 -2892.734 C 719.439 -2893.401 720.672 -2893.734 722.139 -2893.734 C 723.672 -2893.734 725.272 -2893.201 726.939 -2892.134 C 726.205 -2890.201 725.105 -2887.634 723.639 -2884.434 C 722.372 -2881.434 721.139 -2878.601 719.939 -2875.934 C 718.805 -2873.334 717.972 -2871.768 717.439 -2871.234 C 721.839 -2868.434 725.905 -2866.434 729.639 -2865.234 C 733.439 -2864.168 737.505 -2863.634 741.839 -2863.634 C 742.905 -2863.634 743.439 -2863.134 743.439 -2862.134 L 743.439 -2850.234 C 743.439 -2849.168 742.905 -2848.634 741.839 -2848.634 C 729.839 -2848.634 719.639 -2852.468 711.239 -2860.134 L 708.139 -2855.934 C 707.272 -2855.001 704.772 -2853.968 700.639 -2852.834 C 696.639 -2851.634 691.839 -2850.634 686.239 -2849.834 C 680.839 -2849.034 675.572 -2848.634 670.439 -2848.634 Z M 724.639 -2812.634 C 719.239 -2816.968 715.039 -2821.001 712.039 -2824.734 C 714.905 -2827.468 719.039 -2831.868 724.439 -2837.934 C 725.105 -2837.401 726.405 -2836.168 728.339 -2834.234 C 730.272 -2832.234 732.972 -2829.501 736.439 -2826.034 C 735.172 -2824.234 733.572 -2822.201 731.639 -2819.934 C 729.705 -2817.668 727.372 -2815.234 724.639 -2812.634 Z M 695.739 -2809.634 C 692.939 -2812.034 690.439 -2814.201 688.239 -2816.134 C 686.039 -2818.268 684.239 -2820.134 682.839 -2821.734 C 684.639 -2823.334 686.572 -2825.234 688.639 -2827.434 C 690.705 -2829.701 692.939 -2832.268 695.339 -2835.134 C 695.872 -2834.534 697.105 -2833.234 699.039 -2831.234 C 701.105 -2829.234 703.839 -2826.601 707.239 -2823.334 C 706.039 -2821.334 704.472 -2819.201 702.539 -2816.934 C 700.605 -2814.734 698.339 -2812.301 695.739 -2809.634 Z M 740.139 -2848.634 C 739.072 -2848.634 738.539 -2849.168 738.539 -2850.234 L 738.539 -2862.134 C 738.539 -2863.134 739.072 -2863.634 740.139 -2863.634 C 749.072 -2863.634 756.872 -2864.101 763.539 -2865.034 C 770.272 -2866.101 776.239 -2867.368 781.439 -2868.834 C 783.972 -2869.501 786.539 -2870.368 789.139 -2871.434 C 791.872 -2872.568 794.572 -2873.868 797.239 -2875.334 C 796.105 -2879.068 794.439 -2882.634 792.239 -2886.034 C 790.039 -2889.501 787.272 -2892.801 783.939 -2895.934 C 780.539 -2899.134 776.605 -2902.234 772.139 -2905.234 C 767.739 -2908.301 762.639 -2911.268 756.839 -2914.134 C 755.239 -2913.734 753.605 -2913.534 751.939 -2913.534 C 748.605 -2913.534 745.772 -2914.734 743.439 -2917.134 C 741.239 -2919.601 740.139 -2922.701 740.139 -2926.434 C 740.139 -2927.901 740.339 -2929.601 740.739 -2931.534 C 741.139 -2933.668 741.572 -2935.734 742.039 -2937.734 C 742.705 -2939.668 743.305 -2941.368 743.839 -2942.834 C 744.372 -2944.301 744.805 -2945.101 745.139 -2945.234 C 753.805 -2949.834 761.305 -2953.734 767.639 -2956.934 C 773.972 -2960.068 779.672 -2962.834 784.739 -2965.234 C 789.872 -2967.568 794.772 -2969.734 799.439 -2971.734 C 804.105 -2973.868 809.005 -2975.968 814.139 -2978.034 C 816.072 -2976.501 817.039 -2974.001 817.039 -2970.534 C 817.039 -2967.534 816.405 -2965.168 815.139 -2963.434 C 813.805 -2961.701 811.672 -2960.234 808.739 -2959.034 C 799.939 -2955.368 791.805 -2951.901 784.339 -2948.634 C 776.805 -2945.301 769.939 -2942.268 763.739 -2939.534 C 757.672 -2936.734 752.205 -2934.134 747.339 -2931.734 C 757.139 -2929.268 766.505 -2925.201 775.439 -2919.534 C 784.439 -2913.934 791.605 -2907.668 796.939 -2900.734 C 802.339 -2893.868 805.039 -2887.334 805.039 -2881.134 C 805.039 -2870.268 799.405 -2862.068 788.139 -2856.534 C 782.739 -2854.068 776.039 -2852.101 768.039 -2850.634 C 760.172 -2849.301 750.872 -2848.634 740.139 -2848.634 Z M 755.839 -2956.734 C 753.105 -2958.934 750.772 -2960.901 748.839 -2962.634 C 747.039 -2964.501 745.505 -2966.168 744.239 -2967.634 C 745.505 -2968.768 747.105 -2970.334 749.039 -2972.334 C 750.972 -2974.334 753.172 -2976.701 755.639 -2979.434 C 756.305 -2978.634 757.539 -2977.334 759.339 -2975.534 C 761.139 -2973.801 763.472 -2971.534 766.339 -2968.734 C 765.005 -2966.934 763.505 -2965.034 761.839 -2963.034 C 760.172 -2961.034 758.172 -2958.934 755.839 -2956.734 Z M 871.339 -2848.634 C 866.272 -2848.634 861.739 -2849.301 857.739 -2850.634 C 853.739 -2852.101 850.505 -2854.068 848.039 -2856.534 C 845.572 -2859.201 844.139 -2862.301 843.739 -2865.834 C 843.405 -2869.701 842.972 -2873.868 842.439 -2878.334 C 842.039 -2882.801 841.572 -2887.868 841.039 -2893.534 C 840.572 -2899.201 840.005 -2905.668 839.339 -2912.934 C 838.805 -2920.334 838.205 -2928.734 837.539 -2938.134 C 836.939 -2947.601 836.172 -2958.334 835.239 -2970.334 C 837.039 -2972.201 839.039 -2974.068 841.239 -2975.934 C 843.439 -2977.868 845.839 -2979.701 848.439 -2981.434 C 848.839 -2971.168 849.172 -2961.001 849.439 -2950.934 C 849.705 -2940.934 849.872 -2930.334 849.939 -2919.134 C 850.205 -2908.001 850.405 -2895.668 850.539 -2882.134 L 851.139 -2868.834 C 854.139 -2867.101 857.305 -2865.768 860.639 -2864.834 C 864.105 -2864.034 867.672 -2863.634 871.339 -2863.634 C 872.339 -2863.634 872.839 -2863.134 872.839 -2862.134 L 872.839 -2850.234 C 872.839 -2849.168 872.339 -2848.634 871.339 -2848.634 Z M 938.939 -2848.634 C 933.739 -2848.634 928.305 -2849.101 922.639 -2850.034 C 916.972 -2851.101 911.472 -2852.468 906.139 -2854.134 C 900.872 -2856.001 896.239 -2858.134 892.239 -2860.534 C 889.239 -2856.268 885.939 -2853.234 882.339 -2851.434 C 878.739 -2849.568 874.472 -2848.634 869.539 -2848.634 C 868.539 -2848.634 868.039 -2849.168 868.039 -2850.234 L 868.039 -2862.134 C 868.039 -2863.134 868.539 -2863.634 869.539 -2863.634 C 874.472 -2863.634 878.605 -2864.834 881.939 -2867.234 C 885.272 -2869.768 888.172 -2873.468 890.639 -2878.334 C 892.972 -2882.668 894.805 -2886.234 896.139 -2889.034 C 897.539 -2891.901 898.805 -2894.468 899.939 -2896.734 C 901.139 -2899.001 902.639 -2901.301 904.439 -2903.634 C 907.639 -2908.034 910.939 -2911.134 914.339 -2912.934 C 917.672 -2914.934 921.205 -2915.934 924.939 -2915.934 C 928.672 -2915.934 932.439 -2913.568 936.239 -2908.834 C 939.972 -2904.034 943.005 -2897.968 945.339 -2890.634 C 947.605 -2883.368 948.739 -2876.234 948.739 -2869.234 C 948.739 -2865.101 948.039 -2861.401 946.639 -2858.134 C 945.239 -2854.868 942.672 -2851.701 938.939 -2848.634 Z M 934.639 -2863.634 C 934.505 -2869.701 933.605 -2875.668 931.939 -2881.534 C 930.272 -2887.468 928.405 -2891.934 926.339 -2894.934 C 924.872 -2897.201 923.372 -2898.334 921.839 -2898.334 C 917.105 -2898.334 912.672 -2895.368 908.539 -2889.434 C 907.472 -2887.834 906.172 -2885.701 904.639 -2883.034 C 903.172 -2880.568 901.539 -2877.401 899.739 -2873.534 C 904.272 -2871.068 909.439 -2868.968 915.239 -2867.234 C 921.105 -2865.634 927.572 -2864.434 934.639 -2863.634 Z" style="fill: rgb(255, 254, 254);"/>
        </g>
        <g transform="matrix(1.015533, 0.039986, -0.039556, 1.004605, 1030.785645, -4749.60791)" style="">
          <path style="fill: rgb(3, 100, 30);" d="M -977.783 3125.155 L -923.44 3129.569 L -1087.596 3277.696 L -1061.334 3301.286 L -1112.211 3305.967 C -1243.541 3213.574 -1146.26 3101.475 -1051.656 3164.619 L -1054.554 3170.201 C -1091.622 3158.338 -1105.922 3174.826 -1112.609 3179.649 C -1131.822 3203.996 -1127.809 3195.16 -1129.827 3224.495 C -1124.305 3238.185 -1120.445 3245.026 -1113.224 3248.932 L -977.783 3125.155 Z"/>
          <path style="fill: rgb(3, 100, 30);" d="M -1077.677 2990.096 L -1026.586 3005.519 L -1214.747 3120.889 L -1195.255 3150.993 L -1245.743 3144.79 C -1336.513 3050.403 -1295.722 2964.397 -1199.077 2996.158 L -1141.11 2900.986 C -1140.064 2894.629 -1140.915 2892.854 -1143.687 2889.703 C -1144.532 2887.718 -1141.565 2882.61 -1135.863 2885.626 L -1093.248 2900.933 C -1088.805 2902.229 -1089.583 2909.987 -1092.584 2915.395 C -1099.987 2933.583 -1137.784 2995.985 -1167.297 3023.209 C -1208.686 2990.813 -1282.165 3028.26 -1239.612 3089.048 L -1077.677 2990.096 Z"/>
          <path style="fill: rgb(3, 100, 30);" d="M -1315.598 2865.723 C -1229.896 2880.333 -1166.434 2803.054 -1179.552 2767.508 C -1194.145 2742.199 -1241.327 2744.525 -1275.298 2759.071 C -1283.392 2763.6 -1393.495 2806.092 -1343.68 2880.426 C -1343.024 2881.392 -1351.122 2886.369 -1350.698 2885.168 C -1412.426 2842.029 -1410.397 2810.265 -1375.447 2760.759 C -1323.897 2717.774 -1255.425 2709.249 -1191.196 2737.706 C -1153.132 2754.157 -1114.255 2792.161 -1140.713 2841.47 C -1160.971 2863.427 -1198.264 2898.431 -1247.908 2895.835 C -1282.707 2894.016 -1314.029 2876.966 -1318.979 2872.412 C -1320.627 2869.699 -1315.991 2865.092 -1315.598 2865.723 Z"/>
          <path style="fill: rgb(3, 100, 30);" d="M -1390.894 2703.64 C -1396.572 2696.811 -1398.069 2696.407 -1390.98 2689.096 C -1376.395 2671.559 -1177.807 2581.345 -1178.343 2584.384 L -1207.928 2548.137 C -1210.683 2548.821 -1218.005 2551.682 -1222.086 2552.296 C -1229.352 2552.558 -1245.96 2549.745 -1258.158 2546.731 C -1265.578 2547.225 -1441.556 2494.545 -1455.861 2487.659 C -1457.159 2491.418 -1409.436 2545.413 -1410.797 2545.736 C -1376.083 2539.825 -1265.497 2565.689 -1261.985 2569.216 C -1266.281 2574.071 -1427.777 2653.657 -1427.62 2654.296 C -1445.877 2667.851 -1426.739 2679.085 -1424.785 2682.065 L -1398.171 2707.63 C -1394.485 2708.244 -1390.734 2705.051 -1390.894 2703.64 Z"/>
          <path style="fill: rgb(3, 100, 30);" d="M -1415.944 2438.135 C -1412.495 2447.411 -1405.023 2446.945 -1405.977 2439.374 C -1410.045 2426.111 -1388.384 2429.347 -1384.731 2429.025 L -1184.828 2444.926 L -1210.544 2406.949 C -1214.689 2402.488 -1221.855 2403.352 -1224.409 2403.287 L -1434.849 2384.164 C -1452.72 2384.145 -1441.363 2399.133 -1438.395 2405.612 L -1415.944 2438.135 Z"/>
          <path style="fill: rgb(3, 100, 30);" d="M -1412.948 2332.689 C -1409.749 2344.499 -1399.222 2345.162 -1401.378 2334.262 C -1399.322 2322.319 -1376.14 2310.138 -1361.304 2303.496 L -1176.064 2355.882 C -1176.556 2350.282 -1197.881 2312.814 -1197.767 2309.753 C -1199.555 2307.536 -1202.581 2307.834 -1203.758 2307.836 L -1313.901 2280.306 C -1316.662 2277.643 -1313.514 2276.058 -1310.724 2274.169 C -1295.097 2265.801 -1183.674 2214.325 -1143.14 2218.826 L -1163.884 2181.49 L -1394.381 2120.485 C -1396.193 2122.877 -1392.815 2126.895 -1392.763 2127.3 L -1367.721 2170.764 C -1345.323 2169.792 -1260.906 2186.839 -1247.001 2194.001 C -1246.751 2197.072 -1249.09 2198.539 -1250.656 2199.351 C -1260.315 2198.05 -1417.862 2274.08 -1428.429 2287.452 C -1432.34 2295.942 -1433.881 2296.899 -1428.511 2304.835 L -1412.948 2332.689 Z"/>
          <path style="fill: rgb(3, 100, 30);" d="M -1248.155 1958.905 C -1265.328 1951.478 -1332.722 2005.412 -1241.257 2050.469 C -1139.149 2100.769 -1112.066 2052.618 -1089.413 2007.395 L -1084.592 2006.782 C -1084.998 2025.75 -1050.894 2063.11 -1093.66 2100.156 C -1118.227 2117.905 -1168.062 2128.501 -1219.685 2103.262 C -1249.403 2091.157 -1279.035 2060.911 -1289.014 2041.418 C -1323.563 1973.933 -1298.068 1895.784 -1259.69 1913.387 C -1259.886 1914.017 -1241.916 1956.815 -1248.155 1958.905 Z"/>
          <path style="fill: rgb(3, 100, 30);" d="M -1139.429 1783.686 C -1141.384 1789.516 -1158.38 1812.12 -1164.674 1818.308 C -1165.138 1819.661 -1171.373 1826.172 -1168.308 1829.261 L -1136.117 1856.428 C -1133.582 1858.318 -1129.315 1863.613 -1125.604 1859.736 L -1088.653 1812.787 C -1088.092 1812.533 -1084.052 1805.765 -1081.717 1807.367 C -1077.955 1811.402 -1072.607 1834.221 -1071.677 1840.802 C -1069.997 1856.395 -1075.748 1869.772 -1092.885 1888.428 L -1092.977 1892.385 L -1050.468 1926.615 C -1048.108 1928.115 -1042.763 1935.437 -1037.975 1932.874 L -978.358 1856.409 L -966.371 1897.877 C -965.374 1900.51 -963.99 1907.649 -965.65 1909.706 L -1005.323 1955.892 C -1009.584 1956.957 -1017.676 1965.15 -1038.663 1967.632 L -1046.172 1977.013 L -1109.212 1924.012 C -1116.889 1917.68 -1117.743 1917.996 -1119.019 1918.877 L -1137.57 1942.753 C -1137.792 1943.058 -1139.577 1944.636 -1140.608 1943.498 C -1141.316 1935.475 -1142.769 1905.623 -1148.029 1891.981 L -1184.723 1861.571 C -1191.081 1856.304 -1193.22 1850.307 -1199.136 1851.4 L -1220.98 1876.26 C -1221.183 1853.684 -1224.623 1826.512 -1226.505 1824.062 C -1208.024 1807.933 -1147.492 1729.739 -1147.409 1726.918 C -1144.169 1736.596 -1135.444 1779.969 -1139.429 1783.686 Z"/>
          <path style="fill: rgb(3, 100, 30);" d="M -728.921 1464.782 C -730.876 1470.612 -747.872 1493.216 -754.166 1499.404 C -754.63 1500.757 -760.865 1507.268 -757.8 1510.357 L -725.609 1537.524 C -723.074 1539.414 -718.807 1544.709 -715.096 1540.832 L -678.145 1493.883 C -677.584 1493.629 -673.544 1486.861 -671.209 1488.463 C -667.447 1492.498 -662.099 1515.317 -661.169 1521.898 C -659.489 1537.491 -665.24 1550.868 -682.377 1569.524 L -682.469 1573.481 L -639.96 1607.711 C -636.38 1608.365 -621.438 1621.535 -620.741 1621.838 C -621.429 1656.596 -628.066 1667.301 -628.066 1667.301 L -698.704 1605.108 C -706.381 1598.776 -707.235 1599.092 -708.511 1599.973 L -727.062 1623.849 C -727.284 1624.154 -729.069 1625.732 -730.1 1624.594 C -730.808 1616.571 -732.261 1586.719 -737.521 1573.077 L -774.215 1542.667 C -780.573 1537.4 -782.712 1531.403 -788.628 1532.496 L -810.472 1557.356 C -810.675 1534.78 -814.115 1507.608 -815.997 1505.158 C -797.516 1489.029 -736.984 1410.835 -736.901 1408.014 C -733.661 1417.692 -724.936 1461.065 -728.921 1464.782 Z" transform="matrix(0.897071, 0.441886, -0.441886, 0.897071, 605.528534, 475.706497)"/>
          <path style="fill: rgb(3, 100, 30);" d="M -921.266 1723.056 C -835.564 1737.666 -772.101 1660.387 -785.219 1624.841 C -799.813 1599.532 -846.995 1601.858 -880.966 1616.404 C -889.06 1620.933 -999.162 1663.425 -949.348 1737.759 C -948.692 1738.725 -956.789 1743.702 -956.365 1742.501 C -1018.093 1699.362 -1016.064 1667.598 -981.114 1618.092 C -929.565 1575.107 -861.093 1566.582 -796.864 1595.039 C -758.799 1611.49 -719.922 1649.494 -746.38 1698.803 C -766.638 1720.76 -803.932 1755.764 -853.576 1753.168 C -888.375 1751.349 -919.697 1734.299 -924.647 1729.745 C -926.295 1727.032 -921.659 1722.425 -921.266 1723.056 Z" transform="matrix(0.309603, 0.950866, -0.950866, 0.309603, 982.289184, 1978.892759)"/>
          <path style="fill: rgb(3, 100, 30);" d="M 462.349 3183.525 C 547.297 3198.239 611.104 3120.411 598.443 3084.612 C 584.211 3059.124 537.337 3061.466 503.456 3076.116 C 495.373 3080.677 385.613 3123.471 434.315 3198.333 C 434.956 3199.306 426.866 3204.318 427.299 3203.108 C 366.448 3159.663 368.787 3127.673 403.998 3077.816 C 455.623 3034.525 523.699 3025.94 587.185 3054.599 C 624.813 3071.167 663.027 3109.441 636.251 3159.1 C 615.911 3181.213 578.522 3216.466 529.254 3213.851 C 494.719 3212.019 463.792 3194.848 458.924 3190.262 C 457.315 3187.53 461.965 3182.89 462.349 3183.525 Z" transform="matrix(-0.58994, -0.816229, 0.798759, -0.58994, -1682.510989, 5388.148779)"/>
          <path style="fill: rgb(3, 100, 30);" d="M 364.045 1851.203 C 367.571 1860.537 374.993 1860.068 373.964 1852.45 C 369.779 1839.105 391.342 1842.361 394.969 1842.037 L 593.814 1858.036 L 567.851 1819.824 C 563.684 1815.336 556.571 1816.205 554.032 1816.14 L 344.681 1796.899 C 326.92 1796.879 338.366 1811.96 341.385 1818.479 L 364.045 1851.203 Z" transform="matrix(-0.657929, 0.761271, -0.744976, -0.65793, 2131.404408, 2676.409473)"/>
          <path style="fill: rgb(3, 100, 30);" d="M 445.936 2072.848 C 449.244 2084.722 459.721 2085.389 457.46 2074.429 C 459.376 2062.421 482.3 2050.173 496.984 2043.494 L 681.777 2096.168 C 681.227 2090.537 659.616 2052.864 659.696 2049.786 C 657.894 2047.557 654.888 2047.856 653.717 2047.858 L 543.879 2020.177 C 541.104 2017.5 544.218 2015.906 546.972 2014.007 C 562.424 2005.593 672.685 1953.834 713.047 1958.36 L 692.014 1920.819 L 462.118 1859.48 C 460.342 1861.885 463.745 1865.925 463.801 1866.332 L 489.174 1910.034 C 511.439 1909.057 595.579 1926.198 609.485 1933.399 C 609.767 1936.487 607.456 1937.962 605.908 1938.778 C 596.287 1937.47 440.418 2013.917 430.053 2027.362 C 426.254 2035.899 424.732 2036.861 430.158 2044.841 L 445.936 2072.848 Z" transform="matrix(-0.705006, 0.716915, -0.70157, -0.705007, 2359.156004, 2963.678314)"/>
          <path style="fill: rgb(3, 100, 30);" d="M 576.852 2769.276 C 580.078 2781.087 590.606 2781.75 588.424 2770.849 C 590.451 2758.904 613.601 2746.721 628.419 2740.079 L 813.764 2792.472 C 813.259 2786.871 791.846 2749.398 791.953 2746.336 C 790.16 2744.119 787.135 2744.417 785.958 2744.419 L 675.762 2716.885 C 672.995 2714.222 676.139 2712.637 678.924 2710.747 C 694.529 2702.378 805.815 2650.894 846.354 2655.396 L 825.523 2618.054 L 594.906 2557.04 C 593.1 2559.433 596.487 2563.451 596.54 2563.856 L 621.684 2607.326 C 644.078 2606.354 728.526 2623.403 742.446 2630.566 C 742.704 2633.639 740.369 2635.106 738.805 2635.918 C 729.144 2634.617 571.797 2710.658 561.264 2724.032 C 557.374 2732.523 555.835 2733.481 561.224 2741.418 L 576.852 2769.276 Z" transform="matrix(-0.993725, 0.113063, -0.110643, -0.993726, 1695.631367, 5253.353717)"/>
          <path style="fill: rgb(3, 100, 30);" d="M -488.889 1620.683 L -466.938 1449.917 C -478.101 1427.217 -496.271 1393.518 -484.715 1379.391 L -458.251 1358.884 L -449.284 1360.294 C -452.588 1389.732 -399.389 1486.22 -378.647 1508.278 C -351.966 1546.788 -325.001 1546.483 -308.207 1498.09 C -289.725 1444.832 -293.208 1395.028 -293.285 1387.13 L -244.604 1346.068 C -244.229 1345.425 -238.699 1345.399 -240.686 1353.746 L -257.597 1407.115 C -260.018 1427.851 -227.872 1558.202 -221.428 1573.62 C -221.451 1581.028 -217.315 1584.01 -228.133 1591.597 L -257.147 1617.802 C -261.406 1607.005 -286.186 1492.716 -286.23 1490.041 C -286.563 1488.905 -290.111 1487.28 -291.663 1493.021 C -300.304 1510.884 -330.629 1586.809 -357.41 1589.679 C -370.126 1591.042 -383.187 1577.962 -385.505 1574.496 C -386.947 1576.659 -436.319 1507.701 -435.925 1507.111 C -438.816 1505.181 -440.605 1510.58 -440.669 1514.264 L -443.692 1582.724 L -486.924 1621.85 L -488.889 1620.683 Z"/>
          <path style="fill: rgb(3, 100, 30);" d="M -211.982 1611.617 C -174.759 1573.199 -88.752 1404.137 -82.671 1391.548 L -51.798 1378.206 C -41.264 1375.057 -40.022 1380.202 -38.777 1384.549 C -40.858 1386.772 -27.99 1565.112 -12.076 1606.095 C -9.15 1613.629 -6.953 1616.454 0.382 1618.24 C 3.867 1621.929 4.506 1625.236 0.948 1628.225 C -5.724 1631.759 -22.127 1645.025 -39.455 1648.766 C -43.906 1647.937 -51.018 1645.518 -52.678 1634.164 L -64.778 1577.138 C -65.824 1572.032 -72.691 1573.948 -78.158 1572.175 L -143.965 1559.085 C -149.89 1567.552 -155.334 1579.02 -158.893 1594.772 C -159.865 1596.869 -162.676 1598.914 -170.51 1601.331 C -173.894 1602.375 -199.986 1612.421 -211.025 1613.408 L -211.982 1611.617 Z M -77.504 1538.928 C -67.792 1541.517 -72.295 1527.822 -71.647 1526.836 L -79.496 1446.586 C -79.942 1442.64 -83.703 1445.442 -84.402 1446.566 L -126.37 1524.393 C -128.064 1529.345 -122.58 1529.567 -120.338 1529.805 L -77.504 1538.928 Z"/>
          <path style="fill: rgb(3, 100, 30);" d="M 585.937 2512.928 C 622.991 2474.12 709.035 2303.341 715.122 2290.624 L 745.755 2277.146 C 756.2 2273.965 757.402 2279.163 758.612 2283.554 C 756.54 2285.799 768.327 2465.951 783.862 2507.35 C 786.719 2514.961 788.879 2517.815 796.13 2519.619 C 799.561 2523.345 800.175 2526.686 796.637 2529.705 C 790.014 2533.275 773.705 2546.676 756.531 2550.455 C 752.129 2549.617 745.102 2547.174 743.519 2535.704 L 731.845 2478.099 C 730.837 2472.941 724.028 2474.877 718.626 2473.086 L 653.55 2459.863 C 647.64 2468.416 642.189 2480 638.582 2495.912 C 637.609 2498.031 634.815 2500.096 627.047 2502.538 C 623.691 2503.593 597.808 2513.741 586.875 2514.738 L 585.937 2512.928 Z M 719.451 2439.501 C 729.051 2442.116 724.666 2428.282 725.313 2427.286 L 717.971 2346.221 C 717.551 2342.235 713.813 2345.065 713.115 2346.201 L 671.154 2424.818 C 669.45 2429.821 674.878 2430.045 677.096 2430.285 L 719.451 2439.501 Z" transform="matrix(0.257732, 0.976727, -0.95582, 0.257732, 2820.691445, 1114.964851)"/>
          <path style="fill: rgb(3, 100, 30);" d="M 514.282 2993.554 C 550.94 2954.741 635.25 2783.938 641.208 2771.22 L 671.702 2757.74 C 682.113 2754.559 683.367 2759.757 684.621 2764.149 C 682.572 2766.395 696.176 2946.57 712.127 2987.975 C 715.059 2995.587 717.248 2998.441 724.517 3000.245 C 727.984 3003.972 728.633 3007.313 725.125 3010.333 C 718.539 3013.903 702.367 3027.306 685.233 3031.085 C 680.823 3030.248 673.772 3027.804 672.073 3016.333 L 659.82 2958.72 C 658.76 2953.562 651.972 2955.497 646.552 2953.706 L 581.351 2940.481 C 575.528 2949.036 570.195 2960.622 566.749 2976.536 C 565.797 2978.654 563.024 2980.72 555.282 2983.162 C 551.937 2984.217 526.16 2994.366 515.238 2995.363 L 514.282 2993.554 Z M 647.038 2920.117 C 656.663 2922.733 652.14 2908.896 652.776 2907.9 L 644.618 2826.824 C 644.157 2822.837 640.448 2825.668 639.762 2826.804 L 598.599 2905.431 C 596.946 2910.434 602.375 2910.659 604.596 2910.899 L 647.038 2920.117 Z" transform="matrix(-0.233137, 0.983022, -0.96198, -0.233137, 3549.512512, 2958.27507)"/>
          <path style="fill: rgb(3, 100, 30);" d="M 248.9 1501.69 C 251.118 1504.307 250.645 1518.459 234.112 1520.641 L 201.593 1525.976 C 199.644 1512.189 193.871 1492.103 176.537 1485.576 C 160.238 1479.438 144.063 1488.636 135.152 1498.701 C 126.209 1503.876 107.26 1530.753 99.322 1558.822 C 97.19 1563.91 85.925 1609.146 89.813 1624.332 C 96.3 1666.205 117.809 1686.982 135.377 1683.609 C 182.23 1661.853 163.494 1602.388 154.622 1596.585 C 170.137 1588.548 193.075 1582.28 200.612 1587.268 C 224.896 1598.129 215.478 1621.618 211.257 1637.176 C 210.273 1640.803 196.164 1667.892 165.188 1683.122 C 161.205 1686.799 124.123 1703.071 94.351 1702.29 C 88.238 1700.721 57.54 1696.221 45.985 1663.175 C 40.475 1628.212 39.01 1600.788 47.7 1573.912 C 68.19 1510.546 114.388 1484.577 126.609 1480.398 C 207.89 1447.747 240.365 1491.618 248.9 1501.69 Z"/>
          <path style="fill: rgb(3, 100, 30);" d="M 539.167 2173.457 L 728.548 2115.328 C 733.291 2113.09 729.524 2107.225 728.963 2105.703 L 715.322 2077.825 L 718.766 2078.221 L 769.452 2098.91 C 773.768 2104.251 813.256 2200.783 770.357 2244.484 C 752.9 2265.221 729.001 2286.551 683.993 2295.646 C 647.805 2293.416 642.159 2298.145 600.686 2281.151 C 587.636 2275.803 544.854 2251.966 540.641 2229.115 C 538.38 2216.854 535.39 2173.132 539.167 2173.457 Z M 602.316 2264.198 C 623.792 2280.233 662.974 2265.892 666.026 2264.916 C 689.954 2261.606 726.575 2230.978 730.657 2227.616 C 750.875 2211.287 751.431 2153.298 740.079 2151.039 L 590.789 2200.282 C 581.824 2216.06 589.583 2250.288 602.316 2264.198 Z"/>
          <path style="fill: rgb(3, 100, 30);" d="M 235.861 1685.572 C 225.153 1660.475 217 1623.606 228.529 1607.986 L 263.484 1578.726 L 267.019 1577.584 C 263.423 1610.13 301.85 1725.709 321.984 1750.094 C 347.764 1792.67 369.43 1790.252 386.514 1736.75 C 405.314 1677.868 392.318 1615.492 392.335 1606.76 L 443.206 1561.517 C 439.448 1561.141 441.952 1610.541 439.803 1619.597 C 417.068 1701.407 411.248 1722.701 407.691 1733.227 C 400.783 1753.67 368.271 1836.918 341.906 1840.092 C 329.387 1841.598 316.698 1827.137 314.461 1823.305 C 313.017 1825.696 265.285 1749.456 265.679 1748.803 C 262.923 1749.351 235.96 1685.669 235.96 1685.669 L 235.946 1685.634 L 235.911 1685.638 L 235.852 1685.645 L 235.861 1685.572 Z" transform="matrix(0.739338, 0.680658, -0.666089, 0.739338, 1219.739713, 216.646447)"/>
        </g>
        <g style="" transform="matrix(1.019103, -0.111878, 0.109126, 0.994031, 190.787659, 70.502419)">
          <path id="OFFICIAL SEAL " class="s1" aria-label="OFFICIAL SEAL " d="M 54.612 -1510.747 C 42.23 -1510.747 32.137 -1504.196 24.339 -1491.095 C 16.628 -1478.048 12.377 -1460.223 11.588 -1437.622 C 10.801 -1415.13 13.806 -1397.361 20.605 -1384.313 C 27.486 -1371.21 37.123 -1364.66 49.504 -1364.66 C 61.932 -1364.66 71.982 -1371.21 79.647 -1384.313 C 87.358 -1397.361 91.606 -1415.13 92.392 -1437.622 C 93.183 -1460.223 90.18 -1478.048 83.381 -1491.095 C 76.632 -1504.196 67.04 -1510.747 54.612 -1510.747 Z M 55.297 -1530.319 C 72.988 -1530.319 86.849 -1521.912 96.875 -1505.098 C 106.904 -1488.338 111.424 -1465.846 110.437 -1437.622 C 109.455 -1409.507 103.36 -1387.015 92.156 -1370.146 C 80.957 -1353.441 66.511 -1345.089 48.819 -1345.089 C 31.084 -1345.089 17.181 -1353.441 7.106 -1370.146 C -2.923 -1386.906 -7.444 -1409.398 -6.457 -1437.622 C -5.471 -1465.846 0.624 -1488.338 11.824 -1505.098 C 23.071 -1521.912 37.561 -1530.319 55.297 -1530.319 Z" style="fill: rgb(0, 98, 27); stroke: rgb(3, 100, 30); stroke-width: 4.93771px;" transform="matrix(0.776931, 0.645466, -0.614097, 0.776931, -871.291892, -354.265686)"/>
          <path id="OFFICIAL SEAL " class="s1" aria-label="OFFICIAL SEAL " d="M 1065.847 -1237.848 L 1063.998 -1414.642 L 1081.223 -1414.642 L 1082.862 -1257.952 L 1144.988 -1257.952 L 1145.198 -1237.848 L 1065.847 -1237.848 Z" style="fill: rgb(0, 98, 27); stroke: rgb(3, 100, 30); stroke-width: 4.93797px;" transform="matrix(0.88453, -0.466483, 0.466483, 0.88453, 746.218704, 362.134951)"/>
          <path id="OFFICIAL SEAL " class="s1" aria-label="OFFICIAL SEAL " d="M 953.426 -1197.758 L 1000.71 -1374.324 L 1020.305 -1374.324 L 1070.393 -1197.758 L 1052.475 -1197.758 L 1040.432 -1243.013 L 982.92 -1243.013 L 971.613 -1197.758 L 953.426 -1197.758 Z M 1034.9 -1262.927 L 1010.631 -1350.765 L 987.927 -1262.927 L 1034.9 -1262.927 Z" style="fill: rgb(0, 98, 27); stroke: rgb(3, 100, 30); stroke-width: 4.93787px;" transform="matrix(0.940326, -0.340275, 0.340275, 0.940326, 497.992224, 267.584212)"/>
          <path id="OFFICIAL SEAL " class="s1" aria-label="OFFICIAL SEAL " d="M 865.578 -1165.481 L 864.531 -1341.917 L 945.32 -1341.917 L 945.439 -1321.773 L 881.977 -1321.773 L 882.287 -1269.595 L 943.131 -1269.595 L 943.249 -1249.532 L 882.406 -1249.532 L 882.785 -1185.543 L 947.792 -1185.543 L 947.911 -1165.481 L 865.578 -1165.481 Z" style="fill: rgb(0, 98, 27); stroke: rgb(3, 100, 30); stroke-width: 4.9378px;" transform="matrix(0.97071, -0.240254, 0.240254, 0.97071, 327.74934, 181.002445)"/>
          <path id="OFFICIAL SEAL " class="s1" aria-label="OFFICIAL SEAL " d="M 841.869 -1315.39 L 841.998 -1292.095 C 835.435 -1296.463 829.239 -1299.698 823.407 -1301.801 C 817.574 -1303.959 811.949 -1305.037 806.531 -1305.037 C 797.127 -1305.037 789.867 -1302.503 784.745 -1297.434 C 779.668 -1292.418 777.156 -1285.247 777.206 -1275.917 C 777.249 -1268.152 778.983 -1262.247 782.408 -1258.203 C 785.833 -1254.266 792.298 -1251.085 801.803 -1248.658 L 812.231 -1245.666 C 825.143 -1242.322 834.671 -1236.337 840.807 -1227.708 C 847.031 -1219.242 850.184 -1207.837 850.264 -1193.493 C 850.358 -1176.399 846.264 -1163.43 837.985 -1154.586 C 829.748 -1145.796 817.617 -1141.402 801.586 -1141.402 C 795.541 -1141.402 789.089 -1142.345 782.228 -1144.232 C 775.412 -1146.118 768.344 -1148.897 761.027 -1152.564 L 760.892 -1177.153 C 767.951 -1171.707 774.846 -1167.609 781.577 -1164.859 C 788.355 -1162.108 794.99 -1160.733 801.48 -1160.733 C 811.376 -1160.733 818.973 -1163.43 824.271 -1168.822 C 829.615 -1174.161 832.261 -1181.791 832.206 -1191.714 C 832.158 -1200.395 830.196 -1207.162 826.317 -1212.015 C 822.441 -1216.924 816.107 -1220.59 807.317 -1223.017 L 796.758 -1225.849 C 783.842 -1229.407 774.476 -1234.961 768.659 -1242.511 C 762.886 -1250.06 759.963 -1260.575 759.889 -1274.057 C 759.803 -1289.642 763.698 -1301.936 771.573 -1310.942 C 779.495 -1319.894 790.439 -1324.37 804.41 -1324.37 C 810.411 -1324.37 816.525 -1323.614 822.758 -1322.104 C 828.991 -1320.648 835.36 -1318.411 841.869 -1315.39 Z" style="fill: rgb(0, 98, 27); stroke: rgb(3, 100, 30); stroke-width: 4.93778px;" transform="matrix(0.975194, -0.221354, 0.221354, 0.975194, 292.875481, 147.623406)"/>
          <path id="OFFICIAL SEAL " class="s1" aria-label="OFFICIAL SEAL " d="M 609.153 -1137.399 L 608.568 -1313.718 L 625.904 -1313.718 L 626.423 -1157.449 L 688.651 -1157.449 L 688.717 -1137.399 L 609.153 -1137.399 Z" style="fill: rgb(0, 98, 27); stroke: rgb(3, 100, 30); stroke-width: 4.93771px;" transform="matrix(0.999818, 0.019578, -0.018627, 0.999818, -22.709597, -12.922608)"/>
          <path id="OFFICIAL SEAL " class="s1" aria-label="OFFICIAL SEAL " d="M 484.349 -1145.251 L 533.957 -1321.584 L 553.576 -1321.584 L 601.469 -1145.251 L 583.461 -1145.251 L 572.048 -1190.446 L 514.394 -1190.446 L 502.559 -1145.251 L 484.349 -1145.251 Z M 566.764 -1210.335 L 543.657 -1298.057 L 519.796 -1210.335 L 566.764 -1210.335 Z" style="fill: rgb(0, 98, 27); stroke: rgb(3, 100, 30); stroke-width: 4.93771px;" transform="matrix(0.992261, 0.127302, -0.121115, 0.992261, -145.183968, -78.658928)"/>
          <path id="OFFICIAL SEAL " class="s1" aria-label="OFFICIAL SEAL " d="M 455.188 -1156.235 L 456.446 -1332.603 L 473.712 -1332.603 L 472.456 -1156.235 L 455.188 -1156.235 Z" style="fill: rgb(0, 98, 27); stroke: rgb(3, 100, 30); stroke-width: 4.93771px;" transform="matrix(0.987673, 0.160482, -0.152683, 0.987673, -184.275651, -89.876329)"/>
          <path id="OFFICIAL SEAL " class="s1" aria-label="OFFICIAL SEAL " d="M 435.213 -1342.914 L 434.876 -1317.743 C 429.159 -1325.188 423.036 -1330.774 416.508 -1334.496 C 409.979 -1338.22 403.001 -1340.081 395.573 -1340.081 C 380.986 -1340.081 369.739 -1333.876 361.831 -1321.466 C 353.881 -1309.218 349.751 -1291.411 349.439 -1268.046 C 349.127 -1244.791 352.783 -1226.984 360.404 -1214.628 C 367.983 -1202.325 379.064 -1196.174 393.653 -1196.174 C 401.079 -1196.174 408.107 -1198.034 414.735 -1201.758 C 421.363 -1205.426 427.635 -1211.012 433.552 -1218.513 L 433.219 -1193.584 C 427.103 -1187.918 420.648 -1183.654 413.851 -1180.795 C 407.058 -1177.989 399.901 -1176.587 392.384 -1176.587 C 373.054 -1176.587 357.947 -1184.735 347.068 -1201.03 C 336.144 -1217.434 330.871 -1239.772 331.248 -1268.046 C 331.628 -1296.43 337.497 -1318.768 348.857 -1335.062 C 360.173 -1351.467 375.499 -1359.669 394.828 -1359.669 C 402.48 -1359.669 409.642 -1358.265 416.318 -1355.459 C 423.082 -1352.654 429.379 -1348.472 435.213 -1342.914 Z" style="fill: rgb(0, 98, 27); stroke: rgb(3, 100, 30); stroke-width: 4.93772px;" transform="matrix(0.970661, 0.246516, -0.234535, 0.970661, -286.177736, -131.67554)"/>
          <path id="OFFICIAL SEAL " class="s1" aria-label="OFFICIAL SEAL " d="M 295.251 -1204.525 L 298.568 -1381.284 L 315.864 -1381.284 L 312.546 -1204.525 L 295.251 -1204.525 Z" style="fill: rgb(0, 98, 27); stroke: rgb(3, 100, 30); stroke-width: 4.93771px;" transform="matrix(0.948394, 0.325092, -0.309293, 0.948394, -384.117328, -166.055914)"/>
          <path id="OFFICIAL SEAL " class="s1" aria-label="OFFICIAL SEAL " d="M 110.754 -1279.031 L 116.418 -1456.973 L 189.262 -1456.973 L 188.617 -1436.658 L 132.949 -1436.658 L 131.282 -1384.279 L 181.489 -1384.279 L 180.843 -1363.964 L 130.636 -1363.964 L 127.932 -1279.031 L 110.754 -1279.031 Z" style="fill: rgb(0, 98, 27); stroke: rgb(3, 100, 30); stroke-width: 4.93771px;" transform="matrix(0.83964, 0.556843, -0.529781, 0.83964, -700.685688, -302.903948)"/>
          <path id="path-12" class="s1" aria-label="OFFICIAL SEAL " d="M 201.341 -1230.792 L 205.65 -1407.912 L 278.833 -1407.912 L 278.342 -1387.69 L 222.416 -1387.69 L 221.148 -1335.553 L 271.588 -1335.553 L 271.097 -1315.332 L 220.656 -1315.332 L 218.599 -1230.792 L 201.341 -1230.792 Z" style="fill: rgb(0, 98, 27); stroke: rgb(3, 100, 30); stroke-width: 4.93771px;" transform="matrix(0.915384, 0.412737, -0.392678, 0.915384, -497.765242, -210.731642)"/>
        </g>
      </g>
    </g>
  </g>
</svg>