<?xml version="1.0" encoding="UTF-8"?>
<!-- Generator: Adobe Illustrator 26.3.1, SVG Export Plug-In . SVG Version: 6.00 Build 0)  -->
<svg width="1e3" height="600" version="1.1" viewBox="0 0 1e3 600.00002" xml:space="preserve" xmlns="http://www.w3.org/2000/svg" xmlns:xlink="http://www.w3.org/1999/xlink">
<style type="text/css">
	.st0{fill:#F7CE18;}
	.st1{fill:#0039A5;}
	.st2{fill:#FFD42A;stroke:#000000;stroke-width:0.5;}
	.st3{fill:#FFD42A;stroke:#000000;stroke-width:1.1081;}
	.st4{fill:none;stroke:#000000;stroke-width:1.1081;}
	.st5{fill:#003D8F;stroke:#000000;stroke-width:0.25;}
	.st6{fill:#003D8F;stroke:#000000;stroke-width:1.1081;}
	.st7{clip-path:url(#SVGID_00000094598221266990637730000016399347667315561645_);fill:#003D8F;stroke:#000000;stroke-width:0.25;}
	.st8{clip-path:url(#SVGID_00000044177119653972386620000016826804207289895073_);fill:#003D8F;stroke:#000000;stroke-width:0.25;}
	.st9{clip-path:url(#SVGID_00000112627422476110666480000011170453447067580305_);fill:#003D8F;stroke:#000000;stroke-width:0.25;}
	.st10{clip-path:url(#SVGID_00000090297132958595876950000012950136667842283161_);fill:#003D8F;stroke:#000000;stroke-width:0.25;}
	.st11{clip-path:url(#SVGID_00000140014118129398966370000002643057539354497674_);fill:#003D8F;stroke:#000000;stroke-width:0.25;}
	.st12{fill:#FFD42A;stroke:#000000;}
	.st13{fill:none;stroke:#000000;stroke-width:1.28;}
	.st14{fill:#B3B3B3;stroke:#000000;stroke-width:0.25;}
	.st15{fill:none;stroke:#FFFFFF;}
	.st16{fill:none;stroke:#FFD42A;}
	.st17{fill:#FFD42A;stroke:#000000;stroke-width:0.75;}
	.st18{fill:none;stroke:#000000;stroke-width:0.525;}
	.st19{fill:#FFD42A;stroke:#000000;stroke-width:0.75;stroke-miterlimit:3.9999;}
	.st20{fill:#B3B3B3;}
	.st21{fill:none;stroke:#000000;stroke-width:1.28;stroke-miterlimit:3.9999;}
	.st22{fill:#B3B3B3;stroke:#000000;stroke-width:0.75;}
	.st23{fill:#FFC800;stroke:#000000;stroke-width:0.75;}
	.st24{fill:#FFC800;stroke:#000000;}
	.st25{fill:#FFC800;stroke:#000000;stroke-width:1.0746;}
	.st26{fill:none;stroke:#000000;stroke-width:1.0746;}
	.st27{stroke:#000000;stroke-width:1.0746;}
</style>
<rect class="st0" x="500" width="500" height="600" stroke-width=".732064"/>
<rect class="st1" width="500" height="600" stroke-width=".732065"/>
<g transform="matrix(.69468569 0 0 .71801156 11.167061 5.0722746)">
	<path class="st2" d="m261.6 346.4h164.2v118.1c0 40-36 76.1-82.1 76.1s-82.1-36-82.1-76.1z"/>
	<polygon class="st3" points="296.7 238.2 311.7 302.1 334.7 299.2 332.3 233.8 317.9 235.2 318.5 240.3 312.4 241.1 311.7 235.9"/>
	<line class="st4" x1="332.20001" x2="297.79999" y1="239" y2="243.3"/>
	<line class="st4" x1="332.79999" x2="299.39999" y1="246" y2="250.2"/>
	<line class="st4" x1="300.89999" x2="332.79999" y1="256.10001" y2="252.10001"/>
	<line class="st4" x1="333.60001" x2="304.89999" y1="269.60001" y2="273.39999"/>
	<line class="st4" x1="306.39999" x2="333.70001" y1="279.5" y2="275.89999"/>
	<line class="st4" x1="333.89999" x2="307.70001" y1="281.89999" y2="285.39999"/>
	<line class="st4" x1="308.89999" x2="334.10001" y1="289.89999" y2="286.39999"/>
	<line class="st4" x1="334.29999" x2="310.20001" y1="292.29999" y2="295.70001"/>
	<polygon class="st5" points="311.3 265 311.9 269.6 326.4 267.8 325.8 263.3"/>
	<line class="st4" x1="321.29999" x2="322" y1="288.39999" y2="294.20001"/>
	<line class="st4" x1="320" x2="320.70001" y1="277.79999" y2="283.79999"/>
	<line class="st4" x1="317.10001" x2="318.20001" y1="253.89999" y2="262.89999"/>
	<line class="st4" x1="315.39999" x2="316.29999" y1="240.60001" y2="247.89999"/>
	<line class="st4" x1="312.60001" x2="312.10001" y1="254.39999" y2="248.39999"/>
	<line class="st4" x1="314.89999" x2="314.29999" y1="278.39999" y2="272.10001"/>
	<line class="st4" x1="315.89999" x2="315.5" y1="288.89999" y2="284.29999"/>
	<line class="st4" x1="317.10001" x2="316.5" y1="301.39999" y2="295"/>
	<line class="st4" x1="329" x2="330" y1="293.39999" y2="299.5"/>
	<line class="st4" x1="327.20001" x2="328" y1="282.79999" y2="287.5"/>
	<line class="st4" x1="325.20001" x2="326.20001" y1="270.70001" y2="276.89999"/>
	<line class="st4" x1="321.20001" x2="322.20001" y1="247.39999" y2="253.10001"/>
	<polygon class="st3" points="243 257.2 273 315.6 294.6 307.2 276.5 244.3 262.8 249.2 264.6 254 258.9 256.2 257 251.4"/>
	<line class="st4" x1="277.60001" x2="245.3" y1="249.39999" y2="261.89999"/>
	<line class="st4" x1="279.89999" x2="248.5" y1="256.10001" y2="268.20001"/>
	<line class="st4" x1="251.39999" x2="281.39999" y1="273.60001" y2="261.89999"/>
	<line class="st4" x1="286.39999" x2="259.39999" y1="278.79999" y2="289.39999"/>
	<line class="st4" x1="262.39999" x2="288" y1="294.89999" y2="284.79999"/>
	<line class="st4" x1="289.70001" x2="265.10001" y1="290.60001" y2="300.39999"/>
	<line class="st4" x1="267.29999" x2="291" y1="304.39999" y2="294.89999"/>
	<line class="st4" x1="292.5" x2="270" y1="300.70001" y2="309.79999"/>
	<polygon class="st5" points="263.6 279.7 265.3 284 279 278.8 277.3 274.5"/>
	<line class="st4" x1="279" x2="281.10001" y1="300" y2="305.39999"/>
	<line class="st4" x1="275.20001" x2="277.39999" y1="290" y2="295.70001"/>
	<line class="st4" x1="266.5" x2="269.79999" y1="267.5" y2="276"/>
	<line class="st4" x1="261.79999" x2="264.39999" y1="255" y2="261.89999"/>
	<line class="st4" x1="262.39999" x2="260.39999" y1="269.10001" y2="263.39999"/>
	<line class="st4" x1="270.39999" x2="268.29999" y1="291.79999" y2="285.79999"/>
	<line class="st4" x1="273.89999" x2="272.39999" y1="301.70001" y2="297.39999"/>
	<line class="st4" x1="278.10001" x2="275.89999" y1="313.60001" y2="307.5"/>
	<line class="st4" x1="287.70001" x2="290.20001" y1="303" y2="308.60001"/>
	<line class="st4" x1="283.39999" x2="285.29999" y1="293.10001" y2="297.5"/>
	<line class="st4" x1="278.5" x2="281" y1="281.79999" y2="287.60001"/>
	<line class="st4" x1="269" x2="271.29999" y1="260.20001" y2="265.5"/>
	<polygon class="st3" points="410.1 242.8 393.4 306.3 415 314.6 443.6 255.7 430.2 250.1 428.3 254.9 422.6 252.7 424.5 247.9"/>
	<line class="st4" x1="441.10001" x2="408.70001" y1="260.20001" y2="247.8"/>
	<line class="st4" x1="438.29999" x2="406.89999" y1="266.70001" y2="254.7"/>
	<line class="st4" x1="405.39999" x2="435.5" y1="260.60001" y2="272.10001"/>
	<line class="st4" x1="427.89999" x2="400.79999" y1="287.89999" y2="277.79999"/>
	<line class="st4" x1="399.29999" x2="425.10001" y1="283.89999" y2="293.5"/>
	<line class="st4" x1="422.5" x2="397.70001" y1="298.89999" y2="289.70001"/>
	<line class="st4" x1="396.60001" x2="420.5" y1="294.20001" y2="303"/>
	<line class="st4" x1="417.89999" x2="395" y1="308.29999" y2="300"/>
	<polygon class="st5" points="410.4 273.4 408.7 277.7 422.4 282.9 424.1 278.7"/>
	<line class="st4" x1="408.29999" x2="406.20001" y1="298.70001" y2="304.20001"/>
	<line class="st4" x1="412.10001" x2="409.89999" y1="288.70001" y2="294.39999"/>
	<line class="st4" x1="420.70001" x2="417.5" y1="266.20001" y2="274.79999"/>
	<line class="st4" x1="425.5" x2="422.89999" y1="253.8" y2="260.60001"/>
	<line class="st4" x1="416.60001" x2="418.89999" y1="264.60001" y2="259.10001"/>
	<line class="st4" x1="407.29999" x2="409.79999" y1="286.89999" y2="281.10001"/>
	<line class="st4" x1="403.29999" x2="405.10001" y1="296.60001" y2="292.39999"/>
	<line class="st4" x1="398.5" x2="401" y1="308.20001" y2="302.29999"/>
	<line class="st4" x1="412.70001" x2="410.79999" y1="306.79999" y2="312.60001"/>
	<line class="st4" x1="416.10001" x2="414.60001" y1="296.60001" y2="301.10001"/>
	<line class="st4" x1="420" x2="418" y1="284.89999" y2="290.89999"/>
	<line class="st4" x1="427.5" x2="425.60001" y1="262.5" y2="268"/>
	<polygon class="st3" points="354 234 353.1 299.7 376.1 302.4 389.6 238.4 375.2 236.2 374.6 241.4 368.5 240.6 369.1 235.5"/>
	<line class="st4" x1="388.20001" x2="353.79999" y1="243.39999" y2="239.2"/>
	<line class="st4" x1="387.10001" x2="353.70001" y1="250.39999" y2="246.39999"/>
	<line class="st4" x1="353.70001" x2="385.70001" y1="252.39999" y2="256.29999"/>
	<line class="st4" x1="382.20001" x2="353.39999" y1="273.39999" y2="270.20001"/>
	<line class="st4" x1="353.39999" x2="380.70001" y1="276.39999" y2="279.5"/>
	<line class="st4" x1="379.5" x2="353.20001" y1="285.39999" y2="282.5"/>
	<line class="st4" x1="353.29999" x2="378.60001" y1="287.10001" y2="289.89999"/>
	<line class="st4" x1="377.29999" x2="353.10001" y1="295.70001" y2="293.10001"/>
	<polygon class="st5" points="361.6 263.6 361.1 268.2 375.6 270 376.2 265.4"/>
	<line class="st4" x1="365.70001" x2="365" y1="288.70001" y2="294.5"/>
	<line class="st4" x1="367" x2="366.29999" y1="278.10001" y2="284.10001"/>
	<line class="st4" x1="369.89999" x2="368.79999" y1="254.2" y2="263.20001"/>
	<line class="st4" x1="371.60001" x2="370.70001" y1="240.89999" y2="248.2"/>
	<line class="st4" x1="365.5" x2="366.39999" y1="253.60001" y2="247.7"/>
	<line class="st4" x1="361.89999" x2="362.89999" y1="277.39999" y2="271.20001"/>
	<line class="st4" x1="360.39999" x2="361.10001" y1="287.89999" y2="283.29999"/>
	<line class="st4" x1="358.5" x2="359.5" y1="300.29999" y2="293.89999"/>
	<line class="st4" x1="372" x2="371.5" y1="295.39999" y2="301.60001"/>
	<line class="st4" x1="372.79999" x2="372.39999" y1="284.70001" y2="289.39999"/>
	<line class="st4" x1="373.70001" x2="373.29999" y1="272.39999" y2="278.70001"/>
	<line class="st4" x1="375.5" x2="375.10001" y1="248.89999" y2="254.7"/>
	<polygon class="st3" points="331.9 299.3 329.3 214.5 357.2 214.5 355 299.3"/>
	<polygon class="st3" points="329.5 214.5 324.1 208.6 324.1 202.4 331.7 202.4 331.7 208.6 339.8 208.6 339.8 202.4 347.8 202.4 347.8 208.6 354.9 208.6 354.9 202.4 362 202.4 362 208.6 357.1 214.5"/>
	<line class="st4" x1="329.60001" x2="357.10001" y1="220.89999" y2="220.89999"/>
	<line class="st4" x1="356.89999" x2="329.70001" y1="227" y2="227"/>
	<line class="st4" x1="356.60001" x2="330.10001" y1="233.7" y2="233.7"/>
	<line class="st4" x1="356.60001" x2="329.89999" y1="238.89999" y2="238.89999"/>
	<line class="st4" x1="356.39999" x2="330.20001" y1="246.10001" y2="246.10001"/>
	<line class="st4" x1="330.39999" x2="356.29999" y1="252.10001" y2="252.10001"/>
	<line class="st4" x1="355.79999" x2="330.89999" y1="269.79999" y2="269.79999"/>
	<line class="st4" x1="331.10001" x2="355.60001" y1="276.10001" y2="276.10001"/>
	<line class="st4" x1="355.5" x2="331.29999" y1="282.20001" y2="282.20001"/>
	<line class="st4" x1="331.5" x2="355.39999" y1="286.79999" y2="286.79999"/>
	<line class="st4" x1="355.20001" x2="331.60001" y1="292.79999" y2="292.79999"/>
	<path class="st6" d="m340 260h6.1l0.5-17.8s-2.5-3.7-3.5-3.7-3.6 3.7-3.6 3.7z"/>
	<path class="st6" d="m332.5 228.2h6.1v-7.2s-2-2.9-3-2.9-3.1 2.9-3.1 2.9z"/>
	<path class="st6" d="m347.5 228.2h6.1v-7.2s-2-2.9-3-2.9-3.1 2.9-3.1 2.9z"/>
	<line class="st4" x1="343.10001" x2="343.10001" y1="221.10001" y2="214.5"/>
	<line class="st4" x1="343.10001" x2="343.10001" y1="233.60001" y2="226.89999"/>
	<line class="st4" x1="337.60001" x2="337.89999" y1="262" y2="269.89999"/>
	<line class="st4" x1="336.79999" x2="337" y1="233.7" y2="238.7"/>
	<line class="st4" x1="350" x2="350.10001" y1="238.89999" y2="233.8"/>
	<line class="st4" x1="349.29999" x2="349.5" y1="270.10001" y2="262.29999"/>
	<polygon class="st3" points="375 302.2 393 219.2 420 226 397.4 307.8"/>
	<polygon class="st3" points="393.2 219.3 389.3 212.3 390.9 206.3 398.2 208.1 396.7 214.2 404.6 216.1 406.1 210.1 413.9 212 412.4 218.1 419.3 219.8 420.8 213.7 427.7 215.4 426.2 221.5 420 226"/>
	<line class="st4" x1="391.79999" x2="418.39999" y1="225.5" y2="232.2"/>
	<line class="st4" x1="416.70001" x2="390.29999" y1="238" y2="231.5"/>
	<line class="st4" x1="414.89999" x2="389.10001" y1="244.5" y2="238.10001"/>
	<line class="st4" x1="413.60001" x2="387.70001" y1="249.60001" y2="243.10001"/>
	<line class="st4" x1="411.60001" x2="386.20001" y1="256.39999" y2="250.10001"/>
	<line class="st4" x1="385" x2="410.10001" y1="256.10001" y2="262.29999"/>
	<line class="st4" x1="405.39999" x2="381.20001" y1="279.39999" y2="273.39999"/>
	<line class="st4" x1="379.89999" x2="403.60001" y1="279.5" y2="285.39999"/>
	<line class="st4" x1="402.10001" x2="378.5" y1="291.29999" y2="285.39999"/>
	<line class="st4" x1="377.70001" x2="400.79999" y1="290" y2="295.70001"/>
	<line class="st4" x1="399.20001" x2="376.29999" y1="301.5" y2="295.79999"/>
	<path class="st6" d="m392.4 266 5.9 1.5 4.8-17.2s-1.5-4.2-2.5-4.5c-1-0.2-4.4 2.7-4.4 2.7z"/>
	<path class="st6" d="m392.8 233.3 5.9 1.5 1.7-7s-1.3-3.3-2.2-3.5c-1-0.2-3.7 2.1-3.7 2.1z"/>
	<path class="st6" d="m407.4 236.9 5.9 1.5 1.7-7s-1.3-3.3-2.2-3.5c-1-0.2-3.7 2.1-3.7 2.1z"/>
	<line class="st4" x1="404.79999" x2="406.29999" y1="229" y2="222.60001"/>
	<line class="st4" x1="401.70001" x2="403.39999" y1="241.10001" y2="234.60001"/>
	<line class="st4" x1="389.60001" x2="387.89999" y1="267.39999" y2="275.10001"/>
	<line class="st4" x1="395.70001" x2="394.60001" y1="239.7" y2="244.60001"/>
	<line class="st4" x1="407.20001" x2="408.5" y1="248" y2="243"/>
	<line class="st4" x1="398.89999" x2="401" y1="278.10001" y2="270.5"/>
	<polygon class="st3" points="411.6 313.9 449.2 237.8 473.8 250.9 432.1 324.8"/>
	<polygon class="st3" points="449.3 237.9 447.3 230.2 450.2 224.7 456.9 228.2 454 233.7 461.1 237.5 464.1 232 471.2 235.8 468.3 241.3 474.5 244.7 477.5 239.1 483.7 242.5 480.8 248 473.7 250.8"/>
	<line class="st4" x1="446.39999" x2="470.70001" y1="243.60001" y2="256.5"/>
	<line class="st4" x1="467.70001" x2="443.60001" y1="261.79999" y2="249"/>
	<line class="st4" x1="464.29999" x2="440.89999" y1="267.60001" y2="255.10001"/>
	<line class="st4" x1="461.79999" x2="438.29999" y1="272.20001" y2="259.70001"/>
	<line class="st4" x1="458.29999" x2="435.10001" y1="278.39999" y2="266.10001"/>
	<line class="st4" x1="432.5" x2="455.29999" y1="271.60001" y2="283.70001"/>
	<line class="st4" x1="446.60001" x2="424.60001" y1="299.10001" y2="287.39999"/>
	<line class="st4" x1="421.79999" x2="443.39999" y1="293.10001" y2="304.60001"/>
	<line class="st4" x1="440.5" x2="419.10001" y1="309.89999" y2="298.5"/>
	<line class="st4" x1="417.20001" x2="438.29999" y1="302.70001" y2="313.89999"/>
	<line class="st4" x1="435.29999" x2="414.5" y1="319.10001" y2="308"/>
	<path class="st6" d="m437.3 283.1 5.4 2.9 8.8-15.5s-0.5-4.5-1.4-5-4.9 1.6-4.9 1.6z"/>
	<path class="st6" d="m445.6 251.4 5.4 2.9 3.4-6.3s-0.4-3.5-1.3-4-4.1 1.1-4.1 1.1z"/>
	<path class="st6" d="m458.8 258.4 5.4 2.9 3.4-6.3s-0.4-3.5-1.3-4-4.1 1.1-4.1 1.1z"/>
	<path class="st5" d="m416.3 316.8 10 5.4 5.7-9.8 4.8-9.8s0.7-2.1 0.2-4.3c-0.4-2.2-1.1-2.8-1.9-3.2-0.9-0.5-3.2-1.5-5.3-0.6s-3.1 1.8-3.1 1.8l-5.7 10.2z"/>
	<line class="st4" x1="458.20001" x2="461.29999" y1="250.10001" y2="244.3"/>
	<line class="st4" x1="452.29999" x2="455.5" y1="261.10001" y2="255.2"/>
	<line class="st4" x1="434.20001" x2="430.70001" y1="283.60001" y2="290.79999"/>
	<line class="st4" x1="446.79999" x2="444.60001" y1="258.29999" y2="262.79999"/>
	<line class="st4" x1="455.89999" x2="458.39999" y1="269.10001" y2="264.60001"/>
	<line class="st4" x1="440.70001" x2="444.5" y1="296.29999" y2="289.5"/>
	<polygon class="st3" points="292.7 307.2 269.7 225.5 296.7 218.8 315.1 301.6"/>
	<polygon class="st3" points="269.8 225.5 263.2 221.1 261.7 215.1 269 213.2 270.6 219.3 278.4 217.3 276.9 211.3 284.7 209.3 286.2 215.4 293.1 213.7 291.6 207.6 298.5 205.9 300 211.9 296.6 218.8"/>
	<line class="st4" x1="271.5" x2="298.20001" y1="231.7" y2="225"/>
	<line class="st4" x1="299.5" x2="273" y1="231" y2="237.60001"/>
	<line class="st4" x1="300.79999" x2="275.10001" y1="237.5" y2="244"/>
	<line class="st4" x1="302.10001" x2="276.20001" y1="242.60001" y2="249.10001"/>
	<line class="st4" x1="303.60001" x2="278.10001" y1="249.60001" y2="256"/>
	<line class="st4" x1="279.89999" x2="304.89999" y1="261.79999" y2="255.5"/>
	<line class="st4" x1="308.79999" x2="284.60001" y1="272.79999" y2="278.89999"/>
	<line class="st4" x1="286.39999" x2="310.10001" y1="284.89999" y2="279"/>
	<line class="st4" x1="311.5" x2="288" y1="284.89999" y2="290.79999"/>
	<line class="st4" x1="289.29999" x2="312.5" y1="295.20001" y2="289.39999"/>
	<line class="st4" x1="313.79999" x2="290.89999" y1="295.20001" y2="300.89999"/>
	<path class="st6" d="m291.1 267.1 5.9-1.5-3.8-17.4s-3.3-3-4.3-2.8-2.6 4.5-2.6 4.5z"/>
	<path class="st6" d="m276.1 238 5.9-1.5-1.7-7s-2.6-2.3-3.6-2.1-2.3 3.6-2.3 3.6z"/>
	<path class="st6" d="m290.6 234.4 5.9-1.5-1.7-7s-2.6-2.3-3.6-2.1-2.3 3.6-2.3 3.6z"/>
	<line class="st4" x1="284.60001" x2="283" y1="228.60001" y2="222.3"/>
	<line class="st4" x1="287.70001" x2="286" y1="240.7" y2="234.2"/>
	<line class="st4" x1="289.20001" x2="291.39999" y1="269.60001" y2="277.20001"/>
	<line class="st4" x1="281.60001" x2="283" y1="242.3" y2="247.2"/>
	<line class="st4" x1="295.60001" x2="294.5" y1="244.2" y2="239.2"/>
	<line class="st4" x1="302.5" x2="300.79999" y1="274.70001" y2="267"/>
	<polygon class="st3" points="255.3 326.4 213.2 252.6 237.8 239.6 275.8 315.5"/>
	<polygon class="st3" points="213.4 252.6 205.9 250 202.9 244.5 209.6 240.9 212.6 246.4 219.7 242.6 216.8 237.1 223.9 233.3 226.9 238.8 233.1 235.5 230.2 230 236.5 226.6 239.4 232.1 237.8 239.6"/>
	<line class="st4" x1="216.5" x2="240.8" y1="258.20001" y2="245.3"/>
	<line class="st4" x1="243.5" x2="219.39999" y1="250.7" y2="263.5"/>
	<line class="st4" x1="246.39999" x2="223" y1="256.79999" y2="269.20001"/>
	<line class="st4" x1="248.8" x2="225.3" y1="261.39999" y2="273.89999"/>
	<line class="st4" x1="252" x2="228.8" y1="267.79999" y2="280.20001"/>
	<line class="st4" x1="231.89999" x2="254.7" y1="285.39999" y2="273.29999"/>
	<line class="st4" x1="262.70001" x2="240.60001" y1="289.10001" y2="300.79999"/>
	<line class="st4" x1="243.8" x2="265.39999" y1="306.20001" y2="294.79999"/>
	<line class="st4" x1="268.20001" x2="246.8" y1="300.20001" y2="311.5"/>
	<line class="st4" x1="249.10001" x2="270.20001" y1="315.5" y2="304.29999"/>
	<line class="st4" x1="272.89999" x2="252.10001" y1="309.60001" y2="320.70001"/>
	<path class="st6" d="m244.1 287.8 5.4-2.9-7.9-16s-4-2.1-4.9-1.6-1.4 5-1.4 5z"/>
	<path class="st6" d="m222.5 263.2 5.4-2.9-3.4-6.3s-3.1-1.6-4-1.1-1.3 4-1.3 4z"/>
	<path class="st6" d="m235.7 256.2 5.4-2.9-3.4-6.3s-3.1-1.6-4-1.1-1.3 4-1.3 4z"/>
	<line class="st4" x1="228.5" x2="225.39999" y1="252" y2="246.3"/>
	<line class="st4" x1="234.39999" x2="231.2" y1="263.10001" y2="257.20001"/>
	<line class="st4" x1="242.89999" x2="246.8" y1="290.70001" y2="297.60001"/>
	<line class="st4" x1="228.89999" x2="231.39999" y1="266.10001" y2="270.5"/>
	<line class="st4" x1="243" x2="240.7" y1="264.5" y2="260"/>
	<line class="st4" x1="257" x2="253.5" y1="292.39999" y2="285.39999"/>
	<path class="st3" d="m451.6 296.7s-0.1-0.1-0.4-0.3-0.8-0.6-1.4-1c-1.2-0.9-3.1-2.1-5.6-3.6-4.9-3-12.2-7-21.6-11.1-18.8-8.1-46.1-16.2-79.7-16.2-63.1 0-101.6 28.5-105.9 31.8-0.3 0.2-0.4 0.3-0.4 0.3-1.3 1.1-3.3 0.9-4.4-0.4s-0.9-3.3 0.4-4.4c0.3-0.3 40.9-33.5 110.2-33.5 69.4 0 112.2 33.3 112.5 33.5 1.4 1.1 1.6 3 0.6 4.4-0.6 0.8-1.5 1.2-2.5 1.2-0.5 0-1.2-0.2-1.8-0.7z"/>
	<path class="st3" d="m432.1 329.7s-0.1-0.1-0.4-0.3c-0.2-0.2-0.6-0.5-1.1-0.8-1-0.7-2.5-1.7-4.6-3-4-2.5-10-5.8-17.7-9.1-15.4-6.6-37.7-13.2-65.2-13.2-51.6 0-83.1 23.3-86.6 26l-0.3 0.3c-1.1 0.9-2.7 0.7-3.6-0.3-0.9-1.1-0.7-1.9 0.3-2.8 0.3-0.2 33.4-28.2 90.2-28.2 56.7 0 91.8 28.8 92.1 29 1.1 0.9 1.3 0.9 0.4 2-0.5 0.6-1.2 1-2 1-0.5-0.1-1.1-0.3-1.5-0.6z"/>
	<path class="st6" d="m381.8 302.7 11 3.2 3.6-10.8 2.7-10.6s0.2-2.2-0.7-4.3-1.6-2.5-2.5-2.7c-0.9-0.3-3.4-0.8-5.3 0.5s-2.7 2.4-2.7 2.4l-3.5 11.2z"/>
	<path class="st6" d="m269.9 315.4-10 5.4-5.7-9.8-4.8-9.8s-0.7-2.1-0.2-4.3c0.4-2.2 1.1-2.8 1.9-3.2 0.8-0.5 3.2-1.5 5.3-0.6s3.1 1.8 3.1 1.8l5.7 10.2z"/>
	<path class="st6" d="m309.7 301.3-11 3.2-3.6-10.8-2.7-10.6s-0.2-2.2 0.7-4.3 1.6-2.5 2.5-2.7c0.9-0.3 3.4-0.8 5.3 0.5s2.7 2.4 2.7 2.4l3.5 11.2z"/>
	<path class="st6" d="m339.3 298.6h11.4l0.5-11.3-0.3-10.9s-0.4-2.2-1.8-3.9-2.2-1.9-3.2-1.9-3.5 0.2-4.9 1.9c-1.5 1.8-1.9 3.1-1.9 3.1l-0.3 11.7z"/>
	<polygon class="st5" points="327.3 420.2 311.1 441.9 294.2 419.6 311 398.1"/>
	<polygon class="st5" points="294.3 420.2 278.1 441.9 261.2 419.6 278 398.1"/>
	<polygon class="st5" points="360.4 420.2 344.2 441.9 327.3 419.6 344.1 398.1"/>
	<polygon class="st5" points="393.3 420.2 377.1 441.9 360.2 419.6 377 398.1"/>
	<polygon class="st5" points="426.1 420.2 409.9 441.9 393 419.6 409.8 398.1"/>
	<polygon class="st5" points="327.4 464 310.4 485.7 294.3 463.4 311.1 441.9"/>
	<polygon class="st5" points="294.4 463.7 276.6 485.4 261.3 463.1 278.1 441.6"/>
	<polygon class="st5" points="360.5 464 343.3 486.2 327.4 463.4 344.2 441.9"/>
	<polygon class="st5" points="393.4 464 376.2 486.2 360.3 463.4 377.1 441.9"/>
	<polygon class="st5" points="426.2 464 409 486.2 393.1 463.4 409.9 441.9"/>
	<polygon class="st5" points="326.5 507.5 308.7 529.2 293.4 506.9 310.2 485.4"/>
	<polygon class="st5" points="359.6 508.3 342.6 530 326.5 507.7 343.3 486.2"/>
	<polygon class="st5" points="392.5 508.3 375.5 530 359.4 507.7 376.2 486.2"/>
	
		
			<defs>
				<path id="SVGID_1_" d="m261.2 341.6h164.2v122.1c0 40-33.9 76.9-82.1 76.9-46.1 0-82.1-34.7-82.1-76.9z"/>
			</defs>
			<clipPath id="SVGID_00000158711920621286929850000013501623203470084754_">
				<use xlink:href="#SVGID_1_"/>
			</clipPath>
			
				<polygon points="293.5 505.9 274.9 528.4 259.6 506.1 276.4 484.6" clip-path="url(#SVGID_00000158711920621286929850000013501623203470084754_)" fill="#003d8f" stroke="#000000" stroke-width=".25"/>
		
	
	
		
			<defs>
				<path id="SVGID_00000098200133519300708030000008931448955439866540_" d="m261.2 341.6h164.2v122.1c0 40-33.9 76.9-82.1 76.9-46.1 0-82.1-34.7-82.1-76.9z"/>
			</defs>
			<clipPath id="SVGID_00000165923974807408707700000005753470356947135378_">
				<use xlink:href="#SVGID_00000098200133519300708030000008931448955439866540_"/>
			</clipPath>
			
				<polygon points="425.3 508.3 407.5 530 392.2 507.7 409 486.2" clip-path="url(#SVGID_00000165923974807408707700000005753470356947135378_)" fill="#003d8f" stroke="#000000" stroke-width=".25"/>
		
	
	
		
			<defs>
				<path id="SVGID_00000001639269379379657230000009442001211160991156_" d="m261.2 341.6h164.2v122.1c0 40-33.9 76.9-82.1 76.9-46.1 0-82.1-34.7-82.1-76.9z"/>
			</defs>
			<clipPath id="SVGID_00000134249694366545777240000009154023288759414148_">
				<use xlink:href="#SVGID_00000001639269379379657230000009442001211160991156_"/>
			</clipPath>
			
				<polygon points="325 551.9 307.2 573.6 291.9 551.4 308.7 528.2" clip-path="url(#SVGID_00000134249694366545777240000009154023288759414148_)" fill="#003d8f" stroke="#000000" stroke-width=".25"/>
		
	
	
		
			<defs>
				<path id="SVGID_00000049943710314804357990000002409745629007399103_" d="m261.2 341.6h164.2v122.1c0 40-33.9 76.9-82.1 76.9-46.1 0-82.1-34.7-82.1-76.9z"/>
			</defs>
			<clipPath id="SVGID_00000108273732375246811690000017807093202380787590_">
				<use xlink:href="#SVGID_00000049943710314804357990000002409745629007399103_"/>
			</clipPath>
			
				<polygon points="358.9 551.1 341.1 572.8 325.8 550.6 342.6 529" clip-path="url(#SVGID_00000108273732375246811690000017807093202380787590_)" fill="#003d8f" stroke="#000000" stroke-width=".25"/>
		
	
	
		
			<defs>
				<path id="SVGID_00000129178867956572523600000016891245813531888806_" d="m261.2 341.6h164.2v122.1c0 40-33.9 76.9-82.1 76.9-46.1 0-82.1-34.7-82.1-76.9z"/>
			</defs>
			<clipPath id="SVGID_00000023263445233922704410000002585221658784767884_">
				<use xlink:href="#SVGID_00000129178867956572523600000016891245813531888806_"/>
			</clipPath>
			
				<polygon points="392.6 551.9 375.6 573.6 360.3 551.4 375.4 529" clip-path="url(#SVGID_00000023263445233922704410000002585221658784767884_)" fill="#003d8f" stroke="#000000" stroke-width=".25"/>
		
	
	<path class="st2" d="m343.8 294.8c-79.4 0-143.7 63-143.7 140.6 0 77.7 64.3 140.6 143.7 140.6s143.7-63 143.7-140.6c-0.1-77.6-64.4-140.6-143.7-140.6zm0 253.1c-63.5 0-114.9-50.4-114.9-112.5s51.5-112.5 114.9-112.5c63.5 0 114.9 50.4 114.9 112.5 0 62.2-51.5 112.5-114.9 112.5z"/>
	<path class="st12" d="m344.2 298.8c-77.2 0-139.8 61.3-139.8 136.9s62.6 136.9 139.8 136.9 139.8-61.3 139.8-136.9c0.1-75.6-62.5-136.9-139.8-136.9zm0 246.4c-61.8 0-111.9-49-111.9-109.5s50.1-109.5 111.9-109.5 111.9 49 111.9 109.5c0 60.4-50.1 109.5-111.9 109.5z"/>
	<ellipse class="st13" cx="344.20001" cy="435.39999" rx="115.3" ry="113"/>
	<ellipse class="st13" cx="318.29999" cy="558.79999" rx="3.5" ry="3.8"/>
	<ellipse class="st13" cx="293.10001" cy="550.59998" rx="3.5" ry="3.8"/>
	<ellipse class="st13" cx="271.70001" cy="538.90002" rx="3.5" ry="3.8"/>
	<ellipse class="st13" cx="254.10001" cy="525.5" rx="3.5" ry="3.8"/>
	<path class="st14" d="m359 595.1 0.8 7c0 1.2-0.2 2.3-0.7 3.3-0.4 1-1 3.3-1.8 4.1s-1.7 1.4-2.7 1.8-2.1-0.7-3.3-0.7h-4l-4 3.5-4-3.5h-4c-1.2 0-2.3 1.2-3.3 0.7-1-0.4-1.9-1-2.7-1.8s-1.4-1.7-1.8-2.7-0.7-2.1-0.7-3.3l0.4-4.9 0.8-7-2.5-3.5c0-1.2 0.2-2.3 0.7-3.3 0.4-1 1-1.9 1.8-2.7s1.7-1.4 2.7-1.8 3.5-0.7 4.7-0.7h16c1.2 0 3 0.2 4 0.7 1 0.4 1.9 1 2.7 1.8s1.4 1.7 1.8 2.7 0.7 2.1 0.7 3.3l-1.8 3.5zm3.8 0.5-0.4-4.4 2.2-4.4c0-1.5-0.3-2.9-0.8-4.1-0.5-1.3-1.3-2.4-2.3-3.4s-2.1-1.7-3.4-2.3c-1.3-0.5-3.5-0.8-5-0.8h-20c-1.5 0-4.6 0.3-5.9 0.8s-2.4 1.3-3.4 2.3-1.7 2.1-2.3 3.4c-0.5 1.3-0.8 2.7-0.8 4.1l3.1 4.4-0.8 8.8-0.4 6.2c0 1.5 0.3 2.9 0.8 4.1 0.5 1.3 1.3 2.4 2.3 3.4s2.1 1.7 3.4 2.3c1.3 0.5 2.7-0.9 4.1-0.9h5l5 4.4 5-4.4h5c1.5 0 2.8 1.5 4.1 0.9 1.3-0.5 2.4-1.3 3.4-2.3s1.7-3.9 2.3-5.1c0.5-1.3 0.8-2.7 0.8-4.1l-0.4-4.4z"/>
	<polygon class="st2" points="329.3 575.4 342.7 575.9 356.1 575.6 355.3 593.8 356.1 614.7 342.7 604 329.3 614.7 330.1 593.8"/>
	<polygon class="st2" points="332.7 575.7 342.7 575.9 352.7 575.8 352.7 592.9 352.7 609.5 342.7 600.8 332.7 609.5 332.7 592.9"/>
	<rect class="st5" x="261.39999" y="344.79999" width="164.2" height="52.799999"/>
	<path d="m218.3 440c-1.8 0.3-4 0.6-5.6 0.7 1.5 0.4 3.2 0.8 5.1 1.3 2.2 0.6 4.4 1.1 6.5 1.6 0.1 0.4 0.1 0.8 0.2 1.3-1.9 1-3.8 2.1-5.7 3.2-1.7 1-3.2 1.8-4.6 2.6 1.6-0.3 3.7-0.6 5.7-0.8 1.8-0.2 3.7-0.5 5.5-0.7 0.1 0.5 0.2 1.1 0.3 1.6-4.3 0.6-8.6 1.2-12.9 1.8-0.2-0.8-0.3-1.6-0.5-2.4 1.9-1.2 3.8-2.4 5.8-3.5 1.5-0.8 2.8-1.5 4.1-2-1.3-0.2-2.8-0.5-4.5-0.9-2.2-0.6-4.4-1.2-6.5-1.9-0.1-0.8-0.2-1.6-0.2-2.5 4.3-0.6 8.6-1.2 12.9-1.8 0 0.6 0.1 1.1 0.1 1.7-2 0.1-3.9 0.4-5.7 0.7z"/>
	<path d="m210.7 433.4c2.6 0 5.1-0.1 7.7-0.1 2.9 0 4.1-1.4 4.1-3.1 0-1.9-1.1-3.3-4-3.5-2.6-0.2-5.1-0.3-7.7-0.5 0-0.7 0.1-1.3 0.1-2l7.5 0.6c4 0.3 5.4 2.6 5.3 5.4-0.1 2.6-1.5 4.7-5.5 4.9-2.5 0.1-5.1 0.2-7.6 0.3 0.1-0.7 0.1-1.4 0.1-2z"/>
	<path d="m224.5 419.5c-1.8-0.3-3.6-0.5-5.4-0.8-2.7 1.1-5.3 2.3-8 3.6 0.1-0.7 0.2-1.5 0.2-2.2 1.3-0.6 2.5-1.1 3.8-1.6 1-0.4 1.9-0.7 2.9-1-0.8-0.5-1.5-1.1-2.4-1.9-1.1-0.9-2.1-1.8-3.1-2.8 0.1-0.7 0.3-1.4 0.5-2.2 2.1 2.2 4.2 4.3 6.4 6.2 1.8 0.3 3.6 0.6 5.4 0.9-0.1 0.7-0.2 1.2-0.3 1.8z"/>
	<path d="m476.2 414.8c0.1 0.6 0.3 1.3 0.4 1.9-3.8 0.8-7.5 1.5-11.3 2.3 0.4 1.9 0.7 3.7 0.9 5.6-0.5 0.1-0.9 0.1-1.4 0.2-0.3-2.4-0.8-4.8-1.3-7.2 4.2-0.9 8.4-1.9 12.7-2.8z"/>
	<path d="m471.6 433.1-0.3-5.4c-1.6 0.1-3.1 0.3-4.7 0.4 0.2 1.9 0.3 3.8 0.3 5.7h-1.4c-0.1-2.4-0.2-4.9-0.5-7.3 4.3-0.5 8.6-1 12.9-1.5 0.3 2.7 0.5 5.4 0.6 8.1h-1.4c-0.1-2-0.2-4-0.4-6.1-1.4 0.1-2.7 0.3-4.1 0.4 0.2 1.8 0.3 3.6 0.4 5.5-0.5 0.2-0.9 0.2-1.4 0.2z"/>
	<path d="m469.6 438.3c-1.3-0.5-2.7-1-4.1-1.4v-1.7c4.3 1.4 8.6 3.1 12.9 4.9 0 0.8-0.1 1.5-0.1 2.3-4.4 1.4-8.9 2.7-13.3 3.6 0.1-0.6 0.1-1.2 0.2-1.8 1.4-0.3 2.8-0.7 4.2-1.1 0.1-1.5 0.2-3.1 0.2-4.8zm1.1 4.6c1.3-0.4 2.5-0.8 3.8-1.2 0.9-0.3 1.6-0.5 2.4-0.6-0.7-0.3-1.5-0.5-2.3-0.8-1.2-0.5-2.5-1-3.7-1.5 0 1.3-0.1 2.7-0.2 4.1z"/>
	<path d="m477.6 449.7c-0.1 0.6-0.2 1.3-0.3 1.9-3.8-0.6-7.6-1.2-11.4-1.8-0.3 1.9-0.6 3.7-1.1 5.6-0.5-0.1-0.9-0.2-1.4-0.3 0.5-2.4 1-4.8 1.3-7.2 4.4 0.6 8.7 1.2 12.9 1.8z"/>
	<path class="st15" d="m267.9 371.2c0-12.5 10.1-22.6 22.6-22.6s22.6 10.1 22.6 22.6-12.4 22.6-22.6 22.6c-12.5 0.1-22.6-10.1-22.6-22.6"/>
	<path class="st16" d="m267.9 371.2c0-12.5 10.1-22.6 22.6-22.6s22.6 10.1 22.6 22.6-12.4 22.6-22.6 22.6c-12.5 0.1-22.6-10.1-22.6-22.6"/>
	<path class="st15" d="m373.9 371.2c0-12.5 10.1-22.6 22.6-22.6s22.6 10.1 22.6 22.6-12.4 22.6-22.6 22.6c-12.4 0-22.6-10.1-22.6-22.6"/>
	<path class="st16" d="m373.9 371.2c0-12.5 10.1-22.6 22.6-22.6s22.6 10.1 22.6 22.6-12.4 22.6-22.6 22.6c-12.4 0-22.6-10.1-22.6-22.6"/>
	<path class="st17" d="m293.4 362.6c0.9-0.1 1.3-0.8 2.2-0.8 1-0.1 2.3 1 3 1.6 0.8 0.7 1.7 1.3 2.2 2.2 0.6 0.9 1.1 1.8 1.6 2.8s0.9 1.9 1.1 2.9c0.1 0.5 0.1 1 0.2 1.5s-0.6 0.6-1 0.6c-0.7 0.1-0.9 0-1.2-0.6-0.3-0.5-0.6-0.9-0.9-1.4-0.4-0.5-0.6-0.6-1.2-0.8-0.5-0.1-0.7-0.4-1.1-0.9-1-1.3-2.4-2.1-3.7-3-0.6-0.4-1.1-1.3-1.5-1.9-0.5-0.3 0.1-1.7 0.3-2.2"/>
	<path class="st17" d="m287.1 361c-0.9 0-1.4-0.7-2.3-0.6-1 0-2.2 1.1-2.9 1.8-0.8 0.7-1.6 1.4-2 2.3-0.5 1-1 1.9-1.4 2.9s-0.8 1.9-0.9 3c0 0.5-0.1 1-0.1 1.6 0 0.5 0.6 0.5 1 0.5 0.7 0 0.9 0 1.2-0.7 0.3-0.5 0.5-1 0.8-1.4 0.4-0.5 0.5-0.6 1.2-0.9 0.5-0.2 0.7-0.5 1-0.9 0.9-1.3 2.3-2.2 3.5-3.3 0.6-0.5 1-1.4 1.4-2 0.4-0.5-0.2-1.9-0.5-2.3"/>
	<polygon class="st17" points="286 384.9 286.4 383.8 284.2 381.2 283.1 382.4 282.2 383.7 281.5 385 280.7 386.2 280.9 387.5 281 388.6 282 389 283.1 388.9 284.4 388.1 285 387 285.4 385.9"/>
	<polygon class="st17" points="291.1 386.1 290.4 385 291.9 382 293.3 382.9 294.5 383.9 295.4 385 296.5 386 296.7 387.3 296.8 388.4 295.9 389 294.8 389.2 293.4 388.8 292.6 387.8 291.9 386.8"/>
	<path class="st17" d="m293.5 363.7c0-0.3-0.1-0.5-0.1-0.8 0-0.2 0-0.3-0.1-0.5v-0.2l1-1c0.2-0.2 0.5-0.4 0.7-0.6 0.1-0.1 0.3-0.2 0.4-0.4 0.4-0.5 0.7-1 1.1-1.4 0.5-0.6 1.1-2.1 0.9-2.9-0.2-0.5-0.3-1.2-0.5-1.7-0.3-0.8-0.8-1-1.5-1.1-1.3-0.2-2.4 0.9-3.3 1.7-1.2 1.1-1.7 2.3-2.2 3.8l-0.6 1.5v0.2 0.3 0.1c-0.2 0.2-0.3 0.4-0.5 0.7-0.1 0.1-0.2 0.2-0.3 0.4 0 0.1-0.1 0-0.2 0.1-0.3 0-0.6 0.1-0.9 0.1 0.4 0.4 0.8 0.7 1.2 1.1l0.6 0.6c0.1 0.1 0.2 0.1 0.3 0.1 0.6 0.2 1.2 0.3 1.9 0.5h0.1c0.1 0 0.2-0.1 0.2-0.1 0.3-0.1 0.7-0.2 1-0.4 0.4 0.1 0.6 0 0.8-0.1"/>
	<path class="st17" d="m290.8 380.8c-0.1 1.8-1.1 7.8-1.8 7.8s-1.4-6.1-1.3-8"/>
	<path class="st17" d="m298.6 373.2c-0.1 1.6-0.4 3.1-0.9 4.5-0.1 0.2-0.1 0.4-0.2 0.6-1.7 3.1-4.4 7-8.2 7.8-0.2 0 0 0.1-0.1 0.1-0.2 0 0.2 0 0 0-0.8-0.1-1.5-0.4-2.1-0.9l-0.3-0.3c-1.2-1-2.5-2.1-3.4-3.5-0.1-0.2-0.2-0.3-0.3-0.5-1.5-2.3-2.3-5.4-2.1-8.7 0.2-3.5 1.4-6.6 3.2-8.7 0.1-0.2 0.3-0.3 0.4-0.4 1.3-1.3 2.4-2.8 4.2-3.4 0.1-0.1 0.3-0.1 0.4-0.2s0.3-0.1 0.4-0.1c0.2 0 0.4-0.1 0.6-0.1h0.6c0.2 0 0.4 0.1 0.6 0.1 1.8 1 3 2.7 4.5 4.2 0.1 0.1 0.2 0.3 0.3 0.5 1.6 2.1 2.6 5.4 2.4 9z"/>
	<polygon class="st17" points="287.6 375.1 285.7 371.5 287.9 368 292 368.2 293.9 371.9 291.7 375.3"/>
	<polygon class="st17" points="288 368 286.1 364.4 288.3 361.3 292.4 361.5 294.3 364.8 292.1 368.3"/>
	<polygon class="st17" points="287.4 382.1 285.2 378.6 287.5 375.2 291.9 375.2 293.7 378.9 291.5 382.3"/>
	<line class="st18" x1="294.29999" x2="298" y1="364.79999" y2="368.29999"/>
	<line class="st18" x1="293.89999" x2="298.39999" y1="372" y2="373.20001"/>
	<line class="st18" x1="285.70001" x2="281" y1="371.60001" y2="372.39999"/>
	<line class="st18" x1="286.10001" x2="282.29999" y1="364.39999" y2="366.60001"/>
	<line class="st18" x1="293.79999" x2="297.39999" y1="378.89999" y2="378.29999"/>
	<line class="st18" x1="285.5" x2="282.39999" y1="378.5" y2="379.89999"/>
	<line class="st18" x1="287.5" x2="286.39999" y1="382.10001" y2="384.5"/>
	<line class="st18" x1="291.5" x2="292.20001" y1="382.39999" y2="384.5"/>
	
		<ellipse class="st19" transform="matrix(.1735 -.9848 .9848 .1735 -105.7518 584.5718)" cx="295.39999" cy="355.29999" rx=".60000002" ry=".30000001"/>
	<line class="st18" x1="293" x2="292.39999" y1="360.60001" y2="361.5"/>
	<line class="st18" x1="288.39999" x2="288.20001" y1="359.70001" y2="361.39999"/>
	<path class="st17" d="m392.8 362c-0.9-0.1-1.3-0.8-2.2-0.8-1-0.1-2.3 1-3 1.6-0.8 0.7-1.7 1.3-2.2 2.2-0.6 0.9-1.1 1.8-1.6 2.8s-0.9 1.9-1.1 2.9c-0.1 0.5-0.1 1-0.2 1.5s0.6 0.6 1 0.6c0.7 0.1 0.9 0 1.2-0.6 0.3-0.5 0.6-0.9 0.9-1.4 0.4-0.5 0.6-0.6 1.2-0.8 0.5-0.1 0.7-0.4 1.1-0.9 1-1.3 2.4-2.1 3.7-3 0.6-0.4 1.1-1.3 1.5-1.9 0.5-0.3 0-1.7-0.3-2.2"/>
	<path class="st17" d="m399.1 360.3c0.9 0 1.4-0.7 2.3-0.6 1 0 2.2 1.1 2.9 1.8 0.8 0.7 1.6 1.4 2 2.3 0.5 1 1 1.9 1.4 2.9s0.8 1.9 0.9 3c0 0.5 0.1 1 0.1 1.6 0 0.5-0.6 0.5-1 0.5-0.7 0-0.9 0-1.2-0.7-0.3-0.5-0.5-1-0.8-1.4-0.4-0.5-0.5-0.6-1.2-0.9-0.5-0.2-0.7-0.5-1-0.9-0.9-1.3-2.3-2.2-3.5-3.3-0.6-0.5-1-1.4-1.4-2-0.4-0.4 0.3-1.8 0.5-2.3"/>
	<polygon class="st17" points="400.2 384.3 399.8 383.2 402 380.6 403.1 381.8 404 383.1 404.7 384.3 405.5 385.6 405.3 386.9 405.2 387.9 404.2 388.4 403.1 388.3 401.8 387.5 401.3 386.4 400.8 385.3"/>
	<polygon class="st17" points="394.3 384.6 395 383.6 393.5 380.6 392.1 381.5 390.9 382.5 390 383.6 388.9 384.6 388.8 385.9 388.6 386.9 389.5 387.6 390.6 387.8 392.1 387.4 392.8 386.4 393.5 385.4"/>
	<path class="st17" d="m393.6 363.1c0-0.3 0.1-0.5 0.1-0.8 0-0.2 0-0.3 0.1-0.5v-0.2l-1-1c-0.2-0.2-0.5-0.4-0.7-0.6-0.1-0.1-0.3-0.2-0.4-0.4-0.4-0.5-0.7-1-1.1-1.4-0.5-0.6-1.1-2.1-0.9-2.9 0.2-0.5 0.3-1.2 0.5-1.7 0.3-0.8 0.8-1 1.5-1.1 1.3-0.2 2.4 0.9 3.3 1.7 1.2 1.1 1.7 2.3 2.2 3.8l0.6 1.5v0.2 0.3 0.1c0.2 0.2 0.3 0.4 0.5 0.7 0.1 0.1 0.2 0.2 0.3 0.4 0 0.1 0.1 0 0.2 0.1 0.3 0 0.6 0.1 0.9 0.1-0.4 0.4-0.8 0.7-1.2 1.1l-0.6 0.6c-0.1 0.1-0.2 0.1-0.3 0.1-0.6 0.2-1.2 0.3-1.9 0.5h-0.1c-0.1 0-0.2-0.1-0.2-0.1-0.3-0.1-0.7-0.2-1-0.4-0.5 0-0.7 0-0.8-0.1"/>
	<path class="st17" d="m398.5 380c0.1 1.8-0.6 7.9-1.3 8-0.7 0-1.7-6-1.8-7.8"/>
	<path class="st17" d="m390.1 363.4c0.1-0.2 0.2-0.3 0.3-0.5 1.5-1.4 2.7-3.2 4.5-4.2 0.2-0.1 0.4-0.1 0.6-0.1h0.6c0.2 0 0.4 0 0.6 0.1 0.1 0 0.3 0.1 0.4 0.1s0.3 0.1 0.4 0.2c1.7 0.7 2.9 2.2 4.2 3.4l0.4 0.4c1.8 2.1 3.1 5.2 3.2 8.7 0.2 3.4-0.6 6.4-2.1 8.7-0.1 0.2-0.2 0.3-0.3 0.5-0.9 1.4-2.1 2.4-3.4 3.5l-0.3 0.3c-0.6 0.5-1.3 0.8-2.1 0.9-0.2 0 0.2 0 0 0s0 0-0.1-0.1c-3.8-0.8-6.5-4.7-8.2-7.8-0.1-0.2-0.1-0.4-0.2-0.6-0.5-1.4-0.8-2.9-0.9-4.5-0.2-3.4 0.7-6.7 2.4-9z"/>
	<polygon class="st17" points="394.6 374.7 392.3 371.3 394.2 367.6 398.3 367.4 400.5 370.8 398.7 374.5"/>
	<polygon class="st17" points="394.2 367.6 392 364.2 393.8 360.9 397.9 360.7 400.1 363.8 398.3 367.4"/>
	<polygon class="st17" points="394.7 381.7 392.5 378.3 394.3 374.6 398.8 374.6 401 378 398.8 381.5"/>
	<line class="st18" x1="388.20001" x2="392" y1="367.70001" y2="364.20001"/>
	<line class="st18" x1="387.79999" x2="392.29999" y1="372.60001" y2="371.39999"/>
	<line class="st18" x1="405.20001" x2="400.5" y1="371.70001" y2="371"/>
	<line class="st18" x1="403.89999" x2="400.10001" y1="365.89999" y2="363.79999"/>
	<line class="st18" x1="388.89999" x2="392.5" y1="377.70001" y2="378.29999"/>
	<line class="st18" x1="403.79999" x2="400.79999" y1="379.29999" y2="377.79999"/>
	<line class="st18" x1="399.79999" x2="398.79999" y1="383.89999" y2="381.5"/>
	<line class="st18" x1="394" x2="394.70001" y1="383.89999" y2="381.79999"/>
	
		<ellipse class="st19" transform="matrix(.9848 -.1735 .1735 .9848 -55.5993 73.3277)" cx="391.60001" cy="354.70001" rx=".30000001" ry=".60000002"/>
	<line class="st18" x1="393.79999" x2="393.29999" y1="360.89999" y2="360"/>
	<line class="st18" x1="398" x2="397.79999" y1="360.79999" y2="359.10001"/>
	<path class="st20" d="m328 590.7-2.4-3.5c0-1.2 0.2-2.3 0.7-3.3 0.4-1 1-1.9 1.8-2.7s1.7-1.4 2.7-1.8 3.5-0.7 4.7-0.7h16c1.2 0 3 0.2 4 0.7 1 0.4 1.9 1 2.7 1.8s1.4 1.7 1.8 2.7 0.7 2.1 0.7 3.3l-1.7 3.5 3.7-0.4 2.2-4.4c0-1.4-0.3-2.8-0.8-4.1s-1.3-2.4-2.2-3.3-2.1-1.7-3.3-2.2c-1.3-0.5-3.5-0.8-4.9-0.8h-19.8c-1.4 0-4.6 0.3-5.8 0.8-1.3 0.5-2.4 1.3-3.3 2.2s-1.7 2.1-2.2 3.3c-0.5 1.3-0.8 2.6-0.8 4.1l3.1 4.4z"/>
	<polygon class="st17" points="225.7 513 230.4 490.9 251.4 496.9"/>
	<ellipse class="st21" transform="matrix(.866 -.5 .5 .866 -222.1374 188.7461)" cx="241.10001" cy="508.89999" rx="3.5" ry="3.8"/>
	<polygon class="st22" points="237.5 501.9 241.5 504.8 243.8 509.5 240.2 511.6 237.4 507.1"/>
	<polygon class="st12" points="327.9 366.9 330.9 352.6 337.6 365.9 343.7 351.1 348.9 365.9 357 352.6 359.1 366.9 368 356.1 362.8 376.8 323.9 376.6 318.1 355.5"/>
	<polygon class="st23" points="322.6 372.1 343.5 370.4 364.3 371.9 363.7 375.8 363.2 380.6 343.6 380.6 324 380.6 323.3 376"/>
	<path class="st24" d="m363.9 381.7c0 2-9.1 3.1-20.2 3.1-11.2 0-20.2-1.1-20.2-3.1s9.1-3.7 20.2-3.7 20.2 1.7 20.2 3.7z"/>
	<path class="st12" d="m362 382.3c0 1.4-8.4 2.6-18.7 2.6s-18.7-1.2-18.7-2.6 8.4-2.5 18.7-2.5 18.7 1.1 18.7 2.5z"/>
	<path class="st25" d="m343.6 369.1c-12.3 0-22.2 1.8-22.2 4 0 0.5 0.6 1 1.6 1.5v-0.1c0-1.5 9.2-3.4 20.6-3.4s20.6 1.8 20.6 3.4c0 0.1 0 0.1-0.1 0.2 1.2-0.5 1.8-1 1.8-1.6 0-2.2-10-4-22.3-4z"/>
	<path class="st26" d="m363.7 378.9c-3.5 0 1.2-4.8-3.1-4.8s-0.7 3.6-4.3 3.6c-3.5 0 0-5.4-4.3-5.4s-0.8 4.8-4.3 4.8 0-4.8-4.3-4.8-0.7 4.8-4.3 4.8 0.1-4.2-4.2-4.2-0.6 4.8-4.2 4.8c-2.8 0-1.1-2.2-3.5-3.6h-1.7c-2.4 1.4 1.1 5.4-1.7 5.4"/>
	<ellipse class="st27" cx="326.79999" cy="376.29999" rx=".40000001" ry=".2"/>
	<ellipse class="st27" cx="335" cy="375.20001" rx=".40000001" ry=".2"/>
	<ellipse class="st27" cx="343.5" cy="374.39999" rx=".40000001" ry=".2"/>
	<ellipse class="st27" cx="352.10001" cy="374.39999" rx=".40000001" ry=".2"/>
	<ellipse class="st27" cx="360.39999" cy="376.39999" rx=".40000001" ry=".2"/>
</g>














<g transform="matrix(.73185012 0 0 .73646741 .14637002 0)"><polygon class="st1" transform="matrix(1.0002928 0 0 1.0091664 -.19999729 0)" points="750.9 269.1 819.6 134.5 750.9 0 683 135.7"/><polygon class="st1" transform="matrix(1.0002928 0 0 1.0091664 -.19999729 0)" points="887.5 269.1 956.2 134.5 887.5 0 819.6 135.7"/><polygon class="st1" transform="matrix(1.0002928 0 0 1.0091664 -.19999729 0)" points="1024.1 269.1 1092.8 134.5 1024.1 0 956.2 135.7"/><polygon class="st1" transform="matrix(1.0002928 0 0 1.0091664 -.19999729 0)" points="1160.7 269.1 1229.4 134.5 1160.7 0 1092.8 135.7"/><polygon class="st1" transform="matrix(1.0002928 0 0 1.0091664 -.19999729 0)" points="1297.3 269.1 1366 134.5 1297.3 0 1229.4 135.7"/><polygon class="st1" transform="matrix(1.0002928 0 0 1.0091664 -.40005585 -3.7339268)" points="683.2 408.5 751.1 541.9 819.8 407.4 751.1 272.8"/><polygon class="st1" transform="matrix(1.0002928 0 0 1.0091664 -.40005585 -3.7339268)" points="819.8 408.5 887.7 541.9 956.4 407.4 887.7 272.8"/><polygon class="st1" transform="matrix(1.0002928 0 0 1.0091664 -.40005585 -3.7339268)" points="956.4 408.5 1024.3 541.9 1093 407.4 1024.3 272.8"/><polygon class="st1" transform="matrix(1.0002928 0 0 1.0091664 -.40005585 -3.7339268)" points="1093 408.5 1160.9 541.9 1229.6 407.4 1160.9 272.8"/><polygon class="st1" transform="matrix(1.0002928 0 0 1.0091664 -.40005585 -3.7339268)" points="1229.6 408.5 1297.5 541.9 1366.2 407.4 1297.5 272.8"/><polygon class="st1" transform="matrix(1.0002928 0 0 1.0091664 -.40005856 -7.4678311)" points="751.1 545.6 683.2 681.3 751.1 814.7 819.8 680.2"/><polygon class="st1" transform="matrix(1.0002928 0 0 1.0091664 -.40005856 -7.4678311)" points="887.7 545.6 819.8 681.3 887.7 814.7 956.4 680.2"/><polygon class="st1" transform="matrix(1.0002928 0 0 1.0091664 -.40005856 -7.4678311)" points="1024.3 545.6 956.4 681.3 1024.3 814.7 1093 680.2"/><polygon class="st1" transform="matrix(1.0002928 0 0 1.0091664 -.40005856 -7.4678311)" points="1160.9 545.6 1093 681.3 1160.9 814.7 1229.6 680.2"/><polygon class="st1" transform="matrix(1.0002928 0 0 1.0091664 -.40005856 -7.4678311)" points="1297.5 545.6 1229.6 681.3 1297.5 814.7 1366.2 680.2"/></g>
</svg>
