<?xml version="1.0" encoding="UTF-8"?>
<svg width="600px" height="400px" enable-background="new 0 0 600 400" version="1.1" viewBox="0 0 600 400" xml:space="preserve" xmlns="http://www.w3.org/2000/svg">

<rect width="600" height="400" fill="#0000CC" style="fill:#0039a7"/>
<path d="m587.14 198.47-289.45 191.78-284.83-188.72 289.45-191.78 284.83 188.72zm-500.06 3.061 210.6 139.54 215.22-142.6-210.6-139.54-215.22 142.6z" fill="#FFFFFF"/>
<path d="m357.31 221.82c-4.169-24.129-23.188-43.157-47.313-47.338v47.338h47.313z" fill="#FFFFFF"/>
<path d="m300 289.98c28.711 0 52.548-20.801 57.303-48.151h-114.61c4.756 27.35 28.592 48.151 57.303 48.151z" fill="#FFFFFF"/>
<path d="m290 174.49c-24.125 4.181-43.145 23.209-47.314 47.338h47.314v-47.338z" fill="#FFFFFF"/>
<path d="m290 174.49c3.25-.563 6.587-.874 9.999-.874 3.408 0 6.742.31 9.99.873v-23.181h21.987v-20h-21.987v-21.278h-20v21.278h-21.408v20h21.408l.011 23.182z" fill="#FFFFFF"/>
</svg>
