<?xml version="1.0" encoding="UTF-8"?>
<svg xmlns="http://www.w3.org/2000/svg" xmlns:xlink="http://www.w3.org/1999/xlink" width="900" height="600" viewBox="0 0 238.125 158.75001">
  <defs>
    <path id="a" d="M110812 21159S13531 93577 13531 178969c0 85404 97281 159872 97281 159872s96656-68326 96656-159872c0-91540-96656-157810-96656-157810z" style="image-rendering:optimizeQuality;shape-rendering:geometricPrecision"/>
  </defs>
  <g transform="translate(0 -138.24998)">
    <path fill="#39F" d="M0 138.24998h238.125v158.75H0z"/>
    <g fill="#FFDF00" fill-rule="evenodd" stroke-width="1.13741636" style="image-rendering:optimizeQuality;shape-rendering:geometricPrecision" transform="matrix(.02328 0 0 .02325 0 138.4592)">
      <path d="M0 2386.7156v683.0821L5115 3405.5zM0 879.73741v787.16749L5115 3405.5zM1226.6452-9.0000301H0l5115 3414.50003z"/>
      <path d="M5115 3405.5 2836.5062-9.00003 2124.5096-9zm0 0L3957.4641-9.00003h-524.0942zm0 0L4891.4972-9.00003h-454.7917zm5115-1018.7844v683.0821L5115 3405.5zm0-1506.97819v787.16749L5115 3405.5zM9003.3548-9.0000301H10230l-5115 3414.50003zm-1609.861 0h711.9966L5115 3405.4999999zm-1120.958 0h524.6626L5115 3405.4999999zm-934.0331 0h454.7917L5115 3405.4999999z"/>
    </g>
    <circle cx="119.0625" cy="217.62498" r="47.625" fill="#FFDF00"/>
    <path d="M0 217.62498h238.125v79.375H0z"/>
    <g fill="#FFDF00" fill-rule="evenodd" clip-rule="evenodd">
      <use xlink:href="#a" style="image-rendering:optimizeQuality;shape-rendering:geometricPrecision" transform="matrix(0 .00003 -.0003 0 172.27452 222.44829)"/>
      <use xlink:href="#a" style="image-rendering:optimizeQuality;shape-rendering:geometricPrecision" transform="matrix(0 .00003 -.00028 0 168.77759 233.21283)"/>
      <use xlink:href="#a" style="image-rendering:optimizeQuality;shape-rendering:geometricPrecision" transform="matrix(0 .00002 -.00024 0 162.91805 242.85411)"/>
      <use xlink:href="#a" style="image-rendering:optimizeQuality;shape-rendering:geometricPrecision" transform="matrix(0 .00002 -.0002 0 154.68779 251.46903)"/>
      <use xlink:href="#a" style="image-rendering:optimizeQuality;shape-rendering:geometricPrecision" transform="matrix(0 .00001 -.00014 0 143.62651 258.62667)"/>
    </g>
  </g>
</svg>