<?xml version="1.0" encoding="utf-8"?>
<!-- Generator: Adobe Illustrator 18.1.1, SVG Export Plug-In . SVG Version: 6.00 Build 0)  -->
<svg version="1.1" id="Layer_1" xmlns="http://www.w3.org/2000/svg" xmlns:xlink="http://www.w3.org/1999/xlink" x="0px" y="0px"
	 viewBox="0 0 900 600" enable-background="new 0 0 900 600" xml:space="preserve">
<rect fill="#007FFF" width="900" height="600"/>
<rect y="200" fill="#FFCC00" width="900" height="400"/>
<rect y="400" fill="#008033" width="900" height="200"/>
<g>
	<path stroke="#000000" stroke-miterlimit="10" d="M330.5,389.7c2.7-10.6-3.4-23.7,4-32.1c6.8-7.6,18.6-4.7,28-7.3
		c3.7-1,7.5-2.2,10.9-4.1c10-5.7,11.3-15.4,2.9-23.3c-5.2-4.9-10.9-9.9-12.6-17c-3.5-14.6-14.1-18.3-25.4-21.3
		c-22.2-5.8-26.7-13.4-21.1-36.4c2.7-11-11-25.7-26-27.5c-5.1-0.6-10.3-0.1-15.4-0.1c-19.2-0.1-21.6-2.7-22-22.7
		c-0.1-2.8,0.4-14.8,0-17.9c-2.3-15.5,3.7-24.4,17.4-28.7c7.6-2.4,13.1-7.4,16.1-16.3c3.4-10.5,11.6-10.1,18.9-5.2
		c26.5,18,54.5,19.2,83.8,10.2c5.1-1.6,9.2-3.9,12.1-9.2c8.9-16.4,22-20.1,36.3-9.9c16.2,11.7,33.1,13.9,51.1,6.5
		c5.6-2.3,10.5-1,13.6,4.2c3.4,5.8-1.8,7.6-5,10.5c-5.5,5-2.5,9.4,1.3,14c8,9.6,16.4,19.1,14.3,33.7c-1.9,7.2,2.8,11,6.6,15.3
		c10.4,11.8,10.7,22.4-0.3,32.9c-8.3,8-5.5,17.7-5.2,27c0.2,5,5,3.9,8.3,3.9c27.7,0.1,47.9,16.8,67.3,35.2
		c5.7,5.4,7.1,13.3,8.8,20.9c2.1,9.7,6.6,15.3,16.9,13.5c4.6-0.8,9.4-0.3,14.1-0.1c9.4,0.3,16.6,5.8,16.4,15.6
		c-0.3,15.8,9,21.4,19.7,27c5.7,3,11.2,6.4,16.9,9.6c8,18.2,3.9,28.1-14.4,33.9c-14.3,4.6-29.1,2.1-43.6,2
		c-11.5-0.1-21.2,2.5-28.5,12.5c-10.3,14.1-23.9,15.9-38.3,10.2c-10.8-4.3-17.2-2.2-23.6,8.4c-16.4,27.2-23.9,29.8-52.6,19.7
		c-14.2-5-28.2-6.7-43-2.9c-8.3,2.2-11.7,5.2-8.8,15.2c5.2,17.9,1.3,24.6-15.7,28.4c-7.6,1.7-14.7,3.9-21.5,8.4
		c-11.5,7.5-24.6,5.7-33.9-5.6c-8.8-10.6-19.1-16.6-31.9-18.3c-12.1-1.6-23.1-7-33.7-13.2c-11-6.4-12.5-12.9-6.3-24.8
		c7.9-15,18.6-27.7,29.4-40.2C325.5,414.3,330,403.2,330.5,389.7z M340.7,389.2c-0.3,16.3-5.2,30.5-15.6,42.7
		c-8.9,10.5-17.2,21.8-25.2,33.2c-5.5,7.9-4.6,14.5,5.2,17.8c11.4,3.9,22.4,9.2,34.4,11.3c9,1.6,16.6,5.1,22.3,14.3
		c7.4,11.9,17.4,12.9,29,4.7c5.5-3.9,11.1-7.3,17.7-7.8c10.3-0.7,13.2-4.9,10.3-16.1c-4.3-16.5,0.2-22.3,16.1-25.8
		c16.7-3.7,33.2-3.2,49.6,1.6c26,7.7,26.2,7.6,43-15.7c10.5-14.6,17.6-18,33-11.5c12.6,5.4,21.7,2.1,29.4-8.5
		c7.9-10.8,18.1-13.8,30.6-13.6c14.9,0.3,30.1,2.7,44.8-2c4.7-1.5,11.2-1.9,11.5-9c0.3-6.6-4.9-8.9-10.1-10.8
		c-4-1.5-7.8-3.6-11.7-5.4c-10.5-5.8-18.2-13.6-17.2-27.9c0.6-8.7-4.2-12.5-11.9-12.4c-5.1,0-10.3-0.3-15.4,0.1
		c-10.1,0.8-15.3-3.2-18.1-14.4c-7.3-29-39.7-54.6-67.9-55.3c-7-0.2-15.3,2.1-18.8-7.5c-3.9-10.5,0-35.5,6.8-39.4
		c9.2-5.3,7.6-11.6,1.8-17.2c-6.9-6.9-9.6-14.9-9.5-24.5c1.9-9.1-1.3-15.8-7.4-22.1c-4.7-4.9-11.1-9.8-10.1-18.2
		c1-8.6-3.7-8.8-9.2-8.3c-17.1,1.6-32.8-1.9-47.5-12.4c-8.6-6.1-17.6-5-21.4,7.5c-2.3,7.5-7.2,11-13.6,13.1
		c-27.3,9.1-54.7,9.3-81.4-1.9c-10.2-4.3-18.4-8.5-25.2,4.8c-1.4,2.8-5.2,5.2-8.3,5.9c-16.5,3.9-20.3,15.4-17.3,31.5
		c-0.9,19.1-0.9,20.2,16.5,18.8c16.6-1.4,28.8,6.5,40.4,17.2c7,6.5,8.5,14.6,6.5,23.8c-4.3,19.2-1.3,23.4,17.4,24.8
		c12.3,0.9,22.4,5.8,25.8,20.3c1.9,7.8,6.4,13.5,12.2,18.9c14.5,13.3,10.9,35.9-6.7,43.8c-5.5,2.5-11.6,4.9-17.3,4.8
		c-16.5-0.4-20.2,8.9-17.9,24C340.6,387.3,340.6,388.3,340.7,389.2z"/>
</g>
</svg>
