<?xml version="1.0" encoding="UTF-8" standalone="no"?>
<svg
   width="900"
   height="599.79651"
   version="1.0"
   id="svg8214"
   sodipodi:docname="Flag_of_Delta_Amacuro_State.svg"
   xml:space="preserve"
   inkscape:version="1.2 (dc2aedaf03, 2022-05-15)"
   xmlns:inkscape="http://www.inkscape.org/namespaces/inkscape"
   xmlns:sodipodi="http://sodipodi.sourceforge.net/DTD/sodipodi-0.dtd"
   xmlns="http://www.w3.org/2000/svg"
   xmlns:svg="http://www.w3.org/2000/svg"><defs
     id="defs8218"><style
       type="text/css"
       id="style11002">
   <![CDATA[
    .str4 {stroke:black;stroke-width:100}
    .str26 {stroke:black;stroke-width:75}
    .str21 {stroke:#2C0114;stroke-width:75}
    .str1 {stroke:#2C0114;stroke-width:50}
    .str24 {stroke:#8B2815;stroke-width:50}
    .str22 {stroke:#2C0114;stroke-width:25}
    .str19 {stroke:#5E0E0B;stroke-width:25}
    .str3 {stroke:black;stroke-width:20}
    .str0 {stroke:#2C0114;stroke-width:20}
    .str15 {stroke:#5E0E0B;stroke-width:20}
    .str7 {stroke:#61501C;stroke-width:20}
    .str12 {stroke:#753305;stroke-width:20}
    .str20 {stroke:#827E11;stroke-width:20}
    .str25 {stroke:#8A722C;stroke-width:20}
    .str18 {stroke:#A52518;stroke-width:20}
    .str16 {stroke:#A52518;stroke-width:20}
    .str14 {stroke:black;stroke-width:10}
    .str10 {stroke:#2C0114;stroke-width:10}
    .str8 {stroke:#61501C;stroke-width:10}
    .str13 {stroke:#753305;stroke-width:10}
    .str17 {stroke:#0C2E10;stroke-width:7.62}
    .str11 {stroke:#2C0114;stroke-width:7.62}
    .str9 {stroke:#61501C;stroke-width:7.62}
    .str2 {stroke:#2C0114;stroke-width:50;stroke-linejoin:round}
    .str27 {stroke:#2C0114;stroke-width:75;stroke-linecap:round}
    .str28 {stroke:#2C0114;stroke-width:50;stroke-linecap:round}
    .str5 {stroke:#2C0114;stroke-width:25;stroke-linecap:round}
    .str23 {stroke:#A52518;stroke-width:20;stroke-linecap:round}
    .str29 {stroke:#FDCB34;stroke-width:20;stroke-linecap:round}
    .str30 {stroke:#FFCA38;stroke-width:20;stroke-linecap:round}
    .str6 {stroke:#2C0114;stroke-width:20;stroke-linecap:round;stroke-linejoin:round}
    .str32 {stroke:#2C0114;stroke-width:18.86}
    .str31 {stroke:#2C0114;stroke-width:18.86}
    .str33 {stroke:#2C0114;stroke-width:18.86}
    .fil3 {fill:none}
    .fil24 {fill:black}
    .fil47 {fill:#0C2E10}
    .fil6 {fill:#0C2E10}
    .fil13 {fill:#2C0114}
    .fil4 {fill:#2C0114}
    .fil52 {fill:#2D6C35}
    .fil7 {fill:#2D6C35}
    .fil57 {fill:#401B01}
    .fil26 {fill:#411514}
    .fil10 {fill:#4276C9}
    .fil5 {fill:#519660}
    .fil43 {fill:#5E0E0B}
    .fil8 {fill:#5E2904}
    .fil56 {fill:#663300}
    .fil48 {fill:#6B1D0D}
    .fil20 {fill:#8A722C}
    .fil0 {fill:#8A722C}
    .fil17 {fill:#964308}
    .fil25 {fill:#964308}
    .fil35 {fill:#990000}
    .fil40 {fill:#A52518}
    .fil30 {fill:#A60505}
    .fil39 {fill:#A7190D}
    .fil28 {fill:#AD4C07}
    .fil31 {fill:#BF0606}
    .fil15 {fill:#C2570A}
    .fil27 {fill:#C9991E}
    .fil44 {fill:#CF0F32}
    .fil54 {fill:#D1F3FD}
    .fil36 {fill:#D2393B}
    .fil21 {fill:#E0AE31}
    .fil18 {fill:#E0AE31}
    .fil37 {fill:#E68F90}
    .fil45 {fill:#EE2C4E}
    .fil51 {fill:#F1A7CC}
    .fil46 {fill:#F2B5B5}
    .fil11 {fill:#F71E2C}
    .fil41 {fill:#F90111}
    .fil55 {fill:#FAC49E}
    .fil33 {fill:#FC5863}
    .fil38 {fill:#FC922C}
    .fil42 {fill:#FDCB34}
    .fil34 {fill:#FF001F}
    .fil32 {fill:#FF0111}
    .fil49 {fill:#FF0823}
    .fil14 {fill:#FF8731}
    .fil16 {fill:#FF8731}
    .fil53 {fill:#FF9B24}
    .fil29 {fill:#FFA666}
    .fil9 {fill:#FFCA38}
    .fil22 {fill:#FFFA43}
    .fil19 {fill:#FFFA43}
    .fil2 {fill:#FFFC44}
    .fil12 {fill:#FFFD31}
    .fil23 {fill:#FFFD31}
    .fil1 {fill:white}
    .fil50 {fill:#2C0114;fill-rule:nonzero}
   ]]>
  </style></defs><sodipodi:namedview
     id="namedview8216"
     pagecolor="#505050"
     bordercolor="#ffffff"
     borderopacity="1"
     inkscape:showpageshadow="0"
     inkscape:pageopacity="0"
     inkscape:pagecheckerboard="1"
     inkscape:deskcolor="#505050"
     showgrid="false"
     inkscape:zoom="0.78374771"
     inkscape:cx="394.25952"
     inkscape:cy="199.04364"
     inkscape:window-width="1280"
     inkscape:window-height="971"
     inkscape:window-x="-8"
     inkscape:window-y="-8"
     inkscape:window-maximized="1"
     inkscape:current-layer="svg8214" /><path
     style="fill:#74acdf;fill-opacity:1;fill-rule:nonzero;stroke:none"
     d="M77.752495-952.90851h900v225h-900z"
     transform="translate(-77.420886 952.58534) scale(.99966)"
     id="path8184" /><path
     style="fill:#00247d;fill-opacity:1;fill-rule:nonzero;stroke:none"
     d="M77.752495-577.90851h900v225h-900z"
     transform="translate(-77.420886 952.58534) scale(.99966)"
     id="path8186" /><path
     style="fill:#008033;fill-opacity:1;fill-rule:nonzero;stroke:none"
     d="M77.752495-727.90851h900v150h-900z"
     transform="translate(-77.420886 952.58534) scale(.99966)"
     id="path8188" /><g
     id="g8198"><path
       style="fill:#fff;fill-opacity:1;fill-rule:evenodd"
       transform="matrix(33.70867 0 0 33.43668 518.579101 91.18805583)"
       d="m0-1 .22451399.69098301h.72654253L.36327126.11803399l.22451399.690983L0 .38196601l-.58778525.42705098.22451399-.690983-.58778526-.42705098h.72654253L0-1z"
       id="path8190" /><path
       transform="matrix(33.70867 0 0 33.43668 403.04664844 140.12155807)"
       style="fill:#fff;fill-opacity:1;fill-rule:evenodd"
       d="m.36327126.11803399.22451399.690983L0 .38196601l-.58778525.42705098.22451399-.690983-.58778526-.42705098h.72654253L0-1l.22451399.69098301h.72654253z"
       id="path8192" /><path
       style="fill:#fff;fill-opacity:1;fill-rule:evenodd"
       transform="matrix(-33.70867 0 0 33.43668 655.84933802 91.18799981)"
       d="m-.58778525.80901699.22451399-.690983-.58778526-.42705098h.72654253L0-1l.22451399.69098301h.72654253L.36327126.11803399l.22451399.690983L0 .38196601z"
       id="path8194" /><path
       transform="matrix(-33.70867 0 0 33.43668 771.3818046 140.12150205)"
       style="fill:#fff;fill-opacity:1;fill-rule:evenodd"
       d="M-.22451399-.30901699 0-1l.22451399.69098301h.72654253L.36327126.11803399l.22451399.690983L0 .38196601l-.58778525.42705098.22451399-.690983-.58778526-.42705098z"
       id="path8196" /></g><g
     id="g8212"><path
       style="fill:#000;fill-opacity:1;fill-rule:nonzero;stroke:none"
       d="M-138.89509-561.51892h-569.3026l284.6513-493.03048z"
       transform="matrix(0 1.05356 -.81103 0 -455.41072725 746.13135262)"
       id="path8200" /><path
       style="fill:#784421;fill-opacity:1;fill-rule:nonzero;stroke:none"
       d="M-138.89509-561.51892h-569.3026l284.6513-493.03048z"
       transform="matrix(0 1.00089 -.77048 0 -432.6401925 723.8196822)"
       id="path8202" /><path
       style="fill:#fc0;fill-opacity:1;fill-rule:nonzero;stroke:none"
       d="M-138.89509-561.51892h-569.3026l284.6513-493.03048z"
       transform="matrix(0 .9482 -.72993 0 -409.86965775 701.50803176)"
       id="path8204" /><path
       style="fill:#fff;fill-opacity:1;fill-rule:nonzero;stroke:none"
       d="M-138.89509-561.51892h-569.3026l284.6513-493.03048z"
       transform="matrix(0 .89553 -.68938 0 -387.099123 679.19638132)"
       id="path8206" /><path
       style="fill:#00247d;fill-opacity:1;fill-rule:nonzero;stroke:none"
       d="M-138.89509-561.51892h-569.3026l284.6513-493.03048z"
       transform="matrix(0 .84285 -.64883 0 -364.32858824 656.88473089)"
       id="path8208" /><path
       style="fill:#008033;fill-opacity:1;fill-rule:evenodd;stroke:none;stroke-width:3;stroke-linecap:butt;stroke-linejoin:miter;stroke-miterlimit:4;stroke-opacity:1;stroke-dasharray:none"
       d="m159.90135-721.98121-13.48048-11.10431-15.35278-1.23384-6.74025 6.78601-.37445 11.10434-7.86363 14.18886 5.61688 9.2536 3.74457-.61688.37447 11.10431 2.6212 6.16908 8.23808 2.46763h7.48915l-1.87227 5.55219 6.74023 8.63671-8.98699 8.01978-13.10603 8.63671-11.23374 3.08454-8.98698 3.70144 23.21639 9.25363h45.68387l.37445 8.63672 24.33977 22.82556h5.24241l19.09737-11.10432 14.22939 14.80576 14.60386-11.10433 7.48916-.61692h14.97832l2.99567-4.93526 7.86361-4.31835h7.1147l4.11904-9.87052h9.73591l.74891-6.78599-12.73156-13.57196-14.22941-6.78599h-18.7229l-4.86796 8.01979-15.35276-6.16906 1.87229-9.87052-10.11037-8.0198 3.37012-9.87053-4.11905-4.93526 3.37013-8.63671-4.49349-12.33815-9.73591-3.08454-7.86362-4.31834H204.0874l-15.35278-10.48743-5.24242-5.55217-10.48482-2.46762 4.11904 6.78598-17.22507-1.23384z"
       transform="translate(-77.420886 952.58534) scale(.99966)"
       id="path8210" /></g></svg>
