<?xml version="1.0"?>
<!--
************* Copyright (c) 2017 Pareto Softare, LLC DBA Simplemaps.com *******************		
************* Free for Commercial Use, full terms at  http://simplemaps.com/resources/svg-license ************
************* Attribution is appreciated! http://simplemaps.com ***************************
-->
<svg baseprofile="tiny" fill="#7c7c7c" height="556" stroke="#ffffff" stroke-linecap="round" stroke-linejoin="round" stroke-width="2" version="1.2" viewbox="0 0 1000 556" width="1000" xmlns="http://www.w3.org/2000/svg">
 <path d="M30 554.1l-1 0.9-1-0.5-0.2-1 0.9-1.1 1.2-0.7 1-0.3-0.2 1.2-0.7 1.5z m2-36.3l-1.3 0.5-3.4 2.6-1.8 1-7.3-0.2-8 2.5-6.5 0.3-2.7-6.7 2.3 2.8 4.3 1.3 4.6-0.3 3.1-1.7 1.7 0 2.7-0.8 2.5-1.2 1.3-0.8 0.6 0.7 0.7-0.7 1 0.5 1.1 0.2 0-0.7-1-0.7-0.6-0.9-0.3-1.2-0.2-1.3 4.7 2 2.1 1.4 0.9 1-0.5 0.4z m-9.2-4.8l-1.7 1.6-3.1 0.3-3.1-0.4-1.7-0.9-1.2 0.7-2.3-0.3-1.1 0.4-0.2-0.4 0-0.3-0.6-0.1 0-0.4 0.5-0.1 3.4-1.2 3.8 0.2 3.9 0.7 3.4 0.2z m974.7-218.8l-2.5 3.9 1.2-5.2 1-2 1.8-1-0.4 2.2-1.1 2.1z m-349.5-15.9l0.5 1.1-0.4-0.1-0.1-0.2 0-0.8z m59.6-155.5l0.1 0.7-0.5-0.5-0.2-0.5-0.4-1.1 0.7 1 0.3 0.4z" id="SC-00" title="Outer Islands">
 </path>
 <path d="M923.9 47.8l-0.3 0.8-2.2-0.8 0.3-0.3 2.2 0.3z" id="SC-01" title="Anse aux Pins">
 </path>
 <path d="M921.1 47.7l0.3 2.6 0.4 1.4-0.3 1.9-1.3-0.3-1.1-1.4 0.1-0.9-0.3-0.6 0.2-1 1.1-0.8 0.4-1.1 0.5 0.2z" id="SC-02" title="Anse Boileau">
 </path>
 <path d="M917.1 39.6l-0.6-0.1-1.3 0.7-0.2-0.8 0.2-0.9 0.6-1.3 1.2 0.2 0.5-0.5 0.3 1.2-0.4 0.5-0.3 1z" id="SC-03" title="Anse Etoile">
 </path>
 <path d="M921.4 47.8l2.2 0.8-0.4 1.9 0.3 0.6 0.3 2.3-1.8-1.2-0.2-0.5-0.4-1.4-0.3-2.6 0.3 0.1z" id="SC-04" title="Au Cap">
 </path>
 <path d="M923.8 53.4l-0.8 0.2-0.3 1.1 0.9 2-1.6 0.1-0.4-1-0.1-1.8 0-0.4 0.3-1.9 0.2 0.5 1.8 1.2z" id="SC-05" title="Anse Royale">
 </path>
 <path d="M921.5 53.6l0 0.4 0.1 1.8 0.4 1 0 0.6-1.6-0.1-0.2-0.3-0.5-1.1-0.8-0.3-0.7 0.4-0.8-0.3 0.5-1.8 1.6 0 0.7-0.6 1.3 0.3z" id="SC-06" title="Baie Lazare">
 </path>
 <path d="M947.6 15l-2.1-1.2-0.6-0.9-5.8-3.5 0.8-0.3 0.6-0.1 0.8 0 1.4 1.3 1.3 0.5 1.5 0.3 0.7 1 1-0.5 1.3 0.2 1 1.2-1.6 0.1-0.3 0.8 0 1.1z m-3.5-6.1l0 0.3-1.2-0.4-0.9-0.8 0.3-0.3 0.7 0 2.1 0.1-0.2 0.5-0.9 0 0.1 0.6z" id="SC-07" title="Baie Sainte Anne">
 </path>
 <path d="M915.2 38.5l-0.2 0.9 0.2 0.8-0.5 0.4 0.3 0.7-0.7 0.9-0.6-1.1-0.9 0.3-0.2-0.3 0.3-0.2 0.4-0.8 0.4-0.8 0.6-0.4 0.1-0.4 0.8 0z" id="SC-08" title="Beau Vallon">
 </path>
 <path d="M917.1 42.3l0 0.5-0.5 0.2 0.9 1.5-0.5 1-1.4-0.7-0.4-1.4-0.6-0.6 1.2-1 1.2-0.2 0.3 0.4-0.2 0.3z" id="SC-09" title="Bel Air">
 </path>
 <path d="M914.3 42.2l-1.4 0.5 0.2 0.7-1.1 0.5-2.8-1.4 0.8-0.8 0.6-0.2 1.2-0.1 0.8-0.3 0.2 0.3 0.9-0.3 0.6 1.1z" id="SC-10" title="Bel Ombre">
 </path>
 <path d="M922.4 46.4l-0.7 1.1-0.3 0.3-0.3-0.1-0.5-0.2-1.3-1.5 0.7-0.4 0.2-0.7 2.2 1.5z" id="SC-11" title="Cascade">
 </path>
 <path d="M917.5 36.9l-0.5 0.5-1.2-0.2-0.6 1.3-0.8 0 0.1-0.8 0-1.6 0.7-0.2 1.4 0.1 0.9 0.9z" id="SC-12" title="Glacis">
 </path>
 <path d="M918.8 46.3l0.5-0.3 1.3 1.5-0.4 1.1-1.1 0.8-0.2 1-1-0.1-1-1.5-0.9-1.3 0.1-0.4-0.4-0.1 0.1-0.6 0.8-0.1 0.4-0.8 2 1.5-0.2-0.7z" id="SC-13" title="Grand'Anse">
 </path>
 <path d="M936 15.3l-0.3 0-0.4-0.4 0.3-0.3 0.2 0.2 0.2 0.5z m1.4-2l-0.5 0.1 0-0.4 0.3-0.2 0.3 0.1-0.1 0.4z m10.2 1.7l-0.9 0.8-1.2-0.1-1.4-0.6-1-0.9-0.5-1.3-1.4-0.2-1.2-0.1-0.7-0.8-0.1-0.7-0.6-1.5 0.5-0.2 5.8 3.5 0.6 0.9 2.1 1.2z m-9.2-13.8l-0.3 0.3-0.8-0.1-0.5-0.1 0.1-0.3 0.6 0 0.9 0.2z" id="SC-14" title="Grand'Anse Praslin">
 </path>
 <path d="M965.6 38.9l-0.5 0.2-0.6-0.1-0.6-0.6 0-0.4 0.3-0.2 0.4-0.1 0.4 0.1 0.5 0.6 0.1 0.5z m-68.3-9.1l-1.8 0.4-1.4-1.6-0.6-2.4 0.4-1.8 1.6 0.5 1.8 1.3 0.9 1.7-0.9 1.9z m57.8-12.5l-0.3 0.9-0.7-0.2-0.8-0.9-0.3-1.2 0.6-1.2 0.3-1 1.2 0.5 0.7 1.3 0.6 0.9-0.7 0.3-0.6 0.6z m7.9-3.1l-0.1 0.7-0.4-0.2-0.1-0.7 0.2-0.7 0.5 0.3-0.1 0.6z m-3.9-0.6l-0.6 0.2-0.5-0.6-0.6-0.9 0.1-0.6 0.5 0.1 1 1 0.1 0.8z m-1-4l-0.4 0-0.4-0.8 0-0.5 0.3 0 0.2 0.6 0.3 0.7z" id="SC-15" title="La Digue and Inner Islands">
 </path>
 <path d="M917.1 39.6l0 0.8-0.1 1.2-1.2 0.2 0.2-0.7-0.8-0.9 1.3-0.7 0.6 0.1z" id="SC-16" title="English River">
 </path>
 <path d="M915.8 41.8l-0.8-0.5-0.3-0.7 0.5-0.4 0.8 0.9-0.2 0.7z" id="SC-17" title="Mont Buxton">
 </path>
 <path d="M920.8 42.6l0.2 0.2 0.4-0.1 0.3 0.7-0.1 0.3-0.3 0.1-0.4-0.2-0.3-0.3-0.4-0.1 0-0.4 0.2-0.2 0.4 0z m-3.3 1.9l-0.9-1.5 0.5-0.2 0-0.5 0.4 0 0.7 1-0.4 0.6-0.3 0.6z m4.8-2l-0.2 0.2-0.6-0.3-0.1-0.3 0.2-0.2 0.2 0.3 0.4 0 0.1 0.3z m-0.9-2.9l0.9 0.1 0.2 0.1-0.2 0.4-0.3 0.5-0.7 0.2-0.4 0.3-0.2-0.2 0.1-0.6-0.1-0.3 0.3-0.4 0.4-0.1z" id="SC-18" title="Mont Fleuri">
 </path>
 <path d="M918.6 43.8l0 0.7 0 0.5-0.1 0.3 0.3 1 0.2 0.7-2-1.5 0.5-1 0.3-0.6 0.4-0.6 0.4 0.5z" id="SC-19" title="Plaisance">
 </path>
 <path d="M923.9 47.8l-2.2-0.3 0.7-1.1 0.3 0.1 1.2 1.3z" id="SC-20" title="Pointe La Rue">
 </path>
 <path d="M911.7 47.7l-0.2 0.1-0.6-0.7 0-0.5 0.4 0.1 0.3 0.2 0.2 0.3-0.1 0.5z m-3.2-1.3l-0.8-0.1-0.5-0.4 0.2-0.2 0.4 0.1 0.7 0.6z m8.5-0.9l-0.4 0.8-0.8 0.1-0.1 0.6 0.4 0.1-0.1 0.4-1.4-0.1-2.6-1.6-0.7 0-0.7-0.3 0-0.4 0.5-0.1-0.2-0.3-0.8-0.2-1 0.2-0.8-0.3-0.6-0.4 0.2-0.3 0.8 0.1 0.2-0.3-0.3-0.5 0.6-0.5 2.8 1.4 1.1-0.5-0.2-0.7 1.4-0.5 0.3 0.6 0.6 0.6 0.4 1.4 1.4 0.7z" id="SC-21" title="Port Glaud">
 </path>
 <path d="M915.8 41.8l-1.2 1-0.3-0.6 0.7-0.9 0.8 0.5z" id="SC-22" title="Saint Louis">
 </path>
 <path d="M920.4 57.3l1.6 0.1 0-0.6 1.6-0.1 0.1 1.4 0.8 0.5 0.3 1.4-1.8 0-1.5-0.7-1.1-2z" id="SC-23" title="Takamaka">
 </path>
 <path d="M920 45.6l-0.7 0.4-0.5 0.3-0.3-1 0.1-0.3 0-0.5 1.4 1.1z" id="SC-24" title="Les Mamelles">
 </path>
 <path d="M920.2 44.9l-0.2 0.7-1.4-1.1 0-0.7 1.6 1.1z" id="SC-25" title="Roche Caïman">
 </path>
 <circle cx="916.1" cy="41.4" id="0">
 </circle>
 <circle cx="919.4" cy="51.4" id="1">
 </circle>
 <circle cx="912.8" cy="41.4" id="2">
 </circle>
</svg>