<svg xmlns="http://www.w3.org/2000/svg" version="1.1" xmlns:xlink="http://www.w3.org/1999/xlink" xmlns:svgjs="http://svgjs.com/svgjs" width="512" height="512" x="0" y="0" viewBox="0 0 512 512" style="enable-background:new 0 0 512 512" xml:space="preserve" class=""><g>
<g>
	<g>
		<g>
			<g>
				<path style="" d="M425.309,67.063l75.267,138.218c1.547,2.841,2.444,5.876,2.708,8.901      c0.817,8.886-3.593,17.802-11.918,22.335l-72.149,39.289c-11.166,6.081-25.156,1.956-31.237-9.211l-75.267-138.218      c-6.081-11.167-1.956-25.156,9.211-31.237l72.149-39.289C405.239,51.772,419.228,55.896,425.309,67.063z" fill="#ff8ede" data-original="#ff8ede" class=""></path>
				<path style="" d="M312.712,128.378l75.267,138.218c6.081,11.167,1.956,25.156-9.211,31.237L159.903,417.017      c-11.167,6.081-25.156,1.956-31.237-9.211L53.399,269.588c-6.081-11.166-1.955-25.156,9.211-31.237l218.866-119.184      C292.642,113.086,306.632,117.211,312.712,128.378z" fill="#ff8ede" data-original="#ff8ede" class=""></path>
			</g>
			<g>
				<g>
					<path style="" d="M371.069,166.69c-4.461,0.354-6.837-2.211-6.378-5.215c1.351-8.828,17.812-14.153,18.892-5.818       C384.108,159.709,378.181,166.125,371.069,166.69z" fill="#fc09b2" data-original="#fc09b2" class=""></path>
				</g>
				<g>
					<path style="" d="M425.829,136.871c2.718-3.555,1.852-6.943-0.921-8.187c-8.149-3.655-21.552,7.284-15.137,12.713       C412.89,144.036,421.495,142.538,425.829,136.871z" fill="#fc09b2" data-original="#fc09b2" class=""></path>
				</g>
				<path style="" d="M425.309,67.063l5.426,9.963L58.824,279.551l-5.426-9.963      c-6.081-11.166-1.955-25.156,9.211-31.237l218.866-119.184c11.166-6.081,25.156-1.956,31.237,9.211      c-6.081-11.167-1.956-25.156,9.211-31.237l72.149-39.289C405.239,51.772,419.228,55.896,425.309,67.063z" fill="#fc09b2" data-original="#fc09b2" class=""></path>
			</g>
			<g>
				
					<ellipse transform="matrix(0.8546 -0.5193 0.5193 0.8546 -131.5086 141.6151)" style="" cx="187.113" cy="305.629" rx="71.729" ry="71.729" fill="#6280ff" data-original="#6280ff" class=""></ellipse>
				<path style="" d="M99.84,229.453l3.64,2.564c0.162,0.115,0.371,0.142,0.557,0.073l4.175-1.545      c0.469-0.174,0.934,0.266,0.786,0.744l-1.314,4.254c-0.059,0.19-0.02,0.396,0.103,0.552l2.759,3.494      c0.31,0.393,0.035,0.97-0.465,0.978l-4.451,0.065c-0.199,0.003-0.383,0.103-0.493,0.269l-2.47,3.704      c-0.277,0.416-0.912,0.334-1.073-0.14l-1.437-4.213c-0.064-0.188-0.217-0.332-0.408-0.386l-4.286-1.205      c-0.482-0.135-0.599-0.764-0.198-1.064l3.563-2.669c0.159-0.119,0.249-0.309,0.241-0.507l-0.179-4.448      C98.87,229.47,99.431,229.165,99.84,229.453z" fill="#6280ff" data-original="#6280ff" class=""></path>
				<path style="" d="M151.477,201.334l3.64,2.564c0.162,0.114,0.371,0.142,0.557,0.073l4.175-1.545      c0.469-0.174,0.934,0.266,0.786,0.744l-1.314,4.254c-0.059,0.19-0.02,0.396,0.103,0.552l2.759,3.494      c0.31,0.393,0.035,0.97-0.465,0.978l-4.452,0.065c-0.199,0.003-0.383,0.103-0.493,0.269l-2.47,3.704      c-0.277,0.416-0.912,0.334-1.073-0.14l-1.437-4.213c-0.064-0.188-0.217-0.332-0.408-0.386l-4.286-1.204      c-0.482-0.135-0.599-0.764-0.198-1.064l3.563-2.669c0.159-0.119,0.249-0.309,0.241-0.507l-0.179-4.448      C150.507,201.351,151.068,201.045,151.477,201.334z" fill="#6280ff" data-original="#6280ff" class=""></path>
				<path style="" d="M203.114,173.214l3.64,2.564c0.162,0.114,0.371,0.141,0.557,0.073l4.175-1.545      c0.469-0.174,0.934,0.266,0.786,0.744l-1.314,4.254c-0.059,0.19-0.02,0.396,0.103,0.552l2.759,3.494      c0.31,0.392,0.035,0.97-0.465,0.978l-4.451,0.065c-0.199,0.003-0.383,0.103-0.493,0.268l-2.47,3.704      c-0.278,0.416-0.912,0.333-1.073-0.14l-1.437-4.214c-0.064-0.188-0.217-0.332-0.408-0.386l-4.286-1.205      c-0.482-0.135-0.599-0.764-0.198-1.064l3.563-2.669c0.159-0.119,0.249-0.309,0.241-0.507l-0.179-4.449      C202.144,173.232,202.705,172.926,203.114,173.214z" fill="#6280ff" data-original="#6280ff" class=""></path>
				<path style="" d="M254.751,145.096l3.64,2.564c0.162,0.114,0.371,0.141,0.557,0.072l4.175-1.545      c0.469-0.174,0.934,0.266,0.786,0.744l-1.314,4.254c-0.059,0.19-0.02,0.396,0.103,0.552l2.759,3.494      c0.31,0.393,0.035,0.97-0.465,0.978l-4.451,0.065c-0.199,0.003-0.383,0.103-0.493,0.269l-2.47,3.704      c-0.277,0.416-0.912,0.334-1.073-0.14l-1.437-4.214c-0.064-0.188-0.217-0.332-0.408-0.386l-4.286-1.205      c-0.482-0.135-0.599-0.764-0.198-1.064l3.563-2.669c0.159-0.119,0.249-0.309,0.241-0.507l-0.179-4.448      C253.781,145.113,254.342,144.808,254.751,145.096z" fill="#6280ff" data-original="#6280ff" class=""></path>
				<path style="" d="M363.251,86.012l3.64,2.564c0.162,0.114,0.371,0.141,0.557,0.073l4.175-1.545      c0.469-0.174,0.934,0.266,0.786,0.744l-1.314,4.254c-0.059,0.19-0.02,0.396,0.103,0.552l2.759,3.494      c0.31,0.393,0.035,0.97-0.465,0.978l-4.451,0.065c-0.199,0.003-0.383,0.103-0.493,0.268l-2.47,3.704      c-0.277,0.416-0.912,0.333-1.073-0.14l-1.437-4.213c-0.064-0.188-0.217-0.332-0.408-0.386l-4.286-1.205      c-0.482-0.135-0.599-0.764-0.199-1.064l3.563-2.669c0.159-0.119,0.249-0.309,0.241-0.507l-0.179-4.449      C362.28,86.03,362.842,85.724,363.251,86.012z" fill="#6280ff" data-original="#6280ff" class=""></path>
			</g>
			<g>
				<path style="" d="M207.919,301.091c-0.42-2.024-2.138-2.299-3.133-1.175c-1.589,1.794-1.713,5.446-4.519,5.979      c-2.894,0.55-4.889-2.627-7.387-3.338c-0.028-0.008-0.069-0.068-0.064-0.077c0.622-0.933,5.683,1.162,8.132,0.487      c1.512-0.416,2.411-1.785,2.604-2.893c0.32-1.842,1.772-4.207,1.638-5.889c-0.219-2.753-2.894-1.944-4.346-0.624      c-0.931,0.846-1.216,1.802-2.616,1.966c-1.291,0.151-2.685-0.488-2.552-1.976c0.29-3.263,9.834-5.434,12.507-5.634      c2.498-0.187,4.789,1.439,7.328,0.82c1.247-0.304,2.283-1.694,1.541-3.079c-1.011-1.886-3.194-1.215-2.495-4.472      c0.2-0.936,0.051-1.813-0.436-2.633c-0.36-0.606-0.294-0.623,0.263-0.94c0.75-0.427,0.966-0.841,1.786-1.204      c0.715-0.316,1.215,0.088,1.62,0.254c3.466,1.425,2.793-1.172,6.102-1.875c1.734-0.37,2.682-1.155,2.788-2.939      c0.16-2.697-4.176-2.688-5.06-3.059c-0.454-0.191-0.724-0.791-0.328-1.087c1.171-0.873,2.369-1.302,2.745-3.159      c0.49-2.424-0.621-4.211-2.828-5.068c-2.378-0.924-3.89-0.642-5.249-2.838c-0.275-0.444-0.544-1.48-0.063-1.528      c1.221-0.122,3.594,0.903,5.104-0.19c0.92-0.666,0.493-2.047-0.313-2.634c-1.495-1.09-1.989-1.159-2.281-2.124      c-0.452-1.493,0.066-1.731,0.292-3.343c0.447-3.182-0.982-6.393-4.167-6.702c-1.175-0.114-1.462,0.084-2.377,0.175      c-0.621,0.062-1.515-0.876-1.495-2.424c-7.877-2.744-16.049-4.042-24.158-3.965c0.134,0.161,0.273,0.319,0.387,0.494      c0.188,0.287-0.02,0.739-0.365,0.806c-1.061,0.207-2.008-0.714-3.249,0.988c-1.662,2.275-0.844,4.124-1.49,4.917      c-0.579,0.711-1.02,0.021-1.224-0.874c-0.479-2.101,0.548-4.923-1.479-5.883c-0.665,0.075-1.326,0.176-1.988,0.27      c-1.415,0.954-1.009,2.088-1.106,2.609c-0.11,0.576-1.481-1.857-3.085-0.52c-0.997,0.831-1.148,2.358,0.056,3.629      c1.112,1.174,1.114,1.047-0.22,2.947c-0.872,1.255-1.53,2.269-1.685,4.4c-0.137,1.89,0.553,2.741,1.705,3.759      c0.303,0.268-0.035,0.559-0.379,1.574c-0.667,1.974,0.833,2.036,2.105,2.385c0.361,0.099,0.121,0.605-0.261,0.732      c-0.651,0.218-2.055,0.199-2.329,1.481c-0.218,1.015,0.648,1.506,1.018,1.89c2.13,2.21,2.765,1.291,4.658,3.58      c0.227,0.274,0.582,0.991,0.578,1.453c-0.007,0.796-1.091,0.96-2.135-0.385c-1.407-1.811-3.648-5.157-6.107-5.279      c-1.078-0.052-1.462,1.023-1.152,2.094c0.376,1.302,1.017,1.915,2.022,2.976c1.439,1.521,2.201,1.113,3.097,1.497      c0.119,0.051,0.231,0.335,0.046,0.463c-0.695,0.481-1.006,0.17-3.501,0.921c-1.668,0.502-1.623,1.897-0.11,2.241      c0.801,0.183,1.343,0.101,1.346,0.595c0.005,0.822-0.189,2.073-0.998,2.214c-0.997,0.174-1.062,0.241-1.124,1.6      c-0.18,4.01-2.023,6.686-1.583,8.794c0.257,1.235,0.493,1.741-0.013,2.409c-1.353,1.788-3.848,1.334-2.339-0.625      c0.468-0.608,0.737-1.326,1.125-1.978c0.948-1.591-0.717-2.945-2.115-2.037c-0.875,0.568-1.058,0.914-1.765,1.904      c-0.48,0.671-1.196,0.804-2.657,1.142c-3.906,0.902-4.945,5.325-4.077,9.028c0.845,3.6,4.044,4.794,3.659,6.475      c-0.291,1.27-0.557,1.978,0.041,3.096c0.603,1.128,1.844,1.635,3.317,0.808c0.781-0.438,0.701-1.007,0.842-2.225      c0.039-0.336,0.454-0.077,1.207,0.208c3.135,1.187,3.732-3.088,0.395-4.486c-0.384-0.161-0.856-0.257-0.938-0.732      c-0.237-1.346-0.049-1.613-0.541-2.289c-1.019-1.4-2.121-1.341-1.977-2.478c0.285-2.247,1.147-2.005,1.208-1.735      c0.4,1.768,1.198,4.759,3.664,4.24c1.215-0.256,2.002-1.796,2.921-2.585c0.075-0.064,0.262,0.011,0.189,0.163      c-1.607,3.358-0.774,4.41,0.979,6.199c1.217,1.245-1.591,2.868-2.439,5.937c-0.261,0.942-0.683,1.488-1.274,2.265      c-0.837,1.106-0.727,2.794-0.199,4.031c0.809,1.895,2.114,1.059,1.193,2.72c-0.591,1.066-0.881,1.841-0.254,2.884      c0.432,0.717,0.959,0.702,2.108,0.9c0.59,0.102,0.436,0.494,0.063,1.294c-1.604,3.443,2.035,5.368,3.863,2.93      c0.624-0.831,1.055-2.127,0.733-3.337c-0.386-1.45-0.983-1.687-1.113-3.089c-0.078-0.838,0.119-1.65,0.935-1.84      c3.408-0.795,0.848-2.731,1.168-3.319c0.086-0.159,1.381,0.86,2.929,0.738c1.253-0.098,1.173-1.515,0.35-1.812      c-0.565-0.204-0.918-0.66-1.317-1.059c-0.514-0.514-0.406-1.299,0.004-1.15c1.17,0.422,2.711,1.717,4.466,1.457      c0.576-0.086,1.18-0.89,0.778-1.592c-0.201-0.35-0.661-0.908-0.993-1.521c-0.159-0.293,0.078-0.656,0.402-0.645      c0.693,0.023,1.104,0.419,1.935,0.63c3.173,0.807,3.745-5.583,5.51-2.682c0.275,0.451,0.299,0.926,0.106,1.42      c-1.13,2.894-2.333,2.659-3.854,4.184c-1.073,1.075-0.492,3.656-1.467,4.575c-1.493,1.407-2.814,0.884-3.932,0.745      c-3.584-0.447-6.05,6.443-4.476,9.046c0.79,1.307,1.278,1.967,0.988,2.922c-0.3,0.991-0.949,1.933-0.359,3.521      c1.553,4.194,8.708,9.595,13.942,2.285c1.109-1.549,2.282-4.241,2.688-5.007c0.424-0.798,0.735-0.537,1.532,0.074      c2.478,1.899,4.578-0.175,6.656,1.988c1.423,1.48,2.085,3.121,4.879,3.376c6.201,0.568,6.571,1.19,8.929,0.655      c3.165-0.717,5.218-5.419,1.889-8.95c-1.097-1.164,1.732-3.53-1.761-4.5c-0.742-0.207-1.695-0.148-1.671-1.169      c0.035-1.48,1.937-2.616,0.125-4.117c-2.119-1.756-3.797-0.324-4.992-2.333C207.665,306.754,208.546,304.107,207.919,301.091z" fill="#91d728" data-original="#91d728" class=""></path>
				<path style="" d="M169.486,357.281c3.104-0.764,2.272-4.085,3.611-1.429c0.652,1.292,1.724,2.201,2.836,3.062      c0.324,0.251,0.736,0.388,1.102,0.588c2.026,1.103,4.444,1.224,6.527,0.67c0.697-0.185,1.192,0.149,1.718,0.648      c6.64,6.308,8.793,1.552,13.25,7.82c1.115,1.567,2.972,3.753,4.838,4.34c1.249,0.393,2.465-0.552,2.67-1.513      c0.283-1.333-0.161-1.661-0.594-3.309c-1.128-4.296-4.734-5.346-4.76-10.619c-0.006-1.143-0.161-2.267-0.518-3.363      c-1.131-3.477-1.007-4.665-3.021-6.908c-2.722-3.032-4.212-3.163-4.462-5.534c-0.135-1.278-0.137-2.497-0.376-3.389      c-0.466-1.737-3.416-1.992-5.084-1.192c-3.976,1.905-3.359,2.389-5.964,3.95c-5.698,3.417-2.358,2.419-8.575,4.829      c-1.023,0.396-1.889,0.986-2.338,2.037c-1.376,3.219-0.398,4.58-2.726,4.622c-1.656,0.03-2.363,0.789-3.181,1.339      c-0.235,0.158-0.458,0.004-1.639-1.248c-0.962-1.021-2.804-0.703-3.164,0.423c-0.098,0.305-0.373,1.071-0.618,1.465      c-0.329,0.53-1.214,0.576-1.602,0.182c-2.809-2.859-0.095-6.327,1.564-10.008c2.257-5.008-4.101-7.155-3.122-10.631      c0.203-0.721,3.112-6.495-0.524-7.061c-2.412-0.374-1.541,1.259-4.708-0.723c-4.975-3.117-11.988,3.482-8.755,7.05      c0.866,0.955,1.006,0.973,2.568,2.058c-0.001,0.002-0.003,0.004-0.005,0.006c1.395,0.969,2.361,1.549,2.214,1.839      c-0.252,0.493-2.478-1.476-5.003,0.009c-0.526,0.309-1.021,0.664-1.394,1.158c-1.139,1.508-2.5,1.533-3.307,0.785      c-4.071-3.771-1.604-5.952-3.893-8.096c-0.57-0.094-1.245-0.333-1.698-0.714c-3.694-0.274-6.033,5.729-6.797,9.246      c-0.053,0.242-0.12,0.481-0.189,0.719c5.399,9.766,13.156,18.407,23.085,24.996c1.596,0.207,1.108,0.625,5.302,1.461      c2.276,0.454,3.596-1.568,1.333-3.137c-0.517-0.359,0.867-0.105,1.882-0.108c4.788-0.014,5.636-6.399,10.335-6.25      C168.274,357.413,168.82,357.445,169.486,357.281z" fill="#91d728" data-original="#91d728" class=""></path>
				<path style="" d="M115.404,304.437c1.994,1.394,1.253,1.583,1.529,4.357c0.186,1.859,1.85,3.47,3.683,3.318      c3.746-0.309,3.06-3.345,6.514-3.399c0.861-0.013,1.646,0.211,2.344,0.736c0.516,0.388,1.039,0.759,1.485,1.235      c2.141,2.285,3.508,1.211,5.675,1.131c2.74-0.104,2.101,4.113,7.422,5.409c4.978,1.213,7.072-1.666,5.708-3.698      c-1.278-1.905-0.946-1.141-2.519-3.512c-2.268-3.422,2.678-7.264-1.53-13.684c-1.846-2.816-2.957-3.094-5.751-5.436      c-3.229-2.706-0.557-5.102-5.756-9.615c-1.721-1.492-4.038-2.338-5.575-0.679c-0.292,0.316-0.349,0.575-1.056,1.18      c-1.111,0.95-3.02-1.975-5.322-2.998c-0.475-0.211-0.964-0.356-1.461-0.468C117.306,286.759,115.542,295.618,115.404,304.437z" fill="#91d728" data-original="#91d728" class=""></path>
				<path style="" d="M236.88,293.109c0.508,1.7,1.274,1.848,0.831,2.099c-1.06,0.602-2.517-0.532-4.019-0.174      c-1.412,0.336-2.35,1.578-1.736,3.571c0.215,0.698,0.634,1.468-0.03,2.383c-0.856,1.179-1.096,4.658-1.026,6.111      c0.229,4.794,6.277,7.408,9.016,3.028c0.834-1.333,0.895-2.425,1.481-4.406c0.307-1.037,1.602-2.404,2.538-1.925      c3.535,1.809,8.35-0.658,9.255-5.447C254.903,289.28,234.633,285.599,236.88,293.109z" fill="#91d728" data-original="#91d728" class=""></path>
				<path style="" d="M135.633,323.54c-2.774-1.799-6.703-2.609-9.668-0.743c-1.134,0.713-1.819,1.578-3.05,1.083      c-0.281-0.113-0.564-0.227-0.855-0.31c-2.675-0.761-3.314,2.459-2.34,4.69c0.734,1.679,3.083,1.965,4.642,0.988      c1.194-0.749,2.369-2.63,3.989-1.605c2.09,1.322,2.338,2.813,4.199,3.378C136.346,332.174,139.873,326.289,135.633,323.54z" fill="#91d728" data-original="#91d728" class=""></path>
				<path style="" d="M139.731,284.455c1.184,0.663,4.003,1.393,5.118,0.598c1.107-0.79,0.663-2.277-0.168-3.318      c-0.509-0.637-0.86-0.892-0.649-1.338c0.28-0.591,0.512-1.141,0.168-1.726c-0.846-1.438-1.756-0.475-1.502-1.957      c0.375-2.159-0.92-3.815-2.718-2.708c-1.193,0.734-0.715,1.89-0.642,2.294c0.055,0.3-0.351,0.283-0.919,0.513      c-0.395,0.16-0.703,0.438-0.935,0.735C136.093,279.899,137.517,283.739,139.731,284.455z" fill="#91d728" data-original="#91d728" class=""></path>
				<path style="" d="M238.368,261.564c-0.99,0.705-1.756,1.594-1.606,2.804c0.136,1.091,0.867,2.151,2.177,1.916      c1.112-0.199,1.35-0.809,2.497-0.627c1.54,0.242,2.788-0.696,3.176-1.818c0.09-0.26,0.164-0.525,0.237-0.791      c-0.877-1.189-1.795-2.353-2.751-3.493C240.875,260.715,239.749,260.581,238.368,261.564z" fill="#91d728" data-original="#91d728" class=""></path>
				<path style="" d="M162.328,257.197c-0.162,1.503,0.531,1.859-0.072,2.522c-0.203,0.223-0.462,0.416-0.602,0.674      c-0.814,1.498-1.06,3.075-0.483,4.712c1.087,3.081,3.774,6.631,5.438,6.077c1.105-0.368,0.953-1.849,0.4-2.867      c-1.924-3.537-2.353-2.913-2.028-6.621c0.198-2.246,0.582-4.356-1.564-5.159C162.966,256.366,162.395,256.578,162.328,257.197z" fill="#91d728" data-original="#91d728" class=""></path>
				<path style="" d="M161.96,249.893c0.26-0.262,0.532-0.735,0.779-0.459c1.109,1.237,3.742,0.678,4.161-1.42      c0.302-1.513-0.721-3.142-1.53-3.658c-1.207-0.93-2.101-0.344-2.871,0.064c-0.482,0.255-0.652,0.041-1.88-0.557      c-1.342-0.653-3.136-0.362-3.318,1.101c-0.209,1.681,1.775,1.653,1.58,3.201C158.588,250.481,160.753,251.108,161.96,249.893z" fill="#91d728" data-original="#91d728" class=""></path>
				<path style="" d="M226.381,283.782c-0.467,0.217-0.753,0.012-1.439-0.128c-1.89-0.382-4.042,1.155-4.602,2.634      c-0.42,1.108,1.081,1.852,2.856,0.907c0.94-0.5,2.051,0.384,2.978,0.738c2.7,1.031,5.08-1.461,3.849-3.624      C229.013,282.533,227.528,283.248,226.381,283.782z" fill="#91d728" data-original="#91d728" class=""></path>
				<path style="" d="M217.264,308.208c4.112,2.113,1.463-6.51-2.739-7.299c-1.241-0.234-1.551,0.957-0.907,1.748      c0.426,0.523,0.158,0.908,0.028,1.619c-0.146,0.797,0.417,1.604,1.113,1.735c0.527,0.1,0.923,0.183,1.086,0.513      C216.095,307.033,216.177,307.649,217.264,308.208z" fill="#91d728" data-original="#91d728" class=""></path>
				<path style="" d="M229.659,277.931c0.093,0.165,0.211,0.316,0.313,0.475c0.539,0.84-0.334,1.076-0.427,2.473      c-0.08,1.18,0.884,2.199,2.246,1.752c2.219-0.728,3.383-4.054,0.513-6.597C230.699,274.613,228.759,276.332,229.659,277.931z" fill="#91d728" data-original="#91d728" class=""></path>
			</g>
			<g>
				<g>
					<path style="" d="M373.368,178.918l61.486-33.482c1.716-0.934,3.864-0.301,4.798,1.415l0,0       c0.934,1.715,0.301,3.863-1.415,4.797l-61.486,33.482c-1.716,0.934-3.864,0.301-4.798-1.415l0,0       C371.019,182,371.652,179.852,373.368,178.918z" fill="#ffffff" data-original="#ffffff" class=""></path>
					<path style="" d="M376.972,189.235l64.592-35.173c0.858-0.467,1.932-0.15,2.399,0.707l0,0       c0.467,0.858,0.15,1.932-0.707,2.399l-64.592,35.174c-0.858,0.467-1.932,0.15-2.399-0.707l0,0       C375.798,190.777,376.115,189.702,376.972,189.235z" fill="#ffffff" data-original="#ffffff" class=""></path>
					<path style="" d="M380.734,195.44l64.002-34.852c1.021-0.556,2.299-0.179,2.855,0.842l0,0       c0.556,1.021,0.179,2.299-0.842,2.855l-64.002,34.852c-1.021,0.556-2.299,0.179-2.855-0.842l0,0       C379.336,197.274,379.713,195.996,380.734,195.44z" fill="#ffffff" data-original="#ffffff" class=""></path>
					<path style="" d="M385.779,201.711l61.486-33.482c1.715-0.934,3.863-0.301,4.798,1.414l0,0       c0.934,1.716,0.301,3.864-1.415,4.798l-61.486,33.482c-1.715,0.934-3.863,0.301-4.797-1.415l0,0       C383.431,204.793,384.064,202.645,385.779,201.711z" fill="#ffffff" data-original="#ffffff" class=""></path>
					<path style="" d="M389.718,211.846l63.924-34.81c1.042-0.567,2.347-0.183,2.915,0.86l0,0       c0.567,1.042,0.183,2.347-0.86,2.914l-63.924,34.81c-1.042,0.567-2.347,0.183-2.915-0.86l0,0       C388.291,213.719,388.676,212.414,389.718,211.846z" fill="#ffffff" data-original="#ffffff" class=""></path>
					<path style="" d="M394.395,218.418l62.23-33.888c1.51-0.822,3.4-0.265,4.223,1.245v0       c0.822,1.51,0.265,3.4-1.245,4.222l-62.23,33.888c-1.51,0.822-3.4,0.265-4.222-1.245l0,0       C392.328,221.131,392.885,219.241,394.395,218.418z" fill="#ffffff" data-original="#ffffff" class=""></path>
					<path style="" d="M397.966,227.788l64.592-35.174c0.858-0.467,1.932-0.15,2.399,0.707l0.1,0.185       c0.467,0.858,0.15,1.932-0.707,2.399l-64.592,35.174c-0.858,0.467-1.932,0.15-2.399-0.707l-0.101-0.185       C396.792,229.329,397.109,228.255,397.966,227.788z" fill="#ffffff" data-original="#ffffff" class=""></path>
					<path style="" d="M403.086,233.493l61.486-33.482c1.715-0.934,3.863-0.301,4.797,1.415l0,0       c0.934,1.716,0.301,3.864-1.414,4.798l-61.486,33.482c-1.715,0.934-3.863,0.301-4.797-1.415l0,0       C400.738,236.575,401.371,234.427,403.086,233.493z" fill="#ffffff" data-original="#ffffff" class=""></path>
					<path style="" d="M406.691,243.81l64.592-35.174c0.858-0.467,1.932-0.15,2.399,0.707l0,0       c0.467,0.858,0.15,1.932-0.707,2.399l-64.592,35.174c-0.858,0.467-1.932,0.15-2.399-0.707l0,0       C405.517,245.351,405.833,244.277,406.691,243.81z" fill="#ffffff" data-original="#ffffff" class=""></path>
					<path style="" d="M410.672,249.895l63.562-34.613c1.142-0.622,2.572-0.2,3.194,0.942l0,0       c0.622,1.142,0.2,2.572-0.942,3.194l-63.562,34.613c-1.142,0.622-2.572,0.2-3.194-0.942l0,0       C409.109,251.947,409.53,250.517,410.672,249.895z" fill="#ffffff" data-original="#ffffff" class=""></path>
				</g>
				<g>
					<path style="" d="M73.114,241.499l4.753,3.348c0.212,0.149,0.484,0.185,0.727,0.095l5.453-2.018       c0.613-0.227,1.219,0.348,1.027,0.972l-1.716,5.555c-0.077,0.248-0.026,0.517,0.135,0.721l3.604,4.563       c0.405,0.513,0.046,1.267-0.607,1.277l-5.814,0.085c-0.259,0.004-0.5,0.135-0.644,0.351l-3.226,4.837       c-0.362,0.544-1.191,0.436-1.402-0.183l-1.878-5.503c-0.084-0.246-0.283-0.434-0.533-0.504l-5.597-1.573       c-0.629-0.177-0.782-0.998-0.259-1.39l4.653-3.486c0.208-0.156,0.326-0.403,0.315-0.663l-0.234-5.809       C71.846,241.523,72.58,241.123,73.114,241.499z" fill="#ffffff" data-original="#ffffff" class=""></path>
					<path style="" d="M124.751,213.38l4.753,3.348c0.212,0.149,0.484,0.185,0.727,0.095l5.453-2.018       c0.613-0.227,1.219,0.348,1.027,0.972l-1.716,5.556c-0.077,0.248-0.026,0.517,0.135,0.721l3.604,4.563       c0.405,0.513,0.046,1.267-0.607,1.277l-5.814,0.085c-0.259,0.004-0.5,0.135-0.644,0.351l-3.226,4.837       c-0.362,0.544-1.191,0.435-1.402-0.183l-1.878-5.503c-0.084-0.246-0.283-0.434-0.533-0.505l-5.597-1.573       c-0.629-0.177-0.782-0.998-0.259-1.39l4.653-3.486c0.208-0.156,0.326-0.403,0.315-0.662l-0.234-5.81       C123.483,213.403,124.217,213.004,124.751,213.38z" fill="#ffffff" data-original="#ffffff" class=""></path>
					<path style="" d="M176.388,185.261l4.753,3.348c0.212,0.149,0.484,0.185,0.727,0.095l5.453-2.017       c0.613-0.227,1.219,0.347,1.027,0.972l-1.716,5.555c-0.077,0.248-0.026,0.518,0.135,0.721l3.604,4.563       c0.405,0.513,0.046,1.267-0.607,1.276l-5.814,0.085c-0.259,0.004-0.5,0.135-0.644,0.351l-3.226,4.837       c-0.362,0.544-1.191,0.435-1.402-0.183l-1.878-5.503c-0.084-0.246-0.283-0.434-0.533-0.504l-5.597-1.573       c-0.629-0.177-0.782-0.998-0.259-1.39l4.653-3.486c0.208-0.156,0.326-0.403,0.315-0.662l-0.234-5.81       C175.12,185.284,175.854,184.885,176.388,185.261z" fill="#ffffff" data-original="#ffffff" class=""></path>
					<path style="" d="M228.025,157.142l4.753,3.348c0.212,0.149,0.484,0.185,0.727,0.095l5.453-2.018       c0.613-0.227,1.219,0.348,1.027,0.972l-1.716,5.555c-0.077,0.248-0.026,0.517,0.135,0.721l3.604,4.563       c0.405,0.513,0.046,1.267-0.607,1.277l-5.814,0.085c-0.259,0.004-0.5,0.135-0.644,0.351l-3.226,4.837       c-0.362,0.544-1.191,0.436-1.402-0.183l-1.878-5.503c-0.084-0.246-0.283-0.434-0.533-0.504l-5.597-1.573       c-0.629-0.177-0.782-0.998-0.259-1.39l4.653-3.486c0.208-0.156,0.326-0.403,0.315-0.663l-0.234-5.809       C226.757,157.165,227.491,156.766,228.025,157.142z" fill="#ffffff" data-original="#ffffff" class=""></path>
					<path style="" d="M279.662,129.023l4.753,3.348c0.212,0.149,0.484,0.185,0.727,0.095l5.453-2.018       c0.613-0.227,1.219,0.348,1.027,0.972l-1.716,5.555c-0.077,0.248-0.026,0.517,0.135,0.721l3.604,4.563       c0.405,0.513,0.046,1.267-0.607,1.277l-5.814,0.085c-0.259,0.004-0.5,0.135-0.644,0.351l-3.226,4.837       c-0.362,0.544-1.191,0.436-1.402-0.183l-1.878-5.503c-0.084-0.246-0.283-0.434-0.533-0.504l-5.597-1.573       c-0.629-0.177-0.782-0.998-0.259-1.39l4.653-3.486c0.208-0.156,0.326-0.403,0.315-0.663l-0.234-5.809       C278.394,129.046,279.128,128.647,279.662,129.023z" fill="#ffffff" data-original="#ffffff" class=""></path>
					<path style="" d="M336.525,98.058l4.753,3.348c0.212,0.149,0.484,0.185,0.727,0.095l5.453-2.017       c0.613-0.227,1.219,0.347,1.027,0.972l-1.715,5.555c-0.077,0.248-0.026,0.518,0.135,0.721l3.604,4.563       c0.405,0.513,0.046,1.267-0.607,1.276l-5.814,0.085c-0.259,0.004-0.5,0.135-0.644,0.351l-3.226,4.837       c-0.362,0.544-1.191,0.435-1.402-0.183l-1.877-5.503c-0.084-0.246-0.283-0.434-0.533-0.504l-5.597-1.573       c-0.629-0.177-0.782-0.998-0.259-1.39l4.653-3.486c0.208-0.156,0.325-0.403,0.315-0.663l-0.234-5.81       C335.257,98.082,335.991,97.682,336.525,98.058z" fill="#ffffff" data-original="#ffffff" class=""></path>
					<path style="" d="M388.162,69.939l4.753,3.348c0.212,0.149,0.484,0.185,0.727,0.095l5.453-2.018       c0.613-0.227,1.219,0.348,1.027,0.972l-1.715,5.555c-0.077,0.248-0.026,0.517,0.135,0.721l3.604,4.563       c0.405,0.513,0.046,1.267-0.607,1.277l-5.814,0.085c-0.259,0.004-0.5,0.135-0.644,0.351l-3.226,4.837       c-0.362,0.544-1.191,0.435-1.402-0.183l-1.877-5.503c-0.084-0.246-0.283-0.434-0.533-0.504l-5.597-1.573       c-0.629-0.177-0.782-0.998-0.259-1.39l4.653-3.486c0.207-0.156,0.325-0.403,0.315-0.663l-0.234-5.809       C386.894,69.963,387.628,69.563,388.162,69.939z" fill="#ffffff" data-original="#ffffff" class=""></path>
				</g>
				<path style="" d="M301.266,280.214l-12.393-15.369c1.776-3.612,3.352-6.973,4.177-9.098      c2.141-5.519,4.711-13.329,7.309-21.919l40.765,21.362l0.749-6.704l-5.889-5.644c0.423-0.515,0.747-1.123,0.9-1.82l1.372-6.25      c0.494-2.248-0.842-4.493-3.054-5.131c-2.211-0.638-4.538,0.55-5.318,2.714l-1.243,3.449l-7.898-7.57      c0.005-0.02,0.015-0.036,0.019-0.056l1.372-6.25c0.494-2.248-0.842-4.493-3.053-5.131c-2.211-0.638-4.538,0.549-5.318,2.715      l-0.544,1.509L306,214.101c3.131-11.563,5.811-22.589,7.169-29.822c2.292-12.211-6.565-15.38-11.35-3.277      c-2.706,6.844-6.312,17.603-9.825,29.057l-9.795,2.008l0.344-1.567c0.494-2.248-0.842-4.493-3.053-5.131h0      c-2.211-0.638-4.538,0.549-5.318,2.714l-2.169,6.02c-0.007,0.019-0.007,0.038-0.014,0.057l-10.717,2.197l0.786-3.58      c0.493-2.247-0.843-4.493-3.054-5.131c-2.211-0.638-4.538,0.55-5.318,2.715l-2.169,6.02c-0.242,0.672-0.292,1.359-0.209,2.02      l-7.991,1.638l-2.939,6.072l45.878,3.646c-2.379,8.653-4.366,16.631-5.495,22.443c-0.435,2.238-0.891,5.922-1.314,9.924      l-18.676,6.402c-0.822,0.282-1.432,0.981-1.6,1.834c-0.297,1.511,0.865,2.916,2.405,2.907l15.893-0.097      c0.339-0.002,0.661-0.081,0.957-0.21c-0.266,3.096-0.469,5.691-0.577,7.097c-0.051,0.662,0.413,1.277,1.103,1.477      c0.691,0.199,1.412-0.075,1.721-0.662c0.658-1.247,1.868-3.551,3.293-6.313c0.181,0.267,0.412,0.506,0.697,0.688l13.397,8.551      c1.298,0.828,3.03,0.259,3.584-1.178C301.956,281.807,301.812,280.891,301.266,280.214z" fill="#ffffff" data-original="#ffffff" class=""></path>
				<g>
					<path style="" d="M237.679,332.106c-0.942,0.275-1.956-0.203-2.332-1.131c-0.4-0.99,0.079-2.116,1.069-2.515       c3.681-1.486,7.26-3.316,10.634-5.438c0.908-0.566,2.095-0.297,2.664,0.607c0.569,0.903,0.297,2.096-0.607,2.664       c-3.568,2.243-7.352,4.178-11.246,5.75C237.801,332.068,237.74,332.088,237.679,332.106z M223.907,336.05       c-0.069,0.02-0.14,0.037-0.214,0.05c-4.164,0.721-8.409,1.041-12.618,0.952c-1.066-0.022-1.914-0.906-1.891-1.972       c0.022-1.067,0.912-1.917,1.973-1.891c3.962,0.084,7.956-0.218,11.876-0.896c1.051-0.182,2.051,0.523,2.233,1.574       C225.436,334.845,224.838,335.778,223.907,336.05z M259.896,317.668c-0.666,0.195-1.414,0.023-1.932-0.509       c-0.743-0.767-0.723-1.989,0.044-2.732c2.872-2.783,5.49-5.826,7.784-9.047c0.622-0.869,1.827-1.073,2.694-0.454       c0.869,0.619,1.072,1.825,0.454,2.694c-2.428,3.412-5.203,6.636-8.245,9.582C260.463,317.428,260.188,317.583,259.896,317.668z        M197.458,335.095c-0.315,0.092-0.657,0.106-0.998,0.023c-3.996-0.974-8.018-2.327-11.955-4.02       c-0.98-0.422-1.434-1.558-1.012-2.539c0.418-0.978,1.554-1.434,2.537-1.011c3.741,1.609,7.556,2.893,11.344,3.815       c1.037,0.253,1.673,1.298,1.42,2.335C198.625,334.393,198.099,334.908,197.458,335.095z M125.822,345.967       c-0.257,0.075-0.534,0.098-0.817,0.057c-1.055-0.153-1.788-1.132-1.636-2.188c0.168-1.159,0.369-2.314,0.605-3.464       c0.646-3.129,1.572-6.111,2.752-8.861c0.421-0.979,1.553-1.436,2.538-1.014c0.98,0.421,1.434,1.557,1.013,2.537       c-1.078,2.512-1.925,5.243-2.519,8.117c-0.221,1.074-0.408,2.155-0.563,3.237C127.082,345.162,126.526,345.761,125.822,345.967       z M173.137,324.464c-0.491,0.144-1.038,0.093-1.515-0.185c-3.148-1.833-6.884-3.907-10.711-5.38       c-0.997-0.383-1.493-1.502-1.11-2.497c0.384-0.994,1.5-1.493,2.497-1.108c4.082,1.572,7.988,3.736,11.269,5.648       c0.921,0.536,1.234,1.719,0.698,2.641C174.005,324.027,173.595,324.33,173.137,324.464z M137.239,322.488       c-0.697,0.204-1.478,0.006-1.989-0.573c-0.708-0.8-0.634-2.02,0.166-2.728c0.151-0.134,0.305-0.267,0.465-0.398       c3.493-2.945,7.329-4.802,11.348-5.497c1.052-0.181,2.052,0.524,2.232,1.576c0.183,1.05-0.553,2.056-1.574,2.231       c-3.282,0.56-6.534,2.129-9.533,4.658l-0.377,0.323C137.755,322.276,137.503,322.411,137.239,322.488z M125.178,366.084       c-0.159,0.047-0.327,0.073-0.498,0.077c-1.068,0.025-1.952-0.82-1.977-1.887c-0.046-1.938-0.091-3.881-0.107-5.824       c-0.011-1.068,0.855-1.937,1.915-1.949c1.067-0.009,1.938,0.849,1.948,1.915c0.019,1.925,0.062,3.849,0.107,5.769       C126.586,365.078,125.997,365.845,125.178,366.084z M274.926,295.741c-0.409,0.12-0.86,0.105-1.285-0.071       c-0.985-0.412-1.45-1.543-1.038-2.528c0.717-1.721,1.366-3.497,1.922-5.278c0.317-1.019,1.396-1.584,2.42-1.268       c1.017,0.319,1.586,1.403,1.266,2.421c-0.592,1.894-1.278,3.782-2.044,5.614C275.934,295.19,275.467,295.582,274.926,295.741z" fill="#ffffff" data-original="#ffffff" class=""></path>
				</g>
			</g>
			<g>
				<g style="opacity:0.5;">
					<path style="" d="M503.29,214.174c0.811,8.901-3.606,17.821-11.924,22.346l-72.143,39.289       c-11.164,6.082-25.169,1.965-31.238-9.223c6.069,11.188,1.946,25.174-9.218,31.256L159.905,417.025       c-11.151,6.058-25.132,1.954-31.221-9.167c-28.742-52.523-58.411-107.734-63.212-116.031       c19.84-12.202,41.092,14.151,50.985,27.542c0.129,0.164,0.238,0.333,0.367,0.497c3.657,18.152,14.324,34.879,31.046,45.811       c33.164,21.661,77.62,12.347,99.288-20.799c2.184-3.335,4.042-6.757,5.605-10.294l-0.005-0.018       c2.026-1.055,4.084-2.139,6.168-3.273c92.782-50.275,202.273-152.514,243.324-120.678       C503.556,211.64,501.936,213.262,503.29,214.174z" fill="#fc09b2" data-original="#fc09b2" class=""></path>
				</g>
			</g>
			<g>
				<g style="opacity:0.25;">
					<path style="" d="M252.763,334.583c-1.562,3.537-3.42,6.959-5.605,10.294       c-21.668,33.145-66.124,42.46-99.288,20.799c-16.722-10.932-27.389-27.659-31.046-45.811       c5.017,6.765,10.012,12.833,15.216,18.034c0.353,0.379,0.724,0.754,1.108,1.105c0.796,0.793,1.618,1.54,2.44,2.286       c0.307,0.292,0.632,0.58,0.958,0.867c0.379,0.332,0.758,0.664,1.155,0.99c0.379,0.332,0.758,0.665,1.15,0.973       c0.853,0.717,1.733,1.385,2.595,2.059c0.309,0.231,0.613,0.445,0.941,0.672c4.374,3.189,9.002,5.8,13.974,7.728       c0.814,0.306,1.628,0.611,2.474,0.888c2.318,0.771,4.698,1.404,7.192,1.882c0.497,0.116,1.002,0.19,1.493,0.288       c7.053,1.199,14.823,1.201,23.553-0.124c1.118-0.166,2.232-0.351,3.377-0.565c5.749-1.057,11.893-2.692,18.511-4.909       c0.848-0.267,1.69-0.554,2.545-0.865c0.967-0.343,1.952-0.691,2.95-1.063c0.762-0.284,1.544-0.572,2.324-0.861       c1.501-0.579,3.034-1.189,4.598-1.827c0.937-0.375,1.887-0.774,2.837-1.172c0.95-0.399,1.895-0.816,2.858-1.239       c1.826-0.776,3.674-1.618,5.552-2.489c1.12-0.508,2.252-1.041,3.416-1.602c1.027-0.481,2.053-0.963,3.088-1.486       c1.04-0.505,2.098-1.016,3.146-1.564c1.058-0.511,2.13-1.045,3.209-1.623C250.575,335.707,251.66,335.148,252.763,334.583z" fill="#000e3f" data-original="#000e3f" class=""></path>
				</g>
			</g>
		</g>
		<g>
			<path style="" d="M396.716,146.66c-2.536,1.731-5.511,2.219-8.559,1.438c-3.73-0.95-7.192-3.804-9.021-7.413     c-0.488-0.95-0.098-2.146,0.852-2.634c0.293-0.145,0.586-0.219,0.879-0.219c0.219,0,0.414,0.049,0.61,0.098     c0.512,0.171,0.902,0.512,1.145,0.975c1.317,2.61,3.878,4.73,6.51,5.414c1.951,0.512,3.755,0.195,5.365-0.902     c3.951-2.682,3.829-8.169,1.731-11.948c-0.17-0.317-0.244-0.634-0.244-0.951c0-0.707,0.366-1.366,1-1.707     c0.926-0.536,2.122-0.194,2.657,0.757C402.593,134.883,402.568,142.661,396.716,146.66z" fill="#000e3f" data-original="#000e3f" class=""></path>
			<path style="" d="M502.297,204.352L427.024,66.12c-6.583-12.094-21.774-16.58-33.893-9.996L320.98,95.431     c-8.607,4.682-13.704,14.068-12.923,23.919l0.049,0.537l-0.439-0.342c-2.463-1.878-5.194-3.243-8.12-4.121     c-2.341-0.682-4.73-1.024-7.096-1.024c-4.121,0-8.192,1.024-11.923,3.048L61.684,236.636     c-12.118,6.584-16.581,21.799-9.997,33.893l75.272,138.207c4.365,8.046,12.801,13.046,21.97,13.046     c4.145,0,8.266-1.049,11.899-3.048l218.868-119.187c5.876-3.194,10.143-8.462,12.02-14.874c0.854-2.927,1.17-5.974,0.928-9.046     l-0.049-0.537l0.438,0.342c4.365,3.316,9.753,5.144,15.216,5.144c4.121,0,8.241-1.073,11.899-3.048l72.151-39.282     c5.852-3.195,10.119-8.486,11.998-14.898C506.198,216.958,505.466,210.204,502.297,204.352z M387.963,283.574     c-1.586,5.389-5.195,9.851-10.12,12.533L158.975,415.295c-3.145,1.707-6.584,2.585-10.046,2.585c-2,0-4.023-0.293-5.998-0.878     c-5.389-1.586-9.851-5.193-12.557-10.12L55.125,268.651c-5.559-10.192-1.78-23.018,8.412-28.577l218.868-119.188     c4.901-2.658,10.704-3.291,16.044-1.706c5.389,1.585,9.85,5.193,12.533,10.144l75.322,138.255     C388.961,272.504,389.547,278.185,387.963,283.574z M490.422,234.807l-72.151,39.282c-3.169,1.731-6.632,2.561-10.021,2.561     c-7.485,0-14.728-3.975-18.556-10.998l-75.273-138.206c-2.682-4.951-3.292-10.632-1.683-16.045     c1.585-5.389,5.194-9.851,10.12-12.533l72.151-39.307c3.073-1.657,6.559-2.56,10.046-2.56c7.729,0,14.849,4.218,18.532,10.998     l75.271,138.206C504.418,216.422,500.639,229.248,490.422,234.807z" fill="#000e3f" data-original="#000e3f" class=""></path>
			<path style="" d="M411.102,125.934c-1.78,1.243-3.926,1.61-6.096,1.048c-3.048-0.78-5.926-3.218-7.534-6.388     c-0.488-0.951-0.098-2.147,0.854-2.634c0.292-0.147,0.585-0.195,0.877-0.195c0.731,0,1.413,0.391,1.755,1.073     c1.073,2.122,3.073,3.853,4.999,4.341c1.097,0.293,2.072,0.145,2.925-0.464c2.366-1.633,2.147-5.608,0.561-8.509     c-0.17-0.293-0.243-0.61-0.243-0.951c0-0.682,0.366-1.365,1.024-1.706c0.463-0.244,0.999-0.318,1.487-0.147     c0.512,0.147,0.926,0.463,1.17,0.926C415.272,116.669,415.467,122.91,411.102,125.934z" fill="#000e3f" data-original="#000e3f" class=""></path>
			<path style="" d="M370.723,147.708c-1.78,1.219-3.877,1.586-6.096,1.025c-3.048-0.756-5.924-3.195-7.534-6.364     c-0.219-0.488-0.269-1-0.098-1.512c0.146-0.488,0.488-0.902,0.95-1.121c0.293-0.147,0.586-0.22,0.902-0.22     c0.707,0,1.391,0.391,1.731,1.073c1.074,2.122,3.097,3.878,4.999,4.365c1.121,0.269,2.073,0.123,2.925-0.463     c2.391-1.659,2.17-5.633,0.586-8.509c-0.268-0.464-0.317-1-0.171-1.488c0.148-0.512,0.488-0.926,0.928-1.17     c0.463-0.244,0.999-0.317,1.487-0.17c0.512,0.146,0.926,0.488,1.17,0.926C374.892,138.443,375.087,144.685,370.723,147.708z" fill="#000e3f" data-original="#000e3f" class=""></path>
		</g>
		<g>
			<path style="" d="M318.782,149.118c1.212,2.225,3.998,3.047,6.223,1.835c2.225-1.212,3.047-3.998,1.835-6.223     c-1.212-2.225-3.998-3.047-6.223-1.835C318.392,144.107,317.571,146.893,318.782,149.118z" fill="#ffffff" data-original="#ffffff" class=""></path>
			<path style="" d="M327.783,165.647c1.212,2.225,3.998,3.047,6.223,1.835c2.225-1.212,3.047-3.998,1.835-6.223     c-1.212-2.225-3.998-3.047-6.223-1.835C327.393,160.635,326.572,163.422,327.783,165.647z" fill="#ffffff" data-original="#ffffff" class=""></path>
			
				<ellipse transform="matrix(0.2811 -0.9597 0.9597 0.2811 72.2943 456.4675)" style="" cx="340.813" cy="179.981" rx="4.588" ry="4.588" fill="#ffffff" data-original="#ffffff" class=""></ellipse>
			<path style="" d="M345.785,198.704c1.212,2.225,3.998,3.047,6.223,1.835c2.225-1.212,3.047-3.998,1.835-6.223     c-1.212-2.225-3.998-3.047-6.223-1.835C345.395,193.693,344.573,196.479,345.785,198.704z" fill="#ffffff" data-original="#ffffff" class=""></path>
			<path style="" d="M354.786,215.233c1.212,2.225,3.998,3.047,6.223,1.835c2.225-1.212,3.047-3.998,1.835-6.223     c-1.212-2.225-3.998-3.047-6.223-1.835C354.395,210.222,353.574,213.008,354.786,215.233z" fill="#ffffff" data-original="#ffffff" class=""></path>
			<path style="" d="M363.786,231.762c1.212,2.225,3.998,3.047,6.223,1.835c2.225-1.212,3.047-3.998,1.835-6.223     c-1.212-2.225-3.998-3.047-6.223-1.835C363.396,226.75,362.575,229.537,363.786,231.762z" fill="#ffffff" data-original="#ffffff" class=""></path>
			<path style="" d="M372.787,248.291c1.212,2.225,3.998,3.047,6.223,1.835c2.225-1.212,3.047-3.998,1.835-6.223     c-1.212-2.225-3.998-3.047-6.223-1.835C372.397,243.279,371.575,246.065,372.787,248.291z" fill="#ffffff" data-original="#ffffff" class=""></path>
			<circle style="" cx="385.817" cy="262.625" r="4.588" fill="#ffffff" data-original="#ffffff" class=""></circle>
		</g>
	</g>
	<g>
		<g>
			<g>
				<path style="" d="M509.527,332.213l-32.97,153.891c-0.678,3.164-1.975,6.05-3.746,8.516      c-5.17,7.273-14.325,11.163-23.595,9.177l-80.33-17.21c-12.433-2.664-20.357-14.908-17.693-27.341l32.97-153.891      c2.664-12.433,14.908-20.356,27.341-17.693l80.33,17.21C504.267,307.536,512.191,319.78,509.527,332.213z" fill="#ff8ede" data-original="#ff8ede" class=""></path>
				<path style="" d="M384.163,305.355l-32.97,153.891c-2.663,12.433-14.908,20.356-27.341,17.693L80.17,424.732      c-12.433-2.663-20.357-14.908-17.693-27.341L95.446,243.5c2.664-12.433,14.908-20.356,27.341-17.693l243.683,52.207      C378.903,280.678,386.827,292.922,384.163,305.355z" fill="#ff8ede" data-original="#ff8ede" class=""></path>
			</g>
			<g>
				<g>
					<path style="" d="M403.466,372.442c-3.615-2.638-3.746-6.133-1.439-8.112c6.777-5.816,22.733,0.871,18.121,7.897       C417.906,375.643,409.229,376.648,403.466,372.442z" fill="#fc09b2" data-original="#fc09b2" class=""></path>
				</g>
				<g>
					<path style="" d="M464.434,385.504c4.378-0.926,5.929-4.06,4.636-6.81c-3.8-8.082-21.095-8.519-19.766-0.22       C449.951,382.509,457.454,386.98,464.434,385.504z" fill="#fc09b2" data-original="#fc09b2" class=""></path>
				</g>
				<path style="" d="M509.527,332.213l-2.377,11.093L93.069,254.593l2.377-11.093      c2.664-12.433,14.908-20.356,27.341-17.693l243.683,52.207c12.433,2.664,20.357,14.908,17.693,27.341      c2.664-12.433,14.908-20.356,27.341-17.693l80.33,17.21C504.267,307.536,512.191,319.78,509.527,332.213z" fill="#fc09b2" data-original="#fc09b2" class=""></path>
			</g>
			<g>
				
					<ellipse transform="matrix(0.7071 -0.7071 0.7071 0.7071 -202.3367 227.4527)" style="" cx="173.391" cy="357.968" rx="71.729" ry="71.729" fill="#6280ff" data-original="#6280ff" class=""></ellipse>
				<path style="" d="M156.827,243.317l1.09,4.316c0.049,0.193,0.189,0.349,0.375,0.418l4.174,1.549      c0.469,0.174,0.535,0.81,0.111,1.077l-3.768,2.371c-0.168,0.106-0.273,0.287-0.282,0.486l-0.183,4.448      c-0.021,0.5-0.605,0.759-0.99,0.439l-3.419-2.851c-0.153-0.127-0.358-0.171-0.549-0.118l-4.287,1.2      c-0.482,0.135-0.909-0.341-0.723-0.806l1.655-4.133c0.074-0.184,0.052-0.393-0.058-0.559l-2.466-3.707      c-0.277-0.416,0.044-0.97,0.543-0.936l4.442,0.297c0.198,0.013,0.39-0.072,0.514-0.228l2.763-3.491      C156.079,242.698,156.704,242.832,156.827,243.317z" fill="#6280ff" data-original="#6280ff" class=""></path>
				<path style="" d="M214.319,255.634l1.09,4.316c0.049,0.193,0.189,0.349,0.375,0.418l4.174,1.549      c0.469,0.174,0.535,0.81,0.111,1.077l-3.768,2.371c-0.168,0.106-0.273,0.287-0.282,0.486l-0.183,4.448      c-0.021,0.5-0.605,0.759-0.99,0.439l-3.419-2.851c-0.153-0.127-0.358-0.171-0.549-0.118l-4.287,1.2      c-0.482,0.135-0.909-0.341-0.723-0.805l1.655-4.133c0.074-0.184,0.052-0.393-0.058-0.559l-2.466-3.707      c-0.277-0.416,0.044-0.97,0.543-0.936l4.442,0.297c0.198,0.013,0.39-0.072,0.514-0.228l2.763-3.491      C213.571,255.015,214.196,255.149,214.319,255.634z" fill="#6280ff" data-original="#6280ff" class=""></path>
				<path style="" d="M271.811,267.951l1.09,4.316c0.048,0.193,0.189,0.349,0.375,0.418l4.174,1.549      c0.469,0.174,0.535,0.81,0.111,1.077l-3.768,2.371c-0.168,0.106-0.274,0.287-0.282,0.486l-0.183,4.448      c-0.021,0.5-0.605,0.759-0.99,0.439l-3.419-2.851c-0.152-0.127-0.358-0.171-0.549-0.118l-4.287,1.2      c-0.482,0.135-0.909-0.341-0.723-0.805l1.655-4.133c0.074-0.184,0.052-0.393-0.058-0.559l-2.466-3.706      c-0.277-0.416,0.044-0.97,0.543-0.937l4.442,0.297c0.198,0.013,0.39-0.072,0.514-0.228l2.763-3.491      C271.063,267.332,271.689,267.466,271.811,267.951z" fill="#6280ff" data-original="#6280ff" class=""></path>
				<path style="" d="M329.303,280.268l1.09,4.316c0.049,0.192,0.189,0.349,0.375,0.418l4.174,1.549      c0.469,0.174,0.535,0.81,0.111,1.077l-3.768,2.371c-0.168,0.106-0.273,0.287-0.282,0.486l-0.183,4.448      c-0.02,0.5-0.605,0.759-0.989,0.439l-3.419-2.851c-0.153-0.127-0.358-0.171-0.549-0.118l-4.287,1.2      c-0.482,0.135-0.909-0.341-0.723-0.805l1.655-4.133c0.074-0.184,0.052-0.393-0.058-0.559l-2.466-3.706      c-0.277-0.416,0.043-0.97,0.543-0.937l4.442,0.297c0.198,0.013,0.39-0.072,0.514-0.228l2.763-3.491      C328.555,279.649,329.181,279.783,329.303,280.268z" fill="#6280ff" data-original="#6280ff" class=""></path>
				<path style="" d="M450.106,306.149l1.09,4.316c0.049,0.193,0.189,0.349,0.375,0.418l4.174,1.549      c0.469,0.174,0.535,0.81,0.111,1.077l-3.768,2.371c-0.168,0.106-0.273,0.288-0.282,0.486l-0.183,4.448      c-0.021,0.5-0.605,0.759-0.99,0.439l-3.419-2.851c-0.153-0.127-0.358-0.171-0.549-0.118l-4.287,1.2      c-0.482,0.135-0.909-0.341-0.723-0.806l1.655-4.133c0.074-0.185,0.052-0.394-0.058-0.559l-2.466-3.706      c-0.277-0.416,0.043-0.97,0.543-0.937l4.442,0.297c0.198,0.013,0.39-0.072,0.514-0.228l2.763-3.491      C449.358,305.53,449.983,305.664,450.106,306.149z" fill="#6280ff" data-original="#6280ff" class=""></path>
			</g>
			<g>
				<path style="" d="M192.13,368.084c1-1.809-0.123-3.137-1.611-2.933c-2.374,0.326-4.849,3.015-7.324,1.591      c-2.553-1.468-1.996-5.178-3.429-7.346c-0.016-0.024-0.008-0.097,0.002-0.1c1.079-0.303,3.554,4.585,5.851,5.669      c1.418,0.669,2.992,0.217,3.86-0.498c1.443-1.188,4.085-2.037,5.08-3.4c1.628-2.231-0.928-3.36-2.89-3.305      c-1.258,0.035-2.097,0.575-3.266-0.213c-1.078-0.727-1.718-2.12-0.648-3.162c2.346-2.286,11,2.286,13.159,3.876      c2.017,1.485,2.695,4.212,5.024,5.397c1.144,0.582,2.836,0.203,3.175-1.332c0.463-2.089-1.631-3.003,1.021-5.018      c0.762-0.579,1.22-1.342,1.385-2.281c0.122-0.695,0.183-0.664,0.812-0.542c0.848,0.165,1.281-0.009,2.14,0.25      c0.748,0.226,0.865,0.858,1.063,1.248c1.701,3.34,2.882,0.932,5.851,2.554c1.556,0.85,2.787,0.871,4.03-0.413      c1.879-1.942-1.416-4.76-1.845-5.617c-0.22-0.441-0.034-1.072,0.46-1.038c1.457,0.101,2.645,0.556,4.141-0.607      c1.951-1.519,2.273-3.599,1.157-5.688c-1.202-2.251-2.532-3.022-2.132-5.573c0.081-0.516,0.552-1.477,0.947-1.2      c1.006,0.703,2.138,3.027,3.995,3.182c1.131,0.094,1.707-1.232,1.479-2.202c-0.424-1.802-0.754-2.176-0.346-3.098      c0.63-1.427,1.178-1.271,2.4-2.345c2.413-2.122,3.421-5.49,1.206-7.799c-0.817-0.852-1.163-0.889-1.917-1.417      c-0.511-0.357-0.579-1.652,0.445-2.813c-4.187-7.214-9.54-13.524-15.741-18.749c-0.004,0.209-0.001,0.42-0.029,0.627      c-0.045,0.34-0.497,0.548-0.802,0.374c-0.94-0.535-1.058-1.85-3.108-1.368c-2.743,0.642-3.327,2.578-4.334,2.759      c-0.903,0.162-0.787-0.649-0.359-1.46c1.006-1.907,3.624-3.377,2.712-5.426c-0.553-0.376-1.121-0.73-1.684-1.091      c-1.695-0.198-2.126,0.926-2.539,1.258c-0.459,0.365,0.087-2.373-2.001-2.405c-1.298-0.02-2.407,1.041-2.323,2.789      c0.079,1.615,0.163,1.52-2.087,2.092c-1.48,0.384-2.639,0.724-4.145,2.24c-1.336,1.344-1.367,2.439-1.156,3.962      c0.055,0.401-0.391,0.401-1.313,0.947c-1.793,1.063-0.695,2.087,0.043,3.181c0.209,0.31-0.303,0.538-0.676,0.386      c-0.635-0.259-1.688-1.187-2.731-0.394c-0.826,0.628-0.49,1.565-0.459,2.097c0.176,3.064,1.256,2.781,1.2,5.751      c-0.006,0.356-0.205,1.131-0.509,1.479c-0.524,0.6-1.453,0.017-1.369-1.683c0.112-2.291,0.593-6.289-1.193-7.984      c-0.783-0.741-1.775-0.177-2.238,0.838c-0.563,1.232-0.477,2.115-0.406,3.575c0.1,2.091,0.944,2.278,1.374,3.154      c0.057,0.116-0.043,0.405-0.267,0.381c-0.84-0.088-0.874-0.527-3.256-1.583c-1.592-0.706-2.467,0.382-1.544,1.628      c0.488,0.66,0.952,0.952,0.633,1.328c-0.532,0.627-1.494,1.449-2.2,1.029c-0.87-0.518-0.963-0.51-1.895,0.481      c-2.75,2.925-5.891,3.754-6.931,5.639c-0.61,1.104-0.761,1.642-1.579,1.819c-2.191,0.474-3.788-1.496-1.367-1.999      c0.751-0.156,1.423-0.525,2.142-0.767c1.756-0.589,1.374-2.701-0.277-2.923c-1.033-0.139-1.398,0.004-2.58,0.295      c-0.801,0.196-1.431-0.169-2.76-0.865c-3.551-1.861-7.221,0.818-8.976,4.192c-1.705,3.281-0.056,6.271-1.444,7.295      c-1.048,0.774-1.712,1.137-1.987,2.375c-0.277,1.248,0.334,2.442,1.99,2.774c0.878,0.176,1.188-0.307,2.089-1.14      c0.249-0.229,0.394,0.237,0.78,0.944c1.605,2.943,4.843,0.09,3.223-3.146c-0.187-0.373-0.482-0.752-0.235-1.166      c0.698-1.176,1.014-1.255,1.081-2.089c0.139-1.726-0.735-2.399,0.116-3.168c1.68-1.519,2.177-0.774,2.047-0.529      c-0.849,1.602-2.193,4.391,0.017,5.603c1.089,0.597,2.689-0.058,3.9-0.057c0.099,0,0.192,0.179,0.037,0.247      c-3.407,1.5-3.461,2.841-3.297,5.34c0.113,1.737-3.076,1.139-5.719,2.914c-0.812,0.545-1.488,0.683-2.442,0.889      c-1.355,0.293-2.373,1.646-2.778,2.928c-0.621,1.965,0.913,2.181-0.867,2.841c-1.143,0.424-1.868,0.823-2.072,2.022      c-0.14,0.825,0.271,1.158,1.012,2.057c0.381,0.462,0.008,0.659-0.795,1.023c-3.46,1.567-1.954,5.398,1.021,4.74      c1.015-0.224,2.186-0.926,2.73-2.053c0.653-1.352,0.354-1.92,1.168-3.069c0.487-0.687,1.166-1.174,1.909-0.787      c3.104,1.618,2.423-1.519,3.049-1.756c0.169-0.065,0.487,1.552,1.741,2.469c1.014,0.742,1.877-0.385,1.446-1.146      c-0.296-0.523-0.267-1.099-0.309-1.662c-0.056-0.725,0.538-1.25,0.753-0.87c0.613,1.083,0.938,3.069,2.438,4.016      c0.493,0.311,1.475,0.094,1.627-0.701c0.076-0.396,0.09-1.12,0.238-1.801c0.071-0.326,0.487-0.446,0.725-0.227      c0.511,0.469,0.564,1.037,1.057,1.738c1.881,2.68,6.478-1.794,5.928,1.556c-0.085,0.521-0.377,0.897-0.845,1.146      c-2.743,1.459-3.502,0.497-5.65,0.663c-1.514,0.117-2.756,2.453-4.094,2.515c-2.049,0.095-2.711-1.163-3.468-1.997      c-2.427-2.674-8.787,0.945-9.29,3.945c-0.252,1.506-0.312,2.324-1.155,2.86c-0.874,0.556-1.979,0.848-2.567,2.437      c-1.555,4.194,0.354,12.953,9.087,10.819c1.851-0.452,4.494-1.731,5.301-2.047c0.842-0.33,0.908,0.072,1.114,1.054      c0.643,3.055,3.587,2.85,3.754,5.846c0.115,2.05-0.453,3.726,1.501,5.74c4.334,4.471,4.209,5.184,6.346,6.315      c2.868,1.518,7.489-0.71,7.265-5.558c-0.074-1.597,3.614-1.549,1.596-4.561c-0.428-0.64-1.19-1.217-0.506-1.976      c0.991-1.1,3.173-0.722,2.777-3.041c-0.463-2.713-2.669-2.72-2.266-5.023C188.248,372.213,190.641,370.78,192.13,368.084z" fill="#91d728" data-original="#91d728" class=""></path>
				<path style="" d="M126.363,385.664c2.852,1.443,4.385-1.618,3.671,1.269c-0.347,1.405-0.127,2.793,0.156,4.17      c0.082,0.402,0.305,0.774,0.453,1.164c0.818,2.157,2.573,3.824,4.515,4.761c0.649,0.314,0.807,0.89,0.881,1.611      c0.927,9.112,5.659,6.907,4.955,14.565c-0.175,1.915-0.191,4.784,0.842,6.444c0.692,1.112,2.23,1.188,3.011,0.592      c1.083-0.826,0.96-1.365,1.706-2.897c1.944-3.993-0.108-7.14,3.309-11.157c0.741-0.871,1.355-1.825,1.799-2.888      c1.407-3.375,2.276-4.194,2.21-7.209c-0.089-4.074-1.135-5.144,0.221-7.105c0.731-1.057,1.523-1.983,1.923-2.815      c0.779-1.621-1.293-3.737-3.08-4.217c-4.257-1.146-4.105-0.377-7.097-0.89c-6.549-1.121-3.365,0.298-9.652-1.924      c-1.034-0.366-2.075-0.483-3.101,0.022c-3.142,1.545-3.287,3.214-5.08,1.73c-1.276-1.056-2.307-0.941-3.286-1.057      c-0.281-0.033-0.35-0.295-0.43-2.015c-0.065-1.402-1.669-2.36-2.676-1.741c-0.273,0.168-0.981,0.569-1.423,0.708      c-0.596,0.188-1.297-0.354-1.334-0.905c-0.268-4,4.051-4.861,7.708-6.572c4.976-2.328,1.552-8.1,4.56-10.098      c0.624-0.415,6.593-2.899,4.203-5.697c-1.586-1.855-1.99-0.049-3.1-3.617c-1.742-5.607-11.362-5.17-11.235-0.357      c0.035,1.289,0.129,1.394,0.607,3.234c-0.002,0.001-0.005,0.001-0.008,0.002c0.427,1.644,0.781,2.714,0.481,2.837      c-0.513,0.21-0.919-2.734-3.801-3.253c-0.6-0.108-1.208-0.162-1.811-0.03c-1.847,0.402-2.895-0.466-3.02-1.559      c-0.631-5.513,2.661-5.56,2.322-8.678c-0.371-0.443-0.727-1.064-0.822-1.648c-2.623-2.615-8.309,0.415-11.181,2.584      c-0.198,0.149-0.404,0.286-0.612,0.422c-2.268,10.926-2.015,22.536,1.224,34.004c1.075,1.197,0.433,1.196,3.07,4.563      c1.43,1.828,3.749,1.153,3.055-1.511c-0.158-0.609,0.726,0.485,1.498,1.145c3.641,3.109,8.444-1.181,11.912,1.993      C125.358,384.974,125.751,385.354,126.363,385.664z" fill="#91d728" data-original="#91d728" class=""></path>
				<path style="" d="M119.772,310.338c0.604,2.357-0.082,2.018-1.68,4.301c-1.071,1.531-0.857,3.837,0.632,4.917      c3.043,2.206,4.501-0.543,7.156,1.667c0.662,0.551,1.111,1.233,1.298,2.086c0.138,0.63,0.294,1.253,0.322,1.905      c0.135,3.129,1.872,3.205,3.568,4.556c2.146,1.707-1.086,4.489,2.106,8.939c2.986,4.164,6.45,3.344,6.739,0.915      c0.271-2.278,0.026-1.482,0.377-4.305c0.509-4.074,6.765-3.765,7.756-11.377c0.435-3.339-0.227-4.273-0.82-7.871      c-0.686-4.157,2.902-4.233,1.899-11.044c-0.334-2.253-1.54-4.404-3.786-4.148c-0.427,0.049-0.64,0.209-1.57,0.207      c-1.462-0.003-1.004-3.466-2.084-5.742c-0.223-0.469-0.499-0.898-0.803-1.307C132.735,298.168,125.624,303.739,119.772,310.338z      " fill="#91d728" data-original="#91d728" class=""></path>
				<path style="" d="M219.3,380.899c-0.722,1.62-0.238,2.232-0.737,2.134c-1.196-0.234-1.563-2.044-2.936-2.751      c-1.29-0.665-2.811-0.335-3.643,1.578c-0.292,0.67-0.476,1.527-1.575,1.788c-1.418,0.337-3.866,2.819-4.76,3.967      c-2.95,3.786-0.066,9.71,4.866,8.172c1.501-0.468,2.259-1.257,3.994-2.377c0.908-0.586,2.782-0.78,3.18,0.194      c1.503,3.675,6.763,4.942,10.57,1.898C235.467,389.739,222.489,373.739,219.3,380.899z" fill="#91d728" data-original="#91d728" class=""></path>
				<path style="" d="M122.67,338.01c-0.933-3.172-3.385-6.346-6.85-6.864c-1.325-0.198-2.408,0.012-3.019-1.166      c-0.139-0.269-0.279-0.54-0.446-0.792c-1.533-2.32-4.116-0.295-4.831,2.033c-0.537,1.751,1.058,3.5,2.877,3.774      c1.394,0.21,3.51-0.451,4.071,1.382c0.724,2.365-0.059,3.657,0.984,5.298C117.584,345.024,124.095,342.859,122.67,338.01z" fill="#91d728" data-original="#91d728" class=""></path>
				<path style="" d="M151.246,311.033c0.466,1.275,2.129,3.665,3.492,3.788c1.354,0.122,1.987-1.296,2.035-2.627      c0.029-0.815-0.071-1.237,0.379-1.438c0.597-0.266,1.132-0.532,1.252-1.2c0.295-1.642-1.022-1.504,0.135-2.463      c1.691-1.394,1.788-3.493-0.297-3.826c-1.384-0.22-1.775,0.968-1.982,1.322c-0.155,0.263-0.45-0.014-1.031-0.21      c-0.404-0.136-0.819-0.126-1.189-0.052C151.456,305.206,150.034,309.046,151.246,311.033z" fill="#91d728" data-original="#91d728" class=""></path>
				<path style="" d="M240.984,357.941c-1.21-0.11-2.371,0.065-3.046,1.08c-0.608,0.916-0.744,2.197,0.404,2.872      c0.973,0.573,1.551,0.266,2.303,1.151c1.01,1.188,2.569,1.288,3.594,0.691c0.238-0.138,0.466-0.292,0.695-0.446      c0.11-1.473,0.172-2.955,0.189-4.442C243.439,358.93,242.672,358.095,240.984,357.941z" fill="#91d728" data-original="#91d728" class=""></path>
				<path style="" d="M186.149,305.08c-1.102,1.034-0.809,1.756-1.698,1.866c-0.3,0.037-0.622,0.015-0.896,0.119      c-1.594,0.606-2.808,1.642-3.437,3.259c-1.183,3.045-1.458,7.489,0.165,8.153c1.078,0.441,1.928-0.781,2.172-1.914      c0.845-3.937,0.113-3.743,2.776-6.344c1.614-1.575,3.279-2.925,2.175-4.933C187.174,304.865,186.603,304.654,186.149,305.08z" fill="#91d728" data-original="#91d728" class=""></path>
				<path style="" d="M190.629,299.299c0.368-0.029,0.882-0.211,0.89,0.16c0.035,1.661,2.397,2.953,4.082,1.635      c1.215-0.951,1.501-2.853,1.223-3.772c-0.309-1.492-1.37-1.63-2.219-1.822c-0.532-0.12-0.521-0.394-1.063-1.648      c-0.592-1.37-2.143-2.318-3.234-1.326c-1.254,1.139,0.269,2.411-0.888,3.458C187.688,297.548,188.922,299.435,190.629,299.299z" fill="#91d728" data-original="#91d728" class=""></path>
				<path style="" d="M217.414,366.983c-0.495-0.14-0.579-0.481-1.009-1.035c-1.185-1.521-3.819-1.758-5.207-1.001      c-1.041,0.567-0.387,2.109,1.575,2.549c1.039,0.233,1.306,1.627,1.778,2.5c1.376,2.541,4.805,2.202,5.281-0.241      C220.224,367.751,218.631,367.326,217.414,366.983z" fill="#91d728" data-original="#91d728" class=""></path>
				<path style="" d="M194.581,379.571c1.742,4.283,5.351-3.985,2.679-7.321c-0.789-0.986-1.8-0.285-1.827,0.735      c-0.017,0.675-0.471,0.792-1.033,1.246c-0.631,0.509-0.729,1.488-0.286,2.042c0.334,0.419,0.581,0.74,0.489,1.096      C194.461,377.918,194.121,378.438,194.581,379.571z" fill="#91d728" data-original="#91d728" class=""></path>
				<path style="" d="M223.713,364.68c-0.037,0.186-0.046,0.377-0.072,0.564c-0.139,0.989-0.954,0.598-1.936,1.598      c-0.829,0.843-0.762,2.244,0.562,2.793c2.157,0.894,5.207-0.87,4.688-4.67C226.663,362.842,224.071,362.882,223.713,364.68z" fill="#91d728" data-original="#91d728" class=""></path>
			</g>
			<g>
				<g>
					<path style="" d="M397.241,383.216l68.458,14.667c1.91,0.409,3.127,2.289,2.717,4.199l0,0       c-0.409,1.91-2.289,3.127-4.199,2.718l-68.458-14.667c-1.91-0.409-3.127-2.289-2.717-4.199l0,0       C393.452,384.023,395.331,382.807,397.241,383.216z" fill="#ffffff" data-original="#ffffff" class=""></path>
					<path style="" d="M393.253,393.391l71.916,15.408c0.955,0.205,1.563,1.145,1.359,2.099l0,0       c-0.205,0.955-1.145,1.563-2.1,1.359l-71.916-15.407c-0.955-0.205-1.563-1.145-1.359-2.1l0,0       C391.358,393.795,392.298,393.186,393.253,393.391z" fill="#ffffff" data-original="#ffffff" class=""></path>
					<path style="" d="M392.063,400.549l71.258,15.267c1.137,0.243,1.86,1.362,1.617,2.499l0,0       c-0.243,1.136-1.362,1.86-2.499,1.617l-71.258-15.267c-1.137-0.244-1.86-1.362-1.617-2.499l0,0       C389.808,401.029,390.927,400.305,392.063,400.549z" fill="#ffffff" data-original="#ffffff" class=""></path>
					<path style="" d="M391.805,408.593l68.458,14.667c1.91,0.409,3.127,2.289,2.717,4.199l0,0       c-0.409,1.91-2.289,3.127-4.199,2.718l-68.458-14.667c-1.91-0.409-3.127-2.289-2.717-4.199l0,0       C388.015,409.401,389.895,408.184,391.805,408.593z" fill="#ffffff" data-original="#ffffff" class=""></path>
					<path style="" d="M388.188,418.848l71.172,15.248c1.16,0.248,1.9,1.391,1.651,2.551l0,0       c-0.248,1.16-1.391,1.9-2.551,1.651l-71.172-15.248c-1.16-0.248-1.9-1.391-1.651-2.551l0,0       C385.886,419.339,387.028,418.599,388.188,418.848z" fill="#ffffff" data-original="#ffffff" class=""></path>
					<path style="" d="M387.453,426.881l69.287,14.844c1.681,0.36,2.752,2.015,2.392,3.696l0,0       c-0.36,1.681-2.015,2.752-3.696,2.392l-69.287-14.844c-1.681-0.36-2.752-2.015-2.392-3.696l0,0       C384.117,427.591,385.772,426.521,387.453,426.881z" fill="#ffffff" data-original="#ffffff" class=""></path>
					<path style="" d="M384.057,436.315l71.916,15.407c0.955,0.205,1.563,1.145,1.359,2.1l-0.044,0.206       c-0.205,0.955-1.145,1.563-2.1,1.359l-71.916-15.408c-0.955-0.205-1.563-1.145-1.359-2.099l0.044-0.206       C382.162,436.719,383.102,436.111,384.057,436.315z" fill="#ffffff" data-original="#ffffff" class=""></path>
					<path style="" d="M384.224,443.979l68.458,14.667c1.91,0.409,3.127,2.289,2.718,4.199l0,0       c-0.409,1.91-2.289,3.127-4.199,2.718l-68.458-14.667c-1.91-0.409-3.126-2.289-2.717-4.199l0,0       C380.434,444.786,382.314,443.57,384.224,443.979z" fill="#ffffff" data-original="#ffffff" class=""></path>
					<path style="" d="M380.235,454.154l71.916,15.407c0.955,0.205,1.563,1.145,1.359,2.1l0,0       c-0.205,0.955-1.145,1.563-2.1,1.359l-71.916-15.407c-0.955-0.205-1.563-1.145-1.359-2.1l0,0       C378.34,454.558,379.28,453.949,380.235,454.154z" fill="#ffffff" data-original="#ffffff" class=""></path>
					<path style="" d="M379.29,461.364l70.769,15.162c1.272,0.272,2.082,1.524,1.809,2.796l0,0       c-0.273,1.272-1.524,2.081-2.796,1.809l-70.769-15.162c-1.272-0.272-2.081-1.524-1.809-2.796l0,0       C376.767,461.901,378.018,461.092,379.29,461.364z" fill="#ffffff" data-original="#ffffff" class=""></path>
				</g>
				<g>
					<path style="" d="M128.704,235.04l1.424,5.637c0.063,0.252,0.247,0.456,0.49,0.546l5.451,2.023       c0.613,0.227,0.698,1.058,0.146,1.406l-4.921,3.096c-0.219,0.138-0.357,0.376-0.368,0.635l-0.239,5.809       c-0.027,0.653-0.791,0.991-1.292,0.573l-4.465-3.724c-0.199-0.166-0.467-0.224-0.717-0.154l-5.599,1.567       c-0.629,0.176-1.187-0.445-0.944-1.052l2.162-5.398c0.096-0.241,0.068-0.514-0.076-0.73l-3.221-4.841       c-0.362-0.544,0.057-1.267,0.709-1.223l5.801,0.388c0.259,0.017,0.51-0.094,0.671-0.297l3.608-4.559       C127.727,234.231,128.544,234.406,128.704,235.04z" fill="#ffffff" data-original="#ffffff" class=""></path>
					<path style="" d="M186.196,247.357l1.424,5.637c0.064,0.252,0.247,0.456,0.49,0.546l5.451,2.023       c0.613,0.227,0.698,1.058,0.145,1.406l-4.921,3.096c-0.22,0.138-0.357,0.375-0.368,0.634l-0.239,5.809       c-0.027,0.653-0.791,0.991-1.292,0.573l-4.465-3.724c-0.199-0.166-0.467-0.224-0.717-0.154l-5.599,1.567       c-0.629,0.176-1.187-0.445-0.944-1.052l2.161-5.398c0.097-0.241,0.068-0.514-0.075-0.73l-3.221-4.841       c-0.362-0.544,0.057-1.267,0.709-1.223l5.801,0.388c0.259,0.017,0.51-0.094,0.671-0.297l3.608-4.559       C185.219,246.549,186.036,246.724,186.196,247.357z" fill="#ffffff" data-original="#ffffff" class=""></path>
					<path style="" d="M243.688,259.674l1.424,5.637c0.063,0.252,0.247,0.456,0.49,0.546l5.451,2.023       c0.613,0.228,0.699,1.058,0.146,1.406l-4.921,3.096c-0.219,0.138-0.357,0.375-0.368,0.635l-0.239,5.809       c-0.027,0.653-0.791,0.991-1.292,0.573l-4.465-3.724c-0.199-0.166-0.467-0.224-0.717-0.154l-5.599,1.568       c-0.629,0.176-1.187-0.446-0.944-1.052l2.162-5.398c0.096-0.241,0.068-0.514-0.076-0.73l-3.221-4.841       c-0.362-0.544,0.057-1.266,0.709-1.223l5.801,0.388c0.259,0.017,0.51-0.094,0.671-0.297l3.608-4.559       C242.711,258.866,243.528,259.041,243.688,259.674z" fill="#ffffff" data-original="#ffffff" class=""></path>
					<path style="" d="M301.18,271.991l1.424,5.637c0.063,0.251,0.247,0.456,0.49,0.546l5.451,2.023       c0.613,0.228,0.698,1.058,0.146,1.406l-4.921,3.096c-0.22,0.138-0.357,0.376-0.368,0.635l-0.239,5.809       c-0.027,0.653-0.791,0.991-1.292,0.573l-4.465-3.724c-0.199-0.166-0.467-0.224-0.717-0.154l-5.599,1.568       c-0.629,0.176-1.187-0.446-0.944-1.052l2.162-5.398c0.096-0.241,0.068-0.514-0.076-0.73l-3.221-4.841       c-0.362-0.544,0.057-1.266,0.709-1.223l5.801,0.388c0.259,0.017,0.51-0.094,0.671-0.297l3.608-4.559       C300.204,271.183,301.02,271.358,301.18,271.991z" fill="#ffffff" data-original="#ffffff" class=""></path>
					<path style="" d="M358.673,284.309l1.424,5.637c0.064,0.251,0.247,0.455,0.49,0.546l5.451,2.023       c0.612,0.227,0.698,1.058,0.145,1.406l-4.921,3.096c-0.22,0.138-0.357,0.375-0.368,0.635l-0.239,5.809       c-0.027,0.653-0.791,0.991-1.292,0.573l-4.465-3.724c-0.199-0.166-0.467-0.224-0.717-0.154l-5.599,1.568       c-0.629,0.176-1.187-0.446-0.944-1.052l2.161-5.397c0.097-0.241,0.068-0.514-0.075-0.73l-3.221-4.84       c-0.362-0.544,0.057-1.267,0.709-1.223l5.801,0.388c0.259,0.017,0.51-0.094,0.671-0.297l3.608-4.559       C357.696,283.5,358.513,283.675,358.673,284.309z" fill="#ffffff" data-original="#ffffff" class=""></path>
					<path style="" d="M421.983,297.872l1.424,5.637c0.064,0.251,0.247,0.456,0.49,0.546l5.451,2.023       c0.613,0.227,0.698,1.058,0.146,1.406l-4.921,3.096c-0.22,0.138-0.357,0.376-0.368,0.635l-0.239,5.809       c-0.027,0.653-0.791,0.991-1.292,0.573l-4.465-3.724c-0.199-0.166-0.467-0.224-0.717-0.154l-5.599,1.568       c-0.629,0.176-1.187-0.446-0.944-1.052l2.162-5.397c0.096-0.241,0.068-0.514-0.076-0.73l-3.221-4.84       c-0.362-0.544,0.057-1.267,0.709-1.223l5.801,0.388c0.259,0.017,0.51-0.094,0.671-0.297l3.608-4.559       C421.006,297.064,421.823,297.239,421.983,297.872z" fill="#ffffff" data-original="#ffffff" class=""></path>
					<path style="" d="M479.475,310.189l1.424,5.637c0.064,0.251,0.247,0.456,0.49,0.546l5.451,2.023       c0.612,0.227,0.698,1.058,0.145,1.406l-4.921,3.096c-0.22,0.138-0.357,0.375-0.368,0.635l-0.239,5.809       c-0.027,0.653-0.791,0.991-1.292,0.573l-4.465-3.724c-0.199-0.166-0.467-0.224-0.717-0.154l-5.599,1.567       c-0.629,0.176-1.187-0.445-0.944-1.052l2.162-5.397c0.097-0.241,0.068-0.514-0.075-0.73l-3.221-4.84       c-0.362-0.544,0.057-1.267,0.709-1.223l5.801,0.388c0.259,0.017,0.51-0.094,0.671-0.297l3.608-4.559       C478.498,309.381,479.315,309.556,479.475,310.189z" fill="#ffffff" data-original="#ffffff" class=""></path>
				</g>
				<path style="" d="M276.543,413.073l0.614-19.733c3.7-1.583,7.086-3.105,9.097-4.18      c5.221-2.792,12.259-7.041,19.827-11.865l17.003,42.766l4.936-4.598l-0.789-8.119c0.656-0.115,1.298-0.365,1.869-0.795      l5.113-3.847c1.839-1.384,2.288-3.957,1.027-5.882c-1.262-1.925-3.8-2.54-5.803-1.406l-3.19,1.806l-1.058-10.889      c0.016-0.012,0.034-0.018,0.05-0.03l5.113-3.847c1.839-1.384,2.288-3.957,1.027-5.882c-1.261-1.925-3.8-2.54-5.803-1.406      l-1.396,0.79l-0.967-9.952c9.91-6.732,19.128-13.349,24.871-17.951c9.695-7.77,5.042-15.945-6.474-9.882      c-6.512,3.429-16.259,9.24-26.387,15.639l-8.739-4.859l1.282-0.964c1.839-1.384,2.288-3.957,1.027-5.882l0,0      c-1.261-1.925-3.8-2.54-5.803-1.406l-5.568,3.153c-0.018,0.01-0.03,0.024-0.048,0.034l-9.562-5.316l2.929-2.204      c1.839-1.384,2.288-3.957,1.027-5.882c-1.261-1.925-3.8-2.54-5.803-1.406l-5.568,3.153c-0.622,0.352-1.107,0.841-1.474,1.396      l-7.129-3.964l-6.186,2.691l32.425,32.66c-7.443,5.013-14.149,9.771-18.792,13.443c-1.788,1.414-4.535,3.911-7.463,6.672      l-18.339-7.314c-0.807-0.322-1.726-0.189-2.409,0.349c-1.21,0.952-1.243,2.775-0.069,3.772l12.119,10.282      c0.258,0.219,0.554,0.369,0.863,0.464c-2.219,2.176-4.065,4.011-5.063,5.007c-0.47,0.469-0.52,1.238-0.125,1.839      c0.394,0.602,1.119,0.863,1.737,0.62c1.312-0.518,3.731-1.477,6.612-2.643c-0.037,0.321-0.017,0.652,0.081,0.976l4.59,15.216      c0.445,1.474,2.13,2.171,3.486,1.442C276.028,414.731,276.517,413.942,276.543,413.073z" fill="#ffffff" data-original="#ffffff" class=""></path>
				<g>
					<path style="" d="M194.495,411.002c-0.894-0.405-1.351-1.429-1.031-2.378c0.342-1.011,1.439-1.553,2.45-1.211       c3.761,1.271,7.668,2.215,11.61,2.805c1.057,0.162,1.783,1.14,1.625,2.196c-0.157,1.056-1.141,1.783-2.196,1.625       c-4.169-0.624-8.3-1.622-12.278-2.967C194.613,411.052,194.553,411.028,194.495,411.002z M181.478,405.02       c-0.065-0.03-0.131-0.063-0.194-0.101c-3.629-2.167-7.057-4.689-10.192-7.5c-0.794-0.712-0.862-1.934-0.15-2.728       c0.712-0.795,1.94-0.86,2.729-0.149c2.95,2.645,6.177,5.019,9.592,7.058c0.916,0.547,1.216,1.733,0.668,2.649       C183.423,405.101,182.362,405.42,181.478,405.02z M220.756,414.527c-0.632-0.287-1.088-0.904-1.133-1.645       c-0.064-1.066,0.748-1.98,1.814-2.044c3.992-0.239,7.961-0.842,11.8-1.79c1.038-0.253,2.085,0.377,2.339,1.412       c0.256,1.035-0.376,2.083-1.411,2.339c-4.065,1.006-8.27,1.643-12.498,1.896C221.343,414.714,221.033,414.652,220.756,414.527z        M162.038,387.06c-0.299-0.135-0.567-0.348-0.771-0.633c-2.396-3.343-4.566-6.99-6.449-10.839       c-0.469-0.959-0.073-2.117,0.887-2.585c0.954-0.47,2.113-0.074,2.583,0.886c1.79,3.658,3.847,7.119,6.119,10.286       c0.622,0.868,0.424,2.074-0.444,2.696C163.38,387.288,162.646,387.336,162.038,387.06z M100.614,348.63       c-0.244-0.111-0.469-0.273-0.657-0.489c-0.701-0.803-0.618-2.024,0.185-2.726c0.883-0.769,1.788-1.515,2.716-2.234       c2.529-1.953,5.175-3.611,7.861-4.928c0.958-0.468,2.114-0.077,2.586,0.884c0.469,0.958,0.073,2.116-0.885,2.585       c-2.454,1.203-4.876,2.723-7.2,4.516c-0.867,0.671-1.713,1.369-2.536,2.088C102.095,348.84,101.282,348.932,100.614,348.63z        M150.516,363.148c-0.466-0.211-0.848-0.606-1.028-1.128c-1.194-3.442-2.676-7.449-4.619-11.061       c-0.506-0.94-0.154-2.112,0.786-2.617c0.939-0.504,2.11-0.156,2.616,0.786c2.072,3.853,3.625,8.039,4.868,11.627       c0.349,1.007-0.184,2.108-1.192,2.458C151.46,363.383,150.951,363.345,150.516,363.148z M124.573,338.259       c-0.662-0.3-1.125-0.959-1.136-1.731c-0.016-1.068,0.835-1.945,1.903-1.961c0.202-0.003,0.406-0.004,0.612,0.002       c4.568,0.042,8.689,1.133,12.19,3.225c0.916,0.548,1.215,1.735,0.666,2.65c-0.545,0.916-1.759,1.2-2.648,0.667       c-2.854-1.714-6.344-2.643-10.267-2.679l-0.496-0.001C125.103,338.434,124.825,338.372,124.573,338.259z M87.017,363.47       c-0.151-0.068-0.295-0.158-0.428-0.266c-0.827-0.677-0.946-1.894-0.27-2.72c1.228-1.499,2.46-3.003,3.714-4.488       c0.687-0.818,1.911-0.913,2.723-0.231c0.815,0.688,0.918,1.907,0.229,2.722c-1.24,1.472-2.461,2.96-3.679,4.446       C88.741,363.624,87.794,363.821,87.017,363.47z M246.445,407.687c-0.388-0.176-0.721-0.481-0.928-0.891       c-0.479-0.954-0.094-2.115,0.86-2.594c1.666-0.838,3.315-1.763,4.897-2.751c0.905-0.567,2.091-0.291,2.662,0.615       c0.564,0.905,0.289,2.097-0.617,2.661c-1.683,1.051-3.434,2.036-5.209,2.927C247.569,407.927,246.959,407.92,246.445,407.687z" fill="#ffffff" data-original="#ffffff" class=""></path>
				</g>
			</g>
			<g>
				<g style="opacity:0.5;">
					<path style="" d="M472.822,494.618c-5.185,7.28-14.348,11.168-23.606,9.181l-80.325-17.206       c-12.432-2.661-20.372-14.91-17.686-27.351c-2.686,12.441-14.927,20.364-27.359,17.703L80.166,424.74       c-12.406-2.67-20.337-14.894-17.71-27.298c12.422-58.57,25.892-119.783,27.657-129.206       c23.001,3.672,21.95,37.511,20.729,54.114c-0.009,0.208-0.037,0.408-0.046,0.616c-9.054,16.153-11.862,35.792-6.3,54.98       c11.042,38.041,50.834,59.943,88.868,48.92c3.83-1.107,7.469-2.492,10.959-4.157l0.008-0.017       c2.225,0.52,4.492,1.038,6.811,1.537c103.14,22.321,252.815,16.112,263.21,67.01       C474.674,492.869,472.389,493.044,472.822,494.618z" fill="#fc09b2" data-original="#fc09b2" class=""></path>
				</g>
			</g>
			<g>
				<g style="opacity:0.25;">
					<path style="" d="M204.323,422.71c-63.341,30.217-127.285-39.517-93.527-99.743       c-3.408,47.54,8.278,73.474,67.305,92.598C187.087,418.467,195.637,420.613,204.323,422.71z" fill="#000e3f" data-original="#000e3f" class=""></path>
				</g>
			</g>
		</g>
		<g>
			<path style="" d="M449.336,362.894c-1.147,5.536-5.658,11.12-12.094,11.12c-0.416,0-0.854-0.025-1.269-0.074     c-3.072-0.342-5.632-1.878-7.437-4.462c-2.194-3.146-2.974-7.559-1.999-11.508c0.219-0.879,1.024-1.488,1.901-1.488     c0.146,0,0.293,0.025,0.463,0.049c0.488,0.123,0.928,0.439,1.195,0.902c0.268,0.439,0.366,0.951,0.219,1.463     c-0.682,2.853-0.121,6.12,1.414,8.339c1.17,1.658,2.731,2.609,4.681,2.829c4.73,0.561,8.218-3.682,9.095-7.95     c0.195-1.049,1.293-1.731,2.292-1.536C448.872,360.797,449.555,361.846,449.336,362.894z" fill="#000e3f" data-original="#000e3f" class=""></path>
			<path style="" d="M408.495,352.389c0.288-3.179,4.31-5.803,7.639-4.98c3.385,0.837,5.768,3.979,4.983,7.773     c-0.639,3.091-4.061,5.801-7.926,4.847C410.039,359.252,407.511,355.757,408.495,352.389z" fill="#000e3f" data-original="#000e3f" class=""></path>
			<path style="" d="M460.517,370.128c-3.549-0.486-5.803-4.338-5.151-7.464c0.771-3.696,4.243-5.908,7.734-5.171     c3.392,0.716,5.691,4.141,5.039,7.58C467.465,368.622,463.418,371.045,460.517,370.128z" fill="#000e3f" data-original="#000e3f" class=""></path>
			<path style="" d="M507.978,313.81c-1.829-2.804-4.121-5.17-6.779-6.998c-2.657-1.853-5.68-3.145-8.949-3.852     l-80.343-17.215c-9.607-2.048-19.556,1.755-25.408,9.729l-0.318,0.439l-0.098-0.536c-2.048-9.657-9.582-17.216-19.214-19.264     l-243.666-52.23c-6.535-1.389-13.216-0.17-18.824,3.462c-5.584,3.634-9.461,9.218-10.851,15.752L60.563,396.983     c-1.39,6.51-0.171,13.191,3.462,18.8c3.633,5.608,9.217,9.461,15.727,10.85l243.69,52.206c1.756,0.39,3.51,0.584,5.292,0.584     c4.779,0,9.461-1.389,13.509-4.023c2.56-1.657,4.779-3.755,6.608-6.266l0.317-0.439l0.121,0.537     c2.048,9.656,9.583,17.215,19.19,19.263l80.32,17.215c1.756,0.366,3.536,0.561,5.291,0.561c4.779,0,9.462-1.389,13.534-4.023     c5.584-3.609,9.461-9.218,10.85-15.728l32.967-153.885C512.831,326.099,511.612,319.419,507.978,313.81z M340.122,472.108     c-3.462,2.244-7.389,3.39-11.412,3.39c-1.487,0-2.976-0.147-4.438-0.463l-243.69-52.206c-5.511-1.194-10.217-4.438-13.289-9.168     c-3.048-4.73-4.072-10.363-2.901-15.849l32.967-153.91c1.17-5.486,4.437-10.217,9.168-13.265     c4.682-3.023,10.363-4.097,15.849-2.925l243.69,52.205c11.363,2.438,18.629,13.655,16.191,25.018l-32.967,153.909     C348.095,464.33,344.852,469.06,340.122,472.108z M507.613,331.804L474.646,485.69c-1.17,5.51-4.439,10.217-9.144,13.29     c-3.462,2.218-7.413,3.389-11.436,3.389c-1.463,0-2.95-0.17-4.439-0.488l-80.319-17.214     c-11.387-2.414-18.628-13.655-16.215-25.018l32.99-153.885c2.049-9.656,10.73-16.654,20.605-16.654     c1.463,0,2.95,0.147,4.414,0.463l80.319,17.215c5.51,1.17,10.217,4.439,13.29,9.144     C507.759,320.662,508.783,326.294,507.613,331.804z" fill="#000e3f" data-original="#000e3f" class=""></path>
		</g>
		<g>
			<path style="" d="M375.254,325.043c-0.531,2.478,1.047,4.916,3.525,5.447c2.477,0.531,4.916-1.047,5.447-3.525     c0.531-2.477-1.048-4.916-3.525-5.447C378.223,320.987,375.784,322.565,375.254,325.043z" fill="#ffffff" data-original="#ffffff" class=""></path>
			
				<ellipse transform="matrix(0.9377 -0.3475 0.3475 0.9377 -96.2607 152.0504)" style="" cx="375.797" cy="344.407" rx="4.588" ry="4.588" fill="#ffffff" data-original="#ffffff" class=""></ellipse>
			<path style="" d="M367.368,361.849c-0.531,2.477,1.048,4.916,3.525,5.447c2.478,0.531,4.916-1.048,5.447-3.525     c0.531-2.478-1.047-4.916-3.525-5.447C370.338,357.793,367.899,359.371,367.368,361.849z" fill="#ffffff" data-original="#ffffff" class=""></path>
			<path style="" d="M363.425,380.252c-0.531,2.478,1.047,4.916,3.525,5.447c2.477,0.531,4.916-1.047,5.447-3.525     c0.531-2.477-1.048-4.916-3.525-5.447C366.395,376.196,363.956,377.774,363.425,380.252z" fill="#ffffff" data-original="#ffffff" class=""></path>
			<path style="" d="M359.483,398.655c-0.531,2.478,1.047,4.916,3.525,5.447c2.478,0.531,4.916-1.047,5.447-3.525     c0.531-2.477-1.047-4.916-3.525-5.447C362.452,394.599,360.013,396.177,359.483,398.655z" fill="#ffffff" data-original="#ffffff" class=""></path>
			<path style="" d="M355.54,417.058c-0.531,2.478,1.047,4.916,3.525,5.447c2.478,0.531,4.916-1.048,5.447-3.525     c0.531-2.478-1.047-4.916-3.525-5.447C358.509,413.002,356.071,414.58,355.54,417.058z" fill="#ffffff" data-original="#ffffff" class=""></path>
			<path style="" d="M351.597,435.461c-0.531,2.477,1.047,4.916,3.525,5.447c2.477,0.531,4.916-1.048,5.447-3.525     c0.531-2.478-1.047-4.916-3.525-5.447C354.567,431.405,352.128,432.983,351.597,435.461z" fill="#ffffff" data-original="#ffffff" class=""></path>
			<path style="" d="M347.655,453.864c-0.531,2.478,1.047,4.916,3.525,5.447c2.478,0.531,4.916-1.047,5.447-3.525     c0.531-2.477-1.047-4.916-3.525-5.447C350.624,449.808,348.185,451.386,347.655,453.864z" fill="#ffffff" data-original="#ffffff" class=""></path>
		</g>
	</g>
	<g>
		<g>
			<g>
				<path style="" d="M42.425,128.408c-1.1,1.036-2.313,3.188-13.787,16.159l-0.737-0.63      C16.073,132.944,11.613,129.472,0,119.797c0.494-1.488,3.739-5.436,5.725-6.429c6.89,6.262,15.205,12.758,22.121,18.902      l0.04,0.035c0.585-1.341,8.355-8.917,9.312-10.365c0.287,0.246,0.616,0.526,0.864,0.811c0.496,0.496,1.074,1.062,1.559,1.407      C43.714,127.314,43.406,127.263,42.425,128.408z" fill="#000e3f" data-original="#000e3f" class=""></path>
				<path style="" d="M41.461,90.121c1.325,1.188,2.537,2.487,3.704,3.821c2.444,2.94,4.983,5.353,7.312,8.248      l1.088,1.409c1.604,1.958,2.964,4.29,3.451,6.701c0.267,2.103-0.609,4.239-1.821,6.173c-1.052,1.788-2.472,3.258-4.117,4.568      c-2.348,1.819-4.873,3.286-7.759,2.081c-1.955-0.604-3.539-1.993-5.009-3.489c-3.966-3.945-8.126-7.784-11.694-12.171      c-2.157-2.396-4.069-5.317-4.176-8.668c0.021-0.531,0.076-1.024,0.248-1.55c1.885-4.914,6.837-9.376,12.026-9.874      c1.372-0.027,2.69,0.287,3.847,0.899C39.647,88.725,40.575,89.404,41.461,90.121z M40.719,99.182      c-0.038-0.04-1.363-1.227-2.246-2.095c-1.473-1.346-3.389-1.985-5.157-1.439c-1.465,0.555-2.317,2.007-2.556,3.407      c-0.248,1.55-0.033,3.042,0.678,4.435c1.434,2.409,3.484,4.687,5.654,6.783c1.995,1.591,3.787,3.596,5.907,4.849      c2.966,1.135,6.491-1.706,6.417-5.016c-0.224-2.215-0.618-1.849-2.542-4.314c-0.952-1.099-1.718-2-1.828-2.118l-1.759-1.888      L40.719,99.182z" fill="#000e3f" data-original="#000e3f" class=""></path>
				<path style="" d="M73.488,101.44c-0.475,0.353-1.384,1.294-2.594,2.191c-1.25,0.928-2.709,1.94-3.84,2.311      c-9.508-7.409-18.479-16.085-26.698-25.456l-0.031-0.044c0.071-1.256,4.744-4.521,5.814-4.977      c2.098,1.926,8.1,10.928,17.305,18.562c-4.711-10.964-8.847-17.266-11.183-23.032c-0.029-0.045-0.019-0.12,0.026-0.153      c2.263-1.007,4.265-3.093,6.508-4.221C64.436,78.3,68.825,89.369,73.488,101.44z" fill="#000e3f" data-original="#000e3f" class=""></path>
				<path style="" d="M98.224,77.626c1.296,1.92,2.59,4.154,3.157,6.31c-6.358,3.616-12.835,7.985-19.135,10.947      c-6.246-10.795-12.808-20.85-18.369-31.854c7-4.544,18.944-11.703,19.104-11.424c1.59,1.998,2.558,4.419,3.823,6.606      l0.026,0.045c-3.444,3.175-7.988,4.871-11.868,7.614l-0.138,0.08l-0.021,0.074c1.1,1.788,1.811,3.983,3.198,5.418l0.074,0.02      c1.943-0.939,3.869-2.116,5.804-3.173l0.026,0.047c1.537,1.906,2.47,4.16,3.835,6.414c-1.611,1.616-4.978,2.88-5.331,3.771      c0.723,2.001,2.36,4.405,3.365,5.815l0.074,0.02c4.095-2.37,8.171-4.233,12.322-6.822L98.224,77.626z" fill="#000e3f" data-original="#000e3f" class=""></path>
				<path style="" d="M125.34,42.883c-1.353,0.218-3.028,0.957-6.145,2.29l-0.103,0.037l-0.048,0.02      c0.019,0.048-0.012,0.119,0.007,0.167c0.153,1.033,1.572,4.692,10.176,26.555l0.017,0.05l0.019,0.05      c-2.315,1.322-5.859,2.127-8.129,3.43c-0.375-0.547-2.546-8.228-10.353-26.717l-0.069-0.03      c-1.864-0.224-5.372,1.598-6.272,1.645c-0.437-0.409-2.215-4.565-3.145-7.833c-0.017-0.05-0.072-0.031-0.089-0.081      c6.833-2.602,14.243-5.651,21.424-7.465C123.612,37.162,124.793,40.333,125.34,42.883z" fill="#000e3f" data-original="#000e3f" class=""></path>
				<path style="" d="M149.902,36.877c0.604,1.677,1.052,3.395,1.449,5.124c0.754,3.749,1.847,7.079,2.52,10.736      l0.291,1.758c0.484,2.487,0.578,5.186-0.143,7.539c-0.764,1.977-2.546,3.444-4.532,4.572c-1.776,1.074-3.725,1.694-5.795,2.068      c-2.931,0.486-5.849,0.581-7.821-1.851c-1.434-1.459-2.172-3.434-2.754-5.45c-1.618-5.359-3.463-10.712-4.522-16.27      c-0.761-3.136-1.055-6.614,0.437-9.618c0.272-0.458,0.551-0.866,0.952-1.248c3.997-3.431,10.474-5.012,15.283-2.986      c1.217,0.626,2.231,1.529,2.959,2.616C148.966,34.789,149.46,35.828,149.902,36.877z M144.943,44.507      c-0.014-0.052-0.616-1.728-0.981-2.911c-0.656-1.885-2.04-3.357-3.857-3.718c-1.556-0.205-2.993,0.671-3.871,1.788      c-0.952,1.248-1.473,2.662-1.508,4.229c0.119,2.802,0.84,5.781,1.759,8.655c1.002,2.351,1.628,4.965,2.9,7.078      c2.074,2.404,6.527,1.576,8.035-1.372c0.852-2.057,0.332-1.922-0.193-5.007c-0.317-1.419-0.563-2.576-0.604-2.734l-0.652-2.496      L144.943,44.507z" fill="#000e3f" data-original="#000e3f" class=""></path>
			</g>
		</g>
		<g>
			<g>
				<path style="" d="M49.907,157.94c-1.081,0.848-2.188,2.306-4.267,4.985l-0.069,0.081l-0.036,0.042      c0.041,0.035,0.045,0.11,0.088,0.146c0.635,0.828,3.651,3.339,21.787,18.293l0.038,0.036l0.043,0.035      c-1.386,2.281-4.1,4.704-5.448,6.943c-0.597-0.296-6.222-5.962-22.018-18.352l-0.079,0.008      c-1.735,0.706-3.924,4.004-4.685,4.483c-0.582-0.147-4.157-2.919-6.556-5.327c-0.04-0.036-0.074,0.005-0.115-0.03      c4.713-5.593,9.718-11.853,15.123-16.924C45.614,153.774,48.191,155.977,49.907,157.94z" fill="#000e3f" data-original="#000e3f" class=""></path>
				<path style="" d="M92.184,157.755c-1.864,1.704-3.988,4.084-6.513,6.102l-0.041,0.037      c-3.246-1.477-9.818-4.204-14.62-4.913l-0.186-0.048c1.859,2.67,7.081,7.583,9.047,9.498c-1.093,2.385-6.093,6.157-6.503,6.749      c0.32-0.291-22.808-25.178-25.636-27.471c2.577-3.157,5.677-7.014,9.923-10.097c6.558-5.415,16.882-2.255,18.632,6.269      c0.749,2.811,0.396,5.687-2,8.169l-0.16,0.143l-0.038,0.038l0.038,0.038c5.811,1.895,12.436,2.61,18.016,5.52L92.184,157.755z       M63.267,152.662l0.038-0.036c1.339-1.006,2.919-2.305,4.005-3.663c1.625-2.289-1.119-5.606-3.64-5.414      c-2.129-0.018-3.89,1.958-5.067,4.416C59.956,149.206,61.978,151.655,63.267,152.662z" fill="#000e3f" data-original="#000e3f" class=""></path>
				<path style="" d="M113.35,142.677l0.031,0.043c-1.503,1.598-3.828,3.057-5.995,4.003l-0.043,0.03      c-2.043-1.384-5.136-4.527-7.141-5.675c-1.644,0.842-1.434,0.953-2.749,1.889c0.52,2.402,2.916,6.044,3.282,8.688      c-0.045,0.031-0.057,0.107-0.103,0.138c-0.387,0.472-2.21,1.439-6.164,4.32c-0.043,0.031-0.043,0.031-0.117,0.019      c-0.494-1.432-9.288-18.337-15.059-35.349c0.737-0.723,1.628-0.958,5.234-4.053c2.145,1.903,11.837,10.516,14.627,12.953      L113.35,142.677z M93.468,138.016c1.043-0.673,2.148-1.527,3.241-2.306C84.203,121.842,88.306,128.162,93.468,138.016z" fill="#000e3f" data-original="#000e3f" class=""></path>
				<path style="" d="M123.948,136.691c-0.513,0.296-1.523,1.124-2.826,1.876c-1.353,0.779-2.919,1.618-4.083,1.853      c-8.592-8.454-16.505-18.104-23.586-28.358l-0.026-0.048c0.217-1.24,5.236-3.945,6.348-4.275      c1.861,2.156,6.785,11.789,15.049,20.433c-3.417-11.434-6.799-18.172-8.453-24.168c-0.029-0.047-0.01-0.119,0.041-0.147      c2.363-0.741,4.592-2.582,6.95-3.444C117.624,112.664,120.708,124.164,123.948,136.691z" fill="#000e3f" data-original="#000e3f" class=""></path>
				<path style="" d="M151.267,115.851c1.069,2.058,2.096,4.423,2.411,6.631c-6.73,2.864-13.663,6.463-20.262,8.682      c-4.969-11.44-10.336-22.18-14.598-33.752c7.472-3.713,20.157-9.458,20.288-9.162c1.353,2.167,2.033,4.685,3.043,7.003      l0.017,0.049c-3.783,2.758-8.494,3.923-12.663,6.202l-0.146,0.064l-0.029,0.072c0.885,1.9,1.339,4.164,2.554,5.748l0.071,0.027      c2.038-0.709,4.088-1.659,6.129-2.485l0.024,0.049c1.31,2.069,1.976,4.418,3.076,6.812c-1.79,1.42-5.277,2.291-5.732,3.132      c0.489,2.074,1.842,4.651,2.678,6.166l0.069,0.028c4.339-1.885,8.606-3.267,13.025-5.365L151.267,115.851z" fill="#000e3f" data-original="#000e3f" class=""></path>
				<path style="" d="M176.509,115.508c-1.484,0.288-3.656,1.459-20.288,6.277l-0.282-0.926      c-4.114-15.61-6.026-20.93-10.658-35.312c1.212-0.992,6.066-2.591,8.272-2.369c2.47,8.973,6.021,18.908,8.579,27.796      l0.017,0.053c1.21-0.821,11.825-3.064,13.405-3.773c0.112,0.358,0.239,0.771,0.294,1.146c0.155,0.685,0.341,1.473,0.566,2.021      C178.184,115.277,177.953,115.067,176.509,115.508z" fill="#000e3f" data-original="#000e3f" class=""></path>
				<path style="" d="M171.643,78.07c1.802-0.566,4.36-1.686,6.432-1.541c1.84,9.011,3.818,18.875,6.236,27.758      c-1.79,0.619-4.678,1.263-6.713,1.771l-0.05,0.012c-1.9-9.274-4.515-18.281-6.064-27.963L171.643,78.07z M179.836,114.87      c-0.473,0.106-0.778-4.233-1.21-6.177l-0.012-0.053c1.525-1.055,4.334-1.074,6.379-1.53c0.382,1.954,0.792,4.287,1.246,6.335      l-0.367,0.082c-0.838,0.186-1.217,0.216-2.005,0.391l-0.108,0.023L179.836,114.87z" fill="#000e3f" data-original="#000e3f" class=""></path>
			</g>
		</g>
	</g>
	<g>
		<path style="" d="M265.525,82.373c-3.469,10.098-12.824,22.182-23.233,25.871    c-8.363,2.964-30.482-11.548-33.907-24.311c-2.225-8.29,2.944-16.041,10.814-15.666c6.53,0.312,12.511,4.91,16.678,9.886    c1.17,1.398,1.453,2.003,1.857,1.226c0.81-1.556,2.684-5.418,4.487-7.617C255.985,54.975,270.495,67.903,265.525,82.373z" fill="#fd8a02" data-original="#fd8a02"></path>
		<path style="" d="M325.714,42.651c-2.831,8.243-10.468,18.106-18.964,21.117c-6.826,2.42-24.881-9.426-27.677-19.844    c-1.816-6.766,2.403-13.094,8.827-12.787c5.33,0.255,10.213,4.008,13.613,8.07c0.955,1.141,1.186,1.635,1.515,1.001    c0.661-1.27,2.191-4.422,3.663-6.217C317.927,20.287,329.771,30.839,325.714,42.651z" fill="#fd8a02" data-original="#fd8a02"></path>
		<path style="" d="M258.521,19c-2.483,7.229-9.18,15.879-16.632,18.52c-5.987,2.122-21.821-8.267-24.273-17.404    c-1.593-5.934,2.107-11.483,7.741-11.215c4.675,0.223,8.957,3.515,11.939,7.077c0.838,1,1.04,1.434,1.329,0.878    c0.58-1.114,1.921-3.878,3.212-5.452C251.692-0.614,262.08,8.641,258.521,19z" fill="#fd8a02" data-original="#fd8a02"></path>
	</g>
</g>















</g></svg>