<svg xmlns="http://www.w3.org/2000/svg" version="1.1" xmlns:xlink="http://www.w3.org/1999/xlink" xmlns:svgjs="http://svgjs.com/svgjs" width="512" height="512" x="0" y="0" viewBox="0 0 512 512" style="enable-background:new 0 0 512 512" xml:space="preserve" class=""><g>
<g>
	<g>
		<g>
			<path style="" d="M395.201,374.413c-34.754,0-72.842-17.143-95.471-43.147c-0.672-0.774-0.591-1.944,0.181-2.617     c0.77-0.67,1.942-0.591,2.617,0.181c22.467,25.817,60.695,42.545,94.98,41.848c25.074-0.575,45.794-10.297,59.919-28.116     c17.093-21.561,20.712-51.364,9.222-75.927c-11.123-23.777-46.674-45.248-74.999-55.135c-5.308-1.852-11.124-3.296-17.281-4.822     c-21.828-5.415-46.57-11.554-49.897-39.034c-1.752-14.467,5.623-25.987,12.756-37.126c8.095-12.645,15.744-24.588,10.528-40.372     c-3.49-10.562-10.567-18.422-21.034-23.356c-29.208-13.772-76.902-1.89-98.04,6.322c-42.683,16.574-69.496,44.702-73.568,77.174     c-2.997,23.895,6.884,46.491,26.43,60.444c0.833,0.595,1.028,1.754,0.432,2.588c-0.593,0.831-1.752,1.03-2.587,0.432     c-20.674-14.759-31.125-38.654-27.956-63.925c4.247-33.866,31.913-63.088,75.904-80.171     c21.654-8.407,70.619-20.529,100.967-6.218c11.422,5.385,19.153,13.982,22.974,25.547c5.768,17.459-2.719,30.715-10.927,43.536     c-7.092,11.074-13.79,21.536-12.199,34.679c3.022,24.943,25.434,30.502,47.108,35.881c6.243,1.548,12.14,3.011,17.611,4.921     c29.036,10.134,65.559,32.313,77.136,57.064c12.081,25.826,8.283,57.15-9.675,79.802c-14.834,18.711-36.528,28.918-62.739,29.52     C396.799,374.404,396,374.413,395.201,374.413z" fill="#000e3f" data-original="#000e3f" class=""></path>
			<g>
				<g>
					<path style="" d="M262.961,59.745l1.777,5.687c0.344,1.101,0.322,2.261-0.029,3.304       c-0.403,1.169-1.197,2.204-2.304,2.88L242.16,83.983l-23.684,1.359c-2.462,0.147-4.704-1.404-5.439-3.756L211.26,75.9       c-0.735-2.351,0.225-4.903,2.333-6.184l8.437-5.163l11.808-7.204l23.684-1.359C259.985,55.842,262.227,57.393,262.961,59.745z" fill="#ff8ede" data-original="#ff8ede" class=""></path>
					<g>
						<g style="opacity:0.5;">
							<path style="" d="M264.709,68.736c-0.403,1.169-1.197,2.204-2.304,2.88L242.16,83.983l-23.684,1.359         c-2.462,0.147-4.704-1.404-5.439-3.756L211.26,75.9c-0.735-2.351,0.225-4.903,2.333-6.184l8.437-5.163         c1.701,0.054,3.553,0.592,5.916,1.886c3.451,1.906,6.03,5.823,10.094,6.585c8.47,1.564,13.173-10.102,24.695-5.391         C263.448,67.922,264.115,68.299,264.709,68.736z" fill="#fc09b2" data-original="#fc09b2"></path>
						</g>
					</g>
				</g>
				<path style="" d="M266.509,64.879l-1.775-5.682c-0.991-3.169-4.031-5.218-7.312-5.057l-22.138,1.268      c-1.322,0.077-2.617,0.482-3.74,1.17l-18.922,11.56c-2.834,1.729-4.122,5.152-3.131,8.321l1.775,5.677      c0.946,3.035,3.744,5.073,6.893,5.073c0.14,0,0.278-0.004,0.419-0.011l22.138-1.268c1.318-0.077,2.61-0.48,3.74-1.17      l18.922-11.56C266.21,71.468,267.498,68.047,266.509,64.879z M218.366,83.495c-1.675,0.095-3.078-0.921-3.558-2.463      l-1.775-5.679c-0.482-1.541,0.143-3.208,1.524-4.05l18.221-11.133l6.906,22.104L218.366,83.495z M261.445,70.035l-18.222,11.133      l-6.907-22.104l21.319-1.221c0.07-0.005,0.138-0.007,0.206-0.007c1.53,0,2.891,0.991,3.352,2.467l1.775,5.679      C263.451,67.527,262.824,69.193,261.445,70.035z" fill="#000e3f" data-original="#000e3f" class=""></path>
			</g>
		</g>
		<g>
			<g>
				<g>
					<g>
						<path style="" d="M278.692,221.439c-13.127,7.375-31.973-1.26-42.102-19.291        c-6.736-11.991-7.908-25.117-4.066-34.704c1.904-4.86,5.106-8.803,9.501-11.273c13.125-7.374,31.971,1.261,42.092,19.276        c4.472,7.961,6.487,16.42,6.227,24.033C290.016,209.085,286.026,217.319,278.692,221.439z" fill="#ff8ede" data-original="#ff8ede" class=""></path>
						<g>
							<g style="opacity:0.5;">
								<path style="" d="M278.692,221.439c-13.127,7.375-31.973-1.26-42.102-19.291          c-6.736-11.991-7.908-25.117-4.066-34.704c5.224-0.925,10.671-0.635,15.629,0.965c13.498,4.363,19.44,18.62,30.345,26.718          c4.061,3.002,7.752,4.222,11.846,4.353C290.016,209.085,286.026,217.319,278.692,221.439z" fill="#fc09b2" data-original="#fc09b2"></path>
							</g>
						</g>
						<path style="opacity:0.5;" d="M270.085,174.06c-9.688-10.276-19.167-9.885-24.262-10.822l-0.25-0.046        c-1.563-0.289-1.603-2.526-0.049-2.87c17.419-3.835,30.315,7.485,32.836,20.238c0.294,1.492-1.695,2.295-2.523,1.024        C274.1,178.918,272.293,176.445,270.085,174.06z" fill="#ffffff" data-original="#ffffff"></path>
					</g>
					<path style="" d="M268.333,225.941c-4.056,0-8.319-0.978-12.59-2.934c-8.305-3.805-15.68-10.89-20.769-19.952       c-6.739-11.995-8.339-25.905-4.172-36.302c2.101-5.367,5.67-9.591,10.315-12.199c13.994-7.853,34.009,1.1,44.616,19.986       c4.45,7.92,6.746,16.799,6.465,25.004c-0.367,10.651-4.96,19.218-12.6,23.51C276.175,224.979,272.356,225.941,268.333,225.941z        M252.4,155.383c-3.346,0-6.562,0.774-9.466,2.404c-3.889,2.187-6.893,5.759-8.683,10.333       c-3.765,9.392-2.246,22.077,3.957,33.119c4.708,8.38,11.483,14.913,19.082,18.394c7.395,3.389,14.675,3.454,20.495,0.188l0,0       c6.483-3.642,10.388-11.081,10.707-20.404c0.258-7.536-1.87-15.726-5.99-23.062C275.179,163.324,263.125,155.383,252.4,155.383       z" fill="#000e3f" data-original="#000e3f" class=""></path>
				</g>
				<g>
					<g>
						<path style="" d="M239.399,239.148c0,0-6.221,1.414-14.063,9.101c-0.242,0.23-0.497,0.495-0.752,0.76        c-1.578,1.596-3.259,3.321-5.078,5.163c-0.662,0.665-1.338,1.349-2.03,2.052c-1.248,1.254-2.559,2.55-3.897,3.899        c-1.067,1.082-2.165,2.185-3.297,3.292c-2.578,2.535-5.308,5.206-8.195,7.98c-0.468,0.458-0.968,0.919-1.467,1.398        c-0.257,0.249-0.514,0.497-0.787,0.747c-0.497,0.494-1.012,0.974-1.528,1.455c-3.103,2.933-6.379,5.97-9.815,9.076        c-0.576,0.537-1.154,1.058-1.731,1.579c-1.824,1.658-3.73,3.326-5.648,5.028c-0.519,0.447-1.006,0.89-1.525,1.337        c-1.037,0.91-2.09,1.823-3.176,2.74c-3.193,2.741-6.531,5.533-9.949,8.352c-2.533,2.06-5.128,4.161-7.793,6.236        c-1.028,0.842-2.123,1.676-3.201,2.524c-4.316,3.343-8.783,6.687-13.388,9.996c-1.146,0.839-2.293,1.662-3.474,2.489        c-1.135,0.787-2.251,1.59-3.401,2.396c-0.108,0.08-0.248,0.18-0.373,0.262c-1.104,0.767-2.226,1.52-3.346,2.289        c-1.199,0.812-2.415,1.626-3.631,2.44c-2.432,1.628-4.915,3.245-7.434,4.849c-14.894,9.467-30.931,18.361-48.003,26.014        L14.273,259.089c0.216-0.159,0.419-0.301,0.637-0.444c4.685-3.201,9.386-6.27,14.137-9.193        c17.121-10.549,34.646-19.364,51.716-26.748c16.315-7.078,32.194-12.861,46.902-17.584        c26.043-8.396,48.365-13.536,62.762-16.895c11.403-2.656,16.129-7.526,16.129-7.526s31.068-15.889,48.833,6.188l0.258-0.232        c0.818,1.249,1.499,2.481,2.147,3.715c0.709,1.178,1.407,2.407,2.05,3.744l-0.341,0.107        C269.031,220.452,239.399,239.148,239.399,239.148z" fill="#6280ff" data-original="#6280ff" class=""></path>
						<path style="" d="M127.664,205.12c0.218,9.94-3.477,19.042-13.649,24.765c-12.616,7.1-24.083,1.715-33.253-7.181        C97.078,215.626,112.956,209.843,127.664,205.12z" fill="#fc09b2" data-original="#fc09b2"></path>
						<g>
							<path style="" d="M258.585,226.551c-2.314,1.3-4.843,2.012-7.48,2.192c5.88-8.243,5.768-21.869-1.116-34.122         c-6.875-12.238-18.462-19.437-28.561-18.703c1.525-2.158,3.449-3.948,5.762-5.248c11.249-6.319,27.389,1.078,36.055,16.503         C271.92,202.613,269.834,220.231,258.585,226.551z" fill="#322bbf" data-original="#322bbf"></path>
							<path style="" d="M231.792,246.542c-2.27,1.275-4.721,2.059-7.269,2.361c7.394-9.228,7.538-25.295-0.539-39.673         c-8.069-14.363-21.866-22.598-33.593-21.083c1.584-2.02,3.528-3.706,5.798-4.981c12.748-7.162,31.052,1.222,40.878,18.714         C246.902,219.387,244.541,239.38,231.792,246.542z" fill="#322bbf" data-original="#322bbf"></path>
						</g>
						<path style="opacity:0.5;" d="M194.041,216.001c-11.985,7.067-59.544,31.817-70.588,37.081        c-2.206,1.055-3.841-1.511-1.913-3.045c18.659-14.789,48.996-30.262,71.27-37.201        C194.986,212.159,196.029,214.828,194.041,216.001z" fill="#ffffff" data-original="#ffffff"></path>
						<g>
							<g style="opacity:0.25;">
								<path style="" d="M72.416,362.594l-54.064-96.235c-1.069-2.96-2.473-5.867-3.436-7.719          c4.673-3.199,9.383-6.267,14.137-9.186c15.019-5.724,26.019-11.314,51.348,0.813c13.074,6.26,22.758,17.377,35.609,23.891          c9.53,4.831,19.789,8.985,30.673,7.638c22.88-2.86,52.939-42.492,78.661-33.547          C208.106,264.53,152.534,326.748,72.416,362.594z" fill="#000e3f" data-original="#000e3f" class=""></path>
							</g>
						</g>
					</g>
					<path style="" d="M264.864,186.26c-4.381-7.788-10.732-13.908-17.895-17.176       c-7.371-3.384-14.719-3.384-20.676-0.023c-2.318,1.298-4.358,3.06-6.004,5.285c-6.815,1.298-12.1,3.546-13.908,4.381       c-3.964-0.023-7.719,0.927-11.103,2.828c-2.295,1.275-4.311,2.99-5.98,5.03l-0.579,0.116       c-32.034,7.487-98.699,23.041-160.635,61.171c-4.682,2.874-9.457,5.98-14.163,9.202l-0.672,0.44       c-0.811,0.533-1.089,1.623-0.603,2.48l58.158,103.497c0.325,0.603,0.95,0.95,1.623,0.95c0.255,0,0.51-0.046,0.742-0.162       c66.688-29.832,111.541-73.758,141.21-102.825c3.964-3.894,7.742-7.557,11.149-10.825c2.55-0.394,4.96-1.229,7.163-2.48       c3.199-1.808,5.864-4.358,7.881-7.557c1.043-0.695,6.259-4.288,11.428-10.06c2.689-0.278,5.192-1.066,7.487-2.364       c5.98-3.361,9.782-9.62,10.732-17.663C271.145,202.671,269.245,194.072,264.864,186.26z M207.332,182.505       c3.106,0.139,6.351,0.95,9.62,2.457c7.371,3.384,13.931,9.712,18.497,17.825c4.566,8.136,6.56,17.037,5.609,25.08       c-0.44,3.686-1.46,7-3.013,9.759c-0.116,0.185-0.209,0.348-0.301,0.51c-1.738,2.897-4.033,5.215-6.861,6.792       c-0.742,0.417-1.484,0.765-2.272,1.066c0.719-1.391,1.321-2.851,1.808-4.381c3.106-9.712,1.483-22.067-4.821-33.286       c-6.258-11.126-15.809-18.891-25.637-21.348c-1.646-0.44-3.315-0.695-4.96-0.811c0.672-0.51,1.368-0.974,2.086-1.391       C200.169,183.061,203.646,182.297,207.332,182.505z M211.782,258.813C182.53,287.463,138.419,330.67,73.191,360.2       L16.725,259.647c4.45-3.013,8.924-5.911,13.305-8.623c61.403-37.806,127.697-53.267,159.546-60.708l1.275-0.301       c0.093-0.023,0.185-0.046,0.278-0.07c11.103-1.136,23.875,7.093,31.246,20.189c7.487,13.328,7.765,28.789,0.695,37.597       c-0.07,0.07-0.116,0.162-0.139,0.255c0,0,0,0-0.023,0.023C219.501,251.256,215.746,254.942,211.782,258.813z M243.724,233.5       c0.464-1.646,0.811-3.384,1.02-5.192c1.043-8.831-1.113-18.521-6.073-27.329c-4.937-8.808-12.1-15.693-20.166-19.378       c-1.576-0.719-3.176-1.321-4.752-1.762c2.341-0.765,5.215-1.553,8.368-2.086c9.527-0.394,20.004,6.653,26.263,17.779       c6.351,11.335,6.838,24.246,1.205,32.127C247.572,229.977,245.509,231.924,243.724,233.5z M266.556,210.066       c-0.394,3.431-1.391,6.444-2.897,8.971c-1.507,2.503-3.523,4.52-5.98,5.911c-0.626,0.325-1.275,0.649-1.924,0.881       c-0.348,0.139-0.695,0.278-1.043,0.371c1.414-3.083,2.225-6.583,2.411-10.292c0.394-7.093-1.46-14.974-5.517-22.183       c-4.01-7.163-9.712-12.818-15.924-16.179c-3.315-1.831-6.792-2.99-10.222-3.384c0.255-0.232,0.51-0.44,0.788-0.626       c0.579-0.487,1.205-0.881,1.854-1.252c4.914-2.758,11.057-2.689,17.315,0.162c6.444,2.967,12.216,8.507,16.226,15.646       C265.629,195.208,267.39,203.019,266.556,210.066z" fill="#000e3f" data-original="#000e3f" class=""></path>
				</g>
				<g>
					<g>
						<path style="" d="M83.236,363.28c-20.745,11.654-51.9-4.396-69.59-35.884        c-17.682-31.474-15.191-66.445,5.554-78.1c7.85-4.41,17.181-4.853,26.713-1.998c15.681,4.687,31.893,18.298,42.891,37.875        c11.006,19.591,14.196,40.518,10.042,56.348C96.327,351.147,91.073,358.878,83.236,363.28z" fill="#ff8ede" data-original="#ff8ede" class=""></path>
						<path style="opacity:0.5;" d="M74.809,351.409c-14.028,7.881-36.539-5.606-50.306-30.112        c-13.759-24.491-13.568-50.733,0.461-58.613c1.703-0.957,3.562-1.599,5.474-1.946c0.474-0.075,0.949-0.15,1.44-0.196        c1.896-0.203,3.843-0.111,5.847,0.218c12.685,2.064,27.465,14.093,37.537,32.021c10.08,17.943,12.657,36.809,7.829,48.73        c-0.761,1.883-1.709,3.603-2.855,5.108c-0.295,0.396-0.621,0.77-0.946,1.144C77.999,349.215,76.512,350.453,74.809,351.409z" fill="#fc09b2" data-original="#fc09b2"></path>
						<path style="" d="M80.236,346.619c-11.758,1.188-26.566-8.03-37.92-23.707c-1.937-2.664-3.771-5.52-5.472-8.547        c-1.447-2.576-2.73-5.167-3.871-7.742c-8.05-18.318-8.401-36.424-1.094-46.08c1.896-0.203,3.843-0.111,5.847,0.218        c5.664,0.915,11.738,3.821,17.622,8.365c1.575,1.202,3.118,2.518,4.652,3.953c5.61,5.215,10.88,11.903,15.262,19.703        c10.08,17.943,12.657,36.809,7.829,48.73C82.33,343.394,81.382,345.113,80.236,346.619z" fill="#6280ff" data-original="#6280ff" class=""></path>
						<g>
							<g style="opacity:0.25;">
								<path style="" d="M80.236,346.619c-11.758,1.188-26.566-8.03-37.92-23.707          c5.422,0.859,10.704,0.515,14.615-4.554c3.708-4.782,2.986-11.69,1.172-17.066c-1.473-4.361-3.596-8.548-4.354-13.1          c-1.032-6.063,1.279-11.593,6.251-15.114c5.61,5.215,10.88,11.903,15.262,19.703c10.08,17.943,12.657,36.809,7.829,48.73          C82.33,343.394,81.382,345.113,80.236,346.619z" fill="#000e3f" data-original="#000e3f" class=""></path>
							</g>
						</g>
						<path style="opacity:0.5;" d="M37.793,267.717c-0.828,18.571,10.624,44.423,10.569,44.256        c0.519,1.58-1.577,2.676-2.582,1.353c-12.59-16.621-14.567-36.558-10.64-46.354c0.574-1.432,2.728-0.974,2.661,0.573        L37.793,267.717z" fill="#ffffff" data-original="#ffffff"></path>
					</g>
					<path style="" d="M68.18,368.955c-6.881,0-14.259-1.936-21.733-5.791c-13.464-6.94-25.686-19.32-34.416-34.86       c-8.726-15.533-12.941-32.411-11.866-47.523c1.095-15.395,7.533-27.15,18.129-33.101c8.041-4.518,17.774-5.27,28.151-2.159       c16.717,4.998,33.158,19.481,43.976,38.745c10.827,19.272,14.648,40.852,10.22,57.725c-2.739,10.46-8.443,18.383-16.497,22.906       C79.324,367.606,73.925,368.955,68.18,368.955z M34.241,247.35c-5.138,0-9.912,1.193-14.132,3.563       c-9.474,5.322-15.241,16.022-16.246,30.134c-1.023,14.394,3.024,30.534,11.4,45.443c8.38,14.913,20.058,26.767,32.882,33.38       c12.575,6.483,24.71,7.115,34.183,1.795l0,0c7.156-4.02,12.247-11.148,14.727-20.615c4.188-15.965,0.5-36.515-9.867-54.968       c-10.361-18.444-25.989-32.277-41.807-37.006C41.537,247.923,37.802,247.35,34.241,247.35z" fill="#000e3f" data-original="#000e3f" class=""></path>
				</g>
			</g>
			<g>
				<g>
					<g>
						<g>
							<path style="" d="M304.088,271.757l-125.625,36.612l-37.247,10.855l-12.585-45.541         c-0.115-0.375-0.104-0.764,0.029-1.107c0.136-0.44,0.431-0.836,0.845-1.087l94.335-58.262         c1.125-0.69,2.504-0.928,3.789-0.616c48.318,11.375,79.298,48.286,79.298,48.286L304.088,271.757z" fill="#ff8ede" data-original="#ff8ede" class=""></path>
						</g>
					</g>
					<g>
						<g>
							<path style="" d="M219.828,275.979l-15.128,7.082l-0.651,0.308c-0.635,0.3-1.385,0.261-1.978-0.114         l-39.652-24.916c-0.7-0.43-1.029-1.184-0.959-1.912c0.044-0.637,0.395-1.275,1.035-1.634l12.849-7.391         c0.262-0.147,0.534-0.242,0.824-0.271c26.13-3.039,39.242,17.643,44.511,25.863         C221.364,274.044,220.946,275.447,219.828,275.979z" fill="#6280ff" data-original="#6280ff" class=""></path>
						</g>
					</g>
					<g>
						<g>
							<path style="" d="M204.7,283.061l-0.651,0.308c-0.635,0.3-1.385,0.261-1.978-0.114l-39.652-24.916         c-0.7-0.43-1.029-1.184-0.959-1.912c25.106-2.101,37.83,17.957,42.986,26.011C204.574,282.634,204.66,282.854,204.7,283.061z         " fill="#322bbf" data-original="#322bbf"></path>
						</g>
					</g>
					<g>
						<g style="opacity:0.5;">
							<path style="" d="M178.463,308.369l-37.247,10.855l-12.585-45.541c-0.115-0.375-0.104-0.764,0.029-1.107         C140.477,276.16,164.765,285.929,178.463,308.369z" fill="#fc09b2" data-original="#fc09b2"></path>
						</g>
					</g>
					<g>
						<path style="" d="M224.756,260.742l-2.49-5.793c-0.159-0.369-0.489-0.637-0.884-0.716L215.198,253        c-0.993-0.198-1.328-1.449-0.567-2.117l4.74-4.158c0.302-0.265,0.455-0.662,0.408-1.062l-0.738-6.262        c-0.118-1.006,0.968-1.711,1.838-1.193l5.42,3.223c0.346,0.206,0.77,0.228,1.136,0.06l5.728-2.637        c0.92-0.423,1.926,0.391,1.703,1.379l-1.391,6.15c-0.089,0.392,0.021,0.803,0.294,1.098l4.278,4.632        c0.687,0.744,0.223,1.953-0.786,2.046l-6.279,0.578c-0.401,0.037-0.757,0.268-0.954,0.619l-3.084,5.5        C226.449,261.74,225.156,261.672,224.756,260.742z" fill="#ffffff" data-original="#ffffff"></path>
						<path style="" d="M252.001,253.865l0.288-5.142c0.018-0.328-0.126-0.644-0.386-0.845l-4.072-3.152        c-0.654-0.506-0.444-1.543,0.356-1.754l4.979-1.315c0.318-0.084,0.573-0.319,0.684-0.628l1.739-4.847        c0.28-0.778,1.33-0.899,1.778-0.204l2.789,4.329c0.178,0.276,0.48,0.447,0.809,0.457l5.148,0.156        c0.827,0.025,1.266,0.987,0.743,1.628l-3.255,3.991c-0.208,0.255-0.277,0.595-0.185,0.91l1.442,4.944        c0.232,0.794-0.548,1.509-1.319,1.21l-4.801-1.863c-0.306-0.119-0.651-0.079-0.923,0.105l-4.256,2.899        C252.875,255.211,251.955,254.691,252.001,253.865z" fill="#ffffff" data-original="#ffffff"></path>
						<path style="" d="M227.592,232.753l-1.252-3.835c-0.08-0.245-0.275-0.434-0.522-0.507l-3.868-1.143        c-0.621-0.184-0.763-1-0.239-1.381l3.26-2.375c0.208-0.152,0.328-0.396,0.321-0.653l-0.109-4.032        c-0.018-0.648,0.715-1.034,1.24-0.654l3.266,2.366c0.208,0.151,0.477,0.19,0.72,0.104l3.801-1.35        c0.611-0.217,1.204,0.361,1.005,0.977l-1.241,3.838c-0.079,0.245-0.033,0.513,0.124,0.717l2.458,3.198        c0.395,0.514,0.029,1.257-0.619,1.258l-4.034,0.006c-0.257,0-0.498,0.127-0.643,0.339l-2.282,3.326        C228.613,233.487,227.793,233.369,227.592,232.753z" fill="#ffffff" data-original="#ffffff"></path>
					</g>
					<path style="opacity:0.5;" d="M206.943,269.858c-1.965-2.176-3.973-4.183-6.135-5.991       c-2.17-1.792-4.451-3.422-6.883-4.794c-2.409-1.412-4.963-2.565-7.597-3.541c-2.646-0.961-5.383-1.69-8.242-2.301l-0.016-0.003       c-0.688-0.147-1.127-0.824-0.98-1.512c0.114-0.537,0.554-0.922,1.067-0.996c3.119-0.442,6.333-0.204,9.426,0.511       c3.105,0.7,6.084,1.927,8.85,3.509c2.743,1.624,5.281,3.605,7.423,5.956c2.149,2.333,3.943,5.004,5.103,7.928       c0.244,0.615-0.057,1.312-0.673,1.556c-0.478,0.189-1.004,0.051-1.33-0.309L206.943,269.858z" fill="#ffffff" data-original="#ffffff"></path>
				</g>
				<path style="" d="M141.216,321.077c-0.312,0-0.625-0.079-0.903-0.236c-0.435-0.24-0.751-0.645-0.885-1.125      l-12.586-45.54c-0.22-0.718-0.195-1.544,0.088-2.273c0.233-0.767,0.82-1.521,1.612-2.001l94.324-58.255      c1.557-0.958,3.452-1.263,5.2-0.84c48.347,11.382,79.967,48.521,80.28,48.895c0.387,0.462,0.527,1.08,0.376,1.662l-2.839,10.861      c-0.165,0.632-0.65,1.13-1.277,1.311l-162.871,47.466C141.565,321.052,141.391,321.077,141.216,321.077z M226.486,214.331      c-0.584,0-1.166,0.163-1.678,0.475l-94.33,58.259l12.029,43.851L302.56,270.27l2.325-8.892      c-4.6-5.15-34.228-36.734-77.681-46.964C226.968,214.358,226.726,214.331,226.486,214.331z M304.088,271.757h0.022H304.088z" fill="#000e3f" data-original="#000e3f" class=""></path>
			</g>
			<g>
				<g>
					<g>
						<path style="" d="M380.015,295.019c-13.127,7.375-31.973-1.26-42.102-19.291        c-6.737-11.991-7.908-25.117-4.066-34.704c1.904-4.86,5.106-8.803,9.501-11.273c13.125-7.374,31.971,1.261,42.093,19.276        c4.472,7.961,6.487,16.42,6.227,24.033C391.339,282.665,387.349,290.899,380.015,295.019z" fill="#ff8ede" data-original="#ff8ede" class=""></path>
						<g>
							<g style="opacity:0.5;">
								<path style="" d="M380.015,295.019c-13.127,7.375-31.973-1.26-42.102-19.291          c-6.737-11.991-7.908-25.117-4.066-34.704c5.224-0.925,10.671-0.635,15.629,0.965c13.498,4.363,19.44,18.62,30.345,26.718          c4.061,3.002,7.752,4.222,11.846,4.353C391.339,282.665,387.349,290.899,380.015,295.019z" fill="#fc09b2" data-original="#fc09b2"></path>
							</g>
						</g>
						<path style="opacity:0.5;" d="M371.408,247.64c-9.688-10.276-19.167-9.885-24.262-10.822l-0.25-0.046        c-1.563-0.289-1.603-2.526-0.049-2.87c17.419-3.835,30.315,7.485,32.836,20.238c0.294,1.492-1.695,2.295-2.523,1.024        C375.424,252.498,373.617,250.025,371.408,247.64z" fill="#ffffff" data-original="#ffffff"></path>
					</g>
					<path style="" d="M369.735,299.484c-12.086,0-25.437-8.604-33.439-22.847c-6.741-11.997-8.337-25.907-4.17-36.302       c2.101-5.369,5.67-9.593,10.313-12.199c6.879-3.864,15.347-3.85,23.852,0.045c8.305,3.803,15.678,10.884,20.764,19.938       c4.45,7.918,6.746,16.799,6.465,25.004c-0.364,10.648-4.957,19.218-12.6,23.513l0,0       C377.482,298.57,373.674,299.484,369.735,299.484z M353.713,228.965c-3.398,0-6.603,0.801-9.458,2.404       c-3.887,2.182-6.888,5.756-8.681,10.333c-3.767,9.39-2.248,22.075,3.954,33.119c9.611,17.104,27.368,25.437,39.577,18.582l0,0       c6.485-3.647,10.39-11.085,10.707-20.407c0.258-7.538-1.87-15.728-5.99-23.062c-4.704-8.373-11.479-14.902-19.076-18.381       C360.98,229.83,357.242,228.965,353.713,228.965z M380.014,295.02h0.023H380.014z" fill="#000e3f" data-original="#000e3f" class=""></path>
				</g>
				<g>
					<g>
						<path style="" d="M173.74,436.175l-58.152-103.511c0.225-0.146,0.427-0.297,0.652-0.443        c4.673-3.199,9.383-6.267,14.137-9.186c62.519-38.492,130.355-53.991,161.379-61.235c11.396-2.65,16.123-7.526,16.123-7.526        s31.07-15.885,48.839,6.201l0.251-0.236c0.815,1.246,1.51,2.483,2.145,3.715c0.714,1.169,1.409,2.406,2.049,3.75l-0.332,0.091        c9.532,26.235-20.11,44.936-20.11,44.936s-6.217,1.406-14.052,9.1c-0.251,0.236-0.507,0.496-0.763,0.754        c-1.575,1.593-3.263,3.326-5.079,5.17c-0.663,0.659-1.333,1.343-2.032,2.041c-1.247,1.256-2.545,2.559-3.892,3.909        c-1.061,1.075-2.166,2.174-3.301,3.29c-2.576,2.538-5.31,5.204-8.195,7.973c-0.471,0.456-0.957,0.92-1.457,1.393        c-0.257,0.259-0.522,0.504-0.787,0.748c-0.506,0.495-1.021,0.976-1.536,1.457c-3.094,2.944-6.371,5.972-9.808,9.09        c-0.579,0.536-1.152,1.049-1.741,1.571c-1.825,1.657-3.718,3.333-5.639,5.025c-0.516,0.443-1.011,0.894-1.527,1.337        c-1.04,0.91-2.094,1.827-3.171,2.739c-3.2,2.755-6.533,5.546-9.955,8.35c-2.531,2.073-5.128,4.163-7.784,6.249        c-1.044,0.835-2.124,1.672-3.205,2.509c-4.322,3.347-8.779,6.694-13.388,10.01c-1.155,0.84-2.304,1.658-3.482,2.492        c-1.128,0.787-2.248,1.588-3.39,2.383c-0.123,0.088-0.261,0.185-0.383,0.273c-1.107,0.756-2.228,1.52-3.35,2.284        c-1.194,0.805-2.403,1.618-3.626,2.439c-2.432,1.635-4.918,3.242-7.427,4.843C206.856,419.638,190.814,428.535,173.74,436.175        z" fill="#6280ff" data-original="#6280ff" class=""></path>
						<g>
							<path style="" d="M260.909,313.969c1.046-4.558,5.779-8.694,11.799-8.381c4.945,0.258,8.767,5.123,3.85,11.387         C270.808,324.3,259.072,321.976,260.909,313.969z" fill="#fc09b2" data-original="#fc09b2"></path>
							<path style="" d="M296.65,293.89c1.046-4.558,5.779-8.694,11.799-8.381c4.945,0.258,8.767,5.123,3.85,11.386         C306.549,304.22,294.813,301.897,296.65,293.89z" fill="#fc09b2" data-original="#fc09b2"></path>
							<path style="" d="M229.176,405.318c1.497-8.308,0.867-20.609-4.986-31.775         c-8.611-16.452-17.664-42.381,2.776-53.845c26.799-15.036,50.155,20.471,55.051,42.169c0.198,0.865,0.333,1.651,0.421,2.386         c-0.516,0.443-1.011,0.894-1.527,1.337C266.065,378.525,248.705,392.336,229.176,405.318z" fill="#fc09b2" data-original="#fc09b2"></path>
						</g>
						<g>
							<path style="" d="M245.028,327.442c2.692-1.484,5.383-2.978,8.186-4.372c1.283-0.644,2.477,0.998,1.483,2.028         c-7.947,8.148-22.118,15.708-33.059,17.939c-0.648,0.132-1.282-0.286-1.413-0.934         C219.981,340.907,219.084,341.527,245.028,327.442z" fill="#ff8ede" data-original="#ff8ede" class=""></path>
							<path style="" d="M233.071,351.479c22.292-13.178,23.63-14.017,27.113-15.916         c1.271-0.697,2.536,0.954,1.519,2.002c-8.715,8.909-24.285,18.107-36.683,21.534c-0.636,0.176-1.294-0.197-1.47-0.833         C223.26,357.216,223.217,357.28,233.071,351.479z" fill="#ff8ede" data-original="#ff8ede" class=""></path>
							<path style="" d="M267.301,348.482c1.212-0.83,2.632,0.737,1.688,1.861         c-9.123,10.864-25.342,20.696-39.276,23.895c-0.641,0.149-1.282-0.251-1.43-0.893         C227.737,370.99,231.21,372.836,267.301,348.482z" fill="#ff8ede" data-original="#ff8ede" class=""></path>
							<path style="" d="M254.046,373.662c19.037-12.933,20.11-15.263,21.366-13.43         c0.331,0.484,0.278,1.118-0.086,1.543c-9.577,11.106-26.356,22.479-40.055,27.41c-0.619,0.223-1.302-0.098-1.525-0.717         C233.151,386.81,234.643,387.168,254.046,373.662z" fill="#ff8ede" data-original="#ff8ede" class=""></path>
						</g>
						<g>
							<path style="" d="M359.908,300.131c-2.314,1.3-4.843,2.012-7.479,2.192c5.88-8.243,5.768-21.869-1.116-34.122         c-6.876-12.238-18.463-19.437-28.561-18.703c1.525-2.158,3.449-3.948,5.763-5.248c11.249-6.319,27.389,1.078,36.055,16.503         C373.244,276.194,371.157,293.812,359.908,300.131z" fill="#322bbf" data-original="#322bbf"></path>
							<path style="" d="M333.116,320.122c-2.27,1.275-4.721,2.059-7.269,2.361c7.394-9.228,7.538-25.295-0.539-39.673         c-8.069-14.363-21.866-22.598-33.593-21.083c1.584-2.02,3.528-3.706,5.798-4.981c12.748-7.162,31.051,1.222,40.878,18.714         C348.225,292.967,345.864,312.96,333.116,320.122z" fill="#322bbf" data-original="#322bbf"></path>
						</g>
						<path style="opacity:0.5;" d="M256.151,283.326c-12.248,6.601-60.723,29.505-71.962,34.341        c-2.245,0.97-3.78-1.658-1.794-3.116c19.214-14.061,50.123-28.356,72.647-34.434        C257.242,279.523,258.182,282.23,256.151,283.326z" fill="#ffffff" data-original="#ffffff"></path>
						<g>
							<g style="opacity:0.25;">
								<path style="" d="M173.74,436.175l-54.064-96.235c-1.069-2.96-2.473-5.867-3.436-7.719          c4.673-3.199,9.383-6.267,14.137-9.186c15.02-5.723,26.019-11.314,51.348,0.813c13.074,6.26,22.759,17.377,35.609,23.891          c9.53,4.831,19.789,8.985,30.673,7.638c22.88-2.86,52.939-42.492,78.661-33.547c-0.43-0.15-3.668,3.563-4.08,3.972          c-1.756,1.741-3.502,3.493-5.25,5.243c-4.528,4.532-9.072,9.048-13.679,13.5c-12.6,12.177-25.651,23.89-39.282,34.904          c-15.79,12.759-32.422,24.651-49.775,35.188C201.434,422.633,187.804,429.882,173.74,436.175z" fill="#000e3f" data-original="#000e3f" class=""></path>
							</g>
						</g>
					</g>
					<g>
						<path style="" d="M366.182,259.856c-9.156-16.318-26.448-24.037-38.571-17.222        c-2.318,1.321-4.335,3.083-5.98,5.285c-6.954,1.321-12.332,3.639-14.047,4.427c-3.871,0-7.603,0.881-10.987,2.782        c-2.295,1.298-4.311,2.99-6.004,5.03l-0.556,0.139c-32.034,7.464-98.699,23.041-160.635,61.148        c-4.636,2.874-9.434,5.98-14.163,9.225l-0.672,0.44c-0.811,0.533-1.066,1.623-0.603,2.457l58.158,103.52        c0.348,0.603,0.974,0.95,1.623,0.95c0.255,0,0.51-0.07,0.765-0.162c66.665-29.855,111.517-73.781,141.21-102.848        c3.941-3.871,7.719-7.557,11.126-10.825c2.55-0.371,4.937-1.229,7.186-2.457c3.222-1.831,5.841-4.404,7.812-7.533        c0.927-0.626,6.212-4.242,11.474-10.106c2.712-0.278,5.215-1.066,7.51-2.364C372.927,294.95,375.338,276.151,366.182,259.856z         M308.65,256.077c10.106,0.464,21.256,8.066,28.117,20.282c3.941,7,5.841,14.441,5.841,21.163        c0,5.123-1.113,9.828-3.268,13.676c-1.715,3.083-4.103,5.586-7.139,7.302c-0.719,0.417-1.483,0.765-2.272,1.066        c0.719-1.368,1.321-2.828,1.785-4.358c3.129-9.712,1.507-22.067-4.798-33.309c-6.235-11.103-15.785-18.868-25.614-21.325        c-1.669-0.44-3.338-0.719-4.984-0.834c0.672-0.51,1.368-0.974,2.109-1.368C301.534,256.611,305.034,255.892,308.65,256.077z         M313.124,332.385c-29.276,28.65-73.364,71.857-138.591,101.411l-56.489-100.553c4.474-3.06,8.947-5.957,13.305-8.623        c61.403-37.806,127.697-53.29,159.546-60.708l1.275-0.301c0.139-0.023,0.278-0.07,0.417-0.093        c11.057-1.089,23.759,7.139,31.107,20.189c7.487,13.328,7.765,28.789,0.695,37.621c-0.046,0.07-0.116,0.162-0.139,0.232        c0,0,0,0-0.023,0.023C320.819,324.828,317.088,328.514,313.124,332.385z M344.973,307.142        c2.735-9.504,1.229-21.557-4.96-32.591c-6.143-10.941-15.53-18.451-25.011-21.117c2.341-0.788,5.239-1.576,8.437-2.109        c9.527-0.371,20.004,6.653,26.263,17.779c6.351,11.335,6.861,24.223,1.252,32.127c-0.023,0.023-0.023,0.023-0.023,0.023        C348.867,303.619,346.781,305.589,344.973,307.142z M358.996,298.519c-0.626,0.348-1.275,0.649-1.924,0.881        c-0.348,0.162-0.695,0.278-1.043,0.394c1.414-3.083,2.225-6.56,2.411-10.245c0.417-7.116-1.437-15.02-5.517-22.252        c-4.033-7.163-9.735-12.842-15.948-16.179c-3.315-1.831-6.768-2.99-10.199-3.384c0.255-0.232,0.51-0.44,0.788-0.626        c0.603-0.464,1.205-0.881,1.854-1.252c10.338-5.795,25.382,1.298,33.541,15.809c3.431,6.143,5.123,12.633,5.123,18.521        C368.083,288.228,364.954,295.158,358.996,298.519z" fill="#000e3f" data-original="#000e3f" class=""></path>
						<path style="" d="M287.819,288.945c-0.862,0.552-1.116,1.698-0.566,2.563c0.828,1.297,1.08,2.845,0.706,4.362        c-0.369,1.492-1.283,2.721-2.578,3.461c-1.288,0.74-2.868,0.901-4.333,0.45c-1.505-0.462-2.712-1.485-3.393-2.879        c-0.448-0.919-1.553-1.306-2.481-0.851c-0.919,0.451-1.302,1.562-0.851,2.481c1.123,2.291,3.176,4.038,5.637,4.794        c0.896,0.276,1.822,0.412,2.744,0.412c1.58,0,3.144-0.403,4.52-1.188c2.15-1.229,3.731-3.341,4.335-5.793        c0.611-2.474,0.181-5.113-1.177-7.246C289.829,288.646,288.686,288.395,287.819,288.945z" fill="#000e3f" data-original="#000e3f" class=""></path>
						<path style="" d="M298.213,274.039c-0.98,0.299-1.532,1.336-1.234,2.316c0.799,2.614-0.211,5.306-2.295,6.13        c-1.709,0.69-3.945-0.043-5.428-1.761c-0.668-0.772-1.84-0.858-2.617-0.19c-0.774,0.67-0.86,1.84-0.19,2.617        c1.84,2.128,4.373,3.3,6.85,3.3c0.939,0,1.87-0.167,2.75-0.516c3.868-1.53,5.836-6.211,4.48-10.662        C300.23,274.294,299.203,273.744,298.213,274.039z" fill="#000e3f" data-original="#000e3f" class=""></path>
						<path style="" d="M268.601,290.67c-0.976,0.315-1.51,1.358-1.197,2.334c0.695,2.157,0.152,4.439-1.322,5.55        c-1.786,1.356-4.611,0.815-6.429-1.229c-0.681-0.765-1.856-0.831-2.619-0.152c-0.765,0.681-0.833,1.854-0.152,2.619        c1.865,2.091,4.43,3.199,6.902,3.199c1.627,0,3.214-0.48,4.534-1.476c2.753-2.08,3.803-5.958,2.617-9.648        C270.622,290.894,269.576,290.355,268.601,290.67z" fill="#000e3f" data-original="#000e3f" class=""></path>
					</g>
				</g>
				<g>
					<g>
						<path style="" d="M184.56,436.861c-20.745,11.655-51.9-4.396-69.59-35.884        c-17.682-31.474-15.191-66.445,5.555-78.1c7.85-4.41,17.181-4.853,26.713-1.998c15.681,4.687,31.893,18.298,42.891,37.875        c11.006,19.591,14.197,40.518,10.042,56.348C197.651,424.727,192.396,432.458,184.56,436.861z" fill="#ff8ede" data-original="#ff8ede" class=""></path>
						<path style="opacity:0.5;" d="M176.133,424.99c-14.028,7.881-36.539-5.606-50.306-30.112        c-13.759-24.491-13.568-50.732,0.461-58.613c1.703-0.957,3.562-1.599,5.474-1.946c0.475-0.075,0.949-0.15,1.441-0.197        c1.895-0.203,3.843-0.111,5.847,0.219c12.684,2.064,27.464,14.093,37.536,32.021c10.08,17.943,12.657,36.809,7.829,48.73        c-0.761,1.883-1.71,3.603-2.855,5.108c-0.295,0.395-0.621,0.77-0.946,1.144C179.323,422.795,177.836,424.033,176.133,424.99z" fill="#fc09b2" data-original="#fc09b2"></path>
						<path style="" d="M181.559,420.199c-11.759,1.188-26.567-8.03-37.92-23.707c-1.937-2.664-3.772-5.52-5.472-8.547        c-1.447-2.576-2.73-5.167-3.871-7.742c-8.05-18.318-8.401-36.424-1.094-46.08c1.895-0.203,3.843-0.111,5.847,0.219        c5.664,0.915,11.738,3.821,17.622,8.365c1.575,1.202,3.118,2.518,4.652,3.953c5.61,5.215,10.881,11.903,15.262,19.703        c10.08,17.943,12.657,36.809,7.829,48.73C183.653,416.974,182.705,418.694,181.559,420.199z" fill="#6280ff" data-original="#6280ff" class=""></path>
						<g>
							<g style="opacity:0.25;">
								<path style="" d="M181.559,420.199c-11.759,1.188-26.567-8.03-37.92-23.707          c5.422,0.86,10.704,0.515,14.615-4.554c3.708-4.782,2.986-11.69,1.172-17.066c-1.473-4.361-3.596-8.548-4.354-13.1          c-1.032-6.064,1.279-11.593,6.251-15.114c5.61,5.215,10.881,11.903,15.262,19.703c10.08,17.943,12.657,36.809,7.829,48.73          C183.653,416.974,182.705,418.694,181.559,420.199z" fill="#000e3f" data-original="#000e3f" class=""></path>
							</g>
						</g>
						<path style="opacity:0.5;" d="M139.117,341.298c-0.828,18.571,10.624,44.423,10.569,44.256        c0.519,1.58-1.577,2.676-2.582,1.353c-12.59-16.621-14.567-36.558-10.64-46.354c0.574-1.432,2.728-0.974,2.661,0.573        L139.117,341.298z" fill="#ffffff" data-original="#ffffff"></path>
					</g>
					<path style="" d="M169.637,442.478c-19.537,0.002-42.187-15.503-56.283-40.594       c-18.154-32.316-15.345-68.484,6.264-80.624c8.049-4.521,17.783-5.258,28.153-2.159c16.712,4.998,33.153,19.481,43.976,38.744       c10.827,19.273,14.646,40.852,10.218,57.725c-2.737,10.46-8.441,18.381-16.495,22.906l0,0       C180.636,441.192,175.266,442.478,169.637,442.478z M135.566,320.93c-5.138,0-9.912,1.193-14.134,3.563       c-19.825,11.139-22,45.042-4.847,75.576c17.154,30.534,47.233,46.314,67.067,35.175l0,0       c7.156-4.02,12.246-11.148,14.723-20.613c4.19-15.968,0.503-36.517-9.863-54.97c-10.363-18.444-25.991-32.277-41.807-37.006       C142.862,321.503,139.127,320.93,135.566,320.93z M184.561,436.86h0.023H184.561z" fill="#000e3f" data-original="#000e3f" class=""></path>
				</g>
			</g>
		</g>
	</g>
	<g>
		<g>
			<g>
				<path style="" d="M425.38,134.635c-1.236-0.512-3.409-0.697-18.028-5.211l0.235-0.819      c4.541-13.525,5.709-18.381,9.267-31.252c1.376-0.145,5.736,1.032,7.257,2.264c-2.531,7.825-4.726,16.887-7.153,24.692      l-0.014,0.045c1.29-0.018,10.223,3.477,11.735,3.721c-0.095,0.319-0.199,0.684-0.339,0.992      c-0.217,0.577-0.462,1.249-0.561,1.766C426.729,135.275,426.657,135.006,425.38,134.635z" fill="#000e3f" data-original="#000e3f" class=""></path>
				<path style="" d="M448.795,137.365c-0.661,1.938-1.548,4.043-2.766,5.596c-5.94-2.549-12.482-4.781-17.928-7.637      c4.269-10.168,7.85-20.16,12.636-29.957c6.94,2.503,18.363,7.094,18.254,7.361c-0.557,2.187-1.752,4.161-2.617,6.22      l-0.018,0.045c-4.075-0.733-7.701-3.029-11.699-4.296l-0.136-0.059l-0.059,0.027c-0.675,1.725-1.847,3.4-2.114,5.145      l0.027,0.061c1.698,0.869,3.554,1.598,5.333,2.395l-0.018,0.045c-0.521,2.101-1.612,3.961-2.472,6.13      c-1.996-0.274-4.686-1.971-5.505-1.748c-1.023,1.58-1.843,4.02-2.3,5.478l0.027,0.064c3.853,1.618,7.343,3.497,11.386,5.043      L448.795,137.365z" fill="#000e3f" data-original="#000e3f" class=""></path>
				<path style="" d="M477.471,131.223c-0.919-0.79-2.372-1.496-5.052-2.841l-0.082-0.045l-0.045-0.022      c-0.023,0.041-0.086,0.059-0.109,0.099c-0.607,0.695-2.263,3.744-12.101,22.034l-0.022,0.041l-0.023,0.041      c-2.218-0.806-4.785-2.739-6.959-3.527c0.154-0.566,4.093-6.42,12.11-22.243l-0.018-0.068c-0.91-1.381-4.147-2.707-4.69-3.287      c0.023-0.53,1.811-4.102,3.486-6.596c0.023-0.041-0.018-0.064,0.005-0.109c5.659,3.124,11.948,6.383,17.276,10.193      C480.346,126.789,478.879,129.397,477.471,131.223z" fill="#000e3f" data-original="#000e3f" class=""></path>
				<path style="" d="M482.379,138.956c-0.439-0.292-4.559-2.252-4.319-2.782c1.639-1.417,8.38-7.37,9.041-8.013      c-0.068,0.009,3.445,2.196,4.486,2.947l-0.027,0.041c-4.441,3.893-5.351,4.998-9.05,7.782c0,0-0.027,0.038-0.091,0.054      L482.379,138.956z" fill="#000e3f" data-original="#000e3f" class=""></path>
				<path style="" d="M505.938,156.474c-1.974-1.109-4.161-2.639-5.505-4.527c2.775-2.209-1.209-7.099-3.862-4.661      c-0.38,0.242-0.575,0.636-0.806,0.994c-0.552,1.512,0.195,2.549,1.109,3.534c2.381,2.42,3.504,5.781,3.237,9.052      c-0.059,3.619-2.594,6.823-5.84,8.412c-3.635,2.065-7.628,1.028-10.562-1.535c-4.228-3.613-6.669-10.182-2.572-14.628      l0.091-0.109l0.09-0.113c1.942,1.15,3.984,3.232,5.673,4.541c-2.359,3.287,2.965,7.732,5.161,3.821      c1.621-2.599-1.028-5.297-2.762-7.377c-0.847-0.994-1.272-2.132-1.494-3.289c-1.032-8,6.664-12.885,12.971-11.01      c3.205,0.951,6.365,4.065,7.86,7.049c1.372,3.133,0.942,6.759-2.753,9.879L505.938,156.474z" fill="#000e3f" data-original="#000e3f" class=""></path>
			</g>
		</g>
		<g>
			<g>
				<path style="" d="M376.404,164.741c-0.136,2.042-0.448,4.301-1.227,6.112c-6.392-0.928-13.283-1.404-19.277-2.757      c1.508-10.915,2.391-21.487,4.491-32.18c7.348,0.631,19.558,2.128,19.522,2.408c0.023,2.259-0.616,4.473-0.924,6.682      l-0.009,0.045c-4.12,0.344-8.212-0.942-12.405-1.137l-0.14-0.018l-0.054,0.038c-0.208,1.84-0.905,3.76-0.715,5.512l0.041,0.054      c1.865,0.401,3.848,0.625,5.768,0.939l-0.005,0.048c0.036,2.164-0.539,4.242-0.81,6.555c-2.001,0.249-5.034-0.697-5.763-0.272      c-0.584,1.793-0.747,4.355-0.815,5.883l0.041,0.052c4.142,0.575,7.995,1.49,12.296,1.938L376.404,164.741z" fill="#000e3f" data-original="#000e3f" class=""></path>
				<path style="" d="M396.559,159.675c-0.484,5.419,0.285,11.318,0.204,16.697c-0.398-0.154-0.765-0.249-1.181-0.358      c-0.965-0.254-1.911-0.401-2.965-0.675c-0.783-0.208-1.413-0.421-1.974-0.715l-0.036-0.059      c-0.561-3.287,0.276-7.832-0.435-11.11l-0.036-0.059c-2.472,3.085-3.907,6.884-6.193,9.625      c-0.702-0.134-1.449-0.281-2.187-0.471c-1.422-0.371-2.938-0.77-3.979-1.485c2.427-4.224,6.388-9.426,8.837-14.284      c0.344-5.654-0.471-11.368-1.136-17.09c2.014,0.38,3.54,0.729,4.645,1.019c1.657,0.43,2.232,0.484,2.331,0.856      c0.064,2.764,0.118,8.375,0.38,10.947c1.748-2.191,4.328-7.167,5.908-9.65l0.014-0.045c1.643,0.283,3.586,0.74,7.081,1.65      l0.045,0.014c-0.013,0.045-0.059,0.036-0.072,0.081C402.717,149.448,398.923,154.202,396.559,159.675z" fill="#000e3f" data-original="#000e3f" class=""></path>
				<path style="" d="M427.368,163.256c-0.154,0.398-0.312,0.797-0.493,1.132c-2.902,5.344-10.295,7.302-15.556,4.179      c-0.503,1.686-1.028,2.504-4.161,11.173l-0.018,0.043c-0.041-0.016-0.104,0.011-0.15-0.007c-1.811-0.197-5.55-1.711-7.456-2.709      c3.002-8.722,8.118-20.647,11.599-30.607c8.063,0.905,19.644,6.501,16.253,16.753L427.368,163.256z M415.325,155.186      c-0.045-0.016-0.09-0.034-0.154-0.007c-0.697,2.173-2.078,4.794-2.191,6.791l0.131,0.054c1.91,0.593,4.373,1.861,6.343,0.996      c1.49-0.946,2.101-3.155,0.914-4.69C419.372,156.565,417.417,155.442,415.325,155.186z" fill="#000e3f" data-original="#000e3f" class=""></path>
				<path style="" d="M436.25,194.141c-1.109-0.749-3.201-1.367-16.624-8.715l0.398-0.756      c7.158-12.344,9.272-16.866,15.334-28.766c1.376,0.136,5.415,2.159,6.66,3.672c-4.047,7.162-8.013,15.596-11.952,22.763      l-0.023,0.041c1.268,0.24,9.317,5.451,10.752,5.994c-0.154,0.292-0.331,0.629-0.53,0.901c-0.331,0.525-0.702,1.132-0.905,1.616      C437.441,195.038,437.427,194.759,436.25,194.141z" fill="#000e3f" data-original="#000e3f" class=""></path>
				<path style="" d="M469.005,185.789c-0.765,1.378-1.643,2.676-2.567,3.943c-2.06,2.68-3.64,5.338-5.682,7.914      l-1,1.213c-1.376,1.766-3.115,3.396-5.102,4.283c-1.757,0.643-3.771,0.308-5.677-0.358c-1.743-0.557-3.291-1.494-4.74-2.658      c-2.024-1.666-3.785-3.554-3.309-6.279c0.136-1.802,1.023-3.441,2.028-4.998c2.621-4.188,5.116-8.525,8.199-12.461      c1.643-2.329,3.789-4.548,6.655-5.295c0.462-0.09,0.896-0.136,1.385-0.09c4.604,0.665,9.421,4.061,10.865,8.434      c0.29,1.175,0.281,2.377-0.023,3.493C469.856,183.955,469.453,184.888,469.005,185.789z M461.051,186.925      c0.027-0.041,0.792-1.417,1.367-2.35c0.869-1.53,1.051-3.307,0.231-4.726c-0.765-1.152-2.182-1.603-3.436-1.535      c-1.385,0.09-2.626,0.566-3.69,1.453c-1.797,1.707-3.359,3.916-4.74,6.198c-0.982,2.028-2.359,3.966-3.024,6.039      c-0.398,2.78,2.739,5.261,5.582,4.55c1.861-0.625,1.467-0.892,3.219-3.033c0.76-1.037,1.385-1.874,1.467-1.992l1.281-1.883      L461.051,186.925z" fill="#000e3f" data-original="#000e3f" class=""></path>
				<path style="" d="M473.605,222.708c-1.671-1.48-3.957-3.122-5.972-5.154l-0.032-0.029      c0.991-2.992,2.78-9.023,2.952-13.31l0.027-0.168c-2.177,1.883-6.008,6.931-7.506,8.837c-2.2-0.738-5.98-4.781-6.537-5.084      c0.285,0.253,20.001-22.396,21.754-25.099c3.015,1.972,6.696,4.337,9.801,7.783c5.374,5.261,3.554,14.628-3.776,16.964      c-2.4,0.919-4.957,0.874-7.361-0.996l-0.145-0.127l-0.036-0.032l-0.032,0.034c-1.123,5.286-1.132,11.18-3.174,16.35      L473.605,222.708z M475.388,196.817l0.032,0.032c1.01,1.082,2.3,2.349,3.595,3.178c2.164,1.213,4.822-1.508,4.419-3.703      c-0.181-1.874-2.082-3.241-4.355-4.043C478.118,193.585,476.154,195.59,475.388,196.817z" fill="#000e3f" data-original="#000e3f" class=""></path>
				<path style="" d="M492.266,234.171c-1.422,1.476-3.119,2.997-4.88,3.878c-4.283-4.837-9.24-9.646-12.944-14.553      c8.199-7.366,15.696-14.868,24.203-21.677c5.202,5.224,13.564,14.247,13.351,14.437c-1.435,1.743-3.355,3.015-5.016,4.509      l-0.036,0.032c-3.368-2.4-5.663-6.021-8.742-8.878l-0.095-0.104l-0.063-0.005c-1.349,1.272-3.119,2.291-4.106,3.749v0.068      c1.163,1.508,2.531,2.961,3.798,4.441l-0.036,0.032c-1.367,1.675-3.151,2.893-4.849,4.482c-1.693-1.096-3.395-3.78-4.228-3.925      c-1.603,0.992-3.382,2.848-4.419,3.968l-0.005,0.066c2.793,3.113,5.147,6.297,8.14,9.419L492.266,234.171z" fill="#000e3f" data-original="#000e3f" class=""></path>
			</g>
		</g>
	</g>
	<g>
		<g>
			<path style="" d="M137.494,79.151c-1.962,2.296-6.016,5.144-9.554,14.545c-0.317,0.843-0.65,1.692-1.094,2.47     c-0.619,1.084-1.936,1.152-2.666,0.111c-1.651-2.355-1.745-6.098-7.249-12.568c-3.23-3.796-6.376-4.992-3.672-7.288     c6.739-5.726,9.055-14.311,10.282-16.582c0.53-0.98,1.787-1.057,2.476-0.194c0.738,0.926,1.119,2.048,1.563,3.132     c3.282,8.027,7.808,11.695,9.656,13.479C137.699,76.703,138.17,78.361,137.494,79.151z" fill="#fd8a02" data-original="#fd8a02"></path>
		</g>
		<g>
			<path style="" d="M128.049,166.774c-1.962,2.296-6.016,5.144-9.554,14.545c-0.317,0.843-0.65,1.693-1.094,2.47     c-0.618,1.084-1.936,1.152-2.666,0.111c-1.651-2.355-1.744-6.098-7.249-12.568c-3.23-3.796-6.376-4.992-3.672-7.289     c6.739-5.726,9.055-14.311,10.282-16.582c0.53-0.98,1.787-1.057,2.476-0.194c0.738,0.926,1.119,2.048,1.563,3.132     c3.282,8.027,7.808,11.695,9.656,13.479C128.254,164.326,128.726,165.984,128.049,166.774z" fill="#fd8a02" data-original="#fd8a02"></path>
		</g>
		<g>
			<path style="" d="M77.53,141.854c-0.471,0.551-0.949,1.103-1.475,1.6c-7.412,7.012-9.155,15.135-10.789,17.998     c-0.712,1.248-2.23,1.327-3.071,0.127c-0.586-0.836-1.03-1.803-1.384-2.769C55.3,143.742,44.96,142.667,49.616,138.71     c7.762-6.595,10.429-16.483,11.842-19.099c0.611-1.129,2.059-1.218,2.852-0.223c0.85,1.066,1.289,2.358,1.799,3.607     c3.788,9.262,9.019,13.494,11.122,15.525C77.766,139.035,78.311,140.942,77.53,141.854z" fill="#fd8a02" data-original="#fd8a02"></path>
		</g>
		<g>
			<path style="" d="M365.808,412.962c-1.963,2.296-6.016,5.144-9.554,14.545c-0.317,0.843-0.65,1.693-1.094,2.47     c-0.618,1.084-1.936,1.152-2.666,0.111c-1.651-2.355-1.745-6.098-7.249-12.568c-3.23-3.797-6.376-4.992-3.672-7.289     c6.739-5.726,9.055-14.311,10.282-16.582c0.529-0.98,1.787-1.057,2.476-0.194c0.738,0.926,1.119,2.048,1.563,3.132     c3.282,8.027,7.808,11.695,9.656,13.479C366.013,410.514,366.485,412.172,365.808,412.962z" fill="#fd8a02" data-original="#fd8a02"></path>
		</g>
		<g>
			<path style="" d="M475.206,389.335c-1.962,2.296-6.016,5.144-9.554,14.545c-0.317,0.843-0.65,1.692-1.094,2.47     c-0.618,1.084-1.936,1.152-2.667,0.111c-1.65-2.355-1.744-6.098-7.249-12.568c-3.231-3.796-6.376-4.992-3.672-7.288     c6.739-5.726,9.055-14.311,10.282-16.582c0.53-0.98,1.787-1.057,2.476-0.194c0.738,0.926,1.119,2.048,1.563,3.132     c3.282,8.026,7.808,11.695,9.656,13.479C475.411,386.887,475.883,388.545,475.206,389.335z" fill="#fd8a02" data-original="#fd8a02"></path>
		</g>
		<g>
			<path style="" d="M437.418,437.288c-2.26,2.642-6.923,5.911-11.004,16.752c-0.365,0.971-0.749,1.95-1.26,2.846     c-0.712,1.248-2.23,1.327-3.071,0.127c-1.904-2.715-2.009-7.024-8.349-14.475c-3.72-4.373-7.343-5.749-4.23-8.395     c7.762-6.595,10.429-16.483,11.843-19.099c0.61-1.13,2.059-1.218,2.852-0.224c0.85,1.067,1.289,2.359,1.8,3.608     c3.788,9.262,9.019,13.495,11.122,15.525C437.654,434.469,438.198,436.378,437.418,437.288z" fill="#fd8a02" data-original="#fd8a02"></path>
		</g>
	</g>
</g>















</g></svg>