<svg xmlns="http://www.w3.org/2000/svg" version="1.1" xmlns:xlink="http://www.w3.org/1999/xlink" xmlns:svgjs="http://svgjs.com/svgjs" width="512" height="512" x="0" y="0" viewBox="0 0 512 512" style="enable-background:new 0 0 512 512" xml:space="preserve" class=""><g>
<g>
	<g>
		<g>
			<g>
				<path style="" d="M5.924,243.944c-4.661-9.358-5.261-19.01-1.973-28.924c5.609-16.913,17.543-20.691,32.571-25.211      c2.893-0.87,1.653,1.581,5.008,8.461c11.471,23.526,39.81,40.878,65.853,39.195c7.686-0.497,14.218-5.689,15.832-14.57      c2.347-12.917-22.973-8.584-42.761-30.826c-2.809-3.157-4.977-6.699-6.158-10.791c-0.4-1.387-0.2-1.807,1.196-2.211      c19.829-5.737,46.693-7.239,67.094-1.384c53.357,15.313,83.928,22.566,184.279,60.929      c54.415,20.801,72.689,17.204,119.735-16.996c7.884-5.731,21.051-13.475,30.824-13.331c4.016,0.059,7.306,3.677,8.628,7.362      c3.939,10.979-2.077,20.346-8.173,30.49c-1.571,2.615-0.821,1.847-26.988,2.831c-0.204,0.008-8.873,0.333-9.497,0.532      c-0.487,0.155-1.379-0.074-1.286,0.721c0.04,0.345,34.208-1.111,34.413-1.124c3.131-0.201,0.379-2.69,34.884,51.703      c4.14,6.527-2.229,13.19-8.777,12.275c-26.642-3.72-53.158-43.705-55.077-44.805c-0.013,0.138-0.087,0.312-0.03,0.407      c5.882,9.689,8.271,9.137,6.325,11.097c-10.847,10.921-21.783,21.414-37.282,32.223c-49.359,34.426-75.841,32.293-104.81,33.543      c-1.448,0.062-2.322-0.575-3.083-1.708c-9.68-14.423-32.128-42.56-45.098-54.928c-27.634-26.35-71.493-27.879-93.263-8.311      c-1.821,1.637-0.953,2.272,2.39,6.055c19.819,22.423,18.117,20.178,19.046,21.605c0.286,0.439-0.059,1.069-0.591,1.111      c-0.33,0.026-0.666,0.004-0.998-0.02c-6.131-0.438-11.381,4.545-15.015,9.492c-5.56,7.568-3.159,9.256-7.48,8.133      c-20.147-5.232-26.112-7.005-46.565-13.762C85.796,302.206,21.496,275.211,5.924,243.944z M436.894,252.177      c-0.311,0.773,0.299,1.048,0.526,0.595c0.154-0.306,0.123-0.622-0.183-0.826C437.193,251.916,437.009,252.097,436.894,252.177z" fill="#6280ff" data-original="#6280ff"></path>
				<path style="" d="M319.366,429.073c-7.228-2.855-47.15-38.996-56.335-47.636      c-42.258-39.754-86.867-89.425-93.919-98.264c-0.695-0.871-0.631-1.303,0.241-2.128c19.322-18.273,65.985-19.167,96.283,13.427      c29.447,31.68,58.457,74.289,79.256,111.093c2.366,4.186,4.518,9.397,4.226,14.215      C348.548,429.183,332.504,436.293,319.366,429.073z" fill="#6280ff" data-original="#6280ff"></path>
				<path style="" d="M227.43,178.179c0.903,8.99,0.784,19.973,0.564,22.257c-0.227,2.354-0.218,1.259-32.822-8.869      c-24.144-7.501-24.981-6.273-23.652-9.36C196.074,125.132,222.413,128.221,227.43,178.179z" fill="#6280ff" data-original="#6280ff"></path>
				<path style="" d="M183.695,372.642c-0.968-0.393-1.607-0.392-1.662-1.015c-0.155-1.795,5.291-1.008,11.099-9.645      c1.659-2.468,3.242-4.98,4.353-7.821c8.855-22.641,1.38-31.51,3.681-32.603c0.722-0.343,1.225,0.312,1.679,0.792      c48.477,51.194,47.36,46.316,46.038,50.02c-2.889,8.1-15.126,9.33-23.752,8.968c-15.319-0.643-28.018-4.377-40.331-8.259      C184.246,372.903,183.714,372.65,183.695,372.642z" fill="#6280ff" data-original="#6280ff"></path>
				<path style="" d="M445.318,192.892c4.732,4.994,8.585,10.626,11.947,16.613c2.043,3.638,1.104,3.577-1.39,4.987      c-10.749,6.076-11.484,8.212-25.499,17.195c-2.497,1.6-2.752,1.435-3.019-1.545c-1.077-11.999-1.853-47.73,9.406-43.633      C437.308,186.707,443.115,190.567,445.318,192.892z" fill="#6280ff" data-original="#6280ff"></path>
			</g>
			<g>
				<path style="" d="M39.93,190.511c-0.365-1.938-0.023-1.415,13.89-3.848c7.973-1.394,9.276-3.695,17.411-6.21      c4.756-1.47-1.808,9.4,23.962,24.705c6.811,4.046,14.734,7.551,22.713,9.635c2.538,0.663,4.731,4.605,4.515,7.13      c-0.682,7.98-7.58,13.829-14.077,14.438c-5.899,0.553-11.672-0.019-17.402-1.318C64.499,229.044,43.036,206.975,39.93,190.511z" fill="#00d5fe" data-original="#00d5fe"></path>
				<path style="" d="M181.689,369.771c-5.868,1.883-11.125-2.349-13.43-8.038      c-10.684-26.366,12.394-62.431,26.389-48.268C207.33,326.497,199.387,364.031,181.689,369.771z" fill="#00d5fe" data-original="#00d5fe"></path>
				<path style="" d="M159.07,246.376c-1.839-0.076-3.647-0.468-5.375-1.165c-8.003-3.23-11.974-12.152-8.852-19.886      c2.396-5.936,8.228-9.593,14.858-9.318c3.389,0.141,6.578,1.328,9.227,3.434c5.396,4.205,7.438,11.45,4.954,17.607      C171.521,242.898,165.569,246.646,159.07,246.376z" fill="#00d5fe" data-original="#00d5fe"></path>
				<path style="" d="M200.459,258.137c-6.081-0.252-11.412-3.781-13.919-9.209      c-2.232-4.836-1.873-10.057,0.983-14.324c3.005-4.489,8.205-7.139,13.569-6.917c3.281,0.136,6.461,1.357,9.194,3.532      c5.396,4.205,7.438,11.45,4.954,17.607C212.847,254.756,207.046,258.411,200.459,258.137z" fill="#00d5fe" data-original="#00d5fe"></path>
				<path style="" d="M243.373,268.587c-6.081-0.252-11.412-3.78-13.919-9.208c-2.226-4.823-1.868-10.031,0.983-14.287      c3.013-4.5,8.226-7.156,13.607-6.933c3.273,0.136,6.439,1.349,9.158,3.512c5.396,4.207,7.438,11.451,4.954,17.605      C255.763,265.206,249.96,268.861,243.373,268.587z" fill="#00d5fe" data-original="#00d5fe"></path>
			</g>
			<g>
				<path style="" d="M89.838,253.288c60.125,24.555,78.252,25.494,77.597,28.437c-0.202,0.91,0.377,1.551,0.949,2.198      c22.144,25.076,21.735,24.157,21.392,24.975c-0.821,1.956-9.958-4.367-20.951,17.46c-0.392,0.778-1.01,1.076-1.859,0.873      C123.86,316.89,66.179,296.437,30.571,270.325c-19.181-14.066-33.396-30.918-27.163-53.793      C4.959,210.842,5.002,218.64,89.838,253.288z" fill="#322bbf" data-original="#322bbf" class=""></path>
				<path style="" d="M320.511,365.754c10.353,15.954,19.253,30.746,24.449,39.928      c3.269,5.778,6.401,14.309,2.059,19.453c-6.203,7.35-19.709,10.277-31.578,1.525c-28.068-20.698-81.72-73.291-83.858-75.85      c-0.736-0.881-0.63-1.475,0.449-1.931c17.518-7.396,34.949-9.349,53.336-4.495C302.224,348.835,316.628,359.771,320.511,365.754      z" fill="#322bbf" data-original="#322bbf" class=""></path>
				<path style="" d="M308.258,345.387c-2.005-0.92,2.186,1.596-28.059-36.039c-0.698-0.868-1.835-1.504-1.765-2.86      c2.391-1.035,54.37,11.158,134.255,4.696c0.84-0.068,2.111-0.116,1.728,0.626c-0.464,0.899-9.212,6.495-9.386,6.607      c-30.919,19.899-58.188,27.856-95.694,27.083C308.924,345.491,308.513,345.415,308.258,345.387z" fill="#322bbf" data-original="#322bbf" class=""></path>
				<path style="" d="M188.088,366.157c-2.714-0.18-5.328-1.732-7.434-5.279c-9.675-16.312,3.093-45.335,15.898-45.074      C204.65,327.489,200.907,354.816,188.088,366.157z" fill="#322bbf" data-original="#322bbf" class=""></path>
			</g>
			<g style="opacity:0.25;">
				<path style="" d="M181.941,286.296c2.239,1.125,4.556,2.12,6.698,3.407      c50.737,30.51,101.237,118.49,145.882,101.821c2.093-0.782,1.228-1.744,8.741,11.2c3.972,6.844,8.813,16.414,3.683,22.489      c-6.383,7.559-19.929,9.966-31.404,1.527c-34.858-25.636-116.767-106.748-146.573-143.773c-0.263-0.326-0.441-0.726-0.228-1.16      c0.259-0.529,0.749-0.657,1.265-0.575c1.657,0.262,3.252,0.793,4.761,1.484C177.195,283.83,179.553,285.096,181.941,286.296z" fill="#000e3f" data-original="#000e3f" class=""></path>
				<path style="" d="M140.426,301.959c17.25,6.313,36.932,10.173,37.122,10.236c2.316,0.773-3.154,2.758-7.884,12.492      c-1.321,2.718-0.996,3.092-4.775,2.053c-4.827-1.328-9.701-2.486-14.515-3.856C31.856,289.154,3.053,245.831,7.99,245.663      C23.847,245.123,59.339,272.281,140.426,301.959z" fill="#000e3f" data-original="#000e3f" class=""></path>
				<path style="" d="M447.65,282.105c0.831,0.333,0.967,0.843,0.317,1.517c-17.516,18.17-42.558,36.909-68.144,48.596      c-22.076,10.084-35.63,12.121-59.188,13.016c-11.97,0.455-12.58,0.678-13.757-1.097c-5.918-8.922-11.538-15.143-11.619-16.505      c1.45-1.349,19.68,4.184,52.317-3.206C393.235,314.087,417.482,270.03,447.65,282.105z" fill="#000e3f" data-original="#000e3f" class=""></path>
				<path style="" d="M466.971,266.826c-10.988-5.365-19.27-2.07-27.669-10.506c-2.072-2.081-2.285-3.45-1.61-5.33      c0.259-0.72-0.915-0.409,21.825-1.267c17.08-0.645,16.76-1.363,18.287,1.111c28.006,45.401,35.958,54.085,31.821,54.082      C488.915,304.901,481.765,274.049,466.971,266.826z" fill="#000e3f" data-original="#000e3f" class=""></path>
				<path style="" d="M183.276,372.478c-0.309-0.122-0.628-0.225-0.926-0.371c-0.371-0.182-0.445-0.809-0.133-1.063      c8.983-7.307,25.424-2.79,35.775-11.621c3.349-2.857,6.176-10.093,4.03-14.88c-2.393-5.338,2.401,0.718,24.954,23.039      c2.234,2.212,2.856,2.74,1.59,5.584c-3.762,8.449-18.84,8.743-28.049,7.881c-15.35-1.437-24.501-4.529-37.274-8.464      C183.255,372.547,183.265,372.513,183.276,372.478z" fill="#000e3f" data-original="#000e3f" class=""></path>
				<path style="" d="M171.509,182.235c0.328-0.796,1.04-1.185,1.85-1.485c14.5-5.36,49.958,7.875,45.435-30.872      c-0.077-0.655-0.267-1.205,0.138-1.346c0.123-0.043,0.368,0.006,0.434,0.102c0.422,0.618,0.873,1.229,1.198,1.898      c4.736,9.736,6.422,21.034,7.211,31.789c0.516,7.034,0.407,15.998,0.278,17.522c-0.21,2.481-0.642,1.98-7.291-0.137      c-46.943-14.948-42.618-12.968-48.278-14.918C171.174,184.337,170.866,183.551,171.509,182.235z" fill="#000e3f" data-original="#000e3f" class=""></path>
				<path style="" d="M435.46,216.17c7.024-7.019,2.747-14.682,3.104-22.386c0.108-2.334,0.818-6.113,2.618-4.612      c7.612,6.351,11.461,12.494,16.058,20.315c2.841,4.833,0.649,2.864-8.986,9.789c-17.969,12.915-20.287,14.487-20.624,12.812      C425.818,223.064,430.516,221.11,435.46,216.17z" fill="#000e3f" data-original="#000e3f" class=""></path>
				<path style="" d="M167.252,283.271c-0.14,0.023-0.32,0.113-0.412,0.057c-0.488-0.295-0.565-1.076-0.138-1.419      c0.084-0.067,0.353-0.045,0.423,0.035C167.424,282.287,167.463,282.934,167.252,283.271z" fill="#000e3f" data-original="#000e3f" class=""></path>
				<path style="" d="M188.088,366.157c-7.408-0.493-10.706-10.954-10.851-18.35      c6.545,1.277,12.659-2.597,15.772-14.635c0.717-2.759,2.413-9.626,4.879-11.623c0.592-0.472,1.16-0.384,1.395,0.287      C203.806,336.188,198.156,357.25,188.088,366.157z" fill="#000e3f" data-original="#000e3f" class=""></path>
			</g>
			<g style="opacity:0.25;">
				<path style="" d="M39.942,190.572c-0.3-1.685,0.435-1.556,3.441-2.148c1.024-0.202,1.964-0.006,2.906,0.453      c14.487,7.061,26.407,28.563,43.267,35.084c12.798,4.951,23.142,2.114,29.215-4.087c1.646-1.681,2.453-3.116,3.372-0.445      c1.847,5.366-3.931,15.54-13.025,16.816C81.399,240.134,44.185,214.385,39.942,190.572z" fill="#322bbf" data-original="#322bbf" class=""></path>
				<path style="" d="M188.088,366.157c-4.854,4.43-10.41,5.702-15.393,1.715c-6.732-5.38-7.945-19.731-6.835-25.156      c0.551-2.578,4.157,3.728,11.378,5.09C177.382,355.2,180.678,365.664,188.088,366.157z" fill="#322bbf" data-original="#322bbf" class=""></path>
				<g>
					<path style="" d="M172.112,236.332c-2.732,6.768-10.659,9.951-17.703,7.108c-3.467-1.399-6.072-4.008-7.496-7.092       c5.981,0.181,11.67-1.685,15.527-5.27c2.872-2.673,4.685-6.242,5.299-10.143C172.4,224.566,174.347,230.797,172.112,236.332z" fill="#322bbf" data-original="#322bbf" class=""></path>
				</g>
				<g>
					<path style="" d="M213.47,248.112c-2.732,6.768-10.659,9.951-17.703,7.108c-3.467-1.399-6.071-4.009-7.496-7.092       c5.981,0.181,11.67-1.686,15.527-5.27c2.872-2.673,4.685-6.242,5.299-10.143C213.758,236.346,215.704,242.577,213.47,248.112z" fill="#322bbf" data-original="#322bbf" class=""></path>
				</g>
				<g>
					<path style="" d="M256.385,258.563c-2.732,6.768-10.659,9.951-17.703,7.108c-3.467-1.399-6.072-4.008-7.496-7.092       c5.981,0.181,11.67-1.686,15.527-5.27c2.872-2.673,4.685-6.242,5.299-10.143C256.673,246.797,258.62,253.027,256.385,258.563z" fill="#322bbf" data-original="#322bbf" class=""></path>
				</g>
			</g>
			<g style="opacity:0.5;">
				<path style="" d="M206.165,210.578c-9.259-2.103-18.378-4.676-27.441-7.281      c-9.071-2.575-18.067-5.273-27.112-7.494c-9.027-2.278-18.112-4.074-27.243-4.864c-9.133-0.775-18.311-0.405-27.409,1.382      l-0.014,0.003c-0.962,0.189-1.895-0.437-2.083-1.399c-0.171-0.868,0.323-1.712,1.128-2.008      c9.112-3.354,19.013-4.588,28.727-4.281c9.746,0.266,19.311,2.028,28.604,4.325c9.288,2.375,18.352,5.278,27.284,8.433      c8.939,3.143,17.774,6.467,26.55,10.007c0.856,0.343,1.271,1.315,0.928,2.171C207.775,210.344,206.951,210.756,206.165,210.578z      " fill="#ffffff" data-original="#ffffff"></path>
				<path style="" d="M273.784,325.768c-3.694-4.998-7.609-9.701-11.885-14.033c-4.289-4.31-8.873-8.299-13.802-11.814      c-4.891-3.569-10.117-6.664-15.554-9.375c-5.454-2.693-11.142-4.929-17.037-6.865l-0.008-0.003      c-0.935-0.307-1.444-1.314-1.137-2.248c0.262-0.799,1.035-1.286,1.837-1.22c6.458,0.527,12.836,2.159,18.899,4.564      c6.081,2.386,11.825,5.617,17.136,9.436c5.271,3.872,10.119,8.335,14.266,13.377c4.16,5.02,7.682,10.575,10.182,16.546      c0.357,0.854-0.045,1.836-0.899,2.193C275.057,326.628,274.232,326.374,273.784,325.768z" fill="#ffffff" data-original="#ffffff"></path>
				<path style="" d="M208.426,149.797c-1.748,1.826-3.426,3.481-5.02,5.196c-1.592,1.713-3.086,3.478-4.569,5.291      l-4.431,5.604c-1.495,1.916-3.019,3.873-4.826,5.745l-0.01,0.01c-0.707,0.732-1.874,0.753-2.607,0.045      c-0.464-0.448-0.639-1.092-0.528-1.682c0.514-2.615,1.437-5.082,2.612-7.455c1.176-2.37,2.603-4.659,4.338-6.743      c1.722-2.091,3.749-3.977,6.007-5.536c2.254-1.558,4.754-2.789,7.435-3.394c0.932-0.211,1.859,0.374,2.07,1.307      c0.131,0.584-0.048,1.166-0.43,1.571L208.426,149.797z" fill="#ffffff" data-original="#ffffff"></path>
			</g>
			<g>
				<path style="" d="M279.653,267.087c6.773-4.419,17.787-1.773,23.267,3.691c5.425,5.409,2.844,13.539-7.681,13.773      C280.821,284.872,270.867,272.819,279.653,267.087z" fill="#ff8ede" data-original="#ff8ede"></path>
				<path style="" d="M372.437,291.787c-3.68-7.201-14.551-10.382-22.023-8.366      c-7.397,1.996-9.199,10.332-0.183,15.769C362.581,306.637,377.21,301.129,372.437,291.787z" fill="#ff8ede" data-original="#ff8ede"></path>
			</g>
			<path style="" d="M341.585,268.173c2.89,1.556,3.771,4.001,3.142,6.634c-3.375,14.122-25.522,13.289-31.392,1.484     c-2.101-4.225-3.136-13.329,3.384-14.28C320.158,261.51,332.166,263.1,341.585,268.173z" fill="#ffffff" data-original="#ffffff"></path>
		</g>
		<g>
			<path style="" d="M488.669,311.018c-11.183-5.185-24.725-18.358-33.044-27.759     c-3.52-3.978-0.024-3.308-16.994,11.978c-7.456,6.716-15.313,12.936-23.509,18.72c-5.118,3.612-10.416,6.95-15.79,10.176     c-6.169,3.704-12.558,6.975-19.081,9.981c-6.758,3.115-13.725,5.71-20.868,7.802c-5.291,1.55-10.634,2.902-16.137,3.483     c-29.387,3.101-33.664,0.75-32.099,3.124c0.112,0.17,30.846,45.601,36.824,58.787c3.488,7.693,5.152,15.42-1.231,20.957     c-8.108,7.034-21.811,8.057-32.242,0.131c-9.116-6.927-23.023-18.727-32.328-26.921c-29.996-26.416-30.371-29.384-31.46-28.031     c-1.106,1.375-2.92,9.38-22.132,9.787c-16.737,0.355-36.548-5.249-52.37-11.135c-13.97-5.197-14.364-26.34-10.02-40.769     c0.711-2.362,0.704-2.064-3.028-3.025C117.653,316.59,12.806,282.494,1.287,237.16c-1.437-5.657-1.688-11.385-0.667-17.148     c5.953-33.614,44.21-32.012,57.541-36.34c1.941-0.63,11.065-4.828,13.911-5.628c27.607-7.757,52.614-7.205,69.05-2.777     c29.606,7.977,27.657,7.993,28.256,6.75c1.83-3.805,11.809-30.107,27.744-40.509c19.751-12.892,30.035,12.071,32.211,36.867     c2.331,26.57-2.528,22.302,5.843,25.105c125.244,41.936,135.086,59.289,189.57,30.689c1.436-0.754,0.815-1.368,0.418-8.108     c-1.173-19.944,0.054-51.044,16.115-39.303c6.985,5.106,13.927,14.991,17.619,21.907c1.433,2.684,1.108,2.686,3.844,1.336     c22.998-11.342,33.211,8.447,21.771,28.621c-5.674,10.006-6.213,9.449-5.176,11.077c28.969,45.454,38.903,56.162,28.859,63.175     C502.351,316.955,494.211,314.231,488.669,311.018z M166.102,326.114c2.061,0.472,1.746,0.714,4.175-4.22     c1.453-2.952,3.38-5.586,5.723-7.861c3.31-3.214,7.083-5.597,11.93-5.614c0.502-0.002,0.6-0.221,0.322-0.587     c-0.403-0.531-0.842-1.036-1.284-1.536c-5.701-6.438-11.405-12.872-17.106-19.31c-0.83-0.938-1.663-1.874-2.461-2.839     c-1.24-1.5-1.152-2.721,0.255-4.159c0.117-0.119,0.224-0.25,0.35-0.359c3.111-2.69,6.463-5.026,10.188-6.785     c4.926-2.326,10.064-4.034,15.417-5.068c5.021-0.97,10.108-1.394,15.204-1.259c7.542,0.201,14.962,1.347,22.176,3.633     c3.419,1.083,6.809,2.241,10.067,3.764c3.255,1.522,6.394,3.223,9.44,5.146c4.189,2.644,8.061,5.649,11.585,9.111     c6.023,5.915,11.612,12.225,17.101,18.634c6.412,7.487,12.525,15.211,18.475,23.063c10.712,14.138,9.78,14.986,12.624,14.842     c2.918-0.148,5.846-0.099,8.763-0.255c7.755-0.413,15.503-0.889,23.228-1.764c5.755-0.652,11.362-1.919,16.884-3.549     c5.524-1.63,10.912-3.662,16.225-5.921c6.777-2.881,13.336-6.186,19.721-9.82c6.749-3.842,13.327-7.983,19.61-12.564     c6.344-4.626,12.568-9.4,18.5-14.558c5.804-5.047,11.301-10.407,16.75-15.824c0.354-0.352,0.696-0.722,1.008-1.112     c0.345-0.432,0.387-0.918,0.072-1.391c-0.231-0.347-0.489-0.677-0.745-1.006c-2.104-2.701-4.264-5.36-6.302-8.109     c-2.088-2.817-4.065-5.716-6.076-8.59c-1.015-1.45-1.736-3.038-2.193-4.754c-0.604-2.266,0.529-5.624,3.512-6.31     c1.299-0.298,2.548-0.742,3.911-0.789c34.681-1.19,32.796-0.981,33.485-2.084c5.273-8.439,9.711-15.962,9.805-23.25     c0.143-11.111-6.673-15.827-16.502-12.99c-3.92,1.131-13.71,5.77-20.994,11.021c-77.502,55.862-80.847,27.286-239.564-22.969     c-15.66-4.959-31.393-9.689-47.185-14.212c-20.972-6.008-32.9-9.838-54.295-8.936c-13.8,0.582-22.895,2.459-32.114,4.914     c-0.555,0.148-0.838,0.554-0.64,1.147c7.424,22.208,41.515,30.895,44.586,32.962c6.796,4.574,4.483,13.47-0.346,18.594     c-3.52,3.734-8.749,5.256-13.722,5.693c-13.994,1.229-28.608-4.57-40.124-12.089c-10.075-6.579-18.888-15.497-24.226-26.368     c-3.986-8.118-2.519-9.827-5.172-9.002c-7.078,2.202-14.862,4.179-20.795,8.851c-16.178,12.739-15.487,37.148-3.049,52.127     c20.926,25.2,53.017,39.677,82.755,51.626C120.485,313.651,147.14,321.769,166.102,326.114z M333.455,430.972     c12.941-1.221,19.135-10.051,10.875-24.569c-14.796-26.006-35.021-57.239-53.143-80.361c-4.068-5.191-8.158-10.361-12.403-15.407     c-5.805-6.901-11.755-13.675-18.195-19.994c-4.18-4.101-8.719-7.769-13.935-10.522c-0.513-0.271-0.998-0.609-1.459-0.963     c-1.207-0.926-2.584-1.53-3.967-2.115c-0.765-0.323-1.612-0.468-2.349-0.839c-4.43-2.231-9.146-3.64-13.938-4.772     c-6.686-1.579-13.463-2.311-20.358-2.046c-9.308,0.359-18.208,2.213-26.488,6.622c-2.738,1.458-5.283,3.201-7.642,5.208     c-0.75,0.638-0.754,1.15-0.174,1.958c0.146,0.203,0.303,0.4,0.468,0.588c2.196,2.514,4.368,5.051,6.598,7.535     c5.91,6.584,11.873,13.121,17.766,19.72c23.313,26.106,57.656,60.846,93.659,92.506c6.233,5.481,12.633,10.769,19.061,16.019     C315.68,425.951,323.26,431.934,333.455,430.972z M114.041,214.467c-7.588-2.099-34.529-13.288-41.169-31.532     c-1.688-4.638-5.788,2.58-24.565,5.591c-7.635,1.225-7.432,0.909-7.356,2.523c0.108,2.258,3.396,8.823,4.966,11.414     c17.437,28.778,55.752,38.033,67.72,31.146C121.56,229.05,125.098,217.526,114.041,214.467z M505.547,311.379     c6.192-2.676,3.529-9.127,1.042-13.359c-3.789-6.448-6.047-9.573-18.166-28.748c-12.248-19.381-11.499-19.452-14.366-19.259     c-5.336,0.358-31.608,1.028-33.257,1.388c-3.218,0.702-2.938,4.015-1.237,6.467c9.098,13.123,5.238,7.745,11.934,16.383     C461.748,287.475,491.207,317.575,505.547,311.379z M181.827,163.353c-3.366,5.86-6.246,11.987-9.138,18.097     c-1.081,2.285-0.248,2.47,1.956,3.111c25.362,7.375,34.511,10.552,50.87,15.732c1.735,0.549,1.723-0.65,1.779-3.633     C228.35,140.691,205.307,122.48,181.827,163.353z M193.517,362.988c-4.558,6.197-8.292,7.265-9.623,8.186     c-0.432,0.299-0.243,0.604,0.067,0.7c16.038,4.977,53.133,15.658,63.413,1.88c0.68-0.912,0.834-2.01,0.869-3.087     c0.045-1.398-4.215-3.383-45.465-47.153c-0.225-0.239-0.472-0.585-0.807-0.472c-0.409,0.137-0.2,0.547-0.155,0.845     c0.269,1.816,0.694,3.622,0.801,5.446C203.309,341.206,200.476,353.526,193.517,362.988z M174.309,367.907     c15.33,9.764,34.437-31.324,21.503-51.678c-3.113-4.9-8.7-6.338-13.68-3.417c-1.726,1.013-3.307,2.232-4.65,3.756     C162.886,333.133,163.954,361.312,174.309,367.907z M427.878,224.924c0.663,11.953-2.123,7.013,28.922-12.008     c1.065-0.653,0.809-0.841-0.195-2.723c-3.629-6.804-17.226-26.93-23.659-22.592c-3.008,2.029-4.769,14.112-5.097,17.717     C427.255,211.838,427.516,218.399,427.878,224.924z M299.075,247.829c3.944,0.134,7.801,3.136,8.351,7.78     c0.968,8.172-9.55,11.501-14.576,5.235C288.806,255.802,292.33,247.601,299.075,247.829z M365.135,265.415     c-3.489-1.845-8.327-1.158-11.113,2.598c-4.903,6.609,2.568,14.727,10.044,11.789C370.08,277.438,371.101,268.57,365.135,265.415     z M159.621,217.914c2.842,0.118,5.698,1.095,8.118,3.02c4.66,3.631,6.607,9.862,4.373,15.397     c-2.128,5.271-7.406,8.367-12.963,8.136c-1.58-0.065-3.18-0.4-4.74-1.029c-6.999-2.825-10.537-10.609-7.796-17.4     C148.808,220.604,154.189,217.689,159.621,217.914 M159.78,214.098L159.78,214.098c-7.332-0.304-14.046,3.92-16.708,10.512     c-1.716,4.252-1.608,8.934,0.305,13.184c1.884,4.185,5.294,7.448,9.604,9.187c1.931,0.779,3.952,1.217,6.011,1.303     c7.304,0.303,13.999-3.926,16.663-10.522c2.802-6.944,0.513-15.102-5.568-19.839C167.15,215.586,163.576,214.256,159.78,214.098     L159.78,214.098z M201.012,229.595c2.715,0.113,5.513,1.074,8.085,3.119c4.66,3.632,6.607,9.862,4.373,15.398     c-2.286,5.663-7.626,8.337-12.934,8.117c-4.953-0.205-9.878-2.931-12.265-8.101C183.768,238.364,191.917,229.219,201.012,229.595      M201.171,225.78L201.171,225.78c-6.025-0.249-11.861,2.725-15.234,7.762c-3.236,4.833-3.649,10.732-1.132,16.186     c2.809,6.082,8.776,10.035,15.574,10.317c7.406,0.307,13.934-3.816,16.634-10.503c2.802-6.942,0.513-15.101-5.568-19.839     C208.422,227.297,204.859,225.933,201.171,225.78L201.171,225.78z M243.964,240.066c2.707,0.112,5.493,1.067,8.048,3.099     c4.66,3.631,6.606,9.862,4.373,15.397c-2.286,5.663-7.626,8.337-12.934,8.117c-4.954-0.205-9.878-2.931-12.265-8.101     C226.682,248.812,234.875,239.691,243.964,240.066 M244.124,236.251L244.124,236.251c-6.041-0.249-11.893,2.732-15.274,7.781     c-3.229,4.822-3.641,10.707-1.131,16.147c2.809,6.082,8.776,10.035,15.575,10.317c7.404,0.307,13.934-3.816,16.634-10.503     c2.801-6.944,0.512-15.102-5.568-19.839C251.353,237.761,247.803,236.403,244.124,236.251L244.124,236.251z" fill="#000e3f" data-original="#000e3f" class=""></path>
		</g>
	</g>
	<g>
		<path style="" d="M468.321,346.772l8.526,5.755c0.544,0.367,1.235,0.444,1.846,0.204l9.575-3.761    c1.539-0.605,3.103,0.818,2.647,2.407l-2.839,9.887c-0.181,0.631-0.04,1.311,0.377,1.818l6.535,7.944    c1.051,1.277,0.181,3.204-1.472,3.261l-10.28,0.356c-0.656,0.023-1.259,0.367-1.612,0.92l-5.535,8.67    c-0.89,1.394-2.992,1.162-3.557-0.392l-3.515-9.667c-0.225-0.617-0.738-1.084-1.374-1.249l-9.956-2.585    c-1.6-0.415-2.03-2.486-0.726-3.503l8.108-6.331c0.518-0.404,0.803-1.037,0.764-1.692l-0.618-10.268    C465.114,346.895,466.951,345.847,468.321,346.772z" fill="#fd8a02" data-original="#fd8a02"></path>
		<path style="" d="M449.74,427.916l-0.029,9.016c-0.002,0.575,0.28,1.115,0.752,1.443l7.411,5.135    c1.191,0.826,0.919,2.659-0.461,3.102l-8.584,2.759c-0.548,0.176-0.974,0.61-1.14,1.161l-2.594,8.635    c-0.417,1.388-2.245,1.695-3.093,0.52l-5.276-7.311c-0.337-0.467-0.882-0.738-1.457-0.725l-9.014,0.201    c-1.449,0.032-2.306-1.611-1.45-2.78l5.323-7.277c0.34-0.465,0.429-1.066,0.239-1.61l-2.977-8.51    c-0.478-1.368,0.82-2.691,2.196-2.239l8.566,2.814c0.547,0.18,1.147,0.079,1.605-0.27l7.174-5.461    C448.086,425.641,449.745,426.467,449.74,427.916z" fill="#fd8a02" data-original="#fd8a02"></path>
		<path style="" d="M370.736,371.848l7.803,1.086c0.498,0.069,0.998-0.111,1.338-0.482l5.318-5.813    c0.855-0.934,2.41-0.483,2.632,0.764l1.379,7.757c0.088,0.495,0.414,0.915,0.872,1.123l7.171,3.262    c1.153,0.524,1.204,2.143,0.087,2.739l-6.951,3.708c-0.444,0.237-0.742,0.677-0.799,1.176l-0.886,7.828    c-0.143,1.259-1.666,1.807-2.578,0.929l-5.675-5.465c-0.362-0.349-0.873-0.497-1.366-0.396l-7.719,1.576    c-1.241,0.254-2.233-1.026-1.68-2.165l3.444-7.086c0.22-0.452,0.203-0.984-0.045-1.421l-3.884-6.854    C368.571,373.013,369.481,371.674,370.736,371.848z" fill="#fd8a02" data-original="#fd8a02"></path>
		<path style="" d="M138.539,109.357l-2.681,9.931c-0.171,0.634-0.02,1.312,0.406,1.812l6.661,7.839    c1.071,1.26,0.232,3.201-1.419,3.284l-10.274,0.519c-0.656,0.033-1.253,0.387-1.598,0.946l-5.397,8.757    c-0.867,1.408-2.972,1.209-3.562-0.335l-3.668-9.61c-0.234-0.613-0.755-1.072-1.393-1.227l-9.996-2.426    c-1.607-0.39-2.069-2.453-0.782-3.492l8.006-6.458c0.511-0.413,0.787-1.05,0.737-1.704l-0.781-10.257    c-0.126-1.649,1.694-2.726,3.079-1.823l8.617,5.619c0.55,0.359,1.241,0.424,1.849,0.174l9.513-3.912    C137.383,106.363,138.97,107.761,138.539,109.357z" fill="#fd8a02" data-original="#fd8a02"></path>
		<path style="" d="M38.055,143.38l-8.539,2.895c-0.545,0.185-0.964,0.626-1.121,1.179l-2.456,8.675    c-0.395,1.395-2.217,1.731-3.084,0.569l-5.392-7.226c-0.344-0.461-0.893-0.724-1.468-0.701l-9.01,0.344    c-1.448,0.055-2.331-1.574-1.494-2.757l5.206-7.361c0.333-0.47,0.412-1.073,0.214-1.613l-3.112-8.462    c-0.5-1.36,0.776-2.703,2.16-2.273l8.609,2.677c0.55,0.171,1.148,0.06,1.6-0.295l7.086-5.575c1.139-0.896,2.811-0.097,2.83,1.352    l0.114,9.015c0.007,0.576,0.297,1.111,0.776,1.431l7.491,5.017C39.671,141.078,39.427,142.915,38.055,143.38z" fill="#fd8a02" data-original="#fd8a02"></path>
		<path style="" d="M73.606,52.824l1.502,7.734c0.096,0.493,0.429,0.909,0.89,1.109l7.223,3.147    c1.161,0.506,1.238,2.123,0.13,2.737l-6.892,3.819c-0.44,0.243-0.732,0.688-0.78,1.189l-0.761,7.842    c-0.122,1.261-1.637,1.834-2.563,0.97l-5.761-5.374c-0.368-0.343-0.881-0.483-1.372-0.375l-7.693,1.699    c-1.237,0.273-2.25-0.99-1.714-2.138l3.331-7.139c0.213-0.456,0.187-0.987-0.068-1.421l-3.993-6.792    c-0.642-1.091,0.247-2.445,1.503-2.291l7.82,0.962c0.499,0.061,0.997-0.127,1.33-0.503l5.225-5.896    C71.803,51.155,73.365,51.581,73.606,52.824z" fill="#fd8a02" data-original="#fd8a02"></path>
	</g>
	<g>
		<g>
			<g>
				<path style="" d="M280.049,132.363c-1.204-0.039-3.092,0.487-16.82,1.289l-0.058-0.769      c-0.432-12.813-0.979-17.268-2.033-29.224c1.114-0.551,5.155-0.937,6.822-0.376c0.333,7.385,1.334,15.702,1.75,23.038      l0.003,0.042c1.083-0.423,9.695-0.292,11.05-0.561c0.021,0.3,0.046,0.639,0.025,0.941c-0.003,0.555,0.001,1.197,0.08,1.663      C281.382,132.48,281.241,132.276,280.049,132.363z" fill="#000e3f" data-original="#000e3f" class=""></path>
				<path style="" d="M300.575,127.345c0.051,1.84-0.038,3.885-0.576,5.571c-5.798-0.289-12.003-0.125-17.483-0.828      c0.421-9.896,0.314-19.428,1.287-29.17c6.625-0.059,17.677,0.239,17.666,0.496c0.213,2.016-0.175,4.05-0.258,6.056l-0.002,0.042      c-3.661,0.656-7.429-0.146-11.195,0.036l-0.127-0.005l-0.046,0.04c-0.029,1.665-0.49,3.44-0.168,4.993l0.038,0.045      c1.7,0.2,3.495,0.233,5.242,0.349l-0.002,0.044c0.216,1.932-0.122,3.842-0.169,5.933c-1.768,0.394-4.561-0.196-5.179,0.248      c-0.369,1.649-0.296,3.962-0.228,5.331l0.04,0.045c3.753,0.16,7.278,0.651,11.168,0.689L300.575,127.345z" fill="#000e3f" data-original="#000e3f" class=""></path>
				<path style="" d="M322.932,113.298c-1.016-0.38-2.464-0.526-5.137-0.828l-0.085-0.012l-0.044-0.006      c-0.006,0.042-0.054,0.077-0.062,0.118c-0.298,0.774-0.748,3.855-3.376,22.316l-0.006,0.044l-0.008,0.041      c-2.117,0.004-4.878-0.828-6.955-0.818c-0.044-0.524,1.465-6.678,3.32-22.498l-0.035-0.048c-1.197-0.886-4.33-1.001-4.971-1.319      c-0.144-0.456,0.257-4.021,0.895-6.642c0.006-0.041-0.035-0.048-0.029-0.091c5.736,0.883,12.046,1.681,17.715,3.242      C323.983,108.669,323.555,111.323,322.932,113.298z" fill="#000e3f" data-original="#000e3f" class=""></path>
				<path style="" d="M329.537,118.341c-0.457-0.113-4.537-0.502-4.496-1.019c0.942-1.704,4.802-8.797,5.159-9.546      c-0.05,0.031,3.59,0.795,4.695,1.111l-0.011,0.041c-2.549,4.648-2.981,5.862-5.243,9.349c0,0-0.01,0.041-0.062,0.072      L329.537,118.341z" fill="#000e3f" data-original="#000e3f" class=""></path>
				<path style="" d="M354.828,125.892c-2.006-0.334-4.319-0.954-6.033-2.134c1.663-2.72-3.201-5.622-4.692-2.753      c-0.246,0.321-0.291,0.713-0.377,1.089c-0.003,1.445,0.947,2.09,2.022,2.642c2.75,1.313,4.734,3.806,5.51,6.647      c1.058,3.076-0.103,6.559-2.356,8.892c-2.438,2.861-6.123,3.209-9.386,1.945c-4.677-1.753-8.751-6.55-6.657-11.56l0.042-0.121      l0.042-0.121c1.991,0.375,4.353,1.509,6.182,2.096c-0.986,3.496,4.877,5.615,5.527,1.641c0.573-2.69-2.491-4.157-4.592-5.381      c-1.019-0.58-1.725-1.411-2.266-2.32c-3.328-6.433,1.671-12.921,7.572-13.271c2.996-0.183,6.622,1.478,8.796,3.542      c2.121,2.222,2.869,5.415,0.706,9.183L354.828,125.892z" fill="#000e3f" data-original="#000e3f" class=""></path>
				<path style="" d="M371,144.719l-0.036-0.019c-2.031,2.968-3.826,6.121-5.469,8.918      c-2.033-0.912-6.173-3.218-6.455-3.673l-0.015-0.058c5.106-8.975,7.803-13.534,14.364-25.07l0.021-0.036      c2.815,1.012,13.059,5.959,16.624,9.36c-0.739,1.298-2.297,4.292-3.124,5.489c-2.777-1.336-6.994-3.588-10.244-5.043      c-1.292,0.985-1.826,2.351-1.825,3.383c0.018,0.058,0.018,0.058,0.054,0.077c1.305,0.99,3.497,2.139,4.674,2.66      c-0.128,0.91-2.524,4.26-3.349,6.147c-0.021,0.036-0.081,0.054-0.156,0.011C374.396,146.261,372.631,145.305,371,144.719z" fill="#000e3f" data-original="#000e3f" class=""></path>
				<path style="" d="M389.916,169.977c-0.889-0.81-2.664-1.639-13.607-9.951l0.456-0.62      c7.997-10.012,10.48-13.75,17.445-23.511c1.208,0.303,4.524,2.638,5.427,4.149c-4.547,5.821-9.195,12.789-13.644,18.627      l-0.026,0.034c1.097,0.381,7.551,6.084,8.753,6.755c-0.179,0.238-0.379,0.514-0.59,0.731c-0.362,0.422-0.775,0.912-1.021,1.315      C390.853,170.934,390.877,170.684,389.916,169.977z" fill="#000e3f" data-original="#000e3f" class=""></path>
				<path style="" d="M424.405,161.437c-9.226,5.377-19.917,8.187-29.213,13.265c-0.222-0.26-0.474-0.492-0.755-0.751      c-0.88-0.81-2.067-1.724-3.042-2.619c-0.252-0.23-0.501-0.462-0.725-0.724l-0.061-0.057c4.218-2.385,9.249-4.772,14.101-7.096      l0.058-0.063c2.466-4.513,3.585-10.147,5.995-14.478c0.848,0.777,1.964,1.456,2.878,2.293c0.503,0.462,0.977,0.954,1.246,1.608      c-1.293,2.228-3.213,6.84-3.899,9.104c2.233-0.731,6.494-3.479,8.806-4.483c0.9,0.534,2.402,1.799,3.504,2.809      c0.501,0.462,0.914,0.899,1.135,1.16L424.405,161.437z" fill="#000e3f" data-original="#000e3f" class=""></path>
			</g>
		</g>
		<g>
			<g>
				<path style="" d="M303.924,184.703l-0.008,0.041c-1.737,0.068-3.868-0.4-5.621-1.067l-0.042-0.006      c-0.388-1.922-0.387-5.424-0.885-7.19c-1.4-0.44-1.342-0.258-2.607-0.459c-1.041,1.65-1.713,5.045-2.978,6.745      c-0.042-0.006-0.093,0.029-0.133,0.023c-0.483,0.052-2.054-0.415-5.897-0.985c-0.042-0.006-0.042-0.006-0.079-0.054      c0.519-1.087,4.945-15.556,11.147-28.401c0.821,0.001,1.454,0.361,5.22,0.616c0.156,2.273,0.852,12.542,1.075,15.476      L303.924,184.703z M295.26,171c0.965,0.196,2.063,0.329,3.119,0.496C299.015,156.681,297.819,162.543,295.26,171z" fill="#000e3f" data-original="#000e3f" class=""></path>
				<path style="" d="M327.275,160.262c-3.329,9.319-6.913,18.438-10.213,27.809c-0.401,0.027-0.888-0.144-1.424-0.285      l-1.486-0.389l-0.497-0.133c-0.611-1.527,0-5.869-0.594-7.657l-0.041-0.01c-1.249,0.73-2.791,5.092-4.026,6.269      c-0.735-0.061-1.293-0.119-2.077-0.323c-0.456-0.122-0.941-0.294-1.537-0.538l-0.041-0.01      c1.149-9.758,2.123-19.698,4.464-29.275l0.01-0.041c0.857,0.09,1.788,0.248,2.737,0.498c1.114,0.292,2.208,0.667,3.187,0.969      c-0.824,4.992-3.603,12.379-3.65,17.443c1.351-2.293,2.503-4.507,3.774-6.819c0.073-0.113,0.083-0.155,0.135-0.185      c0.401,0.5-0.068,6.821,0.16,8.647c1.7-4.628,3.627-12.64,5.348-17.35l0.011-0.041c1.004,0.044,2.005,0.261,2.997,0.522      c0.949,0.25,1.847,0.529,2.734,0.851L327.275,160.262z" fill="#000e3f" data-original="#000e3f" class=""></path>
				<path style="" d="M334.583,194.496l-0.013,0.041c-1.721-0.267-3.723-1.131-5.313-2.124l-0.041-0.013      c-0.013-1.957,0.652-5.394,0.499-7.221c-1.289-0.699-1.266-0.507-2.468-0.948c-1.339,1.42-2.642,4.622-4.208,6.05      c-0.039-0.013-0.095,0.011-0.134-0.003c-0.486-0.042-1.934-0.796-5.598-2.09c-0.039-0.015-0.039-0.015-0.065-0.068      c0.714-0.965,7.816-14.317,16.346-25.739c0.806,0.159,1.359,0.634,5.001,1.6c-0.278,2.261-1.551,12.471-1.892,15.388      L334.583,194.496z M328.69,179.4c0.911,0.376,1.966,0.718,2.968,1.083C335.103,166.07,332.815,171.594,328.69,179.4z" fill="#000e3f" data-original="#000e3f" class=""></path>
				<path style="" d="M365.488,176.928c-7.39,7.71-16.897,13.36-24.441,20.803c-0.282-0.19-0.59-0.343-0.934-0.515      c-1.069-0.534-2.462-1.088-3.646-1.679c-0.308-0.153-0.613-0.307-0.895-0.496l-0.08-0.041      c3.399-3.451,7.579-7.138,11.609-10.706l0.038-0.077c1.126-5.021,0.65-10.747,1.779-15.577c1.03,0.517,2.289,0.861,3.397,1.414      c0.611,0.304,1.203,0.649,1.641,1.203c-0.631,2.499-1.201,7.464-1.242,9.831c1.948-1.318,5.288-5.136,7.236-6.739      c1.014,0.268,2.808,1.069,4.144,1.737c0.611,0.306,1.125,0.613,1.414,0.805L365.488,176.928z" fill="#000e3f" data-original="#000e3f" class=""></path>
				<path style="" d="M353.255,204.183c-0.328-0.198,1.879-2.853,2.699-4.205l0.021-0.036      c1.455,0.234,3.074,1.763,4.5,2.626c-0.856,1.33-1.903,2.892-2.765,4.316l-0.257-0.155c-0.583-0.354-0.816-0.546-1.365-0.876      l-0.073-0.045L353.255,204.183z M368.765,178.585c1.347,0.666,3.432,1.429,4.536,2.652c-3.89,6.175-8.177,12.916-11.667,19.339      c-1.368-0.63-3.377-1.848-4.821-2.672l-0.039-0.024c4.005-6.36,7.454-12.957,11.883-19.359L368.765,178.585z" fill="#000e3f" data-original="#000e3f" class=""></path>
			</g>
		</g>
	</g>
</g>















</g></svg>