<svg xmlns="http://www.w3.org/2000/svg" version="1.1" xmlns:xlink="http://www.w3.org/1999/xlink" xmlns:svgjs="http://svgjs.com/svgjs" width="512" height="512" x="0" y="0" viewBox="0 0 512 512" style="enable-background:new 0 0 512 512" xml:space="preserve" class=""><g>
<g>
	<g>
		<g>
			<path style="" d="M506.338,321.66l-10.877,22.32l-183.759-89.551l10.877-22.32     c4.82-9.891,16.739-13.999,26.63-9.179l147.95,72.1C507.049,299.85,511.158,311.77,506.338,321.66z" fill="#6280ff" data-original="#6280ff" class=""></path>
			<g>
				<g style="opacity:0.25;">
					<path style="" d="M494.388,345.815c-1.708,2.454-4.116,4.22-6.836,5.158c-3.334,1.149-7.107,1.024-10.532-0.645       l-158.956-77.464c-6.85-3.338-9.696-11.594-6.363-18.435l10.877-22.32c4.82-9.891,16.739-13.999,26.63-9.179l3.569,1.739       c0.021,0.641,0.018,1.282,0.005,1.919c-0.223,8.666-4.751,17.519-2.251,26.167c2.764,9.574,12.252,13.484,20.552,17.194       c4.332,1.933,74.053,35.303,83.881,40.008c13.097,6.252,36.585,16.615,39.208,33.049c0.021,0.129,0.036,0.244,0.056,0.373       C494.338,344.207,494.395,345.02,494.388,345.815z" fill="#000e3f" data-original="#000e3f" class=""></path>
				</g>
			</g>
			<g>
				<path style="" d="M477.147,233.047c-10.338,3.868-18.954,11.312-24.76,20.71l-4.653,7.519l-4.587,7.432      l-39.927-19.457l6.251-16.932c3.847-10.436,3.899-21.804,0.688-32.465c-3.587-11.891-2.869-25.114,3.005-37.17      c1.069-2.194,2.278-4.283,3.608-6.254c14.066-20.85,41.715-28.676,64.959-17.276c24.683,12.112,35.453,42.148,24.033,67.169      C499.885,219.222,489.378,228.471,477.147,233.047z" fill="#ff8ede" data-original="#ff8ede"></path>
				<path style="" d="M495.461,343.98c-0.314,0.645-0.672,1.256-1.073,1.835c-1.708,2.454-4.116,4.22-6.836,5.158      c-3.334,1.149-7.107,1.024-10.532-0.645l-158.956-77.464c-6.85-3.338-9.696-11.594-6.363-18.435L495.461,343.98z" fill="#ff8ede" data-original="#ff8ede"></path>
			</g>
			<g style="opacity:0.5;">
				<path style="" d="M484.094,153.1c20.829,12.296,24.324,43.93-0.194,66.798c-1.6,1.493-3.779-0.515-2.562-2.357      c14.953-22.629,18.76-41.382,0.717-61.565l-0.088-0.098c-0.608-0.68-0.543-1.787,0.144-2.472      C482.676,152.843,483.486,152.742,484.094,153.1z" fill="#ffffff" data-original="#ffffff" class=""></path>
				<path style="" d="M402.786,261.622c7.683,2.849,15.199,6.039,22.658,9.348c3.745,1.623,7.429,3.369,11.142,5.057      l11.048,5.25l10.957,5.436c3.62,1.878,7.273,3.691,10.861,5.634c7.211,3.817,14.362,7.757,21.346,12.04      c0.889,0.545,1.168,1.708,0.622,2.597c-0.48,0.783-1.44,1.092-2.269,0.782c-7.677-2.861-15.186-6.066-22.636-9.393      c-3.741-1.629-7.419-3.389-11.129-5.083l-11.033-5.28l-10.943-5.466c-3.617-1.884-7.263-3.709-10.849-5.659      c-7.202-3.835-14.346-7.789-21.324-12.085c-0.835-0.514-1.095-1.608-0.581-2.443      C401.108,261.622,402.008,261.333,402.786,261.622z" fill="#ffffff" data-original="#ffffff" class=""></path>
			</g>
			<g>
				<g style="opacity:0.5;">
					<path style="" d="M447.734,261.277l-4.587,7.432l-39.927-19.457l6.251-16.932       c3.847-10.436,3.899-21.804,0.688-32.465c-3.587-11.891-2.869-25.114,3.005-37.17c1.069-2.194,2.278-4.283,3.608-6.254       c-2.176,36.189,13.725,41.832,7.965,65.67c-3.45,14.261,2.893,24.819,19.031,36.803       C445.01,259.83,446.354,260.592,447.734,261.277z" fill="#fc09b2" data-original="#fc09b2"></path>
				</g>
			</g>
			<g>
				<g>
					<path style="" d="M429.21,189.282c-2.317-2.762-1.743-5.521,0.443-6.622c6.425-3.238,17.611,5.078,12.645,9.68       C439.884,194.578,432.903,193.686,429.21,189.282z" fill="#fc09b2" data-original="#fc09b2"></path>
				</g>
				<g>
					<path style="" d="M474.366,211.288c3.603,0.123,5.422-2.029,4.943-4.429c-1.409-7.056-14.851-10.742-15.416-3.995       C463.618,206.144,468.622,211.093,474.366,211.288z" fill="#fc09b2" data-original="#fc09b2"></path>
				</g>
			</g>
		</g>
		<g>
			<path style="" d="M454.296,196.864c1.047,0.387,2.082,0.563,3.09,0.562c4.22,0,7.932-3.083,9.651-6.687     c0.404-0.847,0.044-1.86-0.801-2.264c-0.846-0.403-1.861-0.043-2.264,0.801c-1.483,3.11-4.969,5.709-8.496,4.402     c-1.437-0.532-2.458-1.556-3.031-3.047c-0.772-2.006-0.575-4.633,0.501-6.69c0.435-0.831,0.112-1.856-0.719-2.291     c-0.829-0.435-1.855-0.114-2.292,0.718c-1.531,2.928-1.784,6.561-0.66,9.484C450.2,194.258,451.938,195.992,454.296,196.864z" fill="#000e3f" data-original="#000e3f" class=""></path>
			<path style="" d="M446.352,179.197c1.347-2.816,0.092-5.734-2.394-7.043c-2.445-1.287-6.097-0.013-6.938,2.418     c-1.421,2.443-0.12,5.666,2.195,6.884C442.054,182.949,445.254,181.491,446.352,179.197z" fill="#000e3f" data-original="#000e3f" class=""></path>
			<path style="" d="M473.995,198.382c0.169,0.081,0.348,0.169,0.516,0.253c2.119,1.064,5.535-0.061,6.704-2.609     c1.175-2.564,0.04-5.687-2.475-6.903c-2.588-1.252-5.731-0.193-7.049,2.548C470.616,193.908,471.524,197.194,473.995,198.382z" fill="#000e3f" data-original="#000e3f" class=""></path>
			<path style="" d="M497.904,293.504l-52.326-25.5l8.254-13.354c5.734-9.282,14.225-16.39,23.909-20.013     c13.202-4.939,23.704-14.744,29.569-27.608c11.765-25.775,0.627-56.906-24.828-69.399c-23.596-11.569-52.447-3.896-67.115,17.851     c-1.382,2.049-2.637,4.222-3.726,6.46c-5.852,12.005-6.956,25.644-3.107,38.404c3.212,10.66,2.985,21.514-0.656,31.387     l-5.602,15.17l-52.323-25.498c-10.713-5.222-23.681-0.754-28.901,9.962l-10.875,22.317c0,0.001-0.001,0.001-0.001,0.002     c-1.813,3.717-2.067,7.919-0.719,11.829c1.351,3.912,4.142,7.064,7.862,8.877l158.955,77.463c2.15,1.047,4.459,1.576,6.779,1.576     c1.697,0,3.401-0.284,5.05-0.852c3.136-1.081,5.791-3.084,7.68-5.798c0.453-0.654,0.857-1.347,1.203-2.059     c0.001-0.001,0-0.003,0.001-0.004l10.874-22.314c2.53-5.19,2.887-11.055,1.006-16.514     C506.99,300.432,503.095,296.034,497.904,293.504z M411.066,232.908c3.897-10.572,4.146-22.171,0.719-33.543     c-3.599-11.94-2.567-24.702,2.909-35.936c1.021-2.096,2.194-4.131,3.488-6.048c13.727-20.349,40.724-27.525,62.803-16.701     c23.821,11.689,34.244,40.821,23.235,64.94c-5.489,12.039-15.317,21.215-27.67,25.837c-10.385,3.885-19.479,11.489-25.608,21.407     l-8.433,13.645l-1.496-0.729l-35.668-17.382L411.066,232.908z M486.998,349.368c-3.046,1.05-6.327,0.849-9.233-0.567     L318.81,271.338c-2.906-1.416-5.085-3.878-6.139-6.932c-0.866-2.51-0.886-5.174-0.079-7.655l180.495,87.961     c-0.031,0.044-0.061,0.088-0.09,0.132C491.523,346.959,489.451,348.523,486.998,349.368z M504.812,320.917l-10.134,20.793     l-180.705-88.063l10.132-20.793c2.134-4.375,5.841-7.659,10.442-9.244c4.599-1.587,9.544-1.284,13.919,0.849l147.95,72.1     c4.376,2.132,7.658,5.84,9.244,10.44C507.244,311.597,506.944,316.541,504.812,320.917z" fill="#000e3f" data-original="#000e3f" class=""></path>
		</g>
	</g>
	<g>
		<g>
			<g>
				<path style="" d="M3.224,194.791l92.368-97.256c7.407-7.64,20.027-6.258,25.605,2.805l8.902,14.465" fill="#6280ff" data-original="#6280ff" class=""></path>
				<path style="" d="M178.067,116.564l119.447,194.089c1.259,2.045,2.189,4.188,2.801,6.394      c3.04,10.662-1.218,22.459-11.12,28.553l-138.431,85.194c-3.043,1.873-7.028,0.924-8.901-2.119L2.571,202.339      c-1.873-3.043-0.924-7.028,2.119-8.901l138.431-85.194C155.068,100.892,170.714,104.616,178.067,116.564z" fill="#6280ff" data-original="#6280ff" class=""></path>
			</g>
			<g>
				<path style="" d="M90.424,246.527c1.378-7.537,10.378-13.384,17.708-13.589c7.256-0.203,11.162,6.872,4.46,14.261      C103.412,257.32,88.636,256.305,90.424,246.527z" fill="#ff8ede" data-original="#ff8ede"></path>
				<path style="" d="M167.901,198.846c-7.35-2.166-16.625,3.234-20.11,9.685c-3.451,6.386,1.105,13.061,10.721,10.408      C171.684,215.304,177.435,201.655,167.901,198.846z" fill="#ff8ede" data-original="#ff8ede"></path>
			</g>
			<g>
				<path style="" d="M21.12,185.01l100.849-91.819c1.537-1.399,3.967-1.056,5.056,0.714l11.189,18.181" fill="#ffffff" data-original="#ffffff" class=""></path>
				<path style="" d="M131.551,204.658c2.954-0.972,5.21,0.016,6.609,2.166c7.508,11.529-7.505,26.21-19.448,22.549      c-4.275-1.31-11.207-6.535-7.61-11.637C113,215.045,121.923,207.827,131.551,204.658z" fill="#ffffff" data-original="#ffffff" class=""></path>
				<path style="" d="M60.073,160.477l78.063-66.093c1.31-1.109,3.298-0.806,4.218,0.643l6.494,10.233" fill="#ffffff" data-original="#ffffff" class=""></path>
				<g>
					<path style="" d="M198.532,232.45c-54.095-12.616-99.951,33.804-93.538,84.036       c-0.002-0.027,0.002-0.044,0.006-0.061c0.678,5.191,1.67,10.052,3.588,15.683c-0.023-0.014-0.03-0.025-0.042-0.045       c15.497,45.24,69.444,67.369,112.591,40.815c0.399-0.199,2.961-1.795,5.444-3.81       C279.983,330.355,262.134,246.953,198.532,232.45z M252.419,326.479c-2.037,2.575-4.218,5.125-6.564,7.618       c1.084-5.878,1.367-14.529,0.096-23.382c3.31-4.523,6.126-9.101,8.329-13.647C255.442,302.738,255.461,315.236,252.419,326.479       z M139.212,367.884c5.061,0.075,10.407-0.37,15.946-1.292c7.004,4.896,13.674,8.087,20.934,10.455       c-3.289,0.96-6.558,1.765-9.786,2.43C156.092,377.364,147.481,373.44,139.212,367.884z M115.692,291.35       c-0.085,2.372,0.087,6.782,0.662,11.233c-0.004,0.017,0.009,0.038,0.005,0.055c0.352,2.741,0.861,5.507,1.318,7.466       c-3.39-0.107-6.859-0.548-10.159-1.494c-0.013-0.021-0.009-0.037-0.015-0.048c0.004-0.016,0.008-0.034,0.002-0.044       c-0.247-7.244,1.46-16.706,1.81-17.467C109.792,291.347,115.078,291.362,115.692,291.35z M124.248,265.578       c0.902,0.206,1.849,0.342,2.844,0.419c-0.973,6.698-0.639,14.318,0.471,20.893c-2.015,0.451-5.559,1.026-8.707,1.263       C119.279,280.398,121.017,272.547,124.248,265.578z M175.186,233.769c6.609-0.519,13.82-0.061,20.929,1.433       c-0.852,2.264-2.191,4.899-2.331,5.085c-1.536-0.946-12.901-5.28-23.649-5.736c-0.001-0.072,0.004-0.133,0.01-0.193       c1.833-0.293,3.252-0.441,4.981-0.593c0.017,0.004,0.017,0.004,0.027-0.002C175.153,233.761,175.17,233.765,175.186,233.769z        M242.743,309.916c-2.738,3.653-5.821,7.261-9.209,10.769c-1.371-5.752-3.356-11.874-5.832-17.765       c3.654-3.916,6.93-7.886,9.748-11.877C239.852,296.9,241.722,303.45,242.743,309.916z M232.556,346.579       c-2.294,1.9-4.674,3.753-7.124,5.563c-1.031-5.471-2.563-10.692-4.445-16.003c3.787-2.977,7.358-6.094,10.697-9.285       C232.831,333.375,233.27,340.069,232.556,346.579z M176.004,361.119c4.359-1.533,8.745-3.327,13.098-5.359       c3.808,3.984,7.92,7.862,12.294,11.173c-2.713,1.383-5.457,2.668-8.187,3.86C187.023,368.478,181.223,365.041,176.004,361.119z        M134.88,364.628c-0.106-0.079-0.208-0.174-0.32-0.263c0,0-0.017-0.004-0.024-0.015c-4.788-3.77-11.081-10.744-12.889-13.681       c4.973,0.632,10.409,0.592,16.16-0.058c3.074,3.692,6.256,6.939,9.698,9.968c0.088,0.143,2.682,2.299,4.185,3.461       C145.789,364.841,140.126,365.05,134.88,364.628z M129.323,332.668c4.773-0.581,9.72-1.556,14.759-2.918       c0.113,0.168,4.346,7.262,10.218,14.477c-5.237,1.484-10.319,2.543-15.183,3.164       C135.316,342.714,131.938,337.56,129.323,332.668z M111.018,329.707c-1.975-6.133-3.11-12.872-3.371-17.9       c2.679,0.726,6.365,1.291,10.752,1.358c1.545,5.962,3.733,11.866,6.179,16.905C120.307,330.403,115.43,330.316,111.018,329.707       z M130.165,266.017c2.437-0.099,5.098-0.576,7.36-1.21c1.336,5.947,3.176,11.748,5.364,17.378       c-4.766,1.914-9.416,3.345-12.337,4.028C129.486,280.028,129.211,272.594,130.165,266.017z M125.63,262.758       c1.096-2.03,2.176-3.844,3.74-5.995c-0.723,1.954-1.315,4.028-1.764,6.216C126.921,262.941,126.261,262.873,125.63,262.758z        M192.277,242.953c-1.626,2.732-3.715,5.596-5.044,7.215c-5.253-3.863-11.999-7.678-18.44-9.834       c0.391-0.93,0.689-1.846,0.912-2.745C177.426,237.874,185.099,239.854,192.277,242.953z M199.117,235.899       c5.672,1.417,11.212,3.471,16.524,6.184c-0.646,3.421-1.78,6.568-3.23,9.719c-1.959-1.607-3.87-3.05-6.071-4.541       c-0.017-0.004-0.03-0.025-0.047-0.029c-3.656-2.48-7.556-4.654-9.73-5.652C196.982,240.79,198.428,237.798,199.117,235.899z        M232.92,254.657c-1.472,4.334-3.447,8.33-5.793,12.302c-3.371-4.42-7.694-9.089-12.308-13.133       c1.906-3.924,3.067-7.465,3.632-10.211C222.852,246.094,228.495,250.237,232.92,254.657z M224.091,302.282       c-3.84,3.987-8.106,7.891-12.729,11.657c-2.845-5.664-6.549-12.277-8.379-15.25c4.69-3.892,9.018-7.95,12.926-12.108       C218.973,291.655,221.696,296.81,224.091,302.282z M217.345,335.103c-3.823,2.942-7.845,5.747-12.036,8.37l-9.166-14.894       c4.977-3.121,9.707-6.433,14.16-9.892C212.775,323.666,215.586,330.318,217.345,335.103z M222.652,354.14       c-2.478,1.74-5.037,3.444-7.65,5.082l-8.088-13.143c4.004-2.508,7.84-5.17,11.518-7.951       C220.204,343.201,221.828,348.874,222.652,354.14z M192.03,354.375c4.139-2.03,8.245-4.255,12.277-6.693l8.089,13.143       c-2.639,1.595-5.313,3.112-7.984,4.54C200.024,362.181,195.761,358.246,192.03,354.375z M178.336,338.359       c5.084-2.41,10.173-5.14,15.201-8.177l9.166,14.894c-4.23,2.56-8.547,4.887-12.895,6.973       C185.788,347.722,181.892,343.023,178.336,338.359z M147.149,328.897c5.483-1.622,11.056-3.657,16.633-6.084       c1.753,2.848,5.934,9.081,9.828,14.358c-5.434,2.425-10.842,4.473-16.132,6.105       C153.899,338.943,150.508,334.255,147.149,328.897z M137.928,311.205c0.166-0.174,0.332-0.348,0.515-0.518       c5.022-1.251,10.158-2.946,15.304-5.021c3.103,5.783,5.34,9.55,8.382,14.529c-5.583,2.416-11.159,4.425-16.613,6       C142.75,321.382,140.18,316.566,137.928,311.205z M146.833,283.854c4.722-2.036,9.422-4.474,13.818-7.109       c3.542,5.756,6.392,10.386,10.366,16.843c-5.202,3.129-10.525,5.874-15.877,8.176       C152.005,295.76,149.228,289.74,146.833,283.854z M140.479,263.909c3.455-1.181,7.105-2.937,9.562-4.405       c4.353,7.073,6.419,10.43,9.006,14.634c-2.625,1.573-5.314,3.041-7.94,4.354c-0.139,0.014-1.33,0.741-5.394,2.515       C143.092,274.174,141.58,268.947,140.479,263.909z M166.561,237.569c-0.182,0.615-0.402,1.239-0.676,1.867       c-2.156-0.584-4.263-0.997-6.334-1.232C161.827,237.823,164.169,237.621,166.561,237.569z M185.282,252.532       c-1.975,2.363-5.341,5.859-9.149,9.208c-3.712-4.134-8.241-8.631-13.104-12.629c1.53-1.673,3.214-3.902,4.397-6.025       C171.7,244.518,179.765,248.435,185.282,252.532z M201.988,267.744c-1.519,1.967-6.565,7.363-11.578,11.753       c-3.386-4.747-7.708-10.281-12.246-15.485c3.544-3.115,6.763-6.361,9.582-9.648       C192.231,257.815,197.227,262.432,201.988,267.744z M214.233,283.905c-3.864,4.16-8.169,8.232-12.842,12.128       c-0.257-0.401-3.953-6.568-9.205-14.023c4.182-3.666,8.01-7.487,11.389-11.406c0.234-0.087,0.464-0.156,0.694-0.226       C207.865,274.55,211.298,279.452,214.233,283.905z M152.646,257.901c2.467-1.562,5.623-3.997,8.257-6.547       c4.58,3.665,8.986,8.048,12.906,12.377c-3.54,2.939-7.761,6.026-12.157,8.804C159.017,268.253,155.449,262.456,152.646,257.901       z M160.601,247.243c-3.006-2.218-6.751-4.573-10.287-5.74c4.631-0.896,9.544-0.478,14.107,0.716       C163.403,243.881,162.119,245.576,160.601,247.243z M188.085,281.488c-4.467,3.74-9.326,7.262-14.464,10.496       c-3.948-6.415-6.768-10.998-10.366-16.843c4.209-2.657,8.525-5.746,12.584-9.138       C177.722,268.166,183.718,275.399,188.085,281.488z M175.225,294.59c5.2-3.272,10.095-6.831,14.631-10.599       c3.954,5.62,8.247,12.472,9.131,13.996c-4.706,3.772-9.762,7.372-15.083,10.705L175.225,294.59z M158.445,249.461       c-4.36,4.14-5.811,4.596-7.518,5.647l-6.895-11.204C148.409,242.763,154.803,246.817,158.445,249.461z M148.322,256.711       c-1.532,0.943-2.902,2.222-8.418,4.161c-0.738-4.463-1.45-11.935,1.523-15.365L148.322,256.711z M136.463,250.028       c-0.559,3.739-0.151,8.042,0.489,11.77c-2.183,0.61-4.275,0.993-6.206,1.147C131.733,258.341,133.563,253.761,136.463,250.028z        M172.62,296.193l8.679,14.102c-5.373,3.249-10.854,6.134-16.342,8.635c-1.055-1.617-5.278-8.639-8.381-14.458       C161.984,302.121,167.366,299.354,172.62,296.193z M166.604,321.537c5.482-2.512,10.946-5.401,16.298-8.637l9.032,14.675       c-5.122,3.095-10.301,5.865-15.477,8.289C170.788,328.223,166.672,321.64,166.604,321.537z M213.999,363.43l4.445,7.223       c-2.688,0.677-6.533-0.506-11.165-3.361C209.529,366.067,211.773,364.786,213.999,363.43z M216.605,361.827       c2.214-1.376,4.368-2.803,6.476-4.258c0.473,5.415-0.205,9.381-2.031,11.482L216.605,361.827z M194.539,325.973l-9.032-14.675       c5.311-3.326,10.352-6.903,15.064-10.665c1.352,2.374,4.092,6.77,8.352,15.252C204.427,319.413,199.61,322.794,194.539,325.973       z M205.992,267.665c2.593-3.231,5.259-7.127,7.384-11.025c4.3,3.819,8.304,8.142,12.013,13.099       c-2.573,3.969-5.607,7.935-9.039,11.814C214.646,278.785,210.887,273.525,205.992,267.665z M211.008,254.59       c-1.889,3.562-4.258,7.162-7.078,10.751c-4.203-4.679-9.289-9.536-14.243-13.336c1.705-2.18,3.418-4.468,5.387-7.756       C195.314,244.361,205.102,249.77,211.008,254.59z M131.077,289.239c4.216-1.043,8.553-2.447,12.931-4.207       c2.575,6.333,5.557,12.677,8.306,17.91c-3.13,1.265-6.241,2.375-9.346,3.308c-3.116,0.977-6.204,1.704-6.353,1.726       C134.031,301.456,132.134,294.774,131.077,289.239z M134.742,311.514c2.097,5.116,5.756,12.319,7.727,15.521       c-5.016,1.306-9.924,2.228-14.637,2.743c-2.673-5.481-4.649-10.55-6.281-16.627C126.526,312.994,132.235,312.1,134.742,311.514       z M141.425,350.139c4.832-0.718,9.853-1.854,14.996-3.351c3.883,4.56,8.337,9.076,13.232,13.211       c-4.658,1.444-9.257,2.564-13.753,3.362C150.823,359.706,146.013,355.389,141.425,350.139z M159.619,345.796       c5.216-1.658,10.535-3.71,15.871-6.131c1.098,1.536,6.333,8.204,11.422,13.75c-4.6,2.099-9.208,3.928-13.792,5.47       C168.1,354.825,163.237,350.028,159.619,345.796z M204.194,368.934c2.878,1.922,5.539,3.302,7.955,4.1       c-4.419,0.852-9.334,0.571-14.585-0.839C199.775,371.164,201.982,370.079,204.194,368.934z M225.946,355.547       c2.016-1.442,3.982-2.94,5.899-4.45c-1.107,5.323-3.071,9.837-5.823,13.399C226.399,361.979,226.365,358.982,225.946,355.547z        M219.879,333.126c-3.512-9.304-5.836-13.491-5.858-13.768c-1.35-2.791-1.216-2.514-1.27-2.624       c4.555-3.666,8.784-7.49,12.621-11.389c2.4,5.738,4.362,12.174,5.605,17.934C227.546,326.669,223.826,329.965,219.879,333.126z        M226.373,299.872c-2.689-6.017-5.279-10.589-8.314-15.634c3.48-3.896,6.586-7.862,9.255-11.861       c3.246,4.615,6.322,9.995,8.724,15.367C233.293,291.805,230.047,295.871,226.373,299.872z M229.096,269.599       c2.376-3.829,4.639-8.216,6.205-12.498c3.304,3.575,7.036,8.397,9.497,12.98c-1.412,4.735-3.714,9.657-6.781,14.62       C235.499,279.447,232.611,274.49,229.096,269.599z M128.098,289.909c1.163,6.149,3.218,12.91,5.488,18.724       c-4.475,0.9-8.756,1.393-12.787,1.475c-1.706-7.754-2.211-14.49-2.052-18.885C122.521,290.951,125.384,290.448,128.098,289.909       z M112.127,332.933c4.619,0.519,9.294,0.472,13.926,0.095c2.686,5.155,5.814,10.034,9.463,14.769       c-5.819,0.491-11.251,0.328-16.114-0.545C116.408,342.93,113.913,337.778,112.127,332.933z M159.45,365.79       c4.278-0.894,8.638-2.054,13.044-3.487c5.169,4.04,10.717,7.555,16.722,10.173c-2.599,1.054-5.185,2.012-7.774,2.873       C174.467,373.723,166.864,370.579,159.45,365.79z M193.324,374.085c3.294,1.149,6.503,1.905,9.578,2.254       c-4.978,0.808-10.194,0.856-15.504,0.143C189.376,375.725,191.344,374.93,193.324,374.085z M235.453,348.158       c1.637-1.38,3.243-2.786,4.793-4.214c-1.75,5.072-4.143,9.706-7.108,13.787C234.213,354.828,234.985,351.622,235.453,348.158z        M235.857,343.771c0.401-6.358-0.306-13.264-1.546-19.512c3.265-3.288,6.275-6.663,8.994-10.09       c0.835,7.97,0.494,16.289-1.369,23.951C240.001,340.042,237.969,341.925,235.857,343.771z M245.235,306.47       c-1.146-5.946-3.028-12.183-5.722-18.451c3.171-4.841,5.657-9.675,7.329-14.383c1.006,1.635,3.807,8.059,5.064,12.547       c0.673,2.12,1.355,5.231,1.433,5.527C252.667,293.112,250.708,298.51,245.235,306.47z M116.401,272.117       c0.297-0.709,3.163-5.522,4.746-7.606c0.057,0.023,0.121,0.056,0.194,0.082c-4.515,9.887-5.684,22.132-5.552,23.693       c-0.192,0.035-3.007,0.061-5.722-0.214C112.384,279.48,116.244,272.264,116.401,272.117z M173.796,380.858       c2.589-0.673,5.195-1.459,7.811-2.321c4.137,0.931,8.253,1.431,12.286,1.492C187.228,381.272,180.472,381.549,173.796,380.858z        M240.606,351.137c1.713-3.569,3.078-7.398,4.101-11.433c1.928-1.934,3.779-3.878,5.532-5.862       C247.872,340.012,244.641,345.808,240.606,351.137z" fill="#ffffff" data-original="#ffffff" class=""></path>
				</g>
			</g>
			<g>
				<g style="opacity:0.25;">
					<path style="" d="M300.315,317.046c3.04,10.662-1.218,22.459-11.12,28.553L151.01,430.642       c-3.179,1.956-7.342,0.965-9.298-2.214L7.985,211.136c8.547-2.306,17.441-2.572,25.858,1.14       c43.126,19.041,60.615,134.834,132.507,149.243c23.265,4.661,41.239-12.488,59.011-24.366       C245.431,323.727,275.827,308.168,300.315,317.046z" fill="#000e3f" data-original="#000e3f" class=""></path>
				</g>
			</g>
		</g>
		<g>
			<g>
				<path style="" d="M50.593,211.296c4.243-1.729,6.414-7.037,4.524-11.179c-0.121-0.261-0.281-0.543-0.442-0.804      l-0.02-0.04c-4.604-6.655-13.17-2.252-17.352,2.151c4.383,6.575,9.209,15.02,13.07,20.751c1.448-0.684,4.041-2.232,4.987-3.237      c0.02-0.02,0.04-0.061,0.06-0.081l-0.02-0.02C51.639,213.046,51.378,212.362,50.593,211.296z M47.497,207.275l-0.08,0.061      c-1.146-0.985-2.091-2.976-3.076-4.383c0-0.04,0.04-0.061,0.06-0.08c1.106-1.146,2.654-1.81,4.162-1.609      c1.448-0.02,2.493,1.347,2.393,2.674C50.593,205.505,48.723,206.39,47.497,207.275z" fill="#000e3f" data-original="#000e3f" class=""></path>
				<path style="" d="M75.124,207.154l-8.807-9.209c-1.729-1.729-7.741-7.842-9.088-9.189      c-2.513,1.87-3.117,1.991-3.619,2.433c3.056,11.481,8.103,23.043,8.364,24.008c0.06,0,0.06,0,0.08,0      c2.755-1.729,3.981-2.292,4.263-2.594c0.04-0.02,0.04-0.06,0.08-0.08c-0.121-1.769-1.548-4.283-1.79-5.891      c0.905-0.543,0.784-0.643,1.91-1.126c1.267,0.865,3.177,3.076,4.464,4.082l0.02-0.02c1.468-0.543,3.076-1.407,4.142-2.393      L75.124,207.154z M62.195,203.193c-2.976-6.736-5.389-11.079,2.252-1.387C63.683,202.288,62.919,202.791,62.195,203.193z" fill="#000e3f" data-original="#000e3f" class=""></path>
				<path style="" d="M86.746,195.432c-0.302-2.674-1.95-5.268-4.484-6.213c-2.252-1.005-4.906-1.025-7.198,0.04      c-0.925,0.402-1.85,0.683-2.775-0.081c-0.201-0.261-0.422-0.503-0.503-0.824c-1.066-2.473,3.378-4.082,4.263-1.568      c1.649-0.483,3.277-1.649,4.544-2.775l0.04-0.02c-1.287-3.378-3.74-4.585-6.293-4.383c-2.493,0.301-5.469,1.769-6.937,3.8      c-2.895,4.001-1.347,10.637,4.564,11.904c0.865,0.121,1.79,0.101,2.694-0.241c1.91-0.704,4.464-1.91,5.891-0.121      c2.232,2.513-2.232,5.187-3.961,2.694c-1.347,0.865-3.338,1.79-4.625,2.875l0.06,0.101l0.04,0.101      c2.131,3.981,7.379,3.901,10.978,1.809C85.6,201.082,87.309,198.528,86.746,195.432z" fill="#000e3f" data-original="#000e3f" class=""></path>
				<path style="" d="M101.987,186.062c-0.302-2.694-1.95-5.288-4.484-6.213c-2.252-1.005-4.906-1.046-7.198,0.04      c-0.925,0.402-1.85,0.664-2.775-0.101c-0.201-0.241-0.422-0.483-0.503-0.804c-1.066-2.493,3.378-4.082,4.263-1.589      c1.649-0.483,3.277-1.649,4.564-2.755l0.02-0.02c-1.287-3.378-3.74-4.584-6.293-4.403c-2.493,0.322-5.469,1.79-6.937,3.821      c-2.895,3.981-1.347,10.636,4.564,11.883c0.885,0.141,1.79,0.121,2.694-0.241c1.91-0.704,4.464-1.91,5.891-0.121      c2.232,2.533-2.232,5.188-3.961,2.715c-1.347,0.865-3.338,1.789-4.625,2.875l0.06,0.08l0.06,0.101      c2.111,4.001,7.359,3.901,10.958,1.81C100.841,191.712,102.55,189.138,101.987,186.062z" fill="#000e3f" data-original="#000e3f" class=""></path>
				<path style="" d="M107.174,176.471c4.243-1.729,6.414-7.018,4.524-11.179c-0.121-0.261-0.282-0.523-0.462-0.804      l-0.02-0.02c-4.584-6.655-13.17-2.252-17.332,2.152c4.363,6.575,9.189,15.02,13.049,20.75c1.468-0.684,4.062-2.252,4.987-3.237      c0.04-0.02,0.04-0.081,0.08-0.101l-0.02-0.02C108.2,178.22,107.958,177.536,107.174,176.471z M104.078,172.45l-0.101,0.06      c-1.146-0.965-2.091-2.976-3.076-4.383c0.02-0.04,0.04-0.061,0.08-0.08c1.106-1.126,2.654-1.79,4.162-1.589      c1.448-0.02,2.493,1.347,2.393,2.654C107.154,170.68,105.284,171.585,104.078,172.45z" fill="#000e3f" data-original="#000e3f" class=""></path>
				<path style="" d="M130.559,165.01l-0.523-1.066c-1.126-2.171-2.453-4.082-3.659-6.293      c-0.583-1.025-1.206-2.031-1.91-2.976c-0.483-0.563-1.005-1.126-1.649-1.568c-0.664-0.543-1.488-0.925-2.373-1.086      c-3.438-0.362-7.239,1.89-9.088,4.846c-0.181,0.322-0.281,0.623-0.362,0.965c-0.362,2.191,0.483,4.343,1.568,6.173      c1.749,3.317,3.961,6.354,6.012,9.43c0.764,1.166,1.609,2.272,2.795,2.916c1.729,1.146,3.559,0.523,5.308-0.342      c1.247-0.643,2.353-1.407,3.277-2.433c1.025-1.106,1.87-2.373,1.97-3.76C131.926,168.167,131.343,166.478,130.559,165.01z       M127.02,168.69c-0.382,2.151-3.036,3.539-4.806,2.413c-1.227-1.086-2.131-2.614-3.217-3.901      c-1.126-1.649-2.172-3.398-2.775-5.147c-0.282-1.005-0.221-1.991,0.141-2.956c0.322-0.885,1.066-1.709,2.091-1.89      c1.227-0.121,2.373,0.543,3.157,1.608c0.462,0.684,1.166,1.629,1.186,1.649l1.327,2.031l0.905,1.447      c0.06,0.101,0.442,0.784,0.905,1.609C126.859,167.403,127.161,167.222,127.02,168.69z" fill="#000e3f" data-original="#000e3f" class=""></path>
				<path style="" d="M139.687,154.715l-0.02-0.04l0.04-0.02l0.121-0.06c1.85-1.327,2.453-3.137,2.312-5.067      c-0.08-5.751-6.394-9.089-11.34-6.394c-3.137,1.468-5.63,3.599-7.701,5.328c1.548,1.85,13.492,20.891,13.25,21.052      c0.342-0.342,4.062-2.172,5.067-3.579c-1.046-1.488-3.82-5.328-4.705-7.299l0.121,0.06c3.036,1.046,6.957,3.639,8.887,5.007      l0.04-0.02c1.87-1.005,3.519-2.252,4.946-3.137C147.449,157.952,143.226,156.665,139.687,154.715z M135.666,151.719      c-0.865,0.744-2.051,1.387-3.056,1.87l-0.02,0.02c-0.724-0.804-1.729-2.654-2.453-3.619c1.066-1.468,2.453-2.533,3.84-2.252      C135.646,147.939,137.013,150.432,135.666,151.719z" fill="#000e3f" data-original="#000e3f" class=""></path>
				<path style="" d="M160.659,154.213c-8.405-13.09-9.792-15.281-10.033-15.925c0-0.04,0-0.08-0.02-0.121l0.04-0.02      l0.06-0.02c1.85-1.267,2.835-1.971,3.7-2.292c-0.684-1.569-1.87-3.479-2.775-4.765c-4.444,2.111-8.847,5.027-12.949,7.6      c0,0.04,0.04,0.02,0.06,0.04c1.025,2.011,2.714,4.484,3.056,4.685c0.563-0.141,2.614-1.79,3.861-1.87h0.04      c7.44,11.019,9.832,15.724,10.154,16.025c1.307-1.126,3.499-2.111,4.826-3.277v-0.02L160.659,154.213z" fill="#000e3f" data-original="#000e3f" class=""></path>
			</g>
			<g>
				<path style="" d="M100.64,219.942c-3.559-2.634-8.123-1.951-10.797,0.683c-4.544,4.484-1.206,12.245,4.886,12.768      C102.329,234.017,106.893,224.607,100.64,219.942z" fill="#000e3f" data-original="#000e3f" class=""></path>
				<path style="" d="M145.016,186.665c-3.539,1.207-6.233,4.967-5.469,9.33c1.347,7.681,11.803,7.842,14.658,0.784      C156.497,191.109,151.068,184.634,145.016,186.665z" fill="#000e3f" data-original="#000e3f" class=""></path>
				<path style="" d="M301.95,316.596c-0.664-2.373-1.669-4.685-2.996-6.836L179.519,115.667      c-3.8-6.153-9.772-10.476-16.809-12.145c-4.323-1.046-8.726-1.005-12.909,0.08l-6.012-9.49c-0.704-1.106-1.85-1.85-3.137-2.051      c-1.287-0.181-2.614,0.181-3.619,1.025l-5.59,4.745l-2.976-4.825c-0.784-1.267-2.091-2.111-3.559-2.333      c-1.488-0.201-2.976,0.261-4.082,1.267l-2.735,2.493c-2.533-1.89-5.57-3.096-8.827-3.458c-5.55-0.603-10.998,1.347-14.899,5.389      c-8.616,9.139-17.241,18.269-25.878,27.388c-6.857,7.24-13.721,14.473-20.595,21.697c-5.3,5.57-10.606,11.135-15.919,16.694      c-3.948,4.13-7.899,8.256-11.853,12.38c-6.649,6.934-17.556,18.162-18.924,20.164c-1.73,2.533-1.479,6.241,0.074,8.766      c0,0,138.999,225.881,138.999,225.881c1.588,2.574,4.363,4.001,7.198,4.001c1.528,0,3.036-0.402,4.424-1.247l138.195-85.053      C300.382,340.705,305.248,328.178,301.95,316.596z M133.233,100.748l5.992-5.067c0.342-0.301,0.724-0.281,0.905-0.261      c0.201,0.04,0.543,0.141,0.784,0.523l5.55,8.747c-1.468,0.563-2.875,1.267-4.243,2.111l-3.82,2.352l-2.895,1.769l-4.202,2.594      l-2.895,1.789l-45.241,27.828l40.998-34.705l2.634-2.232l3.82-3.217L133.233,100.748z M120.606,96.747l2.513-2.292      c0.483-0.462,1.025-0.442,1.307-0.422c0.281,0.04,0.804,0.201,1.146,0.764l3.237,5.248l-3.82,3.237l-2.614,2.212l-58.431,49.483      l-22.58,13.894l76.728-69.831L120.606,96.747z M96.819,98.717c3.157-3.257,7.56-4.846,12.084-4.363      c2.413,0.262,4.665,1.106,6.595,2.433l-89.737,81.674l-11.34,6.997L96.819,98.717z M288.298,344.143l-138.195,85.053      c-2.353,1.468-5.469,0.724-6.937-1.649L4.166,201.685c-0.704-1.146-0.925-2.513-0.623-3.821c0.181-0.704,0.483-1.347,0.905-1.91      l0.08-0.101l0.503-0.503c0.241-0.221,0.503-0.422,0.784-0.603l14.015-8.626l7.982-4.906l31.367-19.303l6.716-4.142      l71.701-44.135l2.292-1.407l4.122-2.533c3.78-2.332,8.043-3.539,12.386-3.539c1.83,0,3.7,0.221,5.529,0.664      c3.076,0.724,5.911,2.051,8.405,3.84c2.493,1.81,4.625,4.102,6.293,6.796l119.435,194.093c1.166,1.87,2.051,3.881,2.614,5.972      C301.568,327.655,297.306,338.613,288.298,344.143z" fill="#000e3f" data-original="#000e3f" class=""></path>
			</g>
		</g>
	</g>
	<g>
		<g>
			<g>
				<path style="" d="M265.788,127.18c-1.599,1.118-3.464,2.725-5.6,4.017l-0.033,0.024      c-2.338-1.456-7.097-4.207-10.703-5.233l-0.138-0.053c1.155,2.231,4.66,6.519,5.975,8.181c-1.08,1.719-5.288,4.103-5.658,4.514      c0.273-0.19-14.934-21.573-16.867-23.614c2.288-2.157,5.05-4.8,8.612-6.733c5.566-3.486,13.154-0.028,13.635,6.676      c0.291,2.228-0.269,4.395-2.351,6.053l-0.138,0.094l-0.033,0.024l0.024,0.035c4.262,2.034,9.262,3.248,13.241,6.04      L265.788,127.18z M244.156,120.371l0.035-0.024c1.124-0.636,2.466-1.472,3.436-2.404c1.472-1.586-0.295-4.404-2.242-4.511      c-1.631-0.229-3.179,1.109-4.325,2.872C241.973,117.39,243.272,119.468,244.156,120.371z" fill="#000e3f" data-original="#000e3f" class=""></path>
				<path style="" d="M279.255,113.508c0.973,1.5,1.94,3.243,2.346,4.916c-4.957,2.701-10.02,5.983-14.925,8.179      c-4.669-8.424-9.592-16.279-13.727-24.854c5.465-3.409,14.788-8.765,14.908-8.546c1.2,1.562,1.911,3.447,2.858,5.154l0.02,0.037      c-2.703,2.399-6.235,3.646-9.272,5.706l-0.109,0.061l-0.015,0.057c0.822,1.397,1.34,3.101,2.39,4.227l0.057,0.017      c1.513-0.697,3.016-1.577,4.525-2.368l0.02,0.037c1.161,1.494,1.846,3.248,2.869,5.006c-1.268,1.223-3.884,2.152-4.171,2.836      c0.532,1.555,1.763,3.434,2.517,4.536l0.057,0.018c3.193-1.772,6.368-3.153,9.611-5.091L279.255,113.508z" fill="#000e3f" data-original="#000e3f" class=""></path>
				<path style="" d="M299.538,110.775l0.017,0.039c-1.399,0.956-3.396,1.671-5.183,2.025l-0.039,0.016      c-1.31-1.382-3.123-4.264-4.442-5.461c-1.38,0.363-1.24,0.485-2.384,0.971c-0.004,1.896,1.198,5.038,1.034,7.09      c-0.037,0.017-0.059,0.072-0.098,0.088c-0.37,0.293-1.903,0.719-5.362,2.237c-0.039,0.017-0.039,0.017-0.092-0.005      c-0.133-1.161-3.967-15.36-5.504-29.138c0.676-0.424,1.386-0.455,4.616-2.189c1.303,1.789,7.186,9.885,8.885,12.185      L299.538,110.775z M285.321,103.973c0.894-0.335,1.872-0.796,2.827-1.201C281.011,90.249,283.06,95.69,285.321,103.973z" fill="#000e3f" data-original="#000e3f" class=""></path>
				<path style="" d="M311.633,86.623c0.534,0.748,0.831,1.57,1.128,2.39c0.652,2.535,1.476,5.062,1.747,7.626      c0.013,0.039-0.028,0.052-0.015,0.09c-0.105,3.464-1.19,6.841-2.441,9.963c-3.453,1.198-7.061,2.312-10.39,3.339l-0.028,0.052      c-3.735-8.011-5.996-17.867-9.034-27.008c0.028-0.051,0.044-0.144,0.07-0.195c2.782-1.682,6.418-2.285,9.434-3.346      c1.843-0.09,3.923,0.745,5.349,1.997C309.155,82.96,310.509,84.67,311.633,86.623z M307.671,91.799      c-0.818-1.526-1.907-3.361-3.888-3.446c-0.947,0.162-2.069,0.464-2.961,0.956l-0.079,0.026l-0.04,0.011l0.05,0.158      c1.08,2.795,1.949,6.74,3.252,10.247c0.752,0.333,1.854-0.181,2.768-0.593c0.291-0.046,0.4-0.254,0.639-0.457      c0.418-0.477,0.667-1.076,0.838-1.651C308.733,95.382,308.707,93.61,307.671,91.799z" fill="#000e3f" data-original="#000e3f" class=""></path>
				<path style="" d="M328.87,73.515c-0.96,10.34-4.781,20.391-6.021,30.619c-0.334,0.028-0.658,0.098-1.023,0.173      c-1.139,0.239-2.533,0.661-3.794,0.925c-0.324,0.07-0.649,0.138-0.984,0.166l-0.081,0.016c0.499-4.684,1.454-10.02,2.362-15.172      l-0.016-0.081c-2.178-4.505-6.005-8.575-8.069-12.935c1.096-0.232,2.264-0.731,3.442-0.978c0.65-0.138,1.308-0.234,1.977-0.077      c1.034,2.285,3.599,6.41,5.001,8.234c0.685-2.18,0.919-7.107,1.433-9.506c0.932-0.407,2.784-0.883,4.205-1.183      c0.65-0.137,1.227-0.216,1.561-0.243L328.87,73.515z" fill="#000e3f" data-original="#000e3f" class=""></path>
				<path style="" d="M360.7,77.073c-1.048-0.151-2.452,0.009-5.056,0.274l-0.083,0.006h-0.041      c0.002,0.044-0.037,0.085-0.037,0.127c-0.122,0.798,0.083,3.822,1.395,21.912l0.002,0.042l0.002,0.041      c-2.012,0.442-4.809,0.219-6.781,0.658c-0.151-0.49,0.013-6.65-1.485-22.074l-0.042-0.039c-1.323-0.593-4.326-0.055-5.003-0.227      c-0.228-0.404-0.582-3.877-0.518-6.499c-0.002-0.04-0.042-0.039-0.046-0.081c5.636-0.346,11.798-0.886,17.51-0.571      C360.741,72.458,360.883,75.07,360.7,77.073z" fill="#000e3f" data-original="#000e3f" class=""></path>
				<path style="" d="M380.056,78.145c0.07,1.373,0.016,2.742-0.079,4.109c-0.28,2.939-0.219,5.642-0.538,8.496      l-0.177,1.362c-0.201,1.946-0.735,3.96-1.795,5.54c-1.006,1.29-2.653,1.973-4.371,2.364c-1.551,0.396-3.13,0.416-4.744,0.228      c-2.274-0.295-4.452-0.877-5.362-3.116c-0.735-1.4-0.838-3.024-0.816-4.643c0.002-4.319-0.16-8.69,0.3-13.033      c0.138-2.487,0.697-5.122,2.475-7.007c0.3-0.278,0.603-0.516,0.982-0.709c3.72-1.64,8.861-1.358,11.958,1.214      c0.761,0.735,1.308,1.629,1.603,2.596C379.831,76.391,379.966,77.268,380.056,78.145z M374.687,82.671      c0-0.04-0.07-1.415-0.076-2.369c-0.063-1.539-0.757-2.937-2.019-3.61c-1.1-0.501-2.36-0.177-3.256,0.455      c-0.984,0.709-1.684,1.638-2.062,2.784c-0.538,2.099-0.673,4.461-0.639,6.79c0.214,1.959,0.092,4.032,0.56,5.878      c0.995,2.242,4.468,2.626,6.243,0.785c1.091-1.329,0.676-1.345,0.978-3.744c0.083-1.117,0.16-2.029,0.166-2.152l0.077-1.992      L374.687,82.671z" fill="#000e3f" data-original="#000e3f" class=""></path>
			</g>
		</g>
		<g>
			<g>
				<path style="" d="M271.959,151.461c-0.984,0.385-2.126,1.22-4.258,2.736l-0.07,0.044l-0.035,0.024      c0.022,0.035,0.011,0.092,0.033,0.127c0.287,0.752,1.959,3.278,12.041,18.352l0.024,0.035l0.022,0.035      c-1.533,1.38-4.072,2.568-5.568,3.923c-0.374-0.352-3.276-5.786-12.201-18.446l-0.057-0.013      c-1.443,0.136-3.788,2.088-4.457,2.272c-0.398-0.236-2.425-3.077-3.663-5.389c-0.022-0.035-0.057-0.011-0.079-0.046      c4.724-3.086,9.813-6.606,14.932-9.154C269.713,147.429,271.126,149.629,271.959,151.461z" fill="#000e3f" data-original="#000e3f" class=""></path>
				<path style="" d="M303.225,160.493c-1.751,0.866-3.834,2.172-6.141,3.127l-0.037,0.018      c-2.09-1.791-6.381-5.225-9.788-6.784l-0.131-0.074c0.807,2.379,3.622,7.145,4.673,8.988c-1.325,1.535-5.844,3.258-6.274,3.609      c0.298-0.147-11.51-23.575-13.114-25.884c2.589-1.791,5.717-3.982,9.53-5.356c6.027-2.607,13.005,1.953,12.472,8.653      c-0.048,2.246-0.931,4.302-3.239,5.627l-0.147,0.074l-0.039,0.02l0.02,0.037c3.904,2.653,8.665,4.607,12.177,7.964      L303.225,160.493z M282.871,150.504l0.037-0.019c1.207-0.461,2.659-1.083,3.759-1.859c1.695-1.347,0.372-4.398-1.539-4.796      c-1.574-0.47-3.307,0.615-4.706,2.187C281.159,147.226,282.132,149.478,282.871,150.504z" fill="#000e3f" data-original="#000e3f" class=""></path>
				<path style="" d="M322.158,153.635l0.015,0.039c-1.448,0.877-3.483,1.479-5.286,1.736l-0.039,0.015      c-1.233-1.452-2.884-4.431-4.137-5.699c-1.398,0.286-1.262,0.413-2.434,0.835c-0.111,1.894,0.917,5.098,0.639,7.142      c-0.039,0.013-0.064,0.066-0.103,0.081c-0.387,0.273-1.94,0.613-5.476,1.936c-0.039,0.015-0.039,0.015-0.092-0.011      c-0.068-1.166-3.112-15.559-3.882-29.402c0.698-0.387,1.408-0.378,4.73-1.933c1.201,1.861,6.628,10.272,8.196,12.66      L322.158,153.635z M308.336,146.053c0.912-0.286,1.913-0.691,2.889-1.045C304.797,132.108,306.538,137.658,308.336,146.053z" fill="#000e3f" data-original="#000e3f" class=""></path>
				<path style="" d="M331.365,151.276c-0.44,0.116-1.362,0.531-2.486,0.827c-1.163,0.308-2.498,0.617-3.416,0.56      c-4.697-8.035-8.651-16.822-11.86-25.892l-0.011-0.04c0.411-0.883,4.699-1.885,5.594-1.907      c0.953,1.983,2.681,10.156,7.098,18.262c-0.241-9.209-1.404-14.912-1.428-19.713c-0.011-0.04,0.018-0.092,0.059-0.103      c1.913-0.074,3.945-0.999,5.876-1.164C331.496,132.094,331.475,141.286,331.365,151.276z" fill="#000e3f" data-original="#000e3f" class=""></path>
				<path style="" d="M355.863,141.105c0.398,1.741,0.706,3.711,0.508,5.421c-5.583,0.827-11.464,2.163-16.824,2.537      c-1.483-9.511-3.4-18.579-4.33-28.051c6.304-1.319,16.9-3.138,16.937-2.893c0.588,1.883,0.608,3.897,0.908,5.824l0.005,0.041      c-3.364,1.323-7.109,1.275-10.667,2.165l-0.123,0.02l-0.035,0.048c0.291,1.592,0.192,3.372,0.79,4.791l0.048,0.033      c1.658-0.133,3.374-0.44,5.064-0.662l0.004,0.041c0.577,1.802,0.617,3.685,0.971,5.688c-1.61,0.713-4.387,0.684-4.892,1.224      c-0.037,1.644,0.474,3.834,0.802,5.124l0.046,0.035c3.608-0.562,7.062-0.767,10.775-1.467L355.863,141.105z" fill="#000e3f" data-original="#000e3f" class=""></path>
				<path style="" d="M374.904,145.592c-1.168-0.065-3.014,0.405-16.367,0.883l-0.039-0.746      c-0.142-12.456-0.573-16.797-1.336-28.434c1.094-0.512,5.028-0.796,6.639-0.216c0.16,7.18,0.949,15.284,1.19,22.418l0.004,0.042      c1.059-0.387,9.427-0.07,10.746-0.304c0.015,0.289,0.031,0.621,0.004,0.914c-0.011,0.54-0.022,1.165,0.042,1.618      C376.198,145.734,376.063,145.533,374.904,145.592z" fill="#000e3f" data-original="#000e3f" class=""></path>
				<path style="" d="M377.513,145.717c-0.374-0.007,0.19-3.32,0.221-4.851l0.002-0.042      c1.34-0.512,3.447-0.015,5.065,0.018c-0.07,1.535-0.192,3.357-0.225,4.977l-0.289-0.004c-0.665-0.016-0.954-0.061-1.577-0.074      l-0.083-0.004L377.513,145.717z M378.101,116.62c1.456-0.096,3.58-0.468,5.108,0.02c-0.267,7.096-0.591,14.855-0.404,21.96      c-1.454,0.138-3.738,0.092-5.358,0.101l-0.041-0.004c0.271-7.302-0.04-14.534,0.569-22.079L378.101,116.62z" fill="#000e3f" data-original="#000e3f" class=""></path>
			</g>
		</g>
	</g>
	<g>
		<path style="" d="M376.472,370.276c4.199-0.338,7.783-0.79,10.504,0.017c2.7,0.801,2.563,4.664,0.051,5.267    c-4.108,0.989-10.939,0.191-11.28,1.228c-0.336,1.021,1.014,1.536,1.751,2.148c4.098,3.401,6.876,5.137,9.156,7.849    c1.731,2.059-1.268,5.182-3.38,4.159c-2.038-0.988-3.789-2.761-12.764-9.804c-2.974-2.334-2.663,1.819-3.144,6.734    c-0.273,2.79-1.716,6.269-4.418,5.57c-2.229-0.577-2.058-2.817-1.899-5.127c0.838-12.166,2.504-11.094-9.582-2.456    c-2.22,1.587-5.088,3.345-6.574,0.956c-1.516-2.437,1.294-4.107,6.275-8.049c0.804-0.556,1.451-0.911,2.092-1.39    c1.57-1.058,3.131-1.967,4.122-3.601c-1.538-1.642-3.189-1.32-5.496-1.526c-2.471-0.11-5.444,0.367-7.503-2.128    c-0.802-0.971-0.615-2.441,0.468-3.036c5.291-2.907,13.297,1.928,10.79-3.159c-3.241-6.573-4.233-7.974-5.017-10.962    c-0.74-2.82,2.539-4.428,4.403-2.22c3.093,3.662,6.361,12.302,7.622,12.15c1.315-0.158,0.76-11.392,2.722-13.996    c1.418-1.882,3.673-1.42,4.33,0.537c0.999,2.976,0.466,4.448-0.104,12.508c-0.044,0.626-0.239,1.433,0.556,1.714    c0.711,0.25,1.251-0.332,1.73-0.774c2.419-2.234,7.798-7.348,8.085-7.55c2.704-1.911,6.414,1.656,3.836,4.245    C374.846,368.578,371.482,370.26,376.472,370.276L376.472,370.276z" fill="#fd8a02" data-original="#fd8a02" class=""></path>
		<path style="" d="M449.613,417.191c4.419-0.229,10.195-0.929,10.108,2.45c-0.06,2.355-2.256,2.339-4.87,2.433    c-1.498,0.053-5.743-0.247-5.98,0.412c-0.324,0.9,0.396,0.762,6.398,6.042c1.757,1.546,3.717,3.389,2.005,4.978    c-2.338,2.169-2.683,0.798-12.775-7.592c-2.372-1.973-2.213,1.422-2.719,5.42c-0.287,2.269-1.545,5.073-3.732,4.44    c-1.809-0.523-1.612-2.356-1.43-4.225c0.964-9.902,2.3-8.99-7.758-2.224c-1.847,1.242-4.227,2.61-5.383,0.628    c-1.998-3.424,8.679-7.548,10.488-10.346c-1.216-1.375-2.796-1.209-4.449-1.412c-2.254-0.212-4.444,0.218-6.068-1.869    c-1.693-2.174,1.647-3.414,4.441-3.183c7.199,0.595,6.121,1.483,1.942-7.942c-0.835-1.887-1.692-4.298,0.179-5.13    c2.015-0.896,3.181,1.338,4.307,3.472c4.996,9.472,4.134,10.58,5.784-1.366c0.729-5.274,5.62-4.981,4.769,1.93    c-1.263,10.268-1.454,9.293,6.402,2.324c0.739-0.655,2.856-3.207,4.825-0.74c0.725,0.909,0.709,2.031-0.255,2.946    C448.334,415.762,445.538,417.058,449.613,417.191L449.613,417.191z" fill="#fd8a02" data-original="#fd8a02" class=""></path>
		<path style="" d="M300.415,410.353c2.74-2.812,4.978-5.328,7.382-6.431c2.386-1.094,4.659,1.7,3.267,3.665    c-2.275,3.212-7.561,6.845-7.164,7.781c0.391,0.923,1.655,0.456,2.547,0.433c4.962-0.126,7.977-0.612,11.24-0.107    c2.478,0.383,2.289,4.415,0.179,4.992c-2.034,0.556-4.329,0.385-14.972,0.948c-3.519,0.186-0.752,2.91,1.925,6.655    c1.519,2.126,2.64,5.452,0.316,6.618c-1.923,0.965-3.179-0.725-4.478-2.434c-6.874-9.052-5.045-9.322-8.231,4.154    c-0.586,2.475-1.52,5.468-4.028,4.703c-2.626-0.801-1.564-3.931-0.532-9.498c0.142-0.765,0.535-1.493,0.616-2.259    c0.178-1.694,0.991-3.301,0.684-5.056c-2.087-0.209-3.124,1.653-4.713,2.431c-2.548,1.247-3.677,3.465-6.652,2.977    c-1.159-0.19-1.929-1.336-1.534-2.418c1.928-5.281,10.516-6.802,5.636-8.835c-7.507-3.125-12.514-4.435-11.21-7.469    c0.994-2.314,3.706-1.346,6.305-0.43c11.566,4.077,11.712,5.719,3.791-5.633c-3.376-4.838,0.757-8.665,5.497-2.082    c6.915,9.599,5.991,8.907,7.172-3.017c0.077-0.776,0.066-1.572,0.248-2.322c0.724-2.997,5.518-2.775,5.296,0.627    c-0.765,11.763-2.194,15.001,1.345,11.937C300.369,410.308,300.392,410.331,300.415,410.353z" fill="#fd8a02" data-original="#fd8a02" class=""></path>
	</g>
</g>















</g></svg>