<svg xmlns="http://www.w3.org/2000/svg" version="1.1" xmlns:xlink="http://www.w3.org/1999/xlink" xmlns:svgjs="http://svgjs.com/svgjs" width="512" height="512" x="0" y="0" viewBox="0 0 512 512" style="enable-background:new 0 0 512 512" xml:space="preserve" class=""><g>
<g>
	<path style="opacity:0.75;" d="M504.625,423.838c0,3.651-3.585,6.638-7.966,6.638h-2.724H9.033H7.966   c-4.381,0-7.966-2.987-7.966-6.638c0-3.651,3.585-6.638,7.966-6.638h13.275h13.189c4.381,0,7.966-2.987,7.966-6.638   c0-3.651-3.585-6.638-7.966-6.638h-1.067H21.242c-4.381,0-7.966-2.987-7.966-6.638c0-3.651,3.585-6.638,7.966-6.638h481.725h1.067   c4.381,0,7.966,2.987,7.966,6.638c0,3.651-3.585,6.638-7.966,6.638h-10.618c-4.382,0-7.966,2.987-7.966,6.638   c0,3.651,3.585,6.638,7.966,6.638h2.176h1.067C501.04,417.2,504.625,420.187,504.625,423.838z" fill="#ffcf00" data-original="#ffcf00"></path>
	<g>
		<path style="" d="M499.778,87.813H12.222c-0.407,0-0.737-0.33-0.737-0.737s0.33-0.737,0.737-0.737h487.557    c0.407,0,0.737,0.33,0.737,0.737S500.185,87.813,499.778,87.813z" fill="#000e3f" data-original="#000e3f" class=""></path>
		<g>
			<g>
				<path style="" d="M306.33,191.592c-0.213,0-0.425-0.092-0.571-0.27c-0.258-0.315-0.212-0.78,0.102-1.038      L433.216,85.853c0.315-0.258,0.78-0.212,1.038,0.102c0.258,0.315,0.212,0.78-0.102,1.038L306.797,191.424      C306.66,191.537,306.494,191.592,306.33,191.592z" fill="#000e3f" data-original="#000e3f" class=""></path>
				<g>
					<g>
						<path style="" d="M411.997,108.367c-1.251,0-2.424-0.555-3.219-1.522c-0.705-0.856-1.034-1.937-0.924-3.043        c0.109-1.108,0.645-2.105,1.507-2.81l21.685-17.787c0.744-0.608,1.68-0.942,2.636-0.942c1.252,0,2.426,0.555,3.22,1.524        c0.704,0.855,1.032,1.934,0.924,3.04c-0.108,1.109-0.643,2.109-1.506,2.817l-21.686,17.784        C413.892,108.032,412.956,108.367,411.997,108.367z" fill="#ffcf00" data-original="#ffcf00"></path>
						<path style="opacity:0.5;" d="M425.446,97.608l-11.28,9.247c-0.637,0.521-1.406,0.774-2.17,0.774        c-0.99,0-1.97-0.427-2.649-1.253c-1.201-1.459-0.985-3.618,0.479-4.813l6.851-5.619        C419.564,96.676,422.497,97.229,425.446,97.608z" fill="#fd8a02" data-original="#fd8a02"></path>
					</g>
					<path style="" d="M433.682,82.999c0.99,0,1.972,0.427,2.649,1.254c1.201,1.459,0.985,3.618-0.479,4.818       l-10.406,8.536l-11.28,9.247c-0.637,0.521-1.406,0.774-2.17,0.774c-0.99,0-1.97-0.427-2.649-1.253       c-1.201-1.459-0.985-3.618,0.479-4.813l6.851-5.619l14.835-12.17C432.15,83.253,432.918,83,433.682,82.999 M433.682,81.524       L433.682,81.524c-1.126,0-2.228,0.393-3.102,1.107l-14.837,12.172l-6.851,5.619c-1.012,0.827-1.642,2.001-1.772,3.305       c-0.129,1.303,0.258,2.576,1.089,3.586c0.935,1.138,2.316,1.791,3.788,1.791c1.129,0,2.231-0.393,3.104-1.107l11.281-9.248       l10.406-8.537c1.015-0.832,1.644-2.01,1.772-3.315c0.127-1.301-0.259-2.573-1.09-3.581       C436.537,82.178,435.156,81.524,433.682,81.524L433.682,81.524z" fill="#000e3f" data-original="#000e3f" class=""></path>
				</g>
			</g>
			<g>
				<g>
					<g>
						<path style="" d="M312.182,179.926v16.072H199.818l9.081-18.667c0.994-2.041,3.065-3.334,5.333-3.334h92.021        C309.527,173.997,312.182,176.652,312.182,179.926z" fill="#fc09b2" data-original="#fc09b2"></path>
						<path style="opacity:0.25;" d="M312.182,179.926v16.072H244.1c0.072-0.038,0.148-0.08,0.22-0.121        c9.074-5.128,16.584-12.84,21.766-21.88h40.167C309.527,173.997,312.182,176.652,312.182,179.926z" fill="#000e3f" data-original="#000e3f" class=""></path>
						<path style="" d="M211.808,178.836c7.46-0.502,14.92-0.622,22.38-0.649c7.46,0.012,14.92,0.119,22.381,0.612        c0.341,0.022,0.598,0.317,0.576,0.657c-0.021,0.313-0.271,0.556-0.576,0.576c-7.46,0.493-14.92,0.6-22.381,0.612        c-7.46-0.026-14.92-0.147-22.38-0.649c-0.32-0.022-0.562-0.299-0.541-0.619C211.287,179.083,211.522,178.855,211.808,178.836z        " fill="#ff8ede" data-original="#ff8ede"></path>
					</g>
					<path style="" d="M312.182,196.736H199.818c-0.254,0-0.49-0.131-0.625-0.346       c-0.135-0.216-0.149-0.485-0.038-0.714l9.081-18.667c1.109-2.278,3.463-3.749,5.996-3.749h92.021       c3.676,0,6.666,2.991,6.666,6.666v16.072C312.919,196.405,312.589,196.736,312.182,196.736z M200.996,195.261h110.448v-15.335       c0-2.863-2.329-5.191-5.191-5.191h-92.021c-1.973,0-3.806,1.146-4.67,2.92L200.996,195.261z" fill="#000e3f" data-original="#000e3f" class=""></path>
				</g>
				<g>
					<g>
						<path style="" d="M342.411,194.559v20.176c0,4.787-3.881,8.668-8.668,8.668H178.257        c-4.787,0-8.668-3.881-8.668-8.668v-20.176c0-4.787,3.881-8.668,8.668-8.668h155.486        C338.53,185.891,342.411,189.772,342.411,194.559z" fill="#4217a6" data-original="#4217a6"></path>
						<path style="opacity:0.25;" d="M342.411,194.559v20.176c0,4.787-3.881,8.668-8.668,8.668h-85.259        c11.472-8.552,20.596-20.189,27.585-32.751c0.875-1.572,1.719-3.157,2.532-4.76h55.143        C338.53,185.891,342.411,189.772,342.411,194.559z" fill="#000e3f" data-original="#000e3f" class=""></path>
						<path style="opacity:0.5;" d="M188.759,191.27c10.889-0.586,21.779-0.726,32.668-0.757        c10.889,0.014,21.779,0.139,32.668,0.714c0.397,0.021,0.702,0.36,0.681,0.757c-0.02,0.371-0.319,0.661-0.681,0.682        c-10.889,0.575-21.779,0.701-32.668,0.714c-10.889-0.031-21.779-0.171-32.668-0.757c-0.374-0.02-0.66-0.34-0.64-0.713        C188.138,191.562,188.419,191.29,188.759,191.27z" fill="#ffffff" data-original="#ffffff"></path>
					</g>
					<path style="" d="M333.743,224.14H178.257c-5.186,0-9.405-4.219-9.405-9.405v-20.176       c0-5.186,4.219-9.406,9.405-9.406h155.487c5.186,0,9.405,4.22,9.405,9.406v20.176       C343.148,219.921,338.929,224.14,333.743,224.14z M178.257,186.628c-4.373,0-7.93,3.558-7.93,7.931v20.176       c0,4.373,3.558,7.93,7.93,7.93h155.487c4.373,0,7.93-3.557,7.93-7.93v-20.176c0-4.373-3.557-7.931-7.93-7.931H178.257z" fill="#000e3f" data-original="#000e3f" class=""></path>
				</g>
			</g>
		</g>
		<g>
			<g>
				<g>
					<path style="" d="M492.573,362.544c-1.983,4.982-6.859,8.555-12.612,8.555H32.037       c-6.482,0-11.85-4.532-13.226-10.522c-0.303-1.295-0.418-2.663-0.311-4.065l0.147-2.016l0.385-5.187l0.295-4.032l0.016-0.238       l0.492-6.613l0.123-1.614l0.188-2.508l0.533-7.244l1.147-15.505l0.32-4.36l5.54-74.973l0.328-4.36l0.402-5.45l0.09-1.188       l0.352-4.794l0.393-5.4c0.131-1.737,0.582-3.376,1.295-4.851c0.188-0.41,0.401-0.803,0.639-1.188       c2.385-3.942,6.72-6.539,11.612-6.539H469.21c7.105,0,13.005,5.482,13.53,12.579l6.974,94.264       c1.016,13.718,1.803,23.896,2.393,31.517c0.246,3.163,0.451,5.875,0.623,8.227c0.008,0.082,0.008,0.164,0.016,0.238       c0.303,4.065,0.5,7.015,0.606,9.219C493.589,359.709,493.302,360.733,492.573,362.544z" fill="#91d728" data-original="#91d728" class=""></path>
					<g>
						<path style="" d="M222.48,328.72c-4.387-1.956-5.311-5.595-3.335-8.191c5.806-7.629,24.058-4.198,20.797,4.214        C238.357,328.833,229.475,331.839,222.48,328.72z" fill="#fc09b2" data-original="#fc09b2"></path>
						<path style="" d="M289.414,328.72c4.387-1.956,5.311-5.595,3.335-8.191c-5.806-7.629-24.058-4.198-20.797,4.214        C273.537,328.833,282.419,331.839,289.414,328.72z" fill="#fc09b2" data-original="#fc09b2"></path>
					</g>
					<path style="opacity:0.5;" d="M476.076,231.44c1.302,10.979,2.16,21.987,2.908,33.003       c0.704,11.018,1.297,22.044,1.44,33.098c0.005,0.398-0.313,0.725-0.711,0.73c-0.372,0.005-0.681-0.276-0.725-0.636       c-1.292-10.98-2.134-21.989-2.866-33.006c-0.687-11.019-1.264-22.046-1.397-33.101c-0.004-0.374,0.295-0.681,0.669-0.686       C475.744,230.838,476.035,231.102,476.076,231.44z" fill="#ffffff" data-original="#ffffff"></path>
				</g>
				<g>
					<path style="" d="M494.088,354.461c-0.103-2.142-0.291-4.992-0.608-9.238c-0.001-0.008-0.006-0.091-0.007-0.099       l-0.01-0.138c-0.172-2.353-0.377-5.067-0.622-8.231c-0.59-7.621-1.377-17.797-2.393-31.514l-6.974-94.264       c-0.55-7.437-6.815-13.262-14.265-13.262H42.797c-4.978,0-9.669,2.642-12.239,6.889c-0.261,0.423-0.484,0.838-0.676,1.255       c-0.771,1.596-1.23,3.317-1.366,5.119l-7.105,96.165l-3.646,49.314c-0.11,1.446,0.001,2.889,0.328,4.286       c1.501,6.532,7.236,11.094,13.945,11.094h447.923c5.896,0,11.115-3.54,13.296-9.019       C494.064,360.816,494.325,359.652,494.088,354.461z M491.889,362.268c0,0.001-0.001,0.002-0.001,0.003       c-1.957,4.915-6.638,8.091-11.927,8.091H32.038c-6.018,0-11.161-4.092-12.508-9.953c-0.294-1.253-0.393-2.545-0.294-3.843       l9.186-124.288l1.565-21.192c0.122-1.615,0.533-3.158,1.229-4.599c0.172-0.374,0.367-0.737,0.6-1.114       c2.308-3.814,6.515-6.184,10.981-6.184H469.21c6.681,0,12.301,5.225,12.794,11.896l6.974,94.264       c1.016,13.72,1.803,23.898,2.393,31.52c0.246,3.162,0.451,5.873,0.624,8.246L492,345.2c0.003,0.054,0.006,0.108,0.009,0.133       c0.316,4.234,0.502,7.071,0.605,9.198C492.849,359.658,492.578,360.557,491.889,362.268z" fill="#000e3f" data-original="#000e3f" class=""></path>
					<path style="" d="M266.371,307.667c-0.407,0.003-0.735,0.337-0.731,0.743c0.044,5.265-3.089,11.176-8.983,11.762       c-2.452,0.244-4.733-0.545-6.597-2.282c-2.44-2.274-3.893-5.9-3.792-9.465c0.012-0.407-0.309-0.747-0.716-0.758       c-0.403-0.027-0.746,0.309-0.758,0.716c-0.113,3.976,1.52,8.032,4.261,10.586c1.923,1.792,4.231,2.722,6.726,2.722       c0.338,0,0.679-0.017,1.022-0.051c6.765-0.673,10.362-7.324,10.312-13.242C267.112,307.991,266.797,307.68,266.371,307.667z" fill="#000e3f" data-original="#000e3f" class=""></path>
					<path style="" d="M287.651,298.352c-0.002,0-0.004,0-0.005,0c-0.408,0.003-0.735,0.336-0.732,0.743       c0.031,4.056-2.078,8.608-6.046,9.052c-1.488,0.166-2.847-0.301-4.035-1.39c-1.851-1.697-2.999-4.7-2.924-7.649       c0.01-0.407-0.312-0.745-0.719-0.756c-0.41-0.01-0.745,0.311-0.756,0.719c-0.084,3.357,1.251,6.801,3.402,8.773       c1.3,1.192,2.829,1.811,4.459,1.811c0.244,0,0.49-0.014,0.738-0.042c4.826-0.541,7.392-5.829,7.356-10.529       C288.386,298.679,288.056,298.352,287.651,298.352z" fill="#000e3f" data-original="#000e3f" class=""></path>
					<path style="" d="M238.742,298.352c-0.002,0-0.004,0-0.006,0c-0.407,0.003-0.735,0.336-0.732,0.743       c0.03,4.056-2.079,8.608-6.046,9.052c-1.486,0.168-2.847-0.301-4.036-1.39c-1.851-1.697-2.998-4.699-2.924-7.649       c0.01-0.407-0.312-0.745-0.719-0.756c-0.398-0.01-0.746,0.311-0.756,0.719c-0.085,3.357,1.251,6.801,3.401,8.773       c1.301,1.193,2.83,1.811,4.46,1.811c0.244,0,0.49-0.014,0.738-0.042c4.825-0.541,7.392-5.829,7.356-10.529       C239.476,298.679,239.146,298.352,238.742,298.352z" fill="#000e3f" data-original="#000e3f" class=""></path>
				</g>
			</g>
			<g>
				<path style="" d="M492.573,362.544c-1.983,4.982-6.859,8.555-12.612,8.555H32.037      c-6.482,0-11.85-4.532-13.226-10.522c-0.303-1.295-0.418-2.663-0.311-4.065l0.147-2.016l0.385-5.187l0.295-4.032l0.016-0.238      l0.492-6.613l0.123-1.614h472.147c0.246,3.163,0.451,5.875,0.623,8.227c0.008,0.082,0.008,0.164,0.016,0.238      c0.303,4.065,0.5,7.015,0.606,9.219C493.589,359.709,493.302,360.733,492.573,362.544z" fill="#4217a6" data-original="#4217a6"></path>
				<path style="" d="M479.961,371.837H32.038c-6.709,0-12.444-4.562-13.945-11.094      c-0.327-1.397-0.438-2.84-0.328-4.286l1.459-19.7c0.029-0.385,0.35-0.681,0.735-0.681h472.148c0.385,0,0.705,0.297,0.736,0.68      c0.246,3.164,0.451,5.878,0.622,8.231l0.01,0.138c0.001,0.008,0.006,0.09,0.007,0.099c0.317,4.247,0.505,7.096,0.608,9.238      c0.237,5.191-0.025,6.355-0.831,8.357C491.076,368.297,485.857,371.837,479.961,371.837z M20.642,337.55l-1.407,19.016      c-0.098,1.298,0,2.59,0.294,3.843c1.347,5.861,6.491,9.953,12.508,9.953h447.923c5.289,0,9.97-3.176,11.927-8.091      c0-0.001,0-0.002,0.001-0.003c0.689-1.711,0.96-2.61,0.726-7.738c-0.103-2.127-0.29-4.964-0.605-9.198      c-0.003-0.025-0.007-0.078-0.009-0.133l-0.006-0.084c-0.161-2.201-0.349-4.692-0.571-7.565H20.642z" fill="#000e3f" data-original="#000e3f" class=""></path>
			</g>
			<g>
				<path style="" d="M493.351,354.497c0.238,5.212-0.049,6.236-0.778,8.047c-1.983,4.982-6.859,8.555-12.612,8.555      H32.037c-6.482,0-11.85-4.532-13.226-10.522c-0.303-1.295-0.418-2.663-0.311-4.065l0.147-2.016l0.385-5.187l0.295-4.032h473.418      C493.048,349.342,493.245,352.293,493.351,354.497z" fill="#915efd" data-original="#915efd"></path>
				<path style="" d="M479.961,371.837H32.038c-6.709,0-12.444-4.562-13.945-11.094      c-0.327-1.397-0.438-2.84-0.328-4.286l0.827-11.232c0.028-0.386,0.349-0.684,0.736-0.684h473.418      c0.386,0,0.707,0.298,0.736,0.683c0.317,4.247,0.505,7.096,0.608,9.238c0,0.001,0,0.001,0,0.002      c0.237,5.189-0.025,6.353-0.831,8.356C491.077,368.296,485.858,371.837,479.961,371.837z M20.013,346.015l-0.777,10.551      c-0.098,1.298,0,2.59,0.294,3.843c1.347,5.861,6.491,9.953,12.508,9.953h447.923c5.289,0,9.97-3.176,11.927-8.091      c0.69-1.714,0.961-2.613,0.727-7.739l0,0c-0.097-2.013-0.269-4.658-0.555-8.517H20.013z" fill="#000e3f" data-original="#000e3f" class=""></path>
			</g>
		</g>
		<g>
			<g>
				<g>
					<path style="" d="M66.562,367.555c0,1.708-0.69,3.25-1.811,4.366c-1.116,1.121-2.663,1.811-4.366,1.811h-42.62       c-3.411,0-6.177-2.765-6.177-6.177c0-1.708,0.69-3.25,1.811-4.366c1.116-1.121,2.663-1.811,4.366-1.811h42.62       C63.797,361.379,66.562,364.144,66.562,367.555z" fill="#fc09b2" data-original="#fc09b2"></path>
					<path style="opacity:0.25;" d="M66.562,367.555c0,1.708-0.69,3.25-1.811,4.366       c-1.116,1.121-2.663,1.811-4.366,1.811H33.716c2.711-3.627,4.625-7.846,5.996-12.353h20.674       C63.797,361.379,66.562,364.144,66.562,367.555z" fill="#000e3f" data-original="#000e3f" class=""></path>
				</g>
				<path style="" d="M60.386,374.47h-42.62c-3.813,0-6.914-3.102-6.914-6.914c0-1.85,0.72-3.586,2.028-4.888      c1.3-1.305,3.036-2.025,4.887-2.025h42.62c3.812,0,6.914,3.102,6.914,6.914c0,1.85-0.72,3.586-2.028,4.888      C63.972,373.749,62.236,374.47,60.386,374.47z M17.766,362.116c-1.455,0-2.82,0.566-3.843,1.594      c-1.03,1.026-1.596,2.391-1.596,3.845c0,3,2.44,5.439,5.439,5.439h42.62c1.455,0,2.82-0.566,3.843-1.594      c1.03-1.025,1.596-2.39,1.596-3.845c0-2.999-2.44-5.439-5.439-5.439H17.766z" fill="#000e3f" data-original="#000e3f" class=""></path>
			</g>
			<g>
				<g>
					<path style="" d="M500.305,367.555c0,1.708-0.69,3.25-1.811,4.366c-1.116,1.121-2.663,1.811-4.366,1.811h-42.62       c-3.411,0-6.177-2.765-6.177-6.177c0-1.708,0.69-3.25,1.811-4.366c1.116-1.121,2.663-1.811,4.366-1.811h42.62       C497.54,361.379,500.305,364.144,500.305,367.555z" fill="#fc09b2" data-original="#fc09b2"></path>
					<path style="opacity:0.25;" d="M500.305,367.555c0,1.708-0.69,3.25-1.811,4.366       c-1.116,1.121-2.663,1.811-4.366,1.811h-26.669c2.711-3.627,4.625-7.846,5.996-12.353h20.674       C497.54,361.379,500.305,364.144,500.305,367.555z" fill="#000e3f" data-original="#000e3f" class=""></path>
				</g>
				<path style="" d="M494.129,374.47h-42.621c-3.813,0-6.914-3.102-6.914-6.914c0-1.85,0.72-3.586,2.028-4.888      c1.3-1.305,3.036-2.025,4.886-2.025h42.621c3.812,0,6.914,3.102,6.914,6.914c0,1.85-0.72,3.586-2.028,4.888      C497.715,373.749,495.979,374.47,494.129,374.47z M451.508,362.116c-1.455,0-2.82,0.566-3.843,1.594      c-1.03,1.025-1.596,2.39-1.596,3.845c0,3,2.44,5.439,5.439,5.439h42.621c1.455,0,2.82-0.566,3.843-1.594      c1.03-1.025,1.596-2.39,1.596-3.845c0-2.999-2.44-5.439-5.439-5.439H451.508z" fill="#000e3f" data-original="#000e3f" class=""></path>
			</g>
		</g>
		<g>
			<g>
				<path style="" d="M291.54,354.882v16.242h-71.081v-16.242c0-2.803,2.278-5.081,5.081-5.081h60.92      C289.262,349.801,291.54,352.079,291.54,354.882z" fill="#00d5fe" data-original="#00d5fe"></path>
				<path style="opacity:0.25;" d="M291.54,354.882v16.242h-29.468c6.007-5.097,8.719-13.333,9.498-21.323h14.89      C289.262,349.801,291.54,352.079,291.54,354.882z" fill="#4217a6" data-original="#4217a6"></path>
			</g>
			<g>
				<path style="" d="M291.54,371.861h-71.081c-0.407,0-0.737-0.33-0.737-0.737v-16.242      c0-3.208,2.61-5.818,5.818-5.818h60.919c3.208,0,5.818,2.61,5.818,5.818v16.242C292.277,371.531,291.947,371.861,291.54,371.861      z M221.196,370.387h69.606v-15.504c0-2.395-1.949-4.343-4.343-4.343H225.54c-2.395,0-4.343,1.949-4.343,4.343V370.387z" fill="#000e3f" data-original="#000e3f" class=""></path>
				<path style="" d="M282.505,357.73h-53.011c-0.407,0-0.737-0.33-0.737-0.737c0-0.407,0.33-0.737,0.737-0.737h53.011      c0.407,0,0.737,0.33,0.737,0.737C283.242,357.4,282.912,357.73,282.505,357.73z" fill="#000e3f" data-original="#000e3f" class=""></path>
				<path style="" d="M282.505,364.672h-53.011c-0.407,0-0.737-0.33-0.737-0.737s0.33-0.737,0.737-0.737h53.011      c0.407,0,0.737,0.33,0.737,0.737S282.912,364.672,282.505,364.672z" fill="#000e3f" data-original="#000e3f" class=""></path>
			</g>
		</g>
		<g>
			<g>
				<g>
					<path style="" d="M445.972,218.798c-0.412,0-0.824-0.049-1.224-0.146c-0.905-0.227-1.726-0.691-2.38-1.345       c-0.962-0.969-1.491-2.248-1.491-3.604c0-2.809,2.285-5.095,5.095-5.095h8.714c1.356,0,2.636,0.529,3.603,1.489       c0.963,0.97,1.492,2.25,1.492,3.606c0,2.809-2.285,5.095-5.095,5.095H445.972z" fill="#fc09b2" data-original="#fc09b2"></path>
					<path style="opacity:0.25;" d="M459.043,213.703c0,2.407-1.95,4.357-4.357,4.357h-8.714       c-0.365,0-0.714-0.044-1.051-0.125c3.061-2.369,5.822-5.266,8.125-8.589h1.639c1.203,0,2.293,0.49,3.082,1.274       C458.553,211.41,459.043,212.5,459.043,213.703z" fill="#000e3f" data-original="#000e3f" class=""></path>
				</g>
				<path style="" d="M454.686,209.346c1.203,0,2.293,0.49,3.082,1.274c0.784,0.79,1.275,1.879,1.275,3.082      c0,2.407-1.95,4.357-4.357,4.357h-8.714c-0.365,0-0.714-0.044-1.051-0.125c-0.784-0.196-1.481-0.599-2.031-1.149      c-0.784-0.79-1.274-1.879-1.274-3.082c0-2.407,1.95-4.357,4.357-4.357H454.686 M454.686,207.871h-8.714      c-3.216,0-5.832,2.616-5.832,5.832c0,1.553,0.605,3.017,1.703,4.122c0.752,0.752,1.691,1.283,2.72,1.541      c0.468,0.113,0.938,0.169,1.409,0.169h8.714c3.216,0,5.832-2.616,5.832-5.832c0-1.552-0.605-3.016-1.703-4.122      C457.702,208.476,456.238,207.871,454.686,207.871L454.686,207.871z" fill="#000e3f" data-original="#000e3f" class=""></path>
			</g>
			<g>
				<g>
					<path style="" d="M361.35,218.798c-0.412,0-0.824-0.049-1.224-0.146c-0.905-0.227-1.726-0.691-2.38-1.345       c-0.962-0.969-1.491-2.248-1.491-3.604c0-2.809,2.285-5.095,5.095-5.095h8.714c1.357,0,2.636,0.529,3.602,1.489       c0.964,0.97,1.492,2.249,1.492,3.606c0,2.809-2.285,5.095-5.094,5.095H361.35z" fill="#fc09b2" data-original="#fc09b2"></path>
					<path style="opacity:0.25;" d="M374.42,213.703c0,2.407-1.95,4.357-4.357,4.357h-8.714       c-0.365,0-0.713-0.044-1.051-0.125c3.061-2.369,5.822-5.266,8.125-8.589h1.639c1.204,0,2.293,0.49,3.082,1.274       C373.93,211.41,374.42,212.5,374.42,213.703z" fill="#000e3f" data-original="#000e3f" class=""></path>
				</g>
				<path style="" d="M370.063,209.346c1.204,0,2.293,0.49,3.082,1.274c0.784,0.79,1.274,1.879,1.274,3.082      c0,2.407-1.95,4.357-4.357,4.357h-8.714c-0.365,0-0.713-0.044-1.051-0.125c-0.784-0.196-1.481-0.599-2.032-1.149      c-0.784-0.79-1.274-1.879-1.274-3.082c0-2.407,1.95-4.357,4.357-4.357H370.063 M370.063,207.871h-8.714      c-3.216,0-5.832,2.616-5.832,5.832c0,1.553,0.605,3.017,1.703,4.122c0.752,0.752,1.691,1.283,2.72,1.541      c0.468,0.113,0.938,0.169,1.409,0.169h8.714c3.216,0,5.832-2.616,5.832-5.832c0-1.552-0.605-3.016-1.703-4.122      C373.079,208.476,371.616,207.871,370.063,207.871L370.063,207.871z" fill="#000e3f" data-original="#000e3f" class=""></path>
			</g>
			<g>
				<g>
					<path style="" d="M276.727,218.798c-0.413,0-0.825-0.049-1.225-0.146c-0.905-0.227-1.726-0.691-2.379-1.344       c-0.962-0.969-1.491-2.248-1.491-3.604c0-2.809,2.285-5.095,5.095-5.095h8.714c1.357,0,2.636,0.529,3.602,1.489       c0.964,0.97,1.492,2.25,1.492,3.606c0,2.809-2.285,5.095-5.094,5.095H276.727z" fill="#fc09b2" data-original="#fc09b2"></path>
					<path style="opacity:0.25;" d="M289.798,213.703c0,2.407-1.95,4.357-4.357,4.357h-8.714       c-0.365,0-0.714-0.044-1.051-0.125c3.061-2.369,5.822-5.266,8.126-8.589h1.639c1.204,0,2.293,0.49,3.082,1.274       C289.307,211.41,289.798,212.5,289.798,213.703z" fill="#000e3f" data-original="#000e3f" class=""></path>
				</g>
				<path style="" d="M285.441,209.346c1.204,0,2.293,0.49,3.082,1.274c0.784,0.79,1.274,1.879,1.274,3.082      c0,2.407-1.95,4.357-4.357,4.357h-8.714c-0.365,0-0.714-0.044-1.051-0.125c-0.784-0.196-1.481-0.599-2.031-1.149      c-0.784-0.79-1.274-1.879-1.274-3.082c0-2.407,1.95-4.357,4.357-4.357H285.441 M285.441,207.871h-8.714      c-3.216,0-5.832,2.616-5.832,5.832c0,1.553,0.605,3.017,1.703,4.122c0.752,0.752,1.691,1.283,2.72,1.541      c0.468,0.113,0.938,0.169,1.409,0.169h8.714c3.216,0,5.832-2.616,5.832-5.832c0-1.552-0.605-3.016-1.703-4.122      C288.457,208.476,286.993,207.871,285.441,207.871L285.441,207.871z" fill="#000e3f" data-original="#000e3f" class=""></path>
			</g>
			<g>
				<g>
					<path style="" d="M192.104,218.798c-0.412,0-0.824-0.049-1.224-0.146c-0.905-0.227-1.726-0.691-2.379-1.345       c-0.962-0.968-1.491-2.248-1.491-3.604c0-2.809,2.285-5.095,5.094-5.095h8.714c1.357,0,2.636,0.529,3.603,1.489       c0.964,0.97,1.492,2.25,1.492,3.606c0,2.809-2.285,5.095-5.095,5.095H192.104z" fill="#fc09b2" data-original="#fc09b2"></path>
					<path style="opacity:0.25;" d="M205.175,213.703c0,2.407-1.95,4.357-4.357,4.357h-8.714       c-0.365,0-0.714-0.044-1.051-0.125c3.061-2.369,5.822-5.266,8.125-8.589h1.639c1.204,0,2.293,0.49,3.082,1.274       C204.685,211.41,205.175,212.5,205.175,213.703z" fill="#000e3f" data-original="#000e3f" class=""></path>
				</g>
				<path style="" d="M200.818,209.346c1.204,0,2.293,0.49,3.082,1.274c0.784,0.79,1.274,1.879,1.274,3.082      c0,2.407-1.95,4.357-4.357,4.357h-8.714c-0.365,0-0.714-0.044-1.051-0.125c-0.784-0.196-1.481-0.599-2.031-1.149      c-0.784-0.79-1.274-1.879-1.274-3.082c0-2.407,1.95-4.357,4.357-4.357H200.818 M200.818,207.871h-8.714      c-3.216,0-5.832,2.616-5.832,5.832c0,1.553,0.605,3.017,1.703,4.122c0.752,0.752,1.691,1.283,2.72,1.541      c0.468,0.113,0.938,0.169,1.409,0.169h8.714c3.216,0,5.832-2.616,5.832-5.832c0-1.552-0.605-3.016-1.703-4.122      C203.834,208.476,202.37,207.871,200.818,207.871L200.818,207.871z" fill="#000e3f" data-original="#000e3f" class=""></path>
			</g>
			<g>
				<g>
					<path style="" d="M107.481,218.798c-0.412,0-0.824-0.049-1.224-0.146c-0.905-0.227-1.726-0.692-2.379-1.345       c-0.962-0.968-1.491-2.247-1.491-3.604c0-2.809,2.285-5.095,5.094-5.095h8.714c1.356,0,2.636,0.529,3.603,1.489       c0.964,0.97,1.492,2.25,1.492,3.606c0,2.809-2.285,5.095-5.095,5.095H107.481z" fill="#fc09b2" data-original="#fc09b2"></path>
					<path style="opacity:0.25;" d="M120.552,213.703c0,2.407-1.95,4.357-4.357,4.357h-8.714       c-0.365,0-0.713-0.044-1.051-0.125c3.06-2.369,5.822-5.266,8.125-8.589h1.639c1.204,0,2.293,0.49,3.082,1.274       C120.062,211.41,120.552,212.5,120.552,213.703z" fill="#000e3f" data-original="#000e3f" class=""></path>
				</g>
				<path style="" d="M116.195,209.346c1.204,0,2.293,0.49,3.082,1.274c0.784,0.79,1.274,1.879,1.274,3.082      c0,2.407-1.95,4.357-4.357,4.357h-8.714c-0.365,0-0.713-0.044-1.051-0.125c-0.784-0.196-1.481-0.599-2.032-1.149      c-0.784-0.79-1.274-1.879-1.274-3.082c0-2.407,1.95-4.357,4.357-4.357H116.195 M116.195,207.871h-8.714      c-3.216,0-5.832,2.616-5.832,5.832c0,1.553,0.605,3.017,1.703,4.122c0.752,0.752,1.691,1.283,2.72,1.541      c0.468,0.113,0.938,0.169,1.409,0.169h8.714c3.216,0,5.832-2.616,5.832-5.832c0-1.552-0.605-3.016-1.703-4.122      C119.212,208.476,117.748,207.871,116.195,207.871L116.195,207.871z" fill="#000e3f" data-original="#000e3f" class=""></path>
			</g>
		</g>
		<g>
			<g>
				<g>
					<g>
						<path style="" d="M60.489,208.672l-1.508,10.669c-0.147,1.082-1.073,1.885-2.163,1.885H28.505l0.352-4.794        l0.393-5.4c0.131-1.737,0.582-3.376,1.295-4.851h27.78C59.654,206.18,60.67,207.361,60.489,208.672z" fill="#fc09b2" data-original="#fc09b2"></path>
						<path style="opacity:0.25;" d="M60.489,208.672l-1.508,10.669c-0.147,1.082-1.073,1.885-2.163,1.885H28.505        l0.352-4.794c2.376-0.008,4.769-0.123,7.138-0.336c3.409-0.311,6.9-0.869,10.096-2.049c2.155-0.787,4.171-1.852,5.949-3.319        c1.5-1.229,2.753-2.803,3.655-4.548h2.63C59.654,206.18,60.67,207.361,60.489,208.672z" fill="#000e3f" data-original="#000e3f" class=""></path>
					</g>
					<path style="" d="M56.818,221.964H28.505c-0.205,0-0.401-0.085-0.54-0.235c-0.14-0.151-0.21-0.352-0.195-0.556       l0.746-10.194c0.136-1.802,0.595-3.523,1.366-5.119c0.123-0.255,0.381-0.417,0.664-0.417h27.78       c0.842,0,1.643,0.365,2.198,1.001c0.558,0.64,0.811,1.489,0.696,2.328c0,0.001,0,0.002,0,0.003l-1.508,10.67       C59.516,220.879,58.272,221.964,56.818,221.964z M29.299,220.489h27.519c0.72,0,1.336-0.536,1.433-1.247l1.508-10.67       c0.058-0.417-0.069-0.839-0.346-1.158c-0.279-0.32-0.665-0.496-1.086-0.496H31.018c-0.574,1.31-0.921,2.71-1.031,4.169       L29.299,220.489z M60.489,208.671h0.008H60.489z" fill="#000e3f" data-original="#000e3f" class=""></path>
				</g>
				<g>
					<g>
						<path style="" d="M47.189,206.18l-1.098,7.867l-1.008,7.178H28.505l0.352-4.794l0.393-5.4        c0.131-1.737,0.582-3.376,1.295-4.851H47.189z" fill="#ffcf00" data-original="#ffcf00"></path>
						<path style="opacity:0.5;" d="M46.091,214.047l-1.008,7.178H28.505l0.352-4.794        c2.376-0.008,4.769-0.123,7.138-0.336C39.404,215.785,42.895,215.227,46.091,214.047z" fill="#fd8a02" data-original="#fd8a02"></path>
					</g>
					<path style="" d="M45.083,221.964H28.505c-0.205,0-0.401-0.085-0.54-0.235c-0.14-0.151-0.21-0.352-0.195-0.556       l0.746-10.194c0.136-1.802,0.595-3.523,1.366-5.119c0.123-0.255,0.381-0.417,0.664-0.417h16.644       c0.213,0,0.416,0.093,0.556,0.253c0.14,0.161,0.203,0.375,0.174,0.586l-2.106,15.046       C45.763,221.693,45.451,221.964,45.083,221.964z M29.299,220.489h15.143l1.899-13.571H31.018       c-0.574,1.31-0.921,2.71-1.031,4.169L29.299,220.489z" fill="#000e3f" data-original="#000e3f" class=""></path>
				</g>
			</g>
			<g>
				<g>
					<g>
						<path style="" d="M39.172,330.849v14.683c0,2.086-1.694,3.78-3.779,3.78h-16.36l0.24-3.219l0.566-7.668        l0.839-11.361h14.715C37.478,327.064,39.172,328.758,39.172,330.849z" fill="#ffcf00" data-original="#ffcf00"></path>
						<path style="opacity:0.5;" d="M39.172,330.849v14.683c0,2.086-1.694,3.78-3.779,3.78h-16.36l0.24-3.219        c2.625-1.498,5.01-3.398,7.015-5.669c3.316-3.758,5.511-8.442,6.443-13.359h2.663        C37.478,327.064,39.172,328.758,39.172,330.849z" fill="#fd8a02" data-original="#fd8a02"></path>
					</g>
					<path style="" d="M35.392,350.049h-16.36c-0.205,0-0.401-0.085-0.541-0.236c-0.139-0.151-0.21-0.352-0.195-0.557       l1.644-22.247c0.028-0.385,0.349-0.683,0.736-0.683h14.716c2.491,0,4.517,2.029,4.517,4.523v14.683       C39.909,348.022,37.883,350.049,35.392,350.049z M19.827,348.574h15.565c1.677,0,3.042-1.365,3.042-3.042v-14.683       c0-1.681-1.364-3.048-3.042-3.048H21.362L19.827,348.574z" fill="#000e3f" data-original="#000e3f" class=""></path>
				</g>
				<g>
					<g>
						<path style="" d="M39.175,338.427v7.105c0,2.09-1.696,3.778-3.786,3.778H19.032l0.238-3.22l0.565-7.662H39.175z" fill="#ffffff" data-original="#ffffff"></path>
						<path style="opacity:0.18;" d="M39.175,338.427v7.105c0,2.09-1.696,3.778-3.786,3.778H19.032l0.238-3.22        c2.631-1.491,5.015-3.393,7.015-5.663c0.565-0.639,1.098-1.311,1.598-1.999H39.175z" fill="#000e3f" data-original="#000e3f" class=""></path>
					</g>
					<path style="" d="M35.389,350.047H19.032c-0.205,0-0.401-0.085-0.54-0.236c-0.139-0.15-0.21-0.352-0.195-0.556       l0.803-10.882c0.028-0.385,0.349-0.683,0.736-0.683h19.34c0.407,0,0.737,0.33,0.737,0.737v7.105       C39.913,348.022,37.883,350.047,35.389,350.047z M19.826,348.572h15.563c1.681,0,3.049-1.364,3.049-3.04v-6.367H20.521       L19.826,348.572z" fill="#000e3f" data-original="#000e3f" class=""></path>
				</g>
			</g>
			<g>
				<g>
					<path style="" d="M492.968,349.311h-12.357c-2.271,0-4.117-1.846-4.117-4.117v-35.775       c0-2.276,1.846-4.123,4.117-4.123h9.1l1.04,14.013l0.686,9.308L492.968,349.311z" fill="#fd8a02" data-original="#fd8a02"></path>
					<path style="" d="M492.968,350.049h-12.357c-2.677,0-4.855-2.178-4.855-4.855v-35.775       c0-2.68,2.178-4.86,4.855-4.86h9.1c0.386,0,0.707,0.298,0.735,0.683l3.257,44.015c0.015,0.204-0.056,0.406-0.195,0.556       C493.369,349.963,493.173,350.049,492.968,350.049z M480.611,306.033c-1.864,0-3.38,1.519-3.38,3.386v35.775       c0,1.864,1.516,3.38,3.38,3.38h11.563l-3.147-42.541H480.611z" fill="#000e3f" data-original="#000e3f" class=""></path>
				</g>
				<g>
					<path style="" d="M492.968,349.311h-12.357c-2.271,0-4.117-1.846-4.117-4.117v-25.885h14.258l0.686,9.308       L492.968,349.311z" fill="#ffcf00" data-original="#ffcf00"></path>
					<path style="" d="M492.968,350.049h-12.357c-2.677,0-4.855-2.178-4.855-4.855v-25.885       c0-0.407,0.33-0.737,0.737-0.737h14.258c0.386,0,0.707,0.298,0.735,0.683l2.216,30.003c0.015,0.204-0.056,0.406-0.195,0.556       C493.369,349.963,493.173,350.049,492.968,350.049z M477.231,320.046v25.148c0,1.864,1.516,3.38,3.38,3.38h11.563       l-2.107-28.528H477.231z" fill="#000e3f" data-original="#000e3f" class=""></path>
				</g>
				<g>
					<g>
						<path style="" d="M492.968,349.311h-12.357c-2.271,0-4.117-1.846-4.117-4.117v-16.578h14.944l0.904,12.199        L492.968,349.311z" fill="#ffffff" data-original="#ffffff"></path>
						<path style="opacity:0.18;" d="M492.968,349.311h-12.357c-2.271,0-4.117-1.846-4.117-4.117v-16.578h1.024        c1.961,2.876,4.341,5.457,7.08,7.619c2.369,1.868,4.978,3.398,7.745,4.58L492.968,349.311z" fill="#000e3f" data-original="#000e3f" class=""></path>
					</g>
					<path style="" d="M492.968,350.049h-12.357c-2.677,0-4.855-2.178-4.855-4.855v-16.578       c0-0.407,0.33-0.737,0.737-0.737h14.944c0.386,0,0.707,0.298,0.736,0.683l1.53,20.696c0.015,0.204-0.056,0.406-0.195,0.556       C493.369,349.963,493.173,350.049,492.968,350.049z M477.231,329.353v15.84c0,1.864,1.516,3.38,3.38,3.38h11.563l-1.421-19.221       H477.231z" fill="#000e3f" data-original="#000e3f" class=""></path>
				</g>
			</g>
		</g>
		<g>
			<g>
				<g>
					<path style="" d="M415.086,355.155v15.941h-98.722v-15.941c0-13.632,5.528-25.973,14.459-34.904       c8.932-8.932,21.272-14.459,34.899-14.459C392.986,305.791,415.086,327.892,415.086,355.155z" fill="#ffcf00" data-original="#ffcf00"></path>
					<path style="" d="M415.086,371.833h-98.722c-0.407,0-0.737-0.33-0.737-0.737v-15.941       c0-13.381,5.212-25.962,14.676-35.425c9.463-9.464,22.042-14.675,35.42-14.675c27.625,0,50.101,22.475,50.101,50.101v15.941       C415.824,371.503,415.494,371.833,415.086,371.833z M317.102,370.358h97.247v-15.204c0-26.812-21.814-48.626-48.626-48.626       c-12.984,0-25.192,5.059-34.377,14.243c-9.185,9.185-14.244,21.396-14.244,34.383V370.358z" fill="#000e3f" data-original="#000e3f" class=""></path>
				</g>
				<g>
					<g>
						<g>
							<path style="" d="M406.989,356.757c0,22.791-18.474,41.265-41.265,41.265c-10.133,0-19.421-3.652-26.598-9.72         c-8.97-7.567-14.666-18.893-14.666-31.545c0-22.791,18.474-41.265,41.265-41.265c11.129,0,21.232,4.407,28.649,11.572         C402.151,334.565,406.989,345.095,406.989,356.757z" fill="#4217a6" data-original="#4217a6"></path>
							<path style="opacity:0.25;" d="M406.989,356.757c0,22.791-18.474,41.265-41.265,41.265         c-10.133,0-19.421-3.652-26.598-9.72c47.644,7.447,65.77-18.234,55.247-61.237         C402.151,334.565,406.989,345.095,406.989,356.757z" fill="#000e3f" data-original="#000e3f" class=""></path>
							<path style="opacity:0.5;" d="M360.021,324.849c-4.139,0.887-8.089,2.361-11.646,4.46         c-3.546,2.109-6.691,4.854-9.158,8.124c-2.491,3.25-4.3,7.012-5.336,10.994c-1.023,3.988-1.277,8.196-0.747,12.374         c0.051,0.395-0.229,0.756-0.624,0.807c-0.363,0.046-0.697-0.187-0.789-0.531c-1.125-4.259-1.269-8.837-0.341-13.224         c0.896-4.394,2.833-8.577,5.555-12.155c2.737-3.569,6.253-6.527,10.214-8.589c3.95-2.09,8.319-3.264,12.687-3.6         c0.373-0.029,0.699,0.251,0.728,0.624c0.026,0.342-0.207,0.645-0.534,0.715L360.021,324.849z" fill="#ffffff" data-original="#ffffff"></path>
						</g>
						<path style="" d="M365.725,398.759c-9.913,0-19.528-3.513-27.075-9.894        c-9.486-8.003-14.927-19.706-14.927-32.108c0-23.16,18.842-42.002,42.002-42.002c10.942,0,21.298,4.183,29.161,11.779        c8.28,7.987,12.841,18.72,12.841,30.223C407.727,379.917,388.885,398.759,365.725,398.759z M365.725,316.23        c-22.347,0-40.527,18.18-40.527,40.527c0,11.967,5.25,23.259,14.404,30.981c7.281,6.156,16.558,9.546,26.123,9.546        c22.347,0,40.527-18.181,40.527-40.527c0-11.099-4.4-21.455-12.39-29.161C386.275,320.266,376.282,316.23,365.725,316.23z" fill="#000e3f" data-original="#000e3f" class=""></path>
					</g>
					<g>
						
							<ellipse transform="matrix(0.9872 -0.1595 0.1595 0.9872 -52.2348 62.9205)" style="" cx="365.725" cy="356.757" rx="26.746" ry="26.746" fill="#fc09b2" data-original="#fc09b2"></ellipse>
						<path style="" d="M365.725,384.24c-15.154,0-27.483-12.329-27.483-27.483c0-15.155,12.329-27.484,27.483-27.484        c15.154,0,27.483,12.329,27.483,27.484C393.208,371.911,380.879,384.24,365.725,384.24z M365.725,330.748        c-14.341,0-26.008,11.668-26.008,26.009c0,14.341,11.667,26.008,26.008,26.008s26.008-11.667,26.008-26.008        C391.733,342.416,380.066,330.748,365.725,330.748z" fill="#000e3f" data-original="#000e3f" class=""></path>
					</g>
					<g>
						<path style="" d="M387.508,356.757c0,2.32-0.36,4.551-1.031,6.649c-0.372,1.151-0.834,2.267-1.385,3.322        c-2.069,4.029-5.366,7.327-9.396,9.396c-1.055,0.552-2.17,1.013-3.322,1.385c-2.099,0.671-4.329,1.031-6.65,1.031        c-2.321,0-4.551-0.36-6.65-1.031c-1.151-0.372-2.267-0.834-3.322-1.385c-4.03-2.069-7.327-5.366-9.396-9.396        c-0.552-1.055-1.013-2.171-1.385-3.322c-0.672-2.099-1.031-4.329-1.031-6.649c0-2.321,0.36-4.551,1.031-6.65        c0.372-1.151,0.833-2.266,1.385-3.322c2.069-4.029,5.366-7.327,9.396-9.396c1.055-0.552,2.17-1.013,3.322-1.385        c2.099-0.672,4.329-1.031,6.65-1.031c2.321,0,4.551,0.36,6.65,1.031c1.151,0.372,2.267,0.833,3.322,1.385        c4.03,2.069,7.327,5.366,9.396,9.396c0.551,1.055,1.013,2.171,1.385,3.322C387.149,352.206,387.508,354.436,387.508,356.757z" fill="#00d5fe" data-original="#00d5fe"></path>
						<path style="" d="M365.725,379.278c-2.35,0-4.663-0.359-6.875-1.066c-1.207-0.39-2.363-0.872-3.438-1.434        c-4.134-2.123-7.585-5.574-9.71-9.713c-0.559-1.07-1.041-2.226-1.431-3.432c-0.708-2.213-1.067-4.526-1.067-6.876        c0-2.351,0.359-4.664,1.067-6.875c0.39-1.207,0.872-2.363,1.433-3.438c2.123-4.135,5.573-7.585,9.713-9.71        c1.07-0.559,2.226-1.041,3.432-1.43c4.425-1.416,9.329-1.416,13.751,0c1.208,0.39,2.364,0.872,3.439,1.433        c4.135,2.123,7.585,5.573,9.71,9.713c0.559,1.07,1.041,2.226,1.43,3.432c0.708,2.214,1.067,4.527,1.067,6.876        s-0.359,4.662-1.066,6.874c-0.39,1.208-0.872,2.364-1.434,3.439c-2.123,4.134-5.573,7.585-9.713,9.71        c-1.07,0.559-2.226,1.041-3.432,1.431C370.388,378.919,368.075,379.278,365.725,379.278z M365.725,335.711        c-2.198,0-4.359,0.335-6.425,0.996c-1.125,0.363-2.203,0.813-3.205,1.336c-3.872,1.988-7.096,5.211-9.081,9.079        c-0.526,1.006-0.976,2.085-1.339,3.211c-0.661,2.064-0.996,4.225-0.996,6.423c0,2.197,0.335,4.359,0.996,6.424        c0.364,1.126,0.814,2.204,1.337,3.205c1.988,3.872,5.211,7.096,9.079,9.081c1.006,0.526,2.085,0.976,3.211,1.339        c4.129,1.32,8.717,1.321,12.848-0.001c1.126-0.363,2.204-0.813,3.205-1.336c3.872-1.988,7.096-5.211,9.081-9.079        c0.525-1.006,0.975-2.084,1.339-3.211c0.661-2.065,0.996-4.227,0.996-6.423c0-2.197-0.335-4.358-0.997-6.425        c-0.363-1.125-0.813-2.203-1.336-3.205c-1.988-3.872-5.211-7.096-9.079-9.081c-1.005-0.525-2.084-0.975-3.211-1.339        C370.084,336.046,367.923,335.711,365.725,335.711z" fill="#000e3f" data-original="#000e3f" class=""></path>
					</g>
					<g>
						<g>
							<path style="" d="M387.508,356.757c0,2.32-0.36,4.551-1.031,6.649c-3.208-0.516-5.66-3.298-5.66-6.649         c0-3.352,2.452-6.134,5.66-6.65C387.149,352.206,387.508,354.436,387.508,356.757z" fill="#915efd" data-original="#915efd"></path>
							<path style="" d="M386.478,364.144c-0.039,0-0.078-0.003-0.117-0.009c-3.64-0.585-6.281-3.688-6.281-7.378         s2.641-6.793,6.281-7.378c0.362-0.059,0.708,0.156,0.82,0.503c0.707,2.212,1.066,4.525,1.066,6.875s-0.359,4.662-1.066,6.874         C387.08,363.941,386.794,364.144,386.478,364.144z M385.968,350.97c-2.592,0.701-4.413,3.042-4.413,5.787         c0,2.745,1.821,5.086,4.413,5.787c0.533-1.872,0.803-3.815,0.803-5.787C386.771,354.785,386.501,352.842,385.968,350.97z" fill="#000e3f" data-original="#000e3f" class=""></path>
						</g>
						<g>
							<path style="" d="M350.633,356.757c0,3.352-2.453,6.134-5.66,6.649c-0.672-2.099-1.031-4.329-1.031-6.649         c0-2.321,0.36-4.551,1.031-6.65C348.18,350.623,350.633,353.405,350.633,356.757z" fill="#915efd" data-original="#915efd"></path>
							<path style="" d="M344.973,364.144c-0.316,0-0.603-0.203-0.702-0.513c-0.708-2.211-1.067-4.524-1.067-6.874         c0-2.351,0.359-4.664,1.067-6.875c0.111-0.347,0.46-0.559,0.82-0.503c3.639,0.585,6.281,3.688,6.281,7.378         s-2.641,6.793-6.281,7.378C345.05,364.141,345.011,364.144,344.973,364.144z M345.482,350.97         c-0.533,1.871-0.804,3.814-0.804,5.787c0,1.972,0.27,3.916,0.804,5.787c2.592-0.701,4.413-3.041,4.413-5.787         C349.896,354.012,348.074,351.671,345.482,350.97z" fill="#000e3f" data-original="#000e3f" class=""></path>
						</g>
						<g>
							<path style="" d="M372.375,377.509c-2.099,0.671-4.329,1.031-6.65,1.031c-2.321,0-4.551-0.36-6.65-1.031         c0.516-3.208,3.298-5.66,6.65-5.66S371.859,374.301,372.375,377.509z" fill="#915efd" data-original="#915efd"></path>
							<path style="" d="M365.725,379.278c-2.35,0-4.663-0.359-6.875-1.066c-0.347-0.111-0.561-0.46-0.503-0.82         c0.585-3.639,3.688-6.281,7.378-6.281c3.69,0,6.792,2.641,7.378,6.281c0.058,0.36-0.156,0.709-0.503,0.82         C370.388,378.919,368.075,379.278,365.725,379.278z M359.938,377c3.743,1.066,7.832,1.066,11.574,0         c-0.701-2.592-3.042-4.413-5.787-4.413C362.98,372.586,360.639,374.408,359.938,377z" fill="#000e3f" data-original="#000e3f" class=""></path>
						</g>
						<g>
							<path style="" d="M372.375,336.005c-0.516,3.208-3.298,5.66-6.65,5.66s-6.134-2.453-6.65-5.66         c2.099-0.672,4.329-1.031,6.65-1.031C368.045,334.973,370.276,335.333,372.375,336.005z" fill="#915efd" data-original="#915efd"></path>
							<path style="" d="M365.725,342.403c-3.69,0-6.793-2.641-7.378-6.281c-0.058-0.36,0.156-0.709,0.503-0.82         c4.422-1.416,9.328-1.416,13.749,0c0.347,0.111,0.561,0.459,0.503,0.82C372.517,339.761,369.415,342.403,365.725,342.403z          M359.938,336.514c0.701,2.592,3.042,4.413,5.787,4.413c2.745,0,5.085-1.821,5.787-4.413         C367.771,335.447,363.68,335.447,359.938,336.514z" fill="#000e3f" data-original="#000e3f" class=""></path>
						</g>
						<g>
							<path style="" d="M355.754,376.124c-4.03-2.069-7.327-5.366-9.396-9.396c2.632-1.907,6.326-1.673,8.694,0.702         C357.426,369.798,357.66,373.492,355.754,376.124z" fill="#915efd" data-original="#915efd"></path>
							<path style="" d="M355.753,376.861c-0.114,0-0.229-0.026-0.337-0.081c-4.139-2.125-7.59-5.576-9.715-9.715         c-0.166-0.324-0.071-0.721,0.223-0.934c2.985-2.161,7.042-1.835,9.649,0.778c2.612,2.605,2.939,6.663,0.777,9.648         C356.208,376.754,355.983,376.861,355.753,376.861z M347.327,366.978c1.895,3.413,4.764,6.282,8.177,8.177         c1.338-2.326,0.97-5.265-0.973-7.203C352.592,366.007,349.653,365.639,347.327,366.978z" fill="#000e3f" data-original="#000e3f" class=""></path>
						</g>
						<g>
							<path style="" d="M385.092,346.785c-2.632,1.907-6.326,1.673-8.694-0.702c-2.374-2.368-2.608-6.062-0.702-8.694         C379.726,339.458,383.023,342.756,385.092,346.785z" fill="#915efd" data-original="#915efd"></path>
							<path style="" d="M381.153,348.808c-1.919,0-3.824-0.746-5.278-2.203c-2.611-2.605-2.938-6.663-0.777-9.648         c0.214-0.295,0.61-0.39,0.934-0.224c4.139,2.126,7.59,5.576,9.715,9.715c0.166,0.324,0.071,0.721-0.224,0.934         C384.205,348.339,382.675,348.808,381.153,348.808z M375.946,338.359c-1.338,2.326-0.97,5.264,0.973,7.202         c1.94,1.945,4.878,2.312,7.204,0.974C382.228,343.123,379.359,340.254,375.946,338.359z" fill="#000e3f" data-original="#000e3f" class=""></path>
						</g>
						<g>
							<path style="" d="M385.092,366.728c-2.069,4.029-5.366,7.327-9.396,9.396c-1.907-2.632-1.673-6.326,0.702-8.694         C378.766,365.055,382.46,364.821,385.092,366.728z" fill="#915efd" data-original="#915efd"></path>
							<path style="" d="M375.697,376.861c-0.23,0-0.455-0.108-0.598-0.305c-2.162-2.985-1.835-7.043,0.778-9.649         c2.605-2.611,6.664-2.939,9.648-0.777c0.295,0.214,0.39,0.61,0.224,0.934c-2.126,4.139-5.576,7.59-9.715,9.715         C375.926,376.835,375.811,376.861,375.697,376.861z M381.154,366.182c-1.539,0-3.067,0.599-4.234,1.768         c-1.944,1.939-2.312,4.878-0.974,7.204c3.413-1.895,6.282-4.764,8.177-8.177         C383.196,366.445,382.172,366.182,381.154,366.182z" fill="#000e3f" data-original="#000e3f" class=""></path>
						</g>
						<g>
							<path style="" d="M355.052,346.084c-2.369,2.374-6.062,2.608-8.694,0.702c2.069-4.029,5.366-7.327,9.396-9.396         C357.66,340.022,357.426,343.716,355.052,346.084z" fill="#915efd" data-original="#915efd"></path>
							<path style="" d="M350.297,348.808c-1.522,0-3.051-0.469-4.372-1.425c-0.295-0.214-0.39-0.61-0.223-0.934         c2.125-4.139,5.576-7.59,9.715-9.715c0.323-0.167,0.72-0.072,0.934,0.224c2.162,2.985,1.835,7.042-0.778,9.648         C354.12,348.062,352.215,348.808,350.297,348.808z M347.327,346.536c2.325,1.338,5.264,0.97,7.202-0.973         c0,0,0.001-0.001,0.001-0.001c1.944-1.938,2.311-4.877,0.973-7.202C352.091,340.254,349.222,343.123,347.327,346.536z" fill="#000e3f" data-original="#000e3f" class=""></path>
						</g>
					</g>
					<g>
						<path style="" d="M357.53,356.757c0,4.526,3.669,8.195,8.195,8.195s8.195-3.669,8.195-8.195        c0-4.526-3.669-8.194-8.195-8.194S357.53,352.231,357.53,356.757z" fill="#4217a6" data-original="#4217a6"></path>
						<path style="" d="M365.725,365.689c-4.925,0-8.932-4.007-8.932-8.932s4.007-8.932,8.932-8.932        c4.925,0,8.932,4.007,8.932,8.932S370.65,365.689,365.725,365.689z M365.725,349.299c-4.112,0-7.457,3.346-7.457,7.457        c0,4.112,3.346,7.457,7.457,7.457c4.112,0,7.457-3.345,7.457-7.457C373.182,352.645,369.837,349.299,365.725,349.299z" fill="#000e3f" data-original="#000e3f" class=""></path>
					</g>
				</g>
			</g>
			<g>
				<g>
					<path style="" d="M195.531,355.155v15.941H96.809v-15.941c0-13.632,5.528-25.973,14.459-34.904       c8.932-8.932,21.273-14.459,34.899-14.459C173.431,305.791,195.531,327.892,195.531,355.155z" fill="#ffcf00" data-original="#ffcf00"></path>
					<path style="" d="M195.531,371.833H96.809c-0.407,0-0.737-0.33-0.737-0.737v-15.941       c0-13.381,5.212-25.962,14.676-35.425c9.463-9.464,22.042-14.675,35.42-14.675c27.626,0,50.101,22.475,50.101,50.101v15.941       C196.268,371.503,195.938,371.833,195.531,371.833z M97.547,370.358h97.247v-15.204c0-26.812-21.814-48.626-48.626-48.626       c-12.984,0-25.192,5.059-34.377,14.243c-9.185,9.185-14.244,21.396-14.244,34.383V370.358z" fill="#000e3f" data-original="#000e3f" class=""></path>
				</g>
				<g>
					<g>
						<g>
							<path style="" d="M187.434,356.757c0,22.791-18.474,41.265-41.265,41.265c-10.133,0-19.421-3.652-26.598-9.72         c-8.97-7.567-14.666-18.893-14.666-31.545c0-22.791,18.474-41.265,41.265-41.265c11.129,0,21.232,4.407,28.649,11.572         C182.595,334.565,187.434,345.095,187.434,356.757z" fill="#4217a6" data-original="#4217a6"></path>
							<path style="opacity:0.25;" d="M187.434,356.757c0,22.791-18.474,41.265-41.265,41.265         c-10.133,0-19.421-3.652-26.598-9.72c47.644,7.447,65.77-18.234,55.247-61.237         C182.595,334.565,187.434,345.095,187.434,356.757z" fill="#000e3f" data-original="#000e3f" class=""></path>
							<path style="opacity:0.5;" d="M140.466,324.849c-4.139,0.887-8.089,2.361-11.646,4.46         c-3.546,2.109-6.691,4.854-9.158,8.124c-2.491,3.25-4.3,7.012-5.336,10.994c-1.023,3.988-1.277,8.196-0.747,12.374         c0.05,0.395-0.229,0.756-0.624,0.807c-0.363,0.046-0.697-0.187-0.788-0.531c-1.125-4.259-1.269-8.837-0.342-13.224         c0.896-4.394,2.833-8.577,5.555-12.155c2.737-3.569,6.253-6.527,10.214-8.589c3.95-2.09,8.319-3.264,12.687-3.6         c0.373-0.029,0.699,0.251,0.728,0.624c0.026,0.342-0.207,0.645-0.533,0.715L140.466,324.849z" fill="#ffffff" data-original="#ffffff"></path>
						</g>
						<path style="" d="M146.17,398.759c-9.913,0-19.528-3.513-27.075-9.894c-9.486-8.003-14.927-19.706-14.927-32.108        c0-23.16,18.842-42.002,42.002-42.002c10.942,0,21.298,4.183,29.161,11.779c8.28,7.987,12.841,18.72,12.841,30.223        C188.172,379.917,169.33,398.759,146.17,398.759z M146.17,316.23c-22.347,0-40.527,18.18-40.527,40.527        c0,11.967,5.25,23.259,14.404,30.981c7.281,6.156,16.558,9.546,26.123,9.546c22.347,0,40.527-18.181,40.527-40.527        c0-11.099-4.4-21.455-12.39-29.161C166.72,320.266,156.727,316.23,146.17,316.23z" fill="#000e3f" data-original="#000e3f" class=""></path>
					</g>
					<g>
						
							<ellipse transform="matrix(0.9874 -0.1585 0.1585 0.9874 -54.6893 27.6722)" style="" cx="146.17" cy="356.757" rx="26.746" ry="26.746" fill="#fc09b2" data-original="#fc09b2"></ellipse>
						<path style="" d="M146.17,384.24c-15.154,0-27.483-12.329-27.483-27.483c0-15.155,12.329-27.484,27.483-27.484        c15.154,0,27.483,12.329,27.483,27.484C173.653,371.911,161.324,384.24,146.17,384.24z M146.17,330.748        c-14.341,0-26.008,11.668-26.008,26.009c0,14.341,11.667,26.008,26.008,26.008c14.341,0,26.008-11.667,26.008-26.008        C172.178,342.416,160.51,330.748,146.17,330.748z" fill="#000e3f" data-original="#000e3f" class=""></path>
					</g>
					<g>
						<path style="" d="M167.953,356.757c0,2.32-0.36,4.551-1.031,6.649c-0.372,1.151-0.833,2.267-1.385,3.322        c-2.069,4.029-5.366,7.327-9.396,9.396c-1.055,0.552-2.17,1.013-3.322,1.385c-2.099,0.671-4.329,1.031-6.65,1.031        s-4.551-0.36-6.65-1.031c-1.151-0.372-2.267-0.834-3.322-1.385c-4.03-2.069-7.327-5.366-9.396-9.396        c-0.551-1.055-1.013-2.171-1.385-3.322c-0.672-2.099-1.031-4.329-1.031-6.649c0-2.321,0.36-4.551,1.031-6.65        c0.372-1.151,0.833-2.266,1.385-3.322c2.069-4.029,5.366-7.327,9.396-9.396c1.055-0.552,2.17-1.013,3.322-1.385        c2.099-0.672,4.329-1.031,6.65-1.031s4.551,0.36,6.65,1.031c1.151,0.372,2.267,0.833,3.322,1.385        c4.03,2.069,7.327,5.366,9.396,9.396c0.552,1.055,1.013,2.171,1.385,3.322C167.593,352.206,167.953,354.436,167.953,356.757z" fill="#00d5fe" data-original="#00d5fe"></path>
						<path style="" d="M146.17,379.278c-2.35,0-4.663-0.359-6.875-1.066c-1.207-0.39-2.364-0.872-3.438-1.434        c-4.135-2.123-7.585-5.574-9.71-9.713c-0.559-1.07-1.041-2.226-1.43-3.432c-0.708-2.213-1.067-4.526-1.067-6.876        c0-2.351,0.359-4.664,1.067-6.875c0.39-1.207,0.872-2.363,1.433-3.438c2.123-4.135,5.574-7.585,9.713-9.71        c1.07-0.559,2.227-1.041,3.432-1.43c4.425-1.416,9.329-1.416,13.751,0c1.208,0.39,2.365,0.872,3.439,1.433        c4.135,2.123,7.585,5.573,9.711,9.713c0.559,1.07,1.041,2.226,1.43,3.432c0.708,2.214,1.067,4.527,1.067,6.876        s-0.359,4.662-1.066,6.874c-0.39,1.208-0.872,2.364-1.434,3.439c-2.123,4.134-5.574,7.585-9.713,9.71        c-1.07,0.559-2.226,1.041-3.432,1.431C150.833,378.919,148.52,379.278,146.17,379.278z M146.17,335.711        c-2.198,0-4.359,0.335-6.425,0.996c-1.125,0.363-2.203,0.813-3.205,1.336c-3.872,1.988-7.096,5.211-9.082,9.079        c-0.526,1.006-0.976,2.085-1.339,3.211c-0.661,2.064-0.996,4.225-0.996,6.423c0,2.197,0.335,4.359,0.996,6.424        c0.364,1.126,0.813,2.204,1.336,3.205c1.988,3.872,5.211,7.096,9.079,9.081c1.006,0.526,2.085,0.976,3.211,1.339        c4.129,1.32,8.717,1.321,12.848-0.001c1.126-0.363,2.204-0.813,3.205-1.336c3.872-1.988,7.096-5.211,9.082-9.079        c0.525-1.006,0.975-2.084,1.339-3.211c0.661-2.065,0.996-4.227,0.996-6.423c0-2.197-0.335-4.358-0.997-6.425        c-0.363-1.125-0.813-2.203-1.336-3.205c-1.988-3.872-5.211-7.096-9.079-9.081c-1.005-0.525-2.084-0.975-3.211-1.339        C150.529,336.046,148.368,335.711,146.17,335.711z" fill="#000e3f" data-original="#000e3f" class=""></path>
					</g>
					<g>
						<g>
							<path style="" d="M167.953,356.757c0,2.32-0.36,4.551-1.031,6.649c-3.208-0.516-5.66-3.298-5.66-6.649         c0-3.352,2.452-6.134,5.66-6.65C167.593,352.206,167.953,354.436,167.953,356.757z" fill="#915efd" data-original="#915efd"></path>
							<path style="" d="M166.922,364.144c-0.039,0-0.078-0.003-0.117-0.009c-3.64-0.585-6.281-3.688-6.281-7.378         s2.641-6.793,6.28-7.378c0.362-0.059,0.708,0.156,0.82,0.503c0.707,2.212,1.066,4.525,1.066,6.875s-0.359,4.662-1.066,6.874         C167.525,363.941,167.238,364.144,166.922,364.144z M166.412,350.97c-2.592,0.701-4.413,3.042-4.413,5.787         c0,2.745,1.821,5.086,4.413,5.787c0.533-1.872,0.803-3.815,0.803-5.787C167.216,354.785,166.946,352.842,166.412,350.97z" fill="#000e3f" data-original="#000e3f" class=""></path>
						</g>
						<g>
							<path style="" d="M131.078,356.757c0,3.352-2.452,6.134-5.66,6.649c-0.672-2.099-1.031-4.329-1.031-6.649         c0-2.321,0.36-4.551,1.031-6.65C128.625,350.623,131.078,353.405,131.078,356.757z" fill="#915efd" data-original="#915efd"></path>
							<path style="" d="M125.417,364.144c-0.316,0-0.603-0.203-0.702-0.513c-0.708-2.211-1.067-4.524-1.067-6.874         c0-2.351,0.359-4.664,1.067-6.875c0.111-0.347,0.46-0.559,0.82-0.503c3.639,0.585,6.28,3.688,6.28,7.378         s-2.641,6.793-6.281,7.378C125.495,364.141,125.456,364.144,125.417,364.144z M125.927,350.97         c-0.533,1.871-0.803,3.814-0.803,5.787c0,1.972,0.27,3.916,0.803,5.787c2.592-0.701,4.413-3.041,4.413-5.787         C130.34,354.012,128.519,351.671,125.927,350.97z" fill="#000e3f" data-original="#000e3f" class=""></path>
						</g>
						<g>
							<path style="" d="M152.819,377.509c-2.099,0.671-4.329,1.031-6.65,1.031s-4.551-0.36-6.65-1.031         c0.516-3.208,3.298-5.66,6.65-5.66S152.303,374.301,152.819,377.509z" fill="#915efd" data-original="#915efd"></path>
							<path style="" d="M146.17,379.278c-2.35,0-4.663-0.359-6.875-1.066c-0.347-0.111-0.561-0.46-0.503-0.82         c0.585-3.639,3.688-6.281,7.378-6.281c3.69,0,6.792,2.641,7.378,6.281c0.058,0.36-0.156,0.709-0.503,0.82         C150.833,378.919,148.52,379.278,146.17,379.278z M140.383,377c3.743,1.066,7.832,1.066,11.574,0         c-0.702-2.592-3.042-4.413-5.787-4.413C143.424,372.586,141.084,374.408,140.383,377z" fill="#000e3f" data-original="#000e3f" class=""></path>
						</g>
						<g>
							<path style="" d="M152.819,336.005c-0.516,3.208-3.298,5.66-6.65,5.66s-6.134-2.453-6.65-5.66         c2.099-0.672,4.329-1.031,6.65-1.031S150.721,335.333,152.819,336.005z" fill="#915efd" data-original="#915efd"></path>
							<path style="" d="M146.17,342.403c-3.69,0-6.793-2.641-7.378-6.281c-0.058-0.36,0.156-0.709,0.503-0.82         c4.422-1.416,9.327-1.416,13.749,0c0.347,0.111,0.561,0.459,0.503,0.82C152.962,339.761,149.859,342.403,146.17,342.403z          M140.383,336.514c0.701,2.592,3.042,4.413,5.787,4.413c2.745,0,5.085-1.821,5.787-4.413         C148.215,335.447,144.125,335.447,140.383,336.514z" fill="#000e3f" data-original="#000e3f" class=""></path>
						</g>
						<g>
							<path style="" d="M136.198,376.124c-4.03-2.069-7.327-5.366-9.396-9.396c2.632-1.907,6.326-1.673,8.694,0.702         C137.871,369.798,138.105,373.492,136.198,376.124z" fill="#915efd" data-original="#915efd"></path>
							<path style="" d="M136.198,376.861c-0.114,0-0.229-0.026-0.337-0.081c-4.139-2.125-7.59-5.576-9.715-9.715         c-0.166-0.324-0.071-0.721,0.224-0.934c2.985-2.161,7.042-1.835,9.649,0.778c2.612,2.605,2.939,6.663,0.777,9.648         C136.653,376.754,136.428,376.861,136.198,376.861z M127.772,366.978c1.895,3.413,4.764,6.282,8.177,8.177         c1.338-2.326,0.97-5.265-0.973-7.203C133.037,366.007,130.098,365.639,127.772,366.978z" fill="#000e3f" data-original="#000e3f" class=""></path>
						</g>
						<g>
							<path style="" d="M165.537,346.785c-2.632,1.907-6.326,1.673-8.694-0.702c-2.375-2.368-2.609-6.062-0.702-8.694         C160.17,339.458,163.468,342.756,165.537,346.785z" fill="#915efd" data-original="#915efd"></path>
							<path style="" d="M161.598,348.808c-1.919,0-3.824-0.746-5.278-2.203c-2.611-2.605-2.939-6.663-0.777-9.648         c0.214-0.295,0.61-0.39,0.934-0.224c4.139,2.126,7.59,5.576,9.715,9.715c0.166,0.324,0.071,0.721-0.224,0.934         C164.649,348.339,163.119,348.808,161.598,348.808z M156.391,338.359c-1.338,2.326-0.97,5.264,0.973,7.202         c1.94,1.945,4.878,2.312,7.204,0.974C162.672,343.123,159.804,340.254,156.391,338.359z" fill="#000e3f" data-original="#000e3f" class=""></path>
						</g>
						<g>
							<path style="" d="M165.537,366.728c-2.069,4.029-5.366,7.327-9.396,9.396c-1.907-2.632-1.673-6.326,0.702-8.694         C159.211,365.055,162.904,364.821,165.537,366.728z" fill="#915efd" data-original="#915efd"></path>
							<path style="" d="M156.141,376.861c-0.23,0-0.455-0.108-0.598-0.305c-2.162-2.985-1.834-7.043,0.778-9.649         c2.605-2.611,6.664-2.939,9.648-0.777c0.295,0.214,0.39,0.61,0.224,0.934c-2.126,4.139-5.576,7.59-9.715,9.715         C156.371,376.835,156.255,376.861,156.141,376.861z M161.598,366.182c-1.539,0-3.068,0.599-4.234,1.768         c-1.944,1.939-2.312,4.878-0.974,7.204c3.413-1.895,6.282-4.764,8.177-8.177         C163.641,366.445,162.617,366.182,161.598,366.182z" fill="#000e3f" data-original="#000e3f" class=""></path>
						</g>
						<g>
							<path style="" d="M135.497,346.084c-2.369,2.374-6.062,2.608-8.694,0.702c2.069-4.029,5.366-7.327,9.396-9.396         C138.105,340.022,137.871,343.716,135.497,346.084z" fill="#915efd" data-original="#915efd"></path>
							<path style="" d="M130.741,348.808c-1.522,0-3.051-0.469-4.371-1.425c-0.295-0.214-0.39-0.61-0.224-0.934         c2.126-4.139,5.576-7.59,9.715-9.715c0.323-0.167,0.72-0.072,0.935,0.224c2.161,2.985,1.834,7.042-0.778,9.648         C134.564,348.062,132.659,348.808,130.741,348.808z M127.772,346.536c2.325,1.338,5.264,0.97,7.202-0.973         c0,0,0.001-0.001,0.001-0.001c1.943-1.938,2.311-4.877,0.973-7.202C132.535,340.254,129.667,343.123,127.772,346.536z" fill="#000e3f" data-original="#000e3f" class=""></path>
						</g>
					</g>
					<g>
						<path style="" d="M137.975,356.757c0,4.526,3.669,8.195,8.195,8.195s8.195-3.669,8.195-8.195        c0-4.526-3.669-8.194-8.195-8.194S137.975,352.231,137.975,356.757z" fill="#4217a6" data-original="#4217a6"></path>
						<path style="" d="M146.17,365.689c-4.925,0-8.932-4.007-8.932-8.932s4.007-8.932,8.932-8.932        c4.925,0,8.932,4.007,8.932,8.932S151.095,365.689,146.17,365.689z M146.17,349.299c-4.112,0-7.457,3.346-7.457,7.457        c0,4.112,3.346,7.457,7.457,7.457c4.112,0,7.457-3.345,7.457-7.457C153.626,352.645,150.281,349.299,146.17,349.299z" fill="#000e3f" data-original="#000e3f" class=""></path>
					</g>
				</g>
			</g>
		</g>
		<g>
			<g>
				<g>
					<path style="" d="M86.215,230.559v78.299c0,1.487-1.209,2.696-2.696,2.696H21.826l0.321-4.357l5.539-74.976       l0.327-4.357h55.507C85.006,227.863,86.215,229.067,86.215,230.559z" fill="#ffffff" data-original="#ffffff"></path>
					<path style="" d="M83.519,312.291H21.826c-0.205,0-0.401-0.085-0.54-0.235c-0.14-0.15-0.21-0.352-0.195-0.556       l6.187-83.691c0.029-0.385,0.35-0.682,0.736-0.682h55.506c1.894,0,3.433,1.54,3.433,3.433v78.299       C86.953,310.751,85.413,312.291,83.519,312.291z M22.619,310.816h60.9c1.08,0,1.959-0.879,1.959-1.958v-78.299       c0-1.079-0.879-1.958-1.959-1.958H28.697l-0.276,3.675L22.619,310.816z" fill="#000e3f" data-original="#000e3f" class=""></path>
				</g>
				<g>
					<g>
						<path style="" d="M81.96,234.321v70.77c0,1.164-0.942,2.106-2.098,2.106H22.146l0.344-4.654l0.303-4.065        l0.582-7.949l1.164-15.718l0.656-8.826l0.68-9.252l1.811-24.51h52.176C81.017,232.223,81.96,233.166,81.96,234.321z" fill="#00d5fe" data-original="#00d5fe"></path>
						<g style="opacity:0.25;">
							<polygon style="" points="75.508,232.22 25.192,265.986 25.872,256.733 62.405,232.22        " fill="#4217a6" data-original="#4217a6"></polygon>
							<polygon style="" points="81.962,280.625 81.962,290.847 57.601,307.196 42.369,307.196        " fill="#4217a6" data-original="#4217a6"></polygon>
							<polygon style="" points="81.962,236.272 81.962,251.211 23.378,290.526 24.538,274.809        " fill="#4217a6" data-original="#4217a6"></polygon>
							<polygon style="" points="81.962,262.637 81.962,269.831 26.281,307.196 22.147,307.196 22.49,302.545                 " fill="#4217a6" data-original="#4217a6"></polygon>
						</g>
						<path style="opacity:0.25;" d="M81.96,234.321v70.77c0,1.164-0.942,2.106-2.098,2.106H22.146l0.344-4.654l0,0        c0.171-2.292,2.081-4.065,4.379-4.065h40.147c3.13,0,5.667-2.537,5.667-5.667v-53.409c0-3.965,3.214-7.178,7.179-7.178l0,0        C81.016,232.223,81.96,233.167,81.96,234.321z" fill="#4217a6" data-original="#4217a6"></path>
						<path style="" d="M35.763,240.414c0.194,3.052,0.244,6.099,0.242,9.144c0.008,3.045-0.071,6.087-0.166,9.129        c-0.123,3.04-0.264,6.08-0.491,9.117c-0.218,3.037-0.488,6.072-0.904,9.101c-0.054,0.396-0.419,0.672-0.815,0.618        c-0.347-0.048-0.603-0.335-0.623-0.672c-0.189-3.052-0.232-6.099-0.223-9.143c0-3.045,0.086-6.087,0.19-9.128        c0.132-3.04,0.28-6.08,0.514-9.116c0.225-3.037,0.501-6.071,0.923-9.101c0.052-0.372,0.395-0.632,0.767-0.58        C35.504,239.829,35.743,240.099,35.763,240.414z" fill="#ffffff" data-original="#ffffff"></path>
					</g>
					<path style="" d="M79.862,307.934H22.146c-0.205,0-0.401-0.085-0.541-0.236c-0.139-0.15-0.21-0.352-0.195-0.556       l5.54-74.973c0.028-0.385,0.349-0.683,0.736-0.683h52.176c1.563,0,2.835,1.272,2.835,2.835v70.77       C82.697,306.659,81.425,307.934,79.862,307.934z M22.941,306.459h56.921c0.75,0,1.36-0.614,1.36-1.368v-70.77       c0-0.75-0.61-1.36-1.36-1.36H28.371L22.941,306.459z" fill="#000e3f" data-original="#000e3f" class=""></path>
				</g>
			</g>
			<g>
				<g>
					<path style="" d="M402.592,286.136h61.202c1.488,0,2.694-1.206,2.694-2.694v-52.885       c0-1.488-1.206-2.694-2.694-2.694h-61.202c-1.488,0-2.694,1.206-2.694,2.694v52.885       C399.898,284.93,401.104,286.136,402.592,286.136z" fill="#ffffff" data-original="#ffffff"></path>
					<path style="" d="M463.794,286.874h-61.202c-1.892,0-3.432-1.54-3.432-3.432v-52.884       c0-1.892,1.54-3.432,3.432-3.432h61.202c1.892,0,3.432,1.54,3.432,3.432v52.884       C467.226,285.334,465.686,286.874,463.794,286.874z M402.592,228.601c-1.079,0-1.957,0.878-1.957,1.957v52.884       c0,1.079,0.878,1.957,1.957,1.957h61.202c1.079,0,1.957-0.878,1.957-1.957v-52.884c0-1.079-0.878-1.957-1.957-1.957H402.592z" fill="#000e3f" data-original="#000e3f" class=""></path>
				</g>
				<g>
					<g>
						<path style="" d="M462.234,234.321v45.358c0,1.155-0.942,2.098-2.098,2.098h-53.88        c-0.385,0-0.737-0.098-1.049-0.279c-0.631-0.361-1.057-1.041-1.057-1.819v-45.358c0-1.155,0.942-2.098,2.106-2.098h53.88        C461.291,232.223,462.234,233.166,462.234,234.321z" fill="#00d5fe" data-original="#00d5fe"></path>
						<g style="opacity:0.25;">
							<polygon style="" points="443.893,232.22 404.152,258.89 404.152,250.094 430.789,232.22        " fill="#4217a6" data-original="#4217a6"></polygon>
							<path style="" d="M462.235,234.322v8.91l-57.026,38.27c-0.632-0.365-1.057-1.046-1.057-1.824v-12.401         l52.234-35.057h3.747C461.293,232.22,462.235,233.162,462.235,234.322z" fill="#4217a6" data-original="#4217a6"></path>
							<polygon style="" points="462.235,254.658 462.235,261.847 432.538,281.779 421.814,281.779        " fill="#4217a6" data-original="#4217a6"></polygon>
						</g>
						<path style="" d="M411.858,238.629c2.314-0.308,4.629-0.471,6.944-0.583c2.315-0.121,4.629-0.156,6.944-0.174        c2.314,0.009,4.629,0.037,6.944,0.151c2.314,0.104,4.629,0.261,6.944,0.564c0.397,0.052,0.677,0.416,0.625,0.814        c-0.044,0.333-0.307,0.584-0.625,0.625c-2.315,0.303-4.629,0.459-6.944,0.564c-2.315,0.113-4.629,0.141-6.944,0.15        c-2.315-0.018-4.629-0.053-6.944-0.174c-2.314-0.112-4.629-0.275-6.944-0.583c-0.374-0.05-0.636-0.393-0.587-0.767        C411.312,238.903,411.56,238.668,411.858,238.629z" fill="#ffffff" data-original="#ffffff"></path>
						<path style="opacity:0.25;" d="M462.234,234.321v45.358c0,1.154-0.944,2.098-2.098,2.098h-53.88        c-0.385,0-0.737-0.098-1.049-0.279c-0.631-0.361-1.057-1.041-1.057-1.819l0,0c0-2.44,1.978-4.417,4.417-4.417h42.976        c2.076,0,3.758-1.683,3.758-3.758v-34.446c0-2.67,2.165-4.835,4.835-4.835l0,0        C461.29,232.223,462.234,233.167,462.234,234.321z" fill="#4217a6" data-original="#4217a6"></path>
					</g>
					<path style="" d="M460.136,282.514h-53.88c-0.509,0-0.986-0.127-1.419-0.378       c-0.877-0.502-1.425-1.444-1.425-2.457v-45.358c0-1.563,1.276-2.835,2.844-2.835h53.88c1.563,0,2.835,1.272,2.835,2.835v45.358       C462.971,281.242,461.699,282.514,460.136,282.514z M406.256,232.961c-0.755,0-1.368,0.61-1.368,1.36v45.358       c0,0.485,0.262,0.937,0.685,1.179c0.209,0.121,0.438,0.181,0.683,0.181h53.88c0.75,0,1.36-0.61,1.36-1.36v-45.358       c0-0.75-0.61-1.36-1.36-1.36H406.256z" fill="#000e3f" data-original="#000e3f" class=""></path>
				</g>
				<g>
					<rect x="431.317" y="249.744" style="" width="3.753" height="32.033" fill="#fc09b2" data-original="#fc09b2"></rect>
					<path style="" d="M435.07,282.514h-3.753c-0.407,0-0.737-0.33-0.737-0.737v-32.033       c0-0.407,0.33-0.737,0.737-0.737h3.753c0.407,0,0.738,0.33,0.738,0.737v32.033C435.808,282.184,435.478,282.514,435.07,282.514       z M432.055,281.039h2.278v-30.558h-2.278V281.039z" fill="#000e3f" data-original="#000e3f" class=""></path>
				</g>
				<g>
					<rect x="404.152" y="249.744" style="" width="58.084" height="4.081" fill="#fc09b2" data-original="#fc09b2"></rect>
					<path style="" d="M462.236,254.562h-58.084c-0.407,0-0.737-0.33-0.737-0.737v-4.081       c0-0.407,0.33-0.737,0.737-0.737h58.084c0.407,0,0.737,0.33,0.737,0.737v4.081       C462.973,254.232,462.643,254.562,462.236,254.562z M404.889,253.087h56.609v-2.606h-56.609V253.087z" fill="#000e3f" data-original="#000e3f" class=""></path>
				</g>
			</g>
			<g>
				<g>
					<path style="" d="M326.537,286.136h61.202c1.488,0,2.694-1.206,2.694-2.694v-52.885       c0-1.488-1.206-2.694-2.694-2.694h-61.202c-1.488,0-2.694,1.206-2.694,2.694v52.885       C323.843,284.93,325.049,286.136,326.537,286.136z" fill="#ffffff" data-original="#ffffff"></path>
					<path style="" d="M387.739,286.874h-61.202c-1.892,0-3.432-1.54-3.432-3.432v-52.884       c0-1.892,1.54-3.432,3.432-3.432h61.202c1.892,0,3.432,1.54,3.432,3.432v52.884       C391.171,285.334,389.632,286.874,387.739,286.874z M326.537,228.601c-1.079,0-1.957,0.878-1.957,1.957v52.884       c0,1.079,0.878,1.957,1.957,1.957h61.202c1.079,0,1.957-0.878,1.957-1.957v-52.884c0-1.079-0.878-1.957-1.957-1.957H326.537z" fill="#000e3f" data-original="#000e3f" class=""></path>
				</g>
				<g>
					<g>
						<path style="" d="M386.179,234.321v45.358c0,1.155-0.942,2.098-2.098,2.098h-53.88        c-0.385,0-0.738-0.098-1.049-0.279c-0.631-0.361-1.057-1.041-1.057-1.819v-45.358c0-1.155,0.942-2.098,2.106-2.098h53.88        C385.237,232.223,386.179,233.166,386.179,234.321z" fill="#00d5fe" data-original="#00d5fe"></path>
						<g style="opacity:0.25;">
							<polygon style="" points="367.838,232.22 328.098,258.89 328.098,250.094 354.735,232.22        " fill="#4217a6" data-original="#4217a6"></polygon>
							<path style="" d="M386.181,234.322v8.91l-57.026,38.27c-0.632-0.365-1.056-1.046-1.056-1.824v-12.401         l52.234-35.057h3.747C385.238,232.22,386.181,233.162,386.181,234.322z" fill="#4217a6" data-original="#4217a6"></path>
							<polygon style="" points="386.181,254.658 386.181,261.847 356.483,281.779 345.76,281.779        " fill="#4217a6" data-original="#4217a6"></polygon>
						</g>
						<path style="" d="M335.803,238.629c2.314-0.308,4.629-0.471,6.944-0.583c2.314-0.121,4.629-0.156,6.944-0.174        c2.315,0.009,4.629,0.037,6.944,0.151c2.314,0.104,4.629,0.261,6.944,0.564c0.397,0.052,0.677,0.416,0.625,0.814        c-0.044,0.333-0.307,0.584-0.625,0.625c-2.315,0.303-4.629,0.459-6.944,0.564c-2.315,0.113-4.629,0.141-6.944,0.15        c-2.315-0.018-4.629-0.053-6.944-0.174c-2.315-0.112-4.629-0.275-6.944-0.583c-0.374-0.05-0.636-0.393-0.587-0.767        C335.258,238.903,335.505,238.668,335.803,238.629z" fill="#ffffff" data-original="#ffffff"></path>
						<path style="opacity:0.25;" d="M386.179,234.321v45.358c0,1.154-0.944,2.098-2.098,2.098h-53.88        c-0.385,0-0.738-0.098-1.049-0.279c-0.631-0.361-1.057-1.041-1.057-1.819l0,0c0-2.44,1.977-4.417,4.417-4.417h42.976        c2.076,0,3.758-1.683,3.758-3.758v-34.446c0-2.67,2.165-4.835,4.835-4.835l0,0        C385.235,232.223,386.179,233.167,386.179,234.321z" fill="#4217a6" data-original="#4217a6"></path>
					</g>
					<path style="" d="M384.081,282.514h-53.88c-0.509,0-0.986-0.127-1.419-0.378       c-0.877-0.502-1.424-1.444-1.424-2.457v-45.358c0-1.563,1.276-2.835,2.843-2.835h53.88c1.563,0,2.835,1.272,2.835,2.835v45.358       C386.917,281.242,385.645,282.514,384.081,282.514z M330.201,232.961c-0.755,0-1.368,0.61-1.368,1.36v45.358       c0,0.485,0.262,0.937,0.685,1.179c0.209,0.121,0.437,0.181,0.683,0.181h53.88c0.75,0,1.361-0.61,1.361-1.36v-45.358       c0-0.75-0.61-1.36-1.361-1.36H330.201z" fill="#000e3f" data-original="#000e3f" class=""></path>
				</g>
				<g>
					<rect x="355.263" y="249.744" style="" width="3.753" height="32.033" fill="#fc09b2" data-original="#fc09b2"></rect>
					<path style="" d="M359.016,282.514h-3.753c-0.407,0-0.737-0.33-0.737-0.737v-32.033       c0-0.407,0.33-0.737,0.737-0.737h3.753c0.407,0,0.737,0.33,0.737,0.737v32.033       C359.753,282.184,359.423,282.514,359.016,282.514z M356,281.039h2.278v-30.558H356V281.039z" fill="#000e3f" data-original="#000e3f" class=""></path>
				</g>
				<g>
					<rect x="328.097" y="249.744" style="" width="58.084" height="4.081" fill="#fc09b2" data-original="#fc09b2"></rect>
					<path style="" d="M386.181,254.562h-58.084c-0.407,0-0.737-0.33-0.737-0.737v-4.081       c0-0.407,0.33-0.737,0.737-0.737h58.084c0.407,0,0.737,0.33,0.737,0.737v4.081       C386.919,254.232,386.589,254.562,386.181,254.562z M328.835,253.087h56.609v-2.606h-56.609V253.087z" fill="#000e3f" data-original="#000e3f" class=""></path>
				</g>
			</g>
			<g>
				<g>
					<path style="" d="M250.483,286.136h61.202c1.488,0,2.694-1.206,2.694-2.694v-52.885       c0-1.488-1.206-2.694-2.694-2.694h-61.202c-1.488,0-2.694,1.206-2.694,2.694v52.885       C247.788,284.93,248.995,286.136,250.483,286.136z" fill="#ffffff" data-original="#ffffff"></path>
					<path style="" d="M311.685,286.874h-61.202c-1.892,0-3.432-1.54-3.432-3.432v-52.884       c0-1.892,1.54-3.432,3.432-3.432h61.202c1.892,0,3.432,1.54,3.432,3.432v52.884       C315.117,285.334,313.577,286.874,311.685,286.874z M250.483,228.601c-1.079,0-1.957,0.878-1.957,1.957v52.884       c0,1.079,0.878,1.957,1.957,1.957h61.202c1.079,0,1.957-0.878,1.957-1.957v-52.884c0-1.079-0.878-1.957-1.957-1.957H250.483z" fill="#000e3f" data-original="#000e3f" class=""></path>
				</g>
				<g>
					<g>
						<path style="" d="M310.124,234.321v45.358c0,1.155-0.942,2.098-2.098,2.098h-53.88        c-0.385,0-0.738-0.098-1.049-0.279c-0.631-0.361-1.057-1.041-1.057-1.819v-45.358c0-1.155,0.942-2.098,2.106-2.098h53.88        C309.182,232.223,310.124,233.166,310.124,234.321z" fill="#00d5fe" data-original="#00d5fe"></path>
						<g style="opacity:0.25;">
							<polygon style="" points="291.783,232.22 252.043,258.89 252.043,250.094 278.68,232.22        " fill="#4217a6" data-original="#4217a6"></polygon>
							<path style="" d="M310.126,234.322v8.91l-57.026,38.27c-0.632-0.365-1.057-1.046-1.057-1.824v-12.401         l52.234-35.057h3.747C309.184,232.22,310.126,233.162,310.126,234.322z" fill="#4217a6" data-original="#4217a6"></path>
							<polygon style="" points="310.126,254.658 310.126,261.847 280.428,281.779 269.705,281.779        " fill="#4217a6" data-original="#4217a6"></polygon>
						</g>
						<path style="" d="M259.748,238.629c2.315-0.308,4.629-0.471,6.944-0.583c2.314-0.121,4.629-0.156,6.944-0.174        c2.314,0.009,4.629,0.037,6.944,0.151c2.315,0.104,4.629,0.261,6.944,0.564c0.397,0.052,0.677,0.416,0.625,0.814        c-0.044,0.333-0.307,0.584-0.625,0.625c-2.315,0.303-4.629,0.459-6.944,0.564c-2.314,0.113-4.629,0.141-6.944,0.15        c-2.315-0.018-4.629-0.053-6.944-0.174c-2.315-0.112-4.629-0.275-6.944-0.583c-0.374-0.05-0.636-0.393-0.586-0.767        C259.203,238.903,259.45,238.668,259.748,238.629z" fill="#ffffff" data-original="#ffffff"></path>
						<path style="opacity:0.25;" d="M310.124,234.321v45.358c0,1.154-0.944,2.098-2.098,2.098h-53.88        c-0.385,0-0.738-0.098-1.049-0.279c-0.631-0.361-1.057-1.041-1.057-1.819l0,0c0-2.44,1.978-4.417,4.417-4.417h42.976        c2.076,0,3.758-1.683,3.758-3.758v-34.446c0-2.67,2.165-4.835,4.835-4.835l0,0        C309.18,232.223,310.124,233.167,310.124,234.321z" fill="#4217a6" data-original="#4217a6"></path>
					</g>
					<path style="" d="M308.027,282.514h-53.88c-0.509,0-0.986-0.127-1.419-0.378       c-0.877-0.502-1.425-1.444-1.425-2.457v-45.358c0-1.563,1.276-2.835,2.843-2.835h53.88c1.563,0,2.835,1.272,2.835,2.835v45.358       C310.862,281.242,309.59,282.514,308.027,282.514z M254.146,232.961c-0.755,0-1.368,0.61-1.368,1.36v45.358       c0,0.485,0.263,0.937,0.685,1.179c0.209,0.121,0.437,0.181,0.683,0.181h53.88c0.75,0,1.36-0.61,1.36-1.36v-45.358       c0-0.75-0.61-1.36-1.36-1.36H254.146z" fill="#000e3f" data-original="#000e3f" class=""></path>
				</g>
				<g>
					<rect x="279.208" y="249.744" style="" width="3.753" height="32.033" fill="#fc09b2" data-original="#fc09b2"></rect>
					<path style="" d="M282.961,282.514h-3.753c-0.407,0-0.737-0.33-0.737-0.737v-32.033       c0-0.407,0.33-0.737,0.737-0.737h3.753c0.407,0,0.737,0.33,0.737,0.737v32.033       C283.699,282.184,283.368,282.514,282.961,282.514z M279.945,281.039h2.278v-30.558h-2.278V281.039z" fill="#000e3f" data-original="#000e3f" class=""></path>
				</g>
				<g>
					<rect x="252.042" y="249.744" style="" width="58.084" height="4.081" fill="#fc09b2" data-original="#fc09b2"></rect>
					<path style="" d="M310.127,254.562h-58.084c-0.407,0-0.737-0.33-0.737-0.737v-4.081       c0-0.407,0.33-0.737,0.737-0.737h58.084c0.407,0,0.737,0.33,0.737,0.737v4.081       C310.864,254.232,310.534,254.562,310.127,254.562z M252.78,253.087h56.609v-2.606H252.78V253.087z" fill="#000e3f" data-original="#000e3f" class=""></path>
				</g>
			</g>
			<g>
				<g>
					<path style="" d="M174.428,286.136h61.202c1.488,0,2.694-1.206,2.694-2.694v-52.885       c0-1.488-1.206-2.694-2.694-2.694h-61.202c-1.488,0-2.694,1.206-2.694,2.694v52.885       C171.734,284.93,172.94,286.136,174.428,286.136z" fill="#ffffff" data-original="#ffffff"></path>
					<path style="" d="M235.63,286.874h-61.202c-1.892,0-3.432-1.54-3.432-3.432v-52.884       c0-1.892,1.54-3.432,3.432-3.432h61.202c1.892,0,3.432,1.54,3.432,3.432v52.884       C239.062,285.334,237.522,286.874,235.63,286.874z M174.428,228.601c-1.079,0-1.957,0.878-1.957,1.957v52.884       c0,1.079,0.878,1.957,1.957,1.957h61.202c1.079,0,1.957-0.878,1.957-1.957v-52.884c0-1.079-0.878-1.957-1.957-1.957H174.428z" fill="#000e3f" data-original="#000e3f" class=""></path>
				</g>
				<g>
					<g>
						<path style="" d="M234.07,234.321v45.358c0,1.155-0.942,2.098-2.098,2.098h-53.88        c-0.385,0-0.737-0.098-1.049-0.279c-0.631-0.361-1.057-1.041-1.057-1.819v-45.358c0-1.155,0.942-2.098,2.106-2.098h53.88        C233.128,232.223,234.07,233.166,234.07,234.321z" fill="#00d5fe" data-original="#00d5fe"></path>
						<g style="opacity:0.25;">
							<polygon style="" points="215.729,232.22 175.989,258.89 175.989,250.094 202.625,232.22        " fill="#4217a6" data-original="#4217a6"></polygon>
							<path style="" d="M234.071,234.322v8.91l-57.026,38.27c-0.632-0.365-1.056-1.046-1.056-1.824v-12.401         l52.233-35.057h3.747C233.129,232.22,234.071,233.162,234.071,234.322z" fill="#4217a6" data-original="#4217a6"></path>
							<polygon style="" points="234.071,254.658 234.071,261.847 204.373,281.779 193.65,281.779        " fill="#4217a6" data-original="#4217a6"></polygon>
						</g>
						<path style="" d="M183.694,238.629c2.314-0.308,4.629-0.471,6.944-0.583c2.315-0.121,4.629-0.156,6.944-0.174        c2.315,0.009,4.629,0.037,6.944,0.151c2.314,0.104,4.629,0.261,6.944,0.564c0.397,0.052,0.677,0.416,0.625,0.814        c-0.044,0.333-0.307,0.584-0.625,0.625c-2.314,0.303-4.629,0.459-6.944,0.564c-2.315,0.113-4.629,0.141-6.944,0.15        c-2.315-0.018-4.629-0.053-6.944-0.174c-2.314-0.112-4.629-0.275-6.944-0.583c-0.374-0.05-0.636-0.393-0.587-0.767        C183.149,238.903,183.395,238.668,183.694,238.629z" fill="#ffffff" data-original="#ffffff"></path>
						<path style="opacity:0.25;" d="M234.07,234.321v45.358c0,1.154-0.944,2.098-2.098,2.098h-53.88        c-0.385,0-0.737-0.098-1.049-0.279c-0.631-0.361-1.057-1.041-1.057-1.819l0,0c0-2.44,1.977-4.417,4.417-4.417h42.976        c2.076,0,3.758-1.683,3.758-3.758v-34.446c0-2.67,2.165-4.835,4.835-4.835l0,0C233.126,232.223,234.07,233.167,234.07,234.321        z" fill="#4217a6" data-original="#4217a6"></path>
					</g>
					<path style="" d="M231.972,282.514h-53.88c-0.509,0-0.986-0.127-1.419-0.378       c-0.877-0.502-1.424-1.444-1.424-2.457v-45.358c0-1.563,1.275-2.835,2.843-2.835h53.88c1.563,0,2.835,1.272,2.835,2.835v45.358       C234.807,281.242,233.535,282.514,231.972,282.514z M178.092,232.961c-0.755,0-1.368,0.61-1.368,1.36v45.358       c0,0.485,0.262,0.937,0.685,1.179c0.209,0.121,0.438,0.181,0.683,0.181h53.88c0.75,0,1.36-0.61,1.36-1.36v-45.358       c0-0.75-0.61-1.36-1.36-1.36H178.092z" fill="#000e3f" data-original="#000e3f" class=""></path>
				</g>
				<g>
					<rect x="203.153" y="249.744" style="" width="3.753" height="32.033" fill="#fc09b2" data-original="#fc09b2"></rect>
					<path style="" d="M206.907,282.514h-3.753c-0.407,0-0.737-0.33-0.737-0.737v-32.033       c0-0.407,0.33-0.737,0.737-0.737h3.753c0.407,0,0.737,0.33,0.737,0.737v32.033       C207.644,282.184,207.314,282.514,206.907,282.514z M203.891,281.039h2.278v-30.558h-2.278V281.039z" fill="#000e3f" data-original="#000e3f" class=""></path>
				</g>
				<g>
					<rect x="175.988" y="249.744" style="" width="58.084" height="4.081" fill="#fc09b2" data-original="#fc09b2"></rect>
					<path style="" d="M234.072,254.562h-58.084c-0.407,0-0.737-0.33-0.737-0.737v-4.081       c0-0.407,0.33-0.737,0.737-0.737h58.084c0.407,0,0.737,0.33,0.737,0.737v4.081       C234.809,254.232,234.479,254.562,234.072,254.562z M176.725,253.087h56.609v-2.606h-56.609V253.087z" fill="#000e3f" data-original="#000e3f" class=""></path>
				</g>
			</g>
			<g>
				<g>
					<path style="" d="M98.373,286.136h61.202c1.488,0,2.694-1.206,2.694-2.694v-52.885       c0-1.488-1.206-2.694-2.694-2.694H98.373c-1.488,0-2.694,1.206-2.694,2.694v52.885       C95.679,284.93,96.885,286.136,98.373,286.136z" fill="#ffffff" data-original="#ffffff"></path>
					<path style="" d="M159.575,286.874H98.373c-1.892,0-3.432-1.54-3.432-3.432v-52.884       c0-1.892,1.54-3.432,3.432-3.432h61.202c1.892,0,3.432,1.54,3.432,3.432v52.884       C163.007,285.334,161.468,286.874,159.575,286.874z M98.373,228.601c-1.079,0-1.957,0.878-1.957,1.957v52.884       c0,1.079,0.878,1.957,1.957,1.957h61.202c1.079,0,1.957-0.878,1.957-1.957v-52.884c0-1.079-0.878-1.957-1.957-1.957H98.373z" fill="#000e3f" data-original="#000e3f" class=""></path>
				</g>
				<g>
					<g>
						<path style="" d="M158.015,234.321v45.358c0,1.155-0.942,2.098-2.098,2.098h-53.88        c-0.385,0-0.738-0.098-1.049-0.279c-0.631-0.361-1.057-1.041-1.057-1.819v-45.358c0-1.155,0.942-2.098,2.106-2.098h53.88        C157.073,232.223,158.015,233.166,158.015,234.321z" fill="#00d5fe" data-original="#00d5fe"></path>
						<g style="opacity:0.25;">
							<polygon style="" points="139.674,232.22 99.934,258.89 99.934,250.094 126.571,232.22        " fill="#4217a6" data-original="#4217a6"></polygon>
							<path style="" d="M158.016,234.322v8.91l-57.026,38.27c-0.632-0.365-1.057-1.046-1.057-1.824v-12.401         l52.234-35.057h3.747C157.074,232.22,158.016,233.162,158.016,234.322z" fill="#4217a6" data-original="#4217a6"></path>
							<polygon style="" points="158.016,254.658 158.016,261.847 128.319,281.779 117.596,281.779        " fill="#4217a6" data-original="#4217a6"></polygon>
						</g>
						<path style="" d="M107.639,238.629c2.315-0.308,4.629-0.471,6.944-0.583c2.314-0.121,4.629-0.156,6.944-0.174        c2.315,0.009,4.629,0.037,6.944,0.151c2.315,0.104,4.629,0.261,6.944,0.564c0.397,0.052,0.677,0.416,0.625,0.814        c-0.044,0.333-0.307,0.584-0.625,0.625c-2.315,0.303-4.629,0.459-6.944,0.564c-2.315,0.113-4.629,0.141-6.944,0.15        c-2.314-0.018-4.629-0.053-6.944-0.174c-2.315-0.112-4.629-0.275-6.944-0.583c-0.374-0.05-0.636-0.393-0.587-0.767        C107.094,238.903,107.341,238.668,107.639,238.629z" fill="#ffffff" data-original="#ffffff"></path>
						<path style="opacity:0.25;" d="M158.015,234.321v45.358c0,1.154-0.944,2.098-2.098,2.098h-53.88        c-0.385,0-0.738-0.098-1.049-0.279c-0.631-0.361-1.057-1.041-1.057-1.819l0,0c0-2.44,1.977-4.417,4.417-4.417h42.976        c2.076,0,3.758-1.683,3.758-3.758v-34.446c0-2.67,2.165-4.835,4.835-4.835l0,0        C157.071,232.223,158.015,233.167,158.015,234.321z" fill="#4217a6" data-original="#4217a6"></path>
					</g>
					<path style="" d="M155.917,282.514h-53.88c-0.509,0-0.986-0.127-1.419-0.378       c-0.877-0.502-1.424-1.444-1.424-2.457v-45.358c0-1.563,1.276-2.835,2.843-2.835h53.88c1.563,0,2.835,1.272,2.835,2.835v45.358       C158.753,281.242,157.481,282.514,155.917,282.514z M102.037,232.961c-0.755,0-1.368,0.61-1.368,1.36v45.358       c0,0.485,0.262,0.937,0.685,1.179c0.209,0.121,0.437,0.181,0.683,0.181h53.88c0.75,0,1.36-0.61,1.36-1.36v-45.358       c0-0.75-0.61-1.36-1.36-1.36H102.037z" fill="#000e3f" data-original="#000e3f" class=""></path>
				</g>
				<g>
					<rect x="127.099" y="249.744" style="" width="3.753" height="32.033" fill="#fc09b2" data-original="#fc09b2"></rect>
					<path style="" d="M130.852,282.514h-3.753c-0.407,0-0.737-0.33-0.737-0.737v-32.033       c0-0.407,0.33-0.737,0.737-0.737h3.753c0.407,0,0.737,0.33,0.737,0.737v32.033       C131.589,282.184,131.259,282.514,130.852,282.514z M127.836,281.039h2.278v-30.558h-2.278V281.039z" fill="#000e3f" data-original="#000e3f" class=""></path>
				</g>
				<g>
					<rect x="99.933" y="249.744" style="" width="58.084" height="4.081" fill="#fc09b2" data-original="#fc09b2"></rect>
					<path style="" d="M158.017,254.562H99.933c-0.407,0-0.738-0.33-0.738-0.737v-4.081       c0-0.407,0.33-0.737,0.738-0.737h58.084c0.407,0,0.737,0.33,0.737,0.737v4.081       C158.755,254.232,158.425,254.562,158.017,254.562z M100.671,253.087h56.609v-2.606h-56.609V253.087z" fill="#000e3f" data-original="#000e3f" class=""></path>
				</g>
			</g>
		</g>
	</g>
	<g>
		<path style="" d="M466.064,163.516c0.039-1.837,0.072-3.675,0.032-5.513c-0.098-4.561-0.416-9.027-4.143-12.168    c-5.469-4.608-15.595-3.731-18.893,3.08c-0.914,1.888-1.356,3.988-1.505,6.072c-0.029,0.406-0.359,2.599,0.002,2.912    c-2.57-2.228-6.687-1.717-9.451-0.147c-2.074,1.178-3.593,3.226-4.359,5.463c-0.781,2.282-0.634,5.845,0.475,8.014    c1.129,2.207,3.606,2.288,5.733,2.298c2.426,0.01,31.139,0.136,43.072,0.188c1.966,0.009,3.524-1.683,3.329-3.638    C479.188,158.375,466.064,163.516,466.064,163.516z" fill="#00d5fe" data-original="#00d5fe"></path>
		<path style="" d="M65.234,160.547c-2.763-1.57-6.88-2.082-9.451,0.145c0.36-0.312,0.031-2.505,0.002-2.911    c-0.148-2.084-0.59-4.184-1.504-6.072c-3.297-6.811-13.423-7.69-18.892-3.082c-3.728,3.141-4.046,7.606-4.145,12.167    c-0.04,1.837-0.007,3.676,0.032,5.513c0,0-13.123-5.143-14.294,6.557c-0.196,1.956,1.363,3.647,3.328,3.639    c11.933-0.05,40.646-0.171,43.072-0.182c2.127-0.009,4.604-0.089,5.733-2.296c1.11-2.169,1.257-5.731,0.476-8.014    C68.827,163.774,67.308,161.726,65.234,160.547z" fill="#00d5fe" data-original="#00d5fe"></path>
		<path style="" d="M281.85,123.224c-0.916-0.081-4.05,0.24-4.264,1.533c0.612-3.7-1.955-7.652-5.584-8.599    c-3.63-0.947-7.8,1.249-9.073,4.777c0.422-5.229-2.857-10.549-7.718-12.521c-4.861-1.972-10.92-0.441-14.26,3.604    c-3.34,4.045-3.698,10.284-0.842,14.685l1.441,1.08c-3.571-0.739-8.398-0.986-10.069,3.132c-1.204,2.969-0.371,5.253,2.188,6.328    c3.594,1.509,34.848,0.463,45.546,0.071c1.78-0.065,3.593-0.143,5.266-0.752c1.674-0.609,3.216-1.843,3.741-3.545    C289.652,128.388,286.305,123.618,281.85,123.224z" fill="#00d5fe" data-original="#00d5fe"></path>
	</g>
	<g>
		<path style="" d="M394.34,165.548L394.34,165.548c-2.066-1.042-4.483-1.493-6.286-1.686    c-0.24-2.972-0.815-5.5-1.709-7.519c-0.187-0.423-0.592-0.684-1.055-0.684c-0.001,0-0.001,0-0.001,0    c-0.463,0-0.866,0.262-1.053,0.685c-0.892,2.014-1.466,4.538-1.708,7.506c-1.797,0.186-4.205,0.627-6.262,1.663    c-0.41,0.205-0.665,0.62-0.666,1.082c0,0.459,0.255,0.873,0.665,1.078c1.665,0.839,3.821,1.41,6.255,1.663    c0.201,2.154,1.006,7.525,2.288,8.092c0.155,0.069,0.319,0.103,0.483,0.103c0.146,0,0.291-0.027,0.43-0.081    c0.298-0.115,0.533-0.339,0.661-0.631c0.89-2.013,1.456-4.532,1.685-7.495c1.798-0.194,4.21-0.645,6.273-1.685    c0.222-0.112,0.406-0.296,0.518-0.518C395.147,166.543,394.915,165.839,394.34,165.548z" fill="#fd8a02" data-original="#fd8a02"></path>
		<path style="" d="M203.774,143.35c-2.067-1.042-4.484-1.493-6.285-1.687c-0.241-2.971-0.815-5.499-1.709-7.518    c-0.188-0.422-0.593-0.685-1.056-0.685c0,0,0,0-0.001,0c-0.463,0-0.866,0.264-1.054,0.686c-0.892,2.014-1.466,4.538-1.707,7.505    c-1.795,0.185-4.202,0.626-6.263,1.663c-0.41,0.205-0.665,0.62-0.665,1.081c0,0.459,0.255,0.872,0.665,1.079    c1.667,0.839,3.822,1.41,6.254,1.662c0.202,2.154,1.007,7.524,2.289,8.092c0.154,0.068,0.318,0.102,0.481,0.102    c0.145,0,0.292-0.027,0.432-0.081c0.297-0.115,0.531-0.339,0.66-0.63c0.89-2.014,1.457-4.534,1.684-7.496    c1.799-0.194,4.211-0.645,6.274-1.686c0.225-0.113,0.404-0.292,0.517-0.518C204.58,144.345,204.348,143.641,203.774,143.35z" fill="#fd8a02" data-original="#fd8a02"></path>
		<path style="" d="M344.12,110.792L344.12,110.792c-1.693-0.854-3.665-1.232-5.154-1.397    c-0.203-2.434-0.678-4.508-1.415-6.171c-0.171-0.384-0.537-0.621-0.958-0.621c0,0-0.001,0-0.001,0    c-0.42,0-0.786,0.239-0.956,0.623c-0.734,1.657-1.209,3.728-1.413,6.16c-1.486,0.159-3.45,0.527-5.135,1.376    c-0.37,0.187-0.6,0.56-0.601,0.976c0,0.415,0.229,0.789,0.601,0.976c1.369,0.689,3.136,1.162,5.131,1.377    c0.168,1.662,0.801,6.188,1.939,6.691c0.142,0.063,0.29,0.092,0.435,0.092c0.414,0,0.811-0.24,0.989-0.642    c0.732-1.657,1.2-3.726,1.395-6.154c1.487-0.165,3.452-0.542,5.141-1.394c0.202-0.099,0.369-0.267,0.471-0.47    C344.851,111.694,344.641,111.056,344.12,110.792z" fill="#fd8a02" data-original="#fd8a02"></path>
		<path style="" d="M42.618,115.181L42.618,115.181c-1.693-0.854-3.665-1.231-5.154-1.397    c-0.203-2.434-0.678-4.508-1.415-6.171c-0.17-0.384-0.537-0.621-0.958-0.621c0,0-0.001,0-0.001,0c-0.42,0-0.786,0.239-0.956,0.623    c-0.734,1.657-1.209,3.728-1.413,6.16c-1.486,0.159-3.45,0.528-5.135,1.376c-0.37,0.187-0.601,0.56-0.601,0.976    c0,0.415,0.229,0.789,0.601,0.976c1.369,0.689,3.136,1.162,5.131,1.377c0.168,1.663,0.801,6.188,1.939,6.692    c0.142,0.063,0.29,0.092,0.435,0.092c0.414,0,0.811-0.24,0.989-0.642c0.732-1.657,1.2-3.726,1.395-6.154    c1.487-0.165,3.453-0.542,5.141-1.394c0.202-0.099,0.369-0.267,0.471-0.47C43.349,116.083,43.139,115.445,42.618,115.181z" fill="#fd8a02" data-original="#fd8a02"></path>
		<path style="" d="M484.187,114.476L484.187,114.476c-1.693-0.854-3.665-1.231-5.154-1.397    c-0.203-2.434-0.678-4.508-1.415-6.171c-0.171-0.384-0.537-0.621-0.958-0.621c-0.001,0-0.001,0-0.001,0    c-0.42,0-0.786,0.239-0.956,0.623c-0.735,1.657-1.21,3.728-1.414,6.16c-1.486,0.159-3.45,0.528-5.135,1.376    c-0.37,0.186-0.601,0.56-0.601,0.976c0,0.415,0.229,0.789,0.601,0.976c1.369,0.689,3.136,1.162,5.131,1.377    c0.168,1.662,0.801,6.188,1.939,6.691c0.142,0.063,0.29,0.092,0.435,0.092c0.414,0,0.811-0.24,0.989-0.642    c0.732-1.657,1.2-3.726,1.395-6.154c1.487-0.165,3.452-0.542,5.141-1.394c0.202-0.099,0.369-0.267,0.471-0.47    C484.918,115.378,484.708,114.74,484.187,114.476z" fill="#fd8a02" data-original="#fd8a02"></path>
	</g>
	<g>
		<path style="" d="M86.113,142.287c0.003,0.031,0.034,0.029,0.037,0.059c0.019,1.969,0.374,4.563,0.557,4.86    c0.51,0.11,2.75-0.37,3.755,0.041l0.034,0.028c1.526,11.526,1.561,16.151,1.687,16.515c1.466-0.381,3.57-0.287,5.068-0.671    l-0.003-0.03l-0.003-0.031c-1.453-13.533-1.686-15.795-1.615-16.395c-0.002-0.032,0.026-0.066,0.023-0.096l0.031-0.003    l0.062-0.006c1.946-0.266,2.995-0.423,3.785-0.336c0.085-1.508-0.089-3.463-0.303-4.819    C94.937,141.315,90.329,141.881,86.113,142.287z" fill="#000e3f" data-original="#000e3f" class=""></path>
		<path style="" d="M113.638,146.04c-0.115-0.651-0.262-1.3-0.562-1.913c-0.273-0.708-0.729-1.348-1.339-1.857    c-2.457-1.757-6.318-1.692-9.014-0.263c-0.275,0.165-0.487,0.358-0.697,0.583c-1.228,1.505-1.505,3.509-1.475,5.377    c-0.109,3.276,0.247,6.536,0.479,9.769c0.071,1.213,0.236,2.423,0.861,3.43c0.802,1.625,2.464,1.944,4.18,2.044    c1.218,0.053,2.398-0.048,3.538-0.428c1.265-0.385,2.461-0.985,3.144-2.005c0.707-1.239,0.999-2.775,1.044-4.241l0.059-1.03    c0.085-2.153-0.106-4.172-0.054-6.386C113.799,148.091,113.766,147.065,113.638,146.04z M110.036,154.945    c-0.095,1.811,0.216,1.802-0.528,2.854c-1.229,1.474-3.849,1.373-4.714-0.25c-0.45-1.357-0.47-2.913-0.736-4.369    c-0.151-1.74-0.178-3.515,0.112-5.114c0.22-0.88,0.694-1.612,1.392-2.196c0.637-0.52,1.561-0.831,2.414-0.515    c0.98,0.435,1.574,1.443,1.705,2.592c0.055,0.714,0.182,1.739,0.184,1.769l0.132,2.115l0.049,1.494    C110.049,153.419,110.04,154.105,110.036,154.945z" fill="#000e3f" data-original="#000e3f" class=""></path>
		<path style="" d="M129.235,141.191c-1.128,0.092-2.201,0.313-3.081,0.98c-1.26,0.771-1.741,2.117-2.037,3.473    c-0.292,1.324-0.434,2.72-0.539,4.056c-0.267,3.073-0.19,4.481-0.09,7.138c0.046,0.845,0.153,1.725,0.25,2.198    c0.398,1.8,1.108,3.026,2.717,3.833c1.943,0.951,4.519,0.629,6.604,0.154c1.62-0.501,2.826-1.432,3.163-3.534    c0.53-2.216,0.52-4.806,0.396-7.027l-0.03-0.033l-0.063-0.004c-0.839-0.046-5.287-0.827-6.381-0.234    c-0.034,0.029-0.064,0.027-0.064,0.027c-0.032-0.002-0.032-0.002-0.033,0.029l-0.002,0.031c0.075,1.44-0.14,1.926-0.06,3.272    c0.396,0.178,1.806,0.071,2.298,0.192c0.244,0.107-0.023,1.527-0.136,1.864c-0.189,0.582-0.549,0.873-1.027,1.065    c-0.603,0.184-1.326,0.299-1.944,0.171c-0.276-0.078-0.519-0.186-0.699-0.32c-0.743-0.666-0.828-1.919-0.871-2.825    c-0.073-3.124,0.268-6.973,0.972-8.929c0.113-0.336,0.29-0.733,0.389-0.82c0.525-0.47,1.203-0.306,1.916-0.235    c1.213,0.068,1.768,1.846,1.97,2.7c1.234,0.225,1.704,0.189,2.917,0.258c0.655,0.005,0.902,0.05,1.003-0.068l0.041-0.185    C137.689,143.382,133.901,140.861,129.235,141.191z" fill="#000e3f" data-original="#000e3f" class=""></path>
		<path style="" d="M152.558,146.688c-0.165-0.74-0.521-1.441-1.047-2.035c-2.168-2.104-5.997-2.615-8.875-1.603    c-0.296,0.123-0.535,0.283-0.777,0.474c-1.438,1.306-2.011,3.246-2.259,5.097c-0.596,3.223-0.729,6.5-0.982,9.731    c-0.11,1.21-0.128,2.43,0.341,3.52c0.55,1.726,2.146,2.289,3.83,2.643c1.195,0.234,2.378,0.309,3.562,0.103    c1.308-0.192,2.58-0.608,3.407-1.514c0.884-1.12,1.401-2.596,1.664-4.039l0.213-1.01c0.404-2.116,0.516-4.141,0.896-6.323    c0.151-1.017,0.27-2.038,0.297-3.07C152.812,148.004,152.764,147.34,152.558,146.688z M148.549,151.738l-0.185,2.111l-0.173,1.486    c-0.011,0.092-0.122,0.769-0.251,1.601c-0.364,1.777-0.055,1.813-0.948,2.742c-1.435,1.275-4.011,0.785-4.624-0.948    c-0.243-1.409-0.03-2.952-0.077-4.43c0.109-1.743,0.347-3.503,0.872-5.04c0.349-0.838,0.927-1.491,1.704-1.965    c0.707-0.419,1.667-0.589,2.462-0.151c0.905,0.576,1.342,1.663,1.301,2.818C148.58,150.676,148.552,151.708,148.549,151.738z" fill="#000e3f" data-original="#000e3f" class=""></path>
		<path style="" d="M153.414,161.769l-0.005,0.03c-0.182,1.138-0.947,3.538-0.67,3.582l2.31,0.34l0.062,0.01    c0.461,0.074,0.67,0.139,1.163,0.218l0.215,0.035c0.194-1.199,0.472-2.542,0.685-3.675    C155.976,162.118,154.462,161.527,153.414,161.769z" fill="#000e3f" data-original="#000e3f" class=""></path>
		<path style="" d="M156.11,143.816c-1.236,5.54-1.758,10.944-2.72,16.34l0.03,0.005    c1.203,0.163,2.895,0.434,3.99,0.484c0.6-5.296,1.645-11.026,2.583-16.268c-1.084-0.521-2.701-0.466-3.792-0.546L156.11,143.816z" fill="#000e3f" data-original="#000e3f" class=""></path>
		<path style="" d="M88.247,128.778c0.395-0.128,4.023-0.098,5.368-0.809c-0.231-1.574-0.899-5.673-0.812-7.556    l0.07,0.088c1.957,2.018,4.017,5.59,4.988,7.413l0.031-0.003c1.872-0.037,3.685-0.383,5.143-0.509l-0.031,0.002    c-1.536-3.304-4.33-5.969-6.334-8.888l-0.002-0.032l0.031-0.002l0.124-0.011c1.975-0.296,3.152-1.493,3.799-3.048    c2.201-4.535-1.428-9.628-6.352-9.45c-3.038-0.081-5.823,0.599-8.121,1.141C86.64,109.165,88.495,128.756,88.247,128.778z     M94.941,110.82c1.225,0.799,1.317,3.291-0.236,3.77c-0.979,0.242-2.163,0.282-3.133,0.272l-0.031,0.003    c-0.237-0.918-0.302-2.756-0.487-3.803C92.462,110.348,93.968,110.06,94.941,110.82z" fill="#000e3f" data-original="#000e3f" class=""></path>
		<path style="" d="M116.951,122.915c-2.831,0.163-5.421-0.022-8.161,0.046l-0.032-0.031    c-0.118-0.994-0.284-2.672-0.096-3.892c0.427-0.353,2.49-0.062,3.759-0.435c-0.068-1.524,0.083-2.931-0.169-4.326l-0.001-0.031    c-1.277,0.001-2.584,0.065-3.832,0.002l-0.032-0.031c-0.307-1.114-0.059-2.428-0.121-3.642l0.031-0.032l0.093-0.002    c2.733-0.317,5.516,0.082,8.148-0.575l-0.001-0.031c-0.037-1.464,0.145-2.963-0.109-4.421c-0.005-0.187-8.065,0.137-12.885,0.505    c-0.229,7.14,0.316,14.073,0.495,21.297c4.025,0.243,8.531-0.179,12.766-0.253c0.312-1.253,0.275-2.748,0.148-4.084    L116.951,122.915z" fill="#000e3f" data-original="#000e3f" class=""></path>
		<path style="" d="M126.204,122.229c0.518,1.233,0.836,3.768,1.287,5.123l0.032,0.001    c1.328,0.327,2.912,0.474,4.165,0.269l0.001-0.032l-1.958-10.971c-0.425-2.102-1.853-9.472-2.17-11.103    c-2.747,0.154-3.238-0.05-3.833,0.023c-3.331,9.855-5.233,20.722-5.511,21.554c0.03,0.032,0.03,0.032,0.061,0.034    c2.833,0.066,4.01,0.262,4.355,0.181c0.031,0.001,0.064-0.028,0.094-0.027c0.764-1.345,0.944-3.862,1.549-5.149    C125.209,122.164,125.151,122.038,126.204,122.229z M126.487,118.532c-0.777-0.026-1.587-0.023-2.301-0.079    C125.277,112.104,125.613,107.755,126.487,118.532z" fill="#000e3f" data-original="#000e3f" class=""></path>
		<path style="" d="M133.582,127.707c2.605,0.242,5.426,0.503,8.164,0.663c1.762-1.808,3.482-3.837,4.546-6.209    c0.004-0.031,0.034-0.028,0.037-0.059c0.547-1.857,0.7-3.845,0.974-5.79c0.029-0.654,0.059-1.308-0.097-1.979    c-0.221-1.678-0.669-3.251-1.439-4.73c-0.633-1.278-1.837-2.454-3.139-2.918c-2.396-0.128-5.091-0.753-7.503-0.382    c-0.033,0.028-0.07,0.087-0.103,0.115c-0.511,7.209-1.766,14.692-1.473,21.318L133.582,127.707z M138.833,113.213l0.012-0.123    l0.031,0.002l0.062,0.006c0.758-0.086,1.624,0.025,2.328,0.184c1.349,0.625,1.578,2.209,1.708,3.504    c0.201,1.551-0.289,2.787-1.102,3.808c-0.283,0.348-0.628,0.691-1.054,0.903c-0.225,0.073-0.361,0.186-0.575,0.134    c-0.753,0.024-1.663,0.065-2.091-0.381C138.255,118.445,138.783,115.461,138.833,113.213z" fill="#000e3f" data-original="#000e3f" class=""></path>
		<path style="" d="M161.237,109.302c-1.078-0.158-2.504-0.305-3.267-0.26c-0.985,1.555-2.43,4.961-3.48,6.317    c-0.512-1.648-1.246-5.219-1.378-7.095c-0.43-0.284-0.919-0.387-1.412-0.46c-0.893-0.131-1.844-0.083-2.677-0.205    c0.319,3.604,1.955,7.463,2.317,11.199l-0.01,0.062c-1.977,3.391-4.036,6.897-5.604,10.065l0.061,0.01    c0.242,0.066,0.488,0.102,0.735,0.139c0.955,0.14,2.047,0.206,2.909,0.334c0.278,0.041,0.524,0.077,0.766,0.144    c3.531-6.877,8.832-12.957,12.196-19.984l0.004-0.031C162.157,109.47,161.73,109.375,161.237,109.302z" fill="#000e3f" data-original="#000e3f" class=""></path>
	</g>
</g>















</g></svg>