<svg xmlns="http://www.w3.org/2000/svg" version="1.1" xmlns:xlink="http://www.w3.org/1999/xlink" xmlns:svgjs="http://svgjs.com/svgjs" width="512" height="512" x="0" y="0" viewBox="0 0 512 512" style="enable-background:new 0 0 512 512" xml:space="preserve" class=""><g>
<g>
	<g>
		<g>
			<g>
				<path style="" d="M167.349,304.166c2.563-5.247,2.579-7.66,3.791-7.768c2.074-0.185-4.507,12.927-1.004,27.419      c0.644,2.663,2.046,5.001,3.655,7.185c7.084,9.619,18.895,17.021,29.661,22.087c19.874,9.352,57.11,21.161,79.844,24.448      c11.994,1.735,24.208,1.968,35.733-1.917c12.868-4.337,18.16-21.751,20.583-26.525c4.479-8.826-8.42,54.246-29.245,74.055      c-21.458,20.412-73.268,3.616-101.213-5.968c-9.145-3.136-18.01-6.959-26.464-11.683c-28.83-16.108-34.959-28.889-25.785-69.129      C158.302,330.245,164.134,310.747,167.349,304.166z" fill="#ff8ede" data-original="#ff8ede"></path>
				<path style="" d="M201.803,279.398c0.425-2.517,2.281-8.674,2.317-8.783c1.957-5.998,3.173-12.202,5.116-18.209      c8.314-25.708,6.967-26.137,10.712-36.042c1.081-2.86,21.608-67.927,30.466-87.666c0.502-1.119,0.651-1.314,1.82-1.204      c7.562,0.711,19.342,2.404,26.669,4.167c2.196,0.529,1.844,0.199-4.699,15.523c-20.095,47.063-45.24,126.382-48.323,142.228      c-0.693,3.561-1.881,6.957-2.838,10.424c-2.207,7.991-10.024,15.934-15.254,18.167c-4.811,2.054-6.981-1.901-8.42-6.913      c-2.569-8.948-1.954-14.035-1.535-17.002C198.26,291.061,201.353,282.06,201.803,279.398z" fill="#ff8ede" data-original="#ff8ede"></path>
				<path style="" d="M317.781,335.1c-2.407,4.278-7.725,8.545-9.73,10.323c-1.18,1.047-2.568,1.768-3.989,2.403      c-8.808,3.937-12.184-17.631-7.595-28.114c0.46-1.051,26.649-73.212,42.656-151.397c3.366-16.441,2.67-17.259,4.608-16.69      c3.738,1.098,17.935,7.985,23.334,10.926c2.773,1.51,2.882,1.165,1.986,4.548c-0.943,3.559-1.793,7.145-2.662,10.72      c-4.255,17.506-7.857,29.448-8.622,33.009C354.619,225.486,324.171,323.741,317.781,335.1z" fill="#ff8ede" data-original="#ff8ede"></path>
				<path style="" d="M395.39,178.656c-1.995,3.629-0.865-1.345-21.652-13.528c-4.182-2.458-3.731-0.792,1.364-12.649      c0.406-0.953,0.792-1.912,1.137-2.883c0.039-0.055,0.052-0.096,0.071-0.158c1.683-4.511,2.957-9.148,4.285-13.746      c2.435-8.478,0.302-9.204,4.607-7.876c2.365,0.707,17.983,5.547,18.086,5.579c3.035,0.936,3.244,0.911,3.2,2.873      c-0.134,5.46-1.046,11.692-2.447,17.907c-0.037,0.191-0.094,0.375-0.13,0.566C401.828,163.754,398.688,172.621,395.39,178.656z" fill="#ff8ede" data-original="#ff8ede"></path>
				<path style="" d="M249.234,85.865c12.06,3.72,12.398,3.244,11.201,5.653c-1.647,3.314-2.447,6.935-3.976,10.296      c-0.973,2.14-1.617,4.45-1.967,6.826c-0.384,2.606-0.662,0.548-3.409,15.571c-0.091,0.497,0.07,1.934-1.347,1.965      c-0.452,0.01-11.292-1.189-23.06,0.006c-4.345,0.441-5.473,1.54-5.259-1.039c0.754-9.091,5.937-27.316,14.63-41.382      c1.285-2.078,0.598-1.777,13.186,2.105C249.234,85.866,249.234,85.866,249.234,85.865z" fill="#ff8ede" data-original="#ff8ede"></path>
			</g>
			<g>
				<path style="" d="M378.167,125.642c2.757,0.853,3.394,0.495,2.543,4.198c-0.532,2.315-1.25,4.591-1.664,6.917      c-0.42,2.356-0.962,4.672-1.823,6.875c-1.429,3.656-2.509,7.443-4.194,11.004c-6.19,13.082,3.017,7.565-37.105-7.322      c-3.58-1.329-22.62-8.059-26.228-9.063c-51.866-14.431-57.878-9.868-57.56-13.168c0.709-7.337,4.429-19.543,5.204-22.214      c1.029-3.548,2.5-6.93,3.836-10.363c1.158-2.977,1.722-2.426,5.065-1.395C364.118,121.301,362.379,120.76,378.167,125.642z" fill="#ffcf00" data-original="#ffcf00" class=""></path>
				<path style="" d="M421.113,138.989c3.447,1.063,6.876,2.188,10.346,3.172c3.257,0.924,5.625,2.912,7.431,5.691      c13.307,20.485-8.961,61.564-24.623,59.169c-5.153-0.788-6.397-0.334-6.86-2.459c-0.593-2.719-1.091-5.469-2.195-8.052      c-3.277-7.668-5.005-9.631-9.103-14.482c-1.707-2.021,2.085-3.751,5.894-16.776c1.775-6.07,4.184-11.795,5.318-24.924      c0.471-5.446-0.469-5.837,3.478-4.624c3.449,1.059,6.896,2.125,10.344,3.188C421.133,138.924,421.123,138.957,421.113,138.989z" fill="#ffcf00" data-original="#ffcf00" class=""></path>
				<path style="" d="M222.391,77.587c3.76,1.16,7.525,2.3,11.277,3.486c2.07,0.654,2.224,1.052,1.034,2.949      c-4.671,7.441-9.225,17.569-12.085,28.894c-4.108,16.266-0.367,13.587-5.967,15.084c-7.735,2.067-14.631,6.269-19.675,11.55      c-1.439,1.507-2.205,0.673-7.266-1.825c-11.994-5.921-11.217-43.852,7.766-59.424c3.956-3.245,9.513-5.398,13.848-4.031      c3.673,1.158,7.359,2.278,11.039,3.414C222.371,77.652,222.381,77.619,222.391,77.587z" fill="#ffcf00" data-original="#ffcf00" class=""></path>
			</g>
			<g>
				<path style="" d="M233.991,81.185c-0.108-0.037-0.201-0.073-0.323-0.112c-3.276-1.036-6.563-2.035-9.848-3.045      c-1.041,0.562-1.977,1.347-2.679,2.399c-0.881,1.322-1.277,2.821-1.247,4.297c0.049,2.362,1.204,4.664,3.319,6.075      c2.304,1.537,5.137,1.596,7.454,0.453c1.231-2.45,2.5-4.737,3.786-6.814c0.083-0.135,0.165-0.283,0.249-0.416      c0.029-0.047,0.048-0.082,0.075-0.127C234.689,82.951,234.425,82.036,233.991,81.185z" fill="#fd8a02" data-original="#fd8a02"></path>
				<path style="" d="M210.254,111.641c-1.321-0.881-2.82-1.277-4.296-1.247c-2.363,0.049-4.665,1.204-6.076,3.319      c-2.291,3.436-1.364,8.08,2.072,10.372c1.322,0.882,2.821,1.277,4.297,1.247c2.362-0.049,4.664-1.204,6.075-3.318      C214.618,118.577,213.69,113.933,210.254,111.641z" fill="#fd8a02" data-original="#fd8a02"></path>
				<path style="" d="M221.571,102.331c-2.098,3.146-1.471,7.284,1.283,9.722c1.195-4.571,2.663-8.926,4.298-12.99      C224.967,99.254,222.882,100.365,221.571,102.331z" fill="#fd8a02" data-original="#fd8a02"></path>
				<path style="" d="M209.824,89.738c-1.321-0.882-2.82-1.277-4.296-1.247c-2.363,0.049-4.665,1.203-6.076,3.318      c-2.291,3.436-1.364,8.08,2.072,10.372c1.322,0.881,2.821,1.277,4.297,1.246c2.362-0.049,4.664-1.203,6.075-3.318      C214.188,96.673,213.26,92.029,209.824,89.738z" fill="#fd8a02" data-original="#fd8a02"></path>
				<path style="" d="M201.094,80.278c1.322,0.882,2.821,1.277,4.297,1.247c2.362-0.049,4.664-1.204,6.075-3.318      c0.727-1.09,1.095-2.302,1.197-3.521c-0.447-0.14-0.895-0.274-1.341-0.414c-1.872-0.59-3.972-0.495-6.073,0.032      c-2.316,0.581-4.621,1.706-6.633,3.146C199.178,78.55,199.992,79.542,201.094,80.278z" fill="#fd8a02" data-original="#fd8a02"></path>
				<path style="" d="M188.565,123.023c-1.996-1.332-4.393-1.547-6.507-0.843c0.291,2.58,0.794,4.967,1.493,7.082      c0.942,2.849,2.242,5.193,3.885,6.806c1.257-0.555,2.382-1.447,3.2-2.673c0.882-1.322,1.277-2.821,1.247-4.297      C191.835,126.736,190.68,124.434,188.565,123.023z" fill="#fd8a02" data-original="#fd8a02"></path>
				<path style="" d="M188.135,101.119c-1.216-0.811-2.583-1.199-3.943-1.235c-1.425,4.851-2.204,9.847-2.388,14.576      c3.077,0.943,6.527-0.153,8.404-2.968C192.499,108.055,191.571,103.411,188.135,101.119z" fill="#fd8a02" data-original="#fd8a02"></path>
				<path style="" d="M375.542,132.176c-2.283,3.423-1.368,8.041,2.035,10.342c0.636-1.869,1.118-3.793,1.468-5.761      c0.414-2.326,1.132-4.603,1.663-6.918c0.08-0.347,0.133-0.627,0.187-0.908C378.795,129.18,376.808,130.279,375.542,132.176z" fill="#fd8a02" data-original="#fd8a02"></path>
				<path style="" d="M364.225,141.487c-3.436-2.292-8.079-1.364-10.372,2.072c-2.291,3.436-1.364,8.08,2.072,10.372      c3.436,2.292,8.079,1.365,10.372-2.072C368.589,148.423,367.662,143.779,364.225,141.487z" fill="#fd8a02" data-original="#fd8a02"></path>
				<path style="" d="M342.107,130.965c-1.321-0.881-2.82-1.277-4.296-1.247c-2.362,0.048-4.665,1.203-6.076,3.318      c-2.291,3.436-1.364,8.08,2.072,10.372c1.321,0.882,2.821,1.277,4.297,1.247c2.362-0.049,4.664-1.203,6.075-3.318      C346.47,137.901,345.543,133.257,342.107,130.965z" fill="#fd8a02" data-original="#fd8a02"></path>
				<path style="" d="M355.496,132.027c3.436,2.292,8.079,1.365,10.372-2.072c0.881-1.322,1.277-2.821,1.247-4.297      c-0.027-1.33-0.415-2.634-1.121-3.778c-2.522-0.779-5.476-1.69-9.379-2.894c-1.252,0.556-2.375,1.445-3.191,2.669      c-0.881,1.322-1.277,2.821-1.247,4.297C352.225,128.314,353.38,130.616,355.496,132.027z" fill="#fd8a02" data-original="#fd8a02"></path>
				<path style="" d="M333.377,121.505c1.321,0.882,2.821,1.277,4.297,1.247c2.362-0.049,4.664-1.203,6.075-3.318      c0.829-1.242,1.223-2.642,1.244-4.033c-2.28-0.703-4.773-1.472-7.508-2.316c-1.94-0.598-4.005-1.235-6.201-1.912      C329.024,114.605,329.953,119.221,333.377,121.505z" fill="#fd8a02" data-original="#fd8a02"></path>
				<path style="" d="M319.988,120.443c-3.436-2.291-8.079-1.364-10.372,2.072c-0.881,1.322-1.277,2.821-1.247,4.297      c0.05,2.362,1.205,4.665,3.319,6.075c3.436,2.292,8.081,1.364,10.372-2.072c0.881-1.322,1.276-2.821,1.247-4.297      C323.258,124.156,322.103,121.854,319.988,120.443z" fill="#fd8a02" data-original="#fd8a02"></path>
				<path style="" d="M297.869,109.921c-1.322-0.881-2.821-1.277-4.297-1.247c-2.362,0.049-4.665,1.204-6.076,3.319      c-2.292,3.436-1.364,8.08,2.072,10.372c1.322,0.882,2.821,1.277,4.297,1.247c2.362-0.049,4.665-1.204,6.075-3.318      C302.233,116.857,301.306,112.213,297.869,109.921z" fill="#fd8a02" data-original="#fd8a02"></path>
				<path style="" d="M311.258,110.983c3.436,2.291,8.081,1.364,10.372-2.072c0.131-0.197,0.216-0.411,0.326-0.615      c-4.232-1.305-8.864-2.734-13.955-4.304C307.727,106.661,308.869,109.39,311.258,110.983z" fill="#fd8a02" data-original="#fd8a02"></path>
				<path style="" d="M298.299,131.825c-1.321-0.881-2.821-1.277-4.297-1.247c-1.924,0.039-3.8,0.819-5.195,2.25      c1.671,0.398,3.441,0.833,5.265,1.289c2.289,0.572,4.689,1.188,7.228,1.859C300.828,134.338,299.828,132.844,298.299,131.825z" fill="#fd8a02" data-original="#fd8a02"></path>
				<path style="" d="M276.18,121.303c-3.436-2.291-8.08-1.364-10.372,2.072c-0.882,1.322-1.277,2.821-1.247,4.297      c0.002,0.097,0.024,0.192,0.029,0.289c3.639,0.556,8.297,1.369,14.241,2.621c0.464-1.029,0.689-2.119,0.667-3.203      C279.45,125.016,278.295,122.714,276.18,121.303z" fill="#fd8a02" data-original="#fd8a02"></path>
				<path style="" d="M252.255,124.073c1.529-0.505,2.916-1.476,3.879-2.919c2.084-3.125,1.483-7.227-1.223-9.673      C253.83,115.583,252.722,120.317,252.255,124.073z" fill="#fd8a02" data-original="#fd8a02"></path>
				<path style="" d="M289.139,100.461c1.322,0.881,2.821,1.277,4.297,1.246c1.296-0.026,2.564-0.401,3.686-1.072      c-1.221-0.376-2.464-0.76-3.729-1.15c-2.221-0.685-4.508-1.391-6.871-2.12C287.079,98.578,287.947,99.666,289.139,100.461z" fill="#fd8a02" data-original="#fd8a02"></path>
				<path style="" d="M275.75,99.399c-3.436-2.292-8.08-1.364-10.372,2.072c-2.292,3.436-1.365,8.08,2.072,10.372      c3.436,2.291,8.08,1.364,10.372-2.072C280.114,106.335,279.187,101.691,275.75,99.399z" fill="#fd8a02" data-original="#fd8a02"></path>
				<path style="" d="M430.151,151.149c-1.321-0.882-2.82-1.277-4.296-1.247c-2.362,0.048-4.665,1.203-6.075,3.318      c-2.293,3.436-1.365,8.08,2.071,10.372c1.322,0.882,2.821,1.277,4.297,1.247c2.362-0.049,4.665-1.204,6.075-3.319      C434.516,158.084,433.588,153.441,430.151,151.149z" fill="#fd8a02" data-original="#fd8a02"></path>
				<path style="" d="M426.716,193.709c-2.362,0.049-4.665,1.203-6.075,3.319c-1.822,2.732-1.581,6.209,0.31,8.679      c1.984-0.986,3.978-2.452,5.916-4.314c1.715-1.648,3.379-3.599,4.953-5.773c-0.259-0.231-0.51-0.467-0.807-0.664      C429.69,194.074,428.191,193.679,426.716,193.709z" fill="#fd8a02" data-original="#fd8a02"></path>
				<path style="" d="M430.581,173.052c-1.321-0.881-2.82-1.277-4.296-1.247c-2.362,0.049-4.665,1.204-6.075,3.319      c-2.293,3.436-1.365,8.08,2.071,10.372c1.322,0.881,2.821,1.277,4.297,1.246c2.362-0.048,4.665-1.203,6.075-3.318      C434.946,179.988,434.018,175.344,430.581,173.052z" fill="#fd8a02" data-original="#fd8a02"></path>
				<path style="" d="M421.422,141.689c1.322,0.881,2.821,1.277,4.297,1.247c1.434-0.03,2.842-0.468,4.045-1.283      c-1.366-0.405-2.733-0.811-4.095-1.237c-1.518-0.475-3.035-0.956-4.555-1.426c0.01-0.032,0.02-0.065,0.029-0.098      c-0.851-0.262-1.702-0.524-2.551-0.786C419.123,139.517,420.071,140.787,421.422,141.689z" fill="#fd8a02" data-original="#fd8a02"></path>
				<path style="" d="M408.033,140.627c-0.227-0.151-0.471-0.252-0.707-0.375c-0.003,0.028-0.002,0.047-0.005,0.076      c-0.508,5.877-1.272,10.265-2.119,13.87c1.932-0.347,3.728-1.437,4.902-3.199C412.397,147.562,411.47,142.919,408.033,140.627z" fill="#fd8a02" data-original="#fd8a02"></path>
				<path style="" d="M408.894,184.434c-3.15-2.1-7.29-1.47-9.728,1.29c2.169,2.77,3.718,5.339,6.046,10.787      c0.214,0.501,0.389,1.012,0.562,1.524c2.041-0.286,3.959-1.38,5.191-3.229C413.257,191.37,412.33,186.726,408.894,184.434z" fill="#fd8a02" data-original="#fd8a02"></path>
				<path style="" d="M410.535,172.902c0.882-1.322,1.278-2.821,1.247-4.297c-0.049-2.362-1.203-4.665-3.318-6.075      c-1.615-1.077-3.493-1.418-5.271-1.147c-0.413,1.321-0.816,2.589-1.19,3.868c-0.383,1.309-0.764,2.476-1.14,3.568      c-0.691,2.004-1.361,3.668-1.978,5.057c0.38,0.402,0.798,0.777,1.278,1.098C403.599,177.267,408.243,176.339,410.535,172.902z" fill="#fd8a02" data-original="#fd8a02"></path>
			</g>
			<g>
				<path style="" d="M312.658,266.587c-0.832,2.695-0.828,3.116-2.77,2.949c-28.518-2.45-47.655-9.731-68.466-20.992      c-1.168-0.632-2.107-1.12-1.874-2.263c1.015-4.992,15.941-49.404,25.897-74.431c16.58-41.677,15.602-39.879,17.975-39.262      c18.055,4.699,31.291,7.599,56.282,17.347c2.659,1.037,2.071-1.253-4.376,30.97      C331.866,198.195,320.158,242.282,312.658,266.587z" fill="#322bbf" data-original="#322bbf" class=""></path>
				<path style="" d="M290.172,313.275c6.439,1.994,6.361,1.956,5.89,3.724c-1.11,4.165-4.671,11.47-0.935,24.596      c3.529,12.399,10.721,7.929,19.597-1.198c2.832-2.912,4.938-6.3,6.484-10.057c0.685-1.664,1.468-3.282,1.991-5.015      c0.643-2.13,1.436-1.174,11.772,1.787c5.081,1.455,8.15,6.544,6.869,11.692c-1.561,6.273-2.523,6.945-3.676,10.411      c-2.689,8.084-8.154,18.781-15.276,23.53c-4.548,3.032-14.292,4.583-20.134,4.836c-27.75,1.2-57.993-8.629-83.397-19.002      c-38.457-15.703-57.78-24.903-45.631-64.792c0.974-3.197,0.155-4.013,2.555-7.879c2.52-4.059,6.725-5.613,11.014-4.346      c3.065,0.905,6.097,1.927,9.142,2.902c4.561,1.46,0.985,1.316,0.067,13.388c-0.339,4.458,1.617,12.847,3.003,16.352      c2.355,5.958,6.719,6.513,11.299,3.156c6.236-4.572,10.938-10.323,13.41-17.739c1.947-5.84,0.328-6.587,6.486-4.693      C239.366,297.596,281.708,310.654,290.172,313.275z" fill="#322bbf" data-original="#322bbf" class=""></path>
				<path style="" d="M241.601,149.149c-1.116,2.663-11.92,33.946-11.959,34.053      c-5.06,13.951-11.865,37.277-14.157,44.252c-0.27,0.82-0.847,0.925-1.486,0.28c-13.639-13.76-24.515-34.777-28.747-62.136      c-0.463-2.994-0.356-5.736,1.247-8.5c5.084-8.766,11.835-24.855,34.4-29.016c11.451-2.111,25.655-1.293,27.672-0.848      c0.989,0.218,0.562,1.301,0.24,2.335C248.765,129.713,241.642,149.051,241.601,149.149z" fill="#322bbf" data-original="#322bbf" class=""></path>
				<path style="" d="M349.084,244.607c3.13-10.146,19.989-67.626,20.961-77.481c0.008-0.081,0.035-0.16,0.055-0.24      c0.458-1.856,1.059-2.132,2.745-1.132c21.361,12.672,36.316,26.492,33.987,51.287c-0.59,6.28-0.132,9.734-4.289,14.202      c-14.056,15.104-28.984,27.254-48.727,33.741c-1.51,0.496-9.052,2.693-10.428,2.836c-1.861,0.193-1.182-0.567,5.794-23.183      C349.149,244.628,349.116,244.617,349.084,244.607z" fill="#322bbf" data-original="#322bbf" class=""></path>
				<path style="" d="M131.411,259.15c-0.315,9.805,1.284,17.88,2.06,19.975c1.419,3.831-2,5.386-3.438,14.571      c-0.092,0.586-2.876,10.044-3.928,13.202c-0.382,1.15-4.263,16.207-5.947,24.574c-3.238,16.081-2.272,15.874-3.647,17.181      c-1.37-0.184-1.664-1.447-2.266-2.348c-6.099-9.133-12.968-24.099-16.388-39.04c-3.603-15.736-3.461-24.166-3.56-33.407      c-0.013-1.179,0.23-2.332,0.753-3.333c1.854-3.547,7.162-22.668,34.525-40.752c1.07-0.707,4.812-3.135,6.826-3.842      c0.361-0.127,0.86,0.302,0.81,0.693C136.59,231.463,132.082,238.274,131.411,259.15z" fill="#322bbf" data-original="#322bbf" class=""></path>
				<path style="" d="M406.084,315.329c1.625-5.269,1.544-5.475,2.281-5.475c0.469,0,0.694,0.404,0.876,0.763      c9.056,17.87,14.256,42.419,7.895,61.418c-1.104,3.298-10.52,14.878-14.729,19.287c-12.802,13.408-25.853,23.18-45.477,31.606      c-1.049,0.451-1.579-0.193-1.093-1.242c11.402-24.552,12.786-31.463,15.841-39.379c2.997-7.766,7.597-23.513,7.62-23.619      c0.774-3.645,2.981-2.471,10.165-11.765c7.211-9.328,13.375-21.179,16.591-31.604      C406.063,315.323,406.074,315.326,406.084,315.329z" fill="#322bbf" data-original="#322bbf" class=""></path>
				<path style="" d="M175.16,171.01c0.568-0.074,1.138-0.172,1.708-0.179c2.293-0.027,0.456,2.273-6.163,16.476      c-14.033,30.112-11.642,28.89-14.205,29.501c-22.03,5.254-48.022,23.218-59.848,47.136c-0.398,0.806-0.679,1.705-1.336,1.562      c-0.347-0.075-0.498-0.405-0.478-0.754c0.217-3.746,1.583-11.596,2.359-15.276C105.646,209.385,135.021,176.256,175.16,171.01z" fill="#322bbf" data-original="#322bbf" class=""></path>
				<path style="" d="M431.467,341.974c-1.751,3.783-2.752,7.852-4.43,11.683c-1.147,2.617-4.234,9.301-5.93,11.835      c-0.367,0.549-0.894,0.161-0.954-0.375c-0.252-2.262,5.098-23.562-9.254-53.424c-8.705-18.113-14.955-19.501-14.133-23.139      c0.484-2.141,3.527-18.942,3.546-19.047c4.355-24.107,3.991-29.522,6.044-27.853c14.69,11.946,26.91,32.685,29.429,57.347      c1.444,14.132-0.559,29.785-3.039,37.475C432.168,338.268,432.356,340.243,431.467,341.974z" fill="#322bbf" data-original="#322bbf" class=""></path>
				<path style="" d="M342.672,500.009c-0.866-1.484-1.877-2.888-2.683-4.402c-6.574-12.365-8.737-25.7-8.885-39.65      c-0.057-5.383,5.138-2.139,15.358-17.652c5.076-7.704,3.869-6.767,5.575-8.957c0.176-0.226,0.757-0.087,0.825,0.199      c0.585,2.467,2.137,29.004,13.915,58.654c0.545,1.373,0.93,2.774,0.848,4.302c-0.377,7.066-8.323,11.858-14.204,12.476      C351.766,505.153,344.927,503.871,342.672,500.009z" fill="#322bbf" data-original="#322bbf" class=""></path>
				<path style="" d="M70.266,397.198c26.448-17.939,43.534-39.631,44.771-40.763c0.419-0.384,1-0.158,1.052,0.384      c0.078,0.804-0.934,7.923-0.186,17.426c0.839,10.669,4.729,12.773,3.032,15.111c-0.867,1.192-1.608,2.476-2.481,3.663      c-10.226,13.922-20.593,21.825-30.344,26.248c-5.263,2.388-9.324,2.96-14.124-1.259      C66.079,412.817,63.275,401.939,70.266,397.198z" fill="#322bbf" data-original="#322bbf" class=""></path>
			</g>
			<g>
				<path style="" d="M142.046,411.95c-12.382-7.826-21.077-18.643-24.366-32.623      c-7.448-31.66,26.694-129.285,31.623-138.467c0.043-0.08,4.712-12.703,7.105-18.043c0.042-0.094,18.505-44.222,26.285-57.893      c0.435-0.764,1.291-0.563,1.434,0.176c0.17,0.885,0.335,1.772,0.474,2.663c3.878,25.007,14.378,45.493,28.112,60.142      c2.415,2.576,1.947,2.223,1.153,4.962c-14.748,50.872-12.939,45.518-13.898,48.431c-0.963,2.927-0.927,2.943-3.942,2.02      c-2.667-0.816-5.357-1.567-7.99-2.481c-4.749-1.648-9.845,0.442-12.588,4.712c-8.412,13.093-17.402,38.865-20.141,53.01      c-6.999,36.148-5.482,51.006,30.106,69.6c24.089,12.586,83.482,32.279,112.163,23.549c17.311-5.269,25.259-22.883,32.586-40.426      c6.274-15.024,11.793-39.175,12.583-49.128c0.481-6.058,0.6-10.957-4.358-14.474c-1.613-1.144-3.381-1.49-11.116-3.878      c-3.025-0.934-3.276-0.931-2.619-2.962c0.679-2.101,1.111-4.294,2.269-6.223c0.166-0.275,0.234-0.611,0.334-0.923      c9.204-28.66,2.179-5.221,13.32-41.175c1.135-3.663,1.064-3.182,4.207-3.939c36.889-8.889,55.24-32.892,58.965-35.855      c0.388-0.309,1.094-0.317,1.167,0.581c0.109,1.345-3.489,24.471-5.572,35.905c-7.939,43.569-11.846,53.031-12.809,59.502      c-0.276,1.85-0.928,3.654-1.507,5.448c-1.283,3.976,0.611-0.871-5.962,21.043c-1.011,3.372-1.465,6.892-2.733,10.196      c-3.29,8.573-15.428,50.964-32.849,75.404c-3.48,4.882-7.875,8.74-12.92,11.932c-26.663,16.871-64.234,2.717-106.207-9.664      C198.88,435.557,162.399,424.814,142.046,411.95z" fill="#6280ff" data-original="#6280ff"></path>
				<path style="" d="M306.307,286.828c-1.976,6.406-1.774,6.988-8.527,25.909c-0.471,1.32-0.946,1.619-2.219,1.244      c-11.512-3.388,14.842,4.09-60.515-19.015c-1.872-0.574-3.831-0.858-5.717-1.389c-3.309-0.931-3.014-0.969-2.336-3.992      c1.349-6.009,3.515-11.785,4.933-17.751c1.634-6.875,3.995-13.512,5.943-20.28c1.526-5.301,0.122-2.383,17.477,5.248      c6.237,2.743,15.022,6.187,21.606,8.053c16.602,4.704,32.092,5.624,32.847,5.721c1.777,0.228,1.206,1.354,0.592,3.35      c-1.327,4.311-2.657,8.621-3.987,12.931C306.373,286.848,306.34,286.838,306.307,286.828z" fill="#6280ff" data-original="#6280ff"></path>
				<path style="" d="M368.743,100.614c-2.36-1.939-7.3-8.985-21.876-16.869c-17.113-9.255-38.086-12.869-58.316-8.362      c-0.553,0.123-1.127,0.358-1.631-0.1c-0.336-0.306-0.202-1.066,0.432-1.756c14.312-15.569,30.744-20.553,45.971-18.23      c19.826,3.024,35.158,24.648,36.659,44.408C370.052,100.655,369.179,100.973,368.743,100.614z" fill="#6280ff" data-original="#6280ff"></path>
				<path style="" d="M356.386,117.599c-14.296-4.409-9.107-2.816-11.513-3.58c-1.121-0.356-1.1-1.262-0.995-2.463      c1.821-20.912-5.809-30.067-2.45-29.11c4.514,1.286,18.913,9.331,28.091,20.921c0.7,0.884,1.006,1.824,0.999,2.946      c-0.029,4.596-0.257,9.173-1.145,13.696c-0.385,1.963,0.106,1.617-12.983-2.421      C356.389,117.592,356.388,117.595,356.386,117.599z" fill="#6280ff" data-original="#6280ff"></path>
				<path style="" d="M275.835,91.681c0.79-2.835,5.226-9.978,6.862-12.423c0.684-1.022,1.619-1.615,2.74-1.939      c16.263-4.692,38.033-2.809,35.196-0.201c-1.201,1.104-4.909,2.821-12.474,12.084c-8.201,10.041-5.891,11.709-9.435,10.612      C275.305,92.562,275.462,93.017,275.835,91.681z" fill="#6280ff" data-original="#6280ff"></path>
			</g>
			<g>
				<path style="" d="M192.342,395.021c-4.24-3.708-4.017-8.104-0.906-10.33c9.142-6.541,28.406,3.611,21.845,11.909      C210.092,400.634,199.101,400.933,192.342,395.021z" fill="#fc09b2" data-original="#fc09b2"></path>
				<path style="" d="M267.336,418.154c5.592-0.675,7.884-4.433,6.567-8.024c-3.869-10.554-25.505-13.018-24.758-2.466      C249.508,412.793,258.421,419.23,267.336,418.154z" fill="#fc09b2" data-original="#fc09b2"></path>
				<path style="" d="M337.061,291.135l-5.263,17.061c-1.176,3.814-5.228,5.955-9.042,4.779l-17.06-5.262      c-3.691-1.138-5.813-4.96-4.899-8.653c0.018-0.13,0.062-0.273,0.1-0.396l5.262-17.061c1.177-3.814,5.228-5.955,9.063-4.772      l17.06,5.262c2.091,0.645,3.673,2.143,4.489,4.012C337.443,287.638,337.592,289.412,337.061,291.135z" fill="#fc09b2" data-original="#fc09b2"></path>
				<path style="" d="M237.354,260.379l-5.262,17.061c-1.177,3.814-5.228,5.955-9.042,4.779l-17.06-5.262      c-3.691-1.139-5.814-4.96-4.899-8.653c0.018-0.13,0.062-0.273,0.1-0.396l5.263-17.061c1.176-3.813,5.228-5.955,9.062-4.772      l17.06,5.262c2.092,0.645,3.673,2.143,4.489,4.012C237.736,256.882,237.885,258.657,237.354,260.379z" fill="#fc09b2" data-original="#fc09b2"></path>
			</g>
			<g style="opacity:0.25;">
				<path style="" d="M128.234,400.143c-0.775-1.092,0.558-1.527,1.774-1.94c9.95-3.381,21.043-4.87,33.476-3.727      c3.804,0.349,2.919,3.691,21.753,13.593c19.571,10.29,77.576,31.277,108.808,24.538c20.062-4.329,25.128-21.406,28.638-23.531      c6.331-3.832,15.481-12.702,22.431-25.321c21.471-38.984,11.028-100.929,48.558-124.077c9.396-5.795,8.113-4.095,7.18,1.132      c-8.612,48.311-28.932,139.921-57.261,179.838c-25.148,35.437-77.243,14.808-119.522,2.335      C200.659,436.079,142.196,419.812,128.234,400.143z" fill="#000e3f" data-original="#000e3f" class=""></path>
				<path style="" d="M242.195,366.561c-4.183-1.025-8.182-2.978-12.405-4.308      c-15.375-4.843-33.899-12.519-46.529-22.758c-0.969-0.786-4.421-3.905-5.112-4.948c-0.231-0.348-0.016-0.923,0.397-0.959      c18.534-1.632,71.849,22.14,103.326,17.242c5.939-0.924,9.142-2.538,12.924-4.525c1.771-0.931,1.568-0.776,2.988,0.754      c2.097,2.258,4.049,2.701,6.859,1.491c4.15-1.788,12.758-9.051,16.565-18.207c0.691-1.663,1.469-3.283,1.993-5.017      c0.65-2.149,1.527-1.148,11.778,1.791c5.082,1.457,8.146,6.551,6.86,11.703c-0.714,2.857-1.619,5.672-2.906,8.345      c-0.659,1.369-6.811,22.278-18.914,27.026c-20.553,8.065-48.72,0.438-69.639-5.421      C247.707,368.02,244.97,367.467,242.195,366.561z" fill="#000e3f" data-original="#000e3f" class=""></path>
				<path style="" d="M348.786,245.575c6.488-21.035,5.982-21.157,8.541-22.945      c11.679-8.159,21.893-21.564,26.656-33.923c2.076-5.384,1.038-0.872,2.998-10.823c0.078-0.398,0.144-0.802,0.266-1.186      c0.131-0.413,0.647-0.604,0.998-0.353c12.766,9.116,20.39,24.514,18.579,40.957c-0.962,8.731-0.561,10.881-2.149,12.078      c-3.206,2.414-13.457,12.066-16.669,16.284c-2.348,3.083-12.115,9.168-15.602,10.973c-7.908,4.091-10.27,5.594-18.573,8.344      c-1.222,0.405-9.372,2.829-10.668,2.842c-1.541,0.015-0.889-0.785,5.722-22.216      C348.851,245.595,348.818,245.585,348.786,245.575z" fill="#000e3f" data-original="#000e3f" class=""></path>
				<path style="" d="M316.058,255.564c-4.433,14.373-3.817,14.159-5.957,13.996      c-27.722-2.108-47.84-9.816-68.718-21.037c-1.189-0.639-2.083-1.14-1.829-2.285c1.033-4.659,9.825-30.58,10.245-31.292      c0.309-0.524,0.9-0.734,1.493-0.473c21.019,9.268,40.281,20.649,68.902,19.906c0.744-0.019,1.558,0.081,1.488,0.827      c-0.208,2.217-4.82,17.735-5.629,20.357C316.055,255.563,316.057,255.564,316.058,255.564z" fill="#000e3f" data-original="#000e3f" class=""></path>
				<path style="" d="M131.411,259.144c-0.32,9.819,1.312,18.016,2.051,19.959c1.47,3.865-1.989,5.306-3.422,14.557      c-0.467,3.017-5.605,16.246-9.921,37.983c-2.322,11.69-2.601,18.818-4.403,16.731c-4.896-5.669-12.081-22.832-12.14-22.962      c-1.172-2.563,4.52-4.592,7.651-14.094c8.324-25.255,6.38-66.703,24.885-84.3C139.491,223.805,132.137,236.841,131.411,259.144z      " fill="#000e3f" data-original="#000e3f" class=""></path>
				<path style="" d="M380.721,408.36c0.205,1.007-0.077,1.729-0.968,2.29c-0.114,0.072-9.348,6.68-22.911,12.31      c-0.826,0.343-1.462-0.106-1.06-1.13c0.152-0.385,3.003-6.388,4.776-10.503c13.815-32.055,18.085-53.678,20.283-55.448      c9.223-7.428,16.966-20.46,21.751-31.198c4.469-10.028,4.324-14.046,5.312-14.138c0.417-0.039,0.51,0.378,0.564,0.681      c0.969,5.372,0.62,11.97-0.458,17.091C401.334,360.054,376.53,387.749,380.721,408.36z" fill="#000e3f" data-original="#000e3f" class=""></path>
				<path style="" d="M342.744,500.125c-6.887-11.501-11.495-23.486-11.616-43.789      c-0.015-2.509-0.231-2.802,1.514-3.718c0.765-0.402,1.424-0.135,2.039,0.354c7.332,5.837,9.175,17.841,17.263,26.333      c3.097,3.252,7.732,5.953,12.152,5.284c1.561-0.236,1.129-0.104,2.729,3.708c3.601,8.58-5.583,16.249-14.492,16.769      C351.014,505.144,344.789,503.54,342.744,500.125z" fill="#000e3f" data-original="#000e3f" class=""></path>
				<path style="" d="M69.941,415.837c-3.112-4.446-5.048-9.726-2.911-14.757c1.209-2.848,2.61-3.466,6.513-6.094      c1.657-1.115,1.923,3.721,11.062,3.307c12.711-0.576,21.421-11.605,32.746-12.395c1.44-0.101,2.526,1.58,1.89,2.909      c-0.386,0.807-0.921,1.548-1.432,2.288c-8.599,12.433-20.506,24.034-34.474,29.336      C81.108,421.276,72.851,419.994,69.941,415.837z" fill="#000e3f" data-original="#000e3f" class=""></path>
				<path style="" d="M101.928,233.143c0.823-2.218,1.867-4.354,2.789-6.537c1.6-3.788,21.815-14.825,43.13-13.548      c1.485,0.089,10.038,0.751,10.338,2.176c0.304,1.449-1.969,1.616-4.175,2.227c-16.962,4.699-33.543,15.649-45.27,28.736      c-11.191,12.488-12.008,19.82-13.487,19.276c-1.205-0.444,1.754-15.051,2.018-16.305      C97.946,245.952,101.291,234.859,101.928,233.143z" fill="#000e3f" data-original="#000e3f" class=""></path>
				<path style="" d="M431.46,342.082c-3.05,6.665-1.819,7.191-9.244,21.621c-0.395,0.767-0.656,1.692-1.602,2.051      c-0.951-0.791-0.448-1.805-0.324-2.692c3.107-22.299-4.9-51.143-22.725-71.694c-1.752-2.021-0.657-2.927,0.043-2.683      c13.635,4.735,27.556,16.691,36.201,35.764c1.532,3.38,0.662,5.192-1.195,12.613      C432.199,338.721,432.079,340.456,431.46,342.082z" fill="#000e3f" data-original="#000e3f" class=""></path>
				<path style="" d="M289.303,75.185c-1.123,0.23-2.115,0.721-2.473-0.081c-0.188-0.421-0.075-0.857,0.21-1.141      c1.168-1.162,2.514-2.09,4.013-2.776c18.978-8.682,35.997-1.405,48.385-1.785c9.456-0.29,10.804-6.479,12.756-4.821      c10.081,8.565,15.708,20.705,17.643,33.624c0.096,0.64,0.109,1.302,0.073,1.949c-0.029,0.515-0.729,0.804-1.133,0.472      c-1.752-1.441-12.035-14.308-33.056-21.901C320.891,73.37,305.353,71.897,289.303,75.185z" fill="#000e3f" data-original="#000e3f" class=""></path>
				<path style="" d="M346.439,114.529c-1.505-0.466-2.579-0.624-2.582-1.818c-0.005-2.219,1.068-9.371-1.069-21.023      c-0.819-4.468-1.985-6.995-2.282-8.274c-0.22-0.947,0.627-1.624,2.453-0.205c9.435,7.333,10.437,12.632,12.697,18.992      c2.446,6.882,6.85,11.959,13.256,15.474c0.494,0.271,0.628,0.683,0.601,1.226c-0.115,2.34-0.431,2.595-2.644,1.925      C364.266,120.039,346.548,114.563,346.439,114.529z" fill="#000e3f" data-original="#000e3f" class=""></path>
				<path style="" d="M278.376,93.535c-2.028-0.627-2.921-0.77-2.445-2.265c0.329-1.033,0.67-1.882,1.683-1.776      c5.394,0.567,10.184-0.063,16.202-2.976c3.858-1.867,6.158-5.157,11.879-7.839c4.587-2.151,15.15-4.378,15.167-2.154      c0.015,1.946-6.426,1.57-19.633,22.939c-0.655,1.06-1.394,0.688-3.101,0.163C294.835,98.615,281.149,94.392,278.376,93.535z" fill="#000e3f" data-original="#000e3f" class=""></path>
				<path style="" d="M216.114,225.505c-0.251,0.916-0.224,2.265-1.198,2.532c-1.01,0.278-1.577-0.951-2.209-1.652      c-7.656-8.496-13.168-17.819-13.755-19.319c-0.172-0.44-0.048-0.832,0.394-1.011c4.449-1.805,18.549-2.419,22.103-1.362      C223.413,205.278,221.081,207.406,216.114,225.505z" fill="#000e3f" data-original="#000e3f" class=""></path>
				<path style="" d="M337.051,291.132l-5.263,17.061c-1.176,3.814-5.228,5.955-9.042,4.779l-17.06-5.262      c-3.691-1.138-5.813-4.96-4.899-8.653c9.943,0.055,15.503-0.316,25.253-4.988c2.981-1.439,6.783-3.791,10.721-7.966      C337.433,287.634,337.582,289.409,337.051,291.132z" fill="#000e3f" data-original="#000e3f" class=""></path>
				<path style="" d="M237.343,260.376l-5.262,17.061c-1.177,3.814-5.228,5.956-9.042,4.779l-17.06-5.262      c-3.691-1.139-5.814-4.96-4.899-8.653c9.943,0.055,15.503-0.316,25.253-4.988c2.981-1.439,6.784-3.791,10.721-7.966      C237.726,256.879,237.875,258.654,237.343,260.376z" fill="#000e3f" data-original="#000e3f" class=""></path>
			</g>
			<path style="opacity:0.5;" d="M183.722,212.251c-6.189,20.034-37.37,109.895-37.302,109.688     c-0.82,2.483-4.541,1.62-4.195-0.964c4.223-31.691,22.994-82.558,37.762-110.287C181.14,208.522,184.45,209.905,183.722,212.251z     " fill="#ffffff" data-original="#ffffff"></path>
			<g style="opacity:0.5;">
				<path style="" d="M209.164,417.178c-14.091-4.602-32.038-13.326-44.423-24.094      c-0.488-0.425-0.371-0.939,0.248-1.093c5.648-1.408,11.53-2.115,20.474-0.74c12.258,1.885,50.705,16.836,74.276,15.981      c15.591-0.565,22.03-13.264,31.606-27.174c0.796-1.157,1.782-1.557,3.128-1.481c11.142,0.633,19.133-0.893,25.879-3.459      c13.323-5.068,18.299-26.668,19.797-26.307c0.826,0.199,0.379,0.929,0.296,1.436c-2.75,16.849-8.247,34.487-14.277,47.862      c-13.633,30.237-25.243,40.017-70.748,32.226c-6.332-1.084-19.215-4.759-20.738-5.102      C222.782,422.547,212.785,418.36,209.164,417.178z" fill="#fc09b2" data-original="#fc09b2"></path>
				<path style="" d="M395.39,178.656c-1.995,3.629-0.865-1.345-21.652-13.528c-1.603-0.94-2.939-1.241-2.694-3.252      c0.174-1.433,1.231-3.037,1.813-4.328c1.139-2.528,1.967-8.387,5.485-8.213c2.263,0.112,25.321,6.793,25.699,4.839      C402.812,160.528,399.186,171.711,395.39,178.656z" fill="#fc09b2" data-original="#fc09b2"></path>
			</g>
			<g style="opacity:0.5;">
				<path style="" d="M419.443,206.417c-3.106,1.38-4.965,0.52-9.921-0.034c-4.748-0.53,1.005-7.214-12.862-23.678      c-1.455-1.728-0.72-2.505,0.159-4.451c3.11-6.889,4.663-13.956,7.037-21.04c1.683-5.021,4.531,0.507,13.813-3.949      c7.839-3.763,7.084-12.656,12.523-11.481C452.598,146.623,442.583,196.13,419.443,206.417z" fill="#fd8a02" data-original="#fd8a02"></path>
				<path style="" d="M370.407,162.543c-0.622,1.264-1.855-0.367-3.13-1.077      c-36.017-20.049-81.877-28.251-75.263-29.044c21.451-2.568,61.99,13.508,78.282,15.431c2.003,0.236,4.359,0.044,6.292,0.682      C378.76,149.253,373.936,155.37,370.407,162.543z" fill="#fd8a02" data-original="#fd8a02"></path>
			</g>
		</g>
		<g>
			<path style="" d="M246.695,386.876c-3.122,10.448-14.457,12.528-18.785,5.011     c-1.772-3.085-2.122-7.419-0.893-11.041c0.803-2.353-2.802-3.764-3.656-1.242c-1.596,4.698-1.135,10.141,1.201,14.207     c6.113,10.64,21.828,7.566,25.835-5.828C251.121,385.553,247.431,384.419,246.695,386.876z" fill="#000e3f" data-original="#000e3f" class=""></path>
			<path style="" d="M210.999,365.038c-4.083-1.4-9.416,1.443-10.129,5.398c-1.608,4.113,1.175,8.775,5.041,10.1     c4.74,1.624,9.33-1.395,10.474-5.2C217.79,370.666,215.151,366.463,210.999,365.038z" fill="#000e3f" data-original="#000e3f" class=""></path>
			<path style="" d="M268.766,382.886c-4.296-1.311-8.894,1.078-10.27,5.626c-1.123,3.71,1.068,8.565,5.168,9.806     c0.281,0.085,0.578,0.178,0.857,0.267c3.527,1.135,8.531-1.422,9.723-5.637C275.443,388.708,272.939,384.16,268.766,382.886z" fill="#000e3f" data-original="#000e3f" class=""></path>
			<g>
				<path style="" d="M425.505,323.761c-0.903-0.279-1.486-1.183-1.337-2.143      c4.236-27.084-16.652-48.357-16.863-48.569c-0.754-0.754-0.754-1.977,0-2.731c0.756-0.753,1.977-0.759,2.732,0.002      c0.92,0.921,22.483,22.894,17.947,51.895c-0.165,1.054-1.153,1.775-2.207,1.61C425.683,323.809,425.594,323.788,425.505,323.761      z" fill="#000e3f" data-original="#000e3f" class=""></path>
			</g>
			<g>
				<path style="" d="M378.905,383.969c-0.402-0.124-0.768-0.382-1.025-0.758c-0.6-0.883-0.373-2.083,0.51-2.684      c14.474-9.846,24.046-23.09,31.503-34.746c0.576-0.899,1.764-1.161,2.668-0.586c0.897,0.574,1.161,1.768,0.585,2.666      c-7.667,11.987-17.534,25.62-32.583,35.86C380.058,384.064,379.448,384.136,378.905,383.969z" fill="#000e3f" data-original="#000e3f" class=""></path>
			</g>
			<g>
				<path style="" d="M114.809,227.925c0.903,0.278,1.894-0.14,2.312-1.017c11.757-24.764,40.999-30.574,41.293-30.631      c1.048-0.199,1.737-1.209,1.538-2.257c-0.201-1.049-1.207-1.741-2.258-1.538c-1.279,0.243-31.472,6.251-44.062,32.768      c-0.457,0.964-0.047,2.116,0.917,2.573C114.635,227.864,114.721,227.898,114.809,227.925z" fill="#000e3f" data-original="#000e3f" class=""></path>
			</g>
			<g>
				<path style="" d="M119.397,303.921c0.403,0.124,0.85,0.117,1.274-0.049c0.993-0.391,1.481-1.511,1.091-2.505      c-6.412-16.288-6.861-32.623-6.456-46.455c0.031-1.067-0.803-1.953-1.874-1.987c-1.065-0.031-1.955,0.807-1.986,1.873      c-0.418,14.223,0.055,31.046,6.721,47.984C118.39,303.351,118.854,303.754,119.397,303.921z" fill="#000e3f" data-original="#000e3f" class=""></path>
			</g>
			<path style="" d="M437.243,293.045c-3.592-21.408-14.223-40.452-29.88-53.613     c-0.962-0.813-0.272-5.451,0.438-10.374c0.865-5.931,1.953-13.321,1.404-19.913c-0.005-0.204,0.019-0.353,0.079-0.402     c0.039-0.055,0.174-0.126,0.602-0.062l0.865,0.11c0.817,0.117,1.681,0.226,2.507,0.391c4.023,0.859,8.531-0.647,13.083-4.341     c21.077-17.14,26.027-58.667,5.907-64.873c-64.464-19.884-60.858-18.464-60.629-19.667c6.862-35.205-10.531-58.243-30.812-65.443     c-26.999-9.595-55.007,8.863-66.742,34.88c-0.75,1.617,2.299,2.034-32.239-8.619l-0.032,0.103     c-19.032-5.871-12.579-3.813-28.947-8.952c-21.875-6.747-40.486,35.408-30.888,59.368c2.676,6.705,5.684,7.432,10.289,9.888     c2.025,1.154-1.047-0.148-11.957,22.968c-1.653,3.465-1.842,3.788-2.945,3.942c-0.872,0.135-1.665,0.228-2.457,0.32     c-2.701,0.312-5.511,0.613-12.525,2.604c-28.219,7.98-51.057,30.331-62.665,61.266c-6.749,17.949-9.164,37.864-7.05,57.582     c2.325,21.512,9.773,42.066,22.161,61.09c0.626,0.956,0.244,1.468-0.648,2.54l-0.185,0.235     c-18.556,22.301-33.639,33.121-41.72,38.937c-2.539,1.822-4.355,3.125-5.257,4.083c-2.255,2.359-3.352,5.478-3.164,9.017     c0.227,4.943,2.956,10.366,6.964,13.825c1.648,1.429,3.367,2.409,5.151,2.959c2.768,0.854,5.676,0.673,8.723-0.543     c12.478-4.999,24.739-15.409,34.565-29.356c0.204-0.296,0.645-0.924,0.772-0.974c0.138,0.065,0.49,0.668,0.831,1.312     c0.495,0.871,1.211,2.192,2.389,3.903c2.254,3.322,5.041,6.518,8.284,9.471c14.727,13.48,43.202,23.455,66.381,30.649     c5.161,1.614,10.199,3.191,15.073,4.717c52.321,16.386,86.911,27.213,111.688,16.194c0.834-0.371,1.518-0.699,2.069-0.956     c1.021-0.471,1.914-0.892,2.079-0.841c0.035,0.033,0.079,0.182,0.096,0.636l0.075,1.506c0.332,7.805,0.702,16.654,4.64,27.839     c2.075,5.94,4.507,10.867,7.398,15.038c3.382,4.905,7.959,5.868,11.202,5.836c6.656-0.103,12.96-4.378,15.532-8.346     c3.501-5.455,2.172-9.009-0.726-16.796c-3.352-9.006-8.987-24.084-12.021-55.088c-0.098-0.996-0.098-0.996,2.419-2.016     c1.715-0.684,4.594-1.862,9.159-4.069c8.695-4.235,22.078-12.75,33.552-24.031c10.424-10.28,19.01-22.027,25.535-34.88     C437.037,339.579,441.059,315.691,437.243,293.045z M402.83,230.175c-0.696,0.728-1.399,1.478-2.122,2.22     c-4.851,5.173-9.884,10.493-18.854,16.865c-17.043,12.075-36.303,17.524-37.802,17.062c-0.166-0.313,1.275-4.282,4.914-16.292     l-0.062-0.019c1.782-4.622,18.044-62.173,22.044-81.072c0.295-1.521,0.492-2.493,1.525-1.887     c21.88,12.79,35.048,25.721,33.072,50.69C404.795,227.3,404.561,228.351,402.83,230.175z M322.423,371.527     c-2.273,1.545-4.877,2.268-7.365,2.983c-12.862,3.696-26.478,1.815-39.312-0.877c-19.867-4.167-58.278-14.381-75.652-24.894     c-9.611-5.061-19.453-11.424-25.614-20.6c-4.635-6.887-3.383-16.987-1.759-25.02c4.761-23.597,10.129-22.333,20.107-18.522     c4.694,1.878,4.665,1.127,4.003,3.547c-3.671,13.684,0.177,26.796,4.52,30.992c1.312,1.28,2.979,1.772,4.955,1.483     c6.006-0.909,13.503-9.196,16.593-14.846c5.447-9.986,1.533-11.012,6.787-9.988c0.546,0.123,5.59,1.679,16.581,5.07     c54.186,16.714,49.279,14.162,47.956,18.452c-3.963,10.298-1.445,24.414,3.286,29.241c1.264,1.289,2.799,1.919,4.582,1.818     c5.669-0.25,12.301-7.411,15.748-11.67c2.351-2.89,4.172-6.393,5.622-10.729c1.143-3.482,2.539-2.073,5.647-1.094     c4.898,1.544,11.076,2.452,11.663,8.679C341.3,341.127,332.24,364.966,322.423,371.527z M337.671,356.604     c0.247-0.508,0.46-0.981,0.654-1.392c-3.344,14.553-7.652,31.212-15.668,47.446c-11.172,22.603-21.758,32.026-54.975,28.18     c-17.721-2.03-50.51-10.684-74.737-21.616c-16.718-7.537-36.163-18.61-38.27-37.405c-2.787-24.82,10.617-60.995,14.561-69.412     c-0.499,2.272-1.222,6.001-1.343,11.488c-0.195,7.62,1.021,12.195,4.636,17.441c15.159,22.057,61.795,35.544,84.19,42.003     c16.349,4.728,35.69,9.077,54.961,5.5c10.451-1.919,14.883-5.222,18.625-9.929C334.478,363.681,336.475,359.244,337.671,356.604z      M208.296,251.416c0.525-1.702,1.828-2.939,3.424-3.458c1.004-0.342,2.137-0.374,3.223-0.039l17.061,5.263     c0.943,0.291,1.783,0.842,2.411,1.575c2.986,3.282,0.432,5.924-4.171,22.113c-0.87,2.822-3.893,4.346-6.627,3.502l-6.685-2.062     l3.479-11.278c0.316-1.025-0.271-2.104-1.276-2.414c-1.025-0.316-2.119,0.244-2.435,1.27l-3.479,11.278l-6.664-2.056     c-0.881-0.272-1.632-0.751-2.23-1.362c-1.25-1.261-1.815-3.142-1.361-4.978c0.019-0.062,0.07-0.226,0.068-0.294L208.296,251.416z      M242.949,239.761c11.544-36.252,23.566-70.333,39.051-104.907c0.407-0.895,0.376-0.928,1.48-0.868     c4.861,0.263,36.494,9.542,53.887,16.262c3.185,1.239,2.784,0.953,1.739,6.375c-7.709,39.773-19.099,81.284-27.335,109.149     c-0.756,2.597-0.756,2.597-1.919,2.507c-24.222-1.992-48.308-9.377-67.802-20.802c-0.11-0.079-0.227-0.138-0.344-0.196     C240.669,246.716,240.669,246.716,242.949,239.761z M241.057,250.99c19.847,11.444,42.274,18.384,66.617,20.638l0.81,0.07     c0.591,0.048,1.224,0.108,1.308,0.201c0.05,0.128-0.12,0.682-0.247,1.092l-0.829,2.686c-2.031,1.125-3.659,2.981-4.393,5.359     l-5.262,17.061c-0.07,0.225-0.146,0.472-0.131,0.499c-0.517,2.041-0.295,4.086,0.499,5.88c-1.118,3.114-2.085,5.667-2.91,7.614     c-0.039,0.055-0.058,0.117-0.077,0.178c-0.231,0.603-1.262,0.307-14.921-3.974c-4.771-1.494-11.081-3.463-19.426-6.037     l0.025-0.082l-0.348-0.107c-9.33-2.878-16.171-4.943-21.14-6.454c-14.934-4.534-12.879-3.955-12.788-4.842     c0.025-0.082,0.985-3.559,2.115-7.657c4.894-2.995,3.946-7.09,9.24-22.166c0.794-2.573,0.299-5.414-0.673-6.99     C239.798,249.829,239.804,250.3,241.057,250.99z M205.418,278.801c17.003,5.028,17.463,5.894,20.497,5.626     c-4.427,17.17-4.889,18.736-8.503,23.562c-2.991,4.018-7.918,8.853-11.878,9.315c-2.275,0.242-3.819-2.907-4.736-5.615     c-1.209-3.651-1.796-8.01-1.99-9.709c-0.397-3.446,1.347-12.227,4.43-24.189C203.892,278.218,204.639,278.561,205.418,278.801z      M320.824,325.021c-1.844,6.707-5.455,12.443-10.707,17.021c-0.306,0.265-0.592,0.536-0.872,0.787     c-1.73,1.532-3.194,2.855-5.594,3.866c-1.264,0.531-2.386,0.455-3.4-0.263c-3.51-2.452-4.949-12.058-4.629-18.045     c0.206-3.507,0.658-4.827,3.241-12.182c0.759-2.169,1.748-4.94,2.958-8.497c0.935,0.828,2.062,1.467,3.313,1.853l17.061,5.262     c0.615,0.19,1.228,0.312,1.841,0.366C322.894,318.384,321.714,321.702,320.824,325.021z M329.942,307.622     c-0.652,2.112-2.5,3.518-4.559,3.714c-0.67,0.062-1.371,0.004-2.047-0.205l-6.705-2.068l3.479-11.278     c0.316-1.025-0.251-2.099-1.277-2.415c-1.025-0.316-2.098,0.251-2.414,1.276l-3.479,11.278l-6.664-2.055     c-1.333-0.411-2.364-1.291-3.04-2.375c-0.672-1.173-0.914-2.572-0.572-3.971l5.351-17.348c0.512-1.661,1.767-2.891,3.309-3.448     c1.03-0.356,2.19-0.402,3.338-0.048l17.061,5.263c0.943,0.291,1.784,0.842,2.404,1.595c0.375,0.385,0.658,0.854,0.886,1.351     c0.495,1.163,0.565,2.465,0.192,3.674L329.942,307.622z M411.208,136.983c3.362,1.037,22.513,7.168,23.908,8.25     c14.859,11.53,2.313,51.028-14.995,59.533c-3.101,1.536-4.77,1.268-8.415,0.638c-0.579-0.089-1.22-0.197-1.901-0.317     c-1.028-0.16-1.145-0.511-1.491-2.301c-0.258-1.203-0.58-2.852-1.442-5.228c-2.754-7.62-5.32-10.948-9.753-16.212     c-0.307-0.387-0.016-1.038,0.97-3.069c7.532-15.455,9.57-27.912,10.679-41.102C408.849,136.118,410.098,136.641,411.208,136.983z      M372.698,161.146c14.116-30.436,7.752-33.545,12.455-32.223c20.884,6.465,20.077,5.861,20.114,7.012     c0.105,3.154-1.023,11.25-1.654,14.536c-1.22,6.525-3.439,12.918-5.6,19.247c-0.524,1.531-3.535,8.407-3.805,8.55     c-0.756,0.126-5.354-6.028-19.395-13.999C372.02,162.689,372.006,162.662,372.698,161.146z M335.455,281.522     c-0.772-0.553-1.651-0.981-2.594-1.272l-17.061-5.263c-1.046-0.322-2.107-0.448-3.158-0.39c0.449-1.456,0.925-2.926,1.399-4.464     c0.659-2.065,1.291-4.115,1.951-6.18c4.593-14.527,9.332-29.526,12.501-44.605c2.525-11.933,6.377-22.363,13.492-59.322     c0.221-1.159,1.286-7.082,1.533-7.006c0.198,0.087,10.693,3.996,23.493,10.907c1.494,0.848,1.017,0.607,0.805,3.213     C358.552,204.639,347.638,243.879,335.455,281.522z M369.28,106.557c0.04,3.825-0.309,8.184-0.744,10.931     c-0.228,1.905-0.297,2.526-0.957,2.377c-0.956-0.231-1.294-0.354-14.039-4.285c-9.319-2.875-8.484-2.291-8.387-3.822     c1.024-17.361-2.828-26.068-3.126-27.867c1.807,1.267,13.195,5.091,25.307,18.787c0.363,0.426,0.662,0.766,0.899,1.018     C368.942,104.453,369.267,105.362,369.28,106.557z M317.159,104.447c-15.137-4.563-13.911-4.121-12.743-5.862     c4.697-7.803,10.307-14.269,16.22-18.733c4.353-3.269,3.282-2.037,15.106,1.336c1.127,0.348,1.814,0.964,2.289,2.188     c2.939,7.608,4.408,16.995,3.668,27.204C341.638,112.436,345.088,112.823,317.159,104.447z M299.874,64.241     c8.225-5.188,24.671-12.713,42.662-4.716c10.168,4.528,18.74,13.505,22.94,23.986c1.59,4.016,3.322,10.344,3.366,14.13     c0.01,1.059-0.101,1.272-0.06,1.284c-1.288-0.093-28.63-34.524-78.354-25.179c-0.757,0.126-1.331,0.241-1.731,0.297     C289.221,72.857,293.168,68.505,299.874,64.241z M282.205,82.28l0.366-0.605c1.172-1.907,1.814-2.966,5.053-3.786     c14.219-3.653,28.32-1.684,31.247-1.051c-0.954,0.838-4.072,2.825-8.042,7.288c-6.494,7.273-10.19,13.856-10.292,14.072     c-0.689,1.151-0.58,0.854-11.876-2.63c-4.896-1.51-11.308-3.346-11.505-3.616C277.14,91.856,280.949,84.295,282.205,82.28z      M259.942,99.127c2.965-8.321,3.208-7.767,3.976-7.576c0.832,0.219,76.204,23.476,114.2,35.203     c1.824,0.495,1.967,0.54,1.295,3.521c-2.934,12.848-5.242,18.762-9.552,28.784c-0.09,0.207-0.234,0.484-0.692,1.224     c-0.348,0.544-0.327,0.551-0.89,0.264c-69.545-35.024-115.155-33.167-114.929-35.899     C256.126,107.994,258.938,101.951,259.942,99.127z M251.277,129.622c0.411-1.088-1.572-1.911,24.86,2.616l-0.017,0.129     c2.815,0.567,2.396,0.469,2.66,0.551c-0.7,2.27-23.669,54.676-43.138,117.793c-0.759-0.526-1.596-0.941-2.498-1.22l-17.061-5.263     c-1.046-0.322-2.087-0.441-3.117-0.378C225.596,202.251,243.293,150.626,251.277,129.622z M236.428,85.518l0.19-0.323     c1.309-2.268-0.555-2.26,14.388,2.35c1.969,0.607,8.395,2.456,8.539,2.746c-0.308,1.005-6.245,12.648-9.683,33.796     c-0.335,0.457,0.595,0.87-2.951,0.684c-13.276-0.861-19.426,0.004-22.389,0.437c-0.846,0.121-1.651,0.255-1.822,0.156     c-0.057-0.107,0.013-0.625,0.064-1.081l0.019-0.062C224.385,111.603,229.368,97.488,236.428,85.518z M189.948,136.394     c-10.102-5.131-10.384-39.142,6.759-55.763c3.367-3.273,8.671-6.779,14.808-4.909c23.933,7.301,23.722,5.803,21.73,8.544     c-0.434,0.607-0.987,1.38-1.542,2.376c-4.907,8.791-11.503,26.522-12.448,37.3c-0.208,2.204-0.208,2.204-1.809,2.586     c-8.623,2.007-14.645,5.886-20.792,11.641C195.429,139.436,195.583,139.286,189.948,136.394z M186.808,159.387     c10.471-20.551,20.306-33.798,60.325-31.11c1.621,0.012,1.042-1.716-8.626,25.634c-26.769,76.056-22.711,71.88-23.938,72.583     c-3.348-3.346-7.966-9.194-10.76-13.604c-11.047-17.331-14.928-31.979-17.621-49.966     C186.011,161.679,186.197,160.568,186.808,159.387z M96.401,261.814c0.272-2.993,1.463-11.294,3.108-16.265     c0.527-1.634,1.039-3.295,1.545-4.935c1.614-5.161,3.286-10.507,5.697-15.557c8.358-17.341,19.547-30.462,34.18-40.119     c12.146-7.998,26.245-12.138,34.819-12.704c0.366-0.022,0.429,0.064,0.429,0.064c0.168,0.254-0.46,1.565-1.018,2.718     c-0.195,0.412-0.415,0.838-0.635,1.332c-3.939,8.329-14.693,31.398-17.1,37.819c-0.461,1.205-0.913,1.358-3.448,2.08     c-1.518,0.408-3.568,1.01-6.645,2.105c-9.56,3.473-20.012,9.547-28.675,16.665c-13.808,11.348-19.623,21.973-21.82,25.966     C96.68,261.271,96.524,261.56,96.401,261.814z M154.004,222.566c-0.096,0.239-0.195,0.412-0.259,0.549     c-5.997,14.274-11.29,29.102-16.424,43.417c-0.92,2.546-1.819,5.098-2.739,7.643c-0.236-0.544-0.277-1.141-0.305-1.778     c-0.02-0.298-0.047-0.576-0.073-0.853c-2.665-20.628,4.509-45.633,7.249-46.944c4.292-2.045,8.666-3.704,13.009-4.902     c0.297-0.088,0.467-0.058,0.502-0.024C155.159,219.913,154.835,220.89,154.004,222.566z M115.936,346.707     c-12.986-20.219-19.674-42.582-20.479-68.364c-0.451-14.264,14.454-31.134,23.327-38.862c6.078-5.289,9.691-7.61,16.097-11.562     c0.335-0.211,0.543-0.304,0.65-0.361c-0.017,0.421-0.334,1.446-0.669,2.533c-1.139,3.691-3.243,10.587-4.283,21.966     c-0.648,7.053-0.799,19.919,1.474,26.526c0.712,2.061,0.4,2.998-1.538,9.137c-0.405,1.312-0.9,2.844-1.456,4.648l-0.062-0.019     l-0.174,0.71c-0.043,0.211-0.085,0.423-0.169,0.621c-1.466,4.241-2.601,8.652-3.72,12.933c-0.668,2.601-1.381,5.278-2.143,7.895     c-0.642,2.227-1.127,4.525-1.592,6.762c-0.201,1.016-0.429,2.046-0.651,3.055c-3.133,13.945-3.924,19.494-4.23,21.579     c-0.051,0.456-0.117,0.817-0.153,1.008C116.089,346.866,115.978,346.787,115.936,346.707z M117.009,390.041     c-12.367,18.035-25.419,25.911-34.213,29.307c-5.443,2.138-11.007-1.958-13.708-7.103c-2.277-4.34-3.065-10.669,2.19-14.235     c21.547-14.597,34.903-29.723,40.601-36.184c1.244-1.413,2.356-2.687,2.842-3.098c0.044,0.44-0.009,1.412-0.095,2.418     c-0.216,3.1-0.595,8.26,0.278,15.626c0.453,3.845,1.397,6.247,2.088,8.009C117.877,387.008,118.316,388.132,117.009,390.041z      M352.323,435.341c0.898,6.992,3.005,23.383,9.699,43.323c0.496,1.523,1.095,3.077,1.671,4.558     c0.943,2.402,1.909,4.878,2.535,7.362c1.156,4.624-3.332,9.707-8.338,11.957c-5.785,2.594-11.12,1.398-14.231-3.222     c-10.517-15.483-11.077-35.215-11.257-41.693c-0.028-0.638-0.033-1.133-0.062-1.478c-0.11-1.898,0.713-2.452,2.669-3.848     c2.66-1.852,7.13-4.987,13.23-14.423c2.243-3.485,3.012-4.887,3.338-5.505c0.156-0.289,0.196-0.344,0.276-0.386     C351.977,432.607,352.119,433.819,352.323,435.341z M346.418,434.171c-5.796,9.62-10.395,13.68-16.379,17.427     c-22.801,14.354-51.174,7.438-121.122-14.254c-19.946-6.185-54.801-17.367-71.33-30.07c-7.691-5.911-13.744-13.6-17.079-22.755     c-7.831-21.571,4.535-68.867,16.276-104.746c14.663-44.769,32.939-86.402,41.657-103.452c1.254-2.465,2.33-4.716,3.212-6.555     c0.577-1.215,1.114-2.373,1.434-2.971c0.225,0.653,0.459,2.006,0.731,3.527c8.542,46.477,30.86,57.025,29.182,61.773     c-0.811,2.265-2.316,7.145-4.013,12.865c-2.045,1.098-3.652,2.961-4.379,5.318l-5.263,17.061     c-0.07,0.225-0.125,0.478-0.132,0.498c-0.622,2.525-0.136,5.101,1.186,7.148c-0.011,0.109-0.043,0.211-0.074,0.314     c-0.221,0.718-0.361,1.461-0.494,2.183c-0.201,1.016-0.408,2.052-0.759,3.044c-0.103,0.26-0.172,0.486-0.262,0.705     c-0.477,1.402-0.457,1.408-3.37,0.442c-1.471-0.476-3.693-1.206-6.944-2.097c-6.652-1.805-11.508,1.346-13.811,4.88     c-0.21,0.317-0.426,0.654-0.643,0.992c-8.511,13.543-15.039,30.775-19.934,52.687c-1.258,5.608-2.102,10.31-2.7,14.797     c-2.115,16.392,0.136,28.315,7.037,37.539c6.193,8.243,16.321,14.937,33.92,22.387c23.219,9.805,47.688,18.246,72.781,21.26     c38.589,4.627,50.414-5.895,64.381-37.854c5.661-12.963,15.746-46.68,14.589-60.691c-0.707-8.482-6.911-10.283-13.483-12.199     c-0.929-0.264-1.852-0.549-2.775-0.833c-2.085-0.666-2.085-0.666-1.421-2.818c0.266-0.862,0.531-1.723,0.777-2.59     c0.247-0.8,0.479-1.626,0.732-2.446c2.64-0.915,4.826-3.048,5.711-5.918l5.263-17.061c0.645-2.091,0.512-4.356-0.368-6.378     c-0.101-0.256-0.229-0.498-0.376-0.746c0.814-2.421,1.566-4.861,2.306-7.26c2.288-7.417,1.491-6.835,5.607-7.837     c22.386-5.664,39.633-16.569,55.625-33.055c0.79-0.812,1.486-1.54,1.819-1.819c0.05,0.128,0.036,0.393-0.045,1.02     c-2.333,16.01-4.731,30.406-7.388,44.048c-1.265,6.504-5.459,27.307-6.553,31.214l-0.019,0.062     c-1.455,5.592-14.386,54.937-19.066,68.292C364.16,397.111,356.402,417.602,346.418,434.171z M396.839,294.079     c0.021,0.007,0.042,0.013,0.042,0.013c0.081,0.025,0.179,0.145,0.318,0.277l0.077,0.114c2.777,3.304,5.391,6.985,7.788,10.936     c1.037,1.735,0.26,4.325-0.752,7.606c-0.177,0.574-0.34,1.175-0.529,1.791c-4.963,17.107-18.218,34.308-21.061,36.462     c0.161-0.668,0.539-1.967,1.018-3.593c1.995-6.907,6.647-23.078,12.933-53.14C396.729,294.292,396.765,294.101,396.839,294.079z      M402.585,389.314c-7.568,8.153-19.854,19.522-35.471,27.414c-0.819,0.399-1.699,0.846-2.556,1.3     c-2.597,1.355-6.119,3.165-7.029,3.199c0.333-0.93,0.863-2.069,1.653-3.757c2.501-5.269,7.705-16.24,16.557-43.556     c0.4-1.224,0.82-2.442,1.221-3.666c1.247-3.68,2.505-7.469,3.409-11.344c0.223-0.942,0.716-1.665,1.602-2.357     c7.647-5.861,15.874-18.773,20.274-28.307c3.056-6.558,4.504-11.253,5.392-14.056c0.335-1.087,0.632-2.051,0.841-2.435     c0.007,0.047,0.042,0.081,0.05,0.128c5.216,11.265,8.169,19.452,9.73,32.958c1.359,11.827-0.549,20.199-1.385,23.781     c-0.147,0.696-0.272,1.174-0.305,1.5C416.336,371.818,411.478,379.706,402.585,389.314z M421.648,362.094     c0.024-0.149,0.04-0.347,0.062-0.565c0.065-0.429,0.133-1.014,0.197-1.803c1.509-17.634-3.97-37.29-9.676-48.055     c-0.27-0.51-0.5-1.075-0.715-1.613c-0.294-0.652-0.574-1.345-0.941-1.974l-0.614-1.065c-4.08-6.94-5.754-9.814-11.566-16.593     c-0.69-0.819-0.69-0.819,0.269-5.531c1.113-5.428,3.444-16.7,7.23-41.784c0.019-0.062,0.051-0.164,0.09-0.22     c0.062,0.019,0.152,0.092,0.277,0.198c19.398,17.122,29.623,41.631,28.802,69.045c-0.151,5.006-0.889,12.93-1.893,17.494     C430.584,341.496,423.417,359.563,421.648,362.094z" fill="#000e3f" data-original="#000e3f" class=""></path>
		</g>
	</g>
	<g>
		<g>
			<path style="" d="M125.103,100.648c1.66,1.174,3.417,2.607,4.551,4.204c-4.097,4.942-8.061,10.544-12.316,14.932     c-8.482-6.927-16.994-13.147-24.98-20.46c4.335-5.907,11.925-15.496,12.142-15.317c1.927,1.148,3.475,2.836,5.191,4.24     l0.037,0.03c-1.843,3.675-5.05,6.481-7.384,9.938l-0.089,0.109l0.007,0.067c1.455,1.128,2.72,2.711,4.307,3.457l0.069-0.007     c1.303-1.372,2.52-2.938,3.782-4.408l0.035,0.03c1.855,1.087,3.323,2.651,5.142,4.077c-0.822,1.828-3.194,3.912-3.209,4.752     c1.218,1.421,3.31,2.887,4.57,3.732l0.067-0.006c2.627-3.218,5.399-6.014,8.005-9.431L125.103,100.648z" fill="#000e3f" data-original="#000e3f" class=""></path>
			<path style="" d="M131.111,80.833c4.376,3.18,9.798,5.536,14.342,8.352c-0.334,0.265-0.605,0.528-0.909,0.825     c-0.708,0.694-1.317,1.424-2.093,2.184c-0.57,0.563-1.074,0.991-1.614,1.32h-0.067c-3.092-1.199-6.536-4.238-9.7-5.303     l-0.063-0.002c1.366,3.686,3.871,6.85,5.041,10.2c-0.472,0.53-0.977,1.092-1.517,1.621c-1.045,1.025-2.157,2.116-3.298,2.641     c-2.364-4.23-4.776-10.264-7.669-14.833c-4.642-3.184-9.929-5.404-15.151-7.759c1.35-1.523,2.431-2.647,3.242-3.442     c1.211-1.19,1.549-1.654,1.917-1.55c2.392,1.358,7.206,4.176,9.531,5.267c-0.975-2.613-3.901-7.349-5.212-9.966l-0.033-0.034     c1.083-1.258,2.464-2.68,5.025-5.193l0.032-0.033c0.035,0.034-0.001,0.068,0.034,0.101     C125.535,70.362,127.652,76.024,131.111,80.833z" fill="#000e3f" data-original="#000e3f" class=""></path>
			<path style="" d="M149.67,56.366c0.263,0.334,0.527,0.669,0.722,0.994c3.113,5.182,1.057,12.504-4.269,15.43     c1.189,1.287,1.625,2.146,7.472,9.204l0.031,0.036c-0.039,0.03-0.047,0.096-0.084,0.125c-1.08,1.451-4.268,3.895-6.084,5.023     c-5.958-6.97-13.591-17.369-20.366-25.378c4.842-6.45,15.48-13.549,22.549-5.471L149.67,56.366z M136.679,62.612     c-0.037,0.029-0.072,0.058-0.081,0.125c1.511,1.695,3.061,4.202,4.711,5.307l0.111-0.088c1.473-1.337,3.801-2.807,4.056-4.93     c-0.059-1.756-1.646-3.392-3.557-3.151C139.904,59.837,137.956,60.949,136.679,62.612z" fill="#000e3f" data-original="#000e3f" class=""></path>
			<path style="" d="M180.576,64.196c-1.196,0.581-2.769,2.07-15.773,9.943l-0.45-0.72     c-7.04-12.299-9.874-16.373-17.079-27.51c0.804-1.118,4.553-3.579,6.475-3.892c4.134,7.044,9.41,14.656,13.6,21.611l0.026,0.041     c0.84-0.972,9.331-5.292,10.509-6.254c0.175,0.281,0.378,0.6,0.512,0.905c0.284,0.545,0.623,1.169,0.937,1.586     C181.941,63.618,181.694,63.494,180.576,64.196z" fill="#000e3f" data-original="#000e3f" class=""></path>
			<path style="" d="M189.602,31.751c0.813,1.338,1.494,2.738,2.138,4.159c1.303,3.096,2.82,5.771,4.036,8.802     l0.555,1.462c0.848,2.057,1.396,4.364,1.186,6.516c-0.314,1.834-1.598,3.406-3.107,4.723c-1.343,1.233-2.913,2.105-4.632,2.786     c-2.438,0.927-4.936,1.517-7.052-0.236c-1.49-1.007-2.468-2.579-3.317-4.213c-2.324-4.33-4.838-8.619-6.717-13.22     c-1.202-2.566-2.063-5.51-1.294-8.354c0.151-0.442,0.323-0.842,0.603-1.24c2.845-3.648,8.147-6.131,12.636-5.224     c1.159,0.328,2.188,0.929,3.004,1.739C188.436,30.114,189.041,30.922,189.602,31.751z M186.662,39.178     c-0.023-0.042-0.833-1.38-1.352-2.336c-0.893-1.507-2.341-2.535-3.967-2.529c-1.374,0.094-2.46,1.097-3.019,2.211     c-0.603,1.239-0.807,2.548-0.565,3.901c0.589,2.392,1.729,4.831,3.016,7.146c1.273,1.849,2.265,3.992,3.728,5.59     c2.202,1.71,5.889,0.224,6.677-2.576c0.376-1.919-0.048-1.712-1.037-4.277c-0.517-1.166-0.931-2.12-0.993-2.247l-0.993-2.037     L186.662,39.178z" fill="#000e3f" data-original="#000e3f" class=""></path>
			<path style="" d="M223.72,45.747c-2.094,0.734-4.631,1.922-7.364,2.681l-0.045,0.015     c-2.11-2.312-6.477-6.782-10.109-9.01l-0.135-0.102c0.579,2.797,3.1,8.565,4.029,10.79c-1.706,1.548-7.046,2.869-7.577,3.205     c0.356-0.125-9.732-28.198-11.223-31.027c3.169-1.66,7.003-3.704,11.497-4.728c7.163-2.11,14.408,4.004,12.88,11.492     c-0.368,2.528-1.646,4.727-4.433,5.903l-0.179,0.063l-0.045,0.015l0.013,0.045c4.041,3.535,9.146,6.399,12.643,10.674     L223.72,45.747z M202.13,31.657l0.045-0.015c1.427-0.35,3.15-0.853,4.496-1.575c2.101-1.286,1.032-4.912-1.07-5.626     c-1.712-0.751-3.816,0.238-5.614,1.817C200.651,27.725,201.439,30.4,202.13,31.657z" fill="#000e3f" data-original="#000e3f" class=""></path>
			<path style="" d="M242.718,34.941c0.6,1.944,1.116,4.15,1.043,6.108c-6.263,1.419-12.823,3.442-18.872,4.325     c-2.498-10.666-5.453-20.788-7.321-31.456c7.04-2.038,18.904-5.011,18.967-4.736c0.83,2.085,1.024,4.368,1.531,6.528l0.011,0.046     c-3.703,1.789-7.955,2.058-11.918,3.373l-0.135,0.032l-0.034,0.057c0.462,1.782,0.502,3.809,1.304,5.367l0.057,0.036     c1.872-0.293,3.793-0.792,5.688-1.187l0.011,0.045c0.805,1.994,1.017,4.127,1.59,6.369c-1.766,0.948-4.918,1.152-5.446,1.81     c0.099,1.867,0.863,4.307,1.346,5.746l0.059,0.036c4.046-0.948,7.948-1.474,12.1-2.593L242.718,34.941z" fill="#000e3f" data-original="#000e3f" class=""></path>
			<path style="" d="M268.748,37.994c-2.204,0.245-4.943,0.834-7.782,0.961l-0.046,0.005     c-1.537-2.727-4.793-8.066-7.834-11.053l-0.111-0.13c-0.061,2.858,1.105,9.046,1.511,11.425     c-2.012,1.127-7.514,1.217-8.109,1.425c0.375-0.041-3.158-29.676-3.98-32.768c3.465-0.908,7.662-2.04,12.27-2.03     c7.459-0.449,13.15,7.136,9.978,14.094c-0.921,2.383-2.663,4.24-5.645,4.761l-0.19,0.021l-0.048,0.005l0.007,0.047     c3.144,4.354,7.479,8.289,9.929,13.243L268.748,37.994z M250.859,19.412l0.048-0.005c1.469-0.021,3.264-0.126,4.738-0.527     c2.336-0.783,2.107-4.559,0.22-5.727c-1.504-1.115-3.776-0.625-5.882,0.512C250.301,15.246,250.469,18.03,250.859,19.412z" fill="#000e3f" data-original="#000e3f" class=""></path>
			<path style="" d="M272.423,38.183c-0.427,0.011,0.047-3.779,0.003-5.524l-0.001-0.047     c1.494-0.651,3.914-0.192,5.753-0.238c-0.005,1.748-0.044,3.826-0.001,5.666l-0.328,0.008c-0.757,0.02-1.088-0.02-1.796-0.002     l-0.093,0.001L272.423,38.183z M271.596,5.105c1.649-0.184,4.044-0.715,5.802-0.239c0.063,8.071,0.093,16.901,0.671,24.961     c-1.647,0.23-4.241,0.294-6.081,0.387l-0.046,0.001c-0.067-8.307-0.79-16.505-0.486-25.106L271.596,5.105z" fill="#000e3f" data-original="#000e3f" class=""></path>
		</g>
	</g>
	<g>
		<g>
			<path style="" d="M85.998,167.437c-1.975,2.404-6.092,5.419-9.546,15.173c-0.31,0.874-0.635,1.756-1.077,2.566     c-0.615,1.129-1.971,1.226-2.744,0.168c-1.748-2.392-1.92-6.245-7.72-12.797c-3.404-3.844-6.667-5.012-3.929-7.432     c6.825-6.033,9.036-14.922,10.254-17.286c0.526-1.02,1.819-1.125,2.546-0.25c0.779,0.938,1.194,2.086,1.673,3.194     c3.543,8.2,8.278,11.887,10.217,13.687C86.16,164.912,86.679,166.61,85.998,167.437z" fill="#fd8a02" data-original="#fd8a02"></path>
		</g>
		<g>
			<path style="" d="M65.05,307.194c-1.974,2.404-6.091,5.419-9.546,15.173c-0.309,0.874-0.635,1.756-1.077,2.566     c-0.615,1.129-1.971,1.226-2.744,0.168c-1.748-2.392-1.92-6.245-7.719-12.797c-3.404-3.845-6.667-5.012-3.929-7.432     c6.824-6.033,9.036-14.922,10.254-17.286c0.526-1.02,1.819-1.125,2.546-0.25c0.779,0.938,1.194,2.086,1.673,3.194     c3.543,8.201,8.278,11.887,10.217,13.687C65.212,304.669,65.731,306.366,65.05,307.194z" fill="#fd8a02" data-original="#fd8a02"></path>
		</g>
		<g>
			<path style="" d="M29.982,234.052c-0.474,0.577-0.955,1.155-1.487,1.678c-7.492,7.372-9.123,15.773-10.748,18.754     c-0.708,1.299-2.27,1.412-3.16,0.193c-0.621-0.849-1.098-1.837-1.481-2.824C7.125,236.446-3.546,235.547,1.17,231.378     c7.86-6.949,10.407-17.186,11.81-19.909c0.606-1.175,2.096-1.296,2.933-0.287c0.897,1.081,1.375,2.403,1.926,3.679     c4.089,9.463,9.562,13.715,11.768,15.764C30.168,231.144,30.768,233.097,29.982,234.052z" fill="#fd8a02" data-original="#fd8a02"></path>
		</g>
		<g>
			<path style="" d="M444.437,449.851c-1.975,2.404-6.092,5.419-9.546,15.173c-0.31,0.874-0.635,1.756-1.077,2.567     c-0.615,1.129-1.971,1.226-2.744,0.168c-1.748-2.392-1.92-6.245-7.72-12.797c-3.404-3.844-6.667-5.012-3.93-7.432     c6.825-6.033,9.036-14.922,10.254-17.286c0.525-1.021,1.819-1.125,2.546-0.25c0.779,0.939,1.194,2.086,1.673,3.194     c3.543,8.2,8.278,11.887,10.217,13.687C444.598,447.326,445.117,449.023,444.437,449.851z" fill="#fd8a02" data-original="#fd8a02"></path>
		</g>
		<g>
			<path style="" d="M506.368,298.069c-1.974,2.404-6.092,5.419-9.546,15.173c-0.309,0.874-0.635,1.756-1.077,2.567     c-0.615,1.129-1.971,1.226-2.744,0.168c-1.747-2.392-1.92-6.245-7.719-12.797c-3.404-3.845-6.667-5.012-3.929-7.432     c6.824-6.033,9.036-14.922,10.254-17.286c0.526-1.02,1.819-1.125,2.546-0.25c0.779,0.939,1.194,2.086,1.673,3.194     c3.543,8.2,8.278,11.887,10.217,13.687C506.529,295.544,507.049,297.242,506.368,298.069z" fill="#fd8a02" data-original="#fd8a02"></path>
		</g>
		<g>
			<path style="" d="M511.624,384.587c-2.275,2.767-7.011,6.227-10.995,17.475c-0.357,1.007-0.731,2.023-1.24,2.956     c-0.708,1.3-2.27,1.412-3.161,0.193c-2.015-2.758-2.211-7.193-8.891-14.739c-3.92-4.429-7.679-5.773-4.526-8.56     c7.861-6.949,10.408-17.186,11.81-19.909c0.606-1.176,2.096-1.296,2.932-0.288c0.897,1.081,1.376,2.403,1.927,3.679     c4.089,9.463,9.561,13.716,11.768,15.764C511.809,381.679,512.408,383.634,511.624,384.587z" fill="#fd8a02" data-original="#fd8a02"></path>
		</g>
	</g>
</g>















</g></svg>