<svg xmlns="http://www.w3.org/2000/svg" version="1.1" xmlns:xlink="http://www.w3.org/1999/xlink" xmlns:svgjs="http://svgjs.com/svgjs" width="512" height="512" x="0" y="0" viewBox="0 0 512 512" style="enable-background:new 0 0 512 512" xml:space="preserve" class=""><g>
<g>
	<g>
		<g>
			<path style="" d="M428.97,222.058v196.355c0,3.697-2.997,6.694-6.694,6.694H73.345     c-3.697,0-6.694-2.997-6.694-6.694V222.058H428.97z" fill="#915efd" data-original="#915efd"></path>
			<polygon style="" points="316.415,250.454 316.415,425.099 179.188,425.099 179.188,250.454 227.7,222.064      245.43,211.687 247.802,210.295 250.173,211.687 267.903,222.064    " fill="#ffffff" data-original="#ffffff" class=""></polygon>
			<path style="" d="M297.167,289.265v135.842h-98.713V289.265c0-6.337,1.205-12.406,3.392-17.984     c2.499-6.404,6.292-12.138,11.067-16.913c8.925-8.925,21.265-14.459,34.898-14.459     C275.077,239.909,297.167,262.02,297.167,289.265z" fill="#fc09b2" data-original="#fc09b2" class=""></path>
			<g>
				<path style="" d="M147.898,266.439H97.672c-1.301,0-2.503,0.454-3.471,1.312c-1.142,1.013-1.795,2.455-1.795,3.954      v93.157c0,2.903,2.362,5.264,5.266,5.264h50.226c2.347,0,4.369-1.499,5.035-3.731c0.152-0.508,0.231-1.039,0.231-1.533v-93.157      C153.165,268.801,150.803,266.439,147.898,266.439z" fill="#00d5fe" data-original="#00d5fe"></path>
				<path style="" d="M399.959,266.439h-50.228c-1.303,0-2.501,0.454-3.47,1.312c-1.143,1.013-1.797,2.455-1.797,3.954      v93.157c0,2.903,2.362,5.264,5.266,5.264h50.228c2.345,0,4.369-1.499,5.034-3.728c0.152-0.511,0.231-1.042,0.231-1.536v-93.157      C405.223,268.801,402.862,266.439,399.959,266.439z" fill="#00d5fe" data-original="#00d5fe"></path>
				<path style="" d="M247.81,259.272c-6.831,0-13.498,2.377-18.744,6.672c-0.62,0.534-1.424,1.242-2.151,1.97      c-5.577,5.599-8.649,13.021-8.649,20.902v33.822c0,3.562,2.898,6.459,6.46,6.459h46.17c2.294,0,4.431-1.23,5.584-3.22      c0.573-0.971,0.875-2.091,0.875-3.239v-33.822C277.355,272.526,264.101,259.272,247.81,259.272z" fill="#00d5fe" data-original="#00d5fe"></path>
			</g>
			<g style="opacity:0.25;">
				<path style="" d="M154.302,366.803c-0.825,2.767-3.369,4.753-6.404,4.753H97.672c-3.682,0-6.694-2.99-6.694-6.694      v-93.157c0-2.008,0.892-3.793,2.276-5.021c5.891,2.477,9.952,10.375,11.603,18.364c3.749,18.163,0.446,39.115,3.235,55.068      c3.749,21.443,27.557,5.512,40.298,15.352C151.536,357.9,153.499,361.961,154.302,366.803z" fill="#4217a6" data-original="#4217a6"></path>
				<path style="" d="M406.362,366.803c-0.825,2.767-3.369,4.753-6.404,4.753h-50.227c-3.682,0-6.694-2.99-6.694-6.694      v-93.157c0-2.008,0.892-3.793,2.276-5.021c5.89,2.477,9.951,10.375,11.603,18.364c3.749,18.163,0.446,39.115,3.235,55.068      c3.748,21.443,27.557,5.512,40.297,15.352C403.595,357.9,405.559,361.961,406.362,366.803z" fill="#4217a6" data-original="#4217a6"></path>
				<path style="" d="M277.71,326.603c-1.363,2.354-3.902,3.923-6.814,3.923h-46.17c-4.357,0-7.888-3.531-7.888-7.888      v-33.823c0-8.548,3.469-16.291,9.065-21.907c0.702-0.702,1.466-1.384,2.23-2.044c6.938,9.519-0.248,32.046,4.873,42.99      c3.056,6.525,9.085,5.369,15.114,6.009C257.867,314.895,273.497,316.877,277.71,326.603z" fill="#4217a6" data-original="#4217a6"></path>
			</g>
			<g>
				<path style="" d="M452.425,216.517l-0.935-3.481l-22.886-86.126c-0.5-1.914-2.241-3.263-4.22-3.263H71.242      c-1.675,0-3.154,0.957-3.894,2.393c-0.13,0.283-0.261,0.565-0.348,0.87l-23.8,89.607c-0.74,2.806,1.371,5.547,4.242,5.547H227.7      l20.101-11.769l20.101,11.769h180.28C451.054,222.064,453.165,219.323,452.425,216.517z" fill="#ffcf00" data-original="#ffcf00"></path>
				<path style="" d="M273.988,353.147c-4.772,0-8.64,3.868-8.64,8.64c0,4.772,3.868,8.64,8.64,8.64      c4.772,0,8.64-3.868,8.64-8.64C282.628,357.016,278.76,353.147,273.988,353.147z" fill="#ffcf00" data-original="#ffcf00"></path>
			</g>
			<path style="opacity:0.25;" d="M448.183,222.064h-180.28l-20.101-11.769L227.7,222.064H47.442     c-2.872,0-4.982-2.741-4.242-5.547L67,126.91c0.087-0.305,0.218-0.587,0.348-0.87c2.306,2.719,4.264,5.787,5.722,9.006     c10.29,22.494,0.696,44.64,11.878,55.322c4.503,4.307,11.182,5.264,17.382,5.917c103.334,10.856,186.241-4.721,313.091,4.938     c10.355,0.805,27.498,3.372,36.069,11.813l0.935,3.481C453.165,219.323,451.054,222.064,448.183,222.064z" fill="#fd8a02" data-original="#fd8a02" class=""></path>
			<g>
				<path style="" d="M84.056,129.574c-7.576,22.036-16.353,61.779-18.714,85.298      c-0.237,2.358,3.122,3.087,3.887,0.847c7.159-20.958,16.096-61.1,18.482-85.348C87.93,128.151,84.777,127.478,84.056,129.574z" fill="#fd8a02" data-original="#fd8a02" class=""></path>
				<path style="" d="M104.287,129.623c-7.198,22.812-14.752,62.988-16.39,85.301c-0.174,2.36,3.201,3.004,3.908,0.745      c6.551-20.909,14.429-61.156,16.157-85.345C108.12,128.107,104.955,127.504,104.287,129.623z" fill="#fd8a02" data-original="#fd8a02" class=""></path>
				<path style="" d="M124.519,129.671c-6.582,22.913-13.035,63.086-14.066,85.304      c-0.11,2.368,3.279,2.914,3.927,0.642c6.369-22.34,12.801-62.127,13.831-85.342C128.311,128.052,125.132,127.54,124.519,129.671      z" fill="#fd8a02" data-original="#fd8a02" class=""></path>
				<path style="" d="M144.753,129.72c-5.941,22.925-11.314,63.095-11.742,85.307      c-0.046,2.367,3.354,2.825,3.942,0.537c1.798-6.997,3.196-14.049,4.45-21.12c3.119-16.507,6.737-45.699,7.056-64.219      C148.498,128.003,145.309,127.574,144.753,129.72z" fill="#fd8a02" data-original="#fd8a02" class=""></path>
				<path style="" d="M164.987,129.77c-5.07,21.938-9.6,62.335-9.417,85.31c0.019,2.373,3.429,2.73,3.955,0.431      c4.937-21.562,9.418-61.651,9.181-85.336C168.685,127.948,165.486,127.614,164.987,129.77z" fill="#fd8a02" data-original="#fd8a02" class=""></path>
				<path style="" d="M185.224,129.82c-4.471,22.008-7.901,62.412-7.093,85.314c0.083,2.362,3.5,2.64,3.965,0.324      c4.341-21.593,7.736-61.741,6.856-85.333C188.87,127.907,185.665,127.647,185.224,129.82z" fill="#fd8a02" data-original="#fd8a02" class=""></path>
				<path style="" d="M205.461,129.871c-3.87,22.079-6.199,62.487-4.768,85.317c0.147,2.358,3.57,2.545,3.973,0.216      c3.745-21.628,6.062-61.68,4.531-85.33C209.054,127.861,205.844,127.687,205.461,129.871z" fill="#fd8a02" data-original="#fd8a02" class=""></path>
				<path style="" d="M229.44,130.024c-0.203-2.208-3.416-2.296-3.74-0.102c-3.394,23.012-4.466,62.892-2.443,85.32      c0.081,0.902,0.771,1.666,1.707,1.802c1.095,0.159,2.112-0.599,2.271-1.694c2.63-18.088,3.599-45.595,3.236-63.952      C230.354,144.28,230.098,137.157,229.44,130.024z" fill="#fd8a02" data-original="#fd8a02" class=""></path>
				<path style="" d="M249.673,129.977c-0.222-2.172-3.46-2.256-3.742,0c-2.605,21.839-2.742,59.123-0.5,81.71      l2.371-1.392l2.371,1.392c1.751-17.006,1.929-43.647,1.109-60.391C250.978,144.183,250.543,137.091,249.673,129.977z" fill="#fd8a02" data-original="#fd8a02" class=""></path>
				<path style="" d="M269.921,129.922c-0.323-2.194-3.536-2.107-3.74,0.102c-1.929,20.921-1.336,60.967,2.206,85.326      c0.13,0.897,0.861,1.622,1.802,1.707c1.102,0.099,2.076-0.713,2.175-1.815C274.511,191.44,272.967,150.567,269.921,129.922z" fill="#fd8a02" data-original="#fd8a02" class=""></path>
				<path style="" d="M290.16,129.871c-0.383-2.185-3.592-2.01-3.736,0.203c-1.448,22.372,0.628,62.789,4.531,85.33      c0.403,2.329,3.825,2.142,3.973-0.216c0.449-7.156,0.493-14.29,0.393-21.416C295.279,177.962,293.352,148.079,290.16,129.871z" fill="#fd8a02" data-original="#fd8a02" class=""></path>
				<path style="" d="M310.398,129.82c-0.442-2.175-3.646-1.911-3.729,0.305c-0.847,22.713,2.291,62.621,6.856,85.333      c0.178,0.889,0.948,1.574,1.893,1.607c1.106,0.039,2.033-0.826,2.072-1.931C318.286,192.592,315.048,152.716,310.398,129.82z" fill="#fd8a02" data-original="#fd8a02" class=""></path>
				<path style="" d="M330.634,129.77c-0.501-2.171-3.697-1.808-3.719,0.405c-0.137,13.675,1.224,29.681,2.569,42.888      c0.351,2.87,1.675,14.701,2.739,21.286c1.061,7.079,2.266,14.142,3.874,21.162c0.202,0.884,0.99,1.548,1.936,1.556      c1.106,0.009,2.01-0.881,2.019-1.987c0.057-7.201-0.287-14.358-0.776-21.5C338.37,177.725,334.816,147.864,330.634,129.77z" fill="#fd8a02" data-original="#fd8a02" class=""></path>
				<path style="" d="M350.869,129.72c-0.558-2.152-3.745-1.712-3.707,0.505c0.409,23.714,5.985,63.857,11.506,85.339      c0.589,2.294,3.988,1.825,3.942-0.537c-0.139-7.223-0.679-14.392-1.362-21.541C359.823,176.58,355.487,147.543,350.869,129.72z" fill="#fd8a02" data-original="#fd8a02" class=""></path>
				<path style="" d="M371.102,129.671c-0.614-2.139-3.79-1.612-3.692,0.603c1.056,23.796,7.726,63.927,13.831,85.342      c0.649,2.28,4.036,1.718,3.927-0.642c-0.336-7.245-1.071-14.425-1.949-21.582C381.448,177.495,376.266,147.648,371.102,129.671z      " fill="#fd8a02" data-original="#fd8a02" class=""></path>
				<path style="" d="M391.335,129.623c-0.668-2.118-3.833-1.515-3.675,0.701c1.705,23.86,9.468,63.995,16.157,85.345      c0.707,2.258,4.082,1.616,3.908-0.745C405.93,190.48,397.908,150.456,391.335,129.623z" fill="#fd8a02" data-original="#fd8a02" class=""></path>
				<path style="" d="M411.566,129.574c-0.726-2.11-3.873-1.41-3.655,0.797c2.321,23.585,11.099,63.733,18.482,85.348      c0.766,2.243,4.124,1.508,3.887-0.847C428.035,192.519,419.415,152.406,411.566,129.574z" fill="#fd8a02" data-original="#fd8a02" class=""></path>
			</g>
			<path style="opacity:0.25;" d="M297.167,423.723v1.383h-98.713c1.13-139.007-2.562-138.638,3.392-153.826     c16.203,19.874,9.706,62.741,9.706,102.506c0,22.379,6.142,38.051,28.003,37.486C256.2,410.826,294.11,407.814,297.167,423.723z" fill="#000e3f" data-original="#000e3f" class=""></path>
			<g>
				<path style="" d="M215.425,187.774c14.618-6.067,12.732-18.218,4.413-23.478      c-10.126-6.403-22.354-3.844-28.604,3.036C180.257,179.418,198.332,194.869,215.425,187.774z" fill="#fc09b2" data-original="#fc09b2" class=""></path>
				<path style="" d="M296.904,187.774c14.617-6.067,12.731-18.218,4.413-23.478      c-10.126-6.403-22.355-3.844-28.604,3.036C261.735,179.418,279.81,194.869,296.904,187.774z" fill="#fc09b2" data-original="#fc09b2" class=""></path>
				<path style="" d="M331.035,243.492l-79.839-46.728c-2.088-1.24-4.677-1.24-6.766,0l-79.839,46.728      c-3.198,1.871-4.264,5.961-2.393,9.159c1.871,3.176,5.961,4.264,9.159,2.393l7.831-4.59l68.614-40.159l68.614,40.159l7.853,4.59      c1.066,0.631,2.219,0.914,3.372,0.914c2.306,0,4.547-1.175,5.787-3.307C335.298,249.453,334.233,245.363,331.035,243.492z" fill="#fc09b2" data-original="#fc09b2" class=""></path>
			</g>
		</g>
		<g>
			<path style="" d="M97.673,372.009h50.231c3.171,0,5.916-2.042,6.828-5.084c0.196-0.665,0.299-1.379,0.299-2.064     v-93.153c0-3.941-3.198-7.148-7.127-7.148H97.673c-1.743,0-3.418,0.635-4.712,1.785c-1.549,1.356-2.436,3.311-2.436,5.363v93.153     C90.525,368.803,93.731,372.009,97.673,372.009z M94.27,297.714v-26.006c0-0.968,0.418-1.878,1.176-2.555     c0.632-0.555,1.402-0.847,2.226-0.847h23.243v29.409H94.27z M94.27,335.088v-33.608h26.645v33.608H94.27z M94.27,364.861v-26.007     h26.645v29.388H97.673C95.797,368.243,94.27,366.725,94.27,364.861z M124.663,297.714v-29.409h23.241     c1.864,0,3.381,1.526,3.381,3.402v26.006H124.663z M124.663,335.088v-33.608h26.623v33.608H124.663z M124.663,368.243v-29.388     h26.623v26.007c0,0.291-0.054,0.641-0.154,1.003c-0.423,1.423-1.72,2.379-3.227,2.379H124.663z" fill="#000e3f" data-original="#000e3f" class=""></path>
			<path style="" d="M399.953,264.56h-50.231c-1.743,0-3.373,0.618-4.713,1.789c-1.533,1.363-2.414,3.317-2.414,5.359     v93.153c0,3.941,3.198,7.148,7.127,7.148h50.231c3.187,0,5.938-2.042,6.849-5.084c0.196-0.665,0.299-1.379,0.299-2.064v-93.153     C407.1,267.766,403.894,264.56,399.953,264.56z M403.355,338.855v26.007c0,0.291-0.054,0.641-0.154,1.003     c-0.424,1.423-1.729,2.379-3.248,2.379h-23.22v-29.388H403.355z M403.355,301.481v33.608h-26.623v-33.608H403.355z      M403.355,271.708v26.006h-26.623v-29.409h23.22C401.829,268.305,403.355,269.831,403.355,271.708z M372.985,338.855v29.388     h-23.264c-1.864,0-3.38-1.518-3.38-3.382v-26.007H372.985z M372.985,301.481v33.608h-26.644v-33.608H372.985z M372.985,268.305     v29.409h-26.644v-26.006c0-0.982,0.41-1.89,1.147-2.552c0.654-0.557,1.428-0.851,2.233-0.851H372.985z" fill="#000e3f" data-original="#000e3f" class=""></path>
			<path style="" d="M454.227,216.031l-23.8-89.608c-0.723-2.732-3.208-4.64-6.043-4.64H71.241     c-2.361,0-4.498,1.311-5.578,3.425c-0.203,0.41-0.347,0.835-0.466,1.215l-23.799,89.627c-0.515,1.894-0.114,3.877,1.097,5.436     c1.157,1.528,3.007,2.44,4.946,2.44h17.325v194.494c0,4.72,3.85,8.562,8.585,8.562h348.921c4.734,0,8.585-3.842,8.585-8.562     V223.927h17.325c1.945,0,3.745-0.889,4.941-2.433C454.342,219.949,454.745,217.958,454.227,216.031z M247.801,238.041     c-13.662,0-26.523,5.324-36.212,14.991c-5.025,5.025-8.893,10.93-11.501,17.556c-2.328,5.979-3.509,12.264-3.509,18.676v133.974     h-15.507v-171.7l66.729-39.07l66.752,39.07v171.7h-15.505V289.264C299.047,261.019,276.058,238.041,247.801,238.041z      M200.325,289.264c0-5.952,1.103-11.774,3.276-17.308c2.357-6.089,5.94-11.564,10.645-16.268     c8.965-8.965,20.882-13.902,33.555-13.902c26.192,0,47.499,21.298,47.499,47.478v133.974h-94.975V289.264z M450.156,219.203     c-0.478,0.621-1.197,0.979-1.973,0.979H294.935l-42.793-25.044c-2.671-1.565-5.988-1.565-8.655,0l-42.796,25.044H47.441     c-0.791,0-1.517-0.357-1.993-0.977c-0.483-0.633-0.644-1.437-0.444-2.202l23.796-89.574c0.058-0.192,0.135-0.385,0.21-0.535     c0.42-0.84,1.276-1.362,2.231-1.362h353.143c1.125,0,2.12,0.767,2.417,1.864l22.863,86.126l0.935,3.48     c0.21,0.795,0.052,1.575-0.439,2.197L450.156,219.203z M68.535,223.927h125.751l-30.641,17.941     c-1.99,1.176-3.399,3.035-3.969,5.231c-0.57,2.214-0.254,4.519,0.894,6.495c2.386,4.081,7.648,5.462,11.73,3.077l5.025-2.935     v169.502H73.352c-2.655,0-4.817-2.161-4.817-4.817V223.927z M163.805,251.711c-0.639-1.118-0.816-2.421-0.499-3.668     c0.322-1.248,1.111-2.286,2.228-2.924l79.838-46.749c1.508-0.875,3.378-0.873,4.88-0.002l79.843,46.752     c1.088,0.623,1.88,1.663,2.224,2.921c0.319,1.255,0.135,2.557-0.518,3.667c-0.858,1.472-2.452,2.387-4.16,2.387     c-0.842,0-1.68-0.235-2.427-0.677l-76.457-44.756c-0.308-0.168-0.621-0.25-0.956-0.25s-0.672,0.093-0.943,0.257l-76.446,44.75     C168.116,254.764,165.156,253.99,163.805,251.711z M318.3,253.736l5.027,2.937c1.323,0.765,2.814,1.169,4.314,1.169     c3.033,0,5.874-1.628,7.414-4.248c1.146-1.974,1.465-4.281,0.894-6.5c-0.601-2.211-2.009-4.066-3.971-5.228l-30.639-17.94H427.09     v194.494c0,2.655-2.161,4.817-4.817,4.817H318.3V253.736z" fill="#000e3f" data-original="#000e3f" class=""></path>
			<path style="" d="M262.337,151.975h-0.012c-0.5,0.028-0.961,0.25-1.293,0.623c-0.334,0.373-0.502,0.854-0.476,1.355     c0.201,3.551-1.043,6.954-3.506,9.582c-2.399,2.555-5.734,4.038-9.237,4.064c-3.413,0-6.758-1.456-9.176-3.997     c-2.473-2.594-3.775-6.11-3.576-9.649c0.056-1.033-0.735-1.92-1.769-1.978c-1.031-0.068-1.918,0.739-1.978,1.768     c-0.257,4.565,1.421,9.103,4.606,12.449c3.124,3.278,7.458,5.158,11.893,5.158h0.121c4.435-0.035,8.757-1.948,11.853-5.249     c3.171-3.383,4.776-7.773,4.517-12.36C264.243,152.721,263.366,151.972,262.337,151.975z" fill="#000e3f" data-original="#000e3f" class=""></path>
			<path style="" d="M302.362,143.571l-7.351-2.58c0.34-0.877,0.595-1.71,0.775-2.533     c0.108-0.49,0.019-0.991-0.252-1.412c-0.27-0.422-0.688-0.712-1.173-0.819c-0.485-0.115-0.984-0.026-1.407,0.243     c-0.429,0.273-0.725,0.695-0.831,1.187c-1.363,6.212-6.619,10.514-11.954,9.794c-4.454-0.606-8.163-4.531-9.227-9.768     c-0.101-0.496-0.39-0.921-0.814-1.199c-0.418-0.275-0.917-0.369-1.398-0.264c-0.49,0.1-0.914,0.385-1.19,0.803     c-0.277,0.418-0.375,0.919-0.273,1.409c1.383,6.798,6.364,11.916,12.397,12.736c3.395,0.464,6.801-0.504,9.782-2.739l6.495,5.585     c0.341,0.292,0.775,0.453,1.223,0.453c0.549,0,1.068-0.238,1.423-0.653c0.327-0.382,0.487-0.866,0.448-1.365     c-0.039-0.501-0.268-0.954-0.648-1.279l-6.204-5.337c0.388-0.469,0.754-0.963,1.092-1.475l7.848,2.755     c0.973,0.339,2.056-0.201,2.389-1.15c0.164-0.472,0.137-0.982-0.081-1.434C303.215,144.077,302.835,143.737,302.362,143.571z" fill="#000e3f" data-original="#000e3f" class=""></path>
			<path style="" d="M226.886,136.22c-0.481-0.1-0.984-0.01-1.4,0.264c-0.424,0.278-0.712,0.704-0.814,1.199     c-1.064,5.236-4.773,9.162-9.225,9.768c-5.331,0.735-10.592-3.577-11.956-9.792c-0.107-0.494-0.402-0.915-0.831-1.188     c-0.425-0.268-0.926-0.353-1.402-0.245c-1.008,0.222-1.651,1.223-1.43,2.233c0.18,0.826,0.436,1.657,0.775,2.533l-7.351,2.58     c-0.473,0.166-0.852,0.506-1.069,0.959c-0.217,0.452-0.245,0.961-0.08,1.434c0.332,0.947,1.405,1.484,2.393,1.15l7.844-2.755     c0.338,0.513,0.704,1.006,1.092,1.475l-6.204,5.337c-0.784,0.672-0.873,1.857-0.2,2.645c0.355,0.415,0.873,0.653,1.423,0.653     c0.448,0,0.882-0.161,1.223-0.453l6.495-5.585c2.981,2.235,6.395,3.201,9.78,2.739c6.033-0.821,11.016-5.938,12.4-12.736     c0.1-0.492,0.002-0.992-0.275-1.411C227.798,136.605,227.376,136.32,226.886,136.22z" fill="#000e3f" data-original="#000e3f" class=""></path>
			<path style="" d="M278.101,326.82c0.737-1.262,1.127-2.71,1.127-4.185v-33.828c0-16.83-13.165-30.604-29.976-31.362     c-0.97-0.042-1.91-0.063-2.886-0.021c-6.837,0.324-13.239,2.772-18.528,7.096c-0.767,0.679-1.532,1.358-2.261,2.065     c-5.919,5.966-9.18,13.858-9.18,22.223v33.828c0,4.601,3.735,8.345,8.324,8.345h46.185     C273.86,330.981,276.617,329.386,278.101,326.82z M249.686,292.318v-31.1c14.504,0.966,25.796,12.994,25.796,27.589v3.511     H249.686z M274.845,324.958c-0.805,1.412-2.277,2.254-3.94,2.254h-21.22v-31.149h25.796v26.572     C275.483,323.441,275.262,324.242,274.845,324.958z M245.939,296.064v31.149h-21.218c-2.524,0-4.579-2.053-4.579-4.577v-26.572     H245.939z M245.939,261.22v31.098h-25.797v-3.511c0-7.379,2.874-14.327,8.093-19.567c0.602-0.602,1.264-1.182,1.796-1.649     l0.194-0.17C234.65,263.804,240.214,261.611,245.939,261.22z" fill="#000e3f" data-original="#000e3f" class=""></path>
			<path style="" d="M273.995,351.273c-5.8,0-10.521,4.72-10.521,10.52c0,5.8,4.72,10.521,10.521,10.521     c5.8,0,10.52-4.721,10.52-10.521C284.515,355.993,279.795,351.273,273.995,351.273z M280.747,361.793     c0,3.725-3.03,6.754-6.752,6.754c-3.735,0-6.775-3.029-6.775-6.754c0-3.735,3.04-6.773,6.775-6.773     C277.717,355.02,280.747,358.058,280.747,361.793z" fill="#000e3f" data-original="#000e3f" class=""></path>
		</g>
	</g>
	<g>
		<g>
			<g>
				<path style="" d="M171.695,420.839c-0.788-2.405-2.405-3.962-4.548-4.389c-3.754-0.765-8.729,2.065-13.609,7.739      c-2.488,2.896-4.712,5.513-6.722,7.878c-10.327,12.152-15.041,17.697-20.444,20.029c-0.986,0.427-2.061,0.406-2.947-0.047      c-1.003-0.516-1.689-1.53-1.988-2.932l-0.092-0.259c-1.525-3.051,5.396-15.311,11.504-26.127      c5.687-10.074,11.57-20.49,14.132-28.498c2.622-8.132,2.605-19.743-3.62-26.012c-3.153-3.195-5.708-3.429-9.112-0.839      c-2.834,2.167-5.211,4.667-7.066,7.431c-1.933,2.891-3.782,5.679-5.547,8.362c5.755-9.454,6.998-14.02,6.371-25.105      c-0.157-2.481-1.419-4.757-2.496-6.454c-1.848-2.946-4.531-4.848-7.554-5.36c-2.955-0.488-6.023,0.384-8.647,2.49      c-4.485,3.622-7.665,6.645-10.314,9.806c-19.959,23.877-31.121,39.566-37.573,49.388c1.891-3.433,3.276-6.943,3.155-10.1      c-0.523-13.539,4.767-22.417,11.465-33.658c1.336-2.241,2.732-4.582,4.154-7.079c5.037-8.84,2.742-19.543,0.937-22.513      c-2.56-4.251-4.723-7-7.578-7.58c-2.772-0.563-5.66,1.016-9.15,3.55c-5.442,3.96-11.328,10.214-16.864,17.342      c0.486-1.961,0.065-3.85-1.653-6.342c-6.826-9.9-15.184-14.967-21.763-13.223c-4.27,1.126-7.009,5.067-7.512,10.811      c-1.36,15.513,2.337,28.075,5.309,38.17c0.453,1.534,0.89,3.023,1.296,4.47c0.474,1.689,1.487,2.738,2.713,2.809      c0.04,0.002,0.083,0.002,0.125,0.002c0.114,0,0.242-0.014,0.377-0.036c-11.868,34.1,11.427,70.555,39.676,87.732      c11.506,6.998,25.542,11.867,39.936,11.867c15.598,0,31.616-5.723,45.272-20.66C169.981,443.05,173.96,427.737,171.695,420.839z       M90.97,432.891c-1.835,3.185-3.395,5.889-4.574,7.754c7.614-13.42,13.922-23.877,19.103-32.186      C98.737,419.417,94.114,427.437,90.97,432.891z M55.368,417.58c-0.96,1.585-1.784,2.945-2.354,3.731      c0.601-1.347,2.18-3.677,3.51-5.636c0.011-0.017,0.024-0.034,0.034-0.051C56.118,416.341,55.725,416.991,55.368,417.58z" fill="#db5e43" data-original="#db5e43"></path>
				<g style="opacity:0.25;">
					<path style="" d="M150.514,462.772c-13.468,14.731-32.61,23.223-52.218,19.9       c-18.831-3.206-35.155-11.078-49.225-24.855c-9.542-9.348-15.586-18.657-20.794-35.816c6.802,3.421,13.157,8.804,18.54,13.779       c12.827,11.815,25.011,22.407,43.493,22.834c11.446,0.271,21.085-3.654,30.064-9.27c0.796,3.731,3.925,4.839,6.432,3.75       c6.705-2.895,12.01-10.086,27.557-28.198C171.425,405.074,183.124,427.035,150.514,462.772z" fill="#000e3f" data-original="#000e3f" class=""></path>
					<path style="" d="M106.679,483.692c-2.823,0-5.641-0.232-8.435-0.706c-19.486-3.317-35.643-11.476-49.396-24.94       c-10.337-10.127-15.993-19.871-20.874-35.952l-0.216-0.709l0.66,0.333c7.096,3.568,13.676,9.265,18.615,13.83       c11.352,10.457,24.222,22.308,43.283,22.749c9.927,0.221,19.449-2.692,29.888-9.221l0.385-0.241l0.094,0.444       c0.442,2.066,1.544,3.019,2.389,3.455c1.1,0.565,2.408,0.59,3.608,0.068c5.567-2.402,10.319-7.994,20.73-20.244       c2.006-2.363,4.229-4.976,6.712-7.869c4.693-5.451,9.393-8.188,12.874-7.485c1.887,0.376,3.26,1.716,3.968,3.875       c2.374,7.23-2.957,22.992-20.214,41.908h-0.002C138.583,476.294,122.59,483.692,106.679,483.692z M28.8,422.627       c4.797,15.542,10.396,25.072,20.495,34.964c13.656,13.371,29.701,21.473,49.054,24.769       c18.349,3.101,37.754-4.298,51.929-19.802l0,0c17.088-18.724,22.399-34.225,20.082-41.28c-0.633-1.929-1.84-3.121-3.489-3.45       c-3.24-0.643-7.725,2-12.268,7.276c-2.48,2.891-4.703,5.504-6.709,7.865c-10.478,12.328-15.26,17.956-20.961,20.416       c-1.373,0.598-2.888,0.565-4.152-0.087c-1.256-0.647-2.173-1.863-2.612-3.453c-10.009,6.19-19.184,9.099-28.741,9.099       c-0.375,0-0.75-0.005-1.127-0.014c-19.3-0.446-32.264-12.385-43.701-22.918C41.848,431.621,35.571,426.175,28.8,422.627z" fill="#000e3f" data-original="#000e3f" class=""></path>
				</g>
			</g>
			<g>
				<path style="" d="M171.943,417.899c-1.501-2.132-3.285-3.22-5.439-3.328h-0.326      c-7.527,0-17.86,12.139-26.192,21.928c-6.135,7.222-11.443,13.466-14.445,13.531c-0.566-0.022-1.044-0.174-1.436-0.609      c-2.741-2.915,2.589-12.335,9.355-24.256c7.81-13.814,17.534-31,17.012-42.878c-0.196-5.112-2.328-12.204-6.004-15.859      c-5.243-5.265-13.923,1.458-14.01,1.523l-0.152,0.109l-0.152-0.087c-0.217-0.109-0.283-0.131-0.174-5.004v-0.413      c0.022-6.613-2.98-14.706-9.659-16.86c-6.635-2.153-12.487,0.326-18.992,8.006c-14.989,17.665-21.472,26.323-25.344,31.479      c-3.481,4.677-5.069,6.809-8.963,10.442l-0.348,0.326l-0.109-0.457c-2.088-8.919,4.699-19.992,9.202-27.324l0.392-0.653      c7.179-11.769,13.923-22.842,3.698-37.614c-1.719-2.502-3.959-3.959-6.526-4.22c-8.892-0.909-14.997,10.213-23.56,16.207      c-5.129-4.635-12.099-15.598-23.342-15.598c-3.829,0-8.376,2.415-10.377,7.353c-5.353,13.26,2.348,38.142,6.483,51.841      c3.662,12.134-2.709,12.325,1.621,32.061c2.225,10.14,6.285,19.964,11.912,28.689c3.455,5.357,7.551,10.315,12.311,14.564      c32.806,29.281,70.18,33.11,97.526,9.964c7.853-6.635,14.88-15.032,20.319-24.3      C172.312,436.063,177.229,425.426,171.943,417.899z M29.037,330.054c6.2,1.218,13.053,7.179,17.012,14.837      c2.432,4.637-4.704,6.789-16.599,30.956c-1.24,2.524-2.11,4.329-3.328,6.005l-0.196,0.283l-0.217-0.261      C22.655,378.349,6.948,325.7,29.037,330.054z M139.724,471.894c-10.116,7.374-21.298,11.116-33.262,11.116      c-10.703,0-22.103-2.98-33.894-8.854c-27.237-13.51-43.03-36.134-46.925-67.265c-3.14-24.968,33.818-78.316,46.576-78.316h0.196      c2.263,0.087,3.764,1.588,4.677,2.72c9.18,11.073,3.785,22.951-2.719,33.11c-10.616,16.664-11.073,24.583-11.443,30.957      c-0.261,4.59-0.479,8.528-4.416,14.358c-5.536,8.248-8.958,12.854-6.42,13.819c0.981,0.373,1.17-0.083,5.049-6.162      c8.376-13.14,37.57-55.17,52.581-67.157c4.155-3.307,9.812-3.089,13.183,0.5c10.029,10.769-0.392,27.454-6.613,37.418      l-0.435,0.696c-7.31,11.747-15.141,24.343-22.734,37.048c-0.914,1.545-1.914,3.111-2.872,4.655      c-2.589,4.068-5.243,8.267-7.027,12.618c-0.283,0.718,0.065,1.262,0.522,1.545c0.435,0.283,1.088,0.348,1.523-0.13      c1.871-1.98,8.375-12.988,14.684-23.669c22.277-37.592,31.283-51.906,37.461-53.212c1.892-0.392,3.633,0.196,5.177,1.74      c3.894,3.894,5.525,13.053,4.351,18.644c-2.284,11.138-9.18,22.951-15.25,33.371c-6.7,11.465-12.465,21.363-11.399,28.238      c0.283,1.871,1.371,3.198,3.024,3.764c2.241,0.761,5.112,0.022,7.135-1.849c5.939-5.613,11.291-11.769,16.011-17.186      c9.093-10.464,16.294-18.752,21.602-15.707c1.805,1.022,2.785,2.893,2.937,5.504      C171.638,435.824,155.54,460.342,139.724,471.894z" fill="#000e3f" data-original="#000e3f" class=""></path>
				<path style="" d="M105.79,486.104c-18.91,0-39-8.445-57.625-25.068c-4.586-4.092-8.745-9.013-12.368-14.629      c-5.592-8.672-9.726-18.629-11.956-28.794c-2.332-10.628-1.557-15.738-0.936-19.845c0.539-3.554,1.003-6.625-0.678-12.191      l-0.246-0.817c-4.308-14.262-11.516-38.131-6.227-51.235c2.116-5.217,6.883-7.552,10.672-7.552      c8.941,0,15.303,6.914,19.948,11.963c1.217,1.32,2.366,2.571,3.419,3.546c2.796-1.993,5.343-4.54,7.807-7.004      c4.708-4.705,9.17-9.166,14.702-9.166c0.35,0,0.703,0.017,1.06,0.053c2.647,0.271,4.983,1.777,6.756,4.358      c10.347,14.948,3.528,26.125-3.69,37.959l-0.39,0.651c-4.459,7.259-11.188,18.213-9.185,27.01      c3.846-3.593,5.428-5.718,8.874-10.352l0.132-0.175c3.888-5.178,10.396-13.844,25.225-31.319      c6.6-7.795,12.566-10.298,19.333-8.103c6.818,2.2,9.9,10.44,9.88,17.165v0.412c-0.062,2.746-0.079,4.34,0.002,4.7      c1.068-0.805,9.222-6.652,14.394-1.466c3.739,3.718,5.897,10.9,6.096,16.071c0.524,11.958-9.214,29.179-17.038,43.016      c-6.448,11.368-12.003,21.159-9.415,23.912c0.305,0.338,0.668,0.489,1.217,0.509c2.843-0.063,8.355-6.55,14.19-13.419      c8.358-9.819,18.756-22.04,26.436-22.04h0.325c2.279,0.114,4.139,1.246,5.698,3.464l0,0c5.378,7.659,0.435,18.419-5.708,28.906      c-5.448,9.286-12.497,17.717-20.385,24.384C134.168,481.112,120.325,486.104,105.79,486.104z M26.426,326.608      c-3.575,0-8.08,2.212-10.081,7.155c-5.207,12.895,1.962,36.631,6.245,50.813l0.248,0.817c1.721,5.703,1.246,8.839,0.695,12.471      c-0.646,4.266-1.376,9.1,0.929,19.613c2.215,10.092,6.319,19.977,11.871,28.585c3.588,5.567,7.712,10.446,12.254,14.499      c32.688,29.175,69.901,32.994,97.11,9.959c7.836-6.621,14.838-14.996,20.251-24.22c6.034-10.303,10.905-20.853,5.733-28.219l0,0      c-1.438-2.046-3.136-3.09-5.192-3.193h-0.31c-7.384,0-17.679,12.097-25.952,21.817c-6.188,7.284-11.531,13.573-14.679,13.643      c-0.737-0.027-1.264-0.255-1.678-0.715c-2.905-3.089,2.485-12.592,9.314-24.625c7.802-13.797,17.488-30.929,16.971-42.707      c-0.194-5.049-2.287-12.044-5.91-15.647c-4.934-4.951-13.239,1.276-13.587,1.543l-0.333,0.24l-0.33-0.189      c-0.402-0.201-0.447-0.222-0.333-5.286v-0.406c0.02-6.503-2.925-14.457-9.438-16.558c-6.486-2.106-12.241,0.336-18.652,7.908      c-14.818,17.46-21.319,26.117-25.202,31.291l-0.132,0.174c-3.486,4.684-5.078,6.822-9.001,10.483l-0.745,0.701l-0.236-0.989      c-2.123-9.067,4.715-20.199,9.239-27.565l0.39-0.649c7.109-11.654,13.82-22.66,3.71-37.268      c-1.664-2.423-3.841-3.836-6.297-4.086c-0.33-0.035-0.658-0.051-0.983-0.051c-5.284,0-9.654,4.37-14.265,8.98      c-2.545,2.545-5.177,5.177-8.099,7.223l-0.206,0.145l-0.189-0.17c-1.125-1.017-2.349-2.348-3.648-3.758      C41.088,333.127,35.09,326.608,26.426,326.608z M106.463,483.328c-10.746,0-22.198-2.991-34.037-8.888      c-27.345-13.563-43.192-36.278-47.097-67.51c-2.294-18.238,16.398-50.527,30.772-66.823c6.741-7.641,12.465-11.85,16.12-11.85      h0.196c1.835,0.071,3.441,0.998,4.924,2.837c9.319,11.238,3.864,23.232-2.699,33.482c-10.568,16.59-11.024,24.467-11.392,30.798      c-0.263,4.642-0.489,8.63-4.472,14.523l-1.443,2.142c-3.59,5.324-6.188,9.17-5.723,10.635c0.084,0.266,0.276,0.447,0.596,0.57      c0.638,0.237,0.807,0.03,3.839-4.734l0.829-1.304c8.38-13.149,37.61-55.223,52.652-67.233      c4.278-3.404,10.128-3.176,13.612,0.531c10.195,10.945-0.3,27.752-6.57,37.795l-0.442,0.705      c-7.439,11.961-15.131,24.33-22.727,37.042c-0.651,1.101-1.348,2.215-2.041,3.323l-0.834,1.337      c-2.433,3.821-5.189,8.149-7.005,12.57c-0.258,0.658,0.191,1.027,0.397,1.155c0.241,0.158,0.755,0.323,1.122-0.076      c1.857-1.969,8.651-13.469,14.645-23.616c22.32-37.667,31.348-52.026,37.669-53.361c1.991-0.42,3.839,0.199,5.468,1.826      c3.98,3.981,5.626,13.279,4.435,18.934c-2.284,11.147-9.155,22.943-15.216,33.35l-0.067,0.115      c-6.662,11.396-12.415,21.237-11.362,28.029c0.263,1.734,1.261,2.981,2.813,3.511c2.148,0.729,4.882,0.011,6.816-1.782      c5.833-5.512,11.111-11.566,15.767-16.907l0.223-0.255c9.199-10.586,16.465-18.949,21.999-15.774      c1.892,1.073,2.932,3.011,3.096,5.76c0.633,11.694-15.514,36.347-31.412,47.963h-0.002      C129.738,479.568,118.486,483.328,106.463,483.328z M72.404,328.893H72.22c-3.469,0-9.026,4.132-15.643,11.634      c-14.295,16.206-32.89,48.272-30.618,66.324c3.878,31.008,19.606,53.557,46.75,67.021c11.752,5.852,23.107,8.821,33.754,8.821      c11.884,0,23.012-3.721,33.076-11.055h-0.002c15.767-11.516,31.78-35.888,31.154-47.413c-0.149-2.519-1.083-4.284-2.776-5.244      c-5.078-2.913-12.194,5.265-21.202,15.635l-0.226,0.259c-4.666,5.351-9.954,11.417-15.812,16.953      c-2.103,1.95-5.1,2.719-7.454,1.918c-1.788-0.61-2.937-2.036-3.238-4.016c-1.088-7.013,4.718-16.945,11.439-28.445l0.067-0.115      c6.039-10.365,12.879-22.113,15.146-33.159c1.157-5.497-0.422-14.513-4.263-18.355c-1.467-1.467-3.119-2.024-4.889-1.654      c-6.068,1.281-15.037,15.57-37.252,53.063c-6.304,10.672-12.822,21.707-14.727,23.725c-0.559,0.616-1.393,0.526-1.929,0.179      c-0.541-0.338-1.001-1.024-0.643-1.928c1.837-4.478,4.608-8.831,7.054-12.671l0.834-1.337c0.69-1.104,1.383-2.212,2.034-3.31      c7.598-12.72,15.293-25.091,22.734-37.055l0.439-0.698c6.175-9.895,16.507-26.444,6.647-37.033      c-3.253-3.46-8.733-3.662-12.75-0.468c-14.98,11.961-44.147,53.953-52.513,67.079l-0.829,1.302      c-3.191,5.009-3.461,5.428-4.598,4.986c-0.507-0.191-0.834-0.518-0.978-0.971c-0.556-1.758,1.837-5.306,5.803-11.183l1.443-2.14      c3.883-5.749,4.104-9.655,4.363-14.179c0.372-6.428,0.834-14.399,11.491-31.129c6.441-10.057,11.802-21.811,2.741-32.737      C75.485,329.805,74.033,328.955,72.404,328.893z M25.952,382.659l-0.487-0.582c-2.24-2.584-12.904-36.619-6.031-48.465      c1.994-3.439,5.247-4.744,9.664-3.87c6.309,1.24,13.234,7.269,17.234,15.002c1.323,2.524,0.035,4.322-3.081,8.666      c-3.052,4.257-7.665,10.69-13.515,22.578l-0.127,0.259c-1.184,2.41-2.039,4.152-3.233,5.792L25.952,382.659z M26.61,330.119      c-2.932,0-5.155,1.276-6.625,3.811c-6.721,11.582,3.613,44.735,5.917,47.68c1.145-1.585,1.981-3.292,3.136-5.644l0.127-0.259      c5.872-11.934,10.506-18.394,13.57-22.668c3.039-4.237,4.176-5.823,3.034-8c-3.916-7.572-10.664-13.468-16.795-14.673l0,0      C28.142,330.201,27.353,330.119,26.61,330.119z" fill="#000e3f" data-original="#000e3f" class=""></path>
			</g>
		</g>
		<g>
			<g>
				<path style="" d="M344.08,463.504c13.656,14.937,29.674,20.66,45.272,20.66c14.393,0,28.43-4.869,39.936-11.867      c28.249-17.177,51.544-53.632,39.676-87.732c0.135,0.023,0.263,0.036,0.377,0.036c0.042,0,0.085,0,0.125-0.002      c1.226-0.07,2.239-1.12,2.713-2.809c0.406-1.447,0.843-2.936,1.296-4.47c2.972-10.096,6.669-22.658,5.309-38.17      c-0.504-5.744-3.242-9.685-7.512-10.811c-6.58-1.744-14.937,3.323-21.763,13.223c-1.719,2.492-2.139,4.38-1.653,6.342      c-5.536-7.129-11.422-13.382-16.864-17.342c-3.49-2.534-6.378-4.113-9.15-3.55c-2.855,0.58-5.018,3.329-7.578,7.58      c-1.806,2.97-4.1,13.673,0.937,22.513c1.422,2.496,2.817,4.837,4.154,7.079c6.698,11.241,11.988,20.119,11.466,33.658      c-0.121,3.157,1.264,6.666,3.155,10.1c-6.452-9.821-17.614-25.511-37.573-49.388c-2.649-3.161-5.829-6.184-10.314-9.806      c-2.624-2.106-5.692-2.978-8.647-2.49c-3.023,0.512-5.706,2.414-7.555,5.36c-1.077,1.697-2.339,3.973-2.496,6.454      c-0.627,11.085,0.616,15.651,6.371,25.105c-1.765-2.683-3.614-5.471-5.547-8.362c-1.855-2.764-4.232-5.264-7.066-7.431      c-3.404-2.59-5.959-2.356-9.112,0.839c-6.225,6.269-6.242,17.879-3.62,26.012c2.562,8.007,8.445,18.423,14.132,28.498      c6.108,10.816,13.029,23.076,11.504,26.127l-0.092,0.259c-0.299,1.402-0.986,2.415-1.988,2.932      c-0.886,0.452-1.961,0.473-2.947,0.047c-5.402-2.333-10.117-7.877-20.444-20.029c-2.01-2.365-4.234-4.982-6.722-7.878      c-4.88-5.674-9.855-8.504-13.609-7.739c-2.144,0.427-3.76,1.984-4.548,4.389C321.437,427.737,325.416,443.05,344.08,463.504z       M389.898,408.46c5.182,8.309,11.489,18.765,19.103,32.186c-1.179-1.865-2.739-4.57-4.574-7.754      C401.283,427.437,396.66,419.417,389.898,408.46z M438.839,415.623c0.011,0.017,0.023,0.034,0.034,0.051      c1.33,1.959,2.908,4.289,3.51,5.636c-0.57-0.786-1.394-2.146-2.354-3.731C439.672,416.991,439.279,416.341,438.839,415.623z" fill="#db5e43" data-original="#db5e43"></path>
				<path style="opacity:0.25;" d="M344.883,462.772c13.468,14.731,32.61,23.223,52.218,19.9      c18.831-3.206,35.155-11.078,49.225-24.855c9.542-9.348,15.586-18.657,20.794-35.816c-6.802,3.421-13.157,8.804-18.54,13.779      c-12.827,11.815-25.011,22.407-43.493,22.834c-11.446,0.271-21.085-3.654-30.064-9.27c-0.796,3.731-3.925,4.839-6.432,3.75      c-6.705-2.895-12.01-10.086-27.557-28.198C323.973,405.074,312.274,427.035,344.883,462.772z" fill="#000e3f" data-original="#000e3f" class=""></path>
			</g>
			<g>
				<path style="" d="M479.348,333.643c-2.001-4.938-6.548-7.353-10.377-7.353c-11.244,0-18.213,10.963-23.343,15.598      c-8.563-5.994-14.668-17.116-23.56-16.207c-2.567,0.261-4.808,1.719-6.526,4.22c-10.225,14.771-3.481,25.844,3.698,37.614      l0.391,0.653c4.503,7.332,11.291,18.404,9.202,27.324l-0.109,0.457l-0.348-0.326c-3.894-3.633-5.482-5.765-8.963-10.442      c-3.872-5.156-10.355-13.814-25.344-31.479c-6.504-7.68-12.356-10.159-18.992-8.006c-6.679,2.154-9.681,10.247-9.659,16.86      v0.413c0.109,4.873,0.044,4.895-0.174,5.004l-0.152,0.087l-0.152-0.109c-0.087-0.065-8.767-6.787-14.01-1.523      c-3.677,3.655-5.808,10.747-6.004,15.859c-0.522,11.878,9.202,29.064,17.012,42.878c6.766,11.922,12.096,21.341,9.355,24.256      c-0.392,0.435-0.87,0.588-1.436,0.609c-3.002-0.065-8.31-6.309-14.445-13.531c-8.332-9.789-18.665-21.928-26.192-21.928h-0.326      c-2.154,0.109-3.937,1.196-5.439,3.328c-5.286,7.527-0.37,18.165,5.722,28.564c5.439,9.267,12.465,17.665,20.318,24.3      c27.346,23.147,64.72,19.318,97.526-9.964c4.76-4.249,8.857-9.208,12.311-14.564c5.627-8.725,9.688-18.549,11.913-28.689      c4.33-19.735-2.041-19.926,1.621-32.061C476.999,371.785,484.7,346.903,479.348,333.643z M469.754,406.891      c-3.894,31.131-19.688,53.755-46.925,67.265c-11.791,5.874-23.19,8.854-33.894,8.854c-11.965,0-23.147-3.742-33.263-11.116      c-15.816-11.552-31.914-36.07-31.283-47.686c0.152-2.61,1.131-4.482,2.937-5.504c5.308-3.045,12.509,5.243,21.602,15.707      c4.721,5.417,10.072,11.573,16.011,17.186c2.023,1.871,4.895,2.61,7.136,1.849c1.653-0.566,2.741-1.893,3.024-3.764      c1.066-6.875-4.699-16.773-11.399-28.238c-6.069-10.42-12.966-22.233-15.25-33.371c-1.175-5.591,0.457-14.749,4.351-18.644      c1.545-1.544,3.285-2.132,5.178-1.74c6.178,1.305,15.185,15.62,37.461,53.212c6.309,10.681,12.814,21.689,14.684,23.669      c0.435,0.478,1.088,0.413,1.523,0.13c0.457-0.283,0.805-0.827,0.522-1.545c-1.784-4.351-4.438-8.549-7.027-12.618      c-0.957-1.545-1.958-3.111-2.872-4.655c-7.592-12.704-15.424-25.3-22.734-37.048l-0.435-0.696      c-6.222-9.964-16.642-26.649-6.613-37.418c3.372-3.59,9.028-3.807,13.183-0.5c15.011,11.987,44.205,54.017,52.581,67.157      c3.879,6.079,4.068,6.535,5.049,6.162c2.539-0.965-0.884-5.572-6.42-13.819c-3.937-5.83-4.155-9.768-4.416-14.358      c-0.37-6.374-0.827-14.293-11.443-30.957c-6.505-10.159-11.9-22.037-2.72-33.11c0.914-1.131,2.415-2.632,4.677-2.72h0.196      C435.936,328.574,472.893,381.923,469.754,406.891z M469.689,381.873l-0.217,0.261l-0.196-0.283      c-1.218-1.675-2.088-3.481-3.328-6.005c-11.894-24.167-19.031-26.32-16.599-30.956c3.959-7.658,10.812-13.619,17.012-14.837      C488.45,325.7,472.743,378.349,469.689,381.873z" fill="#000e3f" data-original="#000e3f" class=""></path>
				<path style="" d="M389.608,486.104c-14.538,0-28.376-4.991-40.319-15.099      c-7.888-6.666-14.938-15.097-20.385-24.382c-6.145-10.489-11.087-21.249-5.711-28.907c1.562-2.217,3.422-3.35,5.686-3.464h0.34      c7.672,0,18.074,12.218,26.429,22.034c5.842,6.875,11.355,13.362,14.218,13.426c0.521-0.02,0.896-0.176,1.192-0.504      c2.595-2.76-2.962-12.55-9.396-23.888c-7.846-13.879-17.577-31.093-17.053-43.048c0.199-5.172,2.356-12.354,6.098-16.071      c5.165-5.189,13.331,0.668,14.389,1.467c0.084-0.288,0.067-1.892,0.005-4.693v-0.421c-0.02-6.724,3.062-14.964,9.88-17.164      c6.771-2.191,12.73,0.309,19.333,8.104c14.828,17.474,21.336,26.14,25.225,31.318l0.129,0.174      c3.449,4.634,5.031,6.761,8.877,10.353c2.004-8.789-4.725-19.748-9.182-27.007l-0.395-0.654      c-7.216-11.833-14.034-23.01-3.685-37.959c1.77-2.58,4.107-4.086,6.754-4.356c6.054-0.601,10.759,4.112,15.762,9.113      c2.463,2.464,5.011,5.012,7.806,7.004c1.053-0.975,2.205-2.226,3.419-3.547c4.646-5.048,11.007-11.962,19.948-11.962      c3.789,0,8.556,2.335,10.672,7.552l0,0c5.289,13.104-1.919,36.973-6.227,51.235l-0.246,0.817      c-1.681,5.566-1.217,8.636-0.678,12.191c0.621,4.106,1.393,9.216-0.939,19.845c-2.232,10.169-6.364,20.126-11.953,28.794      c-3.628,5.62-7.789,10.543-12.368,14.629C428.61,477.657,408.518,486.104,389.608,486.104z M328.894,414.888      c-2.039,0.103-3.739,1.147-5.18,3.193c-5.172,7.363-0.298,17.915,5.736,28.22c5.413,9.223,12.415,17.598,20.251,24.218      c27.206,23.035,64.419,19.216,97.11-9.958c4.534-4.049,8.658-8.926,12.254-14.499c5.549-8.605,9.654-18.49,11.869-28.585      c2.307-10.514,1.574-15.349,0.931-19.614c-0.551-3.63-1.025-6.766,0.695-12.47l0.248-0.817      c4.283-14.182,11.452-37.918,6.245-50.813c-2.001-4.942-6.505-7.155-10.081-7.155c-8.663,0-14.662,6.519-19.481,11.757      c-1.296,1.41-2.523,2.742-3.648,3.759l-0.189,0.17l-0.206-0.145c-2.922-2.046-5.554-4.678-8.1-7.223      c-4.894-4.894-9.525-9.545-15.248-8.929c-2.456,0.25-4.633,1.662-6.294,4.085c-10.113,14.61-3.402,25.616,3.705,37.268      l0.395,0.653c4.522,7.367,11.36,18.503,9.239,27.56l-0.238,0.992l-0.747-0.701c-3.921-3.661-5.512-5.799-9.001-10.484      l-0.129-0.173c-3.883-5.173-10.384-13.83-25.202-31.289c-6.411-7.574-12.164-10.016-18.652-7.91      c-6.513,2.101-9.458,10.055-9.438,16.557v0.415c0.114,5.057,0.07,5.078-0.348,5.286l-0.315,0.181l-0.318-0.228      c-0.365-0.278-8.681-6.498-13.599-1.556c-3.625,3.602-5.718,10.597-5.912,15.647c-0.516,11.774,9.165,28.901,16.944,42.661      c6.853,12.078,12.249,21.582,9.336,24.677c-0.41,0.456-0.936,0.683-1.654,0.71c-3.168-0.07-8.512-6.359-14.702-13.643      c-8.276-9.723-18.57-21.817-25.95-21.817H328.894z M388.935,483.328c-12.023,0-23.275-3.76-33.448-11.177      c-15.901-11.615-32.048-36.269-31.415-47.961c0.164-2.751,1.204-4.689,3.099-5.763c5.552-3.17,12.802,5.192,21.994,15.772      l0.156,0.18c4.675,5.365,9.974,11.445,15.839,16.987c1.934,1.79,4.671,2.508,6.813,1.779c1.552-0.53,2.55-1.777,2.811-3.51      c1.055-6.793-4.698-16.635-11.36-28.03l-0.077-0.134c-6.058-10.401-12.924-22.192-15.208-33.334      c-1.189-5.652,0.457-14.951,4.44-18.931c1.629-1.63,3.466-2.238,5.465-1.827c6.317,1.335,15.347,15.694,37.669,53.361      c5.994,10.148,12.787,21.648,14.642,23.613c0.315,0.35,0.802,0.289,1.117,0.082c0.214-0.13,0.663-0.499,0.402-1.161      c-1.803-4.395-4.564-8.735-7-12.564l-0.837-1.34c-0.693-1.109-1.39-2.222-2.041-3.325      c-7.722-12.921-15.695-25.736-22.732-37.042l-0.435-0.695c-6.272-10.044-16.77-26.855-6.575-37.802      c3.486-3.71,9.336-3.937,13.614-0.533c15.042,12.01,44.272,54.084,52.652,67.233l0.829,1.304      c3.017,4.739,3.186,4.982,3.839,4.734c0.32-0.123,0.509-0.304,0.593-0.57c0.464-1.466-2.133-5.317-5.731-10.647l-1.433-2.129      c-3.983-5.893-4.209-9.881-4.469-14.498c-0.37-6.355-0.827-14.232-11.394-30.823c-6.563-10.25-12.018-22.244-2.699-33.484      c1.485-1.836,3.091-2.764,4.911-2.834h0.209c3.655,0,9.378,4.209,16.12,11.85c14.374,16.296,33.063,48.585,30.772,66.823l0,0      c-3.906,31.232-19.752,53.947-47.097,67.51C411.133,480.337,399.681,483.328,388.935,483.328z M329.723,418.383      c-0.785,0-1.532,0.19-2.237,0.596c-1.696,0.961-2.629,2.726-2.778,5.247c-0.626,11.524,15.387,35.895,31.154,47.411      c10.061,7.336,21.19,11.055,33.073,11.055c10.647,0,22.002-2.968,33.754-8.821c27.144-13.464,42.871-36.013,46.75-67.021l0,0      c2.272-18.053-16.323-50.118-30.618-66.324c-6.617-7.502-12.174-11.634-15.643-11.634h-0.196      c-1.614,0.062-3.066,0.912-4.43,2.601c-9.06,10.929-3.7,22.682,2.741,32.739c10.657,16.73,11.119,24.701,11.491,31.104      c0.258,4.549,0.479,8.455,4.363,14.204l1.435,2.129c3.968,5.883,6.366,9.435,5.808,11.195c-0.144,0.453-0.472,0.78-0.973,0.971      c-1.152,0.443-1.41,0.024-4.601-4.986l-0.829-1.302c-8.365-13.126-37.533-55.119-52.513-67.079      c-4.015-3.194-9.495-2.992-12.753,0.469c-9.862,10.591,0.474,27.143,6.652,37.031l0.435,0.698      c7.037,11.309,15.01,24.126,22.737,37.054c0.651,1.099,1.343,2.207,2.034,3.311l0.837,1.34      c2.448,3.849,5.224,8.212,7.049,12.664c0.36,0.909-0.099,1.594-0.651,1.935c-0.526,0.341-1.356,0.437-1.924-0.187      c-1.899-2.012-8.417-13.048-14.722-23.721c-22.218-37.492-31.186-51.78-37.252-53.063c-1.78-0.369-3.422,0.191-4.887,1.655      c-3.844,3.841-5.423,12.857-4.268,18.353c2.264,11.042,9.103,22.784,15.136,33.144l0.079,0.133      c6.721,11.5,12.527,21.432,11.437,28.446c-0.298,1.979-1.448,3.405-3.235,4.015c-2.351,0.801-5.346,0.03-7.451-1.916      c-5.89-5.564-11.198-11.659-15.884-17.035l-0.151-0.176C340.934,425.693,334.582,418.383,329.723,418.383z M469.446,382.658      l-0.432-0.626c-1.187-1.633-2.041-3.374-3.223-5.784l-0.129-0.261c-5.85-11.887-10.463-18.321-13.515-22.578      c-3.116-4.344-4.405-6.142-3.079-8.667c3.998-7.732,10.923-13.761,17.229-15.001c4.432-0.874,7.67,0.433,9.666,3.871      c6.87,11.843-3.784,45.859-6.031,48.467L469.446,382.658z M468.785,330.119c-0.742,0-1.53,0.082-2.364,0.246      c-6.128,1.206-12.874,7.101-16.79,14.672c-1.145,2.179-0.007,3.764,3.032,8.001c3.064,4.274,7.697,10.734,13.57,22.668      l0.129,0.261c1.155,2.355,1.994,4.065,3.131,5.644c2.302-2.934,12.641-36.096,5.919-47.68      C473.942,331.395,471.717,330.119,468.785,330.119z" fill="#000e3f" data-original="#000e3f" class=""></path>
			</g>
		</g>
	</g>
	<g>
		<path style="" d="M314.514,71.215c0.469,3.758,0.704,6.626,0.69,10.268l-0.038,0.004    c-1.285,0.224-2.916,0.599-4.239,0.392l-0.038,0.002c-0.907-3.287-0.91-6.689-1.684-10.265c-1.526-0.308-3.402,0.48-5.002,0.294    l-0.077,0.007l-0.038,0.004l0.004,0.038c0.507,8.03,2.139,22.931,2.821,27.345c0.9-0.591,4.088,0.173,5.324-0.681    c0.238-3.341-0.654-6.908-0.637-10.55c1.502-0.481,2.996-0.604,4.55-0.457l0.042,0.035c0.714,3.345,0.686,7.342,1.488,10.799    l0.042-0.004c1.288-0.226,3.7-0.228,5.482-0.693l-3.343-27.419C318.277,70.349,315.813,70.671,314.514,71.215z" fill="#000e3f" data-original="#000e3f" class=""></path>
		<path style="" d="M340.862,74.416c-0.325-0.903-0.886-1.726-1.638-2.387c-3.059-2.293-7.953-2.321-11.401-0.592    c-0.357,0.2-0.63,0.441-0.903,0.719c-1.596,1.871-2.002,4.398-2.02,6.763c-0.234,4.143,0.126,8.279,0.329,12.376    c0.053,1.536,0.228,3.073,0.991,4.367c0.969,2.079,3.059,2.529,5.233,2.706c1.54,0.103,3.035,0.007,4.491-0.443    c1.61-0.448,3.14-1.174,4.033-2.447c0.931-1.546,1.344-3.483,1.446-5.335l0.101-1.306c0.172-2.72-0.014-5.282,0.112-8.083    c0.028-1.3,0.017-2.601-0.116-3.901C341.39,76.027,341.226,75.202,340.862,74.416z M336.707,88.022    c-0.175,2.289,0.22,2.284-0.749,3.597c-1.6,1.829-4.915,1.626-5.961-0.453c-0.532-1.729-0.511-3.7-0.805-5.548    c-0.144-2.207-0.126-4.456,0.287-6.469c0.305-1.11,0.924-2.022,1.824-2.741c0.823-0.637,1.999-1.006,3.07-0.583    c1.229,0.579,1.95,1.871,2.086,3.331c0.046,0.905,0.182,2.205,0.178,2.244l0.105,2.68l0.021,1.892    C336.763,86.09,336.735,86.958,336.707,88.022z" fill="#000e3f" data-original="#000e3f" class=""></path>
		<path style="" d="M353.215,77.154c-0.077-0.004-0.154-0.049-0.231-0.133c-0.756-1.267-1.33-4.936-2.251-6.094    l-0.038-0.004c-1.736,0.018-3.92-0.467-5.363-0.115c-1.411,21.365-1.691,26.169-1.54,26.887c0.035,0.082,0.073,0.123,0.112,0.126    c1.694,0.101,3.812,0.381,5.52,0.206c-0.032-4.901,0.035-10.032,0.753-14.929c0.046-0.075,1.341,5.531,2.121,5.615    c0.438,0.028,2.086-4.577,2.818-5.601c0.252,4.439-0.28,10.846-0.347,15.346c1.26,0.074,3.634,0.056,5.195,0.343l0.854-12.549    c0.571-5.023,0.424-9.892,0.914-14.919c-1.652-0.098-5.093-0.021-5.835-0.184C354.881,72.313,353.519,77.29,353.215,77.154z" fill="#000e3f" data-original="#000e3f" class=""></path>
		<path style="" d="M369.405,94.236c0.045-1.267,0.157-3.399,0.63-4.888c0.599-0.361,3.126,0.402,4.785,0.177    c0.21-1.92,0.672-3.647,0.623-5.443l0.004-0.04c-1.6-0.245-3.245-0.418-4.796-0.735l-0.035-0.044    c-0.168-1.455,0.395-3.051,0.549-4.582l0.042-0.033l0.123,0.016c3.479,0.13,6.885,1.162,10.305,0.847l0.004-0.038    c0.238-1.838,0.753-3.679,0.717-5.552c0.028-0.235-10.123-1.383-16.224-1.848c-1.656,8.891-2.31,17.67-3.476,26.742    c4.988,1.08,10.708,1.416,16.022,2.141c0.63-1.509,0.875-3.385,0.973-5.083l0.007-0.081c-3.574-0.34-6.777-1.068-10.218-1.511    L369.405,94.236z" fill="#000e3f" data-original="#000e3f" class=""></path>
		<path style="" d="M382.3,97.033l-0.007,0.039c-0.259,1.434-1.281,4.452-0.935,4.515l2.916,0.487l0.077,0.014    c0.585,0.105,0.847,0.193,1.47,0.305l0.27,0.049c0.273-1.512,0.654-3.206,0.956-4.635C385.534,97.535,383.63,96.751,382.3,97.033z    " fill="#000e3f" data-original="#000e3f" class=""></path>
		<path style="" d="M386.143,74.374c-1.698,6.983-2.489,13.809-3.836,20.616l0.039,0.007    c1.519,0.233,3.654,0.618,5.041,0.709c0.886-6.69,2.349-13.914,3.661-20.527c-1.358-0.686-3.406-0.654-4.788-0.784L386.143,74.374    z" fill="#000e3f" data-original="#000e3f" class=""></path>
		<path style="" d="M265.928,35.3c-1.309,0.438-3.003,1.089-3.84,1.577c-0.22,2.32,0.102,6.995-0.305,9.127    c-1.526-1.568-4.4-5.177-5.625-7.22c-0.651-0.074-1.26,0.09-1.859,0.29c-1.082,0.364-2.128,0.966-3.136,1.304    c2.422,3.884,6.483,7.306,9.031,11.315l0.028,0.075c-0.29,4.962-0.605,10.099-0.56,14.574l0.074-0.025    c0.311-0.063,0.612-0.163,0.914-0.262c1.159-0.389,2.426-0.942,3.476-1.292c0.336-0.112,0.634-0.214,0.945-0.277    c0.046-9.785,2.545-19.69,2.314-29.551l-0.01-0.038C267.062,34.961,266.523,35.098,265.928,35.3z" fill="#000e3f" data-original="#000e3f" class=""></path>
		<path style="" d="M288.639,48.832c-0.43-2.694-1.169-5.153-1.656-7.915c-0.259-1.274-0.557-2.542-0.966-3.78    c-0.308-0.781-0.648-1.55-1.176-2.238c-0.515-0.81-1.243-1.49-2.121-1.972c-3.49-1.571-8.268-0.53-11.258,1.913    c-0.301,0.274-0.511,0.569-0.721,0.899c-1.148,2.175-0.994,4.729-0.493,7.041c0.679,4.094,1.932,8.053,3.024,12.008    c0.389,1.488,0.892,2.949,1.922,4.045c1.397,1.817,3.539,1.801,5.699,1.496c1.523-0.236,2.965-0.654,4.284-1.411    c1.474-0.791,2.807-1.834,3.402-3.27c0.571-1.713,0.553-3.693,0.245-5.523L288.639,48.832z M283.812,52.761    c-1.159,2.135-4.439,2.662-5.916,0.861c-0.896-1.572-1.309-3.501-1.999-5.242c-0.62-2.121-1.096-4.318-1.13-6.374    c0.049-1.148,0.462-2.174,1.18-3.073c0.665-0.802,1.733-1.419,2.87-1.24c1.323,0.297,2.31,1.401,2.762,2.794    c0.242,0.873,0.655,2.114,0.665,2.153l0.69,2.59l0.434,1.845c0.024,0.114,0.185,0.966,0.392,2.013    C284.088,51.359,284.473,51.268,283.812,52.761z" fill="#000e3f" data-original="#000e3f" class=""></path>
		<path style="" d="M307.979,48.996c-0.203-6.819-1.12-13.655-2.373-20.287c-1.355-0.566-4.288,0.364-5.713,0.685    c0.693,6.071,1.698,12.657,2.3,18.94c-0.172,2.454-3.676,3.305-4.771,0.872c-1.421-6.409-2.436-12.794-3.045-19.118l-0.004-0.038    c-1.624-0.211-3.935,0.352-5.531,0.578l-0.042,0.005l0.042,0.033c1.085,6.854,1.799,13.919,2.765,20.787    c0.868,4.774,6.525,5.931,10.876,4.883C306.18,55.458,308.031,52.49,307.979,48.996z" fill="#000e3f" data-original="#000e3f" class=""></path>
		<path style="" d="M322.67,41.913l-0.004-0.04l0.042-0.004l0.158-0.007c2.51-0.294,4.05-1.761,4.932-3.704    c2.972-5.65-1.418-12.245-7.652-12.222c-3.843-0.225-7.396,0.52-10.326,1.114c0.536,2.616,2.083,27.491,1.768,27.507    c0.508-0.143,5.097,0.039,6.829-0.805c-0.231-2.002-0.903-7.216-0.717-9.595l0.08,0.112c2.398,2.636,4.859,7.239,6.014,9.588    l0.038-0.004c2.354,0.028,4.648-0.327,6.493-0.431C328.515,49.178,325.089,45.692,322.67,41.913z M320.342,36.864    c-1.246,0.266-2.748,0.268-3.976,0.217l-0.039,0.002c-0.259-1.169-0.27-3.5-0.458-4.831c1.81-0.849,3.728-1.151,4.925-0.15    C322.317,33.166,322.327,36.324,320.342,36.864z" fill="#000e3f" data-original="#000e3f" class=""></path>
		<path style="" d="M330.364,53.421c-0.012,0.001-0.026,0.002-0.039,0.003v0L330.364,53.421z" fill="#000e3f" data-original="#000e3f" class=""></path>
		<path style="" d="M359.155,45.951c0.003-0.039,0.042-0.039,0.046-0.077c0.602-2.375,0.7-4.897,0.956-7.371    c0.007-0.828,0.011-1.658-0.22-2.498c-0.357-2.113-0.998-4.082-2.044-5.917c-0.861-1.587-2.44-3.017-4.11-3.543    c-3.035-0.047-6.476-0.71-9.507-0.126c-0.046,0.037-0.087,0.114-0.13,0.151c-0.301,9.144-1.536,18.671-0.85,27.04l0.042-0.038    c3.308,0.182,6.889,0.38,10.358,0.452C355.84,51.653,357.923,49.003,359.155,45.951z M352.196,45.371    c-0.283,0.103-0.448,0.254-0.721,0.198c-0.952,0.067-2.1,0.161-2.664-0.385c-0.004-3.553,0.522-7.354,0.48-10.199l0.011-0.157    l0.038,0.003l0.081,0.004c0.956-0.144,2.051-0.046,2.954,0.124c1.736,0.727,2.1,2.721,2.328,4.353    c0.329,1.953-0.235,3.539-1.215,4.869C353.145,44.635,352.725,45.084,352.196,45.371z" fill="#000e3f" data-original="#000e3f" class=""></path>
		<path style="" d="M379.748,56.963c-0.011-0.001-0.024-0.002-0.035-0.004l0,0L379.748,56.963z" fill="#000e3f" data-original="#000e3f" class=""></path>
		<path style="" d="M367.941,55.11c0.143-2.011,0.43-7.262,1.047-9.568l0.063,0.126    c1.873,3.029,3.451,8.009,4.155,10.526l0.042,0.004c2.311,0.459,4.633,0.528,6.466,0.763c-1.008-4.505-3.742-8.56-5.426-12.717    l0.003-0.038l0.039,0.004l0.157,0.021c2.52,0.168,4.306-0.991,5.527-2.741c3.955-5.012,0.844-12.298-5.293-13.414    c-3.738-0.924-7.368-0.84-10.358-0.792c0.049,2.672-2.972,27.414-3.283,27.372C361.602,54.604,366.082,55.623,367.941,55.11z     M369.359,33.5c1.936-0.503,3.879-0.45,4.876,0.754c1.299,1.322,0.735,4.431-1.316,4.601c-1.278,0.033-2.751-0.238-3.949-0.514    l-0.042-0.005C368.89,37.138,369.303,34.845,369.359,33.5z" fill="#000e3f" data-original="#000e3f" class=""></path>
		<path style="" d="M388.009,53.043c0.137-1.26,0.406-3.378,0.984-4.829c0.63-0.315,3.094,0.632,4.764,0.527    c0.347-1.901,0.935-3.591,1.019-5.387l0.007-0.038c-1.579-0.361-3.206-0.653-4.729-1.085l-0.032-0.046    c-0.066-1.463,0.616-3.014,0.882-4.529l0.049-0.032l0.112,0.023c3.466,0.385,6.787,1.666,10.221,1.6l0.011-0.038    c0.364-1.816,1.019-3.614,1.116-5.486c0.049-0.232-9.994-2.118-16.046-3.03c-2.307,8.747-3.598,17.459-5.429,26.422    c4.9,1.444,10.582,2.198,15.832,3.31c0.735-1.46,1.116-3.315,1.337-5.002l0.014-0.077c-3.535-0.599-6.682-1.563-10.081-2.254    L388.009,53.043z" fill="#000e3f" data-original="#000e3f" class=""></path>
		<path style="" d="M411.749,36.03c-7.127,11.081-12.819,23.849-13.414,24.786c0.028,0.047,0.028,0.047,0.066,0.061    c3.459,0.956,4.845,1.558,5.293,1.565c0.042,0.01,0.088-0.016,0.126-0.005c1.351-1.416,2.349-4.454,3.486-5.851    c1.141,0.329,1.11,0.154,2.342,0.714c0.256,1.675-0.133,4.887,0.004,6.693l0.039,0.01c1.53,0.809,3.43,1.479,5.034,1.614    l0.014-0.038l0.973-14.084c0.122-2.715,0.644-12.208,0.752-14.312C413.044,36.525,412.502,36.124,411.749,36.03z M411.137,52.847    c-0.949-0.275-1.943-0.521-2.804-0.809C411.63,44.572,413.384,39.332,411.137,52.847z" fill="#000e3f" data-original="#000e3f" class=""></path>
		<path style="" d="M435.807,44.445c-1.33,0.791-4.162,5.104-4.41,4.88c-0.073-0.03-0.133-0.096-0.179-0.196    c-0.325-1.442,0.263-5.107-0.252-6.497l-0.035-0.014c-1.659-0.521-3.585-1.658-5.069-1.771    c-7.953,19.881-9.71,24.359-9.784,25.093c0.007,0.087,0.032,0.138,0.067,0.153c1.579,0.621,3.504,1.544,5.184,1.904    c1.488-4.668,3.136-9.528,5.342-13.96c0.063-0.058-0.441,5.672,0.277,5.996c0.402,0.158,3.399-3.707,4.41-4.456    c-1.131,4.302-3.623,10.228-5.079,14.485c1.176,0.462,3.438,1.18,4.834,1.939l4.694-11.674c2.1-4.597,3.469-9.273,5.492-13.9    C439.756,45.823,436.462,44.827,435.807,44.445z" fill="#000e3f" data-original="#000e3f" class=""></path>
	</g>
	<g>
		<path style="" d="M219.678,75.865c-11.708,1.216-14.81,2.729-11.915-0.878c-0.023-0.023-0.046-0.045-0.069-0.067    c2.689-2.831,5.103-5.151,6.107-7.583c0.995-2.413-1.869-4.565-3.768-3.106c-3.107,2.386-6.512,7.777-7.457,7.419    c-0.932-0.353-0.517-1.626-0.528-2.514c-0.065-4.936,0.302-7.951-0.325-11.175c-0.476-2.447-4.476-2.104-4.968,0.014    c-0.475,2.046-0.217,4.34-0.367,14.915c-0.05,3.504-2.863,0.86-6.688-1.657c-2.17-1.428-5.52-2.415-6.59-0.06    c-0.883,1.943,0.832,3.125,2.591,4.356c9.26,6.485,9.458,4.657-3.813,8.34c-2.437,0.676-5.376,1.72-4.519,4.183    c0.873,2.513,3.715,1.46,9.459,0.165c0.755-0.171,1.463-0.59,2.221-0.699c1.677-0.242,3.243-1.111,4.998-0.874    c0.288,2.065-1.523,3.167-2.235,4.777c-1.141,2.579-3.303,3.787-2.703,6.725c0.233,1.144,1.401,1.866,2.462,1.431    c5.178-2.121,6.357-10.711,8.564-5.94c2.851,6.166,3.284,7.698,4.981,10.004c1.602,2.177,4.672,0.75,4.165-1.882    c-0.839-4.364-5.164-11.754-4.32-12.574c0.88-0.856,8.657,6.089,11.678,6.191c2.184,0.074,3.164-1.821,2.136-3.435    c-1.564-2.453-2.936-2.927-9.079-7.212c-0.477-0.333-1.173-0.663-0.912-1.399c0.234-0.659,0.968-0.709,1.565-0.797    c3.02-0.443,9.841-1.342,10.154-1.43C223.457,80.268,223.047,75.515,219.678,75.865z" fill="#fd8a02" data-original="#fd8a02" class=""></path>
		<path style="" d="M108.545,61.418c-9.511,1.262-12.016,2.575-9.738-0.44c-0.019-0.018-0.039-0.035-0.059-0.053    c2.74-3.053,6.61-6.809,4.123-8.715c-1.733-1.328-3.001,0.264-4.591,2.094c-0.911,1.049-3.168,4.284-3.781,4.072    c-0.838-0.291-0.319-0.729-0.629-8.133c-0.091-2.167-0.278-4.655-2.422-4.346c-2.926,0.423-2.139,1.47-1.968,13.634    c0.04,2.859-2.316,0.767-5.493-1.197c-1.804-1.115-4.558-1.841-5.376,0.104c-0.677,1.609,0.759,2.534,2.213,3.493    c7.702,5.074,7.822,3.579-2.916,6.89c-1.972,0.608-4.345,1.527-3.589,3.516c1.305,3.435,10.499-1.861,13.57-1.534    c0.282,1.678-1.169,2.619-1.712,3.948c-0.872,2.131-2.607,3.16-2.049,5.547c0.581,2.487,3.421,0.801,4.883-1.348    c3.766-5.538,2.497-5.277,6.858,3.227c0.874,1.702,2.113,3.724,3.803,2.86c1.819-0.931,0.888-3.073,0.006-5.128    c-3.919-9.121-5.22-9.144,4.354-3.375c4.228,2.548,6.865-1.15,1.387-4.564c-8.139-5.072-7.548-4.366,2.054-5.97    c0.903-0.151,3.976-0.191,3.345-3.048C110.586,61.899,109.767,61.256,108.545,61.418z" fill="#fd8a02" data-original="#fd8a02" class=""></path>
		<path style="" d="M35.556,139.035c-3.433-0.218-8.805,1.38-9.223,0.596c-0.412-0.773,0.599-1.375,1.104-1.969    c2.811-3.304,4.797-5.086,6.246-7.581c1.1-1.894-1.744-3.98-3.295-2.863c-1.495,1.077-2.639,2.731-8.867,9.655    c-2.059,2.29-2.391-1.087-3.466-4.963c-0.611-2.2-2.256-4.789-4.325-3.85c-1.711,0.778-1.253,2.559-0.805,4.38    c2.377,9.643,3.565,8.549-7.344,3.313c-2.004-0.961-4.551-1.97-5.409,0.155c-0.898,2.225,1.813,3.221,6.163,5.577    c0.598,0.324,1.309,0.456,1.874,0.822c1.249,0.809,2.788,1.14,3.812,2.312c-1.004,1.533-2.839,1.215-4.241,1.868    c-2.247,1.047-4.375,0.596-5.677,2.886c-0.506,0.892-0.152,2.045,0.802,2.37c4.648,1.59,10.399-3.412,9.1,1.022    c-1.998,6.818-3.858,10.942-1.08,11.721c2.119,0.595,2.95-1.78,3.755-4.049c3.58-10.1,2.544-11.102,5.91,0.516    c1.435,4.952,6.306,4.245,4.435-2.593c-2.727-9.971-2.763-8.964,5.99-3.217c0.569,0.374,1.105,0.819,1.715,1.107    c2.435,1.154,4.916-2.226,2.482-3.944c-8.415-5.941-11.401-6.748-7.375-7.47c-0.003-0.028-0.005-0.056-0.007-0.084    c3.416-0.318,6.355-0.457,8.425-1.486C38.306,142.247,37.656,139.167,35.556,139.035z" fill="#fd8a02" data-original="#fd8a02" class=""></path>
		<path style="" d="M476.08,287.148c-2.848,0.259-0.943-2.25,0.772-5.568c0.973-1.884,1.486-4.685-0.516-5.352    c-1.656-0.551-2.469,0.951-3.313,2.474c-4.469,8.068-2.969,8.073-7.093-2.379c-0.758-1.92-1.856-4.215-3.781-3.309    c-3.325,1.564,2.661,10.325,2.571,13.412c-1.651,0.411-2.701-0.964-4.067-1.405c-2.192-0.705-3.351-2.357-5.688-1.618    c-2.435,0.77-0.536,3.473,1.718,4.765c5.811,3.33,5.454,2.085-2.691,7.086c-1.63,1.002-3.551,2.393-2.56,4.011    c1.068,1.743,3.132,0.65,5.114-0.388c8.793-4.608,8.717-5.906,3.699,4.083c-2.216,4.411,1.673,6.757,4.656,1.033    c4.432-8.504,3.774-7.861,6.11,1.59c0.22,0.889,0.495,3.95,3.295,3.101c1.031-0.313,1.609-1.179,1.354-2.384    c-1.987-9.386-3.489-11.783-0.307-9.743c0.016-0.021,0.032-0.041,0.048-0.062c3.254,2.498,7.297,6.068,9.006,3.442    c1.191-1.83-0.494-2.972-2.44-4.417c-1.116-0.828-4.515-2.83-4.35-3.457c0.226-0.858,0.703-0.375,8.061-1.251    c2.154-0.257,4.62-0.634,4.148-2.748C489.179,285.179,488.195,286.044,476.08,287.148z" fill="#fd8a02" data-original="#fd8a02" class=""></path>
		<path style="" d="M511.58,212.385c-1.261-1.494-3.104-2.57-10.934-8.593c-2.59-1.992,0.955-2.618,4.967-4.07    c2.278-0.825,4.882-2.775,3.72-4.888c-0.961-1.747-2.809-1.118-4.698-0.495c-10.007,3.299-8.753,4.466-4.102-7.498    c0.854-2.198,1.714-4.974-0.604-5.708c-2.427-0.768-3.26,2.18-5.398,6.973c-0.294,0.659-0.376,1.422-0.717,2.049    c-0.754,1.386-0.979,3.041-2.135,4.221c-1.703-0.937-1.516-2.904-2.321-4.334c-1.29-2.291-0.986-4.578-3.515-5.769    c-0.984-0.464-2.175,0.006-2.442,1.04c-1.303,5.046,4.455,10.722-0.34,9.708c-7.375-1.559-11.887-3.19-12.485-0.189    c-0.457,2.29,2.122,2.975,4.589,3.642c10.975,2.965,11.949,1.788-0.066,6.294c-5.121,1.92-3.976,7.014,3.104,4.479    c10.325-3.695,9.256-3.652,3.89,6.074c-0.349,0.633-0.775,1.235-1.031,1.904c-1.022,2.669,2.755,5.018,4.374,2.304    c5.599-9.384,6.209-12.608,7.301-8.408c0.03-0.005,0.059-0.01,0.089-0.015c0.614,3.588,1,6.684,2.257,8.79    c1.247,2.089,4.451,1.15,4.421-1.081c-0.049-3.649-2.175-9.201-1.381-9.707c0.783-0.499,1.503,0.521,2.172,1.007    c3.723,2.704,5.769,4.66,8.527,5.989C510.913,217.112,512.888,213.934,511.58,212.385z" fill="#fd8a02" data-original="#fd8a02" class=""></path>
	</g>
</g>















</g></svg>