<svg xmlns="http://www.w3.org/2000/svg" version="1.1" xmlns:xlink="http://www.w3.org/1999/xlink" xmlns:svgjs="http://svgjs.com/svgjs" width="512" height="512" x="0" y="0" viewBox="0 0 512 512" style="enable-background:new 0 0 512 512" xml:space="preserve" class=""><g>
<g>
	<path style="" d="M42.71,245.375c16.45,22.764,37.93,34.071,20.21,83.568   c-37.624,105.098,70.464,147.808,129.878,104.222c12.017-8.815,25.87-22.944,41.976-16.022   c21.237,9.126,30.165,39.123,45.983,54.967c19.586,19.618,44.475,32.277,72.737,31.814c35.422-0.58,72.809-21.663,80.757-57.211   c6.713-30.025-7.795-59.841-4.041-89.99c2.942-23.628,19.33-36.824,34.163-53.462c16.546-18.56,34.022-39.767,42.12-63.616   c11.382-33.522,5.964-65.664-24.172-85.501c-15.188-9.998-35.624-27.086-40.265-45.585c-5.831-23.24-2.963-49.108-16.814-69.801   c-16.642-24.864-47.975-33.784-76.529-29.771c-34.399,4.835-52.859,30.587-81.996,45.976   c-25.676,13.561-53.082,0.226-76.409-11.828C133.747,13.91,58.848,5.571,18.758,65.361C-19.277,122.086,6.57,195.365,42.71,245.375   z" fill="#00d5fe" data-original="#00d5fe" class=""></path>
	<g>
		<path style="" d="M100.922,84.635c-1.672-16.732-20.44-9.38-20.44-9.38c0.056-2.627,0.103-5.256,0.047-7.883    c-0.141-6.523-0.594-12.909-5.924-17.4c-7.82-6.59-22.301-5.336-27.016,4.404c-1.308,2.7-1.94,5.703-2.152,8.683    c-0.041,0.581-0.513,3.717,0.002,4.163c-3.676-3.185-9.563-2.455-13.514-0.21c-2.966,1.685-5.138,4.613-6.233,7.812    c-1.116,3.264-0.907,8.358,0.68,11.46c1.615,3.157,5.157,3.272,8.198,3.285c3.469,0.015,44.53,0.195,61.593,0.27    C98.973,89.85,101.202,87.431,100.922,84.635z" fill="#ffffff" data-original="#ffffff" class=""></path>
		<path style="" d="M373.731,463.252c0.056-2.627,0.103-5.256,0.046-7.884c-0.141-6.523-0.594-12.909-5.924-17.4    c-7.82-6.591-22.301-5.336-27.017,4.403c-1.308,2.7-1.94,5.704-2.152,8.683c-0.041,0.581-0.513,3.717,0.002,4.163    c-3.676-3.185-9.563-2.455-13.514-0.21c-2.966,1.685-5.138,4.613-6.233,7.812c-1.116,3.264-0.907,8.358,0.68,11.46    c1.615,3.157,5.157,3.272,8.198,3.285c3.47,0.015,44.53,0.195,61.593,0.27c2.811,0.012,5.04-2.406,4.76-5.203    C392.499,455.9,373.731,463.252,373.731,463.252z" fill="#ffffff" data-original="#ffffff" class=""></path>
		<path style="" d="M152.534,394.078c-3.952-2.246-9.838-2.977-13.515,0.208c0.515-0.446,0.044-3.583,0.003-4.163    c-0.212-2.98-0.844-5.983-2.151-8.684c-4.714-9.74-19.195-10.997-27.016-4.408c-5.331,4.491-5.786,10.877-5.927,17.4    c-0.057,2.627-0.01,5.256,0.045,7.883c0,0-18.766-7.355-20.441,9.377c-0.28,2.797,1.949,5.215,4.759,5.204    c17.064-0.072,58.124-0.245,61.593-0.259c3.041-0.013,6.584-0.128,8.199-3.284c1.587-3.101,1.797-8.196,0.682-11.459    C157.671,398.692,155.499,395.763,152.534,394.078z" fill="#ffffff" data-original="#ffffff" class=""></path>
		<path style="" d="M498.323,216.436c-2.388-5.888-9.291-5.537-14.398-4.481l2.06-1.544    c4.086-6.292,3.576-15.214-1.2-20.999c-4.776-5.786-13.439-7.977-20.391-5.158c-6.952,2.819-11.642,10.425-11.04,17.903    c-1.82-5.046-7.783-8.187-12.974-6.834c-5.19,1.353-8.86,7.004-7.987,12.296c-0.305-1.85-4.787-2.309-6.097-2.193    c-6.371,0.562-11.159,7.382-9.116,14.003c0.751,2.434,2.956,4.199,5.349,5.07c2.393,0.871,4.986,0.983,7.531,1.076    c15.299,0.564,59.992,2.066,65.132-0.09C498.853,223.949,500.045,220.681,498.323,216.436z" fill="#ffffff" data-original="#ffffff" class=""></path>
		<path style="" d="M277.175,309.99c-1.31-0.116-5.791,0.343-6.097,2.192c0.875-5.291-2.795-10.943-7.985-12.297    c-5.19-1.354-11.154,1.787-12.975,6.832c0.604-7.478-4.085-15.085-11.037-17.905c-6.952-2.82-15.615-0.63-20.392,5.154    c-4.777,5.785-5.288,14.706-1.203,20.999l2.06,1.545c-5.107-1.057-12.009-1.41-14.399,4.479c-1.722,4.245-0.531,7.513,3.128,9.049    c5.14,2.158,49.833,0.662,65.132,0.101c2.545-0.093,5.137-0.204,7.531-1.075c2.393-0.87,4.599-2.636,5.35-5.069    C288.332,317.374,283.546,310.552,277.175,309.99z" fill="#ffffff" data-original="#ffffff" class=""></path>
	</g>
	<g>
		<g>
			<g>
				<path style="" d="M442.304,248.4c-13.231,41.676-37.593,76.891-68.206,107.726h-31.49      c-9.686-9.753-18.747-19.952-27.03-30.65c-17.882-23.114-32.133-48.588-41.176-77.076c-5.596-17.629-5.053-36.598,1.896-53.776      c19.779-48.928,88.417-61.3,132.539-36.135c22.126,12.62,34.986,34.937,36.981,58.903      C446.677,227.634,445.547,238.184,442.304,248.4z" fill="#fc09b2" data-original="#fc09b2"></path>
				<path style="opacity:0.25;" d="M347.069,356.128c-21.939-30.837-39.395-66.05-48.877-107.729      c-4.011-17.63-3.618-36.595,1.36-53.778c14.175-48.927,63.357-61.295,94.975-36.131c22.636,18.017,31.745,55.792,23.983,89.909      c-9.482,41.679-26.938,76.892-48.877,107.729C365.219,356.128,351.483,356.128,347.069,356.128z" fill="#000e3f" data-original="#000e3f" class=""></path>
				<path style="" d="M353.119,356.128c-10.172-30.837-18.265-66.05-22.662-107.729      c-1.86-17.63-1.677-36.595,0.631-53.778c6.573-48.927,29.376-61.295,44.035-36.131c10.495,18.017,14.719,55.792,11.12,89.909      c-4.396,41.679-12.49,76.892-22.662,107.729C361.535,356.128,355.166,356.128,353.119,356.128z" fill="#fc09b2" data-original="#fc09b2"></path>
				<path style="opacity:0.25;" d="M442.304,248.4c-13.231,41.676-37.593,76.891-68.206,107.726h-31.49      c-9.686-9.753-18.747-19.952-27.03-30.65c2.143-0.964,4.311-1.847,6.48-2.65c17.691-6.554,36.537-9.358,53.733-17.277      c20.619-9.506,38.062-26.159,50.768-46.037c8.271-12.947,14.602-27.215,19.26-42.121      C446.677,227.634,445.547,238.184,442.304,248.4z" fill="#000e3f" data-original="#000e3f" class=""></path>
				<g>
					<path style="" d="M308.944,228.949c5.566-6.187,17.219-6.473,24.116-2.489c6.827,3.943,6.413,12.711-3.993,15.73       C314.814,246.327,301.724,236.976,308.944,228.949z" fill="#ff8ede" data-original="#ff8ede"></path>
					<path style="" d="M407.756,228.949c-5.566-6.187-17.219-6.473-24.116-2.489       c-6.827,3.943-6.413,12.711,3.993,15.73C401.886,246.327,414.976,236.976,407.756,228.949z" fill="#ff8ede" data-original="#ff8ede"></path>
					<path style="" d="M303.382,172.564c-2.332,2.849-4.47,6.119-6.313,9.415c-1.865,3.313-3.481,6.755-4.879,10.273       c-2.762,7.052-4.572,14.443-5.444,21.953c-0.864,7.514-0.823,15.143,0.007,22.731c0.813,7.594,2.354,15.143,4.303,22.663       c0.209,0.797-0.268,1.612-1.065,1.821c-0.719,0.188-1.454-0.185-1.744-0.844c-3.189-7.275-5.457-15-6.749-22.93       c-0.714-3.957-0.994-7.987-1.168-12.018c-0.106-4.038,0.116-8.085,0.532-12.113c1.007-8.036,3.112-15.972,6.546-23.317       c1.694-3.678,3.727-7.192,6.021-10.516c2.36-3.302,4.856-6.408,8.025-9.144c0.584-0.504,1.467-0.44,1.971,0.145       c0.451,0.522,0.447,1.282,0.024,1.798L303.382,172.564z" fill="#ff8ede" data-original="#ff8ede"></path>
				</g>
			</g>
			<g>
				<path style="" d="M446.881,217.303c-2.099-25.206-16.123-47.539-37.516-59.741      c-24.733-14.108-57.566-16.805-85.681-7.044c-23.035,7.997-40.215,23.519-48.375,43.705c-6.946,17.171-7.63,36.526-1.924,54.5      c8.558,26.959,22.469,53.002,41.349,77.406c8.026,10.366,17.148,20.711,27.116,30.749c0.2,0.201,0.473,0.315,0.757,0.315h31.49      c0.284,0,0.557-0.114,0.757-0.315c33.762-34.006,56.157-69.383,68.465-108.154C446.572,238.481,447.77,227.909,446.881,217.303z       M441.287,248.078c-12.166,38.321-34.291,73.318-67.634,106.982h-30.601c-9.785-9.877-18.742-20.048-26.631-30.236      c-18.725-24.205-32.521-50.026-41.002-76.746c-5.556-17.501-4.892-36.342,1.869-53.054c7.926-19.608,24.652-34.697,47.097-42.49      c27.551-9.566,59.71-6.928,83.924,6.882c20.781,11.853,34.407,33.559,36.448,58.065      C445.621,227.808,444.453,238.102,441.287,248.078z" fill="#000e3f" data-original="#000e3f" class=""></path>
				<path style="" d="M371.513,213.041c-0.003,0-0.006,0-0.009,0c-0.588,0.005-1.063,0.487-1.057,1.076      c0.055,6.586-3.858,13.981-11.22,14.713c-3.058,0.3-5.899-0.68-8.224-2.845c-3.053-2.845-4.871-7.384-4.744-11.847      c0.017-0.589-0.447-1.08-1.036-1.096c-0.575-0.025-1.079,0.447-1.096,1.036c-0.144,5.057,1.934,10.218,5.423,13.468      c2.454,2.286,5.399,3.472,8.583,3.472c0.431,0,0.866-0.021,1.305-0.065c8.621-0.857,13.205-9.324,13.142-16.854      C372.575,213.512,372.098,213.041,371.513,213.041z" fill="#000e3f" data-original="#000e3f" class=""></path>
				<path style="" d="M401.406,206.566l-5.487,1.445c-0.196-0.602-0.462-1.179-0.8-1.714l3.633-3.853      c0.404-0.429,0.384-1.104-0.044-1.508c-0.43-0.405-1.104-0.384-1.508,0.044l-3.485,3.696c-0.816-0.688-1.819-1.209-3-1.481      c-3.67-0.846-7.963,0.977-9.61,5.124c-2.899,7.298,5.983,12.95,12.156,8.405c2.189-1.612,3.17-4.151,3.048-6.61l5.641-1.485      c0.57-0.15,0.91-0.734,0.76-1.303C402.558,206.757,401.976,206.412,401.406,206.566z" fill="#000e3f" data-original="#000e3f" class=""></path>
				<path style="" d="M325.985,203.195c-1.181,0.272-2.183,0.792-3,1.481l-3.485-3.696      c-0.406-0.428-1.079-0.449-1.508-0.044c-0.428,0.404-0.448,1.079-0.044,1.508l3.633,3.853c-0.338,0.535-0.604,1.112-0.8,1.714      l-5.487-1.445c-0.572-0.154-1.154,0.191-1.303,0.76c-0.151,0.569,0.19,1.153,0.76,1.303l5.641,1.485      c-0.122,2.459,0.858,4.998,3.048,6.61c6.173,4.544,15.055-1.107,12.156-8.405C333.949,204.172,329.655,202.349,325.985,203.195z      " fill="#000e3f" data-original="#000e3f" class=""></path>
			</g>
		</g>
		<g>
			<g>
				<path style="" d="M374.732,383.478l6.369-25.077c0.145-0.571-0.2-1.152-0.771-1.296      c-0.576-0.148-1.152,0.2-1.296,0.771l-6.436,25.34c-0.044,0.172-0.044,0.353,0,0.525l6.436,25.34      c0.122,0.483,0.556,0.804,1.033,0.804c0.087,0,0.175-0.011,0.263-0.034c0.571-0.145,0.916-0.725,0.771-1.297L374.732,383.478z" fill="#000e3f" data-original="#000e3f" class=""></path>
				<path style="" d="M368.799,357.104c-0.578-0.148-1.153,0.2-1.297,0.771l-6.436,25.34      c-0.044,0.172-0.044,0.353,0,0.525l6.436,25.34c0.122,0.483,0.556,0.804,1.033,0.804c0.087,0,0.175-0.011,0.263-0.034      c0.57-0.145,0.916-0.725,0.771-1.297l-6.369-25.077l6.369-25.077C369.715,357.829,369.37,357.249,368.799,357.104z" fill="#000e3f" data-original="#000e3f" class=""></path>
				<path style="" d="M336.363,357.104c-0.571,0.145-0.916,0.725-0.771,1.296l6.369,25.077l-6.369,25.077      c-0.145,0.571,0.2,1.152,0.771,1.297c0.088,0.023,0.176,0.034,0.263,0.034c0.476,0,0.911-0.322,1.033-0.804l6.436-25.34      c0.044-0.172,0.044-0.353,0-0.525l-6.436-25.34C337.515,357.304,336.939,356.958,336.363,357.104z" fill="#000e3f" data-original="#000e3f" class=""></path>
				<path style="" d="M347.894,357.104c-0.57,0.145-0.916,0.725-0.771,1.296l6.369,25.077l-6.369,25.077      c-0.145,0.571,0.201,1.152,0.771,1.297c0.089,0.023,0.177,0.034,0.263,0.034c0.476,0,0.911-0.322,1.033-0.804l6.436-25.34      c0.044-0.172,0.044-0.353,0-0.525l-6.436-25.34C349.046,357.304,348.468,356.958,347.894,357.104z" fill="#000e3f" data-original="#000e3f" class=""></path>
			</g>
			<g>
				<path style="" d="M338.568,386.154c-1.475,0-2.676-1.2-2.676-2.676c0-1.475,1.201-2.675,2.676-2.675h39.556      c1.475,0,2.676,1.2,2.676,2.675c0,1.475-1.201,2.676-2.676,2.676H338.568z" fill="#91d728" data-original="#91d728" class=""></path>
				<path style="" d="M378.124,381.869c0.888,0,1.609,0.72,1.609,1.609c0,0.888-0.72,1.609-1.609,1.609h-39.556      c-0.888,0-1.609-0.72-1.609-1.609c0-0.888,0.72-1.609,1.609-1.609H378.124 M378.124,379.736h-39.556      c-2.064,0-3.742,1.679-3.742,3.742c0,2.064,1.679,3.742,3.742,3.742h39.556c2.064,0,3.742-1.679,3.742-3.742      C381.867,381.415,380.188,379.736,378.124,379.736L378.124,379.736z" fill="#000e3f" data-original="#000e3f" class=""></path>
			</g>
			<g>
				<g>
					<path style="" d="M386.705,357.333c0,2.445-1.983,4.424-4.424,4.424h-47.865c-1.223,0-2.329-0.495-3.129-1.295       c-0.801-0.801-1.295-1.907-1.295-3.129c0-2.446,1.979-4.425,4.425-4.425h47.865c1.223,0,2.325,0.495,3.129,1.295       C386.21,355.004,386.705,356.111,386.705,357.333z" fill="#915efd" data-original="#915efd"></path>
					<path style="opacity:0.25;" d="M386.705,357.333c0,2.445-1.983,4.424-4.424,4.424h-24.439       c2.015-2.671,3.62-5.679,4.843-8.849h19.597c1.223,0,2.325,0.495,3.129,1.295C386.21,355.004,386.705,356.111,386.705,357.333z       " fill="#000e3f" data-original="#000e3f" class=""></path>
					<path style="opacity:0.5;" d="M356.217,356.252c0.969,0.179,0.972,1.462,0,1.642       c-6.207,1.145-16.724,1.031-22.478-0.049c-0.463-0.087-0.762-0.503-0.668-0.93       C333.485,355.044,350.251,355.151,356.217,356.252z" fill="#ffffff" data-original="#ffffff" class=""></path>
				</g>
				<path style="" d="M382.281,362.824h-47.865c-1.467,0-2.846-0.571-3.883-1.608      c-1.036-1.036-1.608-2.415-1.608-3.883c0-3.028,2.463-5.491,5.491-5.491h47.865c1.463,0,2.841,0.57,3.882,1.605      c1.039,1.039,1.61,2.418,1.61,3.886C387.772,360.361,385.309,362.824,382.281,362.824z M334.415,353.975      c-1.852,0-3.357,1.507-3.357,3.358c0,0.898,0.349,1.742,0.983,2.375c0.634,0.634,1.477,0.983,2.375,0.983h47.865      c1.852,0,3.358-1.507,3.358-3.358c0-0.898-0.349-1.741-0.983-2.375c-0.637-0.633-1.48-0.983-2.375-0.983H334.415z" fill="#000e3f" data-original="#000e3f" class=""></path>
			</g>
		</g>
		<g>
			<g>
				<g>
					<path style="" d="M386.07,403.992l-3.146,46.393c-0.177,2.59-2.329,4.602-4.923,4.602h-39.31       c-2.594,0-4.746-2.011-4.923-4.602l-0.31-4.561l-2.832-41.832H386.07z" fill="#ffcf00" data-original="#ffcf00"></path>
					<path style="opacity:0.5;" d="M386.07,403.992l-3.146,46.393c-0.177,2.59-2.329,4.602-4.923,4.602h-39.31       c-2.594,0-4.746-2.011-4.923-4.602l0,0c-0.168-2.468,1.789-4.561,4.262-4.561h27.819c3.941,0,7.192-3.082,7.403-7.017       l1.279-23.877C374.86,408.796,379.928,403.992,386.07,403.992L386.07,403.992z" fill="#fd8a02" data-original="#fd8a02" class=""></path>
				</g>
				<g>
					<path style="" d="M378.001,456.053h-39.31c-3.143,0-5.773-2.458-5.987-5.596l-3.141-46.394       c-0.02-0.295,0.083-0.585,0.285-0.801c0.202-0.216,0.484-0.338,0.78-0.338h55.443c0.295,0,0.578,0.123,0.78,0.338       c0.202,0.216,0.305,0.505,0.285,0.801l-3.146,46.393C383.774,453.595,381.144,456.053,378.001,456.053z M331.768,405.058       l3.065,45.254c0.138,2.023,1.833,3.607,3.859,3.607h39.31c2.026,0,3.721-1.585,3.859-3.608l3.069-45.254H331.768z" fill="#000e3f" data-original="#000e3f" class=""></path>
					<path style="" d="M371.968,423.631c-5.395,0.001-10.58-2.246-13.62-5.881c-3.297,3.941-9.121,6.244-14.987,5.833       c-8.723-0.619-12.76-6.783-12.928-7.045c-0.317-0.497-0.172-1.156,0.324-1.474c0.497-0.317,1.155-0.172,1.474,0.324       c0.144,0.225,3.615,5.522,11.281,6.066c5.7,0.409,11.303-2.036,13.943-6.075c0.395-0.602,1.391-0.602,1.786,0       c2.64,4.039,8.251,6.483,13.943,6.075c7.677-0.544,11.137-5.84,11.281-6.065c0.317-0.496,0.976-0.642,1.473-0.326       c0.497,0.317,0.642,0.976,0.326,1.473c-0.167,0.262-4.194,6.426-12.929,7.046C372.879,423.615,372.422,423.631,371.968,423.631       z" fill="#000e3f" data-original="#000e3f" class=""></path>
				</g>
			</g>
			<g>
				<g>
					<path style="" d="M389.923,408.416c0,2.446-1.983,4.425-4.424,4.425h-54.301c-1.223,0-2.329-0.495-3.129-1.295       c-0.801-0.8-1.295-1.907-1.295-3.129c0-2.446,1.979-4.424,4.425-4.424h54.301c1.223,0,2.325,0.495,3.129,1.295       C389.428,406.087,389.923,407.193,389.923,408.416z" fill="#915efd" data-original="#915efd"></path>
					<path style="opacity:0.25;" d="M389.923,408.416c0,2.446-1.983,4.425-4.424,4.425h-28.651       c0.234-0.229,0.463-0.466,0.688-0.708c2.224-2.405,3.825-5.161,4.939-8.141h23.024c1.223,0,2.325,0.495,3.129,1.295       C389.428,406.087,389.923,407.193,389.923,408.416z" fill="#000e3f" data-original="#000e3f" class=""></path>
					<path style="opacity:0.5;" d="M349.322,406.543c1.999,0.119,3.998,0.298,5.997,0.644       c0.493,0.085,0.817,0.523,0.725,0.977c-0.071,0.348-0.369,0.605-0.725,0.668c-3.78,0.654-8.255,0.796-11.993,0.816       C321.477,409.419,330.554,405.326,349.322,406.543z" fill="#ffffff" data-original="#ffffff" class=""></path>
				</g>
				<path style="" d="M385.498,413.907h-54.3c-1.468,0-2.847-0.571-3.884-1.608c-1.037-1.036-1.608-2.416-1.608-3.883      c0-3.028,2.463-5.491,5.491-5.491h54.3c1.463,0,2.841,0.57,3.882,1.605c1.039,1.039,1.609,2.418,1.609,3.886      C390.99,411.444,388.527,413.907,385.498,413.907z M331.198,405.058c-1.852,0-3.358,1.507-3.358,3.358      c0,0.898,0.349,1.741,0.983,2.375c0.634,0.634,1.478,0.983,2.375,0.983h54.3c1.852,0,3.358-1.507,3.358-3.358      c0-0.898-0.349-1.742-0.983-2.375c-0.637-0.633-1.481-0.983-2.375-0.983H331.198z" fill="#000e3f" data-original="#000e3f" class=""></path>
			</g>
			<g>
				<g>
					<g>
						<path style="" d="M391.517,447.147c-4.095,0-7.432-3.826-8.923-7.618c-1.282-3.214-1.705-9.095-1.052-14.63        c0.396-3.431,1.192-6.598,2.301-9.157c0.247-0.56,0.797-0.919,1.404-0.919c0.328,0,0.641,0.104,0.907,0.299        c5.411,4.102,9.699,9.887,11.775,15.88c0.546,1.571,0.914,3.428,1.038,5.227c0.418,6.057-1.957,10.105-6.354,10.827        C392.248,447.117,391.88,447.147,391.517,447.147z" fill="#fc09b2" data-original="#fc09b2"></path>
						<path style="opacity:0.25;" d="M392.439,446.005c-4.171,0.684-7.49-3.399-8.853-6.866        c-1.15-2.884-1.649-8.491-0.985-14.114c0.748,1.951,1.778,3.761,3.194,5.325c2.582,2.856,6.222,4.59,9.963,5.507        c0.712,0.177,1.428,0.322,2.144,0.446C398.198,440.607,397.064,445.245,392.439,446.005z" fill="#000e3f" data-original="#000e3f" class=""></path>
						<path style="" d="M387.956,421.181c0.905,0.516,1.652,1.202,2.309,1.956c0.667,0.749,1.224,1.585,1.693,2.466        c0.465,0.883,0.839,1.815,1.081,2.789c0.251,0.968,0.393,1.971,0.306,3.009c-0.044,0.526-0.507,0.917-1.033,0.873        c-0.271-0.023-0.505-0.156-0.664-0.352l-0.015-0.019c-0.616-0.768-1.092-1.544-1.545-2.321        c-0.462-0.772-0.877-1.55-1.282-2.335c-0.402-0.787-0.796-1.577-1.156-2.404c-0.371-0.822-0.729-1.662-1.002-2.612        l-0.005-0.018c-0.137-0.479,0.139-0.978,0.618-1.115C387.502,421.028,387.753,421.066,387.956,421.181z" fill="#ff8ede" data-original="#ff8ede"></path>
					</g>
					<path style="" d="M385.245,415.891c0.094,0,0.19,0.029,0.275,0.092c5.036,3.817,9.324,9.38,11.399,15.369       c0.479,1.38,0.857,3.134,0.982,4.951c0.297,4.304-0.837,8.942-5.462,9.702c-0.312,0.051-0.62,0.076-0.923,0.076       c-3.735,0-6.669-3.734-7.931-6.942c-1.15-2.884-1.649-8.491-0.985-14.114c0.358-3.097,1.07-6.202,2.22-8.857       C384.897,415.994,385.068,415.891,385.245,415.891 M385.245,413.758L385.245,413.758c-1.03,0-1.964,0.609-2.378,1.552       c-1.154,2.663-1.978,5.935-2.387,9.471c-0.671,5.691-0.22,11.781,1.123,15.149c1.62,4.119,5.316,8.285,9.912,8.285       c0.421,0,0.847-0.035,1.268-0.104c4.998-0.821,7.706-5.29,7.246-11.954c-0.13-1.888-0.518-3.843-1.094-5.504       c-2.144-6.187-6.564-12.154-12.126-16.37C386.336,413.934,385.803,413.758,385.245,413.758L385.245,413.758z" fill="#000e3f" data-original="#000e3f" class=""></path>
				</g>
				<g>
					<g>
						<path style="" d="M325.18,447.147c-0.363,0-0.732-0.03-1.095-0.09c-4.397-0.722-6.773-4.77-6.354-10.828        c0.123-1.795,0.491-3.652,1.038-5.227c2.076-5.993,6.363-11.777,11.763-15.87c0.278-0.204,0.592-0.308,0.919-0.308        c0.608,0,1.159,0.359,1.402,0.916c1.11,2.562,1.906,5.729,2.303,9.163c0.653,5.531,0.23,11.413-1.054,14.632        C332.612,443.321,329.275,447.147,325.18,447.147C325.18,447.147,325.181,447.147,325.18,447.147z" fill="#fc09b2" data-original="#fc09b2"></path>
						<path style="opacity:0.25;" d="M324.257,446.005c4.171,0.684,7.49-3.399,8.853-6.866        c1.15-2.884,1.649-8.491,0.986-14.114c-0.748,1.951-1.778,3.761-3.194,5.325c-2.582,2.856-6.222,4.59-9.963,5.507        c-0.712,0.177-1.428,0.322-2.144,0.446C318.498,440.607,319.632,445.245,324.257,446.005z" fill="#000e3f" data-original="#000e3f" class=""></path>
						<path style="" d="M330.049,422.231c-0.273,0.951-0.631,1.791-1.002,2.612c-0.361,0.827-0.755,1.617-1.156,2.404        c-0.405,0.785-0.82,1.563-1.282,2.335c-0.453,0.777-0.929,1.553-1.545,2.321l-0.013,0.017        c-0.331,0.412-0.932,0.478-1.345,0.147c-0.212-0.17-0.332-0.415-0.354-0.665c-0.087-1.037,0.055-2.041,0.306-3.009        c0.241-0.973,0.616-1.905,1.081-2.789c0.469-0.881,1.026-1.717,1.693-2.466c0.657-0.754,1.404-1.439,2.309-1.956        c0.432-0.247,0.983-0.097,1.23,0.336c0.125,0.219,0.148,0.468,0.084,0.693L330.049,422.231z" fill="#ff8ede" data-original="#ff8ede"></path>
					</g>
					<path style="" d="M331.451,415.891c0.177,0,0.348,0.103,0.425,0.277c1.151,2.655,1.862,5.76,2.22,8.857       c0.664,5.623,0.165,11.23-0.986,14.114c-1.262,3.208-4.196,6.942-7.931,6.942c-0.302,0-0.61-0.024-0.923-0.076       c-4.626-0.76-5.76-5.398-5.462-9.702c0.125-1.818,0.503-3.572,0.982-4.951c2.075-5.989,6.363-11.552,11.399-15.369       C331.261,415.92,331.357,415.891,331.451,415.891 M331.451,413.758c-0.558,0-1.092,0.176-1.542,0.509       c-5.584,4.232-10.004,10.199-12.148,16.387c-0.576,1.659-0.964,3.614-1.094,5.504c-0.46,6.663,2.248,11.132,7.245,11.953       c0.421,0.069,0.847,0.104,1.268,0.104c4.597,0,8.292-4.166,9.916-8.294c1.34-3.359,1.791-9.449,1.119-15.145       c-0.408-3.531-1.232-6.802-2.381-9.455C333.415,414.367,332.481,413.758,331.451,413.758L331.451,413.758z" fill="#000e3f" data-original="#000e3f" class=""></path>
				</g>
				<g>
					<g>
						<path style="" d="M358.241,449.58c-2.171,0-4.181-0.978-5.66-2.754c-1.861-2.236-3.733-6.776-2.086-15.709        c0.625-3.161,1.541-6.188,2.724-9.012c1.102-2.64,2.432-5.05,3.846-6.966c0.283-0.386,0.74-0.618,1.22-0.618        c0.485,0,0.93,0.225,1.219,0.616c4.879,6.614,7.899,18.365,7.242,24.062c-0.043,0.375-0.098,0.741-0.162,1.104        c-0.518,2.848-1.796,5.501-3.507,7.283C361.855,448.854,360.094,449.58,358.241,449.58z" fill="#fc09b2" data-original="#fc09b2"></path>
						<path style="opacity:0.25;" d="M365.534,440.12c-0.519,2.852-1.798,5.241-3.226,6.729        c-3.721,3.857-13.981,1.91-10.764-15.538c0.644-3.254,1.577-6.21,2.659-8.792c0.78,4.75,2.827,9.295,5.973,12.936        C361.733,437.252,363.547,438.817,365.534,440.12z" fill="#000e3f" data-original="#000e3f" class=""></path>
						<path style="" d="M359.502,420.261c1.115,1.061,1.721,2.168,2.287,3.365c0.552,1.182,0.958,2.409,1.25,3.649        c0.574,2.485,0.819,5.021,0.422,7.579c-0.079,0.506-0.553,0.852-1.059,0.774c-0.318-0.049-0.573-0.255-0.699-0.527        l-0.013-0.028c-0.529-1.164-0.891-2.332-1.218-3.499c-0.348-1.161-0.62-2.327-0.894-3.483        c-0.258-1.162-0.521-2.31-0.749-3.465c-0.235-1.128-0.496-2.352-0.69-3.384l-0.041-0.218c-0.085-0.455,0.215-0.893,0.67-0.979        C359.043,419.993,359.314,420.084,359.502,420.261z" fill="#ff8ede" data-original="#ff8ede"></path>
					</g>
					<path style="" d="M358.286,415.589c0.135,0,0.27,0.06,0.362,0.184c4.98,6.749,7.63,18.185,7.039,23.305       c-0.04,0.354-0.093,0.7-0.153,1.042c-0.519,2.852-1.798,5.241-3.226,6.729c-1.008,1.045-2.497,1.664-4.067,1.664       c-4.225,0-9.043-4.481-6.697-17.202c0.644-3.254,1.577-6.21,2.659-8.793c1.126-2.699,2.417-4.98,3.72-6.745       C358.013,415.651,358.149,415.589,358.286,415.589 M358.286,413.455L358.286,413.455c-0.82,0-1.598,0.395-2.083,1.056       c-1.46,1.977-2.833,4.464-3.969,7.185c-1.21,2.887-2.147,5.984-2.783,9.2c-1.727,9.366,0.303,14.201,2.31,16.612       c1.684,2.024,3.986,3.138,6.479,3.138c2.14,0,4.182-0.844,5.602-2.316c1.856-1.935,3.236-4.786,3.789-7.829       c0.07-0.396,0.129-0.785,0.174-1.183c0.694-6.008-2.341-17.898-7.442-24.812C359.875,413.846,359.099,413.455,358.286,413.455       L358.286,413.455z" fill="#000e3f" data-original="#000e3f" class=""></path>
				</g>
			</g>
		</g>
	</g>
	<g>
		<g>
			<g>
				<path style="" d="M239.021,178.228c-15.159,49.504-43.053,91.327-78.117,127.955h-36.058      c-12.677-13.248-24.425-27.17-34.961-41.893c-18.609-25.99-33.48-54.461-43.15-86.062c-6.413-20.943-5.784-43.47,2.174-63.875      c22.655-58.116,101.253-72.807,151.784-42.919c21.091,12.479,34.833,32.941,40.168,55.859      C244.677,143.683,244.19,161.331,239.021,178.228z" fill="#ffcf00" data-original="#ffcf00"></path>
				<path style="opacity:0.5;" d="M239.021,178.228c-15.159,49.504-43.053,91.327-78.117,127.955h-36.058      c-12.677-13.248-24.425-27.17-34.961-41.893c2.276,0.225,4.559,0.34,6.836,0.353c32.601,0.154,73.051-19.821,102.754-65.408      c11.491-17.628,15.505-39.546,27.279-57.405c3.694-5.598,8.535-10.747,14.108-14.537      C244.677,143.683,244.19,161.331,239.021,178.228z" fill="#fd8a02" data-original="#fd8a02" class=""></path>
				<path style="" d="M222.785,148.512c0.058,9.901-1.077,19.936-3.456,29.715      c-12.055,49.504-34.236,91.327-62.118,127.955h-28.67c-10.023-13.171-19.314-27.009-27.644-41.636      c-14.877-26.054-26.753-54.609-34.467-86.318c-5.098-20.943-4.598-43.47,1.725-63.875      c11.902-38.411,43.239-57.854,74.725-57.995h0.141c16.108-0.038,32.242,4.97,45.83,15.076      C210.671,87.67,222.599,117.405,222.785,148.512z" fill="#fd8a02" data-original="#fd8a02" class=""></path>
				<path style="opacity:0.18;" d="M222.785,148.512c0.058,9.901-1.077,19.936-3.456,29.715      c-12.055,49.504-34.236,91.327-62.118,127.955h-28.67c-10.023-13.171-19.314-27.009-27.644-41.636      c9.535-0.442,19.661-2.565,29.921-6.496c8.657-3.315,17.41-7.919,26.003-13.883c15.217-10.555,29.927-25.393,42.656-44.932      C209.569,183.749,213.897,164.954,222.785,148.512z" fill="#000e3f" data-original="#000e3f" class=""></path>
				<path style="" d="M191.598,178.221c-2.304,14.869-5.209,29.058-8.613,42.618      c-7.88,31.571-18.534,59.738-30.969,85.34h-18.272c-6.649-13.743-12.827-28.22-18.298-43.56      c-9.188-25.524-16.492-53.482-21.309-84.398c-3.246-20.942-2.932-43.455,1.099-63.874      c11.492-58.115,51.335-72.801,76.937-42.906C190.524,92.828,197.88,137.697,191.598,178.221z" fill="#ffcf00" data-original="#ffcf00"></path>
				<path style="opacity:0.5;" d="M182.985,220.839c-7.88,31.571-18.534,59.738-30.969,85.34h-18.272      c-6.649-13.743-12.827-28.22-18.298-43.56C137.776,257.854,161.912,244.399,182.985,220.839z" fill="#fd8a02" data-original="#fd8a02" class=""></path>
				<path style="" d="M163.091,178.228c-1.526,23.643-3.655,45.535-6.271,65.94      c-2.86,22.328-6.297,42.88-10.151,62.015h-7.586c-3.04-15.102-5.822-31.088-8.266-48.132      c-3.488-24.291-6.284-50.729-8.157-79.823c-1.347-20.943-1.218-43.47,0.455-63.875c4.765-58.116,21.289-72.807,31.915-42.919      C162.642,92.832,165.701,137.701,163.091,178.228z" fill="#fd8a02" data-original="#fd8a02" class=""></path>
				<path style="opacity:0.18;" d="M156.819,244.167c-2.86,22.328-6.297,42.88-10.151,62.015h-7.586      c-3.04-15.102-5.822-31.088-8.266-48.132C139.474,254.735,148.227,250.131,156.819,244.167z" fill="#000e3f" data-original="#000e3f" class=""></path>
				<path style="" d="M189.847,105.265c-3.498-3.496-8.149-5.419-13.094-5.417c-4.947-0.001-9.591,1.929-13.091,5.426      c-1.79,1.792-3.161,3.889-4.08,6.17c-3.468-2.29-8.746-4.782-15.537-5.043c-7.964-0.305-14.166,2.638-17.888,5.077      c-2.746-6.798-9.403-11.613-17.171-11.61c-4.948,0.001-9.598,1.93-13.091,5.426c-3.497,3.498-5.423,8.15-5.42,13.095      c0.004,10.208,8.313,18.511,18.52,18.508c2.192,0,4.326-0.378,6.326-1.105c2.515-0.913,4.82-2.373,6.765-4.321      c3.497-3.498,5.423-8.148,5.421-13.094c0-0.649-0.036-1.29-0.101-1.921c2.821-2.13,8.625-5.564,16.456-5.263      c6.732,0.259,11.696,3.126,14.483,5.251c-0.064,0.635-0.102,1.277-0.101,1.924c0.005,10.209,8.313,18.512,18.521,18.509      c2.209,0,4.329-0.39,6.294-1.103c7.119-2.584,12.218-9.417,12.218-17.418C195.274,113.41,193.345,108.761,189.847,105.265z       M118.695,128.082c-2.591,2.592-6.039,4.023-9.702,4.022c-7.565,0.003-13.721-6.151-13.723-13.716      c-0.003-3.665,1.424-7.11,4.015-9.703c1.443-1.444,3.15-2.525,5.014-3.202c1.483-0.538,3.065-0.82,4.688-0.82      c7.565-0.003,13.721,6.151,13.723,13.718C122.713,122.043,121.287,125.49,118.695,128.082z M190.479,118.357      c0.002,7.567-6.157,13.722-13.716,13.726c-7.565,0.003-13.721-6.151-13.724-13.718c-0.002-3.664,1.424-7.11,4.015-9.702      c2.595-2.595,6.042-4.021,9.701-4.022c3.666-0.001,7.112,1.425,9.704,4.015C189.05,111.248,190.479,114.692,190.479,118.357z" fill="#4217a6" data-original="#4217a6"></path>
				<g>
					<path style="" d="M93.788,144.081c5.529-6.15,17.109-6.437,23.963-2.481c6.786,3.916,6.376,12.629-3.963,15.633       C99.626,161.348,86.616,152.059,93.788,144.081z" fill="#fc09b2" data-original="#fc09b2"></path>
					<path style="" d="M191.977,144.05c-5.533-6.147-17.113-6.426-23.965-2.466c-6.784,3.92-6.369,12.633,3.972,15.63       C186.15,161.32,199.154,152.024,191.977,144.05z" fill="#fc09b2" data-original="#fc09b2"></path>
				</g>
				<path style="opacity:0.75;" d="M66.004,107.804c-22.989,48.666,0.548,81.849-5.218,83.572      c-0.715,0.214-1.464-0.135-1.774-0.789c-16.736-35.247-7.862-74.85,10.566-95.048c1.151-1.262,3.135,0.272,2.208,1.702      C69.621,100.583,67.691,104.198,66.004,107.804z" fill="#ffffff" data-original="#ffffff" class=""></path>
			</g>
			<g>
				<path style="" d="M107.906,112.114c-6.726,1.551-8.047,10.583-2.724,14.5c6.618,4.868,16.133-1.192,13.025-9.012      C116.439,113.158,111.838,111.207,107.906,112.114z" fill="#000e3f" data-original="#000e3f" class=""></path>
				<path style="" d="M177.814,112.092c-3.934-0.904-8.534,1.05-10.297,5.494c-3.105,7.821,6.416,13.876,13.03,9.003      C185.867,122.67,184.54,113.638,177.814,112.092z" fill="#000e3f" data-original="#000e3f" class=""></path>
				<path style="" d="M154.275,125.55c-9.796-2.324-21.087-0.859-24.098,0.44c-4.779,2.04-3.316,8.027-0.988,11.869      l27.488,0.118c1.353-1.985,2.127-4.365,2.054-7.143C158.677,128.291,157.288,126.271,154.275,125.55z" fill="#000e3f" data-original="#000e3f" class=""></path>
				<path style="" d="M160.904,307.249h-36.058c-0.291,0-0.57-0.119-0.771-0.329      c-13.145-13.737-24.94-27.871-35.058-42.009c-19.551-27.305-34.12-56.365-43.303-86.371      c-6.519-21.289-5.737-44.222,2.201-64.575c9.505-24.382,29.631-42.952,56.669-52.288c31.823-10.986,68.857-7.601,96.651,8.839      c20.568,12.17,35.009,32.248,40.664,56.535c3.927,16.87,3.284,34.674-1.859,51.488l-0.001,0.001      c-14.093,46.023-39.727,88.017-78.366,128.38C161.474,307.13,161.195,307.249,160.904,307.249z M125.303,305.116h35.145      c38.227-40.015,63.598-81.628,77.553-127.201c5.033-16.455,5.663-33.876,1.821-50.38c-5.521-23.714-19.61-43.312-39.672-55.183      c-27.27-16.13-63.624-19.448-94.868-8.658c-26.437,9.129-46.105,27.257-55.379,51.046c-7.763,19.907-8.526,42.343-2.148,63.175      c9.115,29.785,23.582,58.637,42.998,85.754C100.731,277.612,112.354,291.555,125.303,305.116z M239.021,178.227h0.012H239.021z" fill="#000e3f" data-original="#000e3f" class=""></path>
			</g>
			<path style="" d="M156.678,137.977c-5.337,7.812-19.568,9.224-26.118,1.812c-0.469-0.541-0.938-1.19-1.371-1.929     c3.173-4.059,8.132-6.659,13.688-6.66C148.505,131.198,153.502,133.848,156.678,137.977z" fill="#ff8ede" data-original="#ff8ede"></path>
		</g>
		<g>
			<g>
				<path style="" d="M164.593,360.013c-0.477,0-0.911-0.322-1.033-0.804l-6.436-25.34      c-0.044-0.173-0.044-0.353,0-0.526l6.436-25.34c0.144-0.57,0.722-0.921,1.296-0.771c0.571,0.145,0.916,0.725,0.771,1.296      l-6.369,25.077l6.369,25.077c0.145,0.571-0.2,1.152-0.771,1.296C164.768,360.002,164.68,360.013,164.593,360.013z" fill="#000e3f" data-original="#000e3f" class=""></path>
				<path style="" d="M153.063,360.013c-0.477,0-0.911-0.322-1.033-0.804l-6.436-25.34      c-0.044-0.173-0.044-0.353,0-0.526l6.436-25.34c0.144-0.57,0.719-0.921,1.296-0.771c0.571,0.145,0.916,0.725,0.771,1.296      l-6.369,25.077l6.369,25.077c0.145,0.571-0.2,1.152-0.771,1.296C153.238,360.002,153.15,360.013,153.063,360.013z" fill="#000e3f" data-original="#000e3f" class=""></path>
				<path style="" d="M121.154,360.013c-0.087,0-0.175-0.011-0.263-0.034c-0.57-0.145-0.916-0.725-0.771-1.296      l6.369-25.077l-6.369-25.077c-0.145-0.571,0.2-1.152,0.771-1.296c0.573-0.147,1.152,0.2,1.297,0.771l6.436,25.34      c0.044,0.173,0.044,0.353,0,0.526l-6.436,25.34C122.065,359.691,121.63,360.013,121.154,360.013z" fill="#000e3f" data-original="#000e3f" class=""></path>
				<path style="" d="M132.684,360.013c-0.087,0-0.175-0.011-0.263-0.034c-0.571-0.145-0.916-0.725-0.771-1.296      l6.369-25.077l-6.369-25.077c-0.145-0.571,0.2-1.152,0.771-1.296c0.575-0.147,1.152,0.2,1.297,0.771l6.436,25.34      c0.044,0.173,0.044,0.353,0,0.526l-6.436,25.34C133.595,359.691,133.161,360.013,132.684,360.013z" fill="#000e3f" data-original="#000e3f" class=""></path>
			</g>
			<g>
				<path style="" d="M123.095,336.281c-1.475,0-2.676-1.2-2.676-2.676c0-1.475,1.2-2.676,2.676-2.676h39.556      c1.475,0,2.676,1.201,2.676,2.676c0,1.475-1.201,2.676-2.676,2.676H123.095z" fill="#915efd" data-original="#915efd"></path>
				<path style="" d="M162.651,331.997c0.888,0,1.609,0.72,1.609,1.609c0,0.889-0.72,1.609-1.609,1.609h-39.556      c-0.889,0-1.609-0.72-1.609-1.609c0-0.888,0.72-1.609,1.609-1.609H162.651 M162.651,329.863h-39.556      c-2.064,0-3.743,1.679-3.743,3.742s1.679,3.742,3.743,3.742h39.556c2.064,0,3.742-1.679,3.742-3.742      S164.715,329.863,162.651,329.863L162.651,329.863z" fill="#000e3f" data-original="#000e3f" class=""></path>
			</g>
			<g>
				<g>
					<path style="" d="M171.232,307.461c0,2.446-1.983,4.425-4.424,4.425h-47.865c-1.223,0-2.329-0.495-3.129-1.295       c-0.801-0.8-1.295-1.907-1.295-3.129c0-2.446,1.979-4.424,4.425-4.424h47.865c1.223,0,2.325,0.495,3.129,1.295       C170.737,305.132,171.232,306.238,171.232,307.461z" fill="#fc09b2" data-original="#fc09b2"></path>
					<path style="opacity:0.25;" d="M171.232,307.461c0,2.446-1.983,4.425-4.424,4.425h-24.439       c2.015-2.671,3.62-5.68,4.843-8.849h19.597c1.223,0,2.325,0.495,3.129,1.295C170.737,305.132,171.232,306.238,171.232,307.461z       " fill="#000e3f" data-original="#000e3f" class=""></path>
					<path style="" d="M135.124,305.435c4.396,0.25,6.601,0.352,6.333,1.457c-0.17,0.7-1.289,0.876-6.333,1.162       c-1.873,0.116-3.746,0.144-5.62,0.154c-1.873-0.019-3.746-0.054-5.619-0.178c-4.528-0.276-6.542-0.398-6.287-1.426       C118.007,304.95,133.269,305.32,135.124,305.435z" fill="#ff8ede" data-original="#ff8ede"></path>
				</g>
				<path style="" d="M166.808,312.952h-47.865c-1.467,0-2.846-0.571-3.883-1.608      c-1.036-1.036-1.608-2.415-1.608-3.884c0-3.028,2.463-5.491,5.491-5.491h47.865c1.463,0,2.841,0.57,3.882,1.605      c1.039,1.039,1.609,2.418,1.609,3.886C172.299,310.489,169.836,312.952,166.808,312.952z M118.942,304.103      c-1.852,0-3.357,1.507-3.357,3.358c0,0.898,0.349,1.742,0.983,2.375c0.634,0.634,1.477,0.983,2.375,0.983h47.865      c1.851,0,3.358-1.506,3.358-3.358c0-0.898-0.349-1.741-0.983-2.375c-0.637-0.633-1.48-0.983-2.375-0.983H118.942z" fill="#000e3f" data-original="#000e3f" class=""></path>
			</g>
		</g>
		<g>
			<g>
				<g>
					<path style="" d="M170.597,354.119l-3.146,46.393c-0.177,2.591-2.329,4.602-4.923,4.602h-39.31       c-2.594,0-4.746-2.011-4.923-4.602l-0.31-4.561l-2.832-41.832H170.597z" fill="#91d728" data-original="#91d728" class=""></path>
					<path style="opacity:0.25;" d="M170.087,357.766l-2.898-2.897l0.75-0.75h-3.896l0.749,0.75l-2.897,2.897       l-2.897-2.897l0.749-0.749h-3.895l0.749,0.749l-1.534,1.534l0,0l-1.364,1.364l-2.897-2.897l0.75-0.75h-3.896l0.749,0.75       l-2.897,2.897l-2.897-2.897l0.749-0.749h-3.896l0.749,0.749l-2.897,2.897l-1.363-1.363l0,0l-1.534-1.534l0.749-0.749h-3.895       l0.749,0.749l-2.898,2.897l-2.897-2.897l0.749-0.75h-3.896l0.75,0.75l-2.897,2.897l-2.897-2.897l0.749-0.75h-3.638l0.019,0.277       l0.473,0.473l-0.413,0.413l0.152,2.245l1.46-1.46l2.897,2.897l-2.897,2.897l-1.251-1.252l0.31,4.589l0.941-0.941l2.897,2.897       l-1.534,1.534l0,0l-1.364,1.364l-0.656-0.657l0.235,3.475l0.421-0.421l1.534,1.534l0,0l1.363,1.363l-2.897,2.897l-0.062-0.062       l0.174,2.571l2.785,2.785l-2.432,2.431l0.242,3.57l2.19,2.19l-1.912,1.912l0.156,2.309l0.161,2.375l1.594,1.594l-1.325,1.325       c0.136,0.612,0.382,1.176,0.719,1.677l1.804-1.804l2.897,2.897l-1.055,1.055c0.146,0.013,0.288,0.042,0.437,0.042h4.113       l-1.098-1.098l2.897-2.897l2.897,2.897l-1.097,1.097h4.591l-1.097-1.097l2.897-2.897l1.534,1.534l0,0l1.363,1.363l-1.098,1.098       h4.592l-1.098-1.098l2.897-2.897l2.897,2.897l-1.097,1.097h4.592l-1.098-1.097l1.363-1.363l0.171-0.171l1.363-1.363       l2.897,2.897l-1.097,1.097h4.591l-1.097-1.097l2.897-2.897l2.897,2.897l-0.876,0.876c1.602-0.473,2.874-1.723,3.343-3.343       l-1.268,1.268l-2.897-2.897l2.897-2.897l1.588,1.588l0.152-2.245l-0.542-0.542l0.621-0.621l0.174-2.571l-1.994,1.994       l-2.897-2.897l2.897-2.897l2.109,2.109l0.152-2.245l-1.063-1.063l1.217-1.217l0.174-2.571l-2.59,2.59l-2.897-2.897l2.897-2.897       l2.629,2.629l0.152-2.244l-1.582-1.583l1.813-1.813l0.29-4.276l-0.74-0.74l0,0l-1.363-1.363l1.534-1.534l0,0l0.875-0.875       l0.214-3.16l-2.622-2.622l2.897-2.897l0.093,0.093l0.188-2.772L170.087,357.766z M164.794,363.06l-1.363,1.363l0,0       l-1.534,1.534l-2.898-2.897l1.363-1.363l0,0l1.535-1.534L164.794,363.06z M160.697,383.538l-2.897,2.897l-1.363-1.364l0,0       l-1.534-1.534l2.897-2.897l1.364,1.363l0,0L160.697,383.538z M122.138,367.155l2.897-2.897l1.535,1.535v0l1.363,1.363       l-2.897,2.898l-1.364-1.364l0.001,0L122.138,367.155z M156.602,371.251l-2.897,2.897l-2.898-2.897l2.897-2.897L156.602,371.251       z M154.903,367.155l2.897-2.897l2.898,2.897l-2.897,2.897L154.903,367.155z M134.59,385.072l-1.364,1.364l-2.897-2.898       l1.533-1.533l0,0l1.364-1.363l2.897,2.897L134.59,385.072L134.59,385.072z M132.028,379.442l-1.533,1.533v0l-1.363,1.363       l-2.897-2.897l1.363-1.363l0,0l1.534-1.534L132.028,379.442z M130.329,375.347l2.897-2.897l2.897,2.897l-2.898,2.897       L130.329,375.347z M134.424,379.442l2.898-2.897l2.897,2.897l-2.897,2.897L134.424,379.442z M138.521,375.346l2.897-2.897       l2.897,2.897l-2.897,2.897L138.521,375.346z M141.418,380.641l2.897,2.897l-2.897,2.898l-2.897-2.897L141.418,380.641z        M142.616,379.442l2.897-2.897l2.897,2.897l-2.897,2.897L142.616,379.442z M146.712,375.346l2.897-2.897l2.898,2.897       l-2.897,2.897L146.712,375.346z M149.609,380.641l2.897,2.897l-2.897,2.897l-2.897-2.897L149.609,380.641z M150.807,379.442       l2.897-2.897l2.897,2.897l-2.897,2.897L150.807,379.442z M149.609,370.052l-2.897-2.897l2.897-2.897l2.897,2.897       L149.609,370.052z M148.41,371.251l-2.897,2.897l-2.897-2.897l2.897-2.897L148.41,371.251z M141.418,370.052l-2.897-2.897       l2.897-2.897l2.897,2.897L141.418,370.052z M140.219,371.251l-2.897,2.897l-2.897-2.897l2.897-2.897L140.219,371.251z        M133.227,370.053l-2.897-2.898l2.897-2.897l2.897,2.897L133.227,370.053z M132.028,371.251l-2.897,2.897l-2.897-2.897       l2.897-2.898L132.028,371.251z M127.932,375.347l-1.363,1.363v0l-1.534,1.534l-2.897-2.897l1.363-1.363l0.171-0.171       l1.363-1.363L127.932,375.347z M127.933,383.538l-2.897,2.897l-2.897-2.897l2.897-2.897L127.933,383.538z M127.933,391.729       l-2.897,2.897l-2.897-2.897l2.897-2.898L127.933,391.729z M126.234,387.633l2.897-2.897l2.897,2.897l-2.897,2.897       L126.234,387.633z M133.227,388.832l2.897,2.897l-2.897,2.898l-2.897-2.897L133.227,388.832z M134.425,387.634l1.534-1.534h0       l1.363-1.364l2.897,2.897l-1.363,1.363l0,0l-1.534,1.534L134.425,387.634z M139.883,390.366L139.883,390.366l1.534-1.534       l2.897,2.897l-1.363,1.363l-0.171,0.171l-1.363,1.363l-2.897-2.898L139.883,390.366z M142.616,387.634l2.897-2.898l2.897,2.897       l-2.897,2.897L142.616,387.634z M149.609,388.832l1.363,1.363l0.171,0.171l1.363,1.363l-2.897,2.897l-1.534-1.534l0,0       l-1.363-1.363L149.609,388.832z M152.341,389.167l-0.171-0.171l-1.363-1.363l2.897-2.897l1.364,1.364h0l1.533,1.534       l-2.897,2.897L152.341,389.167z M157.8,388.832l2.897,2.897l-2.897,2.897l-2.897-2.897L157.8,388.832z M154.903,375.347       l2.897-2.897l2.897,2.897l-2.897,2.897L154.903,375.347z M158.999,371.251l2.897-2.897l2.897,2.897l-2.897,2.897       L158.999,371.251z M156.437,357.431L156.437,357.431l1.364-1.364l2.897,2.897l-1.363,1.363l0,0l-1.534,1.534l-2.897-2.897       L156.437,357.431z M156.601,363.06l-2.897,2.897l-2.897-2.897l2.897-2.897L156.601,363.06z M149.609,356.067l2.897,2.897       l-2.897,2.897l-2.897-2.897L149.609,356.067z M148.411,363.06l-2.897,2.897l-2.897-2.897l2.897-2.897L148.411,363.06z        M141.418,356.067l2.897,2.897l-2.897,2.897l-2.897-2.898L141.418,356.067z M140.219,363.06l-2.897,2.897l-2.897-2.897       l2.897-2.897L140.219,363.06z M133.227,356.067l1.364,1.364l0,0l1.533,1.533l-2.897,2.897l-1.534-1.534l0,0l-1.363-1.363       L133.227,356.067z M130.665,361.697L130.665,361.697l1.363,1.363l-2.897,2.897l-1.534-1.534h0l-1.363-1.363l2.897-2.897       L130.665,361.697z M125.035,356.067l2.897,2.897l-2.897,2.897l-2.897-2.897L125.035,356.067z M118.043,363.06l2.897-2.897       l2.897,2.897l-2.897,2.897L118.043,363.06z M119.405,372.614L119.405,372.614l-1.363-1.363l1.534-1.534l0,0l1.364-1.364       l1.364,1.364l0,0.001l1.534,1.534l-1.363,1.363l-0.171,0.171l-1.363,1.363L119.405,372.614z M118.043,379.442l2.897-2.897       l2.897,2.897l-2.897,2.897L118.043,379.442z M118.042,387.634l2.897-2.897l2.897,2.897l-2.897,2.898L118.042,387.634z        M118.043,395.825l2.897-2.897l2.897,2.897l-2.897,2.897L118.043,395.825z M125.035,402.817l-2.897-2.897l2.897-2.897       l2.897,2.897L125.035,402.817z M126.234,395.825l2.897-2.897l2.897,2.897l-2.897,2.897L126.234,395.825z M133.227,402.818       l-2.897-2.897l2.897-2.897l2.897,2.897L133.227,402.818z M134.425,395.825l2.897-2.898l2.897,2.898l-2.897,2.897       L134.425,395.825z M141.418,402.817l-1.534-1.534l0,0l-1.363-1.363l2.897-2.897l1.364,1.363l-0.001,0.001l1.534,1.534       L141.418,402.817z M144.15,397.359L144.15,397.359l-1.533-1.534l1.363-1.363l0.171-0.171l1.363-1.363l1.534,1.534l0,0       l1.363,1.363l-1.534,1.534l0,0l-1.364,1.364L144.15,397.359z M151.143,401.283l-0.171,0.171l-1.364,1.364l-2.897-2.897       l1.534-1.534l0,0l1.364-1.364l2.897,2.897L151.143,401.283z M150.807,395.825l2.897-2.897l2.897,2.897l-2.897,2.897       L150.807,395.825z M157.8,402.818l-2.897-2.897l2.897-2.897l2.898,2.897L157.8,402.818z M164.793,395.825l-2.897,2.897       l-2.898-2.897l2.897-2.897L164.793,395.825z M164.793,387.634l-2.897,2.897l-2.897-2.897l2.897-2.897L164.793,387.634z        M161.896,382.339l-1.364-1.364v0l-1.533-1.533l2.897-2.897l1.534,1.534v0l1.363,1.363L161.896,382.339z M167.525,373.984       L167.525,373.984l1.363,1.363l-2.897,2.897l-1.534-1.534l0,0l-1.363-1.363l2.897-2.897L167.525,373.984z M168.889,367.155       l-1.534,1.534v0l-1.364,1.364l-2.897-2.897l1.363-1.363l0,0l1.535-1.535L168.889,367.155z M165.992,361.861l-2.897-2.897       l2.897-2.897l2.898,2.897L165.992,361.861z" fill="#000e3f" data-original="#000e3f" class=""></path>
					<path style="opacity:0.25;" d="M170.597,354.119l-3.146,46.393c-0.177,2.591-2.329,4.602-4.923,4.602h-39.31       c-2.594,0-4.746-2.011-4.923-4.602l0,0c-0.168-2.467,1.789-4.561,4.262-4.561h27.819c3.94,0,7.192-3.082,7.403-7.017       l1.279-23.877C159.387,358.923,164.455,354.119,170.597,354.119L170.597,354.119z" fill="#000e3f" data-original="#000e3f" class=""></path>
					<path style="" d="M124.858,390.217c-0.093,0.991-1.36,1.112-1.596,0.14c-1.537-6.403-2.294-17.759-1.661-24.272       c0.046-0.469,0.424-0.807,0.844-0.757C124.243,365.545,125.52,383.198,124.858,390.217z" fill="#ffffff" data-original="#ffffff" class=""></path>
				</g>
				<path style="" d="M162.528,406.18h-39.31c-3.143,0-5.773-2.458-5.987-5.596l-3.141-46.393      c-0.02-0.295,0.083-0.585,0.285-0.801c0.202-0.216,0.484-0.338,0.78-0.338h55.443c0.295,0,0.578,0.123,0.78,0.338      c0.202,0.216,0.305,0.505,0.285,0.801l-3.146,46.393C168.301,403.722,165.671,406.18,162.528,406.18z M116.295,355.186      l3.065,45.254c0.138,2.023,1.833,3.607,3.859,3.607h39.31c2.026,0,3.721-1.585,3.859-3.608l3.069-45.254H116.295z" fill="#000e3f" data-original="#000e3f" class=""></path>
			</g>
			<g>
				<g>
					<path style="" d="M174.45,358.544c0,2.446-1.983,4.425-4.424,4.425h-54.301c-1.223,0-2.329-0.495-3.129-1.295       c-0.801-0.801-1.295-1.907-1.295-3.129c0-2.446,1.979-4.425,4.425-4.425h54.301c1.223,0,2.325,0.495,3.129,1.295       C173.955,356.215,174.45,357.321,174.45,358.544z" fill="#fc09b2" data-original="#fc09b2"></path>
					<path style="opacity:0.25;" d="M174.45,358.544c0,2.446-1.983,4.425-4.424,4.425h-28.651       c0.233-0.229,0.463-0.467,0.688-0.708c2.225-2.405,3.825-5.16,4.94-8.141h23.024c1.223,0,2.325,0.495,3.129,1.295       C173.955,356.215,174.45,357.321,174.45,358.544z" fill="#000e3f" data-original="#000e3f" class=""></path>
					<path style="" d="M115.595,357.226c6.241-0.925,17.51-0.984,23.987-0.041c0.981,0.143,0.985,1.238,0,1.383       c-6.305,0.918-17.564,0.911-23.987-0.041C114.674,358.39,114.674,357.365,115.595,357.226z" fill="#ff8ede" data-original="#ff8ede"></path>
				</g>
				<path style="" d="M170.025,364.035h-54.3c-1.468,0-2.847-0.571-3.884-1.608c-1.037-1.036-1.608-2.416-1.608-3.883      c0-3.028,2.463-5.491,5.491-5.491h54.3c1.463,0,2.841,0.57,3.882,1.605c1.039,1.039,1.61,2.418,1.61,3.886      C175.517,361.572,173.053,364.035,170.025,364.035z M115.725,355.186c-1.852,0-3.358,1.507-3.358,3.358      c0,0.898,0.349,1.742,0.983,2.375c0.634,0.634,1.478,0.983,2.375,0.983h54.3c1.852,0,3.358-1.507,3.358-3.358      c0-0.898-0.349-1.741-0.983-2.375c-0.637-0.633-1.481-0.983-2.375-0.983H115.725z" fill="#000e3f" data-original="#000e3f" class=""></path>
			</g>
		</g>
	</g>
	<g>
		<path style="" d="M250.652,13.357c-0.412-0.764-1.391-0.825-1.928-0.153c-0.576,0.721-0.874,1.594-1.22,2.438    c-2.564,6.249-6.092,9.102-7.533,10.49c-0.362,0.348-0.73,1.638-0.204,2.254c1.526,1.79,4.681,4.012,7.428,11.338    c0.247,0.657,0.505,1.319,0.85,1.925c0.48,0.845,1.507,0.899,2.076,0.088c1.288-1.833,1.364-4.748,5.657-9.782    c2.52-2.954,4.97-3.882,2.867-5.674C253.401,21.816,251.605,15.127,250.652,13.357z" fill="#fd8a02" data-original="#fd8a02" class=""></path>
		<path style="" d="M211.659,453.454c-0.474-0.88-1.602-0.951-2.221-0.176c-0.663,0.83-1.006,1.836-1.405,2.808    c-2.958,7.211-7.036,10.503-8.676,12.082c-0.416,0.401-0.841,1.887-0.235,2.597c1.758,2.06,5.387,4.61,8.556,13.058    c0.284,0.756,0.581,1.519,0.979,2.218c0.554,0.973,1.736,1.036,2.392,0.102c1.485-2.113,1.571-5.469,6.516-11.267    c2.902-3.403,5.725-4.471,3.302-6.535C214.826,463.197,212.758,455.493,211.659,453.454z" fill="#fd8a02" data-original="#fd8a02" class=""></path>
		<path style="" d="M477.539,423.416c-0.414-0.763-1.394-0.82-1.929-0.146c-0.573,0.723-0.868,1.597-1.211,2.443    c-2.54,6.258-6.058,9.125-7.493,10.519c-0.36,0.349-0.724,1.641-0.196,2.255c1.533,1.784,4.696,3.994,7.471,11.309    c0.249,0.655,0.51,1.317,0.857,1.922c0.484,0.843,1.51,0.894,2.077,0.081c1.281-1.837,1.346-4.753,5.62-9.804    c2.508-2.963,4.956-3.901,2.845-5.684C480.32,431.865,478.499,425.183,477.539,423.416z" fill="#fd8a02" data-original="#fd8a02" class=""></path>
		<path style="" d="M491.462,127.115c0.249,0.656,0.51,1.317,0.857,1.922c0.484,0.843,1.51,0.894,2.077,0.081    c1.281-1.837,1.346-4.753,5.62-9.804c2.508-2.963,4.956-3.901,2.845-5.684c-5.26-4.446-7.082-11.128-8.042-12.895    c-0.415-0.763-1.394-0.82-1.929-0.146c-0.573,0.723-0.868,1.597-1.211,2.443c-2.54,6.259-6.058,9.125-7.493,10.518    c-0.36,0.349-0.724,1.641-0.196,2.255C485.524,117.59,488.687,119.8,491.462,127.115z" fill="#fd8a02" data-original="#fd8a02" class=""></path>
		<path style="" d="M62.947,440.811c-0.414-0.763-1.394-0.82-1.929-0.146c-0.573,0.723-0.868,1.597-1.211,2.443    c-2.54,6.258-6.058,9.125-7.493,10.518c-0.36,0.349-0.724,1.642-0.196,2.255c1.533,1.784,4.696,3.994,7.471,11.309    c0.249,0.656,0.51,1.317,0.857,1.922c0.484,0.842,1.51,0.894,2.077,0.081c1.281-1.837,1.346-4.753,5.62-9.804    c2.508-2.963,4.956-3.901,2.845-5.684C65.729,449.26,63.908,442.578,62.947,440.811z" fill="#fd8a02" data-original="#fd8a02" class=""></path>
		<path style="" d="M28.513,318.888c-0.477-0.878-1.606-0.944-2.221-0.168c-0.66,0.832-0.999,1.84-1.395,2.814    c-2.931,7.222-6.997,10.529-8.631,12.115c-0.414,0.403-0.834,1.891-0.225,2.598c1.766,2.053,5.404,4.589,8.605,13.025    c0.286,0.755,0.587,1.517,0.987,2.214c0.557,0.97,1.74,1.029,2.392,0.093c1.477-2.119,1.551-5.475,6.474-11.291    c2.888-3.414,5.708-4.493,3.277-6.547C31.717,328.619,29.619,320.923,28.513,318.888z" fill="#fd8a02" data-original="#fd8a02" class=""></path>
		<path style="" d="M511.077,324.936c-6.059-5.121-8.157-12.817-9.263-14.852c-0.478-0.878-1.606-0.944-2.222-0.168    c-0.66,0.832-0.999,1.84-1.395,2.813c-2.931,7.222-6.997,10.529-8.631,12.115c-0.415,0.403-0.834,1.891-0.225,2.598    c1.766,2.053,5.404,4.589,8.605,13.025c0.287,0.755,0.587,1.517,0.987,2.214c0.558,0.97,1.74,1.029,2.392,0.093    c1.477-2.119,1.551-5.475,6.474-11.291C510.689,328.07,513.508,326.99,511.077,324.936z" fill="#fd8a02" data-original="#fd8a02" class=""></path>
		<path style="" d="M452.775,8.955c-0.478-0.878-1.606-0.944-2.221-0.168c-0.66,0.832-0.999,1.84-1.395,2.814    c-2.931,7.222-6.997,10.529-8.631,12.115c-0.414,0.403-0.834,1.891-0.225,2.598c1.766,2.053,5.404,4.589,8.605,13.025    c0.287,0.755,0.587,1.517,0.987,2.214c0.558,0.97,1.74,1.029,2.392,0.093c1.477-2.119,1.55-5.475,6.473-11.291    c2.888-3.414,5.708-4.493,3.277-6.547C455.979,18.686,453.882,10.99,452.775,8.955z" fill="#fd8a02" data-original="#fd8a02" class=""></path>
	</g>
	<g>
		<path style="" d="M325.961,95.414c-0.51,4.774,0.011,10.568-0.771,19.744c-3.487-8.544-4.296-16.855-5.022-18.93    c-0.892-0.077-5.262,0.443-5.768,1.273l0.006,0.042c2.183,9.365,5.132,18.535,8.906,27.037c0.904,0.16,2.265,0.001,3.455-0.175    c1.149-0.171,2.11-0.48,2.562-0.546c1.218-9.912,2.259-19.042,2.668-29.043c-1.936-0.05-4.058,0.641-5.966,0.504    C325.99,95.325,325.956,95.373,325.961,95.414z" fill="#000e3f" data-original="#000e3f" class=""></path>
		<path style="" d="M342.962,93.168l-0.992,0.084c-2.476,0.252-3.561,0.219-4.558,0.262    c-0.372,0.031-1.415-0.004-1.701,0.061l0.007,0.083c-0.208,9.343,2.098,19.348,2.156,29.375c1.129-0.43,6.659-0.023,7.492-1.009    c-1.332-9.338-1.588-19.224-2.39-28.689L342.962,93.168z" fill="#000e3f" data-original="#000e3f" class=""></path>
		<path style="" d="M365.05,115.905c-3.773,0.213-7.223-0.037-10.874,0.049l-0.041-0.04    c-0.157-1.325-0.375-3.561-0.124-5.186c0.571-0.47,3.319-0.079,5.01-0.574c-0.091-2.033,0.115-3.905-0.22-5.765l-0.002-0.041    c-1.701-0.002-3.442,0.081-5.105-0.004l-0.042-0.04c-0.409-1.485-0.076-3.236-0.156-4.852l0.04-0.043l0.124-0.003    c3.644-0.418,7.349,0.117,10.857-0.754l-0.001-0.042c-0.045-1.95,0.197-3.947-0.138-5.891c-0.006-0.249-10.747,0.171-17.168,0.655    c-0.314,9.513,0.402,18.752,0.63,28.375c5.362,0.33,11.367-0.227,17.01-0.319c0.416-1.67,0.37-3.661,0.204-5.442L365.05,115.905z" fill="#000e3f" data-original="#000e3f" class=""></path>
		<path style="" d="M383.255,93.406c-0.994-0.055-1.99-0.069-2.954,0.085l-0.002,0.041    c-0.725,4.821-1.005,12.824-1.726,17.562c-0.571-1.694-1.351-7.803-1.828-8.204c-0.043,0.04-0.046,0.08-0.094,0.202    c-0.759,2.452-1.43,4.782-2.272,7.228c-0.937-4.829,0.276-12.407,0.093-17.32c-0.992-0.097-2.105-0.242-3.224-0.304    c-0.953-0.053-1.868-0.021-2.703,0.058l-0.003,0.041c-0.367,9.577,0.632,19.23,1.432,28.747l0.041,0.002    c0.616,0.118,1.111,0.186,1.566,0.212c0.788,0.044,1.331-0.008,2.042-0.093c0.948-1.36,1.569-5.813,2.619-6.751l0.042,0.003    c0.908,1.587,1.17,5.84,2.051,7.178l0.497,0.027l1.491,0.083c0.539,0.03,1.035,0.099,1.414-0.005    c1.321-9.565,2.966-18.946,4.327-28.469l-0.038-0.043C385.117,93.552,384.208,93.459,383.255,93.406z" fill="#000e3f" data-original="#000e3f" class=""></path>
		<path style="" d="M389.771,93.962c-1.301,7.451-1.659,14.676-2.603,21.917l0.042,0.005    c1.612,0.141,3.879,0.396,5.341,0.395c0.467-7.086,1.503-14.776,2.424-21.811c-1.475-0.626-3.624-0.451-5.08-0.491L389.771,93.962    z" fill="#000e3f" data-original="#000e3f" class=""></path>
		<path style="" d="M387.301,118.024l-0.004,0.042c-0.173,1.525-1.04,4.767-0.669,4.81l3.096,0.308l0.082,0.009    c0.619,0.069,0.903,0.143,1.563,0.218l0.288,0.032c0.182-1.607,0.47-3.411,0.683-4.932    C390.733,118.328,388.682,117.637,387.301,118.024z" fill="#000e3f" data-original="#000e3f" class=""></path>
		<path style="" d="M312.831,75.725c-0.045-0.289-0.141-0.608-0.225-0.886c-1.223,0.543-9.422,2.244-10.358,2.875    l-0.013-0.039c-1.948-6.868-4.661-14.543-6.542-21.474c-1.701-0.178-5.45,1.043-6.389,1.805    c3.536,11.112,4.997,15.221,8.126,27.279L297.646,86c12.848-3.671,14.527-4.57,15.675-4.787c1.112-0.337,1.291-0.174-0.062-3.926    C313.088,76.861,312.947,76.254,312.831,75.725z" fill="#000e3f" data-original="#000e3f" class=""></path>
		<path style="" d="M322.008,80.035c1.615-0.168,3.15-0.532,4.578-1.257c1.592-0.753,3.049-1.779,3.749-3.255    c0.69-1.77,0.774-3.852,0.546-5.792l-0.123-1.369c-0.31-2.853-0.957-5.476-1.321-8.402c-0.205-1.356-0.451-2.702-0.818-4.026    c-0.28-0.836-0.598-1.662-1.115-2.411c-0.497-0.879-1.225-1.632-2.126-2.184c-3.582-1.835-8.657-0.993-11.929,1.416    c-0.329,0.271-0.571,0.568-0.804,0.907c-1.324,2.222-1.296,4.916-0.891,7.372c0.495,4.336,1.603,8.562,2.54,12.776    c0.331,1.585,0.784,3.147,1.806,4.352C317.474,80.144,319.727,80.24,322.008,80.035z M317.946,57.29    c0.737-0.809,1.895-1.4,3.079-1.152c1.377,0.382,2.356,1.595,2.754,3.082c0.212,0.932,0.58,2.255,0.588,2.296l0.587,2.761    l0.357,1.959c0.023,0.123,0.146,1.027,0.306,2.136c0.228,2.404,0.636,2.33-0.139,3.863c-1.33,2.181-4.803,2.562-6.259,0.593    c-0.858-1.699-1.189-3.748-1.825-5.613c-0.539-2.263-0.922-4.596-0.852-6.759C316.659,59.252,317.141,58.194,317.946,57.29z" fill="#000e3f" data-original="#000e3f" class=""></path>
		<path style="" d="M338.695,76.843c0.89,0.225,2.258,0.165,3.458,0.075c1.158-0.086,2.138-0.324,2.594-0.359    c1.934-9.794,3.633-18.821,4.766-28.763c-1.927-0.189-4.092,0.346-5.984,0.071c-0.041,0.003-0.079,0.048-0.076,0.089    c-0.856,4.721-0.756,10.538-2.202,19.629c-2.856-8.771-3.06-17.116-3.633-19.237c-0.886-0.142-5.278,0.059-5.844,0.85l0.003,0.042    C333.272,58.737,335.549,68.092,338.695,76.843z" fill="#000e3f" data-original="#000e3f" class=""></path>
		<path style="" d="M370.725,71.021l0.003-0.083c-3.776,0.017-7.208-0.412-10.857-0.516l-0.041-0.043    c-0.086-1.33-0.189-3.574,0.148-5.183c0.593-0.44,3.317,0.095,5.03-0.313c0.017-2.033,0.318-3.891,0.081-5.766l0.002-0.041    c-1.699-0.09-3.442-0.098-5.097-0.27l-0.04-0.043c-0.331-1.503,0.092-3.234,0.097-4.852l0.043-0.041l0.124,0.003    c3.658-0.227,7.33,0.5,10.878-0.188l0.002-0.041c0.054-1.949,0.403-3.931,0.167-5.888c0.007-0.249-10.736-0.388-17.172-0.24    c-0.81,9.48-0.575,18.74-0.849,28.36c5.335,0.608,11.36,0.364,16.997,0.567C370.744,74.798,370.8,72.808,370.725,71.021z" fill="#000e3f" data-original="#000e3f" class=""></path>
		<path style="" d="M390.203,75.264c0.018-0.457,0.139-1.069,0.251-1.599c0.079-0.282,0.121-0.612,0.16-0.9    c-1.338-0.007-9.511-1.828-10.624-1.638l0.004-0.042c1.049-7.06,1.731-15.172,2.867-22.263c-1.478-0.863-5.398-1.292-6.567-0.984    c-1.346,11.583-1.704,15.93-3.81,28.208l-0.097,0.74c13.221,1.936,15.121,1.808,16.257,2.082    C389.796,79.019,389.893,79.241,390.203,75.264z" fill="#000e3f" data-original="#000e3f" class=""></path>
		<path style="" d="M412.3,54.649c-1.414-0.326-3.292-0.674-4.309-0.696c-1.474,1.959-3.76,6.328-5.298,8.017    c-0.504-2.246-1.096-7.065-1.071-9.571c-0.541-0.423-1.179-0.613-1.826-0.762c-1.171-0.271-2.441-0.309-3.533-0.56    c0.038,4.819,1.795,10.121,1.877,15.122l-0.019,0.08c-2.992,4.292-6.1,8.726-8.522,12.766l0.081,0.018    c0.313,0.115,0.637,0.19,0.961,0.264c1.252,0.289,2.696,0.494,3.827,0.756c0.365,0.085,0.687,0.159,1.002,0.273    c5.425-8.753,13.119-16.261,18.339-25.232l0.009-0.041C413.504,54.969,412.948,54.798,412.3,54.649z" fill="#000e3f" data-original="#000e3f" class=""></path>
	</g>
</g>















</g></svg>