<svg xmlns="http://www.w3.org/2000/svg" version="1.1" xmlns:xlink="http://www.w3.org/1999/xlink" xmlns:svgjs="http://svgjs.com/svgjs" width="512" height="512" x="0" y="0" viewBox="0 0 512 512" style="enable-background:new 0 0 512 512" xml:space="preserve" class=""><g>
<g>
	<g>
		<g>
			<path style="" d="M352.355,43.663l43.547,226.423c0.659,3.427-1.578,6.747-5.005,7.405L52.636,342.548     c-1.24,0.238-2.443,0.096-3.523-0.346c-1.93-0.762-3.449-2.475-3.872-4.675L1.695,111.105c-0.659-3.427,1.581-6.733,5.007-7.392     l338.261-65.056C348.39,37.997,351.696,40.237,352.355,43.663z" fill="#ffcf00" data-original="#ffcf00" class=""></path>
			<g style="opacity:0.5;">
				<path style="" d="M347.736,38.762c-0.828,3.715,1.042,7.62,4.654,9.224c0.283,0.125,0.57,0.23,0.858,0.321      l-0.893-4.645C351.88,41.191,350.018,39.356,347.736,38.762z" fill="#ffffff" data-original="#ffffff" class=""></path>
				<path style="" d="M332.53,41.047l-2.09,0.402C331.155,41.408,331.856,41.27,332.53,41.047z" fill="#ffffff" data-original="#ffffff" class=""></path>
				<path style="" d="M357.272,84.158c-1.828,4.118,0.028,8.939,4.146,10.768c0.283,0.126,0.57,0.23,0.858,0.322      l-2.71-14.088C358.608,81.942,357.809,82.949,357.272,84.158z" fill="#ffffff" data-original="#ffffff" class=""></path>
				<path style="" d="M352.758,60.688c-1.829,4.118,0.028,8.939,4.146,10.767c0.283,0.126,0.57,0.23,0.858,0.322      l-2.709-14.088C354.094,58.472,353.295,59.48,352.758,60.688z" fill="#ffffff" data-original="#ffffff" class=""></path>
				<path style="" d="M342.313,72.791c-4.118-1.828-8.939,0.028-10.768,4.146c-1.829,4.118,0.028,8.939,4.146,10.768      c4.118,1.829,8.939-0.028,10.768-4.146C348.288,79.44,346.432,74.619,342.313,72.791z" fill="#ffffff" data-original="#ffffff" class=""></path>
				<path style="" d="M337.799,49.321c-4.118-1.829-8.939,0.028-10.768,4.146c-1.829,4.118,0.028,8.939,4.146,10.768      c4.118,1.829,8.939-0.028,10.768-4.146C343.774,55.971,341.918,51.15,337.799,49.321z" fill="#ffffff" data-original="#ffffff" class=""></path>
				<path style="" d="M366.299,131.097c-1.829,4.118,0.028,8.939,4.146,10.768c0.283,0.126,0.57,0.23,0.858,0.322      l-2.709-14.088C367.635,128.881,366.836,129.888,366.299,131.097z" fill="#ffffff" data-original="#ffffff" class=""></path>
				<path style="" d="M355.854,143.199c-4.118-1.829-8.939,0.027-10.768,4.146c-1.829,4.118,0.028,8.939,4.146,10.767      c4.118,1.829,8.939-0.027,10.768-4.146C361.829,149.848,359.973,145.028,355.854,143.199z" fill="#ffffff" data-original="#ffffff" class=""></path>
				<path style="" d="M361.785,107.627c-1.829,4.118,0.028,8.939,4.146,10.768c0.283,0.126,0.57,0.23,0.858,0.322      l-2.709-14.089C363.122,105.411,362.322,106.418,361.785,107.627z" fill="#ffffff" data-original="#ffffff" class=""></path>
				<path style="" d="M351.341,119.73c-4.118-1.829-8.939,0.028-10.768,4.146c-1.829,4.118,0.028,8.939,4.146,10.768      c4.118,1.828,8.939-0.028,10.768-4.146C357.315,126.379,355.459,121.558,351.341,119.73z" fill="#ffffff" data-original="#ffffff" class=""></path>
				<path style="" d="M346.827,96.26c-4.118-1.829-8.939,0.028-10.768,4.146c-1.829,4.118,0.028,8.939,4.146,10.768      c4.118,1.829,8.939-0.028,10.768-4.146C352.802,102.91,350.945,98.089,346.827,96.26z" fill="#ffffff" data-original="#ffffff" class=""></path>
				<path style="" d="M375.327,178.036c-1.829,4.118,0.028,8.939,4.146,10.768c0.283,0.126,0.57,0.23,0.858,0.322      l-2.709-14.088C376.663,175.82,375.864,176.827,375.327,178.036z" fill="#ffffff" data-original="#ffffff" class=""></path>
				<path style="" d="M364.882,190.138c-4.118-1.829-8.939,0.027-10.768,4.146c-1.829,4.118,0.028,8.939,4.146,10.767      c4.118,1.829,8.939-0.028,10.768-4.146C370.857,196.787,369.001,191.967,364.882,190.138z" fill="#ffffff" data-original="#ffffff" class=""></path>
				<path style="" d="M339.156,182.917c-4.119-1.829-8.939,0.028-10.768,4.146c-1.828,4.118,0.028,8.939,4.146,10.768      c4.118,1.829,8.939-0.028,10.768-4.146C345.13,189.567,343.274,184.746,339.156,182.917z" fill="#ffffff" data-original="#ffffff" class=""></path>
				<path style="" d="M370.813,154.566c-1.829,4.118,0.028,8.939,4.146,10.768c0.283,0.126,0.57,0.23,0.859,0.322      l-2.71-14.088C372.149,152.35,371.35,153.357,370.813,154.566z" fill="#ffffff" data-original="#ffffff" class=""></path>
				<path style="" d="M360.368,166.669c-4.118-1.829-8.939,0.028-10.768,4.146c-1.829,4.118,0.028,8.939,4.146,10.768      c4.118,1.828,8.939-0.028,10.768-4.146C366.343,173.318,364.487,168.497,360.368,166.669z" fill="#ffffff" data-original="#ffffff" class=""></path>
				<path style="" d="M334.642,159.448c-4.118-1.828-8.939,0.028-10.768,4.146s0.028,8.939,4.146,10.768      c4.118,1.829,8.939-0.028,10.768-4.146C340.616,166.097,338.76,161.276,334.642,159.448z" fill="#ffffff" data-original="#ffffff" class=""></path>
				<path style="" d="M384.354,224.975c-1.829,4.118,0.028,8.939,4.146,10.768c0.283,0.126,0.57,0.23,0.859,0.322      l-2.71-14.088C385.69,222.759,384.891,223.766,384.354,224.975z" fill="#ffffff" data-original="#ffffff" class=""></path>
				<path style="" d="M373.91,237.077c-4.118-1.829-8.939,0.028-10.768,4.146c-1.829,4.118,0.028,8.939,4.146,10.767      c4.118,1.829,8.939-0.028,10.768-4.146C379.884,243.726,378.028,238.906,373.91,237.077z" fill="#ffffff" data-original="#ffffff" class=""></path>
				<path style="" d="M348.183,229.856c-4.118-1.829-8.939,0.027-10.768,4.146c-1.829,4.118,0.028,8.939,4.146,10.767      c4.118,1.829,8.939-0.027,10.768-4.146C354.158,236.506,352.302,231.685,348.183,229.856z" fill="#ffffff" data-original="#ffffff" class=""></path>
				<path style="" d="M379.841,201.505c-1.829,4.118,0.028,8.939,4.146,10.768c0.283,0.126,0.57,0.23,0.858,0.322      l-2.71-14.088C381.177,199.289,380.377,200.296,379.841,201.505z" fill="#ffffff" data-original="#ffffff" class=""></path>
				<path style="" d="M369.396,213.608c-4.118-1.829-8.939,0.028-10.768,4.146c-1.829,4.118,0.028,8.939,4.146,10.768      c4.118,1.828,8.939-0.028,10.768-4.146C375.37,220.257,373.514,215.436,369.396,213.608z" fill="#ffffff" data-original="#ffffff" class=""></path>
				<path style="" d="M343.67,206.387c-4.118-1.829-8.939,0.028-10.768,4.146c-1.828,4.118,0.028,8.939,4.146,10.768      c4.118,1.828,8.939-0.028,10.768-4.146C349.644,213.036,347.788,208.215,343.67,206.387z" fill="#ffffff" data-original="#ffffff" class=""></path>
				<path style="" d="M393.382,271.914c-0.701,1.578-0.856,3.258-0.555,4.835c2.277-1.307,3.599-3.939,3.075-6.662      l-0.225-1.172C394.718,269.698,393.919,270.705,393.382,271.914z" fill="#ffffff" data-original="#ffffff" class=""></path>
				<path style="" d="M357.211,276.795c-4.118-1.829-8.939,0.027-10.768,4.146c-0.754,1.698-0.873,3.513-0.473,5.191      l15.994-3.076C361.566,280.388,359.86,277.971,357.211,276.795z" fill="#ffffff" data-original="#ffffff" class=""></path>
				<path style="" d="M388.868,248.444c-1.829,4.118,0.028,8.939,4.146,10.768c0.283,0.125,0.57,0.23,0.858,0.322      l-2.709-14.088C390.204,246.228,389.405,247.235,388.868,248.444z" fill="#ffffff" data-original="#ffffff" class=""></path>
				<path style="" d="M378.423,260.547c-4.118-1.829-8.939,0.028-10.768,4.146c-1.829,4.118,0.028,8.939,4.146,10.768      c4.118,1.829,8.939-0.028,10.768-4.146C384.398,267.196,382.542,262.375,378.423,260.547z" fill="#ffffff" data-original="#ffffff" class=""></path>
				<path style="" d="M305.451,57.014c4.118,1.828,8.939-0.028,10.768-4.146c1.29-2.906,0.74-6.157-1.14-8.465      l-14.098,2.711C299.75,51.021,301.619,55.313,305.451,57.014z" fill="#ffffff" data-original="#ffffff" class=""></path>
				<path style="" d="M285.591,50.075l-2.09,0.402C284.216,50.435,284.917,50.298,285.591,50.075z" fill="#ffffff" data-original="#ffffff" class=""></path>
				<path style="" d="M321.101,89.039c-4.118-1.829-8.939,0.028-10.768,4.146c-1.829,4.118,0.028,8.939,4.146,10.768      c4.118,1.828,8.939-0.028,10.768-4.146C327.075,95.689,325.219,90.868,321.101,89.039z" fill="#ffffff" data-original="#ffffff" class=""></path>
				<path style="" d="M316.587,65.57c-4.118-1.829-8.939,0.028-10.768,4.146c-1.829,4.118,0.028,8.939,4.146,10.768      c4.118,1.829,8.939-0.028,10.768-4.146C322.561,72.219,320.705,67.398,316.587,65.57z" fill="#ffffff" data-original="#ffffff" class=""></path>
				<path style="" d="M295.374,81.818c-4.118-1.829-8.939,0.028-10.768,4.146c-1.829,4.118,0.028,8.939,4.146,10.768      s8.939-0.028,10.768-4.146C301.349,88.468,299.493,83.647,295.374,81.818z" fill="#ffffff" data-original="#ffffff" class=""></path>
				<path style="" d="M290.86,58.349c-4.118-1.829-8.939,0.028-10.768,4.146c-1.829,4.118,0.028,8.939,4.146,10.768      c4.118,1.829,8.939-0.027,10.768-4.146C296.835,64.998,294.979,60.177,290.86,58.349z" fill="#ffffff" data-original="#ffffff" class=""></path>
				<path style="" d="M330.128,135.978c-4.118-1.829-8.939,0.028-10.768,4.146c-1.828,4.118,0.028,8.939,4.146,10.768      c4.118,1.829,8.939-0.028,10.768-4.146C336.103,142.628,334.246,137.807,330.128,135.978z" fill="#ffffff" data-original="#ffffff" class=""></path>
				<path style="" d="M308.915,152.227c-4.118-1.829-8.939,0.028-10.768,4.146c-1.829,4.118,0.028,8.939,4.146,10.768      s8.939-0.028,10.768-4.146C314.89,158.876,313.034,154.055,308.915,152.227z" fill="#ffffff" data-original="#ffffff" class=""></path>
				<path style="" d="M325.614,112.509c-4.118-1.828-8.939,0.028-10.768,4.146c-1.828,4.118,0.028,8.939,4.146,10.768      c4.118,1.829,8.939-0.028,10.768-4.146C331.589,119.158,329.733,114.337,325.614,112.509z" fill="#ffffff" data-original="#ffffff" class=""></path>
				<path style="" d="M304.402,128.757c-4.118-1.829-8.939,0.028-10.768,4.146c-1.829,4.118,0.028,8.939,4.146,10.768      c4.118,1.828,8.939-0.028,10.768-4.146C310.376,135.407,308.52,130.586,304.402,128.757z" fill="#ffffff" data-original="#ffffff" class=""></path>
				<path style="" d="M299.888,105.288c-4.118-1.829-8.939,0.028-10.768,4.146c-1.829,4.118,0.028,8.939,4.146,10.768      c4.118,1.829,8.939-0.028,10.768-4.146C305.863,111.937,304.006,107.116,299.888,105.288z" fill="#ffffff" data-original="#ffffff" class=""></path>
				<path style="" d="M317.943,199.166c-4.118-1.829-8.939,0.028-10.768,4.146c-1.829,4.118,0.028,8.939,4.146,10.768      c4.118,1.829,8.939-0.028,10.768-4.146C323.918,205.815,322.062,200.994,317.943,199.166z" fill="#ffffff" data-original="#ffffff" class=""></path>
				<path style="" d="M292.217,191.945c-4.119-1.829-8.939,0.027-10.768,4.146c-1.828,4.118,0.028,8.939,4.146,10.768      c4.118,1.829,8.939-0.027,10.768-4.146C298.191,198.594,296.335,193.773,292.217,191.945z" fill="#ffffff" data-original="#ffffff" class=""></path>
				<path style="" d="M313.429,175.696c-4.118-1.829-8.939,0.028-10.768,4.146c-1.829,4.118,0.028,8.939,4.146,10.768      c4.118,1.828,8.939-0.028,10.768-4.146C319.404,182.346,317.548,177.525,313.429,175.696z" fill="#ffffff" data-original="#ffffff" class=""></path>
				<path style="" d="M287.703,168.475c-4.118-1.828-8.939,0.028-10.768,4.146c-1.829,4.118,0.028,8.939,4.146,10.768      c4.118,1.829,8.939-0.028,10.768-4.146C293.678,175.125,291.821,170.304,287.703,168.475z" fill="#ffffff" data-original="#ffffff" class=""></path>
				<path style="" d="M326.971,246.104c-4.118-1.828-8.939,0.028-10.768,4.146c-1.829,4.118,0.028,8.939,4.146,10.768      c4.118,1.829,8.939-0.028,10.768-4.146C332.945,252.754,331.089,247.933,326.971,246.104z" fill="#ffffff" data-original="#ffffff" class=""></path>
				<path style="" d="M301.244,238.884c-4.118-1.829-8.939,0.028-10.768,4.146c-1.829,4.118,0.028,8.939,4.146,10.768      c4.118,1.829,8.939-0.028,10.768-4.146C307.219,245.533,305.363,240.712,301.244,238.884z" fill="#ffffff" data-original="#ffffff" class=""></path>
				<path style="" d="M322.457,222.635c-4.118-1.829-8.939,0.028-10.768,4.146c-1.829,4.118,0.028,8.939,4.146,10.768      c4.118,1.828,8.939-0.028,10.768-4.146C328.431,229.285,326.575,224.464,322.457,222.635z" fill="#ffffff" data-original="#ffffff" class=""></path>
				<path style="" d="M296.731,215.414c-4.118-1.829-8.939,0.028-10.768,4.146c-1.828,4.118,0.028,8.939,4.146,10.768      c4.118,1.828,8.939-0.028,10.767-4.146C302.705,222.064,300.849,217.243,296.731,215.414z" fill="#ffffff" data-original="#ffffff" class=""></path>
				<path style="" d="M310.272,285.823c-4.118-1.829-8.939,0.028-10.768,4.146c-0.754,1.698-0.873,3.513-0.473,5.192      l15.994-3.076C314.627,289.415,312.921,286.999,310.272,285.823z" fill="#ffffff" data-original="#ffffff" class=""></path>
				<path style="" d="M352.697,253.326c-4.118-1.829-8.939,0.028-10.768,4.146c-1.828,4.118,0.028,8.939,4.146,10.768      c4.118,1.828,8.939-0.028,10.768-4.146C358.672,259.975,356.815,255.154,352.697,253.326z" fill="#ffffff" data-original="#ffffff" class=""></path>
				<path style="" d="M331.484,269.574c-4.118-1.829-8.939,0.028-10.768,4.146c-1.829,4.118,0.028,8.939,4.146,10.768      c4.118,1.829,8.939-0.028,10.768-4.146C337.459,276.224,335.603,271.403,331.484,269.574z" fill="#ffffff" data-original="#ffffff" class=""></path>
				<path style="" d="M258.512,66.042c4.118,1.829,8.939-0.028,10.768-4.146c1.29-2.906,0.74-6.157-1.14-8.465      l-14.098,2.711C252.811,60.049,254.68,64.34,258.512,66.042z" fill="#ffffff" data-original="#ffffff" class=""></path>
				<path style="" d="M238.652,59.103l-2.09,0.402C237.277,59.463,237.978,59.325,238.652,59.103z" fill="#ffffff" data-original="#ffffff" class=""></path>
				<path style="" d="M274.162,98.067c-4.118-1.829-8.939,0.028-10.768,4.146c-1.829,4.118,0.028,8.939,4.146,10.768      c4.118,1.829,8.939-0.028,10.768-4.146C280.136,104.716,278.28,99.895,274.162,98.067z" fill="#ffffff" data-original="#ffffff" class=""></path>
				<path style="" d="M269.648,74.597c-4.118-1.829-8.939,0.028-10.768,4.146c-1.829,4.118,0.028,8.939,4.146,10.768      c4.118,1.829,8.939-0.028,10.768-4.146C275.622,81.247,273.766,76.426,269.648,74.597z" fill="#ffffff" data-original="#ffffff" class=""></path>
				<path style="" d="M248.435,90.846c-4.118-1.829-8.939,0.028-10.768,4.146c-1.829,4.118,0.028,8.939,4.146,10.768      c4.118,1.829,8.939-0.028,10.768-4.146C254.41,97.495,252.554,92.674,248.435,90.846z" fill="#ffffff" data-original="#ffffff" class=""></path>
				<path style="" d="M243.921,67.376c-4.118-1.829-8.939,0.028-10.768,4.146c-1.829,4.118,0.028,8.939,4.146,10.768      c4.118,1.829,8.939-0.028,10.768-4.146S248.04,69.205,243.921,67.376z" fill="#ffffff" data-original="#ffffff" class=""></path>
				<path style="" d="M283.189,145.006c-4.118-1.829-8.939,0.028-10.768,4.146c-1.828,4.118,0.028,8.939,4.146,10.768      c4.118,1.829,8.939-0.027,10.767-4.146C289.164,151.655,287.307,146.834,283.189,145.006z" fill="#ffffff" data-original="#ffffff" class=""></path>
				<path style="" d="M261.977,161.254c-4.118-1.829-8.939,0.028-10.768,4.146c-1.829,4.118,0.028,8.939,4.146,10.768      c4.118,1.829,8.939-0.028,10.768-4.146C267.951,167.904,266.095,163.083,261.977,161.254z" fill="#ffffff" data-original="#ffffff" class=""></path>
				<path style="" d="M278.675,121.536c-4.118-1.829-8.939,0.028-10.768,4.146c-1.828,4.118,0.028,8.939,4.146,10.768      c4.118,1.829,8.939-0.028,10.768-4.146C284.65,128.186,282.794,123.365,278.675,121.536z" fill="#ffffff" data-original="#ffffff" class=""></path>
				<path style="" d="M257.463,137.785c-4.118-1.829-8.939,0.028-10.768,4.146c-1.829,4.118,0.028,8.939,4.146,10.768      c4.118,1.829,8.939-0.028,10.768-4.146C263.437,144.434,261.581,139.613,257.463,137.785z" fill="#ffffff" data-original="#ffffff" class=""></path>
				<path style="" d="M252.949,114.315c-4.118-1.829-8.939,0.028-10.768,4.146c-1.829,4.118,0.028,8.939,4.146,10.768      c4.118,1.829,8.939-0.028,10.768-4.146C258.924,120.965,257.067,116.144,252.949,114.315z" fill="#ffffff" data-original="#ffffff" class=""></path>
				<path style="" d="M271.004,208.193c-4.118-1.829-8.939,0.028-10.768,4.146c-1.829,4.118,0.028,8.939,4.146,10.768      c4.118,1.829,8.939-0.028,10.768-4.146C276.979,214.843,275.123,210.022,271.004,208.193z" fill="#ffffff" data-original="#ffffff" class=""></path>
				<path style="" d="M245.278,200.972c-4.119-1.829-8.939,0.028-10.768,4.146c-1.829,4.118,0.028,8.939,4.146,10.768      c4.118,1.829,8.939-0.028,10.768-4.146S249.396,202.801,245.278,200.972z" fill="#ffffff" data-original="#ffffff" class=""></path>
				<path style="" d="M266.491,184.724c-4.118-1.829-8.939,0.028-10.768,4.146c-1.829,4.118,0.028,8.939,4.146,10.768      c4.118,1.829,8.939-0.028,10.768-4.146C272.465,191.373,270.609,186.552,266.491,184.724z" fill="#ffffff" data-original="#ffffff" class=""></path>
				<path style="" d="M240.764,177.503c-4.118-1.828-8.939,0.028-10.768,4.146c-1.829,4.118,0.028,8.939,4.146,10.768      s8.939-0.028,10.768-4.146C246.739,184.152,244.882,179.332,240.764,177.503z" fill="#ffffff" data-original="#ffffff" class=""></path>
				<path style="" d="M280.032,255.132c-4.118-1.829-8.939,0.028-10.768,4.146c-1.829,4.118,0.028,8.939,4.146,10.768      c4.118,1.829,8.939-0.028,10.768-4.146C286.006,261.782,284.15,256.961,280.032,255.132z" fill="#ffffff" data-original="#ffffff" class=""></path>
				<path style="" d="M254.305,247.911c-4.118-1.829-8.939,0.028-10.768,4.146s0.028,8.939,4.146,10.768      c4.118,1.829,8.939-0.028,10.768-4.146C260.28,254.561,258.424,249.74,254.305,247.911z" fill="#ffffff" data-original="#ffffff" class=""></path>
				<path style="" d="M275.518,231.663c-4.118-1.829-8.939,0.028-10.768,4.146c-1.829,4.118,0.028,8.939,4.146,10.768      c4.118,1.829,8.939-0.028,10.768-4.146C281.492,238.312,279.636,233.491,275.518,231.663z" fill="#ffffff" data-original="#ffffff" class=""></path>
				<path style="" d="M249.792,224.442c-4.118-1.829-8.939,0.028-10.768,4.146c-1.829,4.118,0.028,8.939,4.146,10.768      c4.118,1.829,8.939-0.028,10.767-4.146C255.766,231.091,253.91,226.27,249.792,224.442z" fill="#ffffff" data-original="#ffffff" class=""></path>
				<path style="" d="M263.333,294.85c-4.118-1.829-8.939,0.028-10.768,4.146c-0.754,1.698-0.873,3.513-0.474,5.192      l15.994-3.076C267.688,298.443,265.982,296.027,263.333,294.85z" fill="#ffffff" data-original="#ffffff" class=""></path>
				<path style="" d="M305.758,262.353c-4.118-1.829-8.939,0.028-10.768,4.146c-1.828,4.118,0.028,8.939,4.146,10.768      c4.118,1.828,8.939-0.028,10.768-4.146C311.733,269.003,309.876,264.182,305.758,262.353z" fill="#ffffff" data-original="#ffffff" class=""></path>
				<path style="" d="M284.545,278.602c-4.118-1.829-8.939,0.028-10.768,4.146c-1.829,4.118,0.028,8.939,4.146,10.768      c4.118,1.829,8.939-0.028,10.768-4.146C290.52,285.251,288.664,280.43,284.545,278.602z" fill="#ffffff" data-original="#ffffff" class=""></path>
				<path style="" d="M211.573,75.069c4.118,1.829,8.939-0.028,10.768-4.146c1.29-2.906,0.74-6.157-1.14-8.465      l-14.098,2.711C205.872,69.076,207.741,73.368,211.573,75.069z" fill="#ffffff" data-original="#ffffff" class=""></path>
				<path style="" d="M191.713,68.13l-2.09,0.402C190.338,68.49,191.039,68.353,191.713,68.13z" fill="#ffffff" data-original="#ffffff" class=""></path>
				<path style="" d="M227.223,107.094c-4.118-1.829-8.939,0.028-10.768,4.146c-1.829,4.118,0.028,8.939,4.146,10.768      s8.939-0.028,10.768-4.146C233.197,113.744,231.341,108.923,227.223,107.094z" fill="#ffffff" data-original="#ffffff" class=""></path>
				<path style="" d="M222.709,83.625c-4.118-1.829-8.939,0.027-10.768,4.146c-1.829,4.118,0.028,8.939,4.146,10.767      c4.118,1.829,8.939-0.028,10.768-4.146C228.684,90.274,226.827,85.454,222.709,83.625z" fill="#ffffff" data-original="#ffffff" class=""></path>
				<path style="" d="M201.496,99.873c-4.118-1.828-8.939,0.028-10.768,4.146c-1.829,4.118,0.028,8.939,4.146,10.768      c4.118,1.829,8.939-0.028,10.768-4.146C207.471,106.523,205.615,101.702,201.496,99.873z" fill="#ffffff" data-original="#ffffff" class=""></path>
				<path style="" d="M196.982,76.404c-4.118-1.829-8.939,0.028-10.768,4.146c-1.829,4.118,0.028,8.939,4.146,10.768      c4.118,1.829,8.939-0.028,10.768-4.146C202.957,83.053,201.101,78.232,196.982,76.404z" fill="#ffffff" data-original="#ffffff" class=""></path>
				<path style="" d="M236.25,154.033c-4.118-1.829-8.939,0.028-10.768,4.146c-1.829,4.118,0.027,8.939,4.146,10.768      c4.118,1.829,8.939-0.028,10.767-4.146C242.225,160.683,240.369,155.862,236.25,154.033z" fill="#ffffff" data-original="#ffffff" class=""></path>
				<path style="" d="M215.038,170.282c-4.118-1.829-8.939,0.027-10.768,4.146c-1.829,4.118,0.028,8.939,4.146,10.767      c4.118,1.829,8.939-0.027,10.768-4.146C221.012,176.931,219.156,172.11,215.038,170.282z" fill="#ffffff" data-original="#ffffff" class=""></path>
				<path style="" d="M231.736,130.564c-4.118-1.828-8.939,0.028-10.768,4.146c-1.829,4.118,0.028,8.939,4.146,10.768      c4.118,1.829,8.939-0.028,10.768-4.146C237.711,137.213,235.855,132.393,231.736,130.564z" fill="#ffffff" data-original="#ffffff" class=""></path>
				
					<ellipse transform="matrix(0.9962 -0.0875 0.0875 0.9962 -12.7031 18.7217)" style="" cx="207.213" cy="154.269" rx="8.159" ry="8.159" fill="#ffffff" data-original="#ffffff" class=""></ellipse>
				
					<ellipse transform="matrix(0.0251 -0.9997 0.9997 0.0251 66.8605 330.1573)" style="" cx="202.699" cy="130.8" rx="8.159" ry="8.159" fill="#ffffff" data-original="#ffffff" class=""></ellipse>
				<path style="" d="M224.065,217.221c-4.118-1.829-8.939,0.027-10.768,4.146c-1.829,4.118,0.028,8.939,4.146,10.767      c4.118,1.829,8.939-0.028,10.768-4.146C230.04,223.87,228.184,219.049,224.065,217.221z" fill="#ffffff" data-original="#ffffff" class=""></path>
				<path style="" d="M198.339,210c-4.118-1.829-8.939,0.028-10.768,4.146c-1.829,4.118,0.028,8.939,4.146,10.768      c4.118,1.829,8.939-0.028,10.768-4.146C204.314,216.649,202.457,211.828,198.339,210z" fill="#ffffff" data-original="#ffffff" class=""></path>
				<path style="" d="M219.552,193.751c-4.118-1.829-8.939,0.028-10.768,4.146c-1.829,4.118,0.028,8.939,4.146,10.768      c4.118,1.828,8.939-0.028,10.768-4.146C225.526,200.401,223.67,195.58,219.552,193.751z" fill="#ffffff" data-original="#ffffff" class=""></path>
				<path style="" d="M193.825,186.53c-4.118-1.828-8.939,0.028-10.768,4.146c-1.829,4.118,0.028,8.939,4.146,10.768      c4.118,1.829,8.939-0.028,10.768-4.146C199.8,193.18,197.944,188.359,193.825,186.53z" fill="#ffffff" data-original="#ffffff" class=""></path>
				<path style="" d="M233.093,264.16c-4.118-1.829-8.939,0.028-10.768,4.146c-1.829,4.118,0.028,8.939,4.146,10.767      c4.118,1.829,8.939-0.028,10.768-4.146C239.067,270.809,237.211,265.988,233.093,264.16z" fill="#ffffff" data-original="#ffffff" class=""></path>
				<path style="" d="M207.366,256.939c-4.118-1.829-8.939,0.028-10.768,4.146c-1.829,4.118,0.028,8.939,4.146,10.767      c4.118,1.829,8.939-0.027,10.768-4.146C213.341,263.588,211.485,258.767,207.366,256.939z" fill="#ffffff" data-original="#ffffff" class=""></path>
				<path style="" d="M228.579,240.69c-4.118-1.829-8.939,0.028-10.768,4.146c-1.829,4.118,0.028,8.939,4.146,10.768      c4.118,1.829,8.939-0.028,10.768-4.146C234.553,247.34,232.697,242.519,228.579,240.69z" fill="#ffffff" data-original="#ffffff" class=""></path>
				<path style="" d="M202.853,233.469c-4.118-1.829-8.939,0.028-10.768,4.146c-1.829,4.118,0.028,8.939,4.146,10.768      c4.118,1.828,8.939-0.028,10.768-4.146C208.827,240.119,206.971,235.298,202.853,233.469z" fill="#ffffff" data-original="#ffffff" class=""></path>
				<path style="" d="M216.394,303.878c-4.118-1.829-8.939,0.028-10.768,4.146c-0.754,1.698-0.873,3.513-0.474,5.191      l15.994-3.076C220.749,307.47,219.043,305.054,216.394,303.878z" fill="#ffffff" data-original="#ffffff" class=""></path>
				<path style="" d="M258.819,271.381c-4.119-1.829-8.939,0.028-10.768,4.146c-1.829,4.118,0.028,8.939,4.146,10.768      c4.118,1.829,8.939-0.028,10.768-4.146C264.794,278.03,262.937,273.209,258.819,271.381z" fill="#ffffff" data-original="#ffffff" class=""></path>
				<path style="" d="M237.606,287.629c-4.118-1.829-8.939,0.028-10.768,4.146c-1.829,4.118,0.028,8.939,4.146,10.768      c4.118,1.829,8.939-0.028,10.768-4.146C243.581,294.279,241.725,289.458,237.606,287.629z" fill="#ffffff" data-original="#ffffff" class=""></path>
				<path style="" d="M164.634,84.097c4.118,1.828,8.939-0.028,10.768-4.146c1.29-2.906,0.74-6.157-1.14-8.465      l-14.098,2.711C158.933,78.104,160.802,82.395,164.634,84.097z" fill="#ffffff" data-original="#ffffff" class=""></path>
				<path style="" d="M144.774,77.157l-2.09,0.402C143.399,77.518,144.1,77.38,144.774,77.157z" fill="#ffffff" data-original="#ffffff" class=""></path>
				<path style="" d="M180.284,116.122c-4.118-1.829-8.939,0.028-10.768,4.146c-1.829,4.118,0.028,8.939,4.146,10.768      c4.118,1.828,8.939-0.028,10.768-4.146C186.258,122.771,184.402,117.95,180.284,116.122z" fill="#ffffff" data-original="#ffffff" class=""></path>
				<path style="" d="M175.77,92.652c-4.118-1.829-8.939,0.028-10.768,4.146c-1.829,4.118,0.028,8.939,4.146,10.768      c4.118,1.829,8.939-0.028,10.768-4.146S179.888,94.481,175.77,92.652z" fill="#ffffff" data-original="#ffffff" class=""></path>
				<path style="" d="M154.558,108.901c-4.118-1.828-8.939,0.028-10.768,4.146c-1.828,4.118,0.028,8.939,4.146,10.768      c4.118,1.829,8.939-0.028,10.768-4.146C160.532,115.55,158.676,110.73,154.558,108.901z" fill="#ffffff" data-original="#ffffff" class=""></path>
				<path style="" d="M150.044,85.432c-4.118-1.829-8.939,0.027-10.768,4.146c-1.829,4.118,0.028,8.939,4.146,10.768      c4.118,1.829,8.939-0.027,10.768-4.146C156.018,92.081,154.162,87.26,150.044,85.432z" fill="#ffffff" data-original="#ffffff" class=""></path>
				<path style="" d="M189.311,163.061c-4.118-1.829-8.939,0.028-10.768,4.146s0.028,8.939,4.146,10.768      c4.118,1.829,8.939-0.028,10.768-4.146C195.286,169.71,193.43,164.889,189.311,163.061z" fill="#ffffff" data-original="#ffffff" class=""></path>
				<path style="" d="M168.099,179.309c-4.118-1.829-8.939,0.028-10.768,4.146c-1.829,4.118,0.028,8.939,4.146,10.768      c4.118,1.829,8.939-0.028,10.768-4.146S172.217,181.138,168.099,179.309z" fill="#ffffff" data-original="#ffffff" class=""></path>
				<path style="" d="M184.797,139.591c-4.118-1.828-8.939,0.028-10.768,4.146c-1.829,4.118,0.028,8.939,4.146,10.768      c4.118,1.829,8.939-0.028,10.768-4.146C190.772,146.241,188.916,141.42,184.797,139.591z" fill="#ffffff" data-original="#ffffff" class=""></path>
				<path style="" d="M163.585,155.84c-4.118-1.829-8.939,0.028-10.768,4.146c-1.829,4.118,0.028,8.939,4.146,10.768      c4.118,1.828,8.939-0.028,10.768-4.146S167.703,157.669,163.585,155.84z" fill="#ffffff" data-original="#ffffff" class=""></path>
				<path style="" d="M159.071,132.37c-4.118-1.829-8.939,0.028-10.768,4.146c-1.828,4.118,0.028,8.939,4.146,10.768      c4.118,1.829,8.939-0.028,10.768-4.146C165.046,139.02,163.189,134.199,159.071,132.37z" fill="#ffffff" data-original="#ffffff" class=""></path>
				<path style="" d="M177.126,226.248c-4.118-1.829-8.939,0.028-10.768,4.146c-1.829,4.118,0.028,8.939,4.146,10.768      c4.118,1.829,8.939-0.028,10.768-4.146C183.101,232.898,181.245,228.077,177.126,226.248z" fill="#ffffff" data-original="#ffffff" class=""></path>
				<path style="" d="M151.4,219.028c-4.118-1.829-8.939,0.028-10.768,4.146c-1.829,4.118,0.028,8.939,4.146,10.768      c4.118,1.828,8.939-0.028,10.768-4.146C157.375,225.677,155.518,220.856,151.4,219.028z" fill="#ffffff" data-original="#ffffff" class=""></path>
				<path style="" d="M172.613,202.779c-4.118-1.829-8.939,0.028-10.768,4.146c-1.828,4.118,0.028,8.939,4.146,10.768      c4.118,1.828,8.939-0.028,10.768-4.146S176.731,204.608,172.613,202.779z" fill="#ffffff" data-original="#ffffff" class=""></path>
				<path style="" d="M146.886,195.558c-4.118-1.829-8.939,0.028-10.768,4.146c-1.829,4.118,0.028,8.939,4.146,10.768      c4.118,1.829,8.939-0.028,10.768-4.146C152.861,202.207,151.005,197.386,146.886,195.558z" fill="#ffffff" data-original="#ffffff" class=""></path>
				<path style="" d="M186.154,273.187c-4.118-1.828-8.939,0.028-10.768,4.146c-1.828,4.118,0.028,8.939,4.146,10.768      c4.118,1.829,8.939-0.028,10.768-4.146C192.128,279.837,190.272,275.016,186.154,273.187z" fill="#ffffff" data-original="#ffffff" class=""></path>
				<path style="" d="M160.427,265.966c-4.118-1.829-8.939,0.028-10.768,4.146c-1.829,4.118,0.028,8.939,4.146,10.768      c4.118,1.829,8.939-0.028,10.768-4.146C166.402,272.616,164.546,267.795,160.427,265.966z" fill="#ffffff" data-original="#ffffff" class=""></path>
				<path style="" d="M181.64,249.718c-4.118-1.829-8.939,0.028-10.768,4.146c-1.828,4.118,0.028,8.939,4.146,10.768      c4.118,1.828,8.939-0.028,10.768-4.146C187.615,256.367,185.758,251.546,181.64,249.718z" fill="#ffffff" data-original="#ffffff" class=""></path>
				<path style="" d="M155.914,242.497c-4.118-1.829-8.939,0.028-10.768,4.146c-1.829,4.118,0.028,8.939,4.146,10.768      c4.118,1.828,8.939-0.028,10.768-4.146C161.888,249.146,160.032,244.325,155.914,242.497z" fill="#ffffff" data-original="#ffffff" class=""></path>
				<path style="" d="M169.455,312.905c-4.118-1.829-8.939,0.028-10.768,4.146c-0.754,1.698-0.873,3.513-0.474,5.192      l15.994-3.076C173.81,316.498,172.104,314.082,169.455,312.905z" fill="#ffffff" data-original="#ffffff" class=""></path>
				<path style="" d="M211.88,280.408c-4.118-1.829-8.939,0.028-10.768,4.146c-1.829,4.118,0.028,8.939,4.146,10.768      c4.118,1.828,8.939-0.028,10.768-4.146C217.855,287.058,215.999,282.237,211.88,280.408z" fill="#ffffff" data-original="#ffffff" class=""></path>
				<path style="" d="M190.668,296.657c-4.118-1.829-8.939,0.028-10.768,4.146c-1.828,4.118,0.028,8.939,4.146,10.768      c4.118,1.829,8.939-0.028,10.768-4.146C196.642,303.306,194.786,298.485,190.668,296.657z" fill="#ffffff" data-original="#ffffff" class=""></path>
				<path style="" d="M117.695,93.124c4.118,1.829,8.939-0.028,10.768-4.146c1.29-2.906,0.74-6.157-1.139-8.465      l-14.098,2.711C111.994,87.132,113.863,91.423,117.695,93.124z" fill="#ffffff" data-original="#ffffff" class=""></path>
				<path style="" d="M97.835,86.185l-2.09,0.402C96.46,86.545,97.162,86.408,97.835,86.185z" fill="#ffffff" data-original="#ffffff" class=""></path>
				<path style="" d="M133.345,125.15c-4.118-1.829-8.939,0.028-10.768,4.146c-1.829,4.118,0.028,8.939,4.146,10.768      c4.118,1.829,8.939-0.028,10.768-4.146C139.319,131.799,137.463,126.978,133.345,125.15z" fill="#ffffff" data-original="#ffffff" class=""></path>
				<path style="" d="M128.831,101.68c-4.118-1.829-8.939,0.028-10.768,4.146c-1.829,4.118,0.028,8.939,4.146,10.768      c4.118,1.829,8.939-0.028,10.768-4.146C134.806,108.329,132.949,103.508,128.831,101.68z" fill="#ffffff" data-original="#ffffff" class=""></path>
				<path style="" d="M107.619,117.928c-4.118-1.829-8.939,0.028-10.768,4.146c-1.829,4.118,0.028,8.939,4.146,10.768      c4.118,1.829,8.939-0.028,10.768-4.146C113.593,124.578,111.737,119.757,107.619,117.928z" fill="#ffffff" data-original="#ffffff" class=""></path>
				<path style="" d="M103.105,94.459c-4.118-1.829-8.939,0.028-10.768,4.146c-1.829,4.118,0.028,8.939,4.146,10.768      c4.118,1.829,8.939-0.028,10.768-4.146C109.079,101.108,107.223,96.288,103.105,94.459z" fill="#ffffff" data-original="#ffffff" class=""></path>
				<path style="" d="M142.372,172.089c-4.118-1.829-8.939,0.028-10.768,4.146c-1.829,4.118,0.028,8.939,4.146,10.768      c4.118,1.829,8.939-0.028,10.768-4.146C148.347,178.738,146.491,173.917,142.372,172.089z" fill="#ffffff" data-original="#ffffff" class=""></path>
				<path style="" d="M121.16,188.337c-4.118-1.829-8.939,0.028-10.768,4.146s0.028,8.939,4.146,10.768      c4.118,1.829,8.939-0.028,10.768-4.146C127.134,194.986,125.278,190.165,121.16,188.337z" fill="#ffffff" data-original="#ffffff" class=""></path>
				<path style="" d="M137.858,148.619c-4.118-1.829-8.939,0.028-10.767,4.146c-1.829,4.118,0.028,8.939,4.146,10.768      c4.118,1.829,8.939-0.028,10.768-4.146C143.833,155.268,141.977,150.447,137.858,148.619z" fill="#ffffff" data-original="#ffffff" class=""></path>
				<path style="" d="M116.646,164.867c-4.118-1.829-8.939,0.028-10.768,4.146c-1.829,4.118,0.028,8.939,4.146,10.768      c4.118,1.829,8.939-0.028,10.768-4.146C122.62,171.517,120.764,166.696,116.646,164.867z" fill="#ffffff" data-original="#ffffff" class=""></path>
				<path style="" d="M112.132,141.398c-4.118-1.829-8.939,0.028-10.768,4.146c-1.828,4.118,0.028,8.939,4.146,10.768      c4.118,1.829,8.939-0.028,10.768-4.146C118.107,148.047,116.25,143.227,112.132,141.398z" fill="#ffffff" data-original="#ffffff" class=""></path>
				<path style="" d="M130.187,235.276c-4.118-1.829-8.939,0.028-10.768,4.146c-1.829,4.118,0.028,8.939,4.146,10.768      c4.118,1.829,8.939-0.028,10.768-4.146C136.162,241.925,134.306,237.104,130.187,235.276z" fill="#ffffff" data-original="#ffffff" class=""></path>
				<path style="" d="M104.461,228.055c-4.118-1.829-8.939,0.028-10.768,4.146c-1.829,4.118,0.028,8.939,4.146,10.768      c4.118,1.829,8.939-0.028,10.768-4.146C110.436,234.704,108.579,229.883,104.461,228.055z" fill="#ffffff" data-original="#ffffff" class=""></path>
				<path style="" d="M125.674,211.806c-4.118-1.829-8.939,0.028-10.768,4.146c-1.828,4.118,0.028,8.939,4.146,10.768      c4.118,1.829,8.939-0.028,10.768-4.146C131.648,218.456,129.792,213.635,125.674,211.806z" fill="#ffffff" data-original="#ffffff" class=""></path>
				<path style="" d="M99.947,204.585c-4.118-1.829-8.939,0.028-10.768,4.146c-1.829,4.118,0.028,8.939,4.146,10.768      c4.118,1.829,8.939-0.028,10.768-4.146C105.922,211.235,104.066,206.414,99.947,204.585z" fill="#ffffff" data-original="#ffffff" class=""></path>
				<path style="" d="M139.215,282.215c-4.118-1.829-8.939,0.028-10.768,4.146c-1.828,4.118,0.028,8.939,4.146,10.768      c4.118,1.829,8.939-0.028,10.768-4.146C145.189,288.864,143.333,284.043,139.215,282.215z" fill="#ffffff" data-original="#ffffff" class=""></path>
				<path style="" d="M113.488,274.994c-4.118-1.829-8.939,0.028-10.768,4.146c-1.829,4.118,0.028,8.939,4.146,10.768      c4.118,1.829,8.939-0.028,10.768-4.146C119.463,281.643,117.607,276.822,113.488,274.994z" fill="#ffffff" data-original="#ffffff" class=""></path>
				<path style="" d="M134.701,258.745c-4.118-1.829-8.939,0.028-10.768,4.146c-1.829,4.118,0.028,8.939,4.146,10.768      c4.118,1.829,8.939-0.028,10.768-4.146C140.676,265.395,138.819,260.574,134.701,258.745z" fill="#ffffff" data-original="#ffffff" class=""></path>
				<path style="" d="M108.975,251.524c-4.118-1.829-8.939,0.028-10.768,4.146c-1.829,4.118,0.028,8.939,4.146,10.768      c4.118,1.829,8.939-0.028,10.768-4.146C114.949,258.174,113.093,253.353,108.975,251.524z" fill="#ffffff" data-original="#ffffff" class=""></path>
				<path style="" d="M122.516,321.933c-4.118-1.829-8.939,0.028-10.768,4.146c-0.754,1.698-0.873,3.513-0.473,5.192      l15.994-3.076C126.871,325.525,125.165,323.109,122.516,321.933z" fill="#ffffff" data-original="#ffffff" class=""></path>
				<path style="" d="M164.941,289.436c-4.118-1.829-8.939,0.028-10.768,4.146c-1.829,4.118,0.027,8.939,4.146,10.768      c4.118,1.828,8.939-0.028,10.768-4.146C170.916,296.085,169.06,291.264,164.941,289.436z" fill="#ffffff" data-original="#ffffff" class=""></path>
				<path style="" d="M143.729,305.684c-4.118-1.829-8.939,0.028-10.768,4.146c-1.828,4.118,0.028,8.939,4.146,10.768      c4.118,1.829,8.939-0.027,10.768-4.146C149.703,312.334,147.847,307.513,143.729,305.684z" fill="#ffffff" data-original="#ffffff" class=""></path>
				<path style="" d="M70.756,102.152c4.118,1.828,8.939-0.028,10.768-4.146c1.29-2.906,0.739-6.157-1.14-8.465      l-14.098,2.711C65.055,96.159,66.925,100.45,70.756,102.152z" fill="#ffffff" data-original="#ffffff" class=""></path>
				<path style="" d="M50.896,95.213l-2.09,0.402C49.521,95.573,50.223,95.435,50.896,95.213z" fill="#ffffff" data-original="#ffffff" class=""></path>
				<path style="" d="M86.406,134.177c-4.118-1.829-8.939,0.028-10.768,4.146c-1.829,4.118,0.028,8.939,4.146,10.768      c4.118,1.828,8.939-0.028,10.768-4.146C92.38,140.827,90.524,136.005,86.406,134.177z" fill="#ffffff" data-original="#ffffff" class=""></path>
				<path style="" d="M81.892,110.708c-4.118-1.829-8.939,0.028-10.768,4.146c-1.829,4.118,0.028,8.939,4.146,10.768      c4.118,1.829,8.939-0.027,10.768-4.146C87.867,117.357,86.01,112.536,81.892,110.708z" fill="#ffffff" data-original="#ffffff" class=""></path>
				<path style="" d="M60.68,126.956c-4.118-1.828-8.939,0.028-10.768,4.146c-1.829,4.118,0.028,8.939,4.146,10.768      s8.939-0.028,10.768-4.146C66.654,133.605,64.798,128.784,60.68,126.956z" fill="#ffffff" data-original="#ffffff" class=""></path>
				<path style="" d="M56.166,103.487c-4.118-1.829-8.939,0.028-10.768,4.146c-1.829,4.118,0.027,8.939,4.146,10.768      s8.939-0.028,10.768-4.146C62.14,110.136,60.284,105.315,56.166,103.487z" fill="#ffffff" data-original="#ffffff" class=""></path>
				<path style="" d="M95.433,181.116c-4.118-1.829-8.939,0.028-10.768,4.146c-1.829,4.118,0.028,8.939,4.146,10.768      c4.118,1.829,8.939-0.028,10.768-4.146C101.408,187.766,99.552,182.944,95.433,181.116z" fill="#ffffff" data-original="#ffffff" class=""></path>
				<path style="" d="M74.221,197.365c-4.118-1.829-8.939,0.027-10.768,4.146c-1.829,4.118,0.028,8.939,4.146,10.767      c4.118,1.829,8.939-0.027,10.768-4.146C80.196,204.014,78.339,199.193,74.221,197.365z" fill="#ffffff" data-original="#ffffff" class=""></path>
				<path style="" d="M90.919,157.646c-4.118-1.829-8.939,0.028-10.767,4.146c-1.829,4.118,0.028,8.939,4.146,10.768      c4.118,1.829,8.939-0.028,10.768-4.146C96.894,164.296,95.038,159.475,90.919,157.646z" fill="#ffffff" data-original="#ffffff" class=""></path>
				<path style="" d="M69.707,173.895c-4.118-1.829-8.939,0.028-10.768,4.146c-1.829,4.118,0.027,8.939,4.146,10.768      c4.118,1.828,8.939-0.028,10.767-4.146C75.682,180.544,73.825,175.723,69.707,173.895z" fill="#ffffff" data-original="#ffffff" class=""></path>
				<path style="" d="M65.193,150.426c-4.118-1.829-8.939,0.027-10.768,4.146c-1.829,4.118,0.028,8.939,4.146,10.768      c4.118,1.829,8.939-0.028,10.768-4.146C71.168,157.075,69.312,152.254,65.193,150.426z" fill="#ffffff" data-original="#ffffff" class=""></path>
				<path style="" d="M83.248,244.304c-4.118-1.829-8.939,0.027-10.768,4.146c-1.829,4.118,0.027,8.939,4.146,10.767      c4.118,1.829,8.939-0.028,10.768-4.146C89.223,250.953,87.367,246.132,83.248,244.304z" fill="#ffffff" data-original="#ffffff" class=""></path>
				<path style="" d="M57.522,237.082c-4.118-1.829-8.939,0.028-10.768,4.146c-1.829,4.118,0.028,8.939,4.146,10.768      c4.118,1.829,8.939-0.028,10.768-4.146C63.497,243.732,61.64,238.911,57.522,237.082z" fill="#ffffff" data-original="#ffffff" class=""></path>
				<path style="" d="M78.735,220.834c-4.118-1.829-8.939,0.028-10.768,4.146c-1.829,4.118,0.028,8.939,4.146,10.768      c4.118,1.828,8.939-0.028,10.768-4.146C84.709,227.483,82.853,222.662,78.735,220.834z" fill="#ffffff" data-original="#ffffff" class=""></path>
				<path style="" d="M53.008,213.613c-4.118-1.828-8.939,0.028-10.768,4.146c-1.829,4.118,0.028,8.939,4.146,10.768      s8.939-0.028,10.768-4.146C58.983,220.262,57.127,215.442,53.008,213.613z" fill="#ffffff" data-original="#ffffff" class=""></path>
				<path style="" d="M92.276,291.242c-4.118-1.828-8.939,0.028-10.768,4.146c-1.829,4.118,0.028,8.939,4.146,10.768      c4.118,1.829,8.939-0.028,10.768-4.146C98.25,297.892,96.394,293.071,92.276,291.242z" fill="#ffffff" data-original="#ffffff" class=""></path>
				<path style="" d="M66.55,284.021c-4.118-1.829-8.939,0.028-10.768,4.146c-1.829,4.118,0.028,8.939,4.146,10.767      c4.118,1.829,8.939-0.027,10.768-4.146C72.524,290.671,70.668,285.85,66.55,284.021z" fill="#ffffff" data-original="#ffffff" class=""></path>
				<path style="" d="M87.762,267.773c-4.118-1.829-8.939,0.028-10.768,4.146c-1.829,4.118,0.028,8.939,4.146,10.768      c4.118,1.829,8.939-0.028,10.768-4.146C93.737,274.422,91.88,269.601,87.762,267.773z" fill="#ffffff" data-original="#ffffff" class=""></path>
				<path style="" d="M62.036,260.552c-4.118-1.829-8.939,0.028-10.768,4.146c-1.829,4.118,0.028,8.939,4.146,10.768      c4.118,1.828,8.939-0.028,10.768-4.146C68.01,267.201,66.154,262.38,62.036,260.552z" fill="#ffffff" data-original="#ffffff" class=""></path>
				<path style="" d="M75.577,330.96c-4.118-1.829-8.939,0.028-10.768,4.146c-0.754,1.698-0.873,3.513-0.473,5.191      l15.994-3.076C79.932,334.553,78.227,332.137,75.577,330.96z" fill="#ffffff" data-original="#ffffff" class=""></path>
				<path style="" d="M118.002,298.463c-4.118-1.829-8.939,0.028-10.768,4.146c-1.829,4.118,0.028,8.939,4.146,10.768      c4.118,1.829,8.939-0.028,10.768-4.146C123.977,305.113,122.121,300.292,118.002,298.463z" fill="#ffffff" data-original="#ffffff" class=""></path>
				<path style="" d="M96.79,314.712c-4.118-1.829-8.939,0.028-10.768,4.146c-1.829,4.118,0.027,8.939,4.146,10.768      c4.118,1.829,8.939-0.028,10.768-4.146C102.764,321.361,100.908,316.54,96.79,314.712z" fill="#ffffff" data-original="#ffffff" class=""></path>
				<path style="" d="M23.818,111.179c4.118,1.828,8.939-0.028,10.768-4.146c1.29-2.906,0.739-6.157-1.14-8.465      l-14.098,2.711C18.116,105.187,19.986,109.478,23.818,111.179z" fill="#ffffff" data-original="#ffffff" class=""></path>
				<path style="" d="M39.467,143.204c-4.118-1.829-8.939,0.028-10.768,4.146c-1.829,4.118,0.028,8.939,4.146,10.768      c4.118,1.828,8.939-0.028,10.768-4.146C45.441,149.854,43.585,145.033,39.467,143.204z" fill="#ffffff" data-original="#ffffff" class=""></path>
				
					<ellipse transform="matrix(0.025 -0.9997 0.9997 0.025 -96.3012 155.644)" style="" cx="31.642" cy="127.192" rx="8.159" ry="8.159" fill="#ffffff" data-original="#ffffff" class=""></ellipse>
				<path style="" d="M13.741,135.984c-2.409-1.07-5.054-0.871-7.204,0.296l2.936,15.265      c3.459,0.41,6.927-1.443,8.415-4.793C19.715,142.633,17.859,137.812,13.741,135.984z" fill="#ffffff" data-original="#ffffff" class=""></path>
				<path style="" d="M9.227,112.514c-2.409-1.07-5.054-0.871-7.204,0.296l2.936,15.265      c3.459,0.41,6.927-1.443,8.415-4.793C15.201,119.164,13.345,114.343,9.227,112.514z" fill="#ffffff" data-original="#ffffff" class=""></path>
				<path style="" d="M48.494,190.143c-4.118-1.829-8.939,0.028-10.768,4.146c-1.829,4.118,0.028,8.939,4.146,10.768      c4.118,1.829,8.939-0.028,10.768-4.146C54.469,196.793,52.613,191.972,48.494,190.143z" fill="#ffffff" data-original="#ffffff" class=""></path>
				<path style="" d="M27.282,206.392c-2.409-1.07-5.054-0.871-7.204,0.296l2.936,15.264      c3.459,0.41,6.927-1.443,8.415-4.793C33.257,213.041,31.4,208.221,27.282,206.392z" fill="#ffffff" data-original="#ffffff" class=""></path>
				<path style="" d="M43.981,166.674c-4.118-1.828-8.939,0.028-10.768,4.146c-1.829,4.118,0.028,8.939,4.146,10.768      c4.118,1.829,8.939-0.028,10.768-4.146C49.955,173.323,48.099,168.503,43.981,166.674z" fill="#ffffff" data-original="#ffffff" class=""></path>
				<path style="" d="M22.768,182.923c-2.409-1.07-5.054-0.871-7.204,0.296l2.936,15.265      c3.459,0.41,6.927-1.443,8.415-4.793C28.743,189.572,26.887,184.751,22.768,182.923z" fill="#ffffff" data-original="#ffffff" class=""></path>
				<path style="" d="M18.254,159.453c-2.409-1.07-5.054-0.871-7.204,0.296l2.936,15.265      c3.459,0.41,6.927-1.443,8.414-4.793C24.229,166.103,22.373,161.282,18.254,159.453z" fill="#ffffff" data-original="#ffffff" class=""></path>
				<path style="" d="M36.309,253.331c-2.409-1.07-5.054-0.871-7.204,0.296l2.936,15.265      c3.459,0.41,6.927-1.443,8.415-4.793C42.284,259.98,40.428,255.16,36.309,253.331z" fill="#ffffff" data-original="#ffffff" class=""></path>
				<path style="" d="M31.796,229.861c-2.409-1.07-5.054-0.871-7.204,0.296l2.936,15.265      c3.459,0.41,6.927-1.443,8.414-4.793C37.77,236.511,35.914,231.69,31.796,229.861z" fill="#ffffff" data-original="#ffffff" class=""></path>
				<path style="" d="M45.337,300.27c-2.409-1.07-5.054-0.871-7.204,0.296l2.936,15.265      c3.459,0.41,6.927-1.443,8.414-4.793C51.311,306.919,49.455,302.099,45.337,300.27z" fill="#ffffff" data-original="#ffffff" class=""></path>
				<path style="" d="M40.823,276.8c-2.409-1.07-5.054-0.871-7.204,0.296l2.936,15.265      c3.459,0.41,6.927-1.443,8.415-4.793C46.798,283.45,44.941,278.629,40.823,276.8z" fill="#ffffff" data-original="#ffffff" class=""></path>
				<path style="" d="M71.063,307.491c-4.118-1.829-8.939,0.028-10.768,4.146c-1.829,4.118,0.028,8.939,4.146,10.768      c4.118,1.828,8.939-0.028,10.768-4.146C77.038,314.14,75.182,309.319,71.063,307.491z" fill="#ffffff" data-original="#ffffff" class=""></path>
				<path style="" d="M49.851,323.739c-2.409-1.07-5.054-0.871-7.204,0.296l2.595,13.492      c0.124,0.647,0.353,1.244,0.649,1.795c3.355,0.268,6.663-1.564,8.106-4.815C55.825,330.389,53.969,325.568,49.851,323.739z" fill="#ffffff" data-original="#ffffff" class=""></path>
			</g>
			<g>
				<path style="" d="M141.517,115.144c3.653-6.059,13.335-8.168,19.732-5.95c6.333,2.196,7.395,9.582-0.807,13.773      C149.207,128.709,136.779,123.004,141.517,115.144z" fill="#fc09b2" data-original="#fc09b2"></path>
				<path style="" d="M224.006,99.279c-5.64-4.272-15.414-2.639-20.532,1.794c-5.067,4.388-3.313,11.641,5.859,12.491      C221.896,114.729,231.322,104.821,224.006,99.279z" fill="#fc09b2" data-original="#fc09b2"></path>
			</g>
			<g>
				<path style="" d="M195.715,96.452c-0.507-2.314-2.131-3.904-5-4.03c-9.351-0.409-19.415,2.909-21.932,4.613      c-4.774,3.231-0.493,10.008,2.77,12.536C180.67,116.636,198.433,108.862,195.715,96.452z" fill="#ffffff" data-original="#ffffff" class=""></path>
				<path style="" d="M23.699,118.77c2.575,32.018,12.779,82.892,20.858,109.207c0.722,2.358,4.886,1.572,4.683-0.901      c-2.281-27.71-11.737-78.736-21.138-109.153C27.419,115.707,23.513,116.454,23.699,118.77z" fill="#ffffff" data-original="#ffffff" class=""></path>
			</g>
			<g>
				<path style="" d="M359.868,210.761c-2.12,7.957-7.597,17.292-14.613,23.301c-2.243,1.925-4.635,3.505-7.135,4.594      c-8.279,3.611-31.759-9.557-36.138-22.264c-2.847-8.26,1.861-16.493,9.872-16.679c6.65-0.145,13.039,4.101,17.632,8.859      c1.279,1.33,1.615,1.929,1.97,1.114c0.707-1.643,2.335-5.689,4.011-8.044c2.064-2.927,4.226-5.058,6.351-6.517      C352.804,187.619,363.236,198.153,359.868,210.761z" fill="#915efd" data-original="#915efd" class=""></path>
				<path style="" d="M111.911,258.444c-2.805,10.495-11.445,23.422-21.748,27.903      c-8.278,3.601-31.756-9.562-36.137-22.274c-2.845-8.256,1.851-16.49,9.866-16.666c6.65-0.146,13.046,4.098,17.628,8.853      c1.287,1.336,1.616,1.93,1.971,1.113c0.711-1.637,2.34-5.689,4.015-8.048C100.288,231.311,115.931,243.404,111.911,258.444z" fill="#915efd" data-original="#915efd" class=""></path>
			</g>
			<path style="opacity:0.5;" d="M352.355,43.663l43.547,226.423c0.659,3.427-1.578,6.747-5.005,7.405L52.636,342.548     c-1.24,0.238-2.443,0.096-3.523-0.346c3.067-13.96,13.274-25.878,25.31-33.101c19.004-11.397,26.413-10.901,218.826-46.524     c34.845-6.453,48.161-16.01,52.005-28.515c7.016-6.009,12.493-15.344,14.613-23.301c3.368-12.608-7.064-23.142-18.05-15.637     c-0.206-0.997-0.401-2.011-0.598-3.037c-5.795-30.852-11.521-61.703-16.608-92.677c-2.686-16.338-7.584-36.052,4.398-49.957     c3.548-4.125,7.838-7.342,12.486-10.13l3.467-0.667C348.39,37.997,351.696,40.237,352.355,43.663z" fill="#fd8a02" data-original="#fd8a02" class=""></path>
			<path style="opacity:0.25;" d="M359.868,210.761c-2.12,7.957-7.597,17.292-14.613,23.301     c3.315-10.8-0.431-23.809-3.437-38.938C352.804,187.619,363.236,198.153,359.868,210.761z" fill="#000e3f" data-original="#000e3f"></path>
		</g>
		<g>
			<path style="" d="M397.452,269.788L353.906,43.366c-0.823-4.274-4.962-7.087-9.24-6.26L6.404,102.162     c-2.071,0.398-3.863,1.578-5.045,3.323c-1.182,1.745-1.613,3.847-1.214,5.918l43.546,226.423     c0.512,2.665,2.323,4.851,4.825,5.838c0.935,0.383,1.93,0.576,2.933,0.576c0.495,0,0.993-0.047,1.486-0.142l338.261-65.055     C395.47,278.22,398.276,274.068,397.452,269.788z M390.6,275.942L52.337,340.998c-0.903,0.173-1.787,0.088-2.644-0.263     c-1.509-0.596-2.594-1.906-2.902-3.506L3.245,110.807c-0.239-1.244,0.02-2.504,0.728-3.551c0.709-1.046,1.784-1.754,3.027-1.993     l338.261-65.056c0.301-0.057,0.599-0.086,0.895-0.086c2.224,0,4.213,1.579,4.649,3.841l43.546,226.423     C394.847,272.956,393.163,275.449,390.6,275.942z" fill="#000e3f" data-original="#000e3f"></path>
			<path style="" d="M102.636,157.724c-1.503,0.151-2.994,0.367-4.539,0.665c-1.612,0.31-3.212,0.689-4.692,1.319     l0.012,0.067c0.773,8.003,3.536,20.917,4.282,28.787c-1.591-2.48-5.292-11.943-6.215-12.39c-0.054,0.079-0.041,0.146-0.069,0.361     c-0.232,4.224-0.37,8.221-0.736,12.472c-3.435-7.35-4.536-19.958-6.799-27.742c-1.626,0.243-3.465,0.456-5.28,0.805     c-1.545,0.298-2.997,0.718-4.302,1.173l0.013,0.069c3.254,15.468,8.724,30.51,13.819,45.413l0.068-0.014     c1.033-0.06,1.852-0.146,2.592-0.288c1.276-0.247,2.123-0.55,3.227-0.971c0.971-2.552,0.18-9.927,1.483-11.849l0.068-0.014     c2.09,2.177,4.214,8.875,6.16,10.658l0.805-0.154l2.419-0.466c0.874-0.168,1.693-0.255,2.259-0.572     c-1.721-15.833-2.853-31.498-4.494-47.277L102.636,157.724z" fill="#000e3f" data-original="#000e3f"></path>
			<path style="" d="M143.432,189.099l-0.026-0.132c-6.076,1.375-11.754,1.91-17.666,3.047l-0.08-0.053     c-0.615-2.112-1.581-5.689-1.616-8.397c0.798-0.922,5.375-1.035,7.987-2.304c-0.699-3.28-0.88-6.379-1.93-9.312l-0.014-0.067     c-2.768,0.461-5.576,1.073-8.302,1.388l-0.08-0.056c-1.07-2.301-1.009-5.238-1.579-7.844l0.055-0.082l0.2-0.038     c5.809-1.675,11.982-1.817,17.447-4.192l-0.012-0.067c-0.608-3.16-0.757-6.472-1.835-9.541     c-0.078-0.402-17.425,3.214-27.736,5.752c2.086,15.554,5.774,30.38,8.77,45.966c8.808-0.927,18.421-3.474,27.57-5.165     C144.809,195.175,144.189,191.951,143.432,189.099z" fill="#000e3f" data-original="#000e3f"></path>
			<path style="" d="M150.279,197.188c21.698-3.823,24.604-5.01,26.525-5.171c1.881-0.362,2.147-0.062,0.571-6.448     c-0.21-0.728-0.337-1.749-0.437-2.633c-0.024-0.483-0.127-1.023-0.217-1.494c-2.098,0.683-15.835,2.071-17.478,2.946     l-0.012-0.068c-2.021-11.593-5.159-24.644-7.057-36.332c-2.76-0.583-9.117,0.778-10.789,1.865     c3.9,18.826,5.593,25.816,8.662,46.125L150.279,197.188z" fill="#000e3f" data-original="#000e3f"></path>
			<path style="" d="M180.734,182.763c2.186,7.381,10.754,8.102,16.969,6.001c9.769-2.088,14.146-13.379,9.34-22.07     c-2.696-0.247-6.462,1.175-9.08,1.331c-0.045,2.308,1.012,4.543,0.406,6.819c-0.524,1.98-2.331,3.094-4.318,3.265     c-2.762-0.233-4.245-2.874-5.017-5.442c-1.713-6.009-3.592-18.677-3.414-19.199c0.028-0.212,0.072-0.709,0.235-0.949     c0.598-0.88,2.05-1.3,3.153-1.722c5.201-1.211,5.197,4.574,6.42,8.032c3.542-0.056,6.711-0.247,9.86-1.62     c1.91-13.253-13.025-22.087-24.544-15.691c-1.212,0.583-2.264,1.273-3.129,2.205c-1.382,1.867-2.216,4.048-2.571,6.556     c-0.279,1.448-0.372,3.136,0.127,4.644C177.759,169.47,179.158,176.379,180.734,182.763z" fill="#000e3f" data-original="#000e3f"></path>
			<path style="" d="M211.225,139.904c-2.148,3.69-2.059,8.132-1.351,12.174c0.887,7.145,2.781,14.096,4.394,21.03     c0.571,2.607,1.343,5.177,3.046,7.146c2.297,3.25,6.012,3.371,9.773,2.998c2.658-0.302,5.186-0.928,7.529-2.145     c2.612-1.268,4.999-2.981,6.132-5.429c1.108-2.931,1.214-6.365,0.809-9.562l-0.225-2.254c-0.556-4.702-1.664-9.015-2.312-13.837     c-0.359-2.23-0.785-4.449-1.413-6.626c-0.474-1.372-1.013-2.73-1.876-3.957c-0.835-1.444-2.047-2.672-3.543-3.57     c-5.935-2.967-14.291-1.501-19.648,2.525C211.997,138.852,211.604,139.346,211.225,139.904z M220.023,145.807     c1.204-1.347,3.104-2.338,5.06-1.949c2.276,0.606,3.911,2.593,4.591,5.04c0.365,1.533,0.993,3.71,1.005,3.777l1.013,4.543     l0.62,3.226c0.04,0.202,0.256,1.691,0.538,3.517c0.414,3.964,1.086,3.834-0.168,6.374c-2.16,3.62-7.881,4.302-10.312,1.078     c-1.442-2.789-2.021-6.16-3.099-9.228c-0.925-3.722-1.593-7.564-1.514-11.133C217.933,149.065,218.711,147.313,220.023,145.807z" fill="#000e3f" data-original="#000e3f"></path>
			<path style="" d="M249.959,177.948c2.888-0.557,6.567-0.985,9.367-2.011c-2.14-8.227-4.223-16.883-5.099-25.422     c0.041-0.147,4.605,8.729,5.961,8.537c0.739-0.142,1.553-8.589,2.346-10.622c2.32,7.355,4.157,18.358,5.966,25.952     c2.15-0.413,6.129-1.458,8.881-1.639l-3.92-21.467c-1.184-8.69-3.512-16.811-4.829-25.475c-2.822,0.543-8.577,2.136-9.892,2.181     c-1.211,2.393-1.372,11.34-1.948,11.244c-0.133,0.026-0.281-0.015-0.441-0.125c-1.811-1.811-4.344-7.734-6.385-9.291     l-0.067,0.012c-2.918,0.771-6.796,0.889-9.072,2.093c6.747,36.531,8.322,44.726,8.89,45.87     C249.811,177.907,249.892,177.96,249.959,177.948z" fill="#000e3f" data-original="#000e3f"></path>
			<path style="" d="M310.072,156.912c-6.074,1.377-11.754,1.912-17.666,3.047l-0.08-0.053     c-0.615-2.11-1.581-5.687-1.615-8.397c0.797-0.921,5.374-1.033,7.987-2.304c-0.701-3.279-0.879-6.377-1.931-9.312l-0.014-0.067     c-2.766,0.463-5.576,1.072-8.301,1.388l-0.081-0.055c-1.069-2.3-1.007-5.238-1.578-7.845l0.054-0.08l0.202-0.039     c5.808-1.675,11.981-1.818,17.447-4.19l-0.014-0.067c-0.607-3.161-0.757-6.474-1.835-9.541     c-0.077-0.403-17.426,3.212-27.736,5.752c2.086,15.554,5.774,30.378,8.771,45.965c8.808-0.927,18.42-3.474,27.569-5.163     c0.223-2.828-0.397-6.052-1.155-8.906L310.072,156.912z" fill="#000e3f" data-original="#000e3f"></path>
			<path style="" d="M149.474,227.398c1.509,6.398,2.453,11.304,3.104,17.587l-0.067,0.014     c-2.179,0.629-4.923,1.572-7.242,1.461l-0.068,0.014c-2.173-5.504-2.814-11.371-4.809-17.397c-2.695-0.248-5.78,1.459-8.57,1.439     l-0.135,0.026l-0.067,0.014l0.014,0.067c2.366,13.757,7.948,39.157,9.945,46.645c1.444-1.184,7.087-0.459,9.058-2.16     c-0.211-5.812-2.409-11.799-3.059-18.084c2.504-1.106,5.057-1.598,7.767-1.632l0.08,0.055c1.851,5.636,2.55,12.539,4.574,18.349     l0.067-0.014c2.178-0.629,6.341-1.081,9.328-2.213l-10.859-46.677C155.809,225.204,151.616,226.221,149.474,227.398z" fill="#000e3f" data-original="#000e3f"></path>
			<path style="" d="M199.737,250.405c-0.556-4.7-1.664-9.014-2.313-13.836c-0.359-2.23-0.785-4.447-1.414-6.624     c-0.473-1.374-1.013-2.732-1.876-3.96c-0.834-1.442-2.046-2.671-3.542-3.568c-5.936-2.969-14.292-1.499-19.648,2.525     c-0.54,0.452-0.932,0.946-1.312,1.507c-2.147,3.686-2.059,8.128-1.352,12.171c0.887,7.146,2.78,14.096,4.394,21.032     c0.57,2.607,1.343,5.175,3.046,7.148c2.296,3.25,6.013,3.371,9.772,2.994c2.659-0.302,5.185-0.927,7.529-2.143     c2.612-1.269,4.999-2.982,6.132-5.43c1.108-2.929,1.214-6.364,0.809-9.559L199.737,250.405z M191.089,256.877     c-2.16,3.619-7.881,4.301-10.312,1.077c-1.442-2.789-2.021-6.16-3.099-9.23c-0.925-3.721-1.594-7.563-1.513-11.131     c0.176-1.987,0.953-3.736,2.266-5.244c1.204-1.346,3.104-2.338,5.06-1.947c2.276,0.606,3.912,2.59,4.591,5.038     c0.365,1.531,0.993,3.71,1.006,3.777l1.012,4.543l0.62,3.224c0.039,0.202,0.257,1.692,0.538,3.52     C191.671,254.465,192.343,254.336,191.089,256.877z" fill="#000e3f" data-original="#000e3f"></path>
			<path style="" d="M227.039,212.344c-2.823,0.541-8.577,2.136-9.892,2.179c-1.212,2.393-1.372,11.342-1.948,11.244     c-0.134,0.026-0.282-0.017-0.442-0.125c-1.811-1.811-4.344-7.736-6.384-9.293l-0.067,0.013c-2.919,0.769-6.797,0.891-9.072,2.093     c6.746,36.533,8.322,44.728,8.891,45.872c0.094,0.122,0.174,0.176,0.241,0.163c2.889-0.555,6.568-0.983,9.367-2.011     c-2.139-8.226-4.222-16.882-5.1-25.422c0.041-0.147,4.605,8.728,5.961,8.536c0.739-0.142,1.554-8.587,2.347-10.622     c2.32,7.357,4.158,18.36,5.966,25.953c2.15-0.413,6.129-1.458,8.88-1.637l-3.919-21.471     C230.684,229.127,228.356,221.007,227.039,212.344z" fill="#000e3f" data-original="#000e3f"></path>
			<path style="" d="M268.48,243.456c-6.074,1.376-11.754,1.912-17.666,3.049l-0.08-0.055     c-0.616-2.11-1.582-5.687-1.615-8.397c0.798-0.92,5.374-1.033,7.986-2.302c-0.701-3.28-0.879-6.381-1.93-9.312l-0.014-0.068     c-2.766,0.462-5.576,1.072-8.301,1.386l-0.08-0.053c-1.069-2.301-1.007-5.24-1.578-7.846l0.054-0.08l0.202-0.04     c5.809-1.673,11.981-1.817,17.446-4.192l-0.013-0.067c-0.606-3.157-0.757-6.473-1.835-9.541     c-0.077-0.401-17.425,3.215-27.735,5.754c2.086,15.552,5.773,30.378,8.77,45.963c8.808-0.927,18.42-3.471,27.569-5.161     c0.222-2.828-0.398-6.054-1.155-8.904L268.48,243.456z" fill="#000e3f" data-original="#000e3f"></path>
			<path style="" d="M274.542,243.473l0.014,0.068c0.478,2.486,0.706,8.015,1.31,7.899l5.025-1.038l0.134-0.026     c1.007-0.194,1.49-0.216,2.566-0.421l0.469-0.091c-0.504-2.621-0.938-5.603-1.348-8.101     C280.093,242.268,276.524,242.186,274.542,243.473z" fill="#000e3f" data-original="#000e3f"></path>
			<path style="" d="M275.045,202.621c-2.628-0.259-5.925,1.071-8.238,1.723l-0.201,0.039     c1.613,12.37,4.6,23.917,6.672,35.779l0.068-0.012c2.607-0.571,6.302-1.281,8.601-2.002     C279.201,226.763,277.053,214.148,275.045,202.621z" fill="#000e3f" data-original="#000e3f"></path>
			<path style="" d="M149.536,105.202c6.344,3.023,13.362-3.604,9.489-9.672c-2.201-3.448-6.381-4.345-9.539-2.949     C144.085,94.969,144.432,102.77,149.536,105.202z" fill="#000e3f" data-original="#000e3f"></path>
			<path style="" d="M212.85,93.025c3.838-4.151,1.266-11.525-4.634-11.739c-3.451-0.125-7,2.258-7.765,6.277     C199.104,94.635,208.079,98.186,212.85,93.025z" fill="#000e3f" data-original="#000e3f"></path>
		</g>
	</g>
	<g>
		<g>
			<g>
				<path style="" d="M363.636,322.049l-13.189,66.268c-1.17,5.873-6.669,9.755-12.492,9.033      c-0.473-0.05-0.971-0.149-1.444-0.273l-7.789-1.991l-65.198-16.574l-7.814-1.991c-0.498-0.124-0.946-0.274-1.394-0.448      c-4.355-1.717-7.117-5.923-7.142-10.477c0-1.12,0.149-2.289,0.522-3.434l4.952-15.901l15.105-48.6      c3.907-12.591,12.393-22.521,23.118-28.518c10.7-5.997,23.641-8.013,36.406-4.778c8.859,2.265,16.573,6.794,22.645,12.816      c1.767,1.767,3.409,3.658,4.902,5.624C362.889,293.705,366.498,307.79,363.636,322.049z" fill="#00d5fe" data-original="#00d5fe"></path>
				<g>
					<path style="" d="M336.511,397.077l-80.801-20.555c-0.498-0.124-0.946-0.274-1.394-0.448l-13.911,46.336       c-7.913,26.427,5.898,54.099,31.255,60.545c25.358,6.445,50.715-11.248,56.364-38.248l9.929-47.356       C337.482,397.301,336.984,397.201,336.511,397.077z" fill="#915efd" data-original="#915efd" class=""></path>
					<path style="" d="M287.636,349.139c0.312,0.543,0.355,1.201,0.116,1.78l-6.634,16.101       c-0.62,1.505,0.697,3.089,2.29,2.755l17.043-3.574c0.613-0.129,1.252,0.034,1.729,0.44l13.263,11.285       c1.239,1.054,3.153,0.292,3.328-1.326l1.867-17.314c0.067-0.623,0.419-1.18,0.953-1.509l14.831-9.126       c1.386-0.853,1.252-2.909-0.233-3.575l-15.889-7.126c-0.572-0.257-0.993-0.763-1.14-1.372l-4.096-16.925       c-0.383-1.582-2.379-2.09-3.472-0.883l-11.687,12.909c-0.421,0.465-1.032,0.708-1.657,0.66l-17.363-1.334       c-1.622-0.125-2.722,1.617-1.913,3.029L287.636,349.139z" fill="#915efd" data-original="#915efd" class=""></path>
				</g>
				<path style="" d="M328.722,395.086l-10.004,47.679c-2.339,11.173-8.983,20.879-18.216,26.627      c-8.112,5.076-17.544,6.619-26.503,4.33c-8.958-2.264-16.499-8.112-21.202-16.474c-5.375-9.456-6.57-21.152-3.26-32.101      l13.985-46.634L328.722,395.086z" fill="#4217a6" data-original="#4217a6"></path>
				<path style="opacity:0.25;" d="M350.45,388.316c-1.28,6.381-7.629,10.376-13.927,8.773l-80.806-20.559      c-5.146-1.309-8.526-5.898-8.539-10.923l0,0c4.61-14.811,28.465-6.589,43.382-2.299c25.129,7.244,40.998,13.762,49.329-12.105      c4.588-14.241,6.88-53.982,14.93-68.389c8.075,10.887,11.669,24.985,8.826,39.245L350.45,388.316z" fill="#4217a6" data-original="#4217a6"></path>
				<g>
					<path style="" d="M330.869,317.275c-2.081-3.747,1.286-7.072,5.442-7.465c6.442-0.609,11.855,2.51,13.611,5.725       C354.631,324.158,335.918,326.366,330.869,317.275z" fill="#fc09b2" data-original="#fc09b2"></path>
					<path style="" d="M298.841,309.126c3.619-2.297,2.25-6.827-1.213-9.158c-5.367-3.614-11.613-3.461-14.691-1.476       C274.678,303.816,290.06,314.699,298.841,309.126z" fill="#fc09b2" data-original="#fc09b2"></path>
				</g>
				<path style="opacity:0.75;" d="M277.898,311.265c-1.62,11.952-8.023,32.641-14.009,44.092      c-0.832,1.591-3.275,0.823-3.03-0.97c1.386-9.996,5.815-24.313,9.438-33.411c1.41-3.597,2.928-7.159,4.752-10.623      c0.391-0.742,1.309-1.027,2.051-0.637C277.68,310.022,277.981,310.652,277.898,311.265z" fill="#ffffff" data-original="#ffffff" class=""></path>
			</g>
			<g>
				<path style="" d="M356.071,281.86c-1.543-2.065-3.235-4.006-5.027-5.798c-6.445-6.396-14.533-10.974-23.392-13.214      c-12.741-3.26-26.079-1.493-37.551,4.927c-11.497,6.421-19.958,16.872-23.865,29.414l-20.057,64.502      c-0.398,1.294-0.597,2.588-0.572,3.932c0,4.828,2.688,9.108,6.818,11.298l-13.512,45.042      c-4.156,13.811-2.613,28.667,4.23,40.761c6.221,10.999,16.225,18.713,28.12,21.749c3.633,0.921,7.291,1.394,10.974,1.394      c8.362,0,16.673-2.389,24.139-7.043c11.795-7.366,20.231-19.659,23.193-33.793l9.655-46.012h0.124      c2.414,0,4.778-0.672,6.868-1.991c3.011-1.891,5.076-4.877,5.773-8.411l13.214-66.243      C368.016,308.238,364.681,293.481,356.071,281.86z M326.483,444.383c-2.787,13.288-10.725,24.86-21.774,31.753      c-6.943,4.33-14.682,6.545-22.471,6.545c-3.409,0-6.818-0.423-10.178-1.269c-11.074-2.812-20.381-10.004-26.179-20.231      c-6.421-11.348-7.864-25.308-3.957-38.298l13.463-44.818l80.701,20.53L326.483,444.383z M362.093,321.75l-13.189,66.268      c-0.548,2.638-2.09,4.903-4.38,6.346c-1.418,0.896-3.011,1.418-4.629,1.468c-0.995,0.075-1.991-0.025-2.986-0.274l-0.174-0.05      l-80.453-20.455l-0.174-0.05c-0.995-0.249-1.916-0.647-2.737-1.17c-2.812-1.717-4.604-4.828-4.604-8.237      c-0.025-0.995,0.124-1.991,0.423-2.961l20.057-64.501c3.658-11.771,11.621-21.575,22.396-27.622      c7.217-4.031,15.23-6.097,23.342-6.097c3.982,0,7.963,0.498,11.895,1.493c8.312,2.115,15.902,6.395,21.949,12.393      c1.667,1.667,3.26,3.509,4.728,5.45C361.62,294.651,364.731,308.487,362.093,321.75z" fill="#000e3f" data-original="#000e3f"></path>
				<path style="" d="M299.426,281.999c-3.324-0.805-6.486,1.111-7.368,4.403c-0.817,3.046,1.225,6.573,4.537,7.35      c3.277,0.768,6.467-1.058,7.334-4.508C304.771,285.963,302.818,282.82,299.426,281.999z" fill="#000e3f" data-original="#000e3f"></path>
				<path style="" d="M343.355,293.171c-3.987-0.921-6.669,1.766-7.447,4.376c-0.863,2.896,1.293,6.648,4.273,7.324      C348.484,306.753,350.951,294.927,343.355,293.171z" fill="#000e3f" data-original="#000e3f"></path>
				<path style="" d="M320.05,292.778c-5.949-1.563-12.619-0.675-13.803,3.979c-0.422,1.659-0.379,3.289,0.011,4.845      c3.711,2.586,17.532,6.44,21.692,5.519c1.085-1.18,1.902-2.591,2.324-4.25C331.458,298.216,326.023,294.249,320.05,292.778z" fill="#000e3f" data-original="#000e3f"></path>
			</g>
			<path style="" d="M327.949,307.121c-2.985,3.248-8.004,4.588-12.448,3.539c-4.405-1.202-8.173-4.778-9.243-9.058     c3.386-2.443,7.773-3.42,12.136-2.31C322.756,300.402,326.143,303.358,327.949,307.121z" fill="#ff8ede" data-original="#ff8ede"></path>
		</g>
		<g>
			<g>
				<path style="" d="M500.801,325.434c-0.448,0.124-0.921,0.224-1.418,0.299l-7.963,1.12l-66.641,9.332l-7.963,1.12      c-0.498,0.075-0.971,0.125-1.468,0.125c-4.678,0.049-8.834-2.787-10.576-6.993c-0.448-1.045-0.722-2.19-0.821-3.384      l-1.443-16.598l-4.43-50.69c-1.145-13.139,2.961-25.557,10.601-35.162c7.64-9.606,18.838-16.374,31.877-18.191      c9.058-1.269,17.942,0,25.83,3.26c2.29,0.971,4.529,2.09,6.645,3.359c11.596,7.018,20.281,18.714,23.043,32.997l12.865,66.318      C510.083,318.242,506.45,323.915,500.801,325.434z" fill="#00d5fe" data-original="#00d5fe"></path>
				<g>
					<path style="" d="M509.56,373.013l-8.759-47.58c-0.448,0.124-0.921,0.224-1.418,0.299l-7.963,1.12l-66.641,9.332       l-7.963,1.12c-0.498,0.075-0.971,0.125-1.468,0.125l4.678,48.127c2.663,27.448,25.93,47.829,51.835,44.195       C497.765,426.117,514.537,400.138,509.56,373.013z" fill="#915efd" data-original="#915efd" class=""></path>
					<path style="" d="M435.977,299.864c0.494,0.385,0.783,0.977,0.781,1.604l-0.043,17.414       c-0.004,1.627,1.815,2.595,3.162,1.683l14.42-9.763c0.519-0.351,1.171-0.443,1.767-0.248l16.548,5.422       c1.546,0.507,3.029-0.924,2.578-2.487l-4.829-16.731c-0.174-0.602-0.059-1.251,0.311-1.757l10.27-14.063       c0.96-1.314,0.057-3.166-1.569-3.22l-17.404-0.578c-0.626-0.021-1.208-0.33-1.575-0.838l-10.201-14.113       c-0.953-1.319-2.994-1.033-3.548,0.497l-5.928,16.374c-0.214,0.59-0.688,1.047-1.284,1.239l-16.575,5.34       c-1.549,0.499-1.907,2.528-0.623,3.528L435.977,299.864z" fill="#915efd" data-original="#915efd" class=""></path>
				</g>
				<path style="" d="M493.435,406.284c-5.599,7.789-13.736,12.766-22.894,14.06      c-9.158,1.269-18.34-1.269-25.855-7.216c-8.56-6.719-14.085-17.096-15.18-28.468l-4.728-48.476l66.641-9.332l8.785,47.878      C502.269,385.978,499.806,397.475,493.435,406.284z" fill="#4217a6" data-original="#4217a6"></path>
				<path style="opacity:0.25;" d="M508.949,312.336c1.232,6.39-3.131,12.492-9.567,13.394l-82.574,11.573      c-5.259,0.737-10.125-2.23-12.04-6.876l0,0c-1.342-15.454,23.85-16.878,39.28-18.557c26.001-2.812,43.156-2.789,41.071-29.884      c-1.146-14.917-14.075-52.567-12.081-68.949c11.596,7.018,20.261,18.705,23.03,32.98L508.949,312.336z" fill="#4217a6" data-original="#4217a6"></path>
				<g>
					<path style="" d="M480.898,245.175c-2.842-2.31-9.033-3.147-14.765-0.144c-3.698,1.938-5.555,6.29-2.21,8.97       C472.04,260.503,488.523,251.373,480.898,245.175z" fill="#fc09b2" data-original="#fc09b2"></path>
					<path style="" d="M426.604,250.571c-6.336-1.312-12.059,1.195-14.156,4.197       c-5.627,8.055,12.731,12.303,18.747,3.82C433.674,255.092,430.692,251.418,426.604,250.571z" fill="#fc09b2" data-original="#fc09b2"></path>
				</g>
				<path style="opacity:0.75;" d="M412.065,266.998c3.026,11.675,4.935,33.248,3.732,46.114      c-0.167,1.788-2.719,2.002-3.172,0.25c-2.502-9.776-3.825-24.705-3.918-34.497c-0.057-3.863-0.001-7.735,0.375-11.632      c0.08-0.835,0.823-1.446,1.658-1.366C411.392,265.93,411.908,266.399,412.065,266.998z" fill="#ffffff" data-original="#ffffff" class=""></path>
			</g>
			<g>
				<path style="" d="M511.103,372.739l-8.486-46.236c2.29-0.921,4.256-2.464,5.699-4.504      c1.593-2.215,2.414-4.828,2.414-7.49c0-0.821-0.074-1.643-0.224-2.464l-12.89-66.318c-2.737-14.159-11.397-26.552-23.765-34.042      c-2.215-1.319-4.529-2.488-6.868-3.459c-8.386-3.484-17.594-4.653-26.652-3.384c-13.015,1.816-24.711,8.485-32.898,18.788      c-8.187,10.278-12.069,23.168-10.924,36.257l5.873,67.313c0.099,1.319,0.423,2.613,0.921,3.833      c1.841,4.454,5.947,7.416,10.601,7.888l4.554,46.808c1.394,14.359,8.436,27.523,19.36,36.108      c8.237,6.495,18.017,9.904,28.07,9.904c2.065,0,4.131-0.124,6.196-0.423c12.169-1.717,22.944-8.287,30.359-18.539      C510.556,401.531,513.716,386.924,511.103,372.739z M413.605,335.686c-3.26-0.548-6.097-2.712-7.391-5.873      c-0.373-0.921-0.622-1.891-0.697-2.886l-5.873-67.313c-1.07-12.293,2.563-24.363,10.277-34.018      c7.665-9.655,18.639-15.926,30.857-17.643c2.215-0.299,4.454-0.448,6.694-0.448c6.271,0,12.492,1.219,18.315,3.633      c2.19,0.921,4.355,2.016,6.445,3.26c11.571,7.017,19.709,18.639,22.297,31.927l12.866,66.318      c0.522,2.663-0.075,5.325-1.643,7.54c-0.97,1.369-2.239,2.414-3.708,3.135c-0.025,0-0.025,0-0.025,0      c-0.896,0.423-1.841,0.697-2.862,0.846l-0.174,0.025l-82.22,11.522l-0.174,0.025      C415.571,335.885,414.575,335.86,413.605,335.686z M499.88,410.938c-3.434,4.753-7.665,8.685-12.467,11.621      c-4.778,2.911-10.128,4.828-15.777,5.624c-11.298,1.593-22.62-1.543-31.877-8.834c-10.228-8.063-16.847-20.43-18.166-33.943      l-4.529-46.535l82.493-11.571l8.461,46.012C510.456,386.65,507.495,400.362,499.88,410.938z" fill="#000e3f" data-original="#000e3f"></path>
				<path style="" d="M443.392,253.716c0.896,0.373,1.841,0.522,2.762,0.522c1.866,0,3.708-0.697,5.226-2.016      c3.733-3.309,4.927-9.406,3.185-16.374c-0.199-0.846-1.07-1.369-1.916-1.145c-0.846,0.224-1.344,1.07-1.145,1.916      c1.692,6.818-0.025,11.298-2.215,13.214c-1.418,1.269-3.111,1.592-4.753,0.946c-3.26-1.269-5.624-5.898-6.321-12.418      c-0.075-0.871-0.846-1.493-1.742-1.394c-0.846,0.075-1.493,0.871-1.394,1.742C435.926,246.524,438.937,251.998,443.392,253.716z      " fill="#000e3f" data-original="#000e3f"></path>
				<path style="" d="M423.359,245.951c3.533-0.573,5.923-3.633,5.375-7.366c-0.373-2.862-2.464-4.878-5.151-5.3      c-0.348-0.075-0.722-0.1-1.095-0.1c-0.348,0-0.697,0.025-1.07,0.074c-0.373,0.075-0.722,0.149-1.07,0.274      c-2.986,0.921-4.803,3.807-4.404,7.017C416.367,243.886,419.776,246.524,423.359,245.951z" fill="#000e3f" data-original="#000e3f"></path>
				<path style="" d="M467.829,239.755c7.266-1.22,7.042-9.805,2.314-12.218c-0.05-0.05-0.1-0.075-0.149-0.075      c-0.373-0.199-0.771-0.324-1.194-0.423c-0.722-0.199-1.543-0.224-2.439-0.074c-0.05,0-0.075,0.025-0.125,0.025      c-0.174,0.025-0.373,0.075-0.547,0.124c-0.224,0.05-0.423,0.1-0.622,0.174c-0.224,0.074-0.398,0.174-0.597,0.249      c-2.961,1.269-4.031,4.305-3.783,6.744C460.985,237.465,464.618,240.278,467.829,239.755z" fill="#000e3f" data-original="#000e3f"></path>
			</g>
		</g>
	</g>
	<g>
		<path style="" d="M453.704,154.905l-12.268-1.521c-0.783-0.097-1.468-0.573-1.832-1.273l-5.702-10.968    c-0.917-1.763-3.457-1.71-4.299,0.09l-5.238,11.197c-0.334,0.715-0.999,1.219-1.777,1.349l-12.193,2.033    c-1.96,0.327-2.694,2.759-1.243,4.116l9.031,8.442c0.576,0.539,0.851,1.326,0.734,2.107l-1.834,12.225    c-0.295,1.965,1.792,3.415,3.531,2.454l10.819-5.98c0.691-0.382,1.525-0.399,2.231-0.047l11.06,5.522    c1.778,0.888,3.802-0.648,3.425-2.599l-2.344-12.137c-0.149-0.775,0.092-1.574,0.645-2.136l8.669-8.812    C456.511,157.549,455.675,155.149,453.704,154.905z" fill="#fd8a02" data-original="#fd8a02" class=""></path>
		<path style="" d="M414.402,65.716l0.926-10.795c0.059-0.689,0.454-1.305,1.055-1.647l9.418-5.357    c1.514-0.861,1.383-3.084-0.221-3.762l-9.981-4.217c-0.637-0.269-1.101-0.835-1.241-1.512l-2.184-10.612    c-0.351-1.706-2.506-2.269-3.646-0.952l-7.094,8.189c-0.453,0.523-1.134,0.789-1.822,0.712l-10.768-1.202    c-1.731-0.193-2.932,1.682-2.032,3.174l5.596,9.278c0.357,0.592,0.4,1.322,0.115,1.952l-4.47,9.87    c-0.719,1.587,0.694,3.308,2.39,2.914l10.553-2.455c0.674-0.157,1.381,0.028,1.892,0.494l8.005,7.302    C412.179,68.262,414.253,67.451,414.402,65.716z" fill="#fd8a02" data-original="#fd8a02" class=""></path>
		<path style="" d="M498.362,99.637l-7.926-5.18c-0.506-0.331-0.816-0.889-0.831-1.493l-0.226-9.465    c-0.036-1.522-1.802-2.341-2.987-1.387l-7.375,5.937c-0.471,0.379-1.098,0.502-1.677,0.329l-9.072-2.71    c-1.458-0.435-2.783,0.99-2.242,2.413l3.367,8.849c0.215,0.565,0.138,1.199-0.205,1.696l-5.381,7.79    c-0.865,1.252,0.082,2.953,1.602,2.877l9.456-0.468c0.604-0.03,1.183,0.239,1.55,0.719l5.746,7.525    c0.923,1.21,2.833,0.835,3.232-0.634l2.477-9.138c0.158-0.583,0.593-1.051,1.163-1.252l8.932-3.14    C499.402,102.401,499.636,100.469,498.362,99.637z" fill="#fd8a02" data-original="#fd8a02" class=""></path>
		<path style="" d="M149.283,465.709l-7.926-5.18c-0.506-0.33-0.817-0.889-0.831-1.493l-0.226-9.465    c-0.037-1.521-1.802-2.341-2.987-1.387l-7.375,5.937c-0.471,0.379-1.098,0.502-1.677,0.329l-9.072-2.71    c-1.458-0.436-2.783,0.99-2.242,2.413l3.367,8.849c0.215,0.565,0.138,1.199-0.205,1.696l-5.381,7.79    c-0.865,1.252,0.082,2.953,1.602,2.878l9.456-0.468c0.604-0.03,1.183,0.239,1.55,0.719l5.747,7.525    c0.923,1.209,2.833,0.835,3.232-0.634l2.477-9.138c0.158-0.584,0.593-1.052,1.163-1.252l8.932-3.14    C150.323,468.474,150.556,466.542,149.283,465.709z" fill="#fd8a02" data-original="#fd8a02" class=""></path>
		<path style="" d="M221.537,357.017l-12.352,0.494c-0.788,0.031-1.542-0.327-2.015-0.959l-7.41-9.895    c-1.191-1.591-3.689-1.125-4.227,0.788l-3.347,11.9c-0.214,0.759-0.787,1.365-1.534,1.62l-11.701,3.99    c-1.881,0.641-2.21,3.161-0.557,4.263l10.283,6.861c0.657,0.438,1.056,1.171,1.067,1.96l0.178,12.36    c0.029,1.987,2.323,3.078,3.883,1.847l9.702-7.66c0.619-0.489,1.439-0.642,2.193-0.409l11.811,3.65    c1.898,0.587,3.646-1.258,2.957-3.122l-4.287-11.595c-0.273-0.74-0.165-1.567,0.289-2.212l7.121-10.105    C224.737,359.17,223.522,356.938,221.537,357.017z" fill="#fd8a02" data-original="#fd8a02" class=""></path>
		<path style="" d="M101.322,375.101l-10.534-2.537c-0.672-0.162-1.222-0.644-1.47-1.29l-3.882-10.116    c-0.624-1.626-2.841-1.831-3.753-0.346l-5.668,9.234c-0.362,0.59-0.99,0.963-1.681,0.999l-10.82,0.566    c-1.739,0.091-2.619,2.136-1.489,3.462l7.03,8.244c0.449,0.526,0.61,1.24,0.431,1.908l-2.806,10.465    c-0.451,1.682,1.223,3.151,2.832,2.486l10.013-4.139c0.639-0.264,1.367-0.197,1.947,0.18l9.086,5.902    c1.46,0.949,3.375-0.189,3.24-1.925l-0.842-10.803c-0.054-0.689,0.235-1.361,0.773-1.796l8.421-6.817    C103.506,377.681,103.015,375.509,101.322,375.101z" fill="#fd8a02" data-original="#fd8a02" class=""></path>
	</g>
</g>















</g></svg>