<svg xmlns="http://www.w3.org/2000/svg" version="1.1" xmlns:xlink="http://www.w3.org/1999/xlink" xmlns:svgjs="http://svgjs.com/svgjs" width="512" height="512" x="0" y="0" viewBox="0 0 512 512" style="enable-background:new 0 0 512 512" xml:space="preserve" class=""><g>
<g>
	<g>
		<g>
			<path style="" d="M206.099,182.99l50.559,191.527c1.029,3.897-1.288,7.876-5.186,8.905L61.466,433.579     c-3.876,1.023-7.855-1.293-8.883-5.19L2.024,236.861c-1.023-3.876,1.288-7.876,5.164-8.899l190.005-50.157     C201.091,176.777,205.076,179.114,206.099,182.99z" fill="#ffffff" data-original="#ffffff" class=""></path>
			<path style="" d="M198.103,198.227l1.461,5.524l5.171,19.722l2.764,10.538l2.373,9.055l14.958,56.897l1.274,4.815     l13.559,51.609l2.399,9.071c0.313,1.182,0.313,2.401,0.092,3.564c-0.161,0.871-0.456,1.753-0.936,2.547     c-0.199,0.375-0.46,0.697-0.736,1.046c-0.885,1.085-2.05,1.899-3.386,2.413c-0.273,0.095-0.52,0.207-0.777,0.275L70.87,418.788     l-0.473,0.125c-0.795,0.21-1.582,0.28-2.369,0.259c-3.421-0.153-6.532-2.527-7.454-6.009l-0.347-1.312l-2.218-8.474     l-3.054-11.634l-1.041-3.934l-3.857-14.665l-1.285-4.858l-4.028-15.401l-26.128-99.387l-0.006-0.021l-1.98-7.572     c-1.137-4.299,1.446-8.707,5.723-9.839l165.925-43.59C192.557,191.346,196.987,193.923,198.103,198.227z" fill="#00d5fe" data-original="#00d5fe"></path>
			<path style="" d="M224.829,299.963l1.274,4.815l9.351,35.612l0.546,2.063l3.662,13.934l2.399,9.071     c0.307,1.161,0.307,2.38,0.102,3.515c0.006,0.022-0.016,0.027-0.011,0.049c-0.161,0.871-0.456,1.753-0.936,2.547     c-0.199,0.375-0.46,0.697-0.736,1.046c-0.885,1.085-2.05,1.899-3.386,2.413c-0.273,0.095-0.52,0.207-0.777,0.275l-133.123,35.005     l-10.086,2.645c0,0,0,0-0.022,0.006l-20.839,5.466l-1.849,0.489c-0.795,0.21-1.582,0.28-2.369,0.259     c-3.421-0.153-6.532-2.527-7.454-6.009l-0.347-1.312l-2.218-8.474l-3.054-11.634C96.182,342.5,177.295,313.455,224.829,299.963z" fill="#6280ff" data-original="#6280ff"></path>
			<g>
				<path style="" d="M235.999,342.452l3.662,13.934l2.399,9.071c0.307,1.161,0.307,2.38,0.102,3.515      c0.006,0.022-0.016,0.027-0.011,0.049c-0.161,0.871-0.456,1.753-0.936,2.547c-0.199,0.375-0.46,0.697-0.736,1.046      c-0.885,1.085-2.05,1.899-3.386,2.413c-0.273,0.095-0.52,0.207-0.777,0.275l-133.123,35.005      C144.242,374.819,198.525,353.722,235.999,342.452z" fill="#ffcf00" data-original="#ffcf00"></path>
				<path id="XMLID_15_" style="" d="M192.149,247.645c10.392,7.835,19.581,23.653,7.992,33.305      c-7.954,6.614-18.675,5.928-26.123,0.494c-10.01,6.96-25.113,3.193-30.592-8.35c-4.633-9.772-1.751-20.274,5.34-26.993      c-8.347-4.472-9.883-14.053-5.58-20.079c4.095-5.731,13.17-6.834,20.09-1.019c6.228-6.688,15.937-9.723,25.179-5.016      C199.913,225.843,200.501,240.737,192.149,247.645z" fill="#ffcf00" data-original="#ffcf00"></path>
			</g>
			<g>
				<path style="" d="M60.738,320.088l5.612,7.859c0.75,1.05,2.459,1.146,3.682,0.206l18.31-14.061      c2.166-1.663,0.809-4.499-1.826-3.816l-23.922,6.202C60.806,316.942,59.838,318.826,60.738,320.088z" fill="#fc09b2" data-original="#fc09b2"></path>
				<path style="" d="M112.293,293.072l-7.256,5.483c-1.247,0.942-3.022,0.695-3.964-0.552l0,0      c-0.942-1.247-0.695-3.022,0.552-3.964l7.256-5.483c1.247-0.942,3.022-0.695,3.964,0.552l0,0      C113.787,290.356,113.54,292.13,112.293,293.072z" fill="#fc09b2" data-original="#fc09b2"></path>
				<path style="" d="M106.064,283.983l-9.003,1.291c-1.547,0.222-2.981-0.852-3.203-2.399l0,0      c-0.222-1.547,0.852-2.981,2.399-3.203l9.002-1.291c1.547-0.222,2.981,0.852,3.203,2.399l0,0      C108.685,282.328,107.611,283.762,106.064,283.983z" fill="#fc09b2" data-original="#fc09b2"></path>
			</g>
			<g>
				<path style="" d="M163.336,359.13c-8.038,2.127-16.965,0.146-23.398-6.013c-9.817-9.407-10.154-25.044-0.75-34.861      c4.555-4.755,10.692-7.454,17.274-7.594c6.584-0.142,12.829,2.289,17.585,6.845l0-0.001c9.818,9.403,10.156,25.042,0.752,34.861      C171.554,355.752,167.568,358.011,163.336,359.13z M151.722,315.528c-3.596,0.951-6.871,2.873-9.508,5.627      c-7.806,8.148-7.528,21.129,0.622,28.937c8.15,7.802,21.124,7.529,28.935-0.624c7.805-8.15,7.525-21.131-0.624-28.935l0-0.001      c-3.946-3.781-9.131-5.799-14.596-5.681C154.9,314.886,153.28,315.116,151.722,315.528z" fill="#322bbf" data-original="#322bbf"></path>
				<path style="" d="M95.632,393.761c-2.642,0.699-5.411,0.955-8.214,0.739c-6.567-0.504-12.543-3.536-16.83-8.535      c-4.287-5-6.37-11.369-5.865-17.935c0.504-6.567,3.536-12.544,8.535-16.83c5.003-4.286,11.37-6.369,17.937-5.865      c6.567,0.505,12.543,3.536,16.828,8.536c4.288,5,6.37,11.369,5.866,17.936c-0.504,6.567-3.537,12.543-8.538,16.83      C102.487,391.092,99.174,392.824,95.632,393.761z M84.054,350.127c-2.941,0.778-5.691,2.215-8.068,4.254      c-4.151,3.558-6.668,8.52-7.087,13.97c-0.419,5.45,1.31,10.737,4.869,14.888c3.559,4.15,8.518,6.667,13.97,7.085      c5.448,0.42,10.736-1.31,14.885-4.867c4.151-3.558,6.669-8.519,7.087-13.97c0.419-5.45-1.31-10.737-4.869-14.887l0,0      c-3.557-4.15-8.518-6.667-13.968-7.085C88.545,349.334,86.246,349.547,84.054,350.127z" fill="#322bbf" data-original="#322bbf"></path>
			</g>
			<g>
				<g>
					<path style="" d="M45.765,297.052c0.204,1.291,1.492,2.117,2.756,1.78c7.67-2.047,26.126-6.973,27.686-7.389       c1.367-0.365,2.947-0.835,3.301-2.446c0.348-1.583-0.159-3.9-1.047-5.237c-0.87-1.311-2.193-2.372-3.727-2.78       c-2.043-0.544-4.778-0.178-6.057,1.689c0.179-0.262-0.403-1.618-0.49-1.874c-0.448-1.316-1.086-2.592-1.993-3.654       c-3.271-3.826-9.936-2.682-12.677,1.206c-1.869,2.651-1.319,5.578-0.613,8.53c0.284,1.189,0.616,2.366,0.951,3.542       C53.856,290.419,44.543,289.325,45.765,297.052z" fill="#ffffff" data-original="#ffffff" class=""></path>
				</g>
				<g>
					<path style="" d="M80.029,256.374c-0.311,2.405,0.738,3.918,2.817,4.213c2.922,0.414,25.604-6.356,33.363-8.699       c1.291-0.39,2.603-0.795,3.711-1.562c1.109-0.767,2-1.968,2.058-3.315c0.157-3.664-3.21-6.514-6.548-5.946       c-0.686,0.117-2.919,0.954-2.827,1.942c-0.264-2.827-2.902-5.228-5.741-5.224c-2.839,0.004-5.471,2.413-5.725,5.241       c-0.696-3.91-4.119-7.175-8.057-7.685c-3.938-0.51-8.08,1.775-9.749,5.379c-1.668,3.603-0.731,8.24,2.206,10.913l1.262,0.514       C84.042,252.292,80.461,253.038,80.029,256.374z" fill="#ffffff" data-original="#ffffff" class=""></path>
				</g>
			</g>
		</g>
		<g>
			<path style="" d="M188.273,192.479L22.357,236.077c-4.286,1.127-6.853,5.538-5.725,9.833l1.989,7.57     c0.002,0.006,0,0.012,0.001,0.018l41.603,158.357l0.029,0.063l0.131,0.499l0.188,0.743c0.924,3.487,4.029,5.863,7.451,6.005     c0.8,0.033,1.582-0.046,2.369-0.258l0.481-0.129l165.442-43.474c0.268-0.07,0.512-0.189,0.768-0.284     c1.34-0.495,2.505-1.313,3.399-2.416c0.266-0.326,0.527-0.657,0.742-1.027c0.47-0.804,0.762-1.673,0.931-2.563     c0.225-1.163,0.217-2.367-0.099-3.554l-2.385-9.071l-41.562-158.168C196.981,193.925,192.56,191.349,188.273,192.479z      M238.773,366.326c0.132,0.492,0.163,0.989,0.135,1.48c-0.026,0.447-0.107,0.888-0.262,1.311     c-0.096,0.257-0.209,0.509-0.354,0.749c-0.623,1.087-1.634,1.846-2.848,2.152L71.552,415.083c-3.62,0.896-7.194-0.921-8.02-4.07     L36.53,308.305l-16.622-63.256c-0.654-2.489,0.83-5.044,3.309-5.695l165.916-43.598c0.462-0.121,0.923-0.169,1.377-0.15     c1.994,0.082,3.791,1.449,4.324,3.478C204.952,237.593,231.668,339.282,238.773,366.326z" fill="#000e3f" data-original="#000e3f"></path>
			<path style="" d="M59.6,435.601c-1.581,0-3.14-0.418-4.54-1.236c-2.089-1.218-3.578-3.18-4.197-5.523L0.303,237.315     c-0.617-2.334-0.287-4.772,0.925-6.866c1.216-2.097,3.172-3.591,5.506-4.207l190.004-50.157c2.343-0.62,4.788-0.287,6.883,0.936     c2.091,1.22,3.58,3.179,4.197,5.515l50.558,191.527c0.619,2.344,0.289,4.786-0.927,6.878c-1.218,2.09-3.179,3.583-5.524,4.2     L61.919,435.298C61.153,435.501,60.373,435.601,59.6,435.601z M199.06,179.341c-0.471,0-0.944,0.061-1.414,0.185L7.642,229.682     c-1.413,0.374-2.597,1.279-3.335,2.551c-0.738,1.273-0.938,2.755-0.564,4.174l50.56,191.527c0.376,1.425,1.283,2.617,2.551,3.358     c1.266,0.739,2.745,0.939,4.158,0.567l190.006-50.157c1.426-0.377,2.619-1.282,3.357-2.551c0.738-1.269,0.938-2.754,0.562-4.18     l-50.557-191.527c-0.374-1.419-1.281-2.608-2.551-3.35C200.973,179.596,200.024,179.341,199.06,179.341z" fill="#000e3f" data-original="#000e3f"></path>
			<path style="" d="M179.306,276.502c0.202-0.144,0.374-0.308,0.51-0.491l10.667-14.015     c0.525-0.695,0.432-1.695-0.211-2.278c-0.693-0.629-1.765-0.571-2.393,0.117l-10.107,11.156l-4.482-16.086     c0.056-0.048,0.115-0.105,0.169-0.18l9.58-13.641c0.4-0.575,0.289-1.37-0.254-1.809c-0.571-0.461-1.418-0.378-1.885,0.199     l-8.857,10.952l-2.864-10.273c-0.202-0.725-0.964-1.169-1.691-0.984c-0.749,0.188-1.207,0.951-1.021,1.701l5.178,20.666     l-12.242-7.082c-0.677-0.39-1.529-0.182-1.95,0.467c-0.213,0.327-0.287,0.715-0.206,1.096c0.08,0.381,0.306,0.708,0.632,0.92     l14.1,9.187l0.152-0.232l0,0l-0.067,0.286c0.232,0.135,0.497,0.208,0.801,0.224l13.047,52.054     c0.299,1.08,1.285,1.789,2.356,1.789c0.215,0,0.436-0.028,0.654-0.089c0.63-0.176,1.155-0.585,1.474-1.154     c0.321-0.569,0.402-1.229,0.226-1.859L179.306,276.502z M172.206,265.937L172.206,265.937v0.001V265.937z" fill="#000e3f" data-original="#000e3f"></path>
			<path style="" d="M176.513,314.938c-5.291-5.047-12.206-7.848-19.498-7.848c-0.223,0-0.423,0-0.623,0.022     c-4.203,0.089-8.227,1.09-11.895,2.891l-8.427-14.607l-0.066-0.133v-0.022c0-0.022-0.023-0.022-0.023-0.044     c-0.022-0.022-0.022-0.045-0.022-0.067c-0.023,0-0.023-0.022-0.023-0.022l-0.133-0.223l-0.067-0.111l-0.111-0.2l-0.044-0.089     l-8.293-15.497c-0.178-0.333-0.422-0.6-0.733-0.822l-0.023-0.022c-0.133-0.089-0.289-0.178-0.422-0.245     c-0.266-0.156-0.6-0.222-0.934-0.2h-0.022l-0.556,0.067l-12.873,1.401c-0.845-2.557-3.291-4.38-6.048-4.38     c-0.311,0-0.623,0.022-0.911,0.067l-9.005,1.289c-1.69,0.245-3.18,1.134-4.202,2.513c-1.023,1.356-1.467,3.046-1.222,4.736     c0.445,3.113,3.157,5.469,6.314,5.469c0.312,0,0.601-0.022,0.912-0.066l6.314-0.912l-4.402,3.313     c-2.801,2.134-3.357,6.136-1.245,8.96c1.201,1.579,3.113,2.535,5.114,2.535c1.401,0,2.712-0.445,3.846-1.29l7.248-5.492     c1.357-1.023,2.246-2.513,2.468-4.202c0.156-1.134,0.022-2.268-0.423-3.291l8.294-6.581l7.314,13.63l-40.999,31.06l-7.026-4.647     l6.448-4.958c2.112-1.623,2.957-4.203,2.179-6.537c-0.778-2.29-2.89-3.757-5.403-3.757c-0.556,0-1.112,0.066-1.668,0.2     l-23.923,6.203c-2.112,0.556-3.802,2.068-4.514,4.024c-0.645,1.757-0.4,3.624,0.667,5.113l5.603,7.849     c1.067,1.49,2.779,2.335,4.713,2.335c1.445,0,2.868-0.489,4.024-1.378l8.871-6.803l8.116,5.358     c-0.111,1.868-0.401,6.626-0.689,12.206c-6.426,0.178-12.628,2.557-17.543,6.759c-5.736,4.914-9.204,11.762-9.783,19.277     c-0.578,7.515,1.823,14.785,6.715,20.522c4.914,5.714,11.762,9.182,19.276,9.76c0.712,0.044,1.468,0.089,2.201,0.089     c2.424,0,4.847-0.311,7.182-0.934c4.113-1.089,7.848-3.068,11.139-5.869c5.714-4.891,9.183-11.739,9.761-19.254     c0.489-6.337-1.134-12.54-4.625-17.742l7.715-5.248c0.111-0.067,0.245-0.156,0.356-0.245l1.134-0.755l12.94-47.536l6.47,11.228     c-1.734,1.134-3.335,2.468-4.803,4.002c-10.761,11.25-10.383,29.148,0.845,39.909c5.269,5.047,12.206,7.826,19.521,7.826     c2.445,0,4.891-0.333,7.248-0.956c5.003-1.312,9.538-4.002,13.118-7.737C188.119,343.598,187.741,325.7,176.513,314.938z      M97.072,285.279c-0.155,0.022-0.289,0.022-0.422,0.022c-1.378,0-2.579-1.023-2.801-2.424c-0.222-1.556,0.868-2.979,2.401-3.201     l9.005-1.29c0.133-0.022,0.289-0.044,0.422-0.044c0.934,0,1.779,0.467,2.29,1.223c0.267,0.355,0.422,0.756,0.489,1.223     c0.134,0.911-0.178,1.779-0.8,2.379h-0.023l-0.022,0.022c-0.401,0.4-0.912,0.711-1.557,0.8L97.072,285.279z M112.302,293.083     l-7.27,5.469c-0.511,0.378-1.112,0.578-1.69,0.578c-0.867,0-1.712-0.4-2.268-1.134c-0.934-1.245-0.689-3.024,0.556-3.958     l7.248-5.491c0.511-0.378,1.112-0.556,1.712-0.556c0.2,0,0.4,0.022,0.6,0.067c0.022,0,0.022,0,0.022,0     c0.623,0.155,1.201,0.489,1.623,1.045c0.4,0.511,0.578,1.134,0.578,1.734C113.414,291.705,113.036,292.527,112.302,293.083z      M114.281,285.613c-0.912-0.645-2.023-1.067-3.157-1.156c0.356-0.534,0.6-1.112,0.711-1.734l7.048-0.756L114.281,285.613z      M70.036,328.146c-0.578,0.445-1.245,0.644-1.868,0.644c-0.733,0-1.423-0.289-1.823-0.845l-5.603-7.848     c-0.912-1.268,0.067-3.157,1.846-3.624l23.923-6.203c0.289-0.067,0.534-0.089,0.778-0.089c2.112,0,3.002,2.424,1.045,3.913     l-7.426,5.692l-2.979,2.313L70.036,328.146z M113.88,371.812c-0.489,6.559-3.535,12.54-8.537,16.831     c-2.846,2.445-6.159,4.18-9.716,5.114c-2.023,0.534-4.135,0.822-6.27,0.822c-0.644,0-1.289-0.022-1.934-0.089     c-6.581-0.489-12.54-3.535-16.831-8.515c-4.291-5.003-6.381-11.384-5.869-17.943c0.511-6.559,3.535-12.54,8.537-16.831     c4.269-3.646,9.516-5.714,15.052-5.914c0.312-0.022,0.645-0.022,0.956-0.022c0.644,0,1.289,0.022,1.934,0.067     c0.223,0.022,0.444,0.044,0.667,0.067c6.137,0.645,11.717,3.49,15.83,8.093c0.111,0.111,0.223,0.245,0.334,0.378     c0.667,0.778,1.29,1.6,1.845,2.445C112.902,360.873,114.303,366.254,113.88,371.812z M110.657,351.491     c-4.78-5.536-11.362-8.938-18.609-9.65c0.222-4.091,0.422-7.715,0.556-10.072l23.878,15.764L110.657,351.491z M119.173,345.021     h-0.022l-24.902-16.43l37.019-28.037L119.173,345.021z M174.801,352.358c-3.247,3.402-7.226,5.648-11.473,6.781     c-2.068,0.534-4.202,0.822-6.336,0.822c-6.136,0-12.273-2.268-17.054-6.848c-9.827-9.405-10.16-25.035-0.755-34.862     c1.223-1.29,2.557-2.424,4.002-3.38c0.978-0.689,2.001-1.268,3.068-1.779c3.157-1.512,6.603-2.357,10.205-2.424     c0.177-0.022,0.378-0.022,0.556-0.022c6.381,0,12.406,2.424,17.031,6.848c5.047,4.824,7.604,11.317,7.604,17.809     C181.648,341.441,179.381,347.6,174.801,352.358z" fill="#000e3f" data-original="#000e3f"></path>
			<path style="" d="M177.047,331.28c-0.223-1.134-0.556-2.246-0.956-3.335c-0.867-2.201-2.09-4.291-3.757-6.136     c-0.356-0.444-0.756-0.867-1.178-1.267c-0.422-0.4-0.867-0.8-1.312-1.156c-1.579-1.289-3.357-2.312-5.225-3.068     c-0.356-0.156-0.712-0.289-1.089-0.4c-1.089-0.378-2.201-0.645-3.357-0.823c-1.023-0.156-2.09-0.244-3.157-0.244h-0.467     c-1.222,0.022-2.423,0.155-3.602,0.4c-0.422,0.067-0.822,0.156-1.223,0.267c-0.711,0.2-1.423,0.422-2.09,0.689     c-0.511,0.178-0.978,0.4-1.445,0.623c-0.956,0.445-1.868,0.978-2.735,1.579h-0.023c-0.689,0.489-1.334,1.001-1.956,1.557     c-0.444,0.378-0.867,0.778-1.268,1.2c-0.4,0.423-0.778,0.845-1.134,1.29c-1.556,1.934-2.735,4.091-3.446,6.359     c-0.401,1.089-0.667,2.2-0.823,3.335v0.022c-0.4,2.401-0.333,4.825,0.134,7.204c0.222,1.112,0.556,2.2,0.978,3.291v0.022     c0.845,2.202,2.09,4.292,3.735,6.159c0.356,0.423,0.756,0.845,1.179,1.245c0.422,0.401,0.867,0.778,1.312,1.156     c1.912,1.556,4.068,2.712,6.314,3.446c1.112,0.378,2.223,0.645,3.379,0.801c1.045,0.177,2.09,0.266,3.158,0.266     c1.356,0,2.69-0.133,4.024-0.4c1.133-0.223,2.245-0.556,3.335-0.978c2.223-0.823,4.313-2.068,6.18-3.713     c0.422-0.378,0.845-0.778,1.245-1.201c0.4-0.422,0.778-0.867,1.134-1.312c1.579-1.935,2.735-4.069,3.446-6.337     c0.4-1.089,0.667-2.201,0.822-3.335v-0.022C177.58,336.06,177.513,333.66,177.047,331.28z M172.666,329.035l-11.05,3.491     l8.205-8.226C171.065,325.744,172.022,327.345,172.666,329.035z M167.441,322.009l-7.848,8.56l3.002-11.205     C164.329,319.964,165.974,320.853,167.441,322.009z M156.636,318.407h0.378c0.8,0,1.601,0.067,2.379,0.178l-2.512,11.316     l-3.002-11.205C154.791,318.518,155.702,318.429,156.636,318.407z M150.7,319.63l3.469,11.028l0,0l-8.182-8.182     C147.387,321.275,148.988,320.297,150.7,319.63z M143.696,324.855l8.56,7.849l-11.184-2.98     C141.628,327.99,142.518,326.345,143.696,324.855z M140.272,332.926l11.316,2.513l-11.183,3.001     C140.05,336.616,140.005,334.749,140.272,332.926z M141.317,341.597l11.028-3.469l-8.182,8.182     C142.918,344.865,141.962,343.286,141.317,341.597z M146.564,348.601l7.826-8.56l-3.001,11.206     C149.655,350.646,148.032,349.757,146.564,348.601z M156.992,352.203c-0.801,0-1.601-0.067-2.379-0.178l2.49-11.273l3.002,11.161     C159.104,352.114,158.059,352.203,156.992,352.203z M163.284,351.002l-3.468-11.051l8.182,8.182     C166.575,349.356,164.996,350.335,163.284,351.002z M170.288,345.754l-8.538-7.826l11.161,2.98     C172.333,342.642,171.444,344.265,170.288,345.754z M162.417,335.193l11.161-3.001c0.356,1.823,0.4,3.691,0.134,5.514     L162.417,335.193z" fill="#000e3f" data-original="#000e3f"></path>
			<path style="" d="M104.832,356.605c-0.378-0.445-0.778-0.868-1.178-1.268c-1.734-1.734-3.758-3.091-5.959-4.069     c-1.045-0.489-2.134-0.867-3.246-1.156c-1.156-0.311-2.357-0.511-3.579-0.6c-0.534-0.044-1.068-0.067-1.601-0.067     c-0.689,0-1.356,0.044-2.023,0.111c-1.089,0.111-2.157,0.311-3.202,0.578c-0.067,0.022-0.133,0.044-0.2,0.067     c-2.312,0.623-4.513,1.668-6.492,3.113c-0.467,0.333-0.911,0.689-1.356,1.067c-0.444,0.378-0.867,0.778-1.267,1.2     c-1.734,1.734-3.113,3.735-4.091,5.937c-0.467,1.045-0.845,2.134-1.134,3.268c-0.311,1.156-0.511,2.356-0.6,3.557     c-0.089,1.223-0.089,2.423,0.044,3.624c0.111,1.156,0.311,2.312,0.623,3.424c0.645,2.312,1.712,4.514,3.135,6.492     c0.334,0.467,0.689,0.912,1.067,1.357c0.378,0.444,0.778,0.867,1.201,1.267c1.734,1.734,3.736,3.113,5.936,4.091     c1.045,0.467,2.135,0.845,3.269,1.134c1.156,0.311,2.357,0.511,3.557,0.6c0.534,0.022,1.067,0.044,1.601,0.044     c0.689,0,1.356-0.022,2.024-0.111c1.156-0.111,2.29-0.311,3.402-0.623c2.335-0.623,4.513-1.69,6.514-3.112     c0.467-0.334,0.911-0.689,1.356-1.067c0.445-0.378,0.867-0.778,1.268-1.201c1.712-1.734,3.091-3.736,4.069-5.936     c0.489-1.045,0.867-2.135,1.156-3.269c0.289-1.156,0.489-2.357,0.578-3.579c0.089-1.223,0.089-2.424-0.045-3.624     c-0.089-1.156-0.311-2.29-0.623-3.402c-0.623-2.312-1.69-4.513-3.135-6.492C105.565,357.494,105.21,357.049,104.832,356.605z      M101.007,357.717l-8.649,7.759l4.091-10.872C98.117,355.36,99.651,356.427,101.007,357.717z M89.268,353.003     c0.445,0,0.889,0.022,1.334,0.067c0.934,0.067,1.823,0.2,2.712,0.444l-3.601,11.006l-1.89-11.45     C88.29,353.025,88.779,353.003,89.268,353.003z M84.577,353.67l2.401,11.361l-7.36-8.96     C81.131,354.982,82.798,354.203,84.577,353.67z M77.084,358.228c0,0,0,0,0.022,0l7.737,8.626l-10.85-4.069     C74.75,361.118,75.795,359.584,77.084,358.228z M72.438,368.633c0.067-0.934,0.222-1.846,0.444-2.735l11.006,3.602l-11.428,1.89     C72.371,370.478,72.371,369.544,72.438,368.633z M73.082,374.658l11.339-2.401l-8.96,7.359     C74.371,378.104,73.571,376.415,73.082,374.658z M77.596,382.129l8.649-7.737l-4.069,10.827     C80.486,384.463,78.952,383.418,77.596,382.129z M89.335,386.82c-0.444,0-0.867,0-1.311-0.044     c-0.934-0.067-1.846-0.222-2.735-0.445l3.602-11.028l1.89,11.45C90.313,386.798,89.824,386.82,89.335,386.82z M94.026,386.153     l-2.379-11.339l7.36,8.938C97.473,384.864,95.805,385.664,94.026,386.153z M101.519,381.618l-7.715-8.627l10.806,4.069     C103.853,378.727,102.808,380.261,101.519,381.618z M106.166,371.212c-0.067,0.934-0.222,1.846-0.445,2.735l-11.005-3.624     l11.428-1.89C106.232,369.345,106.232,370.278,106.166,371.212z M94.182,367.588l8.96-7.359c1.09,1.512,1.89,3.201,2.379,4.958     L94.182,367.588z" fill="#000e3f" data-original="#000e3f"></path>
		</g>
		<g>
			<path style="" d="M94.031,367.501c1.312,2.566,0.295,5.71-2.271,7.022c-2.566,1.312-5.71,0.296-7.022-2.271     c-1.312-2.566-0.295-5.71,2.271-7.022C89.575,363.918,92.719,364.935,94.031,367.501z" fill="#fc09b2" data-original="#fc09b2"></path>
			
				<ellipse transform="matrix(0.2124 -0.9772 0.9772 0.2124 -204.017 417.4838)" style="" cx="156.993" cy="335.311" rx="5.219" ry="5.219" fill="#fc09b2" data-original="#fc09b2"></ellipse>
		</g>
	</g>
	<g>
		<g>
			<g>
				<path style="" d="M419.13,246.158l22.252,196.834c0.453,4.005-2.417,7.605-6.423,8.058l-195.27,22.075      c-3.984,0.45-7.584-2.418-8.037-6.424l-22.252-196.834c-0.45-3.984,2.416-7.605,6.4-8.056l195.27-22.075      C415.077,239.283,418.68,242.174,419.13,246.158z" fill="#ffffff" data-original="#ffffff" class=""></path>
				<path style="" d="M407.402,260.961l19.232,171.85c0.392,3.497-2.117,6.637-5.614,7.029l-170.485,19.08      c-3.479,0.389-6.619-2.119-7.01-5.616l-19.232-171.85c-0.389-3.479,2.116-6.638,5.595-7.027l170.485-19.08      C403.87,254.956,407.012,257.482,407.402,260.961z" fill="#00d5fe" data-original="#00d5fe"></path>
				<g>
					<path style="" d="M419.124,365.605l7.442,66.503c0.392,3.497-2.117,6.637-5.614,7.029L252.675,457.97       c-4.713,0.527-8.892-2.47-9.367-6.716l-18.209-162.705c11.349-2.823,23.41-3.339,34.767-1.183       c14.807,2.812,27.688,12.867,36.558,24.727c9.594,12.827,14.634,28.57,26.03,40.131       C344.197,374.281,374.82,358.845,419.124,365.605z" fill="#322bbf" data-original="#322bbf"></path>
				</g>
				<g>
					<path style="" d="M411.567,298.073l15,134.035c0.392,3.497-2.117,6.637-5.614,7.029l-170.485,19.08       c-0.842,0.094-1.646,0.014-2.409-0.204c-2.423-0.676-4.304-2.756-4.601-5.412l-2.001-17.878       c0.746-3.322,2.023-6.456,3.871-9.239c9.135-13.804,22.206-24.243,37.264-30.983c7.628-3.41,15.644-5.898,23.793-7.7       c8.83-1.973,17.936-2.329,26.521-5.486c7.841-2.866,15.195-7.874,19.246-15.163c0.253-0.445,0.486-0.906,0.699-1.366       c5.22-10.715,3.355-23.326,7.24-34.459c4.072-11.666,15.168-21.997,26.119-27.18       C394.053,299.446,402.859,297.76,411.567,298.073z" fill="#6280ff" data-original="#6280ff"></path>
				</g>
				<g>
					<path style="" d="M324.671,300.513c-0.719,2.562,0.179,4.372,2.391,5.022c3.107,0.913,28.812-2.84,37.609-4.153       c1.463-0.219,2.953-0.45,4.278-1.107c1.325-0.657,2.484-1.819,2.761-3.273c0.752-3.954-2.453-7.582-6.167-7.495       c-0.763,0.018-3.321,0.572-3.378,1.66c0.162-3.111-2.321-6.137-5.405-6.583c-3.084-0.446-6.323,1.752-7.048,4.783       c-0.135-4.356-3.334-8.445-7.53-9.623c-4.196-1.179-9.056,0.645-11.439,4.294c-2.383,3.648-2.102,8.832,0.663,12.2l1.289,0.759       C329.677,296.716,325.67,296.959,324.671,300.513z" fill="#ffffff" data-original="#ffffff" class=""></path>
				</g>
				<g>
					<g>
						<path style="" d="M283.412,432.75l4.482,6.986c0.562,0.876,0.308,2.043-0.569,2.605        c-0.876,0.562-2.043,0.308-2.605-0.569c-0.041-0.064-0.082-0.139-0.114-0.205l-3.579-7.489        c-0.326-0.681-0.037-1.498,0.644-1.823C282.301,431.954,283.046,432.177,283.412,432.75z" fill="#322bbf" data-original="#322bbf"></path>
						<path style="" d="M298.896,430.5l-0.612,8.609c-0.074,1.039-0.976,1.82-2.014,1.747s-1.82-0.975-1.747-2.014        c0.005-0.072,0.017-0.155,0.029-0.224l1.637-8.474c0.143-0.741,0.86-1.226,1.602-1.083        C298.479,429.193,298.945,429.819,298.896,430.5z" fill="#322bbf" data-original="#322bbf"></path>
						<path style="" d="M289.794,425.736l2.772,8.318c0.329,0.987-0.205,2.055-1.192,2.384        c-0.988,0.329-2.055-0.204-2.385-1.193c-0.022-0.068-0.043-0.146-0.058-0.215l-1.773-8.587        c-0.153-0.74,0.323-1.463,1.062-1.615C288.906,424.687,289.578,425.087,289.794,425.736z" fill="#322bbf" data-original="#322bbf"></path>
					</g>
					<g>
						<path style="" d="M406.665,405.267l-1.835,8.095c-0.23,1.016-1.24,1.652-2.256,1.422        c-1.015-0.23-1.653-1.24-1.422-2.256c0.017-0.074,0.042-0.156,0.066-0.225l2.827-7.804c0.257-0.71,1.041-1.077,1.751-0.82        C406.453,403.917,406.816,404.604,406.665,405.267z" fill="#322bbf" data-original="#322bbf"></path>
						<path style="" d="M391.008,404.782l3.47,7.903c0.419,0.953-0.015,2.065-0.969,2.484        c-0.953,0.419-2.065-0.015-2.484-0.968c-0.029-0.067-0.057-0.144-0.078-0.212l-2.5-8.261c-0.219-0.723,0.19-1.485,0.913-1.704        C390.03,403.82,390.734,404.157,391.008,404.782z" fill="#322bbf" data-original="#322bbf"></path>
						<path style="" d="M398.999,399.178l0.169,8.766c0.02,1.041-0.808,1.901-1.848,1.921        c-1.041,0.02-1.901-0.808-1.921-1.849c-0.001-0.071,0.003-0.153,0.009-0.222l0.864-8.725c0.074-0.751,0.744-1.3,1.495-1.226        C398.464,397.913,398.986,398.495,398.999,399.178z" fill="#322bbf" data-original="#322bbf"></path>
					</g>
				</g>
				<g style="opacity:0.25;">
					<path style="" d="M413.08,311.595l13.487,120.514c0.392,3.497-2.117,6.637-5.614,7.029l-170.485,19.08       c-0.842,0.094-1.646,0.014-2.409-0.204c7.146-8.734,16.33-15.841,26.366-21.091c14.059-7.368,29.735-11.281,45.495-13.272       c14.678-1.832,30.252-2.268,42.777-10.146c14.878-9.353,22.038-27.102,26.42-44.123c4.384-17.003,7.125-34.977,16.746-49.687       C407.836,316.688,410.236,313.768,413.08,311.595z" fill="#000e3f" data-original="#000e3f"></path>
				</g>
				<g>
					<path style="" d="M255.786,375.571l4.482,6.986c0.562,0.876,0.307,2.043-0.569,2.605       c-0.877,0.562-2.043,0.307-2.605-0.569c-0.041-0.063-0.082-0.139-0.115-0.205l-3.578-7.489       c-0.326-0.682-0.038-1.498,0.644-1.823C254.675,374.775,255.419,374.998,255.786,375.571z" fill="#6280ff" data-original="#6280ff"></path>
					<path style="" d="M271.27,373.321l-0.612,8.609c-0.074,1.039-0.975,1.821-2.014,1.747       c-1.039-0.074-1.82-0.975-1.747-2.014c0.005-0.073,0.016-0.155,0.029-0.224l1.637-8.474c0.143-0.742,0.86-1.226,1.601-1.083       C270.852,372.014,271.318,372.64,271.27,373.321z" fill="#6280ff" data-original="#6280ff"></path>
					<path style="" d="M262.167,368.557l2.772,8.318c0.329,0.988-0.205,2.056-1.192,2.385       c-0.988,0.329-2.056-0.205-2.385-1.192c-0.023-0.068-0.043-0.147-0.058-0.215l-1.774-8.587       c-0.152-0.739,0.323-1.463,1.063-1.615C261.279,367.508,261.952,367.908,262.167,368.557z" fill="#6280ff" data-original="#6280ff"></path>
				</g>
			</g>
			<g>
				<path style="" d="M428.25,431.913l-1.044-9.321L409.018,260.07c-0.495-4.415-4.497-7.606-8.901-7.109      L229.632,272.04c-4.404,0.494-7.583,4.486-7.09,8.9l0.87,7.778c0.001,0.006-0.002,0.012-0.001,0.018l18.201,162.716l0.019,0.066      l0.057,0.512l0.078,0.763c0.408,3.585,3.137,6.386,6.501,7.022c0.787,0.149,1.572,0.184,2.382,0.088l0.494-0.058l169.997-19.026      c0.275-0.031,0.534-0.112,0.802-0.17c1.398-0.295,2.669-0.936,3.714-1.898c0.31-0.284,0.616-0.574,0.884-0.909      c0.582-0.728,0.997-1.545,1.293-2.4C428.224,434.326,428.392,433.133,428.25,431.913z M226.955,289.858      c10.906-2.509,22.118-2.81,32.539-0.84c0.022,0.004,0.044,0.008,0.044,0.008c12.973,2.475,25.933,11.239,35.522,24.072      c3.919,5.244,7.151,11.127,10.263,16.807c4.477,8.155,9.105,16.588,15.92,23.51c8.432,8.541,18.023,11.667,29.065,12.623      c-3.187,5.484-8.539,10.219-17.996,13.681c-2.702,1.005-6.915,1.747-12.255,2.706c-20.469,3.665-54.732,9.79-76.142,42.127      c-0.568,0.861-1.097,1.753-1.591,2.695l-9.142-81.688L226.955,289.858z M423.886,435.726c-0.775,0.985-1.885,1.59-3.13,1.716      l-168.405,18.845c-3.711,0.362-6.984-1.954-7.346-5.19l-1.833-16.276c0.722-3.099,1.935-5.925,3.557-8.401      c20.616-31.129,53.986-37.084,73.916-40.647c5.505-0.996,9.862-1.778,12.851-2.865c11.112-4.076,17.097-10.004,20.481-16.651      c0.547-1.096,1.054-2.222,1.469-3.343c2.152-5.635,2.847-11.59,3.486-17.239c0.612-5.27,1.17-10.255,2.753-14.798      c3.636-10.377,13.544-20.655,25.251-26.203c7.034-3.331,15-5.016,23.107-4.931l7.153,63.895l0.297,2.625l0.878,7.85l6.503,58.18      c0.06,0.506,0.018,1.003-0.08,1.485c-0.092,0.438-0.234,0.863-0.449,1.259C424.213,435.277,424.065,435.51,423.886,435.726z       M230.009,275.407l170.485-19.079c0.474-0.052,0.938-0.033,1.384,0.051c1.961,0.371,3.542,1.984,3.774,4.068l4.019,35.917      c-8.473-0.019-16.792,1.776-24.193,5.25c-12.479,5.922-23.072,16.953-26.979,28.161c-1.719,4.902-2.329,10.285-2.933,15.511      c-0.703,6.112-1.377,12.072-3.614,17.441c-10.944-0.757-20.297-3.589-28.293-11.685c-6.493-6.59-11.001-14.819-15.358-22.771      c-3.183-5.783-6.464-11.766-10.529-17.196c-10.093-13.516-23.8-22.76-37.585-25.367l-0.066-0.012      c-10.759-2.034-22.315-1.736-33.55,0.783l-0.662-5.918C225.622,278.005,227.462,275.692,230.009,275.407z" fill="#000e3f" data-original="#000e3f"></path>
				<path style="" d="M239.202,474.945c-4.676,0.173-8.78-3.307-9.318-8.043l-22.252-196.834      c-0.271-2.399,0.407-4.763,1.912-6.659c1.507-1.898,3.658-3.093,6.057-3.364l195.27-22.075c4.948-0.569,9.463,3.02,10.026,7.989      l22.251,196.834c0.274,2.409-0.408,4.779-1.916,6.67c-1.508,1.892-3.665,3.084-6.075,3.356l-195.27,22.075      C239.66,474.919,239.43,474.936,239.202,474.945z M411.692,241.473c-0.139,0.005-0.28,0.016-0.42,0.032l-195.27,22.075      c-1.454,0.163-2.757,0.888-3.67,2.041c-0.916,1.153-1.328,2.59-1.163,4.047l22.251,196.834c0.342,3.017,3.072,5.184,6.07,4.856      l195.27-22.075c1.467-0.166,2.779-0.889,3.695-2.039c0.914-1.148,1.328-2.587,1.161-4.053l-22.252-196.834      C417.037,243.481,414.538,241.368,411.692,241.473z" fill="#000e3f" data-original="#000e3f"></path>
			</g>
		</g>
		<g>
			<g>
				<path id="XMLID_12_" style="" d="M256.411,331.72c4.115-0.453,8.63-2.557,10.508-6.538      c2.344-4.968-1.103-8.428-2.462-11.527c-1.528-3.485,0.469-5.168,0.052-8.783c-0.596-5.163-4.863-8.939-10.382-9.253      c-9.652-0.549-15.526,8.495-15.96,17.635C237.624,324.693,246.839,332.773,256.411,331.72z" fill="#ffcf00" data-original="#ffcf00"></path>
				<path style="" d="M260.089,309.984c-0.402-0.335-0.999-0.28-1.334,0.122l-5.563,6.685l-1.658-9.996      c-0.088-0.526-0.576-0.897-1.111-0.832c-0.55,0.066-0.942,0.567-0.876,1.117l5.085,42.024c0.003,0.025,0.008,0.058,0.012,0.084      c0.175,1.054,1.171,1.767,2.225,1.592c1.054-0.175,1.767-1.171,1.592-2.225l-4.644-27.999l6.445-9.305      C260.536,310.852,260.468,310.299,260.089,309.984z" fill="#000e3f" data-original="#000e3f"></path>
			</g>
			<g>
				<g id="XMLID_10_">
					<path style="" d="M285.691,328.571c-0.03,0.009-0.606-3.039-0.632-3.213c-0.358-2.395-0.51-4.84-0.305-7.257       c0.519-6.117,3.773-10.78,10.174-11.422c7.145-0.717,10.604,7.68,10.748,13.589c-0.005-0.212,12.294,1.499,10.703,12.937       c-0.546,3.93-4.852,6.87-7.901,9.135c0.19-0.141,5.325,5.051,4.295,10.54c-2.1,11.198-22.743,15.893-27.16,5.108       c-1.47-3.589-0.397-6.913-0.752-7.188c0,0-5.794-4.271-6.802-10.168C277.33,336.362,279.725,330.416,285.691,328.571z" fill="#ffcf00" data-original="#ffcf00"></path>
				</g>
				<path style="" d="M306.514,327.557c0.3-0.373,0.267-0.922-0.089-1.252c-0.373-0.347-0.956-0.325-1.302,0.047      l-8.107,8.715l-1.802-11.214c-0.084-0.517-0.563-0.88-1.087-0.814c-0.535,0.067-0.914,0.556-0.847,1.091l2.822,22.369      l-10.876-7.035c-0.404-0.26-0.949-0.167-1.24,0.225c-0.303,0.409-0.217,0.985,0.192,1.288l12.386,9.179l3.424,27.141      c0.003,0.018,0.006,0.044,0.009,0.063c0.165,1.026,1.13,1.725,2.157,1.56c1.027-0.165,1.725-1.131,1.56-2.157l-6.136-38.199      c0.051-0.047,0.114-0.076,0.159-0.133L306.514,327.557z" fill="#000e3f" data-original="#000e3f"></path>
			</g>
			<g>
				<g id="XMLID_14_">
					<path style="" d="M323.098,380.54c0,0-0.704-10.436,12.332-10.215c7.903,0.134,8.42,9.633,8.42,9.633       s10.153-4.949,12.259,3.029c1.536,5.818-3.44,9.208-3.464,9.224c5.919,1.976,8.049,5.919,6.067,10.807       c-1.546,3.814-3.334,4.88-8.211,4.579c0,0,2.598,14.286-12.212,8.212c0,0-12.699,11.445-13.383-3.008       c0.032,0.307-4.536-0.296-4.911-0.352c-2.445-0.368-4.466-1.71-5.161-4.166c-0.898-3.175,0.842-7.106,3.503-8.9       c0,0-6.162-4.551-5.642-9.891C313.008,386.288,316.381,381.925,323.098,380.54z" fill="#ffcf00" data-original="#ffcf00"></path>
				</g>
				<path style="" d="M349.359,396.803c-1.718-1.415-2.453,1.75-10.903,11.298l-2.144-13.261      c0.423-0.293,0.114-0.058,5.418-7.889c0.721-1.08-0.835-2.225-1.65-1.212l-4.361,5.431l-1.027-6.357      c-0.205-1.253-2.092-0.983-1.934,0.277l2.423,19.354c-11.738-7.581-13.098-10.193-14.417-8.546      c-0.424,0.53-0.338,1.303,0.191,1.726c15.556,12.333,14.011,11.41,14.835,11.688l3.268,26.104      c0.003,0.02,0.006,0.047,0.01,0.066c0.166,1.026,1.132,1.724,2.158,1.558c1.026-0.166,1.724-1.132,1.558-2.158l-3.562-22.041      c0.826-0.439,0.089,0.097,10.361-14.384C349.946,397.936,349.857,397.213,349.359,396.803z" fill="#000e3f" data-original="#000e3f"></path>
			</g>
			<g>
				<g id="XMLID_2_">
					<path style="" d="M397.861,336.287c-4.084-6.255-13.598-10.881-19.132-5.141       c-4.169,4.323,1.197,10.153,2.282,14.629c1.197,4.939-3.381,9.667-1.657,14.505c2.57,7.215,14.84,5.941,19.057,0.962       C403.039,355.776,402.897,344,397.861,336.287z" fill="#ffcf00" data-original="#ffcf00"></path>
				</g>
				<path style="" d="M395.569,344.689c0.249-0.391,0.169-0.915-0.201-1.212c-0.397-0.319-0.977-0.256-1.296,0.141      l-3.975,4.943l-1.314-7.892c-0.086-0.511-0.56-0.872-1.081-0.81c-0.536,0.065-0.917,0.551-0.853,1.087l4.794,39.819      c0.003,0.026,0.008,0.058,0.012,0.084c0.171,1.025,1.14,1.718,2.166,1.547c1.025-0.171,1.718-1.14,1.547-2.166l-4.657-27.971      c0.052-0.058,0.117-0.098,0.159-0.166L395.569,344.689z" fill="#000e3f" data-original="#000e3f"></path>
			</g>
		</g>
	</g>
	<g>
		<g>
			<path style="" d="M509.956,103.43l-52.537,190.994c-1.069,3.887-5.071,6.162-8.959,5.092l-189.476-52.12     c-3.866-1.063-6.141-5.065-5.072-8.952L306.45,47.451c1.063-3.866,5.071-6.162,8.937-5.098l189.476,52.12     C508.75,95.541,511.02,99.564,509.956,103.43z" fill="#ffffff" data-original="#ffffff" class=""></path>
			<path style="" d="M493.693,112.006l-45.863,166.73c-0.933,3.393-4.427,5.379-7.82,4.445l-165.406-45.499     c-3.375-0.928-5.361-4.422-4.428-7.815l45.863-166.73c0.928-3.375,4.427-5.379,7.802-4.451l165.406,45.499     C492.639,105.12,494.621,108.632,493.693,112.006z" fill="#00d5fe" data-original="#00d5fe"></path>
			<g>
				<g>
					<path style="" d="M418.753,200.885c-0.13,0.472-0.255,0.925-0.403,1.392c-0.123,0.376-0.246,0.752-0.387,1.123       l-83.592-22.994c0.058-0.355,0.135-0.704,0.235-1.067c0.098-0.5,0.233-0.99,0.373-1.498       c6.364-23.134,30.286-36.735,53.42-30.371c10.85,2.985,19.606,9.823,25.178,18.656c0.846,1.326,1.604,2.686,2.287,4.103       c0.232,0.435,0.441,0.882,0.631,1.326c0.14,0.272,0.256,0.558,0.373,0.844c0.225,0.53,0.431,1.055,0.652,1.604       c0.21,0.585,0.42,1.169,0.62,1.791c0.149,0.451,0.298,0.902,0.411,1.342c0.069,0.175,0.115,0.364,0.161,0.552       c0.075,0.294,0.174,0.574,0.244,0.887c0.034,0.088,0.046,0.188,0.081,0.276c0.1,0.418,0.199,0.836,0.294,1.272       c0.036,0.224,0.095,0.436,0.13,0.66c0.122,0.619,0.227,1.233,0.331,1.848c0.111,0.733,0.216,1.484,0.286,2.226       c0.068,0.604,0.118,1.203,0.15,1.798c0.003,0.059,0.011,0.101-0.004,0.155c0.036,0.224,0.043,0.48,0.037,0.713       c0.009,0.041-0.001,0.078,0.007,0.119c0.033,0.302,0.031,0.594,0.024,0.904c-0.005,0.018,0.004,0.06-0.001,0.078       c0.037,0.361,0.032,0.731,0.01,1.096c-0.01,0.036,0.004,0.059-0.006,0.096c0.009,0.393,0.005,0.763-0.022,1.145       c0.011,0.315-0.019,0.639-0.045,0.944c0.001,0.352-0.034,0.693-0.075,1.053c-0.029,0.46-0.063,0.939-0.138,1.426       c-0.081,0.72-0.18,1.434-0.302,2.161c-0.122,0.728-0.263,1.45-0.421,2.168C419.133,199.428,418.952,200.159,418.753,200.885z" fill="#ffcf00" data-original="#ffcf00"></path>
				</g>
			</g>
			<g>
				<g style="opacity:0.5;">
					<path style="" d="M418.753,200.885c-0.13,0.472-0.255,0.925-0.403,1.392c-0.123,0.376-0.246,0.752-0.387,1.123       l-83.592-22.994c0.058-0.355,0.135-0.704,0.235-1.067c3.912,0.041,7.891,0.687,11.604,1.24       c11.396,1.71,22.788,3.79,34.313,1.983c12.435-1.927,24.087-7.817,33.055-16.437c1.268,1.989,2.369,4.087,3.291,6.273       c0.225,0.53,0.431,1.055,0.652,1.604c0.21,0.585,0.42,1.169,0.62,1.791c0.149,0.451,0.298,0.902,0.411,1.342       c0.069,0.175,0.115,0.364,0.161,0.552c0.11,0.381,0.219,0.763,0.324,1.162c0.1,0.418,0.199,0.836,0.294,1.272       c0.036,0.224,0.095,0.436,0.13,0.66c0.122,0.619,0.227,1.233,0.331,1.848c0.111,0.733,0.216,1.484,0.286,2.226       c0.068,0.604,0.118,1.203,0.15,1.798c0.021,0.279,0.036,0.576,0.034,0.868c0.033,0.38,0.052,0.737,0.03,1.101       c0.037,0.361,0.032,0.731,0.01,1.096c0.004,0.411,0.003,0.84-0.029,1.241c0.011,0.315-0.019,0.639-0.045,0.944       c0.001,0.352-0.034,0.693-0.075,1.053c-0.029,0.46-0.063,0.939-0.138,1.426c-0.081,0.72-0.18,1.434-0.302,2.161       c-0.122,0.728-0.263,1.45-0.421,2.168C419.133,199.428,418.952,200.159,418.753,200.885z" fill="#fd8a02" data-original="#fd8a02"></path>
				</g>
			</g>
			<path style="" d="M464.994,216.337l-17.778,64.631c-0.594,2.159-3.813,3.147-7.207,2.214l-165.406-45.499     c-1.524-0.419-2.821-1.166-3.732-2.041c-0.371-0.356-0.677-0.732-0.901-1.126c-0.342-0.601-0.519-1.236-0.486-1.851     c-0.004-0.197,0.027-0.383,0.077-0.564l17.778-64.631L464.994,216.337z" fill="#322bbf" data-original="#322bbf"></path>
			<g>
				<path style="" d="M342.797,201.045c2.574,6.75,8.16,10.141,13.311,9.846c2.158-0.105,7.066-1.346,6.198-3.524      c-0.291-0.728-1.115-1.083-1.843-0.793l-0.031,0.013c-5.94,2.365-11.23-1.336-13.028-7.591c-0.057-0.211-0.273-1.01-0.216-0.799      c-0.964-3.313-4.463-3.979-6.688-2.219c-0.169,0.15-1.041,0.926-0.872,0.776c-7.794,7.025-15.563,5.957-19.053-5.221      c-0.068-0.215-0.422-1.325-0.353-1.11c-1.035-2.694-4.338-3.875-7.014-1.303c-0.195,0.142-3.424,3.768-8.097,3.911      c-2.829,0.152-5.589-1.193-7.48-3.654l-0.018-0.024c-0.387-0.504-1.09-0.674-1.673-0.371c-0.654,0.339-0.909,1.145-0.569,1.799      c0.88,1.698,2.191,3.269,3.885,4.396c4.974,3.377,11.603,2.19,16.448-1.658c1.061,3.723,2.617,7.071,5.439,9.704      C326.142,207.965,334.417,208.902,342.797,201.045z" fill="#6280ff" data-original="#6280ff"></path>
				<path style="" d="M441.095,239.609c-0.209,0.032-4.283,1.995-8.256-0.656c-2.375-1.507-3.995-4.113-4.802-6.922      l-0.145-0.534c-0.859-3.11-3.91-4.735-7.193-2.106c-0.36,0.302-1.832,1.805-4.132,3.141c-4.257,2.598-7.07,1.444-7.58,1.432      c-2.82-0.934-5.614-2.448-7.78-9.397c-1.204-4.305-4.896-4.752-7.169-2.605c-0.157,0.152-0.752,0.731-0.596,0.579      c-4.834,4.558-11.307,4.91-15.179-0.13l-0.018-0.025c-0.984-1.283-2.992-0.012-2.243,1.428      c3.776,7.282,13.069,8.502,20.333,2.739c3.946,13.859,16.021,17.908,27.093,7.527c3.297,8.643,11.927,12.389,18.937,8.053      C443.831,241.232,442.701,238.968,441.095,239.609z" fill="#6280ff" data-original="#6280ff"></path>
				<path style="" d="M374.174,241.239l-0.031,0.012c-5.97,2.38-11.241-1.377-13.027-7.59      c-0.17-0.633-0.318-1.207-0.452-1.497c-0.983-2.384-4.139-3.337-6.452-1.521c-0.169,0.15-1.041,0.926-0.872,0.776      c-1.171,1.057-2.409,1.998-3.692,2.744c-2.541,1.55-5.311,2.183-7.568,1.436l-0.012-0.004c-0.067-0.022-0.137-0.041-0.208-0.056      c-5.871-1.265-8.069-10.9-7.926-10.451c-0.541-1.408-1.705-2.345-2.965-2.63c-2.652-0.682-4.604,1.867-4.447,1.714      c-4.835,4.56-11.308,4.908-15.18-0.13l-0.017-0.025c-0.985-1.283-2.99-0.012-2.243,1.429c3.76,7.242,13.034,8.532,20.334,2.739      c3.871,13.603,15.839,18.075,27.092,7.527c2.58,6.761,8.171,10.14,13.312,9.845c2.157-0.105,7.065-1.347,6.198-3.524      C375.728,241.303,374.903,240.948,374.174,241.239z" fill="#6280ff" data-original="#6280ff"></path>
			</g>
			<g>
				<g style="opacity:0.25;">
					<path style="" d="M464.61,217.734l-17.394,63.234c-0.594,2.159-3.813,3.147-7.207,2.214l-165.406-45.499       c-1.524-0.419-2.821-1.166-3.732-2.041c-0.371-0.356-0.677-0.732-0.901-1.126c12.621-10.971,59.068-4.285,75.768-0.218       c30.37,7.378,63.155,20.593,91.842,1.374C446.028,230.013,454.372,220.539,464.61,217.734z" fill="#000e3f" data-original="#000e3f"></path>
				</g>
			</g>
			<g>
				<g>
					<path style="" d="M477.979,169.132c-3.781-1.596-8.439-1.253-11.222,1.925c-1.149,1.311-1.965,2.896-2.543,4.533       c-0.113,0.319-0.86,2.003-0.641,2.332c-1.568-2.35-4.977-2.848-7.537-2.199c-1.921,0.486-3.589,1.792-4.694,3.416       c-1.127,1.656-1.796,4.542-1.384,6.524c0.417,2.017,2.384,2.627,4.086,3.103c1.096,0.306,8.903,2.49,17.211,4.814       L477.979,169.132z" fill="#ffffff" data-original="#ffffff" class=""></path>
				</g>
				<g>
					<path style="" d="M320.515,91.298c-0.588,1.523,0.288,3.221,1.864,3.648c9.569,2.588,32.595,8.815,34.541,9.342       c1.705,0.461,3.707,0.942,5.098-0.577c1.366-1.492,2.269-4.314,2.146-6.313c-0.12-1.961-0.885-3.936-2.287-5.337       c-1.867-1.866-5.052-3.183-7.602-1.965c0.358-0.171,0.577-2,0.643-2.331c0.34-1.702,0.449-3.481,0.133-5.196       c-1.14-6.182-9.058-9.116-14.453-6.63c-3.678,1.695-4.916,5.202-6,8.833c-0.437,1.463-0.815,2.943-1.189,4.423       C333.409,89.195,324.03,82.184,320.515,91.298z" fill="#ffffff" data-original="#ffffff" class=""></path>
				</g>
				<g>
					<path style="" d="M299.047,124.911l-5.747,20.893c9.342,2.783,19.162,5.503,21.102,5.252       c2.286-0.297,3.457-1.943,3.147-4.586c-0.431-3.667-4.351-4.533-7.374-4.728l1.392-0.548c3.258-2.895,4.346-7.971,2.562-11.947       c-1.783-3.976-6.299-6.538-10.627-6.03C301.903,123.405,300.379,124.011,299.047,124.911z" fill="#ffffff" data-original="#ffffff" class=""></path>
				</g>
				<g>
					<path style="" d="M428.347,120.052c-1.618,2.113-1.454,4.127,0.358,5.551c2.547,2.001,27.811,8.047,36.467,10.089       c1.44,0.34,2.909,0.677,4.384,0.558c1.475-0.119,2.982-0.768,3.777-2.016c2.165-3.393,0.534-7.951-2.948-9.248       c-0.716-0.266-3.296-0.7-3.752,0.289c1.304-2.829,0.12-6.56-2.579-8.118c-2.698-1.557-6.522-0.717-8.319,1.828       c1.49-4.096,0.035-9.079-3.425-11.729c-3.459-2.651-8.649-2.759-12.216-0.253c-3.566,2.504-5.227,7.423-3.908,11.577       l0.916,1.182C434.404,118.383,430.593,117.123,428.347,120.052z" fill="#ffffff" data-original="#ffffff" class=""></path>
				</g>
			</g>
			<g>
				<g>
					<path style="" d="M438.143,192.475c2.504,0.219,4.909,2.758,4.394,5.548c-0.603,2.774-3.58,4.329-6.036,3.642       c-1.233-0.325-3.462-1.483-5.345-2.743c-1.88-1.273-3.417-2.619-3.177-3.669c0.254-1.048,2.032-1.737,4.244-2.208       C434.402,192.58,436.875,192.343,438.143,192.475z" fill="#fd8a02" data-original="#fd8a02"></path>
				</g>
				<g>
					<path style="" d="M436.966,172.502c2.475-0.617,5.39,1.03,5.892,3.83c0.297,1.374-0.308,2.732-1.169,3.711       c-0.879,0.987-2.109,1.611-3.381,1.703c-1.272,0.093-3.74-0.279-5.905-0.861c-2.175-0.592-3.973-1.373-4.219-2.423       c-0.198-1.056,1.396-2.313,3.328-3.48C433.448,173.826,435.725,172.791,436.966,172.502z" fill="#fd8a02" data-original="#fd8a02"></path>
				</g>
				<g>
					<path style="" d="M429.239,154.052c2.101-1.361,5.637-0.892,6.849,1.684c0.636,1.249,0.632,2.665,0.161,3.859       c-0.48,1.203-1.503,2.221-2.663,2.715c-1.188,0.509-3.572,0.928-5.849,1.101c-2.284,0.162-4.35,0.059-4.833-0.902       c-0.47-0.969,0.656-2.69,2.037-4.38C426.36,156.43,428.158,154.728,429.239,154.052z" fill="#fd8a02" data-original="#fd8a02"></path>
				</g>
				<g>
					<path style="" d="M416.03,139.032c1.577-2.005,4.907-2.51,7.04-0.63c2.015,2.002,1.627,5.409-0.281,7.076       c-0.948,0.854-3.13,2.079-5.205,2.955c-2.098,0.883-4.002,1.369-4.8,0.651c-0.815-0.701-0.335-2.661,0.469-4.76       C414.067,142.232,415.227,140.022,416.03,139.032z" fill="#fd8a02" data-original="#fd8a02"></path>
				</g>
				<g>
					<path style="" d="M398.623,129.176c0.433-1.192,1.384-2.247,2.57-2.824c1.165-0.532,2.578-0.607,3.858-0.035       c2.633,1.087,3.325,4.533,2.061,6.739c-0.616,1.116-2.27,2.969-3.93,4.445c-1.656,1.442-3.396,2.727-4.364,2.266       c-0.982-0.438-1.154-2.481-1.069-4.754C397.824,132.801,398.184,130.378,398.623,129.176z" fill="#fd8a02" data-original="#fd8a02"></path>
				</g>
				<g>
					<path style="" d="M378.969,125.496c0.024-1.275,0.584-2.543,1.523-3.484c0.468-0.465,1.03-0.869,1.65-1.113       c0.617-0.212,1.294-0.296,1.99-0.216c2.824,0.331,4.629,3.109,4.133,5.681c-0.222,1.252-1.185,3.512-2.292,5.53       c-1.116,1.994-2.333,3.658-3.4,3.529c-0.537-0.065-1.004-0.573-1.424-1.341c-0.422-0.716-0.798-1.695-1.122-2.755       C379.384,129.208,378.943,126.771,378.969,125.496z" fill="#fd8a02" data-original="#fd8a02"></path>
				</g>
				<g>
					<path style="" d="M359.171,128.357c-0.819-2.415,0.573-5.483,3.31-6.249c2.781-0.584,5.422,1.587,5.778,4.099       c0.198,1.26,0.034,3.758-0.364,5.976c-0.406,2.237-1.033,4.111-2.074,4.373c-1.032,0.301-2.413-1.168-3.733-2.986       C360.78,131.747,359.562,129.57,359.171,128.357z" fill="#fd8a02" data-original="#fd8a02"></path>
				</g>
				<g>
					<path style="" d="M341.405,137.535c-0.764-1.021-1.107-2.372-0.951-3.7c0.16-1.312,0.9-2.492,2.076-3.253       c1.193-0.734,2.568-0.91,3.831-0.477c1.266,0.428,2.338,1.317,2.933,2.444c0.596,1.127,1.241,3.524,1.566,5.72       c0.321,2.212,0.42,4.336-0.496,4.897c-0.9,0.589-2.738-0.436-4.552-1.697C344.008,140.204,342.167,138.557,341.405,137.535z" fill="#fd8a02" data-original="#fd8a02"></path>
				</g>
				<g>
					<path style="" d="M327.554,151.964c-2.113-1.392-2.969-4.727-1.231-6.976c1.86-2.152,5.225-2.1,7.057-0.325       c0.929,0.874,2.336,2.953,3.389,4.955c1.046,2.013,1.756,3.924,1.044,4.729c-0.669,0.839-2.61,0.563-4.771-0.067       C330.899,153.65,328.607,152.682,327.554,151.964z" fill="#fd8a02" data-original="#fd8a02"></path>
				</g>
				<g>
					<path style="" d="M319.107,170.099c-2.469-0.638-4.242-3.469-3.345-6.163c0.401-1.344,1.517-2.273,2.774-2.712       c1.248-0.448,2.63-0.411,3.793,0.112c1.163,0.522,3.155,2.021,4.778,3.558c0.81,0.771,1.527,1.553,1.987,2.258       c0.482,0.715,0.763,1.376,0.588,1.888c-0.334,1.024-2.338,1.372-4.595,1.477C322.832,170.613,320.336,170.437,319.107,170.099z       " fill="#fd8a02" data-original="#fd8a02"></path>
				</g>
			</g>
			<g>
				<path style="" d="M388.618,184.549c-1.334-2.516,0.945-4.681,3.711-4.889c4.287-0.322,7.843,1.819,8.967,3.977      C404.314,189.425,391.855,190.652,388.618,184.549z" fill="#fc09b2" data-original="#fc09b2"></path>
				<path style="" d="M369.23,179.216c2.433-1.479,1.582-4.506-0.688-6.099c-3.519-2.469-7.67-2.448-9.74-1.169      C353.248,175.379,363.327,182.805,369.23,179.216z" fill="#fc09b2" data-original="#fc09b2"></path>
			</g>
		</g>
		<g>
			<g>
				<path style="" d="M438.257,192.487c2.463,0.283,4.788,2.788,4.28,5.536c-0.548,2.524-3.063,4.039-5.362,3.774      c-0.227-0.026-0.452-0.07-0.674-0.132c-1.232-0.325-3.462-1.482-5.345-2.743c-1.881-1.274-3.417-2.62-3.177-3.669      c0.254-1.048,2.032-1.737,4.244-2.208c2.179-0.464,4.652-0.701,5.921-0.569C438.181,192.479,438.22,192.483,438.257,192.487       M438.602,189.496l-0.196-0.02c-1.788-0.186-4.719,0.178-6.81,0.624c-2.683,0.572-5.853,1.594-6.542,4.444      c-0.767,3.363,2.733,5.732,4.415,6.872c1.722,1.152,4.384,2.665,6.265,3.161c0.328,0.092,0.711,0.167,1.098,0.211      c4.004,0.461,7.802-2.23,8.649-6.126c0.006-0.031,0.013-0.062,0.018-0.093c0.374-2.025-0.125-4.091-1.404-5.82      C442.768,190.955,440.714,189.739,438.602,189.496L438.602,189.496z" fill="#000e3f" data-original="#000e3f"></path>
				<path style="" d="M438.57,172.404c1.997,0.23,3.893,1.72,4.288,3.927c0.298,1.374-0.308,2.732-1.168,3.711      c-0.88,0.987-2.11,1.611-3.382,1.703c-0.489,0.036-1.155,0.003-1.912-0.084c-1.213-0.14-2.66-0.418-3.992-0.776      c-2.175-0.592-3.973-1.373-4.219-2.423c-0.197-1.055,1.397-2.313,3.328-3.48c1.935-1.156,4.212-2.191,5.453-2.48      C437.49,172.371,438.034,172.343,438.57,172.404 M438.915,169.413L438.915,169.413c-0.91-0.105-1.81-0.048-2.677,0.168      c-1.745,0.406-4.416,1.709-6.269,2.816c-1.754,1.06-5.375,3.249-4.744,6.619c0.009,0.044,0.018,0.089,0.028,0.134      c0.647,2.755,3.738,3.927,6.359,4.641c1.458,0.391,3.073,0.705,4.439,0.862c0.978,0.113,1.812,0.145,2.478,0.096      c2.036-0.147,4.009-1.132,5.409-2.702c1.643-1.87,2.319-4.157,1.875-6.297C445.19,172.412,442.362,169.81,438.915,169.413      L438.915,169.413z" fill="#000e3f" data-original="#000e3f"></path>
				<path style="" d="M432.527,153.342c1.476,0.17,2.883,0.952,3.561,2.393c0.636,1.249,0.632,2.665,0.16,3.859      c-0.48,1.203-1.503,2.221-2.662,2.715c-1.188,0.509-3.572,0.928-5.849,1.101c-1.05,0.074-2.054,0.093-2.879-0.002      c-0.97-0.112-1.693-0.381-1.954-0.899c-0.47-0.969,0.656-2.69,2.037-4.38c1.419-1.699,3.216-3.401,4.298-4.077      C430.164,153.453,431.367,153.208,432.527,153.342 M432.872,150.351L432.872,150.351c-1.893-0.218-3.764,0.199-5.27,1.175      c-1.529,0.954-3.608,3.04-4.972,4.674c-1.263,1.545-3.849,4.71-2.435,7.625c0.743,1.477,2.189,2.331,4.319,2.576      c0.933,0.107,2.056,0.112,3.436,0.014c1.066-0.081,4.663-0.412,6.821-1.336c1.909-0.814,3.507-2.447,4.273-4.368      c0.822-2.08,0.721-4.388-0.273-6.341C437.747,152.19,435.526,150.656,432.872,150.351L432.872,150.351z" fill="#000e3f" data-original="#000e3f"></path>
				<path style="" d="M420.484,137.263c0.926,0.107,1.831,0.473,2.587,1.139c2.015,2.002,1.627,5.409-0.281,7.076      c-0.948,0.854-3.13,2.079-5.205,2.955c-1.557,0.655-3.007,1.092-3.977,0.98c-0.338-0.039-0.617-0.144-0.823-0.33      c-0.815-0.701-0.336-2.661,0.47-4.76c0.813-2.092,1.973-4.3,2.777-5.29C417.048,137.738,418.798,137.069,420.484,137.263       M420.829,134.272C420.828,134.272,420.828,134.272,420.829,134.272c-2.763-0.318-5.508,0.793-7.165,2.899      c-1.132,1.394-2.437,4.056-3.217,6.061c-0.677,1.767-2.252,5.873,0.372,8.133c0.613,0.553,1.475,0.927,2.443,1.039      c1.417,0.163,3.161-0.217,5.489-1.195c1.89-0.799,4.607-2.191,6.053-3.494c1.575-1.376,2.541-3.471,2.614-5.718      c0.07-2.2-0.72-4.235-2.227-5.731c-0.042-0.042-0.087-0.084-0.132-0.123C423.879,135.101,422.415,134.454,420.829,134.272      L420.829,134.272z" fill="#000e3f" data-original="#000e3f"></path>
				<path style="" d="M403.708,125.95c0.453,0.052,0.905,0.172,1.342,0.368c2.633,1.087,3.325,4.533,2.062,6.739      c-0.617,1.116-2.271,2.968-3.93,4.446c-1.491,1.298-3.05,2.469-4.053,2.354c-0.111-0.013-0.215-0.041-0.312-0.087      c-0.982-0.438-1.153-2.482-1.068-4.754c0.074-2.214,0.435-4.637,0.874-5.839c0.433-1.191,1.384-2.247,2.57-2.824      C401.961,126.002,402.836,125.85,403.708,125.95 M404.053,122.959L404.053,122.959c-1.399-0.161-2.821,0.065-4.111,0.655      c-1.954,0.949-3.441,2.59-4.148,4.534c-0.671,1.836-0.988,4.793-1.054,6.766c-0.076,2.015-0.233,6.231,2.851,7.606      c0.328,0.157,0.751,0.277,1.193,0.328c2.084,0.24,4.056-1.055,6.375-3.074c1.541-1.372,3.645-3.553,4.587-5.259      c1.083-1.89,1.296-4.35,0.547-6.539c-0.706-2.064-2.16-3.641-4.094-4.44C405.574,123.253,404.824,123.048,404.053,122.959      L404.053,122.959z" fill="#000e3f" data-original="#000e3f"></path>
				<path style="" d="M384.132,120.683c2.825,0.332,4.629,3.11,4.133,5.681c-0.223,1.252-1.185,3.512-2.293,5.53      c-1.114,1.99-2.329,3.652-3.394,3.529c-0.002,0-0.004,0-0.006,0c-0.537-0.065-1.004-0.574-1.425-1.341      c-0.422-0.716-0.797-1.695-1.121-2.755c-0.644-2.119-1.085-4.556-1.058-5.831c0.024-1.275,0.583-2.543,1.522-3.484      c0.468-0.465,1.031-0.869,1.651-1.113C382.76,120.688,383.437,120.603,384.132,120.683 M384.483,117.693      c-0.002,0-0.005,0-0.006-0.001c-1.108-0.128-2.253-0.003-3.31,0.359c-0.043,0.015-0.086,0.03-0.128,0.047      c-0.953,0.376-1.876,0.991-2.669,1.778c-1.496,1.5-2.371,3.525-2.41,5.564c-0.038,1.843,0.569,4.726,1.188,6.763      c0.434,1.424,0.894,2.537,1.407,3.408c0.902,1.65,2.149,2.621,3.659,2.803c3.344,0.385,5.399-3.284,6.386-5.047      c1.064-1.939,2.304-4.64,2.631-6.474c0.398-2.063-0.115-4.29-1.413-6.065C388.522,119.058,386.628,117.945,384.483,117.693      L384.483,117.693z" fill="#000e3f" data-original="#000e3f"></path>
				<path style="" d="M363.918,122.041c2.199,0.253,4.048,2.093,4.342,4.166c0.198,1.26,0.033,3.758-0.364,5.976      c-0.406,2.237-1.033,4.111-2.074,4.373c-0.132,0.038-0.269,0.048-0.412,0.032c-0.972-0.112-2.17-1.433-3.322-3.018      c-1.309-1.822-2.526-3.999-2.917-5.212c-0.82-2.416,0.572-5.484,3.309-6.249C362.968,122.005,363.451,121.987,363.918,122.041       M364.262,119.05c-0.802-0.092-1.609-0.055-2.399,0.11c-0.065,0.014-0.129,0.03-0.193,0.047      c-2.066,0.578-3.769,1.969-4.797,3.917c-1.027,1.947-1.228,4.207-0.552,6.2c0.551,1.711,2.069,4.257,3.323,6.002      c1.426,1.964,3.178,3.994,5.423,4.253c0.525,0.06,1.044,0.021,1.542-0.117c2.818-0.745,3.751-3.991,4.251-6.742      c0.363-2.025,0.677-5.062,0.376-6.981C370.746,122.291,367.811,119.459,364.262,119.05L364.262,119.05z" fill="#000e3f" data-original="#000e3f"></path>
				<path style="" d="M345.454,129.9c0.306,0.035,0.609,0.104,0.906,0.206c1.266,0.428,2.338,1.316,2.934,2.445      c0.596,1.127,1.241,3.523,1.566,5.72c0.321,2.211,0.421,4.336-0.496,4.897c-0.232,0.152-0.527,0.197-0.867,0.157      c-0.979-0.113-2.338-0.918-3.685-1.855c-1.803-1.266-3.644-2.913-4.406-3.935c-0.763-1.021-1.107-2.372-0.951-3.7      c0.159-1.312,0.899-2.492,2.076-3.253C343.441,130.021,344.46,129.785,345.454,129.9 M345.798,126.909L345.798,126.909      c-1.679-0.193-3.355,0.19-4.848,1.109c-1.968,1.272-3.218,3.246-3.486,5.453c-0.246,2.102,0.311,4.236,1.528,5.865      c1.106,1.485,3.353,3.379,5.088,4.597c2.176,1.513,3.689,2.222,5.071,2.382c1.335,0.154,2.293-0.257,2.861-0.629      c2.723-1.665,2.14-5.688,1.827-7.848c-0.298-2.013-0.969-4.967-1.884-6.697c-0.948-1.795-2.635-3.213-4.63-3.888      C346.838,127.087,346.32,126.969,345.798,126.909L345.798,126.909z" fill="#000e3f" data-original="#000e3f"></path>
				<path style="" d="M330.593,143.385c1.046,0.12,2.042,0.557,2.786,1.277c0.929,0.874,2.336,2.953,3.39,4.955      c1.045,2.013,1.755,3.924,1.043,4.729c-0.392,0.492-1.224,0.6-2.279,0.479c-0.744-0.086-1.599-0.285-2.492-0.546      c-2.143-0.629-4.435-1.598-5.488-2.316c-2.113-1.392-2.968-4.727-1.232-6.976C327.427,143.709,329.063,143.209,330.593,143.385       M330.939,140.394L330.939,140.394c-2.634-0.303-5.212,0.678-6.894,2.624c-0.036,0.042-0.071,0.085-0.105,0.129      c-1.296,1.678-1.81,3.798-1.448,5.969c0.372,2.227,1.613,4.181,3.406,5.362c1.484,1.013,4.241,2.087,6.296,2.691      c1.158,0.337,2.136,0.549,2.996,0.648c2.217,0.255,3.875-0.26,4.928-1.532c2.181-2.554,0.253-6.265-0.676-8.055      c-0.965-1.834-2.586-4.431-3.999-5.761C334.278,141.341,332.668,140.593,330.939,140.394L330.939,140.394z" fill="#000e3f" data-original="#000e3f"></path>
				<path style="" d="M320.902,160.948c0.495,0.057,0.977,0.187,1.426,0.389c1.163,0.522,3.155,2.02,4.778,3.558      c0.81,0.771,1.527,1.553,1.987,2.258c0.482,0.715,0.763,1.375,0.588,1.889c-0.334,1.024-2.338,1.371-4.596,1.477      c-1.509,0.063-3.127,0.005-4.401-0.142c-0.628-0.072-1.172-0.166-1.578-0.277c-2.469-0.639-4.242-3.47-3.346-6.163      c0.401-1.344,1.518-2.273,2.774-2.712C319.301,160.95,320.117,160.858,320.902,160.948 M321.246,157.957L321.246,157.957      c-1.248-0.144-2.538,0.006-3.729,0.434c-2.276,0.796-3.969,2.487-4.627,4.638c-0.662,2.027-0.453,4.195,0.589,6.112      c1.051,1.932,2.827,3.344,4.874,3.873c0.504,0.139,1.188,0.262,1.988,0.354c1.469,0.169,3.245,0.227,4.872,0.158      c1.886-0.088,6.267-0.294,7.332-3.55c0.699-2.052-0.544-3.898-0.953-4.505c-0.53-0.812-1.325-1.726-2.409-2.757      c-1.483-1.405-3.84-3.324-5.62-4.124C322.835,158.263,322.056,158.05,321.246,157.957L321.246,157.957z" fill="#000e3f" data-original="#000e3f"></path>
			</g>
			<path style="" d="M369.614,160.172c-2.279-0.599-4.483,0.679-5.134,2.935c-0.603,2.087,0.757,4.545,3.028,5.123     c2.247,0.573,4.469-0.643,5.112-3.008C373.243,162.974,371.94,160.783,369.614,160.172z" fill="#000e3f" data-original="#000e3f"></path>
			<path style="" d="M397.944,167.962c-2.734-0.688-4.617,1.128-5.188,2.916c-0.633,1.983,0.802,4.597,2.846,5.102     C401.297,177.387,403.154,169.272,397.944,167.962z" fill="#000e3f" data-original="#000e3f"></path>
			<path style="" d="M386.089,169.813c-0.699,4.243-2.698,6.324-4.336,6.857c-0.951,0.309-1.84,0.123-2.496-0.527     c-1.457-1.438-1.613-4.594-0.419-8.444c0.262-0.844-0.209-1.74-1.053-2.003c-0.837-0.253-1.737,0.21-2.001,1.053     c-1.581,5.088-1.133,9.343,1.226,11.67c0.899,0.887,2.025,1.417,3.23,1.556c0.814,0.094,1.664,0.009,2.504-0.264     c3.279-1.067,5.71-4.574,6.5-9.38C389.596,168.216,386.423,167.778,386.089,169.813z" fill="#000e3f" data-original="#000e3f"></path>
			<path style="" d="M489.695,102.554L324.29,57.055c-4.275-1.176-8.706,1.354-9.885,5.634l-45.861,166.73     c-0.572,2.075-0.303,4.248,0.757,6.117c1.059,1.868,2.784,3.211,4.854,3.78l165.406,45.499c0.405,0.112,0.812,0.191,1.22,0.237     c3.874,0.446,7.616-1.99,8.684-5.867l45.861-166.729c0.569-2.07,0.298-4.24-0.763-6.111     C493.5,104.471,491.772,103.125,489.695,102.554z M446.197,278.287c-0.682,2.483-3.268,3.93-5.739,3.263L275.052,236.05     c-1.196-0.329-2.192-1.105-2.804-2.186c-0.614-1.083-0.77-2.342-0.437-3.547l16.74-60.857l174.386,47.969L446.197,278.287z      M417.017,201.481l-80.847-22.239c0.078-0.332,0.166-0.662,0.261-1.002c6.135-22.302,29.268-35.454,51.57-29.319     c8.13,2.237,15.435,6.932,20.876,13.37C418.575,173.763,421.061,188.112,417.017,201.481z M492.058,111.557l-28.274,102.788     l-43.869-12.067c4.143-13.985,1.773-31.182-10.504-43.941c-5.626-5.847-12.784-10.167-20.613-12.319     c-23.884-6.567-48.695,7.521-55.27,31.423c-0.098,0.354-0.185,0.688-0.261,1.003l-43.869-12.067l28.274-102.789     c0.618-2.248,2.78-3.661,5.02-3.403c0.232,0.027,0.467,0.071,0.7,0.135l165.405,45.499c1.201,0.331,2.203,1.111,2.819,2.198     C492.232,109.101,492.389,110.359,492.058,111.557z" fill="#000e3f" data-original="#000e3f"></path>
			<path style="" d="M450.414,301.56c-0.81,0-1.624-0.108-2.425-0.329l-189.476-52.12     c-4.807-1.322-7.641-6.319-6.316-11.139l52.538-190.994c1.327-4.818,6.323-7.663,11.123-6.342l189.476,52.12     c2.336,0.643,4.282,2.159,5.48,4.269c1.194,2.105,1.498,4.548,0.858,6.878l-52.538,190.993c-0.643,2.337-2.156,4.283-4.258,5.479     C453.493,301.16,451.963,301.56,450.414,301.56z M313.467,43.871c-2.41,0-4.629,1.609-5.302,4.053l-52.538,190.993     c-0.806,2.928,0.912,5.963,3.828,6.764l189.476,52.12c1.424,0.392,2.91,0.206,4.186-0.519c1.277-0.726,2.195-1.909,2.586-3.329     l52.538-190.994c0.389-1.415,0.204-2.898-0.523-4.179c-0.725-1.281-1.909-2.203-3.326-2.593l-189.476-52.12     C314.431,43.934,313.947,43.871,313.467,43.871z" fill="#000e3f" data-original="#000e3f"></path>
		</g>
	</g>
	<g>
		<g>
			<g>
				<path style="" d="M40.827,122.19c-1.044,0.516-2.418,1.83-13.779,8.803l-0.401-0.63      c-6.241-10.751-8.748-14.31-15.125-24.041c0.702-0.983,3.977-3.163,5.66-3.448c3.665,6.158,8.329,12.809,12.045,18.887      l0.022,0.035c0.728-0.858,8.156-4.69,9.185-5.541c0.154,0.246,0.331,0.526,0.452,0.792c0.254,0.478,0.551,1.024,0.831,1.386      C42.025,121.678,41.808,121.567,40.827,122.19z" fill="#000e3f" data-original="#000e3f"></path>
				<path style="" d="M48.472,93.678c0.721,1.167,1.331,2.389,1.904,3.631c1.165,2.703,2.518,5.037,3.606,7.685      l0.5,1.279c0.761,1.797,1.261,3.815,1.092,5.704c-0.261,1.61-1.371,2.999-2.687,4.164c-1.169,1.092-2.54,1.869-4.039,2.479      c-2.132,0.833-4.315,1.367-6.186-0.153c-1.312-0.871-2.183-2.242-2.94-3.668c-2.073-3.778-4.312-7.52-5.995-11.541      c-1.073-2.24-1.849-4.815-1.198-7.312c0.129-0.39,0.276-0.741,0.518-1.093c2.466-3.22,7.097-5.441,11.037-4.679      c1.018,0.279,1.926,0.798,2.65,1.503C47.435,92.252,47.972,92.957,48.472,93.678z M45.95,100.213      c-0.018-0.037-0.742-1.204-1.202-2.038c-0.798-1.314-2.073-2.203-3.499-2.185c-1.206,0.092-2.147,0.98-2.632,1.961      c-0.518,1.091-0.687,2.238-0.463,3.426c0.537,2.091,1.551,4.221,2.698,6.243c1.132,1.61,2.018,3.481,3.312,4.87      c1.944,1.481,5.168,0.151,5.837-2.31c0.316-1.685-0.055-1.5-0.944-3.742c-0.463-1.018-0.831-1.852-0.89-1.965l-0.886-1.777      L45.95,100.213z" fill="#000e3f" data-original="#000e3f"></path>
				<path style="" d="M69.665,108.891c-0.423,0.162-1.297,0.667-2.382,1.075c-1.121,0.426-2.415,0.869-3.334,0.906      c-5.48-7.494-10.299-15.808-14.412-24.482l-0.015-0.039c0.316-0.917,4.469-2.351,5.355-2.463      c1.147,1.869,3.698,9.803,8.906,17.396c-1.18-9.114-2.915-14.654-3.429-19.418c-0.015-0.04,0.011-0.092,0.048-0.106      c1.889-0.27,3.812-1.393,5.712-1.757C67.834,89.842,68.753,98.967,69.665,108.891z" fill="#000e3f" data-original="#000e3f"></path>
				<path style="" d="M92.989,96.274c0.573,1.691,1.077,3.613,1.059,5.33c-5.458,1.391-11.155,3.321-16.437,4.24      c-2.444-9.29-5.271-18.094-7.163-27.399c6.12-1.954,16.451-4.841,16.514-4.602c0.776,1.808,1,3.804,1.496,5.686l0.007,0.04      c-3.201,1.658-6.921,1.992-10.361,3.238l-0.121,0.031l-0.03,0.051c0.452,1.551,0.533,3.328,1.272,4.675l0.052,0.029      c1.632-0.301,3.304-0.785,4.955-1.176l0.015,0.04c0.75,1.729,0.985,3.593,1.544,5.546c-1.529,0.873-4.286,1.127-4.73,1.715      c0.129,1.636,0.856,3.753,1.316,5.002l0.048,0.031c3.525-0.928,6.932-1.481,10.545-2.558L92.989,96.274z" fill="#000e3f" data-original="#000e3f"></path>
				<path style="" d="M112.297,98.803c-1.165,0.055-2.948,0.707-16.154,2.549l-0.114-0.737      c-1.415-12.35-2.286-16.613-4.234-28.083c1.037-0.623,4.907-1.307,6.564-0.893c0.893,7.11,2.507,15.069,3.477,22.126l0.007,0.04      c1.011-0.492,9.351-1.031,10.633-1.398c0.044,0.287,0.096,0.614,0.099,0.906c0.04,0.538,0.096,1.159,0.206,1.602      C113.598,98.81,113.443,98.625,112.297,98.803z" fill="#000e3f" data-original="#000e3f"></path>
				<path style="" d="M129.726,69.011c-2.488,10.06-7.755,19.408-10.497,29.316c-0.334-0.024-0.665-0.004-1.037,0.017      c-1.158,0.068-2.598,0.275-3.881,0.351c-0.331,0.018-0.661,0.039-0.992,0.017l-0.085,0.004      c1.191-4.547,2.926-9.668,4.587-14.617l-0.004-0.085c-1.478-4.765-4.646-9.354-6.035-13.961      c1.117-0.066,2.345-0.386,3.543-0.454c0.661-0.04,1.323-0.035,1.959,0.217c0.68,2.409,2.598,6.862,3.709,8.871      c1.003-2.049,1.966-6.875,2.83-9.167c0.978-0.263,2.878-0.456,4.326-0.54c0.662-0.038,1.242-0.029,1.577-0.007V69.011z" fill="#000e3f" data-original="#000e3f"></path>
			</g>
		</g>
		<g>
			<g>
				<path style="" d="M39.904,177.431c-1.433,0.858-3.286,2.523-4.326,3.341c-3.076-3.585-7.109-8.997-10.394-12.313      c0.136,1.314,2.036,6.083,1.68,6.364c-0.68,0.48-5.59-3.034-5.572-2.942c2.834,4.352,6.351,8.433,9.781,12.269      c-1.22,1.325-3.084,2.573-4.484,3.672c-0.03,0.026-0.088,0.02-0.173-0.022c-0.625-0.456-3.742-4.431-17.484-22.218      c0.893-1.277,2.948-2.417,4.304-3.639l0.033-0.026c1.529,0.274,4.528,2.76,6.006,3.234c0.118,0.013,0.206-0.006,0.272-0.055      c0.338-0.106-2.055-4.967-2.066-6.59c0.698-0.388,3.352-2.837,4.719-3.911c3.11,4.295,6.612,8.022,9.652,12.37L39.904,177.431z" fill="#000e3f" data-original="#000e3f"></path>
				<path style="" d="M53.676,162.075c1.051,1.444,2.102,3.13,2.595,4.774c-4.797,2.95-9.666,6.482-14.434,8.924      c-5.091-8.141-10.409-15.705-14.974-24.027c5.263-3.681,14.268-9.505,14.401-9.295c1.275,1.496,2.084,3.336,3.113,4.984      l0.022,0.037c-2.566,2.531-6.02,3.957-8.931,6.169l-0.107,0.066l-0.015,0.057c0.893,1.347,1.5,3.019,2.602,4.083l0.059,0.013      c1.47-0.772,2.922-1.728,4.385-2.591l0.018,0.035c1.235,1.424,2.011,3.135,3.12,4.833c-1.194,1.284-3.753,2.347-4.002,3.04      c0.61,1.523,1.933,3.33,2.742,4.388l0.059,0.013c3.087-1.93,6.175-3.47,9.303-5.572L53.676,162.075z" fill="#000e3f" data-original="#000e3f"></path>
				<path style="" d="M73.675,158.431c-1.58,0.538-3.742,1.773-4.933,2.352c-2.249-4.153-5.05-10.293-7.564-14.226      c-0.143,1.312,0.709,6.377,0.298,6.574c-0.761,0.327-4.822-4.144-4.822-4.051c1.853,4.85,4.429,9.58,6.969,14.051      c-1.474,1.04-3.554,1.869-5.157,2.646c-0.037,0.018-0.092-0.002-0.162-0.057c-0.514-0.579-2.723-5.122-12.401-25.407      c1.139-1.059,3.389-1.739,4.973-2.646l0.037-0.018c1.437,0.592,3.848,3.653,5.19,4.425c0.11,0.037,0.206,0.04,0.276,0.004      c0.353-0.033-0.956-5.287-0.625-6.875c0.761-0.232,3.87-2.068,5.436-2.827c2.128,4.855,4.767,9.237,6.822,14.125L73.675,158.431      z" fill="#000e3f" data-original="#000e3f"></path>
				<path style="" d="M84.69,130.918c0.581,1.241,1.044,2.525,1.47,3.824c0.845,2.821,1.919,5.296,2.698,8.049      l0.349,1.329c0.544,1.871,0.809,3.933,0.423,5.791c-0.445,1.569-1.705,2.821-3.146,3.826c-1.286,0.95-2.738,1.564-4.297,1.997      c-2.213,0.579-4.444,0.86-6.127-0.864c-1.206-1.016-1.911-2.477-2.499-3.982c-1.621-3.992-3.414-7.967-4.62-12.151      c-0.809-2.349-1.283-4.997-0.349-7.404c0.173-0.371,0.36-0.704,0.64-1.023c2.819-2.917,7.674-4.585,11.504-3.376      c0.978,0.393,1.819,1.014,2.455,1.795C83.823,129.381,84.275,130.14,84.69,130.918z M81.43,137.116      c-0.015-0.037-0.595-1.281-0.959-2.161c-0.639-1.398-1.805-2.429-3.223-2.575c-1.206-0.048-2.246,0.726-2.837,1.643      c-0.643,1.027-0.941,2.148-0.856,3.35c0.29,2.141,1.055,4.372,1.959,6.509c0.937,1.731,1.602,3.692,2.731,5.221      c1.757,1.696,5.113,0.746,6.061-1.625c0.507-1.636,0.118-1.496-0.507-3.824c-0.342-1.064-0.61-1.935-0.654-2.053l-0.676-1.865      L81.43,137.116z" fill="#000e3f" data-original="#000e3f"></path>
				<path style="" d="M113.157,146.233c-1.893,0.45-4.212,1.259-6.671,1.672l-0.04,0.009      c-1.632-2.207-5.035-6.506-8.001-8.777l-0.11-0.101c0.25,2.492,1.93,7.754,2.54,9.779c-1.632,1.198-6.41,1.867-6.906,2.114      c0.324-0.077-5.936-25.489-6.98-28.092c2.915-1.163,6.447-2.599,10.46-3.086c6.44-1.195,12.206,4.798,10.196,11.194      c-0.548,2.174-1.863,3.977-4.403,4.752l-0.162,0.037l-0.04,0.009l0.011,0.04c3.205,3.453,7.402,6.412,10.067,10.46      L113.157,146.233z M95.588,131.984l0.04-0.009c1.279-0.176,2.83-0.461,4.069-0.97c1.952-0.932,1.345-4.194-0.423-5.004      c-1.426-0.81-3.356-0.14-5.065,1.075C94.658,128.415,95.099,130.822,95.588,131.984z" fill="#000e3f" data-original="#000e3f"></path>
				<path style="" d="M119.618,116.129l0.022,0.162c1.371,9.385,2.22,19.221,4.109,28.443      c-0.772,1.033-6.303,0.963-7.402,1.457c-0.661-9.986-3.561-19.818-3.918-29.137l-0.011-0.083      c0.279-0.084,1.323-0.11,1.691-0.165c0.992-0.101,2.073-0.134,4.525-0.533L119.618,116.129z" fill="#000e3f" data-original="#000e3f"></path>
				<path style="" d="M143.013,137.87c0.235,1.768,0.364,3.749,0.015,5.431c-5.62,0.32-11.581,1.117-16.944,1.007      c-0.614-9.584-1.702-18.765-1.772-28.261c6.384-0.742,17.073-1.595,17.087-1.347c0.415,1.924,0.254,3.926,0.379,5.868v0.04      c-3.459,1.011-7.178,0.629-10.791,1.191l-0.121,0.007l-0.04,0.046c0.147,1.608-0.114,3.367,0.353,4.828l0.044,0.039      c1.658,0.018,3.393-0.134,5.087-0.202l0.004,0.042c0.408,1.842,0.279,3.716,0.448,5.738c-1.661,0.564-4.418,0.283-4.966,0.776      c-0.187,1.63,0.121,3.85,0.331,5.166l0.044,0.037c3.635-0.232,7.087-0.123,10.839-0.487L143.013,137.87z" fill="#000e3f" data-original="#000e3f"></path>
				<path style="" d="M163.151,124.441c-1.955,0.261-4.278,0.344-6.204-0.263c0.772-2.997-4.569-4.308-5.135-1.22      c-0.14,0.368-0.066,0.742-0.04,1.117c0.408,1.34,1.474,1.665,2.628,1.875c2.926,0.435,5.473,2.185,7.002,4.6      c1.856,2.555,1.768,6.114,0.342,8.921c-1.445,3.345-4.767,4.717-8.156,4.473c-4.837-0.298-9.979-3.589-9.461-8.832l0.004-0.123      l0.007-0.125c1.952-0.221,4.466,0.16,6.329,0.186c0.081,3.525,6.12,3.824,5.598-0.048c-0.239-2.663-3.492-3.15-5.796-3.69      c-1.11-0.244-1.999-0.816-2.76-1.505c-4.918-5.024-2.124-12.464,3.253-14.469c2.727-1.02,6.564-0.509,9.167,0.785      c2.599,1.461,4.201,4.212,3.264,8.321L163.151,124.441z" fill="#000e3f" data-original="#000e3f"></path>
			</g>
		</g>
	</g>
	<g>
		<path style="" d="M231.247,108.621c-2.677,7.793-9.897,17.119-17.931,19.966    c-6.454,2.287-23.525-8.913-26.169-18.763c-1.717-6.398,2.272-12.38,8.345-12.09c5.04,0.241,9.656,3.79,12.872,7.63    c0.903,1.079,1.121,1.546,1.433,0.946c0.625-1.201,2.071-4.181,3.463-5.878C223.885,87.475,235.084,97.453,231.247,108.621z" fill="#fd8a02" data-original="#fd8a02"></path>
		<path style="" d="M271.271,57.632c-2.185,6.361-8.079,13.974-14.636,16.297c-5.268,1.867-19.202-7.275-21.36-15.315    c-1.401-5.222,1.854-10.105,6.812-9.869c4.113,0.197,7.882,3.093,10.506,6.228c0.737,0.88,0.915,1.261,1.17,0.772    c0.51-0.98,1.691-3.413,2.827-4.798C265.261,40.371,274.402,48.516,271.271,57.632z" fill="#fd8a02" data-original="#fd8a02"></path>
		<path style="" d="M207.937,47.29c-1.916,5.579-7.085,12.255-12.836,14.293c-4.62,1.638-16.841-6.38-18.733-13.432    c-1.229-4.58,1.626-8.863,5.974-8.655c3.608,0.172,6.912,2.713,9.214,5.462c0.647,0.772,0.803,1.107,1.026,0.677    c0.447-0.86,1.483-2.993,2.479-4.208C202.666,32.153,210.683,39.296,207.937,47.29z" fill="#fd8a02" data-original="#fd8a02"></path>
	</g>
</g>















</g></svg>