<svg xmlns="http://www.w3.org/2000/svg" version="1.1" xmlns:xlink="http://www.w3.org/1999/xlink" xmlns:svgjs="http://svgjs.com/svgjs" width="512" height="512" x="0" y="0" viewBox="0 0 512 512" style="enable-background:new 0 0 512 512" xml:space="preserve" class=""><g>
<g>
	<g>
		<g>
			<g>
				<path style="" d="M346.511,431.294c-49.825,63.767-215.639,70.099-263.119,26.737      c-9.329-8.521-8.782-21.629,1.277-29.056c0.391-0.287,0.782-0.547,1.147-0.782c13.004-8.417,33.382-5.472,48.418-6.906      c10.059-0.938,21.603-5.42,21.499-13.316c-0.104-9.85-16.938-12.925-19.414-28.326c-1.72-10.528,3.883-19.284,13.733-26.476      c27.492-20.039,88.419-27.831,117.996-28.274c20.561-0.287,47.428,0.078,63.48,10.997c13.785,9.329,11.492,24.313-6.489,31.427      c-5.603,2.241-45.864,7.01-36.874,17.694c7.922,9.407,24.495,8.834,35.414,9.72c12.17,1.016,23.922,7.583,27.362,17.069      C353,417.457,352.088,424.154,346.511,431.294z" fill="#91d728" data-original="#91d728" class=""></path>
			</g>
			<g style="opacity:0.2;">
				<path style="" d="M346.511,431.294c-49.825,63.767-215.639,70.099-263.119,26.737      c-9.329-8.521-8.782-21.629,1.277-29.056c0.391-0.287,0.782-0.547,1.147-0.782c13.004-8.417,33.382-5.472,48.418-6.906      c10.059-0.938,21.603-5.42,21.499-13.316c-0.104-9.85-16.938-12.925-19.414-28.326c-1.72-10.528,3.883-19.284,13.733-26.476      c5.759,6.254,12.977,11.101,20.951,13.837c6.124,2.111,12.743,3.127,18.033,6.958c12.43,9.095,13.368,30.958-5.525,44.691      c-6.984,5.055-37.916,13.056-22.046,27.153c12.091,10.762,31.558,8.183,46.255,6.645c38.698-4.013,70.177-23.792,106.399-35.493      c12.456-4.013,25.069-6.124,36.821-5.16C353,417.457,352.088,424.154,346.511,431.294z" fill="#000e3f" data-original="#000e3f" class=""></path>
			</g>
			<path style="opacity:0.5;" d="M276.864,345.245c-3.999-0.334-28.306-0.383-28.056-0.37     c-2.688-0.147-3.264-4.358-0.721-5.2c29.351-9.669,60.657-3.248,76.111,8.342c2.122,1.591,0.695,5.202-1.751,4.422     C322.199,352.387,301.799,345.671,276.864,345.245z" fill="#ffffff" data-original="#ffffff"></path>
		</g>
		<g>
			<g>
				<g>
					<g>
						<polygon style="" points="74.016,259.641 138.878,235.169 191.569,215.289 199.792,237.083 208.014,258.877         155.323,278.757 90.461,303.229 64.489,288.132       " fill="#ffcf00" data-original="#ffcf00"></polygon>
					</g>
					<g style="opacity:0.5;">
						<path style="" d="M191.577,215.295l16.438,43.568l-117.547,44.35l-7.19-4.16        c3.613-7.711,10.028-13.481,16.949-16.441c21.227-9.115,52.703-10.594,66.961-32.545c6.19-9.528,9.534-21.507,14.065-30.876        L191.577,215.295z" fill="#fd8a02" data-original="#fd8a02"></path>
					</g>
				</g>
				<g>
					<g>
						<path style="" d="M118.551,283.166c-1.864,0.703-4.115,1.823-6.556,2.565l-0.039,0.015        c-1.945-2.031-5.961-5.954-9.271-7.876l-0.122-0.089c0.579,2.499,2.966,7.625,3.85,9.603c-1.502,1.428-6.268,2.727-6.738,3.04        c0.317-0.12-9.339-25.112-10.739-27.622c2.812-1.558,6.212-3.476,10.224-4.49c6.387-2.048,13.023,3.287,11.81,10.044        c-0.273,2.277-1.377,4.279-3.855,5.396l-0.16,0.06l-0.039,0.014l0.015,0.039c3.704,3.091,8.347,5.551,11.58,9.316        L118.551,283.166z M98.863,270.974l0.039-0.014c1.275-0.346,2.812-0.834,4.006-1.512c1.859-1.199,0.819-4.433-1.083-5.03        c-1.555-0.637-3.422,0.294-5.001,1.751C97.451,267.474,98.216,269.859,98.863,270.974z" fill="#000e3f" data-original="#000e3f" class=""></path>
						<path style="" d="M129.745,255.063c0.614,1.263,1.109,2.573,1.561,3.896c0.905,2.876,2.035,5.394,2.869,8.206        l0.376,1.355c0.585,1.909,0.881,4.018,0.514,5.924c-0.435,1.614-1.713,2.911-3.174,3.959c-1.303,0.991-2.781,1.64-4.373,2.106        c-2.256,0.625-4.537,0.941-6.283-0.803c-1.248-1.024-1.991-2.511-2.614-4.043c-1.716-4.064-3.604-8.111-4.898-12.382        c-0.859-2.394-1.379-5.097-0.455-7.575c0.171-0.382,0.359-0.724,0.642-1.057c2.847-3.024,7.795-4.8,11.732-3.612        c1.009,0.39,1.879,1.012,2.54,1.806C128.841,253.501,129.312,254.274,129.745,255.063z M126.495,261.455        c-0.014-0.039-0.63-1.304-1.012-2.2c-0.672-1.423-1.879-2.462-3.334-2.592c-1.236-0.033-2.291,0.773-2.886,1.722        c-0.642,1.059-0.933,2.211-0.831,3.44c0.328,2.188,1.14,4.464,2.097,6.641c0.981,1.759,1.69,3.757,2.864,5.308        c1.826,1.714,5.247,0.694,6.186-1.745c0.498-1.682,0.101-1.532-0.568-3.907c-0.365-1.086-0.656-1.973-0.702-2.094        l-0.718-1.903L126.495,261.455z" fill="#000e3f" data-original="#000e3f" class=""></path>
						<path style="" d="M156.625,268.893l0.015,0.039c-1.466,0.918-3.535,1.56-5.374,1.848l-0.039,0.014        c-1.28-1.467-3.007-4.486-4.306-5.763c-1.422,0.31-1.284,0.44-2.474,0.889c-0.085,1.935,1.009,5.193,0.754,7.283        c-0.039,0.014-0.063,0.068-0.104,0.083c-0.391,0.283-1.974,0.654-5.568,2.057c-0.039,0.014-0.039,0.014-0.095-0.011        c-0.085-1.191-3.394-15.846-4.375-29.976c0.707-0.402,1.432-0.405,4.804-2.039c1.254,1.883,6.911,10.396,8.55,12.815        L156.625,268.893z M142.403,261.344c0.928-0.306,1.944-0.733,2.935-1.107C138.589,247.15,140.447,252.793,142.403,261.344z" fill="#000e3f" data-original="#000e3f" class=""></path>
						<path style="" d="M168.133,243.298c0.59,0.73,0.945,1.546,1.299,2.366c0.825,2.545,1.821,5.069,2.26,7.665        c0.015,0.041-0.026,0.056-0.011,0.095c0.111,3.538-0.785,7.049-1.864,10.309c-3.446,1.436-7.056,2.798-10.388,4.055        l-0.026,0.056c-4.307-7.937-7.23-17.845-10.9-26.973c0.024-0.053,0.035-0.149,0.059-0.202c2.73-1.892,6.401-2.733,9.409-4.006        c1.87-0.206,4.044,0.515,5.581,1.703C165.376,239.717,166.863,241.376,168.133,243.298z M164.417,248.823        c-0.932-1.505-2.157-3.31-4.181-3.27c-0.956,0.225-2.082,0.603-2.959,1.161l-0.08,0.03l-0.039,0.015l0.06,0.16        c1.275,2.781,2.409,6.75,3.953,10.244c0.789,0.291,1.881-0.301,2.788-0.779c0.293-0.066,0.39-0.285,0.623-0.509        c0.398-0.512,0.615-1.138,0.752-1.733C165.723,252.41,165.586,250.603,164.417,248.823z" fill="#000e3f" data-original="#000e3f" class=""></path>
					</g>
					<path style="" d="M191.569,215.289l8.223,21.794l8.222,21.794l-52.692,19.88l-64.862,24.472l-25.972-15.097       l9.526-28.49l64.862-24.472L191.569,215.289 M191.568,210.886c-0.516,0-1.042,0.091-1.553,0.285l-52.691,19.88l-64.862,24.472       c-1.238,0.467-2.201,1.467-2.62,2.722l-9.526,28.491c-0.662,1.98,0.158,4.152,1.962,5.201l25.972,15.097       c0.68,0.395,1.444,0.596,2.212,0.596c0.525,0,1.051-0.094,1.554-0.284l64.862-24.472l52.692-19.88       c1.092-0.412,1.976-1.241,2.457-2.305c0.481-1.063,0.52-2.275,0.108-3.367l-8.223-21.794l-8.223-21.794       C195.022,211.973,193.347,210.886,191.568,210.886L191.568,210.886z" fill="#000e3f" data-original="#000e3f" class=""></path>
				</g>
			</g>
			<g>
				<g>
					<polygon style="" points="164.631,52.612 168.959,110.678 25.307,121.678 19.162,114.376 2.195,94.22        20.978,63.612      " fill="#6280ff" data-original="#6280ff"></polygon>
					<g style="opacity:0.25;">
						<path style="" d="M164.631,52.612l4.328,58.066l-143.652,11l-6.145-7.302c6.047-8.675,16.08-13.74,25.589-14.831        c24.379-2.828,56.873,4.23,78.088-12.46c13.913-10.928,27.869-29.555,40.896-34.406L164.631,52.612z" fill="#000e3f" data-original="#000e3f" class=""></path>
					</g>
				</g>
				<g>
					<g>
						<path style="" d="M25.309,123.889c-0.647,0-1.263-0.285-1.684-0.785L0.517,95.628        c-0.611-0.725-0.688-1.76-0.191-2.567l18.779-30.6c0.368-0.603,1.005-0.991,1.71-1.044l76.533-5.705l67.105-5.293        c0.575-0.05,1.158,0.142,1.605,0.523c0.444,0.381,0.719,0.923,0.762,1.507l4.33,58.076c0.091,1.208-0.814,2.263-2.023,2.357        l-67.113,5.295l-76.54,5.705C25.419,123.888,25.364,123.889,25.309,123.889z M4.906,94.01l21.363,25.4l75.408-5.621        l64.92-5.121l-4.002-53.687l-64.911,5.121l-75.418,5.621L4.906,94.01z" fill="#000e3f" data-original="#000e3f" class=""></path>
					</g>
					<g>
						<path style="" d="M53.786,103.62c-1.195-0.038-3.068,0.484-16.698,1.287l-0.057-0.761        c-0.438-12.722-0.98-17.145-2.036-29.012c1.107-0.55,5.118-0.935,6.774-0.378c0.334,7.33,1.333,15.588,1.749,22.87        l0.003,0.043c1.072-0.421,9.628-0.293,10.968-0.564c0.022,0.296,0.047,0.635,0.028,0.933c-0.003,0.553,0.003,1.19,0.079,1.652        C55.111,103.734,54.969,103.532,53.786,103.62z" fill="#000e3f" data-original="#000e3f" class=""></path>
						<path style="" d="M74.329,102.046l0.003,0.043c-1.665,0.464-3.832,0.498-5.677,0.253l-0.041,0.003        c-0.813-1.767-1.617-5.151-2.503-6.744c-1.451-0.104-1.356,0.06-2.624,0.154c-0.628,1.832-0.499,5.265-1.334,7.198        c-0.041,0.003-0.079,0.049-0.123,0.052c-0.454,0.161-2.078,0.069-5.923,0.398c-0.041,0.003-0.041,0.003-0.086-0.036        c0.252-1.167,1.218-16.161,4.268-29.993c0.792-0.186,1.489,0.017,5.185-0.599c0.669,2.16,3.693,11.926,4.582,14.709        L74.329,102.046z M62.819,90.788c0.977-0.031,2.072-0.154,3.131-0.233C63.17,76.094,63.358,82.032,62.819,90.788z" fill="#000e3f" data-original="#000e3f" class=""></path>
						<path style="" d="M94.404,100.422c-1.791,0.516-4.049,0.429-5.872,0.522c-2.567-2.529-4.648-7.604-6.657-10.6        c0.116,3.265,0.706,7.728,0.942,10.899c-1.491,0.536-4.67,0.688-6.174,0.46c-1.186-9.647-1.327-19.5-2.102-29.348        c1.858-0.181,3.854-0.202,5.673-0.337c0.366,3.203,0.473,6.937,0.839,10.141c0.003,0.042,0.075-0.134,0.192-0.27        c2.138-3.264,3.059-6.861,5.179-10.377c1.829-0.009,3.92-0.462,5.758-0.302c-1,4.836-4.451,9.855-6.128,14.741L94.404,100.422        z" fill="#000e3f" data-original="#000e3f" class=""></path>
						<path style="" d="M114.458,93.4c0.264,1.808,0.416,3.838,0.075,5.564c-5.752,0.386-11.852,1.266-17.339,1.207        c-0.731-9.809-1.942-19.199-2.115-28.922c6.528-0.826,17.465-1.812,17.484-1.559c0.445,1.966,0.299,4.016,0.448,6.004        l0.003,0.043c-3.533,1.071-7.342,0.717-11.038,1.332l-0.126,0.009l-0.041,0.046c0.167,1.646-0.082,3.45,0.412,4.943        l0.045,0.039c1.7,0,3.472-0.173,5.21-0.261l0.003,0.043c0.438,1.881,0.325,3.802,0.523,5.87        c-1.7,0.594-4.525,0.337-5.08,0.847c-0.173,1.671,0.164,3.942,0.394,5.285l0.044,0.038c3.721-0.277,7.254-0.2,11.092-0.613        L114.458,93.4z" fill="#000e3f" data-original="#000e3f" class=""></path>
						<path style="" d="M133.6,77.519c-1.962,0.486-4.317,0.832-6.345,0.43c0.445-3.136-5.134-3.868-5.364-0.663        c-0.098,0.39,0.015,0.763,0.085,1.142c0.567,1.318,1.687,1.531,2.883,1.613c3.027,0.114,5.818,1.607,7.647,3.894        c2.176,2.389,2.488,6.022,1.353,9.04c-1.094,3.567-4.321,5.338-7.796,5.47c-4.957,0.243-10.561-2.528-10.624-7.923        l-0.009-0.128l-0.009-0.126c1.965-0.444,4.566-0.34,6.465-0.525c0.479,3.578,6.657,3.202,5.689-0.679        c-0.54-2.681-3.907-2.812-6.31-3.101c-1.158-0.126-2.129-0.607-2.983-1.223c-5.569-4.559-3.563-12.446,1.682-15.09        c2.662-1.346,6.623-1.259,9.42-0.234c2.81,1.194,4.749,3.813,4.26,8.1L133.6,77.519z" fill="#000e3f" data-original="#000e3f" class=""></path>
					</g>
				</g>
			</g>
			<g>
				<g>
					<polygon style="" points="322.913,90.637 318.831,108.887 315.805,122.33 195.67,173.679 174.959,125.224        295.094,73.874      " fill="#fc09b2" data-original="#fc09b2" class=""></polygon>
					<g style="opacity:0.25;">
						<path style="" d="M318.831,108.887l-3.026,13.443L195.67,173.679l-20.711-48.455l9.972-4.262        c10.869,2.97,22.862,10.022,35.432,12.531c26.14,5.213,51.187-15.775,73.706-24.304        C301.514,106.362,310.587,105.892,318.831,108.887z" fill="#000e3f" data-original="#000e3f" class=""></path>
					</g>
					<g>
						<g>
							<path style="" d="M227.727,150.832c-5.276-0.082-7.779-3.358-6.904-6.833         c2.571-10.212,22.487-14.626,22.824-4.722C243.812,144.091,236.138,150.962,227.727,150.832z" fill="#ff8ede" data-original="#ff8ede"></path>
						</g>
						<g>
							<path style="" d="M295.331,121.936c3.587-3.87,2.949-7.944-0.168-9.713         c-9.157-5.199-26.111,6.146-19.186,13.234C279.344,128.904,289.612,128.105,295.331,121.936z" fill="#ff8ede" data-original="#ff8ede"></path>
						</g>
					</g>
				</g>
				<g>
					<g>
						<path style="" d="M195.667,175.885c-0.277,0-0.556-0.052-0.819-0.157c-0.542-0.217-0.974-0.641-1.204-1.179        L172.935,126.1c-0.232-0.536-0.236-1.141-0.019-1.684c0.217-0.542,0.64-0.975,1.177-1.205l120.14-51.352        c0.647-0.277,1.395-0.227,1.999,0.138l27.825,16.757c0.812,0.49,1.22,1.442,1.012,2.368l-7.116,31.692        c-0.155,0.69-0.63,1.263-1.282,1.542l-120.14,51.351C196.256,175.827,195.961,175.885,195.667,175.885z M177.847,126.394        l18.977,44.402l117.081-50.044l6.522-29.045l-25.499-15.356L177.847,126.394z M315.807,122.333h0.024H315.807z" fill="#000e3f" data-original="#000e3f" class=""></path>
					</g>
					<g>
						<path style="" d="M254.213,131.6c-1.428,0-2.88-0.259-4.327-0.781c-4.236-1.527-7.952-5.225-9.695-9.65        c-0.447-1.131,0.108-2.408,1.239-2.855c1.123-0.442,2.407,0.108,2.854,1.241c1.275,3.234,4.06,6.03,7.095,7.124        c1.567,0.566,3.966,0.944,6.507-0.454c4.977-2.738,5.461-9.246,3.391-13.981c-0.487-1.114,0.019-2.412,1.134-2.899        c1.103-0.484,2.409,0.019,2.897,1.134c2.854,6.519,1.965,15.604-5.301,19.602C258.17,131.092,256.214,131.6,254.213,131.6z" fill="#000e3f" data-original="#000e3f" class=""></path>
					</g>
					<g>
						<path style="" d="M275.192,108.565c-1.003,0-2.025-0.18-3.052-0.541c-3.439-1.211-6.524-4.349-8.05-8.191        c-0.449-1.129,0.103-2.409,1.232-2.858c1.118-0.444,2.409,0.099,2.856,1.232c1.039,2.613,3.219,4.89,5.423,5.664        c1.27,0.449,2.462,0.373,3.532-0.235c2.992-1.697,3.169-6.411,1.607-9.986c-0.485-1.114,0.024-2.411,1.139-2.897        c1.103-0.488,2.412,0.023,2.897,1.137c2.307,5.29,1.874,12.545-3.475,15.577C278.012,108.197,276.625,108.565,275.192,108.565        z" fill="#000e3f" data-original="#000e3f" class=""></path>
					</g>
					<g>
						<path style="" d="M225.794,129.68c-1.003,0-2.025-0.18-3.049-0.541c-3.439-1.208-6.526-4.348-8.055-8.188        c-0.449-1.13,0.101-2.41,1.23-2.86c1.127-0.446,2.409,0.101,2.858,1.231c1.041,2.614,3.221,4.889,5.426,5.666        c1.273,0.448,2.462,0.37,3.532-0.236c2.992-1.697,3.169-6.411,1.607-9.987c-0.485-1.114,0.024-2.41,1.139-2.897        c1.103-0.486,2.412,0.023,2.897,1.137c2.307,5.289,1.874,12.545-3.475,15.577C228.614,129.312,227.227,129.68,225.794,129.68z        " fill="#000e3f" data-original="#000e3f" class=""></path>
					</g>
				</g>
			</g>
			<g>
				<g>
					<path style="" d="M239.511,393.796c0.321,1.513,0.281,2.995-0.102,4.416c-0.843,3.621-3.742,6.602-7.629,7.387       c-5.395,1.131-10.668-2.312-11.798-7.707l-0.053-0.269l-10.287-56.541l-11.987-65.891l-1.811-9.913l-7.229-39.858l-0.005-0.025       l-2.144-11.754l-12.551-69.034c-0.005-0.025-0.005-0.025-0.005-0.025l-1.686-9.277l-7.742-42.477l-0.969-5.35l-4.628-25.5       l-1.031-5.668l-3.577-19.606c-0.496-2.801,1.364-5.502,4.184-6.028c2.751-0.487,5.414,1.305,5.974,4.042l1.696,8.156       l1.461,6.957l5.164,24.734l1.389,6.591l10.486,50.149l22.357,106.991l1.475,7.031l0.005,0.025l5.044,24.122       c0,0,0,0,0.005,0.025l2.635,12.573L238.4,388.498c0.005,0.025,0.005,0.025,0.005,0.025L239.511,393.796z" fill="#ff8ede" data-original="#ff8ede"></path>
					<g style="opacity:0.5;">
						<g>
							<path style="" d="M174.145,81.156c-1.748,2.756-3.702,5.374-5.914,7.839c-1.209,1.354-2.462,2.616-3.749,3.833         l-0.969-5.35c0.486-0.502,0.948-0.999,1.386-1.491c3.131-3.484,5.716-7.293,7.857-11.421L174.145,81.156z" fill="#fc09b2" data-original="#fc09b2" class=""></path>
						</g>
						<g>
							<path style="" d="M167.592,49.832c-2.446,4.392-5.33,8.487-8.707,12.146l-1.031-5.668         c3.276-4.046,6-8.568,8.277-13.435L167.592,49.832z" fill="#fc09b2" data-original="#fc09b2" class=""></path>
						</g>
						<g>
							<path style="" d="M188.61,225.394l-2.144-11.754c3.211-19.331,2.447-39.36-4.978-55.901         c-2.073-4.627-4.612-9.035-7.573-13.133c-0.005-0.025-0.005-0.025-0.005-0.025l-1.686-9.277         c5.466,6.124,9.999,13.065,13.38,20.613C194.808,176.483,194.269,202.077,188.61,225.394z" fill="#fc09b2" data-original="#fc09b2" class=""></path>
						</g>
						<g>
							<path style="" d="M239.511,393.796c0.321,1.513,0.281,2.995-0.102,4.416         c-8.752-12.012-16.086-27.174-21.195-44.346c-2.458-8.287-4.32-16.64-5.593-24.981c-2.202-14.386-2.627-28.788-1.371-42.909         l-0.005-0.024c0.494-5.535,1.252-11.02,2.273-16.455l2.635,12.573c-2.675,23.115-0.599,47.131,6.357,70.499         c3.981,13.351,9.445,25.574,15.89,35.929c0.005,0.025,0.005,0.025,0.005,0.025L239.511,393.796z" fill="#fc09b2" data-original="#fc09b2" class=""></path>
						</g>
						<g>
							<path style="" d="M208.464,245.327l0.005,0.025c-1.298,2.719-2.514,5.472-3.646,8.26         c-2.902,6.997-5.277,14.22-7.168,21.579l-1.811-9.913c2.035-6.496,4.455-12.84,7.265-19.005         c1.201-2.7,2.514-5.345,3.88-7.976L208.464,245.327z" fill="#fc09b2" data-original="#fc09b2" class=""></path>
						</g>
					</g>
					<g style="opacity:0.5;">
						<path style="" d="M239.511,393.796c0.321,1.513,0.281,2.995-0.102,4.416c-0.843,3.621-3.742,6.602-7.629,7.387        c-5.395,1.131-10.668-2.312-11.798-7.707l-0.053-0.269l-10.287-56.541c10.771-57.022-32.068-150.458-25.01-209.776        c11.841,56.642-11.616-55.525,53.768,257.193c0.005,0.025,0.005,0.025,0.005,0.025L239.511,393.796z" fill="#fc09b2" data-original="#fc09b2" class=""></path>
					</g>
				</g>
				<path style="" d="M159.381,30.605c2.409,0,4.556,1.693,5.066,4.119l75.061,359.078      c1.128,5.394-2.331,10.68-7.725,11.808c-0.688,0.144-1.375,0.213-2.051,0.213c-4.624,0-8.772-3.233-9.757-7.938      c-0.014-0.07-0.037-0.186-0.05-0.256L154.283,36.71c-0.511-2.813,1.355-5.509,4.168-6.021      C158.764,30.632,159.075,30.605,159.381,30.605 M159.382,26.203c-0.001,0-0.001,0-0.001,0c-0.573,0-1.151,0.053-1.717,0.155      c-5.196,0.945-8.655,5.941-7.711,11.138l65.641,360.92l0.069,0.353c1.39,6.645,7.305,11.455,14.068,11.455      c0.987,0,1.98-0.103,2.952-0.306c7.762-1.623,12.755-9.257,11.133-17.018L168.755,33.823      C167.828,29.406,163.885,26.203,159.382,26.203L159.382,26.203z" fill="#000e3f" data-original="#000e3f" class=""></path>
			</g>
		</g>
	</g>
	<g>
		<g>
			<g>
				<g>
					<path style="" d="M337.884,244.163c0.003,0.435,4.635,9.373,7.448,13.406c1.23,1.712,3.009,3.295,5.125,2.765       c1.433-0.64,2.491-1.927,2.376-3.537c-0.134-1.846-1.49-3.24-2.046-4.964c1.906-0.786,4.344-2.806,6.414-3.312       c5.796,5.234,5.426,14.751-1.304,18.803c-4.086,3.15-10.643,4.805-14.159-0.124c-2.803-4.349-5.609-9.127-11.255-19.286       c-0.752-0.991-1.118-2.271-1.28-3.422c-0.377-1.951-0.315-3.79,0.237-5.533c0.404-0.914,1.012-1.695,1.762-2.438       c6.932-7.701,20.298-4.95,22.268,5.395c-1.994,1.827-4.301,2.777-6.92,3.725c-1.793-2.259-3.272-6.56-6.83-4.332       c-0.712,0.594-1.686,1.28-1.903,2.089C337.757,243.616,337.853,243.996,337.884,244.163z" fill="#000e3f" data-original="#000e3f" class=""></path>
					<path style="" d="M388.5,250.45c-2.089,1.392-5.199,2.479-6.756,3.346l-0.053,0.022       c-2.577-4.093-4.336-9.258-6.751-13.249l-0.069-0.026c-2.073,0.506-3.94,1.33-5.662,2.627c1.61,4.695,4.353,8.895,5.545,13.313       c-1.211,1.652-5.662,2.094-6.557,3.26c-2.856-5.385-11.632-23.861-15.883-33.981l-0.022-0.048l0.05-0.024l0.098-0.043       c2.144-0.478,4.205-2.336,6.312-2.62c2.596,4.262,4.126,8.647,6.767,12.479l0.05-0.021c1.793-0.325,3.732-1.538,5.287-2.407       l0.05-0.019c-1.61-4.699-3.202-8.291-5.49-12.924c1.433-1.285,4.465-2.801,6.5-3.527L388.5,250.45z" fill="#000e3f" data-original="#000e3f" class=""></path>
					<path style="" d="M403.678,215.875c0.692,1.638,1.237,3.329,1.729,5.036c0.962,3.701,2.238,6.966,3.114,10.579       l0.392,1.741c0.616,2.455,0.862,5.146,0.27,7.539c-0.649,2.018-2.35,3.58-4.267,4.819c-1.717,1.17-3.627,1.899-5.674,2.386       c-2.901,0.65-5.815,0.905-7.914-1.414c-1.516-1.375-2.362-3.31-3.057-5.289c-1.913-5.261-4.05-10.507-5.418-16       c-0.934-3.09-1.423-6.548-0.098-9.628c0.244-0.475,0.502-0.898,0.881-1.301c3.799-3.649,10.185-5.586,15.097-3.833       c1.254,0.559,2.316,1.404,3.104,2.452C402.627,213.835,403.179,214.848,403.678,215.875z M399.15,223.767       c-0.019-0.053-0.716-1.693-1.146-2.854c-0.757-1.846-2.223-3.238-4.057-3.498c-1.564-0.12-2.952,0.836-3.766,2.001       c-0.881,1.299-1.323,2.739-1.273,4.305c0.274,2.794,1.163,5.729,2.235,8.547c1.134,2.295,1.906,4.869,3.293,6.909       c2.207,2.29,6.603,1.213,7.95-1.817c0.735-2.102,0.225-1.937-0.475-4.989c-0.392-1.397-0.702-2.541-0.752-2.696l-0.79-2.457       L399.15,223.767z" fill="#000e3f" data-original="#000e3f" class=""></path>
					<path style="" d="M431.252,209.821c0.521,1.705,0.881,3.444,1.191,5.194c0.571,3.782,1.493,7.164,1.987,10.853       l0.205,1.769c0.356,2.51,0.315,5.211-0.523,7.532c-0.862,1.937-2.718,3.312-4.755,4.341c-1.829,0.986-3.809,1.507-5.896,1.779       c-2.952,0.339-5.874,0.289-7.723-2.24c-1.361-1.528-2.001-3.541-2.481-5.583c-1.352-5.433-2.925-10.88-3.708-16.487       c-0.607-3.171-0.728-6.663,0.912-9.59c0.294-0.442,0.597-0.838,1.015-1.199c4.167-3.231,10.72-4.487,15.422-2.223       c1.189,0.685,2.154,1.638,2.83,2.763C430.424,207.686,430.863,208.746,431.252,209.821z M425.92,217.198       c-0.014-0.055-0.535-1.76-0.838-2.959c-0.561-1.915-1.875-3.455-3.67-3.904c-1.545-0.284-3.026,0.518-3.955,1.59       c-1.017,1.201-1.607,2.589-1.717,4.15c-0.024,2.808,0.549,5.822,1.323,8.74c0.886,2.398,1.378,5.043,2.548,7.217       c1.948,2.507,6.44,1.903,8.095-0.972c0.955-2.011,0.427-1.903,0.055-5.013c-0.244-1.433-0.43-2.603-0.463-2.763l-0.528-2.526       L425.92,217.198z" fill="#000e3f" data-original="#000e3f" class=""></path>
					<path style="" d="M460.601,209.628c-2.474,0.683-5.45,1.199-8.036,0.755c0.463-3.995-6.638-4.738-6.825-0.666       c-0.112,0.499,0.043,0.972,0.146,1.445c0.76,1.655,2.19,1.889,3.709,1.953c3.845,0.046,7.434,1.851,9.829,4.693       c2.837,2.959,3.353,7.558,2.011,11.424c-1.27,4.561-5.309,6.913-9.715,7.192c-6.28,0.471-13.48-2.863-13.738-9.707l-0.014-0.16       l-0.017-0.157c2.479-0.628,5.781-0.583,8.184-0.876c0.728,4.521,8.554,3.845,7.198-1.048c-0.774-3.384-5.048-3.441-8.107-3.73       c-1.473-0.119-2.72-0.697-3.823-1.454c-7.216-5.6-4.927-15.672,1.641-19.199c3.336-1.793,8.363-1.812,11.945-0.604       c3.603,1.423,6.151,4.683,5.671,10.137L460.601,209.628z" fill="#000e3f" data-original="#000e3f" class=""></path>
					<path style="" d="M489.097,228.018c0.134,2.316,0.1,4.895-0.518,7.04c-7.314-0.146-15.121,0.294-22.051-0.389       c0.157-12.475-0.332-24.477,0.523-36.785c8.341-0.323,22.273-0.361,22.268-0.038c0.344,2.531-0.067,5.108-0.098,7.637v0.053       c-4.582,0.965-9.361,0.098-14.099,0.466h-0.162l-0.053,0.052c0.026,2.099-0.485,4.351-0.026,6.292l0.053,0.055       c2.149,0.189,4.408,0.165,6.615,0.248l-0.002,0.053c0.346,2.424-0.005,4.84,0.014,7.474c-2.214,0.564-5.757-0.072-6.517,0.511       c-0.401,2.089-0.225,4.998-0.084,6.722l0.052,0.055c4.731,0.06,9.192,0.547,14.087,0.447L489.097,228.018z" fill="#000e3f" data-original="#000e3f" class=""></path>
				</g>
			</g>
			<g>
				<g>
					<path style="" d="M358.187,300.36c-1.287,0.478-2.787,1.531-5.583,3.451l-0.091,0.055l-0.048,0.029       c0.029,0.048,0.012,0.122,0.038,0.167c0.356,0.981,2.467,4.291,15.19,24.059l0.029,0.046l0.029,0.045       c-2.016,1.75-5.335,3.236-7.305,4.955c-0.475-0.463-4.112-7.572-15.391-24.186l-0.076-0.017       c-1.872,0.146-4.957,2.62-5.827,2.846c-0.513-0.318-3.071-4.048-4.626-7.073c-0.029-0.043-0.074-0.017-0.103-0.06       c6.194-3.892,12.869-8.337,19.563-11.525C355.369,295.085,357.148,297.964,358.187,300.36z" fill="#000e3f" data-original="#000e3f" class=""></path>
					<path style="" d="M396.022,313.68c-2.042,1.461-5.117,2.648-6.643,3.565l-0.05,0.024       c-2.713-4.012-4.638-9.115-7.181-13.026l-0.074-0.024c-2.054,0.573-3.895,1.459-5.576,2.808       c1.765,4.645,4.642,8.755,5.98,13.132c-1.153,1.691-5.593,2.281-6.452,3.47c-3.03-5.289-12.403-23.474-16.981-33.453       l-0.024-0.05l0.048-0.022l0.098-0.048c2.125-0.545,4.126-2.469,6.226-2.825c2.732,4.179,4.406,8.511,7.171,12.258l0.048-0.026       c1.786-0.382,3.682-1.655,5.208-2.574l0.05-0.024c-1.762-4.642-3.472-8.181-5.91-12.745c1.39-1.323,4.375-2.947,6.381-3.735       L396.022,313.68z" fill="#000e3f" data-original="#000e3f" class=""></path>
					<path style="" d="M417.504,298.593c0.929,2.128,1.796,4.559,1.963,6.784c-6.913,2.407-14.082,5.535-20.816,7.31       c-4.196-11.756-8.833-22.844-12.315-34.683c7.713-3.207,20.768-8.093,20.878-7.787c1.201,2.257,1.717,4.814,2.565,7.198       l0.019,0.048c-3.964,2.5-8.747,3.35-13.065,5.344l-0.15,0.055l-0.033,0.069c0.757,1.958,1.06,4.251,2.166,5.913l0.069,0.031       c2.078-0.571,4.191-1.38,6.288-2.07l0.017,0.05c1.17,2.154,1.679,4.544,2.615,7.009c-1.877,1.299-5.423,1.934-5.934,2.744       c0.351,2.106,1.531,4.769,2.259,6.338l0.069,0.031c4.461-1.593,8.809-2.684,13.37-4.482L417.504,298.593z" fill="#000e3f" data-original="#000e3f" class=""></path>
					<path style="" d="M449.234,260.604c1.251,12.41,2.102,24.733,3.417,37.186c-0.447,0.251-1.089,0.317-1.779,0.446       l-1.903,0.363l-0.63,0.117c-1.528-1.409-3.181-6.679-4.821-8.399l-0.053,0.012c-1.027,1.509-0.425,7.307-1.194,9.316       c-0.869,0.33-1.536,0.564-2.543,0.755c-0.578,0.11-1.225,0.177-2.037,0.22l-0.052,0.012       c-3.971-11.732-8.236-23.574-10.758-35.746l-0.009-0.052c1.029-0.358,2.171-0.685,3.386-0.917       c1.43-0.268,2.877-0.432,4.155-0.621c1.76,6.128,2.596,16.047,5.28,21.833c0.298-3.341,0.415-6.483,0.607-9.805       c0.024-0.169,0.014-0.222,0.057-0.284c0.724,0.356,3.611,7.804,4.857,9.757c-0.568-6.19-2.711-16.351-3.298-22.645       l-0.012-0.052c1.168-0.494,2.426-0.786,3.694-1.027c1.218-0.229,2.388-0.399,3.573-0.511L449.234,260.604z" fill="#000e3f" data-original="#000e3f" class=""></path>
					<path style="" d="M476.163,295.395l0.005,0.055c-2.094,0.652-4.84,0.774-7.188,0.532l-0.055,0.005       c-1.096-2.211-2.24-6.474-3.422-8.461c-1.846-0.076-1.717,0.127-3.324,0.289c-0.728,2.352-0.44,6.698-1.423,9.182       c-0.057,0.007-0.103,0.065-0.155,0.069c-0.573,0.224-2.634,0.167-7.498,0.728c-0.053,0.005-0.053,0.005-0.112-0.043       c0.28-1.488,0.948-20.544,4.303-38.201c1.001-0.265,1.889-0.033,6.553-0.95c0.934,2.715,5.13,14.99,6.359,18.486       L476.163,295.395z M461.15,281.542c1.235-0.074,2.622-0.272,3.957-0.408C461.05,262.894,461.508,270.417,461.15,281.542z" fill="#000e3f" data-original="#000e3f" class=""></path>
					<path style="" d="M500.944,258.099c-3.952,12.871-11.455,24.622-15.727,37.279c-0.43-0.052-0.862-0.05-1.344-0.05       c-1.512,0.005-3.393,0.172-5.06,0.177c-0.43,0-0.86,0.002-1.292-0.052l-0.107,0.002c1.867-5.817,4.489-12.336,7.004-18.638       v-0.11c-1.581-6.292-5.361-12.473-6.83-18.548c1.454-0.003,3.066-0.33,4.628-0.332c0.862-0.005,1.719,0.048,2.529,0.423       c0.707,3.174,2.877,9.089,4.174,11.773c1.447-2.586,3.047-8.778,4.33-11.689c1.289-0.27,3.766-0.385,5.648-0.389       c0.864-0.005,1.617,0.05,2.049,0.103V258.099z" fill="#000e3f" data-original="#000e3f" class=""></path>
					<path style="" d="M502.744,295.686c-0.483-0.036,0.463-4.282,0.602-6.269l0.005-0.052       c1.765-0.575,4.461,0.205,6.553,0.353c-0.193,1.982-0.466,4.334-0.614,6.426l-0.375-0.024c-0.86-0.06-1.232-0.143-2.035-0.198       l-0.107-0.007L502.744,295.686z M505.39,258.071c1.891-0.026,4.669-0.373,6.61,0.358c-0.807,9.165-1.729,19.181-1.946,28.389       c-1.891,0.081-4.843-0.127-6.939-0.22l-0.055-0.005c0.826-9.428,0.895-18.808,2.173-28.532L505.39,258.071z" fill="#000e3f" data-original="#000e3f" class=""></path>
				</g>
			</g>
		</g>
	</g>
	<g>
		<g>
			<g>
				<path style="" d="M397.442,185.076c-7.717-10.325-21.248-33.726-24.058-47.821      c-1.351-6.774,3.046-13.361,9.821-14.712c6.203-1.237,12.249,2.349,14.261,8.163c4.74,13.649,4.871,40.866,3.474,53.419      C400.743,185.881,398.501,186.482,397.442,185.076z" fill="#fd8a02" data-original="#fd8a02"></path>
				<path style="" d="M424.398,176.607c-1.131-10.2-0.978-31.72,2.78-42.528c1.806-5.195,7.481-7.941,12.676-6.135      c4.756,1.654,7.459,6.553,6.495,11.356c-2.253,11.28-13.144,30.014-19.167,38.066C426.34,178.492,424.558,178,424.398,176.607z" fill="#fd8a02" data-original="#fd8a02"></path>
				<path style="" d="M374.376,194.11c-4.275-9.329-15.474-27.707-24.254-35.044c-4.22-3.526-10.5-2.964-14.027,1.257      c-3.229,3.864-3.027,9.456,0.27,13.078c7.733,8.517,26.707,18.982,36.013,22.791C373.68,196.725,374.955,195.386,374.376,194.11      z" fill="#fd8a02" data-original="#fd8a02"></path>
			</g>
		</g>
		<g>
			<g>
				<path style="" d="M442.741,334.877c7.432,10.532,20.318,34.294,22.742,48.461      c1.165,6.809-3.411,13.273-10.219,14.438c-6.235,1.066-12.18-2.683-14.032-8.55c-4.365-13.773-3.751-40.984-2.012-53.494      C439.462,333.982,441.72,333.442,442.741,334.877z" fill="#fd8a02" data-original="#fd8a02"></path>
				<path style="" d="M415.563,342.605c0.852,10.227,0.11,31.735-3.942,42.436c-1.947,5.143-7.695,7.734-12.839,5.786      c-4.71-1.783-7.277-6.755-6.182-11.529c2.561-11.215,13.959-29.643,20.2-37.528      C413.674,340.668,415.442,341.209,415.563,342.605z" fill="#fd8a02" data-original="#fd8a02"></path>
				<path style="" d="M466.046,326.477c4.018,9.443,14.71,28.12,23.287,35.694c4.122,3.641,10.415,3.25,14.056-0.873      c3.333-3.775,3.285-9.37,0.088-13.081c-7.497-8.725-26.178-19.706-35.376-23.767      C466.813,323.882,465.501,325.185,466.046,326.477z" fill="#fd8a02" data-original="#fd8a02"></path>
			</g>
		</g>
	</g>
</g>















</g></svg>