<svg xmlns="http://www.w3.org/2000/svg" version="1.1" xmlns:xlink="http://www.w3.org/1999/xlink" xmlns:svgjs="http://svgjs.com/svgjs" width="512" height="512" x="0" y="0" viewBox="0 0 512 512" style="enable-background:new 0 0 512 512" xml:space="preserve" class=""><g>
<g>
	<g>
		<g>
			<g>
				<path style="" d="M482.897,312.986l15.595,53.445c1.03,3.529-0.996,7.224-4.525,8.254l-0.67,0.196      c-3.529,1.03-7.225-0.996-8.255-4.525l-15.414-52.824c1.938-3.535,3.045-5.554,4.983-9.088l0,0      C477.846,310.217,479.661,311.212,482.897,312.986z" fill="#322bbf" data-original="#322bbf" class=""></path>
				<path style="" d="M491.42,376.74c-1.367,0-2.72-0.344-3.952-1.019c-1.93-1.059-3.334-2.806-3.951-4.921      l-15.414-52.824c-0.117-0.404-0.071-0.839,0.133-1.208l4.981-9.088c0.202-0.37,0.543-0.643,0.948-0.761      c0.402-0.117,0.838-0.071,1.208,0.132l8.286,4.543c0.369,0.202,0.643,0.544,0.762,0.948l15.596,53.445      c1.272,4.364-1.243,8.95-5.606,10.223l-0.67,0.196C492.976,376.629,492.196,376.74,491.42,376.74z M471.339,317.718      l15.229,52.193c0.379,1.299,1.241,2.373,2.427,3.023c1.188,0.651,2.556,0.8,3.858,0.421l0.67-0.196      c2.682-0.784,4.227-3.603,3.444-6.285l-15.412-52.813l-6.316-3.463L471.339,317.718z" fill="#000e3f" data-original="#000e3f" class=""></path>
			</g>
			<g>
				<g>
					<path style="" d="M503.724,313.103l-65.216,19.03c-4.924,1.437-10.092-1.383-11.529-6.307l-3.119-10.689       c-1.437-4.925,1.399-10.098,6.323-11.535l60.566-17.673c3.568-1.041,7.399,0.136,9.755,2.988l7.535,9.068l0.219,0.269       C512.544,303.398,510.134,311.233,503.724,313.103z" fill="#6280ff" data-original="#6280ff" class=""></path>
					<path style="" d="M503.724,313.103l-65.216,19.03c-4.924,1.437-10.092-1.383-11.529-6.307l-1.126-3.859       l82.186-23.982l0.219,0.269C512.544,303.398,510.134,311.233,503.724,313.103z" fill="#322bbf" data-original="#322bbf" class=""></path>
				</g>
				<path style="" d="M435.904,334.096c-4.713,0-9.067-3.085-10.451-7.826l-3.118-10.689      c-0.814-2.789-0.491-5.731,0.908-8.283c1.4-2.553,3.706-4.407,6.495-5.22l60.566-17.673c4.177-1.22,8.662,0.157,11.423,3.501      l7.762,9.345c2.343,2.811,3.106,6.596,2.034,10.111c-1.074,3.52-3.823,6.236-7.355,7.266l-65.215,19.031      C437.938,333.955,436.912,334.096,435.904,334.096z M493.359,287.144c-0.721,0-1.448,0.102-2.165,0.31l-60.566,17.673      c-1.974,0.577-3.608,1.889-4.599,3.698c-0.991,1.808-1.22,3.892-0.643,5.866l3.118,10.69c1.19,4.074,5.476,6.414,9.56,5.228      l65.215-19.031l0,0c2.499-0.73,4.445-2.653,5.206-5.144c0.771-2.524,0.243-5.135-1.448-7.164l-0.231-0.283l-7.524-9.056      C497.798,288.137,495.616,287.144,493.359,287.144z" fill="#000e3f" data-original="#000e3f" class=""></path>
			</g>
		</g>
		<g>
			<g>
				<g>
					<path style="" d="M447.033,305.874c0.119,6.512-1.455,12.735-4.376,18.208       c-4.645,8.698-12.667,15.457-22.61,18.358l-281.695,82.199c-16.283,4.751-33.723-2.007-42.532-16.512       c-14.914-24.556-26.805-50.763-35.398-78.076c-5.255-16.57-7.293-32.935-6.53-48.684       c1.928-40.247,22.097-76.402,53.509-101.325c50.585-40.121,138.85-61.445,203.88-62.983       c38.982-0.918,85.718,8.212,103.798,47.24C435.637,208.701,446.097,256.557,447.033,305.874z" fill="#ff8ede" data-original="#ff8ede" class=""></path>
					<path style="" d="M434.144,216.19c9.309,33.491,12.426,64.373,12.889,89.684       c0.303,16.871-10.783,31.838-26.986,36.566l-281.695,82.199c-16.283,4.751-33.723-2.007-42.532-16.512       C82.946,386.944,69.29,359.5,59.186,326.067l-0.125-0.427L434.144,216.19z" fill="#6280ff" data-original="#6280ff" class=""></path>
					<g>
						<path style="" d="M126.35,353.779c2.85-5.924,11.622-8.722,17.734-7.229c6.05,1.478,7.678,8.217,0.457,12.812        C134.65,365.655,122.654,361.464,126.35,353.779z" fill="#fc09b2" data-original="#fc09b2" class=""></path>
						<path style="" d="M201.272,331.891c-5.591-3.459-14.49-1.093-18.837,3.454        c-4.303,4.502-2.047,11.058,6.512,11.043C200.67,346.368,208.524,336.378,201.272,331.891z" fill="#fc09b2" data-original="#fc09b2" class=""></path>
						<path style="" d="M445.77,281.347c0.738,8.634,1.118,16.836,1.263,24.528        c0.303,16.871-10.783,31.838-26.986,36.566l-281.695,82.199c-16.283,4.751-33.723-2.007-42.532-16.512        c-3.935-6.484-7.948-13.54-11.904-21.191L445.77,281.347z" fill="#fc09b2" data-original="#fc09b2" class=""></path>
					</g>
					<g>
						<path style="" d="M445.503,278.296c0.093,1.015,0.174,2.035,0.267,3.05c0.055,0.635,0.107,1.258,0.144,1.884        c0.104,1.201,0.191,2.392,0.265,3.587L86.472,391.781c-0.567-1.051-1.135-2.102-1.692-3.17        c-0.278-0.556-0.57-1.108-0.865-1.674c-0.468-0.907-0.935-1.813-1.402-2.719L445.503,278.296z" fill="#ffffff" data-original="#ffffff" class=""></path>
						<path style="" d="M432.078,209.059c0.728,2.394,1.407,4.774,2.066,7.131c0.089,0.307,0.175,0.601,0.251,0.912        L59.34,326.544c-0.06-0.156-0.107-0.317-0.153-0.477l-0.125-0.427c-0.714-2.398-1.368-4.786-1.933-7.17L432.078,209.059z" fill="#ffffff" data-original="#ffffff" class=""></path>
						<g>
							<path style="" d="M368.819,256.426l5.078,5.534c0.193,0.21,0.477,0.312,0.76,0.273l7.438-1.045         c0.712-0.1,1.23,0.66,0.876,1.286l-3.695,6.539c-0.14,0.249-0.15,0.551-0.024,0.807l3.292,6.751         c0.315,0.646-0.248,1.374-0.952,1.231l-7.361-1.493c-0.28-0.057-0.57,0.028-0.775,0.226l-5.403,5.217         c-0.517,0.5-1.383,0.189-1.465-0.526l-0.855-7.462c-0.033-0.284-0.202-0.533-0.455-0.667l-6.632-3.526         c-0.635-0.338-0.607-1.257,0.047-1.556l6.833-3.119c0.26-0.119,0.445-0.357,0.494-0.639l1.304-7.397         C367.45,256.153,368.333,255.896,368.819,256.426z" fill="#ffffff" data-original="#ffffff" class=""></path>
						</g>
					</g>
					<g style="opacity:0.25;">
						<path style="" d="M442.656,324.082c-4.645,8.698-12.667,15.457-22.61,18.358l-281.695,82.199        c-16.283,4.751-33.723-2.007-42.532-16.512c-14.914-24.556-26.805-50.763-35.398-78.076        c-5.255-16.57-7.293-32.935-6.53-48.684c2.663-0.951,5.515-1.001,8.179,0.223c12.393,5.699,11.988,22.816,16.155,33.802        c6.849,18.053,16.479,34.868,27.757,50.501c8.836,12.248,18.934,25.18,34.084,29.583c16.063,4.669,28.087-1.128,42.861-5.888        c5.603-1.794,122.783-35.307,230.88-69.124c9.235-2.898,20.758-5.246,27.479,1.902        C441.794,322.914,442.252,323.491,442.656,324.082z" fill="#000e3f" data-original="#000e3f" class=""></path>
					</g>
					<path style="opacity:0.5;" d="M106.776,196.824c35.87-24.277,98.1-50.857,158.536-60.007       c1.385-0.21,2.678,0.743,2.888,2.128c0.331,2.192-1.957,2.931-1.814,2.82c-13.456,4.179-26.919,8.025-40.201,12.495       c-64.771,21.069-119.395,47.801-117.054,46.694c-1.19,0.563-2.612,0.054-3.174-1.136       C105.447,198.739,105.817,197.471,106.776,196.824z" fill="#ffffff" data-original="#ffffff" class=""></path>
					<g>
						<g>
							<path style="" d="M328.691,262.631l7.34,8c0.279,0.304,0.69,0.452,1.099,0.394l10.752-1.511         c1.03-0.145,1.778,0.954,1.267,1.859l-5.341,9.453c-0.203,0.36-0.216,0.796-0.035,1.167l4.76,9.759         c0.456,0.934-0.358,1.986-1.377,1.779l-10.641-2.158c-0.405-0.082-0.824,0.04-1.121,0.327l-7.81,7.542         c-0.748,0.722-2,0.273-2.118-0.759l-1.236-10.787c-0.047-0.41-0.293-0.771-0.658-0.965l-9.586-5.097         c-0.918-0.488-0.878-1.817,0.068-2.249l9.877-4.508c0.376-0.172,0.643-0.517,0.714-0.923l1.885-10.692         C326.712,262.237,327.988,261.865,328.691,262.631z" fill="#322bbf" data-original="#322bbf" class=""></path>
						</g>
						<g>
							<path style="" d="M406.423,239.949l7.34,8c0.279,0.304,0.69,0.452,1.099,0.394l10.752-1.511         c1.03-0.145,1.778,0.954,1.267,1.859l-5.341,9.453c-0.203,0.36-0.216,0.796-0.035,1.167l4.76,9.759         c0.456,0.934-0.358,1.986-1.377,1.779l-10.641-2.158c-0.405-0.082-0.824,0.04-1.121,0.327l-7.81,7.542         c-0.748,0.722-1.999,0.273-2.118-0.76l-1.236-10.787c-0.047-0.41-0.293-0.771-0.658-0.965l-9.586-5.097         c-0.918-0.488-0.878-1.817,0.068-2.249l9.877-4.508c0.376-0.171,0.643-0.517,0.714-0.923l1.885-10.692         C404.444,239.555,405.72,239.183,406.423,239.949z" fill="#322bbf" data-original="#322bbf" class=""></path>
						</g>
						<path style="" d="M198.067,311.549c-1.103-3.774-3.61-6.892-7.058-8.781c-3.448-1.889-7.425-2.321-11.198-1.218        c-3.775,1.1-6.889,3.607-8.781,7.056c-0.967,1.766-1.546,3.671-1.74,5.617c-3.156-0.976-7.739-1.702-12.979-0.389        c-6.146,1.541-10.223,5.168-12.52,7.857c-3.609-4.577-9.761-6.768-15.689-5.036c-3.776,1.102-6.894,3.61-8.781,7.056        c-1.89,3.448-2.323,7.427-1.22,11.2c2.277,7.789,10.465,12.275,18.254,9.999c1.673-0.488,3.217-1.252,4.581-2.252        c1.716-1.257,3.149-2.884,4.2-4.804c1.89-3.448,2.324-7.426,1.221-11.199c-0.145-0.495-0.315-0.976-0.505-1.444        c1.678-2.253,5.343-6.166,11.386-7.68c5.195-1.302,9.621-0.219,12.221,0.782c0.092,0.499,0.206,0.997,0.351,1.491        c2.277,7.79,10.466,12.275,18.255,10c1.686-0.492,3.217-1.261,4.557-2.243C197.48,324.004,199.849,317.654,198.067,311.549z         M141.795,336.023c-1.4,2.555-3.712,4.414-6.508,5.23c-5.773,1.687-11.841-1.638-13.526-7.411        c-0.818-2.796-0.497-5.743,0.903-8.298c0.78-1.423,1.842-2.629,3.113-3.56c1.012-0.741,2.156-1.308,3.395-1.67        c5.772-1.687,11.84,1.638,13.527,7.412C143.515,330.521,143.195,333.469,141.795,336.023z M194.408,312.618        c1.686,5.774-1.642,11.842-7.411,13.529c-5.772,1.686-11.84-1.638-13.527-7.412c-0.818-2.795-0.497-5.743,0.903-8.298        c1.402-2.558,3.715-4.414,6.507-5.229c2.797-0.817,5.744-0.497,8.299,0.903C191.733,307.511,193.591,309.822,194.408,312.618z        " fill="#322bbf" data-original="#322bbf" class=""></path>
					</g>
				</g>
				<g>
					<path style="" d="M130.005,326.241c-4.787,2.681-3.784,9.868,1.15,11.671c6.134,2.241,12.046-4.502,7.932-9.777       C136.749,325.138,132.804,324.673,130.005,326.241z" fill="#000e3f" data-original="#000e3f" class=""></path>
					<path style="" d="M183.348,310.657c-3.204,0.186-6.278,2.701-6.635,6.486c-0.628,6.66,7.986,9.16,11.948,3.969       C191.848,316.936,188.824,310.34,183.348,310.657z" fill="#000e3f" data-original="#000e3f" class=""></path>
					<path style="" d="M168.382,326.169c-7.992,0.408-16.282,4.04-18.291,5.702c-3.193,2.62-0.743,6.864,1.889,9.277       l7.35-2.672l13.653-3.36c0.591-1.816,0.651-3.805-0.023-5.909C172.351,327.28,170.841,326.048,168.382,326.169z" fill="#000e3f" data-original="#000e3f" class=""></path>
					<path style="" d="M127.88,427.726c-13.393,0-26.213-6.91-33.42-18.774       c-14.965-24.637-26.928-51.023-35.553-78.424c-17.818-56.22,0.384-114.361,47.506-151.73       c52.222-41.414,142.788-61.858,204.835-63.328c30.653-0.717,85.081,4.565,105.27,48.161       c20.35,43.933,31.151,91.78,32.103,142.213c0,0.001,0,0.001,0,0.002c0.316,17.519-11.251,33.195-28.128,38.118l-281.696,82.199       C135.183,427.219,131.51,427.726,127.88,427.726z M316.305,118.588c-1.724,0-3.384,0.021-4.982,0.059       c-61.535,1.457-151.288,21.681-202.936,62.64c-46.065,36.53-63.864,93.349-46.451,148.284       c8.55,27.161,20.405,53.312,35.24,77.731c8.413,13.853,25.16,20.351,40.73,15.812l281.696-82.199       c15.505-4.525,26.13-18.921,25.842-35.012c-0.945-49.987-11.647-97.406-31.81-140.936       C395.248,125.262,346.769,118.588,316.305,118.588z" fill="#000e3f" data-original="#000e3f" class=""></path>
				</g>
				<path style="" d="M172.983,335.117c-2.333,7.15-12.879,11.396-19.527,7.198c-0.478-0.308-0.981-0.699-1.476-1.167      c1.517-3.804,4.723-6.892,8.963-8.13C165.236,331.764,169.639,332.673,172.983,335.117z" fill="#ff8ede" data-original="#ff8ede" class=""></path>
			</g>
			<g>
				<g>
					<path style="" d="M184.934,219.851l10.746,36.825c1.458,4.997-1.405,10.219-6.402,11.677l-87.006,25.388       c-3.258,0.951-6.626,0.06-8.952-2.072c-1.264-1.122-2.222-2.603-2.726-4.33l-10.746-36.825       c-3.71-12.715,3.59-26.032,16.305-29.742l59.038-17.227C167.92,199.831,181.224,207.136,184.934,219.851z" fill="#00d5fe" data-original="#00d5fe"></path>
					<path style="" d="M184.934,219.851l1.718,5.887L81.567,256.402l-1.718-5.887       c-0.382-1.308-0.651-2.621-0.791-3.928c-1.361-11.428,5.69-22.486,17.097-25.814l59.038-17.227       c11.42-3.333,23.298,2.202,28.297,12.568C184.074,217.292,184.553,218.543,184.934,219.851z" fill="#fc09b2" data-original="#fc09b2" class=""></path>
					<g style="opacity:0.25;">
						<path style="" d="M186.664,225.777l9.016,30.899c1.458,4.997-1.405,10.219-6.402,11.677l-87.006,25.388        c-3.258,0.951-6.626,0.06-8.952-2.072c0.651-2.731,2.008-5.328,3.86-7.302c4.639-4.974,11.413-7.007,17.853-8.872        c11.723-3.364,23.443-6.742,35.162-10.119c7.36-2.119,15.206-4.565,19.854-10.819c6.183-8.291,5.529-21.771,14.007-27.453        C184.875,226.555,185.754,226.114,186.664,225.777z" fill="#322bbf" data-original="#322bbf" class=""></path>
					</g>
					<path style="" d="M184.934,219.851l1.718,5.887L81.567,256.402l-1.718-5.887       c-0.382-1.308-0.651-2.621-0.791-3.928l104.431-30.473C184.074,217.292,184.553,218.543,184.934,219.851z" fill="#322bbf" data-original="#322bbf" class=""></path>
					<path style="" d="M91.169,263.609c13.399-6.403,37.739-13.426,51.611-15.167c1.939-0.243,2.73,2.438,0.958,3.282       c-12.864,6.104-37.056,13.178-51.668,14.97C90.248,266.918,89.508,264.405,91.169,263.609z" fill="#ffffff" data-original="#ffffff" class=""></path>
				</g>
				<path style="" d="M99.659,295.703c-2.711,0-5.381-1.001-7.412-2.862c-1.494-1.324-2.599-3.078-3.178-5.054      L78.324,250.96c-1.913-6.557-1.158-13.467,2.125-19.457c3.284-5.99,8.703-10.342,15.26-12.256l59.038-17.227      c13.543-3.951,27.762,3.85,31.713,17.385l0,0l10.746,36.825c0.824,2.823,0.5,5.798-0.914,8.374      c-1.412,2.576-3.744,4.449-6.569,5.273l-87.007,25.389C101.713,295.56,100.685,295.703,99.659,295.703z M161.901,204.171      c-2.072,0-4.176,0.29-6.264,0.899l-59.038,17.227c-5.742,1.676-10.489,5.488-13.364,10.734      c-2.875,5.245-3.537,11.297-1.86,17.04l10.744,36.825c0.409,1.401,1.189,2.641,2.255,3.585c2.005,1.837,4.849,2.495,7.453,1.737      l87.007-25.389c4.144-1.209,6.531-5.564,5.321-9.708l-10.746-36.825C180.56,210.528,171.599,204.171,161.901,204.171z" fill="#000e3f" data-original="#000e3f" class=""></path>
			</g>
			<g>
				<g>
					<path style="" d="M394.405,158.727l10.746,36.825c1.458,4.997-1.405,10.219-6.402,11.677l-87.006,25.389       c-3.258,0.951-6.626,0.06-8.952-2.072c-1.264-1.122-2.222-2.603-2.726-4.33l-10.746-36.825       c-3.71-12.715,3.59-26.032,16.305-29.742l59.038-17.227C377.392,138.707,390.695,146.012,394.405,158.727z" fill="#00d5fe" data-original="#00d5fe"></path>
					<path style="" d="M394.405,158.727l1.718,5.887l-105.085,30.664l-1.718-5.887       c-0.382-1.308-0.651-2.621-0.791-3.928c-1.361-11.428,5.69-22.485,17.097-25.814l59.038-17.227       c11.42-3.332,23.298,2.202,28.297,12.568C393.545,156.168,394.024,157.419,394.405,158.727z" fill="#fc09b2" data-original="#fc09b2" class=""></path>
					<g style="opacity:0.25;">
						<path style="" d="M396.135,164.653l9.016,30.899c1.458,4.997-1.405,10.219-6.402,11.677l-87.006,25.389        c-3.258,0.951-6.626,0.06-8.952-2.072c0.651-2.731,2.008-5.328,3.86-7.302c4.639-4.974,11.413-7.007,17.853-8.872        c11.723-3.364,23.443-6.742,35.162-10.119c7.36-2.119,15.206-4.565,19.854-10.819c6.183-8.291,5.529-21.771,14.007-27.453        C394.346,165.431,395.225,164.99,396.135,164.653z" fill="#322bbf" data-original="#322bbf" class=""></path>
					</g>
					<path style="" d="M394.405,158.727l1.718,5.887l-105.085,30.664l-1.718-5.887       c-0.382-1.308-0.651-2.621-0.791-3.928L392.96,154.99C393.545,156.168,394.024,157.419,394.405,158.727z" fill="#322bbf" data-original="#322bbf" class=""></path>
					<path style="" d="M300.64,202.485c13.399-6.403,37.739-13.426,51.611-15.167c1.939-0.243,2.73,2.438,0.958,3.282       c-12.588,5.972-36.835,13.151-51.668,14.97c-0.893,0.109-1.705-0.526-1.815-1.418       C299.638,203.44,300.027,202.779,300.64,202.485z" fill="#ffffff" data-original="#ffffff" class=""></path>
				</g>
				<path style="" d="M309.129,234.579c-2.711,0-5.381-1.001-7.412-2.862c-1.496-1.328-2.601-3.082-3.177-5.056      l-10.746-36.825c-3.949-13.535,3.849-27.761,17.385-31.712l59.038-17.227c6.564-1.917,13.476-1.16,19.463,2.124      c5.986,3.284,10.337,8.703,12.25,15.262l10.746,36.825c0.824,2.823,0.5,5.798-0.914,8.374c-1.412,2.576-3.744,4.449-6.569,5.273      l-87.007,25.389C311.184,234.436,310.153,234.579,309.129,234.579z M371.419,143.039c-2.11,0-4.23,0.301-6.312,0.908      l-59.038,17.227c-11.854,3.46-18.683,15.919-15.224,27.773l10.746,36.825c0.407,1.399,1.186,2.638,2.255,3.585      c2.001,1.837,4.849,2.494,7.452,1.737l87.007-25.389c2.01-0.587,3.67-1.919,4.673-3.751c1.005-1.831,1.234-3.947,0.648-5.957      l-10.746-36.825l0,0c-1.675-5.743-5.485-10.49-10.727-13.366C378.807,143.972,375.132,143.039,371.419,143.039z" fill="#000e3f" data-original="#000e3f" class=""></path>
			</g>
			<g>
				<g>
					<path style="" d="M272.21,179.334l49.47,169.534l-78.263,22.837l-49.47-169.534       c-1.474-5.052,1.421-10.356,6.488-11.834l59.941-17.491C265.443,171.367,270.736,174.282,272.21,179.334z" fill="#322bbf" data-original="#322bbf" class=""></path>
					<g>
						<path style="" d="M261.081,195.775l11.45,39.239c0.532,1.823-0.508,3.719-2.33,4.251l-13.487,3.935        c-1.745,0.509-3.575-0.415-4.183-2.099c-0.038-0.073-0.06-0.15-0.083-0.228l-11.45-39.24        c-0.532-1.823,0.523-3.724,2.345-4.255l13.487-3.936C258.653,192.912,260.549,193.952,261.081,195.775z" fill="#00d5fe" data-original="#00d5fe"></path>
						<path style="" d="M227.873,251.622l13.491-3.937c1.82-0.531,2.865-2.437,2.334-4.258l-11.45-39.239        c-0.531-1.82-2.437-2.865-4.258-2.334l-13.491,3.937c-1.82,0.531-2.865,2.437-2.334,4.258l11.45,39.239        C224.147,251.108,226.053,252.153,227.873,251.622z" fill="#00d5fe" data-original="#00d5fe"></path>
					</g>
					<path style="" d="M232.091,278.332c1.245,4.266,5.712,6.715,9.978,5.47c4.266-1.245,6.715-5.712,5.47-9.978       c-1.245-4.266-5.712-6.715-9.979-5.47C233.295,269.598,230.846,274.066,232.091,278.332z" fill="#ff8ede" data-original="#ff8ede" class=""></path>
					<g style="opacity:0.25;">
						<path style="" d="M289.723,239.352l31.957,109.516l-78.263,22.837l-1.681-5.762        c1.94-7.255,6.099-13.799,13.087-18.806c10.804-7.729,29.337-6.952,32.673-23.499c4.123-20.398-10.095-52.577-3.019-74.289        C285.645,245.772,287.425,242.336,289.723,239.352z" fill="#000e3f" data-original="#000e3f" class=""></path>
					</g>
					<g style="opacity:0.25;">
						<g>
							<path style="" d="M261.081,195.775l11.45,39.239c0.532,1.823-0.508,3.719-2.33,4.251l-13.487,3.935         c-1.745,0.509-3.575-0.415-4.183-2.099c-0.003-0.067,0.006-0.153,0.019-0.224c1.508-9.828,13.308-0.179,8.498-22.295         c-1.069-4.868-5.698-17.515-5.242-22.56c0.081-0.929,0.42-1.833,0.916-2.547l0.108-0.032         C258.653,192.912,260.549,193.952,261.081,195.775z" fill="#322bbf" data-original="#322bbf" class=""></path>
						</g>
						<g>
							<path style="" d="M232.249,204.188l11.45,39.239c0.532,1.823-0.508,3.719-2.33,4.251l-13.487,3.935         c-1.745,0.509-3.575-0.415-4.183-2.099c-0.003-0.067,0.006-0.153,0.019-0.224c1.507-9.828,13.308-0.179,8.498-22.295         c-1.069-4.868-5.698-17.515-5.242-22.56c0.081-0.929,0.42-1.833,0.916-2.547l0.108-0.032         C229.821,201.326,231.717,202.365,232.249,204.188z" fill="#322bbf" data-original="#322bbf" class=""></path>
						</g>
					</g>
					<g>
						<path style="" d="M221.02,211.04c1.038,1.705,1.841,3.479,2.562,5.277c0.735,1.794,1.351,3.622,1.902,5.47        c0.544,1.849,1.019,3.719,1.376,5.622c0.372,1.899,0.659,3.824,0.709,5.817c0.018,0.692-0.529,1.267-1.221,1.284        c-0.466,0.012-0.879-0.234-1.105-0.606c-1.03-1.708-1.822-3.485-2.531-5.286c-0.722-1.797-1.328-3.629-1.864-5.48        c-0.529-1.854-0.993-3.727-1.338-5.634c-0.359-1.903-0.636-3.831-0.678-5.826c-0.014-0.651,0.503-1.19,1.154-1.204        C220.423,210.465,220.808,210.694,221.02,211.04z" fill="#ffffff" data-original="#ffffff" class=""></path>
						<path style="" d="M249.858,202.625c1.038,1.705,1.841,3.479,2.562,5.277c0.735,1.794,1.351,3.622,1.902,5.47        c0.544,1.849,1.019,3.719,1.376,5.622c0.372,1.899,0.659,3.824,0.709,5.817c0.018,0.692-0.529,1.267-1.221,1.284        c-0.465,0.012-0.879-0.234-1.105-0.606c-1.029-1.708-1.822-3.485-2.531-5.286c-0.723-1.797-1.328-3.629-1.864-5.48        c-0.529-1.854-0.993-3.727-1.338-5.634c-0.359-1.903-0.636-3.83-0.678-5.826c-0.014-0.651,0.503-1.19,1.154-1.204        C249.26,202.05,249.646,202.279,249.858,202.625z" fill="#ffffff" data-original="#ffffff" class=""></path>
					</g>
					<path style="" d="M240.464,377.316l86.722-25.306c3.413-0.996,5.372-4.57,4.376-7.983l0,0       c-0.996-3.413-4.57-5.372-7.983-4.376l-86.722,25.305c-3.413,0.996-5.372,4.57-4.376,7.983l0,0       C233.478,376.352,237.052,378.312,240.464,377.316z" fill="#ff8ede" data-original="#ff8ede" class=""></path>
				</g>
				<g>
					<path style="" d="M334.61,343.142c-0.709-2.461-2.357-4.504-4.609-5.735c-1.418-0.792-3.024-1.189-4.63-1.189       c-0.897,0-1.814,0.125-2.69,0.375l-2.711,0.792l-46.234-158.492c-0.834-2.857-2.732-5.214-5.339-6.632       c-2.607-1.439-5.61-1.773-8.467-0.938l-59.935,17.497c-5.881,1.71-9.28,7.904-7.57,13.805l46.255,158.492l-2.711,0.792       c-2.461,0.709-4.505,2.357-5.735,4.609s-1.523,4.838-0.792,7.32c0.709,2.461,2.357,4.505,4.609,5.735       c1.418,0.772,3.024,1.189,4.63,1.189c0.897,0,1.793-0.125,2.669-0.396l86.712-25.296c2.482-0.709,4.525-2.357,5.756-4.609       C335.047,348.189,335.339,345.603,334.61,343.142z M195.47,201.73c-1.209-4.213,1.21-8.634,5.422-9.864l59.935-17.497       c0.73-0.209,1.48-0.313,2.231-0.313c1.314,0,2.628,0.334,3.816,0.98c1.856,1.022,3.212,2.711,3.816,4.755l46.255,158.471       l-75.2,21.959L195.47,201.73z M327.185,352.026l-86.733,25.296c-0.584,0.188-1.189,0.271-1.772,0.271       c-1.105,0-2.169-0.292-3.107-0.813c-1.439-0.792-2.586-2.148-3.087-3.837c-1.001-3.42,0.96-6.986,4.359-7.987l2.732-0.792       l3.044-0.897l75.2-21.939l3.044-0.876l2.711-0.792c0.584-0.188,1.21-0.271,1.794-0.271c1.105,0,2.169,0.292,3.107,0.792       c1.439,0.792,2.586,2.127,3.086,3.858C332.545,347.438,330.605,351.025,327.185,352.026z" fill="#000e3f" data-original="#000e3f" class=""></path>
					<path style="" d="M275.592,234.116l-11.47-39.227c-0.813-2.815-3.42-4.755-6.319-4.755       c-0.626,0-1.251,0.083-1.856,0.25l-13.492,3.941c-1.689,0.5-3.087,1.627-3.941,3.17c-0.855,1.543-1.064,3.337-0.563,5.026       l11.449,39.248c0.042,0.125,0.104,0.313,0.188,0.563c0.98,2.503,3.441,4.192,6.152,4.192c0.626,0,1.251-0.104,1.856-0.271       l13.493-3.941c1.689-0.501,3.107-1.606,3.941-3.17C275.884,237.599,276.072,235.826,275.592,234.116z M270.191,239.267       l-13.472,3.941c-0.333,0.083-0.646,0.125-0.98,0.125c-1.397,0-2.711-0.855-3.212-2.231c-0.042-0.083-0.062-0.146-0.083-0.229       l-11.449-39.248c-0.521-1.814,0.521-3.712,2.357-4.254l13.472-3.921c0.334-0.104,0.646-0.146,0.98-0.146       c1.481,0,2.836,0.98,3.274,2.461l11.449,39.248C273.069,236.827,272.026,238.725,270.191,239.267z" fill="#000e3f" data-original="#000e3f" class=""></path>
					<path style="" d="M235.302,203.294c-0.813-2.794-3.42-4.755-6.34-4.755c-0.625,0-1.251,0.083-1.856,0.271       l-13.493,3.921c-1.689,0.501-3.107,1.627-3.942,3.17c-0.855,1.564-1.043,3.337-0.563,5.047l11.449,39.227       c0.834,2.815,3.441,4.755,6.361,4.755c0.625,0,1.251-0.083,1.835-0.25l13.492-3.941c1.71-0.501,3.107-1.627,3.963-3.17       c0.834-1.543,1.043-3.337,0.542-5.026L235.302,203.294z M241.371,247.692l-13.493,3.921c-0.334,0.104-0.646,0.146-0.959,0.146       c-1.502,0-2.857-0.98-3.295-2.461l-11.449-39.248c-0.542-1.814,0.5-3.733,2.315-4.254l13.493-3.941       c0.333-0.104,0.646-0.146,0.98-0.146c1.481,0,2.857,0.98,3.295,2.482l11.449,39.227       C244.227,245.252,243.185,247.15,241.371,247.692z" fill="#000e3f" data-original="#000e3f" class=""></path>
				</g>
			</g>
		</g>
		<g>
			<g>
				<path style="" d="M228.536,408.827c4.765,23.71-10.604,46.813-34.335,51.583      c-14.822,2.979-29.425-1.918-39.442-11.783c-5.985-5.92-10.35-13.643-12.137-22.532c-7.686-38.241,34.69-66.336,66.83-45.365      C218.995,386.927,226.12,396.807,228.536,408.827z" fill="#6280ff" data-original="#6280ff" class=""></path>
				
					<ellipse transform="matrix(0.5481 -0.8364 0.8364 0.5481 -265.2992 343.8442)" style="" cx="185.575" cy="417.454" rx="24.951" ry="24.951" fill="#322bbf" data-original="#322bbf" class=""></ellipse>
				<g style="opacity:0.25;">
					<path style="" d="M228.536,408.827c4.765,23.71-10.604,46.813-34.335,51.583       c-14.822,2.979-29.425-1.918-39.442-11.783c4.446-1.339,9.282-1.238,13.914-0.651c5.362,0.703,10.659,1.986,16.079,2.273       c8.486,0.44,17.465-1.911,23.381-8.018c6.184-6.383,8.148-15.945,7.334-24.827c-0.829-8.859-4.082-17.291-7.121-25.665       c-0.971-2.719-1.92-5.725-0.841-8.411c0.403-1.012,1.095-1.9,1.947-2.597C218.995,386.927,226.12,396.807,228.536,408.827z" fill="#000e3f" data-original="#000e3f" class=""></path>
				</g>
				<path style="opacity:0.5;" d="M179.757,384.371c-22.697,8.504-23.236,22.501-24.175,23.665      c-2.793,12.701,0.791,17.712-2.163,17.699c-0.578-0.003-1.061-0.4-1.195-0.935c-1.595-6.312-1.896-8.282-1.63-14.153      c0.534-13.706,12.445-26.554,28.725-28.575c0.641-0.08,1.225,0.376,1.304,1.016c0.069,0.547-0.254,1.053-0.749,1.239      L179.757,384.371z" fill="#ffffff" data-original="#ffffff" class=""></path>
			</g>
			<g>
				<path style="" d="M175.55,419.469c1.113,5.537,6.503,9.123,12.039,8.01c5.537-1.113,9.123-6.503,8.01-12.039      c-1.113-5.537-6.503-9.123-12.039-8.01C178.024,408.542,174.438,413.932,175.55,419.469z" fill="#000e3f" data-original="#000e3f" class=""></path>
				<path style="" d="M185.805,373.569c7.926,0,16.07,2.217,23.648,7.161c9.542,6.197,16.667,16.077,19.083,28.098      c4.765,23.71-10.604,46.813-34.335,51.582c-2.908,0.585-5.809,0.866-8.667,0.866c-11.709,0-22.723-4.719-30.774-12.649      c-5.985-5.921-10.351-13.644-12.137-22.533C136.749,396.869,160.116,373.571,185.805,373.569 M185.809,370.392v3.177V370.392      h-0.003c-14.047,0.001-27.827,6.588-36.863,17.621c-8.913,10.884-12.264,24.63-9.434,38.707      c1.852,9.217,6.354,17.573,13.018,24.165c8.756,8.624,20.786,13.567,33.009,13.567c3.102,0,6.229-0.312,9.293-0.928      c12.308-2.474,22.916-9.591,29.872-20.043c6.955-10.45,9.424-22.98,6.951-35.281c-2.51-12.492-9.779-23.194-20.468-30.136      C203.492,373.046,194.715,370.392,185.809,370.392L185.809,370.392z" fill="#000e3f" data-original="#000e3f" class=""></path>
			</g>
		</g>
	</g>
	<g>
		<g>
			<g>
				<path style="" d="M31.623,157.518c-0.752,1.65-2.244,3.497-2.872,4.622l-0.021,0.031      c-3.137-1.528-6.185-4.028-9.184-5.556l-0.055,0.009c-1.075,1.099-1.908,2.318-2.474,3.766c2.777,2.269,6.059,3.802,8.469,6.056      c-0.114,1.475-2.675,3.441-2.784,4.495c-3.799-2.216-16.212-10.21-22.669-14.801L0,156.12l0.021-0.032l0.047-0.064      c1.131-1.109,1.689-3.032,2.875-4.009c3.213,1.626,5.821,3.734,8.896,5.08l0.023-0.032c0.979-0.885,1.705-2.362,2.33-3.488      l0.024-0.031c-2.779-2.269-5.121-3.867-8.289-5.84c0.391-1.33,1.674-3.419,2.646-4.636L31.623,157.518z" fill="#000e3f" data-original="#000e3f" class=""></path>
				<path style="" d="M43.228,144.003l0.031,0.025c-0.769,1.387-2.134,2.824-3.478,3.876l-0.028,0.029      c-1.675-0.602-4.406-2.249-6.012-2.692c-1,0.884-0.831,0.924-1.586,1.814c0.796,1.587,3.123,3.708,3.854,5.492      c-0.028,0.03-0.024,0.085-0.048,0.116c-0.186,0.401-1.286,1.403-3.54,4.127c-0.024,0.029-0.024,0.029-0.079,0.033      c-0.6-0.913-9.784-11.169-16.868-22.04c0.39-0.639,0.965-0.963,2.935-3.775c1.845,0.949,10.168,5.238,12.557,6.445      L43.228,144.003z M28.479,144.304c0.607-0.658,1.231-1.455,1.855-2.197C19.099,134.644,23.101,138.332,28.479,144.304z" fill="#000e3f" data-original="#000e3f" class=""></path>
				<path style="" d="M43.341,117.492c0.241,0.253,0.483,0.504,0.672,0.755c2.968,3.984,1.886,10.141-2.231,12.971      c1.079,0.955,1.507,1.622,6.864,6.916l0.028,0.028c-0.028,0.026-0.028,0.081-0.055,0.109c-0.765,1.275-3.172,3.535-4.565,4.606      c-5.447-5.214-12.542-13.096-18.74-19.093c3.434-5.672,11.556-12.35,17.999-6.321L43.341,117.492z M33.227,123.664      c-0.028,0.028-0.059,0.053-0.059,0.109c1.376,1.263,2.848,3.186,4.289,3.955l0.083-0.079c1.096-1.215,2.879-2.608,2.917-4.365      c-0.193-1.431-1.627-2.641-3.168-2.285C35.636,121.13,34.133,122.2,33.227,123.664z" fill="#000e3f" data-original="#000e3f" class=""></path>
				<path style="" d="M59.12,105.071c0.214,0.277,0.428,0.551,0.59,0.82c2.541,4.274,0.82,10.289-3.575,12.675      c0.976,1.064,1.331,1.77,6.112,7.599l0.024,0.03c-0.031,0.024-0.038,0.078-0.069,0.102c-0.893,1.189-3.523,3.188-5.023,4.108      c-4.875-5.755-11.111-14.34-16.651-20.953c4.009-5.286,12.783-11.085,18.568-4.413L59.12,105.071z M48.409,110.157      c-0.028,0.023-0.059,0.048-0.065,0.102c1.234,1.401,2.499,3.468,3.854,4.384l0.09-0.072c1.217-1.093,3.137-2.292,3.358-4.036      c-0.045-1.445-1.341-2.797-2.916-2.607C51.074,107.887,49.467,108.795,48.409,110.157z" fill="#000e3f" data-original="#000e3f" class=""></path>
				<path style="" d="M71.586,87.966c2.475,9.393,2.344,19.45,4.537,28.836c-0.283,0.132-0.548,0.296-0.845,0.481      c-0.924,0.575-2.013,1.394-3.034,2.031c-0.265,0.164-0.527,0.328-0.81,0.459l-0.069,0.041c-1.065-4.277-1.938-9.269-2.793-14.09      l-0.041-0.065c-3.361-3.259-8.029-5.607-11.239-8.776c0.886-0.553,1.751-1.369,2.706-1.964c0.528-0.328,1.076-0.623,1.713-0.703      c1.641,1.678,5.22,4.478,7.036,5.633c-0.097-2.137-1.472-6.542-1.789-8.814c0.686-0.656,2.162-1.669,3.313-2.388      c0.528-0.327,1.01-0.583,1.293-0.714L71.586,87.966z" fill="#000e3f" data-original="#000e3f" class=""></path>
			</g>
		</g>
		<g>
			<g>
				<path style="" d="M26.18,195.282c4.254,2.346,8.877,4.313,13.269,6.727c3.668,2.127,9.342,4.511,8.705,9.609      c-0.038,2.431-1.275,4.896-2.799,6.732c-3.058,3.181-8.688,1.04-12.111-0.96c0.369-1.383,1.71-3.794,2.847-5.305l0.035,0.017      l0.172,0.089c1.465,0.632,4.04,1.576,5.006-0.024c0.989-1.235-0.035-2.555-1.32-3.357c-5.188-2.567-10.722-5.313-16.112-8.337      l-0.241-0.125L26.18,195.282z" fill="#000e3f" data-original="#000e3f" class=""></path>
				<path style="" d="M43.607,181.229c1.134,0.609,2.199,1.316,3.251,2.055c2.213,1.651,4.406,2.913,6.537,4.552      l1.003,0.804c1.458,1.106,2.81,2.51,3.558,4.123c0.545,1.431,0.297,3.08-0.228,4.643c-0.438,1.437-1.186,2.71-2.12,3.909      c-1.338,1.674-2.861,3.135-5.096,2.778c-1.475-0.093-2.823-0.797-4.109-1.6c-3.454-2.1-7.026-4.09-10.28-6.564      c-1.92-1.319-3.761-3.045-4.402-5.38c-0.079-0.377-0.121-0.733-0.093-1.132c0.493-3.771,3.213-7.746,6.774-8.977      c0.955-0.252,1.938-0.255,2.855-0.022C42.097,180.555,42.862,180.874,43.607,181.229z M44.624,187.719      c-0.034-0.021-1.169-0.631-1.934-1.09c-1.262-0.696-2.717-0.82-3.868-0.136c-0.934,0.638-1.283,1.804-1.217,2.827      c0.089,1.13,0.496,2.141,1.231,2.999c1.417,1.45,3.241,2.703,5.119,3.805c1.672,0.78,3.272,1.884,4.975,2.404      c2.275,0.294,4.268-2.298,3.654-4.614c-0.531-1.517-0.745-1.192-2.517-2.595c-0.855-0.613-1.548-1.116-1.645-1.181l-1.555-1.027      L44.624,187.719z" fill="#000e3f" data-original="#000e3f" class=""></path>
				<path style="" d="M67.525,175.054c2.362,2.505,2.989,5.893,0.886,8.99c-2.465,3.655-7.343,6.574-11.149,3.683      c-5.271-4.352-10.487-9.012-15.831-13.272l-0.055,0.004l0.024-0.029c1.014-1.227,2.32-3.172,3.637-4.097l0.031,0.023      c4.647,4.191,9.632,8.157,14.921,11.872c2.417,1.039,4.399-1.91,2.892-3.808c-4.616-4.164-9.725-8.282-14.269-12.235      c0.827-1.182,2.341-3.809,3.702-4.296C57.631,165.876,62.847,170.233,67.525,175.054z" fill="#000e3f" data-original="#000e3f" class=""></path>
				<path style="" d="M86.938,163.972c-1.313,1.264-2.806,3.019-4.592,4.52l-0.028,0.028      c-2.368-1.009-7.164-2.862-10.642-3.291l-0.138-0.029c1.393,1.894,5.247,5.348,6.702,6.697      c-0.748,1.743-4.289,4.551-4.575,4.987c0.224-0.217-16.91-17.774-18.992-19.383c1.806-2.324,3.978-5.162,6.988-7.462      c4.64-4.024,12.145-1.923,13.559,4.199c0.593,2.016,0.386,4.099-1.3,5.931l-0.114,0.108l-0.024,0.026l0.024,0.029      c4.23,1.266,9.029,1.665,13.104,3.668L86.938,163.972z M65.974,160.803l0.028-0.028c0.948-0.749,2.069-1.715,2.827-2.715      c1.131-1.679-0.903-4.027-2.72-3.845c-1.541,0.024-2.775,1.482-3.582,3.278C63.526,158.364,65.026,160.098,65.974,160.803z" fill="#000e3f" data-original="#000e3f" class=""></path>
				<path style="" d="M98.059,155.504c-3.689-2.022-7.298-3.81-10.26-5.702l-1.014-0.692      c-0.507-0.345-1.014-0.691-1.107-0.62c-0.127,0.094,3.127,4.549,5.764,8.006c0.731,0.958,1.413,1.853,1.986,2.54      c-0.369,0.477-0.779,0.837-1.241,1.19c-0.986,0.754-2.148,1.345-3.106,2.075l-1.648-2.161c-2.989-3.922-5.65-7.216-8.591-11.075      c-2.168-2.841-4.247-5.698-6.033-8.487c0.331-0.398,0.8-0.806,1.293-1.182c0.527-0.4,2.658-1.831,2.799-1.646      c1.741,1.066,2.182,1.069,4.244,2.234c0.693,0.398,6.43,3.248,6.526,3.177c0.052-0.187-0.538-1.152-1.082-1.862      c-1.245-1.636-2.375-2.924-3.503-4.405c-0.662-0.865-1.289-1.752-2.037-2.794c0.617-0.665,1.31-1.292,2.082-1.881      c0.772-0.588,1.5-1.045,2.179-1.369l7.581,9.942c1.351,1.705,2.716,3.496,4.058,5.256c0.921,1.204,1.713,2.309,2.586,3.449      c0.634,0.836,1.279,1.615,1.913,2.448l0.469,0.617c-0.069,0.102-0.19,0.39-0.9,0.932      C100.183,154.127,98.894,154.868,98.059,155.504z" fill="#000e3f" data-original="#000e3f" class=""></path>
				<path style="" d="M114.824,138.514c0.969,1.366,1.934,2.962,2.375,4.51c-4.533,2.71-9.146,5.965-13.648,8.202      c-4.678-7.702-9.574-14.862-13.759-22.726c4.982-3.39,13.5-8.747,13.621-8.547c1.179,1.419,1.917,3.152,2.861,4.713l0.024,0.034      c-2.441,2.344-5.699,3.641-8.46,5.681l-0.097,0.061l-0.014,0.054c0.817,1.274,1.369,2.849,2.393,3.863l0.052,0.014      c1.389-0.708,2.765-1.588,4.147-2.381l0.017,0.033c1.141,1.352,1.851,2.968,2.872,4.574c-1.141,1.192-3.554,2.157-3.796,2.804      c0.552,1.436,1.776,3.148,2.52,4.15l0.052,0.013c2.924-1.774,5.84-3.183,8.801-5.117L114.824,138.514z" fill="#000e3f" data-original="#000e3f" class=""></path>
				<path style="" d="M122.864,110.641c1.365,9.618,0.065,19.593,1.152,29.171c-0.297,0.097-0.579,0.23-0.897,0.379      c-0.979,0.464-2.162,1.149-3.247,1.663c-0.283,0.134-0.565,0.265-0.862,0.364l-0.069,0.032      c-0.562-4.371-0.848-9.433-1.134-14.319l-0.034-0.07c-2.958-3.628-7.323-6.505-10.142-10.026      c0.948-0.447,1.899-1.154,2.92-1.635c0.558-0.265,1.138-0.497,1.782-0.498c1.434,1.854,4.661,5.054,6.333,6.412      c0.152-2.132-0.7-6.669-0.752-8.963c0.758-0.574,2.341-1.405,3.572-1.986c0.558-0.265,1.069-0.462,1.365-0.56L122.864,110.641z" fill="#000e3f" data-original="#000e3f" class=""></path>
			</g>
		</g>
	</g>
	<g>
		<path style="" d="M311.376,88.623c1.574-2.224,4.981-5.116,7.387-13.854c0.216-0.783,0.445-1.574,0.78-2.31    c0.466-1.025,1.645-1.195,2.386-0.319c1.677,1.979,2.069,5.335,7.547,10.695c3.215,3.145,6.139,3.96,3.899,6.246    c-5.583,5.699-6.957,13.603-7.873,15.744c-0.395,0.924-1.519,1.097-2.208,0.378c-0.739-0.771-1.174-1.748-1.662-2.685    c-3.609-6.941-7.978-9.864-9.784-11.315C311.393,90.839,310.833,89.388,311.376,88.623z" fill="#fd8a02" data-original="#fd8a02" class=""></path>
		<path style="" d="M183.484,105.659c1.574-2.224,4.981-5.116,7.387-13.854c0.215-0.783,0.445-1.574,0.78-2.31    c0.466-1.024,1.645-1.195,2.387-0.319c1.677,1.98,2.069,5.335,7.547,10.695c3.215,3.145,6.139,3.96,3.899,6.246    c-5.583,5.699-6.957,13.603-7.873,15.744c-0.395,0.924-1.519,1.097-2.208,0.378c-0.739-0.771-1.174-1.748-1.662-2.685    c-3.609-6.941-7.978-9.864-9.785-11.315C183.501,107.875,182.941,106.424,183.484,105.659z" fill="#fd8a02" data-original="#fd8a02" class=""></path>
		<path style="" d="M242.112,67.182c1.813-2.559,5.734-5.88,8.508-15.956c0.248-0.902,0.512-1.813,0.898-2.66    c0.537-1.18,1.894-1.376,2.749-0.367c1.933,2.282,2.383,6.145,8.692,12.317c3.702,3.623,7.071,4.561,4.491,7.194    c-6.431,6.564-8.013,15.667-9.068,18.134c-0.455,1.065-1.749,1.264-2.543,0.436c-0.852-0.888-1.353-2.013-1.914-3.093    c-4.165-8.009-9.213-11.382-11.27-13.032C242.132,69.734,241.486,68.064,242.112,67.182z" fill="#fd8a02" data-original="#fd8a02" class=""></path>
		<path style="" d="M345.444,420.575c-1.574,2.224-4.981,5.116-7.387,13.854c-0.216,0.783-0.445,1.574-0.78,2.31    c-0.466,1.025-1.645,1.195-2.387,0.319c-1.677-1.98-2.069-5.335-7.547-10.695c-3.215-3.145-6.139-3.96-3.899-6.246    c5.583-5.699,6.957-13.603,7.873-15.744c0.395-0.924,1.519-1.097,2.208-0.378c0.739,0.771,1.174,1.748,1.662,2.685    c3.609,6.941,7.978,9.864,9.784,11.315C345.426,418.36,345.987,419.81,345.444,420.575z" fill="#fd8a02" data-original="#fd8a02" class=""></path>
		<path style="" d="M458.736,386.761c-1.574,2.224-4.981,5.116-7.387,13.854c-0.215,0.783-0.445,1.574-0.78,2.31    c-0.466,1.025-1.645,1.195-2.387,0.319c-1.677-1.98-2.069-5.335-7.547-10.695c-3.215-3.145-6.139-3.96-3.899-6.246    c5.583-5.699,6.957-13.603,7.873-15.744c0.395-0.924,1.519-1.097,2.208-0.378c0.739,0.771,1.174,1.748,1.662,2.685    c3.609,6.941,7.978,9.864,9.785,11.315C458.718,384.545,459.278,385.995,458.736,386.761z" fill="#fd8a02" data-original="#fd8a02" class=""></path>
		<path style="" d="M410.702,424.942c-1.813,2.56-5.733,5.88-8.508,15.956c-0.248,0.902-0.512,1.813-0.898,2.66    c-0.537,1.18-1.895,1.376-2.749,0.367c-1.934-2.282-2.383-6.145-8.692-12.317c-3.702-3.623-7.07-4.561-4.491-7.194    c6.431-6.564,8.013-15.667,9.068-18.134c0.455-1.065,1.749-1.264,2.543-0.436c0.852,0.888,1.352,2.013,1.914,3.093    c4.166,8.009,9.213,11.381,11.27,13.032C410.682,422.39,411.328,424.06,410.702,424.942z" fill="#fd8a02" data-original="#fd8a02" class=""></path>
	</g>
</g>















</g></svg>